<svg width="18" height="18" viewBox="0 0 18 18" fill="none" xmlns="http://www.w3.org/2000/svg">
<g id="Clip path group">
<mask id="mask0_799_54474" style="mask-type:luminance" maskUnits="userSpaceOnUse" x="0" y="0" width="18" height="18">
<g id="clip-path">
<path id="Ellipse 243" d="M9.14016 17.6202C13.8235 17.6202 17.6202 13.8235 17.6202 9.14016C17.6202 4.45678 13.8235 0.660156 9.14016 0.660156C4.45678 0.660156 0.660156 4.45678 0.660156 9.14016C0.660156 13.8235 4.45678 17.6202 9.14016 17.6202Z" fill="white"/>
</g>
</mask>
<g mask="url(#mask0_799_54474)">
<g id="Mask Group 67">
<g id="Flag_of_the_People&#39;s_Republic_of_China">
<path id="Path 8738" d="M0.394531 0.660156H27.1595V21.1892H0.394531V0.660156Z" fill="#EE1C25"/>
<g id="Group 13479">
<path id="s" d="M5.95839 5.9248L7.45406 10.5273L3.53418 7.68228H8.37307L4.4585 10.5263L5.95839 5.9248Z" fill="#FFFF00"/>
</g>
<path id="Path 8739" d="M10.5314 5.14488L10.3897 6.75134L9.55968 5.36866L11.0444 5.99997L9.47273 6.36144L10.5314 5.14488Z" fill="#FFFF00"/>
<path id="Path 8740" d="M12.5038 7.03127L11.7493 8.45652L11.5215 6.86007L12.6444 8.01843L11.0558 7.7411L12.5038 7.03127Z" fill="#FFFF00"/>
<path id="Path 8741" d="M12.6928 9.87488L11.423 10.8691L11.8654 9.31831L12.419 10.8337L11.0811 9.93319L12.6928 9.87488Z" fill="#FFFF00"/>
<path id="Path 8742" d="M10.4979 11.0678L10.4229 12.6788L9.53635 11.3317L11.0459 11.9009L9.49062 12.3272L10.4979 11.0678Z" fill="#FFFF00"/>
</g>
</g>
</g>
</g>
</svg>
