<svg xmlns="http://www.w3.org/2000/svg" width="16" height="16" viewBox="0 0 16 16">
  <g id="Group_13267" data-name="Group 13267" transform="translate(0.332 -0.493)">
    <rect id="Rectangle_1908" data-name="Rectangle 1908" width="16" height="16" rx="8" transform="translate(-0.332 0.493)" fill="rgba(0,0,0,0.5)" opacity="0"/>
    <path id="Path_72" data-name="Path 72" d="M1.8-5.391l3.6-3.6.741-.741a.281.281,0,0,0,0-.4l-.793-.793a.281.281,0,0,0-.4,0L.609-6.581l-4.337-4.337a.281.281,0,0,0-.4,0l-.794.793a.281.281,0,0,0,0,.4L-.581-5.391-4.918-1.055a.281.281,0,0,0,0,.4l.793.793a.281.281,0,0,0,.4,0L.609-4.2l3.6,3.6.741.741a.281.281,0,0,0,.4,0l.793-.793a.281.281,0,0,0,0-.4Z" transform="translate(6.988 13.813)" fill="#fff"/>
  </g>
</svg>
