<svg xmlns="http://www.w3.org/2000/svg" width="16" height="15.999" viewBox="0 0 16 15.999">
  <g id="edit_1_" data-name="edit (1)" transform="translate(-122.389 -127.579)">
    <path id="Path_5407" data-name="Path 5407" d="M137.569,128.4a2.8,2.8,0,0,1,0,3.955l-11.083,11.071a.467.467,0,0,1-.33.136h-2.833a.933.933,0,0,1-.933-.932V139.8a.466.466,0,0,1,.136-.33L133.61,128.4a2.8,2.8,0,0,1,3.959,0Zm-.989.988a1.4,1.4,0,0,0-1.92-.056l-.06.056L123.844,140.13a.186.186,0,0,0-.055.132v1.715a.187.187,0,0,0,.187.186h1.716a.187.187,0,0,0,.132-.055l10.756-10.742a1.4,1.4,0,0,0,.056-1.918l-.056-.06Z" fill="#666"/>
    <path id="Path_5408" data-name="Path 5408" d="M545.758,210.3l3.96,3.96-.99.99-3.96-3.96Z" transform="translate(-413.138 -80.915)" fill="#666"/>
    <path id="Path_5409" data-name="Path 5409" d="M490.667,795.733m.187,0h7.561a.165.165,0,0,1,.187.187v1.027a.165.165,0,0,1-.187.187h-7.561a.165.165,0,0,1-.187-.187V795.92A.165.165,0,0,1,490.853,795.733Z" transform="translate(-360.221 -653.555)" fill="#666"/>
    <path id="Path_5410" data-name="Path 5410" d="M661.333,667.733m.187,0h3.827a.165.165,0,0,1,.187.187v1.027a.165.165,0,0,1-.187.187H661.52a.165.165,0,0,1-.187-.187V667.92A.165.165,0,0,1,661.52,667.733Z" transform="translate(-527.154 -528.352)" fill="#666"/>
  </g>
</svg>
