<svg xmlns="http://www.w3.org/2000/svg" width="18" height="18" viewBox="0 0 18 18">
  <g id="Group_9582" data-name="Group 9582" transform="translate(-732 -667)">
    <path id="Path_2" data-name="Path 2" d="M9,0a9,9,0,1,0,9,9A9.01,9.01,0,0,0,9,0ZM9,16.892A7.892,7.892,0,1,1,16.892,9,7.9,7.9,0,0,1,9,16.892Z" transform="translate(732 667)" fill="#00a6ff"/>
    <g id="info_6_" data-name="info (6)" transform="translate(738.517 670.961)">
      <path id="Path_4" data-name="Path 4" d="M35.387,8.841l-.138.566q-.623.246-.994.375a2.623,2.623,0,0,1-.862.129,1.721,1.721,0,0,1-1.173-.368,1.191,1.191,0,0,1-.419-.935,3.306,3.306,0,0,1,.031-.45q.032-.23.1-.519L32.452,5.8q.069-.264.117-.5a2.174,2.174,0,0,0,.047-.431.666.666,0,0,0-.145-.491.821.821,0,0,0-.555-.139A1.455,1.455,0,0,0,31.5,4.3c-.141.042-.262.082-.363.12l.139-.567q.51-.208.976-.355a2.92,2.92,0,0,1,.883-.148,1.679,1.679,0,0,1,1.155.362,1.2,1.2,0,0,1,.406.941c0,.08-.009.221-.028.422a2.821,2.821,0,0,1-.1.554l-.517,1.83a4.862,4.862,0,0,0-.114.5,2.6,2.6,0,0,0-.051.428.616.616,0,0,0,.163.5.919.919,0,0,0,.566.132,1.633,1.633,0,0,0,.428-.066A2.391,2.391,0,0,0,35.387,8.841Zm.131-7.684a1.071,1.071,0,0,1-.362.815,1.231,1.231,0,0,1-.871.337,1.245,1.245,0,0,1-.875-.337,1.069,1.069,0,0,1-.365-.815A1.079,1.079,0,0,1,33.41.34a1.292,1.292,0,0,1,1.746,0A1.081,1.081,0,0,1,35.518,1.157Z" transform="translate(-31.139 0)" fill="#00a6ff"/>
    </g>
  </g>
</svg>
