<svg width="80" height="80" viewBox="0 0 80 80" fill="none" xmlns="http://www.w3.org/2000/svg">
<path d="M0 16C0 7.16344 7.16344 0 16 0H80V80H16C7.16344 80 0 72.8366 0 64V16Z" fill="#00A6FF"/>
<path d="M21 55.2H59V59H21V55.2ZM24.8 40H28.6V53.3H24.8V40ZM34.3 40H38.1V53.3H34.3V40ZM41.9 40H45.7V53.3H41.9V40ZM51.4 40H55.2V53.3H51.4V40ZM21 30.5L40 21L59 30.5V38.1H21V30.5ZM24.8 32.8482V34.2938H55.2V32.8482L40 25.2482L24.8 32.8482ZM40 32.4C39.6242 32.4 39.2569 32.2886 38.9444 32.0798C38.632 31.871 38.3884 31.5743 38.2446 31.2271C38.1008 30.8799 38.0632 30.4979 38.1365 30.1293C38.2098 29.7608 38.3908 29.4222 38.6565 29.1565C38.9222 28.8908 39.2608 28.7098 39.6293 28.6365C39.9979 28.5632 40.3799 28.6008 40.7271 28.7446C41.0743 28.8884 41.371 29.132 41.5798 29.4444C41.7886 29.7569 41.9 30.1242 41.9 30.5C41.9 31.0039 41.6998 31.4872 41.3435 31.8435C40.9872 32.1998 40.5039 32.4 40 32.4Z" fill="white"/>
<circle cx="54" cy="32" r="9.5" fill="#00FF40" stroke="#00A6FF" stroke-width="3"/>
</svg>
