<svg width="48" height="48" viewBox="0 0 48 48" fill="none" xmlns="http://www.w3.org/2000/svg">
<g id="head">
<g id="Mask">
<path id="Vector" d="M48 24C48 10.7452 37.2548 0 24 0C10.7452 0 0 10.7452 0 24C0 37.2548 10.7452 48 24 48C37.2548 48 48 37.2548 48 24Z" fill="#00A6FF"/>
<path id="Vector_2" d="M47.5 24C47.5 11.0213 36.9787 0.5 24 0.5C11.0213 0.5 0.5 11.0213 0.5 24C0.5 36.9787 11.0213 47.5 24 47.5C36.9787 47.5 47.5 36.9787 47.5 24Z" stroke="white" stroke-miterlimit="10"/>
</g>
<g id="ICON">
<path id="fun" d="M11.9397 17.1942L11 37.9584L19.0525 38L19.5313 28.1212L35.1651 28.0393L35.5255 22.1336L19.7681 22.2297C19.7681 22.2297 19.7872 20.4971 19.9833 18.5488C20.0183 17.9534 20.2412 17.3855 20.6187 16.93C20.9963 16.4744 21.5081 16.1557 22.0779 16.0213L36.3633 15.959L37 10L20.4914 10.0857L18.4311 10.0948C12.4643 10.5689 11.9397 17.1942 11.9397 17.1942Z" fill="white"/>
</g>
</g>
</svg>
