<svg xmlns="http://www.w3.org/2000/svg" width="13.821" height="13.821" viewBox="0 0 13.821 13.821">
  <path id="Path_5203" data-name="Path 5203" d="M14.039-5.121a6.91,6.91,0,0,0-6.91-6.91,6.91,6.91,0,0,0-6.91,6.91,6.91,6.91,0,0,0,6.91,6.91A6.91,6.91,0,0,0,14.039-5.121ZM6.33-1.462a.446.446,0,0,1-.631,0L2.8-4.36a.446.446,0,0,1,0-.631l.631-.63a.446.446,0,0,1,.631,0L6.014-3.669,10.2-7.85a.446.446,0,0,1,.631,0l.631.63a.446.446,0,0,1,0,.631Z" transform="translate(-0.219 12.031)" fill="#bcbec3"/>
</svg>
