<svg width="50" height="50" viewBox="0 0 50 50" fill="none" xmlns="http://www.w3.org/2000/svg">
<g id="tag-hot">
<path id="Rectangle" d="M20 0H50L0 50V20L20 0Z" fill="#FDB454"/>
<path id="HOT" d="M17.967 24.8976L16.6001 26.2644L13.9527 23.617L11.2183 26.3514L13.8657 28.9988L12.4982 30.3664L6.08049 23.9487L7.44804 22.5811L10.0375 25.1705L12.7718 22.4362L10.1824 19.8467L11.55 18.4792L17.967 24.8976ZM15.9411 20.6755C15.0013 19.8116 14.4362 18.6147 14.3664 17.34C14.3487 16.7275 14.4627 16.1183 14.7007 15.5536C14.9387 14.9889 15.2951 14.4819 15.7459 14.0668C16.1427 13.6368 16.6281 13.298 17.1685 13.0737C17.709 12.8494 18.2916 12.7451 18.8763 12.7679C20.0962 12.842 21.2402 13.3849 22.0689 14.2832C23.0016 15.1386 23.5622 16.3252 23.6309 17.5889C23.6487 18.1908 23.5374 18.7895 23.3044 19.3447C23.0715 19.8999 22.7223 20.3988 22.2803 20.8077C21.8797 21.2397 21.3922 21.5821 20.8499 21.8125C20.3076 22.0428 19.7228 22.1558 19.1337 22.1441C18.5311 22.1213 17.9389 21.9798 17.3911 21.7278C16.8433 21.4758 16.3505 21.1182 15.9411 20.6755ZM17.3044 19.1637C17.8271 19.7336 18.5247 20.1133 19.2871 20.2427C19.6221 20.2927 19.9642 20.2602 20.2837 20.1479C20.6033 20.0357 20.8906 19.8471 21.1207 19.5985C21.3713 19.3712 21.5639 19.0873 21.6824 18.7705C21.801 18.4536 21.8421 18.113 21.8023 17.777C21.676 17.0138 21.294 16.3161 20.719 15.7985C20.1884 15.2064 19.4796 14.8028 18.6995 14.6488C18.3684 14.5995 18.0303 14.6325 17.7149 14.7448C17.3996 14.8572 17.1168 15.0454 16.8914 15.293C16.6383 15.5267 16.4453 15.818 16.3289 16.1423C16.2124 16.4665 16.1759 16.8141 16.2225 17.1555C16.3464 17.9277 16.7276 18.6354 17.3044 19.1637ZM25.1738 7.09264L23.3424 8.92405L28.6414 14.2231L27.2682 15.5963L21.9692 10.2973L20.142 12.1244L19.0234 11.0058L24.053 5.97612L25.1738 7.09264Z" fill="white"/>
</g>
</svg>
