<svg width="16" height="16" viewBox="0 0 16 16" fill="none" xmlns="http://www.w3.org/2000/svg">
<path fill-rule="evenodd" clip-rule="evenodd" d="M4.61602 7.8483H4.6123L4.61251 5.19136C6.29136 5.1233 7.82332 4.4792 9.4136 2.8886C9.41886 2.88334 9.42407 2.87813 9.42922 2.87297C9.5768 2.72525 9.68156 2.62038 9.84121 2.55685C9.99849 2.49426 10.218 2.46893 10.3631 2.55676C10.6276 2.71695 10.7162 3.0837 10.7162 3.44541L10.7162 7.19308H10.7163L10.7163 11.596C10.7163 11.9577 10.6277 12.3244 10.3632 12.4846C10.2181 12.5725 9.99857 12.5471 9.8413 12.4845C9.68164 12.421 9.57688 12.3161 9.4293 12.1684C9.42415 12.1632 9.41894 12.158 9.41368 12.1528C7.82341 10.5622 6.29503 10.0728 4.61617 10.0047L4.61602 7.8483Z" fill="#F48718"/>
<path d="M2.13379 10.6342H3.92993V12.1586C3.92993 12.6546 3.52785 13.0566 3.03186 13.0566C2.53587 13.0566 2.13379 12.6546 2.13379 12.1586V10.6342Z" fill="#F48718"/>
<path d="M1.30005 7.60138C1.30005 6.76514 1.30005 6.34701 1.46209 6.0273C1.60629 5.74281 1.83741 5.51168 2.12191 5.36749C2.44162 5.20544 2.85974 5.20544 3.69598 5.20544H3.92993V9.99731H3.69598C2.85974 9.99731 2.44162 9.99731 2.12191 9.83527C1.83741 9.69108 1.60629 9.45995 1.46209 9.17545C1.30005 8.85574 1.30005 8.43762 1.30005 7.60138Z" fill="#F48718"/>
<path d="M12.6438 7.59868L14.3629 7.59836" stroke="#F48718" stroke-width="0.8" stroke-linecap="round"/>
<line x1="12.297" y1="4.81994" x2="13.2361" y2="3.89183" stroke="#F48718" stroke-width="0.8" stroke-linecap="round"/>
<line x1="0.4" y1="-0.4" x2="1.72032" y2="-0.4" transform="matrix(0.71124 0.702949 0.702949 -0.71124 12.2937 9.77466)" stroke="#F48718" stroke-width="0.8" stroke-linecap="round"/>
</svg>
