<svg width="20" height="20" viewBox="0 0 20 20" fill="none" xmlns="http://www.w3.org/2000/svg">
<path d="M15.9969 16.63H4.20987C3.91819 16.6353 3.62844 16.5817 3.35792 16.4725C3.0874 16.3633 2.84166 16.2007 2.63538 15.9945C2.4291 15.7882 2.26651 15.5425 2.15732 15.2719C2.04813 15.0014 1.99458 14.7117 1.99987 14.42V5.57999C1.99458 5.28832 2.04813 4.99855 2.15732 4.72803C2.26651 4.45751 2.4291 4.21178 2.63538 4.0055C2.84166 3.79922 3.0874 3.63663 3.35792 3.52744C3.62844 3.41825 3.91819 3.3647 4.20987 3.36999H15.9969C16.2885 3.3647 16.5783 3.41825 16.8488 3.52744C17.1193 3.63663 17.3651 3.79922 17.5714 4.0055C17.7776 4.21178 17.9402 4.45751 18.0494 4.72803C18.1586 4.99855 18.2122 5.28832 18.2069 5.57999V14.42C18.2122 14.7117 18.1586 15.0014 18.0494 15.2719C17.9402 15.5425 17.7776 15.7882 17.5714 15.9945C17.3651 16.2007 17.1193 16.3633 16.8488 16.4725C16.5783 16.5817 16.2885 16.6353 15.9969 16.63ZM4.20987 4.84299C4.11168 4.83765 4.01347 4.85304 3.92163 4.88819C3.8298 4.92334 3.74639 4.97744 3.67686 5.04697C3.60733 5.1165 3.55322 5.19992 3.51808 5.29175C3.48293 5.38359 3.46753 5.4818 3.47287 5.57999V14.42C3.46753 14.5182 3.48293 14.6164 3.51808 14.7082C3.55322 14.8001 3.60733 14.8835 3.67686 14.953C3.74639 15.0225 3.8298 15.0766 3.92163 15.1118C4.01347 15.1469 4.11168 15.1623 4.20987 15.157H15.9969C16.0951 15.1623 16.1933 15.1469 16.2851 15.1118C16.3769 15.0766 16.4603 15.0225 16.5299 14.953C16.5994 14.8835 16.6535 14.8001 16.6887 14.7082C16.7238 14.6164 16.7392 14.5182 16.7339 14.42V5.57999C16.7392 5.4818 16.7238 5.38359 16.6887 5.29175C16.6535 5.19992 16.5994 5.1165 16.5299 5.04697C16.4603 4.97744 16.3769 4.92334 16.2851 4.88819C16.1933 4.85304 16.0951 4.83765 15.9969 4.84299H4.20987Z" fill="#989DAB"/>
<path d="M10.103 11.473C9.94646 11.4578 9.79539 11.4075 9.66096 11.326L2.29396 6.16898C2.14269 6.04995 2.04398 5.87646 2.01895 5.6856C1.99393 5.49474 2.04456 5.30168 2.16004 5.14767C2.27551 4.99366 2.44666 4.89094 2.63688 4.86147C2.8271 4.83201 3.0213 4.87813 3.17796 4.98998L10.103 9.85198L17.028 4.98998C17.1846 4.87813 17.3788 4.83201 17.569 4.86147C17.7593 4.89094 17.9304 4.99366 18.0459 5.14767C18.1614 5.30168 18.212 5.49474 18.187 5.6856C18.1619 5.87646 18.0632 6.04995 17.912 6.16898L10.545 11.326C10.4105 11.4075 10.2595 11.4578 10.103 11.473Z" fill="#989DAB"/>
</svg>
