<svg width="24" height="24" viewBox="0 0 24 24" fill="none" xmlns="http://www.w3.org/2000/svg">
<path d="M12 1.97998C6.45998 1.97998 1.97998 6.45998 1.97998 12C1.97998 17.54 6.46998 22.02 12 22.02C17.53 22.02 22.02 17.53 22.02 12C22.02 6.46998 17.54 1.97998 12 1.97998ZM19.52 8.22998H16.38C16.07 6.60998 15.55 5.18998 14.88 4.09998C16.9 4.83998 18.56 6.32998 19.53 8.22998H19.52ZM20.42 12C20.42 12.75 20.31 13.48 20.12 14.17H16.6C16.68 13.46 16.72 12.73 16.72 11.97C16.72 11.21 16.68 10.51 16.61 9.81998H20.12C20.31 10.52 20.42 11.24 20.42 11.99V12ZM3.57998 12C3.57998 11.25 3.68998 10.52 3.87998 9.82998H7.38998C7.31998 10.52 7.27998 11.24 7.27998 11.98C7.27998 12.72 7.32998 13.47 7.39998 14.18H3.87998C3.68998 13.48 3.57998 12.76 3.57998 12.01V12ZM8.86998 11.98C8.86998 11.22 8.91998 10.51 8.99998 9.82998H15.01C15.09 10.51 15.14 11.23 15.14 11.98C15.14 12.73 15.09 13.49 15.01 14.18H9.00998C8.92998 13.49 8.87998 12.76 8.87998 11.98H8.86998ZM12.27 3.58998C13.23 4.16998 14.22 5.82998 14.74 8.21998H9.25998C9.78998 5.82998 10.77 4.16998 11.73 3.58998C11.82 3.58998 11.91 3.57998 12 3.57998C12.09 3.57998 12.18 3.58998 12.27 3.58998ZM9.12998 4.08998C8.45998 5.17998 7.93998 6.59998 7.62998 8.21998H4.48998C5.44998 6.30998 7.10998 4.82998 9.13998 4.08998H9.12998ZM4.47998 15.77H7.63998C7.96998 17.4 8.49998 18.83 9.17998 19.92C7.12998 19.19 5.44998 17.69 4.47998 15.77ZM11.81 20.41C10.82 19.87 9.79998 18.21 9.25998 15.77H14.73C14.19 18.21 13.18 19.87 12.18 20.41C12.12 20.41 12.06 20.41 11.99 20.41C11.92 20.41 11.87 20.41 11.8 20.41H11.81ZM14.82 19.93C15.51 18.84 16.04 17.41 16.36 15.78H19.52C18.55 17.7 16.87 19.2 14.82 19.93Z" fill="#5A5D62"/>
</svg>
