<svg width="24" height="24" viewBox="0 0 24 24" fill="none" xmlns="http://www.w3.org/2000/svg">
<path d="M14.93 15.1881C14.59 14.8981 14.1 15.0881 13.7 15.2381C13.158 15.4208 12.5918 15.5219 12.02 15.5381C11.4482 15.5219 10.882 15.4208 10.34 15.2381C9.93998 15.0881 9.44998 14.8981 9.10998 15.1881C9.00629 15.2863 8.9304 15.4101 8.89001 15.5471C8.84961 15.6841 8.84616 15.8293 8.87998 15.9681C8.99998 16.5381 9.66998 16.7681 10.14 16.9181C11.3694 17.2646 12.6706 17.2646 13.9 16.9181C14.37 16.7681 15.04 16.5381 15.16 15.9681C15.1938 15.8293 15.1904 15.6841 15.15 15.5471C15.1096 15.4101 15.0337 15.2863 14.93 15.1881Z" fill="#5A5D62"/>
<path d="M19.7799 7.97806H19.1199C18.8502 6.28912 17.9872 4.75167 16.6859 3.64174C15.3846 2.53182 13.7303 1.92212 12.0199 1.92212C10.3096 1.92212 8.65525 2.53182 7.35397 3.64174C6.05269 4.75167 5.18969 6.28912 4.91992 7.97806H4.25992C2.51992 7.97806 1.45992 9.12806 1.41992 11.0581V12.7581C1.48992 14.6981 2.52992 15.8081 4.25992 15.8081H5.91992C6.05253 15.8081 6.17971 15.7554 6.27348 15.6616C6.36724 15.5678 6.41992 15.4407 6.41992 15.3081V9.38806C6.39284 7.97314 6.88759 6.59777 7.80979 5.52434C8.73199 4.4509 10.0171 3.75452 11.4199 3.56806C12.1985 3.48981 12.9848 3.57559 13.7281 3.81986C14.4715 4.06413 15.1554 4.46147 15.7358 4.98627C16.3162 5.51106 16.7801 6.15166 17.0978 6.86676C17.4154 7.58186 17.5797 8.35559 17.5799 9.13806V14.8781C17.58 16.3529 16.9983 17.7683 15.961 18.8168C14.9237 19.8653 13.5147 20.4623 12.0399 20.4781C11.9184 20.4817 11.8005 20.5198 11.6999 20.5881C11.6436 20.6273 11.5978 20.6797 11.5664 20.7407C11.535 20.8017 11.5191 20.8695 11.5199 20.9381V21.6581C11.5215 21.7248 11.5385 21.7903 11.5698 21.8493C11.601 21.9083 11.6456 21.9592 11.6999 21.9981C11.8051 22.0518 11.9218 22.0793 12.0399 22.0781C13.7758 22.0592 15.4465 21.4146 16.7453 20.2628C18.0441 19.111 18.8837 17.5292 19.1099 15.8081H19.7399C21.4799 15.8081 22.5099 14.6981 22.5799 12.7281V11.0481C22.5899 9.12806 21.5299 7.97806 19.7799 7.97806ZM4.77992 14.2081H4.25992C3.63992 14.2081 3.06992 14.0281 3.01992 12.7281V11.0781C3.01992 9.75806 3.65992 9.57806 4.25992 9.57806H4.81992L4.77992 14.2081ZM21.0199 11.8881V12.7581C20.9699 14.0781 20.3999 14.2581 19.7799 14.2581H19.2199V9.57806H19.7799C20.3799 9.57806 20.9999 9.75806 21.0199 11.0581V11.8881Z" fill="#5A5D62"/>
</svg>
