<svg width="24" height="24" viewBox="0 0 24 24" fill="none" xmlns="http://www.w3.org/2000/svg">
<path d="M12.2301 11.9201C11.0401 11.9201 10.0801 10.9601 10.0801 9.77012C10.0801 8.58012 11.0401 7.62012 12.2301 7.62012C13.4201 7.62012 14.3801 8.58012 14.3801 9.77012C14.3801 10.9601 13.4201 11.9201 12.2301 11.9201ZM12.2301 8.92012C11.7601 8.92012 11.3801 9.30012 11.3801 9.77012C11.3801 10.2401 11.7601 10.6201 12.2301 10.6201C12.7001 10.6201 13.0801 10.2401 13.0801 9.77012C13.0801 9.30012 12.7001 8.92012 12.2301 8.92012Z" fill="#5A5D62"/>
<path d="M4.48999 17.75C3.79999 17.75 3.23999 17.19 3.23999 16.5V15.57L6.79999 13.17C7.11999 12.96 7.54999 12.97 7.85999 13.19L10.93 15.47C11.32 15.76 11.78 15.9 12.25 15.9C12.34 15.9 12.42 15.88 12.51 15.87C12.59 15.34 12.73 14.83 12.93 14.36L12.7 14.49C12.39 14.66 11.99 14.64 11.71 14.43L8.63999 12.15C7.88999 11.59 6.85999 11.57 6.07999 12.1L3.24999 14.01V7.51001C3.24999 6.82001 3.80999 6.26001 4.49999 6.26001H16.5C17.19 6.26001 17.75 6.82001 17.75 7.51001V10.75C18 10.72 18.25 10.7 18.5 10.7C18.75 10.7 19 10.72 19.25 10.75V7.51001C19.25 5.99001 18.02 4.76001 16.5 4.76001H4.48999C2.96999 4.76001 1.73999 5.99001 1.73999 7.51001V16.51C1.73999 18.03 2.96999 19.26 4.48999 19.26H12.97C12.76 18.79 12.6 18.29 12.51 17.76H4.48999V17.75Z" fill="#5A5D62"/>
<path d="M18.4899 11.9399C15.8399 11.9399 13.6799 14.0999 13.6799 16.7499C13.6799 19.3999 15.8399 21.5599 18.4899 21.5599C21.1399 21.5599 23.2999 19.3999 23.2999 16.7499C23.2999 14.0999 21.1399 11.9399 18.4899 11.9399ZM18.4899 20.2599C16.5599 20.2599 14.9799 18.6899 14.9799 16.7499C14.9799 14.8099 16.5499 13.2399 18.4899 13.2399C20.4299 13.2399 21.9999 14.8099 21.9999 16.7499C21.9999 18.6899 20.4299 20.2599 18.4899 20.2599Z" fill="#5A5D62"/>
<path d="M18.8701 14.7398C18.6601 14.5398 18.3301 14.5398 18.1201 14.7398L16.74 16.0398C16.52 16.2498 16.51 16.5998 16.72 16.8198C16.93 17.0398 17.2801 17.0498 17.5001 16.8398L17.8501 16.5098V18.4998C17.8501 18.8598 18.1401 19.1498 18.5001 19.1498C18.8601 19.1498 19.15 18.8598 19.15 18.4998V16.5098L19.5001 16.8398C19.61 16.9398 19.74 16.9898 19.88 16.9898C20.03 16.9898 20.1701 16.9298 20.2801 16.8198C20.4901 16.5998 20.4801 16.2498 20.2601 16.0398L18.88 14.7398H18.8701Z" fill="#5A5D62"/>
</svg>
