<svg width="24" height="24" viewBox="0 0 24 24" fill="none" xmlns="http://www.w3.org/2000/svg">
<path d="M2.21045 12.4421L5.17887 6.88424L2.65255 8.96845C3.47361 6.31581 5.4315 4.35792 7.3894 3.34739C7.32624 3.53687 6.69466 7.3895 6.69466 7.3895L10.2315 1.26318L11.242 5.30529L13.7052 1.3895L14.0841 3.72634L17.242 2.96845L13.3894 5.4316L13.3262 3.53687L12.2526 6.12634L10.1052 7.51581L9.91571 2.90529L8.02098 8.84213L2.21045 12.4421ZM21.4736 13.2L17.0526 14.5895L15.7262 19.579L15.4736 14.8421L11.7473 19.0106L12.3789 16.0421L9.72624 16.8632L8.08413 18.6948V17.3684L4.10519 18.6316H7.01045L7.19992 20.8421L10.2947 17.5579L10.5473 21.7895L14.0841 17.6211L15.4104 21.6L18.6947 15.4737L18.5052 18.6948C20.2736 17.0527 21.1578 15.2842 21.4736 13.2Z" fill="#FF0088"/>
<path d="M2.21045 12.4421L5.17887 6.88424L2.65255 8.96845C3.47361 6.31581 5.4315 4.35792 7.3894 3.34739C7.32624 3.53687 6.69466 7.3895 6.69466 7.3895L10.2315 1.26318L11.242 5.30529L13.7052 1.3895L14.0841 3.72634L17.242 2.96845L13.3894 5.4316L13.3262 3.53687L12.2526 6.12634L10.1052 7.51581L9.91571 2.90529L8.02098 8.84213L2.21045 12.4421ZM21.4736 13.2L17.0526 14.5895L15.7262 19.579L15.4736 14.8421L11.7473 19.0106L12.3789 16.0421L9.72624 16.8632L8.08413 18.6948V17.3684L4.10519 18.6316H7.01045L7.19992 20.8421L10.2947 17.5579L10.5473 21.7895L14.0841 17.6211L15.4104 21.6L18.6947 15.4737L18.5052 18.6948C20.2736 17.0527 21.1578 15.2842 21.4736 13.2Z" fill="#FF0088"/>
<path d="M15.158 13.5157C15.2212 13.5789 15.158 13.7052 15.0949 13.7052L8.40015 16.1052C8.33699 16.1052 8.27383 16.1052 8.27383 16.042L7.95805 15.221C7.70541 14.5894 7.83173 13.8947 8.27383 13.5157L11.4949 10.4841C11.2423 10.421 10.9896 10.4841 10.8002 10.5473L9.15804 11.3683C8.84226 11.4947 8.65278 11.8105 8.71594 12.1262C8.71594 12.2526 8.71594 12.2526 8.65278 12.3157L7.26331 13.0105C7.20015 13.0105 7.13699 13.0105 7.13699 12.9473L7.07383 12.7578C6.56857 11.4315 7.64226 10.2315 8.46331 9.7894L10.0423 8.90519C10.9896 8.33677 12.758 8.08414 13.4528 9.72624C13.5159 9.85256 13.5791 10.1052 13.5791 10.1052C13.6423 10.2947 13.7054 10.5473 13.5159 10.7368L10.4844 13.3262L14.1475 11.7473C14.2107 11.7473 14.2738 11.7473 14.337 11.8105L15.158 13.5157ZM5.93699 11.4315C5.93699 11.3683 5.87383 11.3683 5.81068 11.3683L4.54752 12.0631C4.48436 12.0631 4.48436 12.1894 4.48436 12.1894L4.80015 13.0105C4.92647 13.3262 4.86331 13.642 4.73699 13.7052L0.63173 15.7894C0.442256 15.9157 0.379098 16.2947 0.505414 16.7368C0.63173 17.1157 0.947519 17.3683 1.20015 17.3052L5.36857 15.5368C5.55805 15.4736 5.74752 15.6631 5.87384 15.9789L6.18962 16.8631C6.18962 16.9262 6.25278 16.9894 6.31594 16.9262L7.5791 16.421C7.64226 16.421 7.64226 16.3578 7.64226 16.2947L5.93699 11.4315ZM22.8001 6.37887C23.8738 8.39993 24.0633 10.4841 23.1159 10.7999L16.9896 13.0105C16.2949 13.2631 15.158 11.9368 14.4002 10.1683C13.6423 8.46308 13.5159 6.88414 14.1475 6.50519L19.3896 3.53677C20.2107 3.09466 21.7265 4.29466 22.8001 6.37887ZM20.5265 7.3894C20.2107 6.69466 19.6423 6.12624 19.3265 6.31572L16.1686 7.89466C15.9159 8.02098 16.0423 8.71572 16.2949 9.34729C16.5475 9.97887 16.9896 10.5473 17.3054 10.421L20.6528 8.96835C20.9686 8.84203 20.8423 8.08414 20.5265 7.3894Z" fill="black"/>
</svg>
