<svg width="20" height="20" viewBox="0 0 20 20" fill="none" xmlns="http://www.w3.org/2000/svg">
<path d="M17.5404 11.6989C17.8437 12.3 18.0012 12.9641 18 13.6374C17.9917 14.8029 17.5209 15.9173 16.691 16.7357C15.8612 17.554 14.7402 18.0092 13.5748 18.0011C12.8454 18.0012 12.1272 17.8223 11.4831 17.48C11.022 17.5644 10.5542 17.607 10.0855 17.6072C9.09031 17.6143 8.10349 17.4254 7.18137 17.0512C6.25924 16.6769 5.41985 16.1247 4.71114 15.4261C4.00243 14.7274 3.43827 13.896 3.05088 12.9793C2.66349 12.0626 2.46045 11.0786 2.45336 10.0835C2.45296 9.57546 2.50465 9.06873 2.60761 8.57124C2.20969 7.90409 1.99973 7.14169 2 6.36488C2.00396 5.78763 2.12159 5.21681 2.34619 4.68503C2.57078 4.15325 2.89794 3.67093 3.30897 3.2656C3.72001 2.86028 4.20686 2.5399 4.74173 2.32277C5.2766 2.10563 5.84901 1.99599 6.42626 2.00011C7.25783 1.99874 8.07312 2.23054 8.77957 2.66921C9.21081 2.59784 9.64731 2.56298 10.0844 2.56499C12.094 2.55084 14.027 3.33555 15.4581 4.7465C16.8891 6.15745 17.7011 8.07908 17.7155 10.0887C17.716 10.632 17.657 11.1737 17.5393 11.7041L17.5404 11.6989ZM13.9969 13.6791C14.3489 13.1923 14.5368 12.6061 14.5336 12.0053C14.5464 11.5438 14.4386 11.0868 14.2209 10.6796C14.0111 10.3162 13.716 10.0093 13.3611 9.78541C12.9548 9.52974 12.5159 9.32993 12.0563 9.19135C11.5004 9.01835 10.9383 8.87279 10.37 8.75467C10.0163 8.67616 9.66441 8.59069 9.31422 8.49829C9.10242 8.4404 8.89682 8.36185 8.70036 8.26379C8.52642 8.18327 8.37154 8.06675 8.24596 7.92194C8.14308 7.80009 8.08855 7.64468 8.09275 7.48526C8.10154 7.33454 8.14991 7.18879 8.23298 7.06272C8.31605 6.93666 8.43089 6.83471 8.56592 6.76718C8.96644 6.53536 9.42517 6.42358 9.88744 6.44513C10.332 6.40867 10.777 6.50983 11.1621 6.73487C11.4482 6.95967 11.6819 7.24421 11.8468 7.56863C11.9675 7.79022 12.1214 7.99197 12.3033 8.16686C12.4903 8.31173 12.7237 8.3836 12.9599 8.36905C13.1058 8.37241 13.2508 8.34542 13.3857 8.2898C13.5206 8.23419 13.6425 8.15116 13.7436 8.04597C13.842 7.95153 13.9203 7.83828 13.974 7.71295C14.0277 7.58762 14.0557 7.45277 14.0563 7.31642C14.0496 7.01493 13.9671 6.71996 13.8166 6.45868C13.6285 6.13641 13.3758 5.85646 13.0745 5.63638C12.6948 5.35837 12.2684 5.15048 11.8155 5.02252C11.2368 4.85781 10.637 4.77915 10.0354 4.78906C9.27433 4.77438 8.51647 4.89217 7.79572 5.13716C7.21584 5.32834 6.70223 5.68039 6.31475 6.15227C5.97257 6.5852 5.7887 7.1221 5.79364 7.6739C5.77689 8.21904 5.95127 8.75289 6.28661 9.18302C6.63894 9.60309 7.09071 9.9284 7.60083 10.1293C8.24756 10.3881 8.91717 10.5856 9.60083 10.7192C10.1824 10.8391 10.6535 10.9558 11.0005 11.0611C11.301 11.1475 11.5788 11.2987 11.8145 11.504C11.9118 11.5941 11.9886 11.7042 12.0395 11.8267C12.0904 11.9492 12.1143 12.0812 12.1094 12.2138C12.1054 12.4058 12.0512 12.5935 11.9521 12.7581C11.8529 12.9226 11.7124 13.0584 11.5445 13.1517C11.0826 13.433 10.5475 13.5704 10.0073 13.5467C9.62897 13.5635 9.25139 13.4999 8.89942 13.3602C8.64983 13.2507 8.43032 13.0827 8.25951 12.8704C8.08395 12.6335 7.93702 12.3767 7.82178 12.1054C7.72386 11.8591 7.57051 11.6387 7.37363 11.4613C7.18471 11.3066 6.94654 11.2249 6.70245 11.231C6.40883 11.2208 6.12281 11.3254 5.90516 11.5228C5.80545 11.6119 5.72596 11.7214 5.67204 11.8438C5.61811 11.9662 5.59099 12.0988 5.59249 12.2325C5.61055 12.7238 5.78101 13.1973 6.08025 13.5874C6.40534 14.0487 6.83591 14.4256 7.33611 14.6869C8.18861 15.0914 9.1258 15.2851 10.0688 15.2518C10.8828 15.2685 11.6923 15.127 12.4523 14.8349C13.0689 14.6039 13.6069 14.2019 14.0031 13.676L13.9969 13.6791Z" fill="#00AEF3"/>
</svg>
