<svg width="25" height="24" viewBox="0 0 25 24" fill="none" xmlns="http://www.w3.org/2000/svg">
<path d="M23.5069 8.6665C22.9306 6.76473 21.8714 5.04473 20.4325 3.67418C18.9936 2.30362 17.2241 1.32927 15.2966 0.846112C13.369 0.362942 11.3492 0.387462 9.43394 0.917262C7.5187 1.44705 5.7734 2.46406 4.3682 3.86914C2.21474 6.0198 1.00326 8.93747 1.00001 11.981C0.997503 13.6342 1.3515 15.2686 2.03788 16.7727C2.72425 18.2768 3.72686 19.6152 4.97737 20.6967C6.22787 21.7782 7.69685 22.5773 9.28419 23.0397C10.8715 23.502 12.5399 23.6166 14.1756 23.3757C15.8112 23.1349 17.3757 22.5442 18.7624 21.6439C20.149 20.7436 21.3253 19.5549 22.2109 18.1588C23.0966 16.7627 23.6708 15.1921 23.8944 13.554C24.1181 11.9159 23.9859 10.2489 23.5069 8.6665Z" fill="#00A6FF"/>
<path d="M13.5994 3.25999V2.02429C13.2336 1.98847 12.8672 1.95703 12.4999 1.95703C12.1322 1.95703 11.7657 1.99514 11.3994 2.03103V3.25986C12.1303 3.17545 12.8685 3.17551 13.5994 3.25999Z" fill="white"/>
<path d="M20.6184 8.58224L21.6886 7.96439C21.5367 7.62968 21.3807 7.29662 21.1971 6.97855C21.0132 6.66013 20.797 6.36178 20.5828 6.0625L19.5186 6.67692C19.9571 7.26772 20.3261 7.907 20.6184 8.58224Z" fill="white"/>
<path d="M19.5176 17.3222L20.5877 17.94C20.8016 17.6412 21.0121 17.3395 21.1957 17.0215C21.3796 16.703 21.5298 16.3666 21.6819 16.0314L20.6177 15.417C20.3253 16.0922 19.9562 16.7314 19.5176 17.3222Z" fill="white"/>
<path d="M11.3994 20.739V21.9747C11.7652 22.0105 12.1317 22.042 12.4989 22.042C12.8666 22.042 13.2331 22.0039 13.5994 21.968V20.7392C12.8685 20.8236 12.1303 20.8235 11.3994 20.739Z" fill="white"/>
<path d="M4.3807 15.417L3.31055 16.0349C3.46244 16.3696 3.61842 16.7026 3.80206 17.0207C3.9859 17.3391 4.20216 17.6375 4.41638 17.9367L5.48058 17.3223C5.04202 16.7315 4.673 16.0922 4.3807 15.417Z" fill="white"/>
<path d="M5.48073 6.67742L4.41058 6.05957C4.19666 6.35846 3.98621 6.66008 3.80257 6.97815C3.61873 7.29657 3.46848 7.63303 3.31641 7.9682L4.38061 8.58262C4.67297 7.90742 5.04211 7.26819 5.48073 6.67742Z" fill="white"/>
<path d="M13.8371 9.42623C13.7419 9.295 13.6265 9.17972 13.4951 9.08478H14.6061C14.7062 9.09281 14.8061 9.06716 14.89 9.0119C14.9739 8.95664 15.0369 8.87494 15.0691 8.77978L15.3381 8.09668H10.3461C10.2456 8.09821 10.1484 8.13244 10.0691 8.19418C9.99005 8.25596 9.93291 8.34149 9.9061 8.43817L9.6991 9.17017H11.0901C11.4607 9.14378 11.8324 9.20216 12.1771 9.34088C12.3014 9.40413 12.4092 9.49543 12.4921 9.60753C12.5741 9.72023 12.6292 9.85023 12.6531 9.98743H10.3331C10.2307 9.98643 10.1309 10.0194 10.0493 10.0812C9.96768 10.143 9.90888 10.2301 9.88211 10.3289L9.6991 10.9999H12.5551C12.4872 11.2073 12.3649 11.3926 12.2011 11.5366C11.7265 11.8552 11.1606 12.0094 10.5901 11.9758H9.66211V12.7809L12.2861 15.9038H14.1421L11.7011 12.9639C12.3668 12.8962 12.9923 12.6136 13.4831 12.1587C13.8062 11.8269 14.012 11.3986 14.0691 10.9389H14.4471C14.5446 10.9493 14.6427 10.9259 14.725 10.8726C14.8073 10.8193 14.8688 10.7394 14.8991 10.6461L15.0941 9.98743H14.0561C14.0281 9.78583 13.9531 9.59363 13.8371 9.42623Z" fill="white"/>
<path d="M20.3613 11.2173C20.1727 9.22754 19.2385 7.38274 17.7461 6.05325C16.2726 4.73167 14.3431 4.03449 12.3652 4.10892C11.343 4.11326 10.3307 4.32012 9.38889 4.71754C8.44706 5.11496 7.59332 5.69507 6.87698 6.42435C5.41871 7.91467 4.60194 9.9167 4.60156 12.0018C4.60119 14.0869 5.41724 16.0893 6.87498 17.5801C7.59218 18.3087 8.44641 18.8882 9.38849 19.2854C10.3306 19.6825 11.3419 19.8894 12.3642 19.8941C12.4306 19.8961 12.498 19.897 12.5654 19.897C13.0076 19.897 13.4488 19.857 13.8838 19.7774C15.8416 19.4533 17.5991 18.387 18.791 16.8004C19.9974 15.2028 20.558 13.2096 20.3613 11.2173ZM18.458 13.2754C18.2253 14.4974 17.6353 15.6228 16.7627 16.5093C15.9008 17.3902 14.7934 17.9909 13.585 18.2329C13.1917 18.3136 12.7912 18.3541 12.3897 18.354H12.3682C11.5495 18.3534 10.7395 18.1877 9.98635 17.8667C9.22834 17.5462 8.54204 17.0774 7.96779 16.4878C7.3886 15.8956 6.93167 15.1951 6.62307 14.4263C6.31207 13.6542 6.15451 12.8289 6.1592 11.9966V11.8482C6.17803 11.0666 6.33988 10.2951 6.63674 9.5718C6.94022 8.80375 7.39825 8.10622 7.98244 7.52249C8.55698 6.93788 9.24127 6.47244 9.99607 6.15286C10.7373 5.84475 11.5322 5.68643 12.335 5.68703H12.3848C13.611 5.68627 14.8087 6.05668 15.8203 6.74953C16.8557 7.44787 17.6581 8.44042 18.124 9.5991C18.5953 10.7649 18.7115 12.0439 18.458 13.2754Z" fill="white"/>
</svg>
