<svg width="24" height="24" viewBox="0 0 24 24" fill="none" xmlns="http://www.w3.org/2000/svg">
<path d="M3 18.437C3 18.9437 3.15026 19.439 3.43177 19.8604C3.71329 20.2817 4.11342 20.6101 4.58157 20.804C5.04971 20.9979 5.56484 21.0486 6.06182 20.9498C6.5588 20.8509 7.01531 20.6069 7.37361 20.2486C7.73191 19.8903 7.97592 19.4338 8.07477 18.9368C8.17363 18.4398 8.12289 17.9247 7.92898 17.4565C7.73507 16.9884 7.40669 16.5883 6.98537 16.3068C6.56405 16.0252 6.06872 15.875 5.562 15.875C4.88252 15.875 4.23086 16.145 3.75039 16.6254C3.26992 17.1059 3 17.7575 3 18.437Z" fill="#06A6FF"/>
<path d="M21 21H17.571C17.5654 17.1376 16.0284 13.4351 13.2969 10.7043C10.5654 7.97355 6.8624 6.4375 3 6.433V3C7.77227 3.00529 12.3476 4.90342 15.7221 8.27792C19.0966 11.6524 20.9947 16.2277 21 21Z" fill="#06A6FF"/>
<path d="M14.957 20.9999H11.541C11.5384 18.7355 10.6377 16.5646 9.03648 14.9635C7.4353 13.3623 5.2644 12.4616 3 12.459V9.04297C6.17014 9.04641 9.20945 10.3073 11.4511 12.5489C13.6927 14.7905 14.9536 17.8298 14.957 20.9999Z" fill="#06A6FF"/>
</svg>
