<svg width="24" height="24" viewBox="0 0 24 24" fill="none" xmlns="http://www.w3.org/2000/svg">
<path d="M9.18195 11.3251H15.0279V9.13307C15.0279 8.35784 14.72 7.61436 14.1718 7.06619C13.6237 6.51802 12.8802 6.21007 12.105 6.21007C11.3297 6.21007 10.5862 6.51802 10.0381 7.06619C9.48991 7.61436 9.18195 8.35784 9.18195 9.13307V11.3251ZM18.682 12.4251V19.0021C18.6829 19.1468 18.6551 19.2902 18.6001 19.4241C18.5452 19.558 18.4642 19.6796 18.3618 19.782C18.2595 19.8843 18.1379 19.9653 18.004 20.0202C17.8701 20.0752 17.7267 20.103 17.5819 20.1021H6.62395C6.47924 20.103 6.33577 20.0752 6.2019 20.0202C6.06802 19.9653 5.94639 19.8843 5.84406 19.782C5.74173 19.6796 5.66075 19.558 5.6058 19.4241C5.55085 19.2902 5.52302 19.1468 5.52395 19.0021V12.4221C5.52302 12.2774 5.55085 12.1339 5.6058 12C5.66075 11.8661 5.74173 11.7445 5.84406 11.6422C5.94639 11.5399 6.06802 11.4589 6.2019 11.4039C6.33577 11.349 6.47924 11.3211 6.62395 11.3221H6.98894V9.13307C6.98894 7.77649 7.52785 6.47547 8.4871 5.51622C9.44635 4.55697 10.7474 4.01807 12.104 4.01807C13.4605 4.01807 14.7616 4.55697 15.7208 5.51622C16.6801 6.47547 17.219 7.77649 17.219 9.13307V11.3251H17.5839C17.7287 11.3241 17.8721 11.352 18.006 11.4069C18.1399 11.4619 18.2615 11.5428 18.3638 11.6452C18.4662 11.7475 18.5472 11.8691 18.6021 12.003C18.6571 12.1369 18.6849 12.2804 18.684 12.4251H18.682Z" fill="#262B33"/>
</svg>
