<svg width="20" height="20" viewBox="0 0 20 20" fill="none" xmlns="http://www.w3.org/2000/svg">
<path d="M15.3762 12.0667L12.9748 12.4964C12.8984 12.5102 12.8271 12.5438 12.7678 12.5939C12.7086 12.6439 12.6636 12.7087 12.6374 12.7817C12.6112 12.8546 12.6046 12.9332 12.6184 13.0095C12.6321 13.0858 12.6658 13.1571 12.7159 13.2163L13.1706 13.7525C12.1732 14.5911 10.8838 15.0004 9.58489 14.8907C8.28601 14.7811 7.08357 14.1615 6.24099 13.1676C5.55833 12.3629 5.15589 11.3582 5.09431 10.3051H5.0883C5.09009 10.2781 5.09009 10.2511 5.0883 10.2241C5.06661 10.0807 4.98879 9.95177 4.87198 9.8657C4.75517 9.77963 4.60893 9.74346 4.46543 9.76514C4.32192 9.78682 4.19292 9.86458 4.10679 9.98131C4.02066 10.098 3.98446 10.2442 4.00615 10.3876C4.0066 10.3931 4.0066 10.3986 4.00615 10.4041C4.08767 11.6803 4.57813 12.8964 5.40499 13.8725C6.43503 15.0875 7.90504 15.8449 9.4929 15.9787C11.0808 16.1125 12.657 15.6119 13.8761 14.5864L14.2903 15.0754C14.3405 15.1348 14.4054 15.1799 14.4786 15.2062C14.5517 15.2325 14.6305 15.2392 14.707 15.2254C14.7836 15.2116 14.8551 15.178 14.9145 15.1278C14.9739 15.0777 15.019 15.0128 15.0453 14.9396L15.8708 12.6509C15.8973 12.5778 15.9041 12.499 15.8904 12.4225C15.8767 12.346 15.843 12.2745 15.7927 12.2152C15.7425 12.1559 15.6774 12.1109 15.6041 12.0848C15.5308 12.0587 15.4527 12.0525 15.3762 12.0667ZM4.60051 7.91056L7.00195 7.48085C7.07836 7.46718 7.14982 7.43364 7.20913 7.38361C7.26845 7.33357 7.31354 7.26881 7.33986 7.19583C7.36618 7.12286 7.3728 7.04425 7.35907 6.9679C7.34533 6.89155 7.31172 6.82017 7.26161 6.76092L6.8271 6.24947C7.82424 5.40967 9.11397 4.99931 10.4134 5.10841C11.7129 5.2175 12.9161 5.83713 13.759 6.83142C14.4514 7.64845 14.8548 8.67096 14.9064 9.74039H14.9124C14.9124 9.75689 14.9124 9.77489 14.9124 9.79064C14.9159 9.86334 14.9339 9.93462 14.9654 10.0002C14.9969 10.0659 15.0413 10.1245 15.0959 10.1727C15.1505 10.2208 15.2142 10.2576 15.2833 10.2807C15.3523 10.3038 15.4253 10.3128 15.498 10.3071C15.5706 10.3015 15.6413 10.2814 15.706 10.2479C15.7707 10.2145 15.828 10.1684 15.8745 10.1124C15.9211 10.0564 15.9559 9.99159 15.9769 9.9219C15.9979 9.85221 16.0047 9.77901 15.9969 9.70665V9.69089C15.9981 9.66966 15.9981 9.64838 15.9969 9.62715L15.9923 9.61365C15.9151 8.33105 15.4243 7.10792 14.5935 6.12723C13.5635 4.91212 12.0933 4.15476 10.5053 4.02121C8.91736 3.88765 7.34119 4.38881 6.12242 5.4148L5.68716 4.90185C5.63694 4.8425 5.57197 4.79741 5.49878 4.77113C5.42558 4.74485 5.34676 4.7383 5.27022 4.75213C5.19369 4.76597 5.12216 4.7997 5.06282 4.84995C5.00348 4.90019 4.95843 4.96517 4.93221 5.03834L4.10671 7.32637C4.08039 7.39942 4.07379 7.47811 4.08759 7.55451C4.10139 7.63092 4.13511 7.70234 4.18533 7.76158C4.23555 7.82082 4.30052 7.86578 4.37367 7.89193C4.44682 7.91809 4.52558 7.92452 4.60201 7.91056H4.60051Z" fill="#222222"/>
</svg>
