<svg width="24" height="24" viewBox="0 0 24 24" fill="none" xmlns="http://www.w3.org/2000/svg">
<path d="M3.0007 18.9039V3.2382C2.98608 2.66181 3.19998 2.10303 3.59575 1.68373C3.99151 1.26444 4.53702 1.01866 5.11329 1H12.5022C13.0785 1.01866 13.624 1.26444 14.0198 1.68373C14.4155 2.10303 14.6294 2.66181 14.6148 3.2382V18.9039C14.6294 19.4803 14.4155 20.0391 14.0198 20.4584C13.624 20.8777 13.0785 21.1235 12.5022 21.1421H5.11329C4.53702 21.1235 3.99151 20.8777 3.59575 20.4584C3.19998 20.0391 2.98608 19.4803 3.0007 18.9039Z" fill="#37474F"/>
<path d="M12.5004 2.58318H5.11149C5.0411 2.57893 4.97061 2.58968 4.90467 2.61469C4.83874 2.6397 4.77886 2.67841 4.729 2.72828C4.67914 2.77814 4.64042 2.83802 4.61541 2.90395C4.5904 2.96989 4.57967 3.04038 4.58391 3.11077V16.3048C4.57967 16.3751 4.5904 16.4456 4.61541 16.5116C4.64042 16.5775 4.67914 16.6374 4.729 16.6872C4.77886 16.7371 4.83874 16.7758 4.90467 16.8008C4.97061 16.8258 5.0411 16.8366 5.11149 16.8323H12.5004C12.5708 16.8366 12.6413 16.8258 12.7072 16.8008C12.7732 16.7758 12.833 16.7371 12.8829 16.6872C12.9328 16.6374 12.9715 16.5775 12.9965 16.5116C13.0215 16.4456 13.0322 16.3751 13.028 16.3048V3.11133C13.0323 3.0409 13.0217 2.97035 12.9967 2.90434C12.9717 2.83834 12.933 2.7784 12.8831 2.72847C12.8333 2.67854 12.7733 2.63977 12.7074 2.61473C12.6414 2.58969 12.5709 2.57893 12.5004 2.58318Z" fill="#BBDEFB"/>
<path d="M7.22314 18.8503H10.3898V19.9061H7.22314V18.8503Z" fill="#78909C"/>
<path d="M10.3899 21.0148V5.34904C10.3752 4.77265 10.5892 4.21387 10.9849 3.79457C11.3807 3.37528 11.9262 3.1295 12.5025 3.11084H19.8868C20.4631 3.1295 21.0086 3.37528 21.4044 3.79457C21.8001 4.21387 22.014 4.77265 21.9994 5.34904V21.0148C22.014 21.5911 21.8001 22.1499 21.4044 22.5692C21.0086 22.9885 20.4631 23.2343 19.8868 23.253H12.5008C11.9248 23.2339 11.3797 22.9879 10.9843 22.5686C10.5889 22.1494 10.3752 21.5909 10.3899 21.0148Z" fill="#E38939"/>
<path d="M19.8895 4.69469H12.5006C12.4271 4.6932 12.3542 4.70729 12.2866 4.73605C12.219 4.76482 12.1583 4.80759 12.1084 4.86155C12.0586 4.9155 12.0207 4.97942 11.9974 5.04908C11.9741 5.11874 11.9657 5.19256 11.973 5.26566V19.5171C11.9657 19.5902 11.9741 19.664 11.9974 19.7337C12.0207 19.8033 12.0586 19.8672 12.1084 19.9212C12.1583 19.9751 12.219 20.0179 12.2866 20.0467C12.3542 20.0754 12.4271 20.0895 12.5006 20.0881H19.8895C19.963 20.0895 20.0359 20.0754 20.1035 20.0467C20.1711 20.0179 20.2318 19.9751 20.2817 19.9212C20.3315 19.8672 20.3694 19.8033 20.3927 19.7337C20.4161 19.664 20.4244 19.5902 20.4171 19.5171V5.26566C20.4244 5.19256 20.4161 5.11874 20.3927 5.04908C20.3694 4.97942 20.3315 4.9155 20.2817 4.86155C20.2318 4.80759 20.1711 4.76482 20.1035 4.73605C20.0359 4.70729 19.963 4.6932 19.8895 4.69469Z" fill="#FFF3E0"/>
<path d="M15.4034 21.669C15.4034 21.8256 15.4498 21.9786 15.5368 22.1087C15.6237 22.2388 15.7473 22.3403 15.8919 22.4002C16.0365 22.4601 16.1957 22.4757 16.3492 22.4452C16.5027 22.4147 16.6437 22.3393 16.7544 22.2286C16.865 22.1179 16.9404 21.977 16.9709 21.8235C17.0014 21.67 16.9858 21.5108 16.9259 21.3662C16.866 21.2216 16.7645 21.098 16.6344 21.0111C16.5043 20.9241 16.3513 20.8777 16.1947 20.8777C16.0908 20.8776 15.9878 20.898 15.8917 20.9378C15.7957 20.9775 15.7084 21.0358 15.6348 21.1093C15.5613 21.1828 15.5029 21.27 15.4631 21.3661C15.4233 21.4621 15.4034 21.5651 15.4034 21.669Z" fill="#A6642A"/>
</svg>
