<svg width="24" height="24" viewBox="0 0 24 24" fill="none" xmlns="http://www.w3.org/2000/svg">
<path d="M21.1866 10.5966L12.5233 3.09661C12.2233 2.83661 11.7766 2.83661 11.4766 3.09661L2.80997 10.5966C2.47664 10.8866 2.43997 11.3899 2.72997 11.7233C2.88664 11.9066 3.10997 11.9999 3.33664 11.9999C3.52331 11.9999 3.70997 11.9366 3.85997 11.8033L4.32331 11.4033V19.9433C4.32331 20.5799 4.83997 21.0966 5.47997 21.0966H18.5266C19.1633 21.0966 19.68 20.5799 19.68 19.9433V11.4033L20.1433 11.8033C20.4766 12.0933 20.9833 12.0566 21.27 11.7233C21.56 11.3899 21.5233 10.8833 21.19 10.5966H21.1866ZM13.27 19.4999H10.7266V15.3333H13.27V19.4999ZM18.0766 19.4999H14.87V14.7233C14.87 14.1699 14.4733 13.7333 13.9633 13.7333H10.0333C9.52331 13.7333 9.12664 14.1666 9.12664 14.7233V19.4999H5.91997V10.0199L11.9966 4.75994L18.0733 10.0199V19.4999H18.0766Z" fill="#5A5D62"/>
</svg>
