<svg width="24" height="24" viewBox="0 0 24 24" fill="none" xmlns="http://www.w3.org/2000/svg">
<path d="M15.6883 21.9979H7.54446C7.40334 22.007 7.26187 21.9866 7.12907 21.938C6.99628 21.8893 6.87508 21.8136 6.77321 21.7155C6.67134 21.6174 6.59103 21.4991 6.53742 21.3683C6.4838 21.2374 6.45806 21.0968 6.46182 20.9555C6.49488 16.7821 7.99823 14.3373 10.5833 11.5231C11.2506 10.8009 11.7508 10.2234 12.1054 9.78972C11.1639 9.76978 10.2301 9.6144 9.33276 9.32835C9.01219 9.22399 8.68221 9.15114 8.3475 9.11084C8.27126 9.10262 8.19459 9.09904 8.11791 9.10013C8.11255 9.15729 8.10898 9.23857 8.10898 9.35158V11.0689C8.10775 11.2276 8.07506 11.3844 8.01281 11.5304C7.95056 11.6764 7.85998 11.8085 7.74632 11.9193C7.52349 12.1393 7.22251 12.262 6.90937 12.2604H5.19161C4.87487 12.2597 4.57134 12.1335 4.34748 11.9094C4.23705 11.7991 4.1495 11.668 4.08987 11.5238C4.03024 11.3795 3.9997 11.2249 4 11.0688V3.22824C4.00023 2.91228 4.12584 2.60932 4.34926 2.3859C4.57269 2.16248 4.87564 2.03686 5.19161 2.03663H6.94865C7.10038 2.03427 7.25103 2.06237 7.39171 2.11926C7.53856 2.17642 7.6725 2.26237 7.78564 2.37205C7.89838 2.48304 7.98874 2.61465 8.05182 2.75973C8.05986 2.77803 8.06701 2.79632 8.07326 2.81461C8.98657 2.3414 10.007 2.11326 11.0349 2.15248C12.0628 2.1917 13.0629 2.49694 13.9375 3.03838C14.2391 3.23456 14.5758 3.3706 14.929 3.43902C15.672 3.56386 16.4352 3.42384 17.0854 3.04337C17.3826 2.8283 17.6617 2.58915 17.9197 2.32832C18.0067 2.23089 18.1136 2.15323 18.2332 2.10056C18.4348 2.00538 18.6614 1.9768 18.8803 2.01895C19.0992 2.06111 19.2989 2.17181 19.4507 2.33505L20.4851 3.32299C20.503 3.34037 20.52 3.35872 20.5369 3.37748C20.6317 3.48623 20.7042 3.61247 20.7504 3.74908C20.7639 3.78902 20.7744 3.82993 20.7817 3.87146C20.8101 4.03548 20.7981 4.20394 20.7469 4.3623C20.6979 4.51525 20.6127 4.65408 20.4985 4.76695C20.4565 4.81429 20.3395 4.96972 20.336 4.97374C17.8431 8.49839 16.3782 12.6462 16.1046 16.9546C16.0531 18.1968 16.2445 19.437 16.6682 20.6058C16.7271 20.7682 16.744 20.9429 16.7173 21.1136C16.6902 21.2841 16.6218 21.4454 16.5181 21.5835C16.422 21.7128 16.2964 21.8173 16.1519 21.8885C16.0079 21.9603 15.8492 21.9978 15.6883 21.9979ZM8.12597 20.3516H14.8612C14.5455 19.2186 14.4101 18.043 14.4601 16.8679C14.7497 12.2867 16.296 7.87393 18.9291 4.11391L18.6772 3.87273C18.4532 4.07156 18.2179 4.25723 17.9724 4.42878C16.9695 5.02949 15.7853 5.25279 14.6325 5.05854C14.0721 4.95218 13.5375 4.73899 13.0577 4.43058C12.3062 3.96762 11.4301 3.74827 10.5491 3.80256C9.6682 3.85684 8.8256 4.18212 8.13669 4.73384C8.01253 4.82227 7.93124 4.89194 7.85531 4.95537C7.73525 5.05611 7.58895 5.12053 7.43358 5.14109C7.2782 5.16164 7.12019 5.13748 6.97806 5.07143C6.83593 5.00538 6.71557 4.90018 6.6311 4.76816C6.54663 4.63614 6.50154 4.48278 6.50113 4.32605V3.68291H5.64722V10.6142H6.46277L6.46185 9.35155C6.43374 9.07829 6.4643 8.80218 6.5515 8.54169C6.63869 8.28119 6.7805 8.04232 6.96744 7.84104C7.18651 7.6734 7.43858 7.55403 7.70707 7.49075C7.97557 7.42747 8.25441 7.42173 8.52528 7.47391C8.97098 7.52667 9.41046 7.62286 9.83746 7.7611C10.5968 8.00256 11.3874 8.13166 12.1841 8.1443C12.5485 8.15457 12.8013 8.15145 13.0612 8.14743L13.5034 8.1443C13.6757 8.15057 13.8431 8.20305 13.9882 8.29624C14.1332 8.38944 14.2506 8.51991 14.3279 8.67401C14.5307 9.13761 14.6906 9.5043 11.7946 12.6388C9.56144 15.0693 8.28765 17.0666 8.12597 20.3516Z" fill="#989DAB"/>
</svg>
