<svg width="24" height="24" viewBox="0 0 24 24" fill="none" xmlns="http://www.w3.org/2000/svg">
<path d="M21.6371 17.8857V3.88653C21.6371 3.12097 21.333 2.38677 20.7917 1.84544C20.2504 1.30412 19.5162 1 18.7506 1H5.23097C4.46542 1 3.73122 1.30412 3.18989 1.84544C2.64856 2.38677 2.34445 3.12097 2.34445 3.88653V17.8857L0.500022 17.2494V19.0938C0.499267 19.1533 0.517698 19.2114 0.552582 19.2596C0.587467 19.3078 0.636947 19.3434 0.693687 19.3612L11.8525 23.3175C11.9538 23.3542 12.0647 23.3542 12.166 23.3175L23.3063 19.3059C23.363 19.2852 23.412 19.2475 23.4467 19.198C23.4813 19.1486 23.4999 19.0896 23.5 19.0293V17.1848L21.6371 17.8857Z" fill="url(#paint0_linear_60_885)"/>
<path d="M13.6507 7.93063C13.529 7.78672 13.3859 7.66231 13.2265 7.56175H14.6098C14.7338 7.57215 14.8576 7.5405 14.9613 7.4719C15.0651 7.4033 15.1427 7.30175 15.1816 7.18364L15.5136 6.32599H9.28868C9.16218 6.32418 9.03877 6.36506 8.93837 6.44203C8.83797 6.51901 8.76645 6.62757 8.73535 6.7502L8.48635 7.67242H10.2109C10.6762 7.63485 11.1438 7.70752 11.5758 7.88452C11.7323 7.95971 11.868 8.07219 11.9709 8.21209C12.0738 8.35198 12.1408 8.51501 12.166 8.68685H9.23334C9.10724 8.68665 8.98461 8.72813 8.88454 8.80486C8.78446 8.88158 8.71256 8.98924 8.68002 9.11107L8.44946 9.95028H12.0922C12.0082 10.2106 11.8553 10.4432 11.6495 10.6235C11.0628 11.0266 10.3592 11.2243 9.64834 11.186H8.48635V12.1728L11.7602 16.0738H14.075L11.004 12.3849C11.8348 12.2982 12.6132 11.9381 13.2173 11.3613C13.6305 10.951 13.888 10.4098 13.9458 9.83039H14.4254C14.5456 9.84831 14.6683 9.82163 14.7702 9.75538C14.8721 9.68913 14.9463 9.58788 14.9787 9.47073L15.2369 8.64074H13.9366C13.8937 8.38618 13.7962 8.14394 13.6507 7.93063Z" fill="#FCFCFC"/>
<defs>
<linearGradient id="paint0_linear_60_885" x1="3.79232" y1="3.66519" x2="19.6728" y2="19.5457" gradientUnits="userSpaceOnUse">
<stop stop-color="#F9B05D"/>
<stop offset="1" stop-color="#FF9066"/>
</linearGradient>
</defs>
</svg>
