<svg width="24" height="24" viewBox="0 0 24 24" fill="none" xmlns="http://www.w3.org/2000/svg">
<path d="M7.62347 9.61785C8.81768 9.6174 9.9906 9.93405 11.0225 10.5355C12.0543 11.1369 12.9082 12.0016 13.4968 13.0411C14.5915 12.7372 15.5684 12.1084 16.2988 11.2378C17.0291 10.3671 17.4786 9.29549 17.5879 8.16413C17.6973 7.03277 17.4613 5.89482 16.9113 4.90031C16.3612 3.90581 15.5227 3.10144 14.5065 2.59327C13.4903 2.0851 12.344 1.89698 11.2188 2.05372C10.0935 2.21047 9.04219 2.7047 8.20337 3.47128C7.36454 4.23785 6.77761 5.24076 6.51997 6.34778C6.26232 7.4548 6.34607 8.61395 6.76014 9.6724C7.04652 9.63641 7.33484 9.61819 7.62347 9.61785Z" fill="#FD367B"/>
<path d="M17.8711 10.9463C17.2825 11.9859 16.4287 12.8505 15.3968 13.452C14.3649 14.0534 13.192 14.37 11.9978 14.3696C11.7092 14.3692 11.4209 14.351 11.1345 14.315C10.7189 15.3746 10.6341 16.5353 10.8913 17.644C11.1486 18.7528 11.7357 19.7575 12.5754 20.5255C13.415 21.2935 14.4677 21.7888 15.5945 21.946C16.7212 22.1032 17.8692 21.915 18.8868 21.4061C19.9044 20.8972 20.744 20.0916 21.2946 19.0956C21.8452 18.0996 22.0811 16.9599 21.9711 15.827C21.8611 14.6941 21.4104 13.6213 20.6784 12.7499C19.9465 11.8786 18.9676 11.2497 17.8711 10.9463Z" fill="#41A0FF"/>
<path d="M11.2039 12.0283C10.3809 11.3494 9.38197 10.9185 8.32354 10.786C7.26512 10.6535 6.19085 10.8248 5.22605 11.28C4.26125 11.7351 3.44569 12.4553 2.87449 13.3566C2.30329 14.2579 2 15.3031 2 16.3703C2 17.4375 2.30329 18.4827 2.87449 19.384C3.44569 20.2853 4.26125 21.0055 5.22605 21.4606C6.19085 21.9158 7.26512 22.0871 8.32354 21.9546C9.38197 21.8221 10.3809 21.3912 11.2039 20.7123C10.1839 19.4955 9.62492 17.9583 9.62492 16.3703C9.62492 14.7823 10.1839 13.245 11.2039 12.0283Z" fill="#FF9B52"/>
</svg>
