<svg width="24" height="24" viewBox="0 0 24 24" fill="none" xmlns="http://www.w3.org/2000/svg">
<g clip-path="url(#clip0_36_321)">
<path d="M24 12C24 8.8174 22.7357 5.76516 20.4853 3.51472C18.2348 1.26428 15.1826 0 12 0C8.8174 0 5.76516 1.26428 3.51472 3.51472C1.26428 5.76516 0 8.8174 0 12C0 15.1826 1.26428 18.2348 3.51472 20.4853C5.76516 22.7357 8.8174 24 12 24C15.1826 24 18.2348 22.7357 20.4853 20.4853C22.7357 18.2348 24 15.1826 24 12ZM10.6107 18.3533C10.4654 18.4983 10.2686 18.5798 10.0633 18.5798C9.85809 18.5798 9.66124 18.4983 9.516 18.3533L4.484 13.3213C4.33899 13.1761 4.25754 12.9792 4.25754 12.774C4.25754 12.5688 4.33899 12.3719 4.484 12.2267L5.57867 11.132C5.72391 10.987 5.92076 10.9055 6.126 10.9055C6.33124 10.9055 6.52809 10.987 6.67333 11.132L10.064 14.5213L17.3253 7.26C17.4706 7.11499 17.6674 7.03354 17.8727 7.03354C18.0779 7.03354 18.2748 7.11499 18.42 7.26L19.5147 8.35467C19.6597 8.49991 19.7411 8.69676 19.7411 8.902C19.7411 9.10724 19.6597 9.30409 19.5147 9.44933L10.6107 18.3533Z" fill="#33C85D"/>
</g>
<defs>
<clipPath id="clip0_36_321">
<rect width="24" height="24" fill="white"/>
</clipPath>
</defs>
</svg>
