<svg width="24" height="24" viewBox="0 0 24 24" fill="none" xmlns="http://www.w3.org/2000/svg">
<path d="M20.4371 3.19369L19.2844 2.09146C19.2611 2.06289 19.2318 2.03985 19.1986 2.02403C19.1654 2.00821 19.129 2 19.0922 2C19.0554 2 19.0191 2.00821 18.9859 2.02403C18.9526 2.03985 18.9233 2.06289 18.9001 2.09146C18.5644 2.43146 18.1986 2.74032 17.8071 3.01426C16.9109 3.53835 15.8586 3.72899 14.8357 3.55255C14.3435 3.45706 13.874 3.26857 13.4524 2.99717C12.4761 2.39117 11.3361 2.10276 10.1893 2.17161C9.04253 2.24047 7.94521 2.6632 7.04833 3.38167C6.93733 3.45857 6.82632 3.55255 6.72386 3.638V2.44178C6.72387 2.38832 6.71321 2.33539 6.69251 2.2861C6.67181 2.23681 6.64149 2.19215 6.60331 2.15475C6.56514 2.11734 6.51988 2.08794 6.4702 2.06827C6.42052 2.0486 6.36742 2.03905 6.314 2.04019H4.40132C4.29488 2.04019 4.19281 2.0825 4.11754 2.15781C4.04228 2.23313 4 2.33527 4 2.44178V10.9862C4 11.0927 4.04228 11.1949 4.11754 11.2702C4.19281 11.3455 4.29488 11.3878 4.40132 11.3878H6.27131C6.37854 11.3878 6.48152 11.3458 6.55814 11.2707C6.63477 11.1956 6.67893 11.0935 6.68117 10.9862V9.11497C6.68117 8.19218 6.8861 7.85894 7.9449 7.96148C8.36546 8.01239 8.78011 8.10395 9.18302 8.2349C10.0948 8.52513 11.0441 8.68057 12.0008 8.6963C12.6103 8.71192 13.2191 8.64582 13.811 8.49978C13.1365 9.86688 12.3765 10.5248 10.9335 12.0884C8.32914 14.9252 6.71532 17.4287 6.68117 21.7607C6.68117 21.9316 6.76655 22 6.96294 22H15.8262C15.8645 22.0006 15.9024 21.9921 15.9368 21.975C15.9711 21.9579 16.0008 21.9328 16.0235 21.9018C16.0461 21.8708 16.0609 21.8348 16.0667 21.7969C16.0725 21.7589 16.069 21.7202 16.0567 21.6838C15.5554 20.2939 15.3292 18.8196 15.3907 17.3433C15.7022 12.4719 17.3607 7.78314 20.1809 3.80034C20.1809 3.80034 20.3432 3.58673 20.4371 3.4842C20.4614 3.45998 20.4795 3.43025 20.49 3.39753C20.5004 3.36481 20.5027 3.33005 20.4969 3.29622C20.4836 3.25857 20.4633 3.22378 20.4371 3.19369Z" fill="url(#paint0_linear_176_2168)"/>
<defs>
<linearGradient id="paint0_linear_176_2168" x1="20.8469" y1="19.8382" x2="1.80142" y2="0.796824" gradientUnits="userSpaceOnUse">
<stop stop-color="#18BF87"/>
<stop offset="1" stop-color="#81E7B2"/>
</linearGradient>
</defs>
</svg>
