<svg width="24" height="24" viewBox="0 0 24 24" fill="none" xmlns="http://www.w3.org/2000/svg">
<path d="M22.498 14.1138C22.498 12.0634 22.5766 10.519 21.7542 8.52994C21.7017 8.3985 21.6492 8.27583 21.588 8.15315C21.1576 7.21007 20.5328 6.36884 19.7547 5.68473C18.9767 5.00062 18.0629 4.48909 17.0734 4.18374C15.4398 3.803 13.7208 3.64095 11.9989 3.64087C10.2123 3.64087 8.62808 3.803 6.9944 4.18374C5.99854 4.48475 5.07792 4.99431 4.29357 5.67864C3.50922 6.36297 2.87906 7.20644 2.44484 8.15315C2.3836 8.27583 2.3311 8.3985 2.27861 8.52994C1.49993 10.519 1.54375 12.0634 1.5 14.1138C1.5 15.7349 1.49993 17.9496 2.37485 19.0187C2.74943 19.5155 3.26464 19.888 3.85346 20.0877C4.79024 20.3263 5.44878 20.3593 6.72318 20.3593C7.21313 20.3593 7.94806 20.3593 8.35927 20.298C8.85358 20.2675 9.33483 20.1268 9.76789 19.8861C10.1179 19.7021 10.9053 19.1501 11.5177 18.7295C11.669 18.6318 11.8452 18.5798 12.0252 18.5798C12.2052 18.5798 12.3814 18.6318 12.5326 18.7295C13.1451 19.1501 13.9325 19.7021 14.2824 19.8861C14.7155 20.1268 15.1968 20.2675 15.6911 20.298C16.1023 20.3418 16.8372 20.3593 17.3272 20.3593C18.4394 20.3593 19.2601 20.3263 20.1969 20.0877C20.7665 19.8789 21.2624 19.5072 21.623 19.0187C22.4979 17.9496 22.498 15.7349 22.498 14.1138ZM19.7769 9.18713C19.5582 9.18713 14.3437 9.18713 11.9989 9.18713C9.65415 9.18713 4.43965 9.18713 4.22092 9.18713C4.00219 9.18713 4.12468 9.0995 4.15968 9.01188C4.47417 8.22132 4.97772 7.52023 5.62607 6.9702C6.27443 6.42016 7.04774 6.03803 7.87807 5.85738C9.23263 5.57561 10.5753 5.45845 11.9989 5.45845C13.4226 5.45845 14.7652 5.57561 16.1198 5.85738C16.9537 6.03024 17.7323 6.40604 18.3869 6.9516C19.0415 7.49716 19.5519 8.19571 19.8732 8.98559C19.8732 9.07322 19.8732 9.18713 19.7769 9.18713Z" fill="url(#paint0_linear_176_2171)"/>
<path d="M6.53542 11.8159H4.49658" stroke="#FCFCFC" stroke-width="1.3" stroke-miterlimit="10" stroke-linecap="round"/>
<defs>
<linearGradient id="paint0_linear_176_2171" x1="4.31723" y1="5.62952" x2="35.0999" y2="36.3653" gradientUnits="userSpaceOnUse">
<stop stop-color="#96A5EE"/>
<stop offset="1" stop-color="#6674E0"/>
</linearGradient>
</defs>
</svg>
