<svg width="24" height="24" viewBox="0 0 24 24" fill="none" xmlns="http://www.w3.org/2000/svg">
<g clip-path="url(#clip0_271_2012)">
<path fill-rule="evenodd" clip-rule="evenodd" d="M0.958543 5.24634H17.9116C18.045 5.24856 18.1722 5.30313 18.2658 5.39827C18.3593 5.4934 18.4117 5.6215 18.4117 5.75493V7.79777C18.4117 7.9312 18.3593 8.0593 18.2658 8.15444C18.1722 8.24958 18.045 8.30414 17.9116 8.30637V11.2514C14.385 11.3243 11.5486 14.2059 11.5486 17.75C11.5486 18.6358 11.7258 19.4803 12.0467 20.2498H3.49303C2.81859 20.2498 2.17178 19.9819 1.69488 19.505C1.21798 19.0281 0.950066 18.3813 0.950066 17.7068V8.30637C0.816654 8.30414 0.689459 8.24958 0.595905 8.15444C0.502351 8.0593 0.449933 7.9312 0.449951 7.79777V5.75493C0.449951 5.62004 0.503535 5.49068 0.598914 5.3953C0.694294 5.29992 0.823656 5.24634 0.958543 5.24634Z" fill="url(#paint0_linear_271_2012)"/>
<path d="M6.3071 2.0255C6.45331 2.02435 6.59891 2.04433 6.7394 2.08484C7.38571 2.3449 7.93621 2.79774 8.31604 3.38175C8.45684 3.5722 8.58701 3.77029 8.70596 3.9751H8.16346C7.33671 4.03272 6.50998 3.86269 5.77308 3.48347C5.59606 3.36687 5.46914 3.18818 5.41736 2.98263C5.36558 2.77708 5.3927 2.55959 5.49335 2.37304C5.59223 2.24641 5.72242 2.14776 5.87107 2.08681C6.01972 2.02587 6.1817 2.00473 6.34101 2.0255M6.34101 0.754023C5.96539 0.731076 5.59028 0.806592 5.25281 0.973101C4.91533 1.13961 4.62717 1.39134 4.41683 1.70339C4.12814 2.17217 4.0374 2.73641 4.16456 3.27207C4.29172 3.80773 4.62637 4.27097 5.09496 4.55998C6.03533 5.0663 7.09698 5.30385 8.16346 5.24658H10.5369C10.3366 4.28776 9.92222 3.38658 9.32475 2.61038C8.78094 1.80215 7.99431 1.18769 7.07847 0.855741C6.82681 0.788691 6.56753 0.754501 6.3071 0.754023H6.34101Z" fill="#FFBD29"/>
<path d="M12.5628 2.02546C12.7221 2.00469 12.8841 2.02583 13.0327 2.08677C13.1814 2.14772 13.3116 2.24637 13.4105 2.373C13.5111 2.55955 13.5382 2.77704 13.4864 2.98259C13.4347 3.18814 13.3077 3.36683 13.1307 3.48342C12.3912 3.86376 11.5614 4.03381 10.7319 3.97506H10.1978C10.3148 3.76903 10.4451 3.57082 10.5878 3.38171C10.9625 2.81246 11.5002 2.36937 12.1305 2.11023C12.271 2.06972 12.4166 2.04974 12.5628 2.05089M12.5628 0.779411C12.3024 0.779889 12.0431 0.814079 11.7914 0.881129C10.8756 1.21307 10.089 1.82754 9.54515 2.63577C8.95111 3.40453 8.53691 4.29665 8.33301 5.24654H10.7064C11.7729 5.30381 12.8346 5.06626 13.7749 4.55994C14.2435 4.27093 14.5782 3.80768 14.7053 3.27202C14.8325 2.73637 14.7418 2.17213 14.4531 1.70335C14.2457 1.39641 13.963 1.14789 13.632 0.981642C13.301 0.815397 12.9328 0.737003 12.5628 0.753981V0.779411Z" fill="#FFBD29"/>
<path d="M10.2827 5.01758H8.5874V20.2499H10.2827V5.01758Z" fill="#FFBD29"/>
<path d="M18.4116 8.30664H0.466797V9.23906H18.4116V8.30664Z" fill="white"/>
<path d="M18.0486 23.25C21.0862 23.25 23.5486 20.7876 23.5486 17.75C23.5486 14.7124 21.0862 12.25 18.0486 12.25C15.011 12.25 12.5486 14.7124 12.5486 17.75C12.5486 20.7876 15.011 23.25 18.0486 23.25Z" fill="#00A6FF"/>
<path d="M18.0249 14.7739C17.7472 14.7786 17.4769 14.8652 17.2482 15.0229C17.0195 15.1805 16.8425 15.4023 16.7394 15.6603C16.6363 15.9183 16.6117 16.2009 16.6687 16.4728C16.7257 16.7447 16.8618 16.9937 17.0599 17.1885C17.2579 17.3834 17.5091 17.5153 17.7819 17.5678C18.0547 17.6204 18.337 17.5911 18.5932 17.4837C18.8494 17.3764 19.0682 17.1957 19.2221 16.9644C19.376 16.7331 19.4582 16.4615 19.4582 16.1837C19.4508 15.808 19.2967 15.4502 19.0289 15.1867C18.761 14.9232 18.4007 14.7751 18.0249 14.7739Z" fill="#FCFCFC"/>
<path d="M18.0485 18.5901C16.2573 18.5901 15.753 19.5121 15.753 19.897C15.747 19.9435 15.7518 19.9909 15.7669 20.0352C15.782 20.0795 15.807 20.1195 15.8399 20.1521C16.4664 20.6675 17.2466 20.9442 18.0485 20.9353C18.8504 20.9442 19.6306 20.6675 20.2571 20.1521C20.29 20.1195 20.315 20.0795 20.3301 20.0352C20.3452 19.9909 20.35 19.9435 20.344 19.897C20.331 19.5121 19.8267 18.5901 18.0485 18.5901Z" fill="#FCFCFC" stroke="#FCFCFC" stroke-width="0.5" stroke-linecap="round" stroke-linejoin="round"/>
</g>
<defs>
<linearGradient id="paint0_linear_271_2012" x1="1.05178" y1="5.05985" x2="17.7421" y2="18.8851" gradientUnits="userSpaceOnUse">
<stop stop-color="#26CE70"/>
<stop offset="1" stop-color="#23B36E"/>
</linearGradient>
<clipPath id="clip0_271_2012">
<rect width="24" height="24" fill="white"/>
</clipPath>
</defs>
</svg>
