<svg width="24" height="24" viewBox="0 0 24 24" fill="none" xmlns="http://www.w3.org/2000/svg">
<path d="M6.6569 4.82115L7.74619 5.70096L2.89208 11.7108L1.80279 10.831C1.48401 10.5735 1.28056 10.2 1.23722 9.79248C1.19387 9.385 1.31416 8.97699 1.57164 8.65821L4.45377 5.08986C4.57876 4.92482 4.73564 4.78658 4.9151 4.68335C5.09455 4.58012 5.29293 4.51401 5.49843 4.48895C5.70394 4.46388 5.91239 4.48037 6.11139 4.53744C6.3104 4.59451 6.49591 4.69099 6.6569 4.82115Z" stroke="#5A5D62" stroke-width="1.60423" stroke-miterlimit="10"/>
<path d="M22.202 10.8042L21.1167 11.6831L16.2678 5.69523L17.3531 4.81637C17.6707 4.55917 18.0775 4.43867 18.484 4.48139C18.8904 4.52411 19.2633 4.72655 19.5205 5.04417L22.3995 8.59946C22.5344 8.75579 22.6365 8.93763 22.6997 9.13419C22.763 9.33075 22.7861 9.53801 22.7676 9.74367C22.7492 9.94933 22.6897 10.1492 22.5925 10.3314C22.4953 10.5136 22.3625 10.6744 22.202 10.8042Z" stroke="#5A5D62" stroke-width="1.6" stroke-miterlimit="10"/>
<path d="M13.5691 9.15283L18.8085 14.5656C18.9226 14.6752 19.0135 14.8068 19.0756 14.9525C19.1376 15.0981 19.1696 15.2548 19.1696 15.4131C19.1696 15.5714 19.1376 15.7281 19.0756 15.8737C19.0135 16.0194 18.9226 16.151 18.8085 16.2606C18.7027 16.3781 18.5744 16.4733 18.4313 16.5404C18.2882 16.6076 18.1331 16.6454 17.9751 16.6517C17.8172 16.658 17.6595 16.6326 17.5115 16.577C17.3635 16.5214 17.2281 16.4368 17.1134 16.3281L15.3509 14.6522" stroke="#5A5D62" stroke-width="1.6" stroke-miterlimit="10" stroke-linecap="round"/>
<path d="M16.4681 15.6831C16.5853 15.7929 16.6776 15.9265 16.739 16.075C16.8003 16.2234 16.8292 16.3832 16.8238 16.5438C16.8183 16.7043 16.7786 16.8618 16.7073 17.0057C16.6359 17.1496 16.5347 17.2766 16.4103 17.3782C16.3006 17.4924 16.169 17.5832 16.0234 17.6453C15.8777 17.7074 15.7211 17.7394 15.5627 17.7394C15.4044 17.7394 15.2477 17.7074 15.1021 17.6453C14.9565 17.5832 14.8249 17.4924 14.7152 17.3782L13.5691 16.1647" stroke="#5A5D62" stroke-width="1.6" stroke-miterlimit="10" stroke-linecap="round"/>
<path d="M14.715 17.3782C14.8243 17.4923 14.9097 17.6272 14.9661 17.7748C15.0225 17.9225 15.0488 18.0799 15.0434 18.2379C15.038 18.3959 15.0011 18.5511 14.9347 18.6946C14.8684 18.8381 14.7741 18.9668 14.6572 19.0733C14.5476 19.1875 14.416 19.2783 14.2703 19.3404C14.1247 19.4025 13.968 19.4344 13.8097 19.4344C13.6514 19.4344 13.4947 19.4025 13.349 19.3404C13.2034 19.2783 13.0718 19.1875 12.9621 19.0733L11.8064 17.8694" stroke="#5A5D62" stroke-width="1.6" stroke-miterlimit="10" stroke-linecap="round"/>
<path d="M2.88794 11.657C4.3652 13.2379 5.74501 14.9072 7.01971 16.6556C8.27177 18.2062 8.85927 18.7841 8.85927 18.7841C9.2053 19.1948 9.63338 19.5286 10.116 19.7641C10.5987 19.9997 11.1253 20.1317 11.6619 20.1517C11.9813 20.1668 12.2988 20.0961 12.5817 19.9471C12.8645 19.7981 13.1023 19.5761 13.2703 19.3041" stroke="#5A5D62" stroke-width="1.6" stroke-miterlimit="10" stroke-linecap="round"/>
<path d="M16.2752 5.7146C15.2639 6.00622 14.2169 6.15534 13.1644 6.15763C12.4902 6.15763 11.9894 6.15763 11.3248 6.15763C10.9787 6.13232 10.6328 6.21033 10.331 6.38179C10.0293 6.55325 9.78518 6.81043 9.62973 7.12075C9.19354 7.89568 8.69424 8.63336 8.1369 9.32629C8.04185 9.44429 7.97297 9.58114 7.93483 9.72778C7.89668 9.87442 7.89014 10.0275 7.91564 10.1768C7.94114 10.3262 7.9981 10.4684 8.08273 10.5941C8.16737 10.7198 8.27776 10.826 8.40657 10.9058C8.7594 11.0892 9.15739 11.1676 9.55339 11.1317C9.9494 11.0959 10.3268 10.9473 10.641 10.7036C11.1699 10.2615 11.6251 9.73811 11.9894 9.15293C12.5219 9.18256 13.0556 9.18256 13.5881 9.15293" stroke="#5A5D62" stroke-width="1.6" stroke-linecap="round" stroke-linejoin="round"/>
<path d="M21.139 11.5127C20.3898 12.4989 19.5082 13.3772 18.5193 14.1227" stroke="#5A5D62" stroke-width="1.6" stroke-miterlimit="10" stroke-linecap="round"/>
<path d="M7.43384 5.6377C7.43384 5.6377 8.13691 5.82069 8.68589 5.82069C9.23487 5.82069 10.3136 5.96516 11.1996 6.12889" stroke="#5A5D62" stroke-width="1.6" stroke-linecap="round" stroke-linejoin="round"/>
</svg>
