<svg width="24" height="24" viewBox="0 0 24 24" fill="none" xmlns="http://www.w3.org/2000/svg">
<path d="M11.1621 11.535C11.5514 11.964 12.0272 12.3057 12.558 12.5377C13.0889 12.7697 13.6628 12.8867 14.2421 12.881L14.3281 14.766C13.5111 14.7615 12.7034 14.5923 11.9533 14.2686C11.2031 13.9449 10.5259 13.4733 9.96211 12.882L9.36211 12.254L7.39411 14.407L9.27711 16.292V21.677H7.56211V17.01L6.45311 15.933V17.907L2.86211 21.766L1.66211 20.51L4.74211 17.279L3.71511 14.138C3.64775 13.8881 3.66119 13.6233 3.75352 13.3815C3.84585 13.1397 4.01233 12.9334 4.22911 12.792L7.05211 9.82999C7.18713 9.63677 7.36663 9.47885 7.57547 9.36956C7.78432 9.26026 8.01639 9.20279 8.25211 9.20199C8.58716 9.18275 8.91885 9.27757 9.19311 9.47099L11.1621 11.535ZM22.1101 12.702H20.3991V9.65099L18.8621 9.02299L19.6321 12.972L20.4881 17.639L21.2581 21.588H19.4621L17.9221 14.409L16.1221 16.204V21.589H14.4101V14.856L16.2101 13.061L15.6971 10.369C15.1782 10.9413 14.5704 11.4262 13.8971 11.805C13.0818 11.7054 12.3268 11.3245 11.7621 10.728C12.3709 10.628 12.9488 10.3901 13.4515 10.0323C13.9541 9.67455 14.3683 9.2065 14.6621 8.66399L15.5181 7.22799C15.6058 7.02473 15.7359 6.84253 15.8996 6.69362C16.0634 6.5447 16.2571 6.43249 16.4678 6.36451C16.6785 6.29653 16.9012 6.27434 17.1212 6.29943C17.3411 6.32452 17.5532 6.39631 17.7431 6.50999L22.1061 8.48399V12.702M11.3301 5.97099C11.7945 5.98383 12.2349 6.17973 12.5554 6.51598C12.8759 6.85223 13.0505 7.30155 13.0411 7.76599C13.0523 7.99764 13.0164 8.22916 12.9354 8.4465C12.8545 8.66384 12.7303 8.86249 12.5703 9.0304C12.4103 9.19831 12.2179 9.33198 12.0047 9.42332C11.7915 9.51465 11.562 9.56174 11.3301 9.56174C11.0982 9.56174 10.8687 9.51465 10.6555 9.42332C10.4423 9.33198 10.2499 9.19831 10.0899 9.0304C9.92994 8.86249 9.80572 8.66384 9.72479 8.4465C9.64386 8.22916 9.60791 7.99764 9.61911 7.76599C9.60969 7.30155 9.78427 6.85223 10.1048 6.51598C10.4253 6.17973 10.8658 5.98383 11.3301 5.97099ZM15.6941 2.29199C16.1585 2.30483 16.5989 2.50073 16.9194 2.83698C17.2399 3.17323 17.4145 3.62255 17.4051 4.08699C17.4163 4.31864 17.3804 4.55016 17.2994 4.7675C17.2185 4.98484 17.0943 5.18349 16.9343 5.3514C16.7743 5.51931 16.5819 5.65298 16.3687 5.74432C16.1555 5.83565 15.926 5.88274 15.6941 5.88274C15.4622 5.88274 15.2327 5.83565 15.0195 5.74432C14.8063 5.65298 14.6139 5.51931 14.4539 5.3514C14.2939 5.18349 14.1697 4.98484 14.0888 4.7675C14.0079 4.55016 13.9719 4.31864 13.9831 4.08699C13.9737 3.62255 14.1483 3.17323 14.4688 2.83698C14.7893 2.50073 15.2298 2.30483 15.6941 2.29199Z" fill="#262B33"/>
</svg>
