<svg width="24" height="24" viewBox="0 0 24 24" fill="none" xmlns="http://www.w3.org/2000/svg">
<path d="M20.5599 8.2099C20.0699 7.7199 19.4199 7.4399 18.7199 7.4199H17.5499V6.3299C17.5499 5.9799 17.4799 5.6299 17.3399 5.2999C17.1999 4.9699 17.0099 4.6799 16.7599 4.4299C16.5099 4.1799 16.2099 3.9799 15.8799 3.8499C15.5499 3.7099 15.1999 3.6499 14.8499 3.6499H5.3499C4.6299 3.6499 3.9499 3.9299 3.4399 4.4399C2.9299 4.9499 2.6499 5.6199 2.6499 6.3399V17.6699C2.6499 18.0299 2.7199 18.3699 2.8499 18.6999C2.9899 19.0299 3.1799 19.3199 3.4399 19.5699C3.6999 19.8199 3.9899 20.0199 4.3199 20.1499C4.6499 20.2899 4.9999 20.3499 5.3499 20.3499H18.6499C19.0099 20.3499 19.3499 20.2799 19.6799 20.1499C20.0099 20.0199 20.2999 19.8199 20.5599 19.5699C20.8099 19.3199 21.0099 19.0299 21.1399 18.6999C21.2799 18.3699 21.3499 18.0299 21.3499 17.6699V10.1099C21.3499 9.3899 21.0699 8.7199 20.5599 8.2099ZM19.7599 12.7899V14.9799H18.6599C18.3699 14.9799 18.0899 14.8699 17.8799 14.6599C17.6699 14.4499 17.5599 14.1799 17.5599 13.8799C17.5599 13.5799 17.6799 13.3099 17.8799 13.1099C18.0899 12.8999 18.3599 12.7899 18.6599 12.7899H19.7599ZM15.9599 13.8899C15.9599 14.6099 16.2399 15.2799 16.7499 15.7899C17.2599 16.2999 17.9399 16.5799 18.6599 16.5799H19.7599V17.6699C19.7599 17.9599 19.6499 18.2399 19.4399 18.4399C19.2299 18.6499 18.9499 18.7599 18.6599 18.7599H5.3499C5.0599 18.7599 4.7799 18.6499 4.5699 18.4399C4.3599 18.2299 4.2499 17.9599 4.2499 17.6699V8.7999L4.4499 8.8699C4.7399 8.9699 5.0399 9.0199 5.3499 9.0199H18.6499C18.9399 9.0199 19.2199 9.1299 19.4299 9.3399C19.6399 9.5499 19.7499 9.8199 19.7499 10.1099V11.1999H18.6499C17.9299 11.1999 17.2499 11.4799 16.7399 11.9899C16.2299 12.4999 15.9499 13.1699 15.9499 13.8899H15.9599ZM15.9599 7.4299H5.3499C5.0599 7.4299 4.7799 7.3199 4.5699 7.1099C4.3599 6.8999 4.2499 6.6299 4.2499 6.3399C4.2499 6.0499 4.3599 5.7699 4.5699 5.5699C4.7799 5.3699 5.0499 5.2499 5.3499 5.2499H14.8499C15.1399 5.2499 15.4199 5.3599 15.6299 5.5699C15.8399 5.7799 15.9499 6.0499 15.9499 6.3399V7.4399L15.9599 7.4299Z" fill="#5A5D62"/>
</svg>
