<svg width="24" height="24" viewBox="0 0 24 24" fill="none" xmlns="http://www.w3.org/2000/svg">
<path d="M19.1 20H4.89995C3.69995 20 2.69995 19 2.69995 17.8V8.8C2.69995 7.6 3.69995 6.6 4.89995 6.6H7.39995L7.89995 5.4C8.49995 4 9.39995 4 10.3 4H13.6C14.6 4 15.5 4 16 5.4L16.5 6.6H19C20.2 6.6 21.2 7.6 21.2 8.8V17.8C21.3 19 20.3 20 19.1 20ZM4.89995 8C4.49995 8 4.19995 8.4 4.19995 8.8V17.8C4.19995 18.2 4.49995 18.6 4.99995 18.6H19.2C19.6 18.6 20 18.3 20 17.8V8.8C20 8.4 19.7 8 19.2 8H16.4C15.9 8 15.6 7.8 15.4 7.3L14.8 5.8C14.6 5.4 14.6 5.4 13.8 5.4H10.5C9.59995 5.4 9.59995 5.4 9.49995 5.8L8.69995 7.3C8.49995 7.8 8.09995 8 7.69995 8H4.89995Z" fill="#5A5D62"/>
<path d="M12 17.2001C9.59995 17.2001 7.69995 15.2001 7.69995 12.9001C7.69995 10.6001 9.69995 8.6001 12 8.6001C14.3 8.6001 16.3 10.6001 16.3 12.9001C16.3 15.2001 14.4 17.2001 12 17.2001ZM12 10.0001C10.4 10.0001 9.19995 11.3001 9.19995 12.8001C9.19995 14.3001 10.5 15.6001 12 15.6001C13.5 15.6001 14.8 14.3001 14.8 12.8001C14.8 11.3001 13.6 10.0001 12 10.0001Z" fill="#5A5D62"/>
</svg>
