<svg width="24" height="24" viewBox="0 0 24 24" fill="none" xmlns="http://www.w3.org/2000/svg">
<path d="M12.25 2.25C9.6 2.25 7.05 3.3 5.2 5.2C3.3 7.05 2.25 9.6 2.25 12.25C2.25 14.9 3.3 17.45 5.2 19.3C7.1 21.15 9.6 22.25 12.25 22.25C14.9 22.25 17.45 21.2 19.3 19.3C21.2 17.45 22.25 14.9 22.25 12.25C22.25 9.6 21.2 7.05 19.3 5.2C17.45 3.3 14.9 2.25 12.25 2.25Z" fill="#B9E35C"/>
<path d="M21.0484 11.1499C18.4484 11.1999 15.8984 12.2499 14.0984 14.0999C12.2984 15.9499 11.1984 18.4499 11.1484 21.0499V21.0999C11.5484 21.0999 11.8984 21.1499 12.2484 21.1499V21.0999C12.2484 18.7999 13.1984 16.4999 14.8484 14.8499C16.4984 13.1999 18.7984 12.2499 21.0984 12.2499H21.1484C21.1484 11.8999 21.0984 11.5499 21.0984 11.1499H21.0484ZM3.44839 13.3499C6.04839 13.2999 8.54839 12.2499 10.3984 10.3999C12.2484 8.54985 13.2984 6.04985 13.3484 3.44985V3.39985C12.9484 3.39985 12.5984 3.34985 12.2484 3.34985V3.39985C12.2484 5.69985 11.2984 7.99985 9.64839 9.64985C7.99839 11.2999 5.69839 12.2499 3.39839 12.2499H3.34839C3.34839 12.5999 3.39839 12.9499 3.39839 13.3499H3.44839Z" fill="white"/>
</svg>
