<svg width="16" height="16" viewBox="0 0 16 16" fill="none" xmlns="http://www.w3.org/2000/svg">
<path d="M2.99965 3H5.18728C5.27508 3.00003 5.35936 3.03748 5.42202 3.10432L5.89149 3.60962C5.95401 3.67668 6.03838 3.71417 6.12623 3.71394H13.0011C13.0895 3.71415 13.1742 3.75246 13.2366 3.82045C13.299 3.88844 13.3341 3.98056 13.3341 4.07661V5.85656H2.66667V3.36186C2.66667 3.26589 2.70175 3.17385 2.7642 3.10598C2.82664 3.03812 2.91134 3 2.99965 3ZM2.33369 6.5705H13.6663C13.7133 6.57039 13.7598 6.5811 13.8028 6.60193C13.8457 6.62276 13.8841 6.65323 13.9154 6.69134C13.9467 6.72945 13.9702 6.77434 13.9844 6.82304C13.9986 6.87175 14.0032 6.92317 13.9978 6.97392L13.4023 12.6789C13.3931 12.7674 13.3542 12.849 13.293 12.9083C13.2319 12.9675 13.1528 13.0002 13.0708 13H2.92915C2.84711 13.0001 2.76791 12.9674 2.70674 12.908C2.64556 12.8486 2.60672 12.7667 2.59767 12.6781L2.0022 6.97311C1.9968 6.92235 2.00136 6.87093 2.01556 6.82223C2.02976 6.77352 2.05329 6.72864 2.08461 6.69053C2.11592 6.65242 2.15431 6.62195 2.19724 6.60112C2.24017 6.58029 2.28667 6.57039 2.33369 6.5705ZM4.32783 7.99919C4.24071 7.99919 4.15716 8.0368 4.09556 8.10374C4.03395 8.17069 3.99935 8.26148 3.99935 8.35615C3.99935 8.45083 4.03395 8.54163 4.09556 8.60857C4.15716 8.67551 4.24071 8.71312 4.32783 8.71312H4.33533C4.42244 8.71312 4.506 8.67551 4.5676 8.60857C4.6292 8.54163 4.66381 8.45083 4.66381 8.35615C4.66381 8.26148 4.6292 8.17069 4.5676 8.10374C4.506 8.0368 4.42244 7.99919 4.33533 7.99919H4.32783ZM4.32783 9.42787C4.24071 9.42787 4.15716 9.46548 4.09556 9.53243C4.03395 9.59937 3.99935 9.69017 3.99935 9.78484C3.99935 9.87951 4.03395 9.97031 4.09556 10.0373C4.15716 10.1042 4.24071 10.1418 4.32783 10.1418H4.33533C4.42244 10.1418 4.506 10.1042 4.5676 10.0373C4.6292 9.97031 4.66381 9.87951 4.66381 9.78484C4.66381 9.69017 4.6292 9.59937 4.5676 9.53243C4.506 9.46548 4.42244 9.42787 4.33533 9.42787H4.32783ZM5.66201 7.99919C5.57489 7.99919 5.49134 8.0368 5.42973 8.10374C5.36813 8.17069 5.33352 8.26148 5.33352 8.35615C5.33352 8.45083 5.36813 8.54163 5.42973 8.60857C5.49134 8.67551 5.57489 8.71312 5.66201 8.71312H7.95763C8.04475 8.71312 8.1283 8.67551 8.1899 8.60857C8.2515 8.54163 8.28611 8.45083 8.28611 8.35615C8.28611 8.26148 8.2515 8.17069 8.1899 8.10374C8.1283 8.0368 8.04475 7.99919 7.95763 7.99919H5.66201ZM5.66201 9.42787C5.57489 9.42787 5.49134 9.46548 5.42973 9.53243C5.36813 9.59937 5.33352 9.69017 5.33352 9.78484C5.33352 9.87951 5.36813 9.97031 5.42973 10.0373C5.49134 10.1042 5.57489 10.1418 5.66201 10.1418H7.95763C8.04475 10.1418 8.1283 10.1042 8.1899 10.0373C8.2515 9.97031 8.28611 9.87951 8.28611 9.78484C8.28611 9.69017 8.2515 9.59937 8.1899 9.53243C8.1283 9.46548 8.04475 9.42787 7.95763 9.42787H5.66201Z" fill="#262B33"/>
</svg>
