<svg width="20" height="20" viewBox="0 0 20 20" fill="none" xmlns="http://www.w3.org/2000/svg">
<path d="M14.5247 10.1913C14.5432 9.58825 14.7178 9.00033 15.0314 8.4849C15.3449 7.96948 15.7868 7.54416 16.3138 7.25045C15.9529 6.78734 15.4939 6.40992 14.9698 6.14531C14.4457 5.8807 13.8695 5.73547 13.2826 5.72007C11.9921 5.59931 10.764 6.42817 10.1085 6.42817C9.45295 6.42817 8.44419 5.73814 7.373 5.75703C6.68494 5.76623 6.01026 5.94839 5.41107 6.28675C4.81188 6.6251 4.30745 7.10877 3.94422 7.69322C2.48202 10.0566 3.56964 13.5576 4.99487 15.4749C5.69147 16.4139 6.52197 17.467 7.61123 17.43C8.66106 17.3906 9.05782 16.7967 10.327 16.7967C11.5961 16.7967 11.9527 17.43 13.0633 17.4103C14.1928 17.3906 14.9083 16.4541 15.6 15.5127C16.0916 14.8425 16.4793 14.102 16.75 13.3161C16.1119 13.0732 15.5601 12.6469 15.1641 12.0907C14.768 11.5346 14.5455 10.8737 14.5247 10.1913ZM12.8743 4.50266C13.2074 4.14046 13.4624 3.71363 13.6235 3.2487C13.7846 2.78377 13.8484 2.29067 13.8108 1.80005C12.7995 1.8869 11.8558 2.34343 11.1599 3.08235C10.8255 3.42714 10.5674 3.83858 10.4026 4.28982C10.2379 4.74106 10.1701 5.22197 10.2038 5.70117C10.7098 5.71149 11.2118 5.60942 11.6736 5.40231C12.1354 5.1952 12.5455 4.88739 12.8743 4.50266Z" fill="white"/>
</svg>
