<svg width="24" height="24" viewBox="0 0 24 24" fill="none" xmlns="http://www.w3.org/2000/svg">
<g clip-path="url(#clip0_246_1998)">
<path d="M0 12C0 14.3734 0.703785 16.6934 2.02236 18.6668C3.34094 20.6402 5.21509 22.1783 7.4078 23.0866C9.60051 23.9948 12.0133 24.2324 14.3411 23.7694C16.6689 23.3064 18.8071 22.1635 20.4853 20.4853C22.1635 18.8071 23.3064 16.6689 23.7694 14.3411C24.2324 12.0133 23.9948 9.60051 23.0866 7.4078C22.1783 5.21509 20.6402 3.34094 18.6668 2.02236C16.6934 0.703785 14.3734 0 12 0C8.8174 0 5.76515 1.26428 3.51472 3.51472C1.26428 5.76515 0 8.8174 0 12Z" fill="#3B4350"/>
<path d="M23.7409 9.8131C22.8595 9.57843 21.9859 9.31643 21.1199 9.02709C20.7754 8.92877 20.4722 8.72127 20.2558 8.4358C20.0394 8.15033 19.9215 7.80231 19.9199 7.44409C19.8732 6.54276 19.8525 5.64042 19.8579 4.73709C19.8506 4.49463 19.8963 4.25349 19.9918 4.03051C20.0873 3.80753 20.2303 3.60808 20.4109 3.44609C19.0707 2.12697 17.4391 1.14145 15.6479 0.569092C15.535 0.744786 15.3949 0.901414 15.2329 1.0331C14.5375 1.6091 13.8262 2.16476 13.0989 2.7001C12.821 2.92578 12.4773 3.05519 12.1196 3.06889C11.7618 3.0826 11.4093 2.97985 11.1149 2.77609C10.3429 2.28943 9.58688 1.77943 8.84688 1.24609C8.60537 1.07867 8.40835 0.854867 8.27288 0.594093C6.57266 1.15013 5.01836 2.07949 3.72388 3.31409C3.96 3.62648 4.08337 4.00962 4.07387 4.40109C4.07921 5.30376 4.05854 6.20609 4.01188 7.10809C4.01026 7.46631 3.89238 7.81433 3.67598 8.0998C3.45958 8.38527 3.15635 8.59277 2.81188 8.69109C1.97188 8.97109 1.12421 9.22576 0.268874 9.45509C-0.332103 12.2343 0.0707153 15.1366 1.40588 17.6471C1.6138 17.4651 1.86515 17.3399 2.13563 17.2835C2.4061 17.2271 2.68655 17.2414 2.94987 17.3251C3.84987 17.5851 4.73688 17.9121 5.61388 18.2501C5.95318 18.3645 6.24619 18.586 6.44887 18.8811C6.65156 19.1763 6.75297 19.5293 6.73788 19.8871C6.74321 20.7898 6.72255 21.6921 6.67588 22.5941C6.67588 22.6474 6.67121 22.7008 6.66188 22.7541C9.15663 23.9884 12.0019 24.3206 14.7139 23.6941C14.6211 23.4411 14.5868 23.1704 14.6136 22.9023C14.6405 22.6342 14.7278 22.3756 14.8689 22.1461C15.0829 21.7651 15.2769 21.3731 15.4859 20.9891C15.4859 20.9891 16.1059 19.8891 16.1399 19.8371C16.306 19.5524 16.5536 19.3241 16.8507 19.1815C17.1478 19.0389 17.4809 18.9886 17.8069 19.0371C18.7389 19.1571 19.6629 19.3461 20.5809 19.5461C20.7809 19.5882 20.973 19.6617 21.1499 19.7641C22.2989 18.4074 23.1327 16.8127 23.5909 15.0948C24.0492 13.377 24.1205 11.5788 23.7999 9.83009L23.7409 9.8131ZM15.7819 12.1351C15.4869 13.0281 15.1819 13.9191 14.8099 14.7821C14.6855 15.0876 14.4723 15.3487 14.198 15.5318C13.9236 15.7149 13.6007 15.8115 13.2709 15.8091C13.2099 15.8091 11.9469 15.7861 11.9469 15.7861C11.5099 15.7711 11.0739 15.7391 10.6369 15.7291C10.2578 15.7406 9.8854 15.6275 9.57672 15.4072C9.26805 15.1868 9.04012 14.8714 8.92788 14.5091C8.63788 13.6251 8.37788 12.7311 8.16188 11.8261C8.06806 11.491 8.0835 11.1348 8.20597 10.8091C8.32843 10.4835 8.55154 10.2053 8.84288 10.0151C9.58288 9.48176 10.3389 8.97176 11.1109 8.48509C11.4053 8.28133 11.7578 8.17859 12.1155 8.19229C12.4733 8.206 12.817 8.33541 13.0949 8.5611C13.8222 9.09443 14.5335 9.6501 15.2289 10.2281C15.5158 10.4425 15.7254 10.7442 15.826 11.088C15.9267 11.4317 15.9129 11.7988 15.7869 12.1341L15.7819 12.1351Z" fill="#F0F3F7"/>
</g>
<defs>
<clipPath id="clip0_246_1998">
<rect width="24" height="24" fill="white"/>
</clipPath>
</defs>
</svg>
