<svg width="20" height="20" viewBox="0 0 20 20" fill="none" xmlns="http://www.w3.org/2000/svg">
<path d="M8.58385 12.47V7.52918L12.8336 10.0089L8.58385 12.47ZM18.3303 6.58778C18.2497 5.97622 18.0176 5.39427 17.6548 4.8945C17.2054 4.43841 16.5926 4.1788 15.9512 4.17272C13.5721 3.9956 10.004 3.99561 10.004 3.99561H9.99689C9.99689 3.99561 6.42786 3.9956 4.04969 4.17272C3.40797 4.17866 2.79487 4.43827 2.34516 4.8945C1.98215 5.39447 1.75001 5.97676 1.66974 6.58866C1.56397 7.50485 1.50731 8.42601 1.5 9.34822L1.5 10.6439C1.50734 11.5667 1.564 12.4884 1.66974 13.4052C1.75008 14.0168 1.98222 14.5988 2.34516 15.0985C2.86153 15.5589 3.52751 15.8177 4.22032 15.8273C5.58004 15.9593 9.99689 15.9991 9.99689 15.9991C9.99689 15.9991 13.5695 15.9938 15.9512 15.822C16.5927 15.8153 17.2053 15.5555 17.6548 15.0994C18.018 14.5995 18.2502 14.0172 18.3303 13.4052C18.436 12.4887 18.4927 11.5673 18.5 10.6448V9.34999C18.4927 8.42719 18.436 7.50457 18.3303 6.58778Z" fill="#FF0000"/>
</svg>
