<svg width="24" height="24" viewBox="0 0 24 24" fill="none" xmlns="http://www.w3.org/2000/svg">
<path d="M20.8992 3.1998H18.5993V2.20038C18.5993 2.14724 18.5782 2.09627 18.5406 2.05869C18.5031 2.02111 18.4521 2 18.3989 2H5.60023C5.54709 2 5.49612 2.02111 5.45854 2.05869C5.42096 2.09627 5.39985 2.14724 5.39985 2.20038V3.20063H3.10003C2.95557 3.20063 2.81253 3.22908 2.67906 3.28436C2.5456 3.33964 2.42434 3.42067 2.32219 3.52282C2.22004 3.62496 2.13902 3.74623 2.08374 3.87969C2.02846 4.01315 2 4.15619 2 4.30065V8.00066C2.00116 8.97602 2.34946 9.91913 2.98252 10.6611C3.61559 11.4031 4.49209 11.8956 5.4551 12.0503C5.64522 13.4675 6.3043 14.7803 7.32728 15.7793C8.35025 16.7784 9.67823 17.4062 11.0995 17.5628V20.1925H6.19972C6.09465 20.1924 5.99059 20.213 5.89349 20.2531C5.7964 20.2933 5.70818 20.3522 5.63389 20.4265C5.55959 20.5008 5.50068 20.589 5.46052 20.6861C5.42036 20.7832 5.39974 20.8873 5.39985 20.9923V21.7996C5.39985 21.8259 5.40504 21.852 5.41511 21.8763C5.42518 21.9006 5.43994 21.9227 5.45854 21.9413C5.47715 21.9599 5.49924 21.9747 5.52355 21.9847C5.54786 21.9948 5.57392 22 5.60023 22H18.3989C18.4521 22 18.5031 21.9789 18.5406 21.9413C18.5782 21.9037 18.5993 21.8528 18.5993 21.7996V20.9923C18.5994 20.8873 18.5788 20.7832 18.5387 20.6861C18.4985 20.589 18.4396 20.5008 18.3653 20.4265C18.291 20.3522 18.2028 20.2933 18.1057 20.2531C18.0086 20.213 17.9045 20.1924 17.7995 20.1925H12.8996V17.562C14.3209 17.4054 15.6489 16.7776 16.6719 15.7785C17.6949 14.7794 18.354 13.4667 18.5441 12.0495C19.5071 11.8947 20.3836 11.4023 21.0167 10.6603C21.6497 9.91831 21.998 8.9752 21.9992 7.99984V4.29983C21.9992 4.15537 21.9707 4.01233 21.9154 3.87887C21.8602 3.74541 21.7791 3.62414 21.677 3.52199C21.5748 3.41985 21.4536 3.33882 21.3201 3.28354C21.1866 3.22826 21.0436 3.1998 20.8992 3.1998ZM5.39656 10.1892C4.93254 10.0402 4.52771 9.74796 4.24027 9.35442C3.95282 8.96089 3.79757 8.48634 3.79682 7.99901V5.00404H5.39656V10.1892ZM20.1958 7.99901C20.1956 8.4865 20.0406 8.96134 19.7531 9.355C19.4656 9.74866 19.0604 10.0408 18.596 10.1892V5.00404H20.1958V7.99901Z" fill="#FFCF4D"/>
</svg>
