<svg width="29" height="28" viewBox="0 0 29 28" fill="none" xmlns="http://www.w3.org/2000/svg">
<path d="M14.5 25.5001C20.8513 25.5001 26 20.3513 26 14.0001C26 7.64879 20.8513 2.50006 14.5 2.50006C8.14873 2.50006 3 7.64879 3 14.0001C3 20.3513 8.14873 25.5001 14.5 25.5001Z" fill="#00A6FF"/>
<path d="M6.65956 21.3576C6.51624 21.3581 6.37685 21.3109 6.26326 21.2235C6.14966 21.1361 6.0683 21.0135 6.03193 20.8749C5.92572 20.4307 5.81951 19.9865 5.72295 19.5134C5.7044 19.352 5.74726 19.1895 5.843 19.0583C5.93874 18.927 6.08036 18.8366 6.23971 18.805C6.39906 18.7733 6.56448 18.8028 6.70309 18.8876C6.8417 18.9723 6.94336 19.1061 6.98785 19.2623C7.07476 19.7065 7.18097 20.141 7.28718 20.5562C7.32832 20.7213 7.30274 20.896 7.21599 21.0424C7.12923 21.1888 6.9883 21.2951 6.82371 21.3383L6.65956 21.3576ZM5.87744 16.7229C5.71545 16.7235 5.5591 16.6634 5.43931 16.5543C5.31952 16.4453 5.24501 16.2952 5.23051 16.1339C5.23051 15.6897 5.16292 15.2262 5.13395 14.7531C5.12627 14.5815 5.18706 14.4139 5.30295 14.2872C5.41884 14.1604 5.58034 14.0849 5.75192 14.0772C5.9235 14.0695 6.0911 14.1303 6.21785 14.2462C6.34461 14.3621 6.42014 14.5236 6.42782 14.6952C6.42782 15.1458 6.45679 15.5899 6.51472 16.0277C6.52822 16.1963 6.47513 16.3635 6.36684 16.4934C6.25855 16.6234 6.10366 16.7057 5.93538 16.7229H5.87744ZM5.95469 12.0688H5.80985C5.72639 12.0538 5.64677 12.0222 5.57565 11.976C5.50454 11.9298 5.44336 11.8699 5.3957 11.7998C5.34803 11.7296 5.31485 11.6507 5.29809 11.5676C5.28133 11.4844 5.28134 11.3988 5.2981 11.3157C5.385 10.8522 5.50087 10.3501 5.63605 9.92523C5.69269 9.76961 5.80686 9.64164 5.95503 9.56767C6.10321 9.49371 6.2741 9.47938 6.43252 9.52765C6.59094 9.57592 6.72482 9.6831 6.80657 9.82713C6.88833 9.97115 6.91174 10.141 6.87198 10.3018C6.7475 10.7146 6.64437 11.1336 6.563 11.5571C6.53302 11.6979 6.4569 11.8247 6.34672 11.9174C6.23654 12.0101 6.09858 12.0634 5.95469 12.0688ZM7.57685 7.63682C7.46206 7.6411 7.34824 7.61427 7.24744 7.55917C7.14665 7.50407 7.06261 7.42275 7.00424 7.32381C6.94587 7.22488 6.91532 7.112 6.91584 6.99713C6.91635 6.88225 6.94791 6.76965 7.00717 6.67124C7.22925 6.2657 7.46099 5.86016 7.70238 5.46427C7.79949 5.32865 7.94589 5.23651 8.11017 5.20763C8.27445 5.17874 8.44351 5.21542 8.58105 5.30978C8.65402 5.35348 8.71765 5.41113 8.76831 5.47944C8.81897 5.54776 8.85566 5.62539 8.87629 5.7079C8.89692 5.79041 8.90107 5.87617 8.88852 5.96029C8.87597 6.0444 8.84695 6.12522 8.80314 6.19811C8.5714 6.57469 8.35897 6.95126 8.14654 7.34715C8.08624 7.44203 8.00155 7.51897 7.90133 7.56993C7.80112 7.62088 7.68905 7.64398 7.57685 7.63682Z" fill="#FCFCFC"/>
<path d="M13.5346 24.3028C13.3991 24.303 13.2671 24.2601 13.1578 24.1802C13.0484 24.1004 12.9673 23.9877 12.9262 23.8587C12.7814 23.4048 12.6462 22.9607 12.5207 22.5358C12.4929 22.3786 12.5243 22.2166 12.6087 22.0811C12.6932 21.9456 12.8247 21.8461 12.9781 21.8018C13.1315 21.7574 13.2959 21.7714 13.4396 21.841C13.5833 21.9105 13.6962 22.0308 13.7566 22.1786C13.8822 22.5938 14.0077 23.0186 14.1525 23.4628C14.2043 23.6254 14.1897 23.8019 14.1119 23.9538C14.0342 24.1057 13.8995 24.2208 13.7373 24.2739C13.6714 24.293 13.6032 24.3027 13.5346 24.3028ZM12.4145 19.7936C12.2629 19.7938 12.116 19.7407 11.9995 19.6437C11.8831 19.5466 11.8044 19.4117 11.7772 19.2625C11.7 18.7797 11.6227 18.297 11.5744 17.8818C11.5578 17.7135 11.6067 17.5452 11.7111 17.4121C11.8154 17.279 11.9671 17.1913 12.1345 17.1672C12.2183 17.1565 12.3034 17.1624 12.3848 17.1848C12.4663 17.2072 12.5424 17.2456 12.6089 17.2977C12.6754 17.3498 12.7309 17.4146 12.7721 17.4884C12.8133 17.5621 12.8395 17.6433 12.849 17.7273C12.9069 18.1425 12.9649 18.577 13.0518 19.0308C13.0841 19.1956 13.0521 19.3664 12.9623 19.5083C12.8725 19.6502 12.7317 19.7523 12.569 19.7936H12.4145ZM12.0669 15.1202C11.9824 15.119 11.8989 15.1009 11.8214 15.0671C11.744 15.0333 11.674 14.9845 11.6156 14.9233C11.5572 14.8622 11.5115 14.7901 11.4812 14.7112C11.451 14.6323 11.4367 14.5481 11.4393 14.4636C11.4393 13.9905 11.4393 13.498 11.5165 13.0732C11.5226 12.9894 11.5452 12.9077 11.583 12.8327C11.6208 12.7577 11.6731 12.6909 11.7368 12.6361C11.8005 12.5814 11.8744 12.5398 11.9543 12.5137C12.0341 12.4876 12.1183 12.4776 12.2021 12.4842C12.2871 12.4903 12.3701 12.5132 12.4463 12.5515C12.5225 12.5897 12.5903 12.6427 12.6459 12.7073C12.7016 12.7719 12.7439 12.8469 12.7705 12.9279C12.797 13.0089 12.8073 13.0944 12.8007 13.1794C12.8007 13.6043 12.7428 14.0484 12.7331 14.5022C12.7184 14.667 12.6412 14.8198 12.5173 14.9294C12.3933 15.0389 12.2322 15.0968 12.0669 15.0912V15.1202ZM12.6752 10.4855C12.6209 10.4948 12.5654 10.4948 12.511 10.4855C12.4287 10.4642 12.3514 10.4267 12.2838 10.3752C12.2161 10.3236 12.1595 10.259 12.1172 10.1852C12.0749 10.1115 12.0478 10.0299 12.0375 9.94553C12.0272 9.8611 12.0339 9.77547 12.0572 9.69368C12.1731 9.24951 12.3083 8.80535 12.4724 8.35153C12.5313 8.19019 12.6519 8.05887 12.8076 7.98643C12.9634 7.914 13.1415 7.9064 13.3028 7.9653C13.4642 8.0242 13.5955 8.14478 13.6679 8.30051C13.7403 8.45624 13.7479 8.63436 13.689 8.79569C13.5384 9.20051 13.4095 9.61307 13.3028 10.0316C13.2575 10.1603 13.172 10.271 13.059 10.3475C12.946 10.424 12.8115 10.4622 12.6752 10.4565V10.4855ZM14.5001 6.15967C14.385 6.15955 14.2719 6.12961 14.1718 6.07277C14.0984 6.0308 14.0341 5.97464 13.9826 5.90754C13.931 5.84045 13.8934 5.76378 13.8718 5.682C13.8503 5.60021 13.8452 5.51495 13.8569 5.43118C13.8686 5.34742 13.8969 5.26682 13.9401 5.1941C14.1525 4.80787 14.3939 4.41198 14.6546 4.00644C14.7551 3.88327 14.8974 3.8014 15.0544 3.77645C15.2114 3.7515 15.3721 3.78523 15.5058 3.87118C15.6395 3.95714 15.7369 4.08931 15.7793 4.24249C15.8218 4.39566 15.8064 4.55911 15.7361 4.70166C15.4947 5.08789 15.2629 5.46446 15.0505 5.83138C14.9976 5.93119 14.9182 6.01456 14.8212 6.07245C14.7242 6.13033 14.6131 6.1605 14.5001 6.15967Z" fill="#FCFCFC"/>
<path fill-rule="evenodd" clip-rule="evenodd" d="M14.3604 2.5011C13.6441 2.50963 12.9436 2.58365 12.2646 2.71743C9.81926 5.5549 8.39268 9.13637 8.224 12.89C7.86749 17.3549 8.65268 21.7078 10.1204 24.6368C10.7048 24.8778 11.3135 25.0719 11.9417 25.2146C10.2936 22.8139 9.08888 18.1977 9.50822 12.9962C9.9391 7.65135 12.2066 4.06484 14.3604 2.5011Z" fill="#FCFCFC"/>
</svg>
