<svg width="28" height="28" viewBox="0 0 28 28" fill="none" xmlns="http://www.w3.org/2000/svg">
<circle cx="14" cy="14" r="14" fill="#1A1E24" fill-opacity="0.6"/>
<path d="M12.8599 7.60906C13.2279 6.888 13.4119 6.52747 13.6596 6.41099C13.8752 6.30959 14.1248 6.30959 14.3404 6.41099C14.5881 6.52747 14.7721 6.888 15.1401 7.60906L16.2895 9.86134C16.398 10.0739 16.4522 10.1801 16.5301 10.263C16.599 10.3364 16.6812 10.3961 16.7723 10.439C16.8752 10.4874 16.993 10.5061 17.2286 10.5436L19.7258 10.9408C20.5253 11.0679 20.925 11.1315 21.1124 11.3311C21.2754 11.5048 21.3526 11.7422 21.3228 11.9786C21.2885 12.2502 21.0025 12.5366 20.4305 13.1094L18.6436 14.8986C18.475 15.0674 18.3907 15.1518 18.336 15.2514C18.2875 15.3397 18.2561 15.4363 18.2434 15.5362C18.2292 15.649 18.2477 15.7668 18.2849 16.0025L18.6789 18.5002C18.805 19.2999 18.8681 19.6997 18.7361 19.9395C18.6213 20.1483 18.4193 20.295 18.1853 20.3397C17.9164 20.3911 17.5557 20.2076 16.8341 19.8405L14.5804 18.694C14.3677 18.5858 14.2614 18.5317 14.1497 18.5105C14.0508 18.4916 13.9492 18.4916 13.8503 18.5105C13.7386 18.5317 13.6323 18.5858 13.4196 18.694L11.1659 19.8405C10.4443 20.2076 10.0836 20.3911 9.81471 20.3397C9.58066 20.295 9.37872 20.1483 9.26387 19.9395C9.13194 19.6997 9.195 19.2999 9.32113 18.5002L9.71509 16.0025C9.75226 15.7668 9.77085 15.649 9.75657 15.5362C9.74392 15.4363 9.71253 15.3397 9.66405 15.2514C9.6093 15.1518 9.525 15.0674 9.3564 14.8986L7.56954 13.1094C6.99749 12.5366 6.71146 12.2502 6.67722 11.9786C6.64742 11.7422 6.72455 11.5048 6.88762 11.3311C7.07495 11.1315 7.47469 11.0679 8.27417 10.9408L10.7714 10.5436C11.007 10.5061 11.1248 10.4874 11.2277 10.439C11.3188 10.3961 11.401 10.3364 11.4699 10.263C11.5478 10.1801 11.602 10.0739 11.7105 9.86134L12.8599 7.60906Z" fill="#FFEA2C"/>
</svg>
