<svg width="24" height="24" viewBox="0 0 24 24" fill="none" xmlns="http://www.w3.org/2000/svg">
<path d="M5.86548 18.4623L5.74204 19.063L5.41483 20.6552C5.41482 20.6553 5.4148 20.6553 5.41479 20.6554C5.39267 20.7642 5.41457 20.8774 5.47571 20.9702C5.53682 21.0629 5.63217 21.1276 5.74088 21.1502C5.76915 21.156 5.79791 21.1591 5.82677 21.1594C5.9225 21.1585 6.01509 21.125 6.08925 21.0644C6.16402 21.0033 6.21549 20.9183 6.23505 20.8238L6.6385 18.8616L6.72061 18.4623H7.12826H16.8729H17.2805L17.3626 18.8616L17.7662 20.8243L17.7669 20.828C17.7775 20.8815 17.7986 20.9323 17.829 20.9776C17.8595 21.0228 17.8986 21.0616 17.9441 21.0916C17.9896 21.1216 18.0406 21.1422 18.0942 21.1523C18.1478 21.1624 18.2029 21.1618 18.2562 21.1504L18.2603 21.1495C18.3141 21.1385 18.3652 21.1171 18.4106 21.0863C18.4561 21.0556 18.495 21.0162 18.5252 20.9704C18.5554 20.9245 18.5763 20.8732 18.5867 20.8193C18.597 20.7655 18.5967 20.7101 18.5856 20.6563L18.5855 20.6559L18.2585 19.0629L18.1352 18.4623H18.7483H20.6967C20.9142 18.4623 21.1295 18.4195 21.3303 18.3363C21.5312 18.2531 21.7137 18.1312 21.8675 17.9774C22.0212 17.8237 22.1432 17.6412 22.2264 17.4403C22.3096 17.2394 22.3524 17.0241 22.3524 16.8067V5.65669C22.3524 5.21758 22.1779 4.79645 21.8675 4.48594C21.557 4.17544 21.1358 4.00099 20.6967 4.00098H3.30418C3.30417 4.00098 3.30417 4.00098 3.30416 4.00098C2.86504 4.001 2.44392 4.17545 2.13342 4.48596C1.82291 4.79646 1.64846 5.21758 1.64844 5.6567L5.86548 18.4623ZM5.86548 18.4623H5.25228M5.86548 18.4623H5.25228M5.25228 18.4623H3.3042C2.86507 18.4623 2.44393 18.2879 2.13342 17.9774C1.82291 17.6669 1.64846 17.2458 1.64844 16.8067C1.64844 16.8067 1.64844 16.8067 1.64844 16.8067M5.25228 18.4623L1.64844 16.8067M1.64844 16.8067V5.65672V16.8067ZM21.5523 16.8072V16.8067V5.6567V5.65622C21.5521 5.42952 21.462 5.21217 21.3017 5.05183C21.1415 4.89149 20.9242 4.80126 20.6975 4.80093H20.6967L3.30415 4.80093L3.30356 4.80093C3.07682 4.80119 2.85945 4.89139 2.69914 5.05173C2.53883 5.21207 2.44867 5.42946 2.44844 5.65619V5.6567L2.44844 16.8067L2.44844 16.8073C2.44871 17.034 2.5389 17.2514 2.69923 17.4117C2.85957 17.572 3.07694 17.6621 3.30367 17.6623H3.30416H20.6967H20.6973C20.924 17.6621 21.1414 17.5719 21.3017 17.4116C21.462 17.2513 21.5521 17.0339 21.5523 16.8072Z" fill="#989DAB" stroke="#989DAB"/>
<path d="M7.64727 7.82129H5.44727" stroke="#989DAB" stroke-width="1.3" stroke-miterlimit="10" stroke-linecap="round"/>
</svg>
