<svg width="24" height="24" viewBox="0 0 24 24" fill="none" xmlns="http://www.w3.org/2000/svg">
<path d="M12.0003 20.5001C3.75023 20.5001 1 12.2501 1 12.2501C1 12.2501 3.75023 4 12.0003 4C20.2504 4 23.0006 12.2501 23.0006 12.2501C23.0006 12.2501 20.2504 20.5001 12.0003 20.5001ZM12.0003 6.75023C10.9125 6.75023 9.84919 7.07278 8.94475 7.67712C8.0403 8.28145 7.33537 9.14041 6.9191 10.1454C6.50283 11.1503 6.39392 12.2562 6.60613 13.323C6.81834 14.3899 7.34215 15.3699 8.11132 16.1391C8.88049 16.9082 9.86047 17.432 10.9273 17.6442C11.9942 17.8565 13.1 17.7475 14.105 17.3313C15.11 16.915 15.9689 16.2101 16.5733 15.3056C17.1776 14.4012 17.5002 13.3378 17.5002 12.2501C17.5 10.7915 16.9205 9.39265 15.8891 8.36127C14.8577 7.32988 13.4589 6.75039 12.0003 6.75023ZM12.0003 15.0003C11.2709 15.0001 10.5715 14.7103 10.0558 14.1946C9.54004 13.6789 9.25023 12.9794 9.25008 12.2501C9.25008 12.2031 9.26091 12.1609 9.26393 12.114C9.4792 12.1972 9.70707 12.2433 9.93778 12.2501C10.4847 12.2499 11.0093 12.0326 11.396 11.6458C11.7828 11.259 12.0001 10.7345 12.0003 10.1876C11.9935 9.95684 11.9475 9.72898 11.8642 9.5137C11.9112 9.5137 11.9533 9.49985 12.0003 9.49985C12.7226 9.51054 13.4117 9.80496 13.9186 10.3195C14.4256 10.8341 14.7098 11.5274 14.7098 12.2498C14.7098 12.9721 14.4256 13.6655 13.9186 14.18C13.4117 14.6946 12.7226 14.9896 12.0003 15.0003Z" fill="#8225DE"/>
</svg>
