<svg width="24" height="24" viewBox="0 0 24 24" fill="none" xmlns="http://www.w3.org/2000/svg">
<path d="M18.6237 22.1929H5.74184C4.93114 22.1915 4.14842 21.8937 3.54262 21.355C2.93682 20.8162 2.5498 20.074 2.45375 19.269L1.00844 7.22412C0.983197 7.02159 1.0149 6.81622 1.09926 6.63037C1.18362 6.44452 1.31788 6.28571 1.48696 6.17139C1.67153 6.04104 1.89186 5.96999 2.11781 5.97021C2.30053 5.97068 2.47982 6.0155 2.64125 6.10107L7.05043 8.42139L11.2506 2.00537C11.3521 1.84958 11.4905 1.72288 11.6539 1.63428C11.8174 1.54567 12.0003 1.49756 12.1862 1.49756C12.3721 1.49756 12.5559 1.54567 12.7194 1.63428C12.8828 1.72288 13.0212 1.84958 13.1227 2.00537L17.3229 8.42139L21.7321 6.10107C21.9134 6.00598 22.1166 5.96214 22.3209 5.97412C22.5253 5.9861 22.7223 6.05381 22.8913 6.16943C23.0591 6.28612 23.1927 6.44764 23.276 6.63428C23.3594 6.82091 23.39 7.02517 23.3649 7.22803L21.9196 19.2671C21.8211 20.0726 21.4318 20.8144 20.8248 21.353C20.2179 21.8917 19.4352 22.1908 18.6237 22.1929ZM8.92348 12.9937C8.7716 12.9937 8.62152 13.0233 8.48207 13.0835C8.34262 13.1437 8.21718 13.2328 8.11293 13.3433C8.0115 13.4491 7.93149 13.5738 7.87856 13.7104C7.82563 13.8471 7.80062 13.9936 7.80434 14.1401C7.80806 14.2867 7.84025 14.4301 7.90004 14.564C7.95984 14.6978 8.0463 14.8189 8.15297 14.9194L10.6217 17.269C11.0428 17.6679 11.6003 17.8901 12.1803 17.8901C12.7603 17.8901 13.3188 17.6679 13.7399 17.269L16.2145 14.9194C16.3762 14.7654 16.4884 14.5654 16.5358 14.3472C16.5832 14.129 16.5634 13.902 16.4801 13.6948C16.3969 13.4876 16.2532 13.3098 16.068 13.1851C15.8828 13.0603 15.6653 12.995 15.442 12.9956C15.1569 12.9942 14.8813 13.1003 14.6725 13.2944L12.1637 15.644L9.6891 13.2944C9.48278 13.1002 9.20878 12.9933 8.92543 12.9956L8.92348 12.9937Z" fill="url(#paint0_linear_163_2031)"/>
<defs>
<linearGradient id="paint0_linear_163_2031" x1="19.9726" y1="22.1929" x2="5.28125" y2="0.405961" gradientUnits="userSpaceOnUse">
<stop stop-color="#27C9B7"/>
<stop offset="1" stop-color="#6AFFED"/>
</linearGradient>
</defs>
</svg>
