<svg width="24" height="24" viewBox="0 0 24 24" fill="none" xmlns="http://www.w3.org/2000/svg">
<g clip-path="url(#clip0_322_10201)">
<path d="M12.0007 23.9968C10.6045 23.9934 9.22377 23.7039 7.94376 23.1462C6.66375 22.5885 5.5116 21.7745 4.55839 20.7542C2.83791 19.0196 1.82743 16.7048 1.7251 14.2638C1.7251 10.9757 3.14968 8.87745 5.28814 6.73794C8.43871 3.58736 8.89983 1.95338 8.89454 1.25854L8.88395 0L10.1256 0.21152C11.7287 0.566425 13.1563 1.47299 14.1592 2.77302C14.9385 3.7307 15.5058 4.84271 15.8239 6.03569L15.8482 4.0379L17.515 5.28797C19.0177 6.41049 20.2428 7.86281 21.096 9.53316C21.8525 10.9977 22.2567 12.6187 22.2763 14.267C22.2144 16.7504 21.1969 19.1143 19.4356 20.8663C17.7425 22.6172 15.4822 23.7091 13.0583 23.9471V24L12.0007 23.9968ZM11.8738 21.8816H12.0007C14.0775 21.8995 16.0819 21.1196 17.6003 19.7026C19.1188 18.2857 20.0354 16.34 20.1611 14.267C20.0846 11.8837 19.0868 9.62304 17.3775 7.96052C16.8953 8.64771 16.2049 9.16162 15.4083 9.42634L14.0154 9.89062V8.41951C14.0347 6.85041 13.5054 5.32383 12.5189 4.10346C12.0407 3.50733 11.449 3.01198 10.7781 2.6461C9.88486 4.78556 8.51929 6.69527 6.78358 8.23231C4.63772 10.3782 3.84029 12.0132 3.84029 14.2606C3.94919 16.1564 4.74956 17.9464 6.08979 19.2916C6.83195 20.0889 7.72675 20.7289 8.72108 21.1737C9.7154 21.6184 10.789 21.8588 11.878 21.8806L11.8738 21.8816ZM12.0007 17.3065C11.1771 17.3056 10.3876 16.9781 9.80523 16.3958C9.2229 15.8134 8.89538 15.0239 8.89454 14.2003C8.89454 13.1332 9.64119 11.8736 11.2456 10.2407L12.0007 9.47182L12.7558 10.2407C14.3602 11.8757 15.1068 13.1332 15.1068 14.2003C15.1057 15.0237 14.7781 15.813 14.1958 16.3951C13.6135 16.9772 12.8241 17.3056 12.0007 17.3065ZM12.0007 12.5473C11.0436 13.6758 11.0097 14.1453 11.0097 14.2035C11.0097 14.4663 11.1141 14.7184 11.3 14.9042C11.4858 15.0901 11.7379 15.1945 12.0007 15.1945C12.2635 15.1945 12.5156 15.0901 12.7014 14.9042C12.8872 14.7184 12.9917 14.4663 12.9917 14.2035C12.9917 14.14 12.9578 13.6705 12.0007 12.5431V12.5473Z" fill="#5A5D62"/>
</g>
<defs>
<clipPath id="clip0_322_10201">
<rect width="24" height="24" fill="white"/>
</clipPath>
</defs>
</svg>
