<svg width="24" height="24" viewBox="0 0 24 24" fill="none" xmlns="http://www.w3.org/2000/svg">
<path d="M4.251 2.94604H19.422C21.5893 2.94604 22.673 4.04204 22.673 6.23404V19.385C22.673 21.577 21.5893 22.673 19.422 22.673H4.251C2.08367 22.673 1 21.577 1 19.385V6.23404C1 4.04204 2.08367 2.94604 4.251 2.94604Z" fill="#06A6FF"/>
<path d="M11.9709 17.808C11.9709 18.9624 12.3133 20.0909 12.9547 21.0508C13.596 22.0107 14.5076 22.7588 15.5742 23.2006C16.6408 23.6424 17.8144 23.758 18.9467 23.5328C20.079 23.3076 21.119 22.7517 21.9353 21.9353C22.7517 21.119 23.3076 20.079 23.5328 18.9467C23.758 17.8144 23.6424 16.6408 23.2006 15.5742C22.7588 14.5076 22.0107 13.596 21.0508 12.9547C20.0909 12.3133 18.9624 11.9709 17.808 11.9709C16.2599 11.9709 14.7752 12.5859 13.6805 13.6805C12.5859 14.7752 11.9709 16.2599 11.9709 17.808Z" fill="#33C85D"/>
<path d="M17.3661 14.3889C17.6241 14.3889 17.8716 14.4914 18.0541 14.6739C18.2366 14.8564 18.3391 15.1039 18.3391 15.3619V16.9049L19.5131 18.0789C19.6936 18.2618 19.7944 18.5086 19.7935 18.7656C19.7927 19.0225 19.6902 19.2687 19.5085 19.4504C19.3269 19.6321 19.0807 19.7345 18.8237 19.7354C18.5668 19.7362 18.32 19.6354 18.1371 19.4549L16.6781 17.9959C16.4956 17.8134 16.3931 17.566 16.3931 17.3079V15.3619C16.3931 15.1039 16.4956 14.8564 16.678 14.6739C16.8605 14.4914 17.108 14.3889 17.3661 14.3889Z" fill="white"/>
<path d="M6.84897 1C7.10702 1 7.35451 1.10252 7.53699 1.28499C7.71946 1.46746 7.82199 1.71494 7.82199 1.973V3.919C7.82199 4.17705 7.71946 4.42454 7.53699 4.60702C7.35451 4.78949 7.10702 4.892 6.84897 4.892C6.59091 4.892 6.34342 4.78949 6.16095 4.60702C5.97848 4.42454 5.87598 4.17705 5.87598 3.919V1.973C5.87598 1.71494 5.97848 1.46746 6.16095 1.28499C6.34342 1.10252 6.59091 1 6.84897 1ZM16.577 1C16.835 1 17.0825 1.10252 17.265 1.28499C17.4475 1.46746 17.55 1.71494 17.55 1.973V3.919C17.55 4.17705 17.4475 4.42454 17.265 4.60702C17.0825 4.78949 16.835 4.892 16.577 4.892C16.3189 4.892 16.0714 4.78949 15.8889 4.60702C15.7065 4.42454 15.604 4.17705 15.604 3.919V1.973C15.604 1.71494 15.7065 1.46746 15.8889 1.28499C16.0714 1.10252 16.3189 1 16.577 1Z" fill="#222222"/>
</svg>
