<svg width="24" height="24" viewBox="0 0 24 24" fill="none" xmlns="http://www.w3.org/2000/svg">
<path d="M19.315 19.4641C19.1353 19.9701 18.8032 20.408 18.3645 20.7177C17.9258 21.0274 17.402 21.1937 16.865 21.1937C16.328 21.1937 15.8042 21.0274 15.3655 20.7177C14.9268 20.408 14.5948 19.9701 14.415 19.4641H3.86601C3.6362 19.4641 3.4158 19.3728 3.2533 19.2103C3.0908 19.0478 2.99951 18.8274 2.99951 18.5975C2.99951 18.3677 3.0908 18.1473 3.2533 17.9848C3.4158 17.8223 3.6362 17.731 3.86601 17.731H14.411C14.5908 17.225 14.9228 16.7871 15.3615 16.4774C15.8002 16.1677 16.324 16.0014 16.861 16.0014C17.398 16.0014 17.9218 16.1677 18.3605 16.4774C18.7992 16.7871 19.1312 17.225 19.311 17.731H20.325C20.5548 17.731 20.7752 17.8223 20.9377 17.9848C21.1002 18.1473 21.1915 18.3677 21.1915 18.5975C21.1915 18.8274 21.1002 19.0478 20.9377 19.2103C20.7752 19.3728 20.5548 19.4641 20.325 19.4641H19.315ZM16 18.5971C16 18.7683 16.0508 18.9358 16.146 19.0782C16.2411 19.2206 16.3764 19.3316 16.5346 19.3971C16.6929 19.4627 16.867 19.4798 17.035 19.4464C17.2029 19.413 17.3573 19.3305 17.4784 19.2094C17.5995 19.0883 17.682 18.934 17.7154 18.766C17.7488 18.598 17.7316 18.4239 17.6661 18.2656C17.6005 18.1074 17.4895 17.9722 17.3471 17.877C17.2047 17.7818 17.0373 17.731 16.866 17.731C16.6363 17.731 16.4161 17.8223 16.2537 17.9847C16.0913 18.1471 16 18.3674 16 18.5971ZM14.553 6.46705C14.3733 6.97307 14.0412 7.41102 13.6025 7.72073C13.1638 8.03043 12.64 8.19671 12.103 8.19671C11.566 8.19671 11.0422 8.03043 10.6035 7.72073C10.1648 7.41102 9.83277 6.97307 9.65301 6.46705H3.87301C3.6432 6.46705 3.4228 6.37576 3.2603 6.21326C3.0978 6.05076 3.00651 5.83036 3.00651 5.60055C3.00651 5.37074 3.0978 5.15035 3.2603 4.98785C3.4228 4.82535 3.6432 4.73405 3.87301 4.73405H9.65301C9.83277 4.22804 10.1648 3.79009 10.6035 3.48038C11.0422 3.17067 11.566 3.00439 12.103 3.00439C12.64 3.00439 13.1638 3.17067 13.6025 3.48038C14.0412 3.79009 14.3733 4.22804 14.553 4.73405H20.332C20.5618 4.73405 20.7822 4.82535 20.9447 4.98785C21.1072 5.15035 21.1985 5.37074 21.1985 5.60055C21.1985 5.83036 21.1072 6.05076 20.9447 6.21326C20.7822 6.37576 20.5618 6.46705 20.332 6.46705H14.553ZM11.235 5.60105C11.235 5.77233 11.2858 5.93976 11.381 6.08218C11.4761 6.22459 11.6114 6.33559 11.7696 6.40113C11.9279 6.46668 12.102 6.48382 12.27 6.45041C12.438 6.41699 12.5923 6.33451 12.7134 6.2134C12.8345 6.09229 12.917 5.93798 12.9504 5.77C12.9838 5.60201 12.9666 5.42789 12.9011 5.26965C12.8355 5.1114 12.7245 4.97615 12.5821 4.881C12.4397 4.78584 12.2723 4.73505 12.101 4.73505C11.9869 4.73453 11.8739 4.75654 11.7684 4.79982C11.6628 4.8431 11.5669 4.90681 11.4861 4.98727C11.4052 5.06774 11.3411 5.16339 11.2973 5.26872C11.2535 5.37405 11.231 5.48699 11.231 5.60105H11.235ZM20.335 12.966H9.78401C9.60425 13.4721 9.27222 13.91 8.83353 14.2197C8.39484 14.5294 7.87101 14.6957 7.33401 14.6957C6.79701 14.6957 6.27318 14.5294 5.83449 14.2197C5.3958 13.91 5.06377 13.4721 4.88401 12.966H3.86601C3.6362 12.966 3.4158 12.8748 3.2533 12.7123C3.0908 12.5498 2.99951 12.3294 2.99951 12.0995C2.99951 11.8697 3.0908 11.6493 3.2533 11.4868C3.4158 11.3243 3.6362 11.233 3.86601 11.233H4.88001C5.05977 10.727 5.3918 10.2891 5.83049 9.97938C6.26918 9.66967 6.79301 9.5034 7.33001 9.5034C7.86701 9.5034 8.39083 9.66967 8.82952 9.97938C9.26822 10.2891 9.60025 10.727 9.78001 11.233H20.329C20.5588 11.233 20.7792 11.3243 20.9417 11.4868C21.1042 11.6493 21.1955 11.8697 21.1955 12.0995C21.1955 12.3294 21.1042 12.5498 20.9417 12.7123C20.7792 12.8748 20.5588 12.966 20.329 12.966H20.335ZM6.47201 12.1001C6.47201 12.2713 6.5228 12.4388 6.61796 12.5812C6.71312 12.7236 6.84837 12.8346 7.00661 12.9001C7.16485 12.9657 7.33897 12.9828 7.50696 12.9494C7.67495 12.916 7.82925 12.8335 7.95037 12.7124C8.07148 12.5913 8.15396 12.437 8.18737 12.269C8.22079 12.101 8.20363 11.9269 8.13809 11.7686C8.07254 11.6104 7.96155 11.4752 7.81913 11.38C7.67672 11.2848 7.50929 11.2341 7.33801 11.2341C7.22386 11.2333 7.11069 11.255 7.00499 11.2981C6.8993 11.3413 6.80316 11.4048 6.72213 11.4852C6.64109 11.5656 6.57674 11.6612 6.53279 11.7666C6.48883 11.8719 6.46614 11.9849 6.46601 12.0991L6.47201 12.1001Z" fill="#262B33"/>
</svg>
