<svg width="24" height="24" viewBox="0 0 24 24" fill="none" xmlns="http://www.w3.org/2000/svg">
<path d="M12 22.8C17.9646 22.8 22.8 17.9646 22.8 12C22.8 6.03528 17.9646 1.19995 12 1.19995C6.03528 1.19995 1.19995 6.03528 1.19995 12C1.19995 17.9646 6.03528 22.8 12 22.8Z" fill="url(#paint0_linear_60_888)"/>
<path d="M16.0295 11.0198H7.97032C7.83543 11.019 7.70367 10.9791 7.59094 10.905C7.47821 10.8309 7.38933 10.7258 7.33503 10.6023C7.27842 10.4785 7.26027 10.3405 7.28292 10.2062C7.30557 10.0719 7.36798 9.94749 7.46209 9.84905L9.51318 7.82519C9.57694 7.76083 9.65275 7.70966 9.73629 7.6746C9.81983 7.63954 9.90946 7.62128 10.0001 7.62086C10.0906 7.62044 10.1804 7.63786 10.2643 7.67214C10.3482 7.70642 10.4244 7.75689 10.4888 7.82065C10.5532 7.88441 10.6043 7.96023 10.6394 8.04376C10.6745 8.1273 10.6927 8.21693 10.6931 8.30752C10.6936 8.39812 10.6761 8.48791 10.6419 8.57177C10.6076 8.65563 10.5571 8.73192 10.4933 8.79628L9.64024 9.64939H15.9932C16.0898 9.63825 16.1877 9.64767 16.2804 9.67702C16.3731 9.70637 16.4585 9.755 16.5311 9.8197C16.6037 9.88441 16.6618 9.96373 16.7016 10.0525C16.7414 10.1412 16.7619 10.2374 16.7619 10.3346C16.7619 10.4318 16.7414 10.528 16.7016 10.6167C16.6618 10.7055 16.6037 10.7848 16.5311 10.8495C16.4585 10.9142 16.3731 10.9628 16.2804 10.9922C16.1877 11.0215 16.0898 11.0309 15.9932 11.0198H16.0295Z" fill="#FCFCFC"/>
<path d="M13.9964 16.3837C13.905 16.3832 13.8146 16.3644 13.7304 16.3286C13.6463 16.2927 13.5701 16.2405 13.5064 16.175C13.3805 16.0447 13.3101 15.8706 13.3101 15.6894C13.3101 15.5083 13.3805 15.3342 13.5064 15.2039L14.3595 14.3508H8.00653C7.90993 14.3619 7.81206 14.3525 7.71935 14.3232C7.62664 14.2938 7.54118 14.2452 7.46859 14.1805C7.396 14.1158 7.33791 14.0364 7.29813 13.9477C7.25836 13.859 7.23779 13.7628 7.23779 13.6656C7.23779 13.5683 7.25836 13.4722 7.29813 13.3834C7.33791 13.2947 7.396 13.2154 7.46859 13.1507C7.54118 13.086 7.62664 13.0374 7.71935 13.008C7.81206 12.9786 7.90993 12.9692 8.00653 12.9804H16.0657C16.2006 12.9812 16.3323 13.0211 16.4451 13.0952C16.5578 13.1692 16.6467 13.2744 16.701 13.3978C16.7542 13.5243 16.7679 13.6639 16.7404 13.7984C16.7129 13.9328 16.6453 14.0557 16.5467 14.1511L14.4865 16.175C14.3566 16.3057 14.1808 16.3806 13.9964 16.3837Z" fill="#FCFCFC"/>
<defs>
<linearGradient id="paint0_linear_60_888" x1="4.36735" y1="4.36735" x2="19.6326" y2="19.6326" gradientUnits="userSpaceOnUse">
<stop stop-color="#67E8EC"/>
<stop offset="1" stop-color="#69D2F3"/>
</linearGradient>
</defs>
</svg>
