<svg width="24" height="24" viewBox="0 0 24 24" fill="none" xmlns="http://www.w3.org/2000/svg">
<path d="M2.80005 10.2616C2.80005 5.27058 6.4727 1.5 11.9801 1.5C17.4874 1.5 21.1601 5.27058 21.1601 10.2616C21.1601 15.2526 15.0384 22.5 11.9792 22.5C8.92005 22.5 2.80005 15.2542 2.80005 10.2616ZM11.9801 12.6701C12.5853 12.6701 13.1769 12.4906 13.6801 12.1544C14.1833 11.8182 14.5755 11.3403 14.8071 10.7811C15.0387 10.222 15.0993 9.60671 14.9813 9.01313C14.8632 8.41955 14.5718 7.87431 14.1438 7.44636C13.7159 7.01841 13.1706 6.72697 12.577 6.6089C11.9835 6.49083 11.3682 6.55143 10.809 6.78303C10.2499 7.01464 9.772 7.40684 9.43576 7.91006C9.09952 8.41327 8.92005 9.0049 8.92005 9.61011C8.92005 10.4215 9.24234 11.1997 9.81603 11.7736C10.3897 12.3474 11.1678 12.6699 11.9792 12.6701H11.9801Z" fill="#FF6E69"/>
<path d="M8.91992 9.61201C8.91992 10.2172 9.09938 10.8088 9.43562 11.3121C9.77186 11.8153 10.2498 12.2075 10.8089 12.4391C11.3681 12.6707 11.9833 12.7313 12.5769 12.6132C13.1705 12.4951 13.7157 12.2037 14.1437 11.7757C14.5716 11.3478 14.8631 10.8026 14.9811 10.209C15.0992 9.61541 15.0386 9.00014 14.807 8.44099C14.5754 7.88185 14.1832 7.40394 13.68 7.0677C13.1768 6.73146 12.5851 6.552 11.9799 6.552C11.1684 6.552 10.39 6.87439 9.81617 7.44825C9.24231 8.02211 8.91992 8.80045 8.91992 9.61201Z" fill="white"/>
</svg>
