<svg width="24" height="24" viewBox="0 0 24 24" fill="none" xmlns="http://www.w3.org/2000/svg">
<path d="M14.5032 11.3105C14.0142 11.3088 13.5458 11.1142 13.2003 10.7691C12.8548 10.424 12.6603 9.95647 12.6592 9.46873V5.8418C12.6603 5.35406 12.8548 4.88656 13.2003 4.54146C13.5458 4.19635 14.0142 4.00169 14.5032 4H18.1384C18.4065 4.00053 18.6717 4.05622 18.9172 4.1636C19.1628 4.27097 19.3835 4.42772 19.5656 4.62404C19.7188 4.78645 19.8362 4.97908 19.9102 5.18951C19.9842 5.39994 20.0131 5.6235 19.9952 5.84579V9.46953C19.9944 9.95795 19.7995 10.4261 19.4532 10.7715C19.107 11.1169 18.6376 11.3113 18.148 11.3121L14.5032 11.3105ZM14.7048 5.07731C14.4623 5.09469 14.2354 5.2032 14.07 5.38094C13.9046 5.55867 13.813 5.79239 13.8136 6.03491V9.37696C13.8268 9.61339 13.9334 9.83498 14.11 9.99321C14.2866 10.1514 14.5189 10.2334 14.756 10.2212H18.0264C18.2571 10.226 18.4805 10.1402 18.6484 9.98228C18.8162 9.82436 18.9152 9.60698 18.924 9.37696V6.02534C18.9127 5.775 18.8079 5.53794 18.6303 5.36074C18.4526 5.18355 18.215 5.07903 17.964 5.06773L14.7048 5.07731ZM5.8464 11.3105C5.35683 11.3097 4.88756 11.1153 4.54145 10.7699C4.19534 10.4245 4.00063 9.95628 4 9.46793V5.8418C4.00085 5.35358 4.19565 4.8856 4.54173 4.54038C4.88782 4.19516 5.35696 4.00084 5.8464 4H9.4792C9.74773 4.0002 10.0133 4.05574 10.2593 4.16312C10.5053 4.2705 10.7264 4.42742 10.9088 4.62404C11.0597 4.78752 11.1747 4.98063 11.2465 5.19102C11.3183 5.4014 11.3452 5.62442 11.3256 5.84579V9.46953C11.3248 9.95795 11.1299 10.4261 10.7836 10.7715C10.4374 11.1169 9.96805 11.3113 9.4784 11.3121L5.8464 11.3105ZM6.048 5.07731C5.8055 5.09469 5.57864 5.2032 5.41323 5.38094C5.24782 5.55867 5.15617 5.79239 5.1568 6.03491V9.37696C5.16941 9.61382 5.27574 9.83601 5.45242 9.99475C5.62911 10.1535 5.86172 10.2358 6.0992 10.2236H9.3696C9.60031 10.2284 9.82367 10.1426 9.99156 9.98467C10.1595 9.82675 10.2584 9.60937 10.2672 9.37935V6.02773C10.2559 5.77739 10.1511 5.54033 9.97345 5.36314C9.79582 5.18594 9.55816 5.08142 9.3072 5.07012L6.0496 5.08289L6.048 5.07731ZM5.8464 20C5.35689 19.9989 4.88774 19.8045 4.54168 19.4591C4.19562 19.1138 4.00085 18.6457 4 18.1574V14.5345C4.00021 14.0458 4.19473 13.5772 4.54089 13.2315C4.88704 12.8858 5.35655 12.6911 5.8464 12.6903H9.4792C9.74768 12.6903 10.0133 12.7456 10.2593 12.8529C10.5053 12.9601 10.7264 13.117 10.9088 13.3135C11.0597 13.477 11.1747 13.6701 11.2465 13.8805C11.3183 14.0909 11.3452 14.3139 11.3256 14.5353V18.1582C11.3248 18.6466 11.1298 19.1147 10.7836 19.4599C10.4373 19.8051 9.96797 19.9994 9.4784 20H5.8464ZM6.048 13.7668C5.8055 13.7842 5.57864 13.8927 5.41323 14.0704C5.24782 14.2482 5.15617 14.4819 5.1568 14.7244V18.0664C5.16901 18.3036 5.27515 18.5262 5.45188 18.6853C5.62862 18.8443 5.86146 18.9269 6.0992 18.9147H9.3712C9.60298 18.9194 9.82727 18.8328 9.99534 18.6735C10.1634 18.5142 10.2617 18.2952 10.2688 18.064V14.7124C10.2575 14.4621 10.1527 14.225 9.97505 14.0478C9.79742 13.8706 9.55976 13.7661 9.3088 13.7548L6.0512 13.7644L6.048 13.7668ZM14.5024 20C14.0129 19.9981 13.5441 19.8028 13.1986 19.4569C12.8532 19.1109 12.6592 18.6425 12.6592 18.1542V14.5313C12.6603 14.0436 12.8548 13.5762 13.2004 13.2312C13.5459 12.8862 14.0143 12.6918 14.5032 12.6903H18.1384C18.4065 12.6907 18.6716 12.7463 18.9171 12.8535C19.1627 12.9607 19.3834 13.1173 19.5656 13.3135C19.7188 13.4759 19.8362 13.6686 19.9102 13.879C19.9842 14.0894 20.0131 14.313 19.9952 14.5353V18.1582C19.9944 18.6466 19.7994 19.1147 19.4532 19.4599C19.1069 19.8051 18.6376 19.9994 18.148 20H14.5024ZM14.704 13.7668C14.4615 13.7842 14.2346 13.8927 14.0692 14.0704C13.9038 14.2482 13.8122 14.4819 13.8128 14.7244V18.0664C13.825 18.3034 13.931 18.5259 14.1076 18.685C14.2842 18.844 14.5168 18.9267 14.7544 18.9147H18.0272C18.259 18.9194 18.4833 18.8328 18.6513 18.6735C18.8194 18.5142 18.9177 18.2952 18.9248 18.064V14.7124C18.9133 14.4621 18.8085 14.2252 18.6309 14.048C18.4533 13.8709 18.2157 13.7663 17.9648 13.7548L14.7072 13.7644L14.704 13.7668Z" fill="white" stroke="white" stroke-width="0.3"/>
</svg>
