<svg width="16" height="16" viewBox="0 0 16 16" fill="none" xmlns="http://www.w3.org/2000/svg">
<g clip-path="url(#clip0_17_182)">
<path fill-rule="evenodd" clip-rule="evenodd" d="M3.46978 11.4697C3.17689 11.7626 3.17689 12.2374 3.46978 12.5303C3.76268 12.8232 4.23755 12.8232 4.53044 12.5303L8 9.06077L11.4697 12.5304C11.7626 12.8233 12.2374 12.8233 12.5303 12.5304C12.8232 12.2375 12.8232 11.7627 12.5303 11.4698L9.06066 8.00011L12.5304 4.53033C12.8233 4.23744 12.8233 3.76256 12.5304 3.46967C12.2375 3.17678 11.7627 3.17678 11.4698 3.46967L8 6.93945L4.53033 3.46978C4.23744 3.17689 3.76256 3.17689 3.46967 3.46978C3.17678 3.76268 3.17678 4.23755 3.46967 4.53044L6.93934 8.00011L3.46978 11.4697Z" fill="#FF262E"/>
</g>
<defs>
<clipPath id="clip0_17_182">
<rect width="16" height="16" fill="white"/>
</clipPath>
</defs>
</svg>
