<svg width="20" height="20" viewBox="0 0 20 20" fill="none" xmlns="http://www.w3.org/2000/svg">
<path d="M10.0022 2.00035C6.6626 2.00035 5.68588 2.00035 5.49315 2.01926C4.94684 2.04154 4.41103 2.17649 3.91933 2.41563C3.57484 2.58383 3.26344 2.8127 3.00006 3.09126C2.4913 3.62336 2.16699 4.30486 2.07497 5.03526C1.98629 5.81911 1.96196 6.6089 2.00224 7.39672C2.00224 8.03672 2.00224 8.87235 2.00224 10.0004C2.00224 13.3385 2.00588 14.3145 2.02188 14.5044C2.04477 15.0401 2.17459 15.5658 2.40369 16.0505C2.61697 16.4879 2.92242 16.8739 3.29905 17.182C3.67568 17.49 4.11456 17.7129 4.58551 17.8353C4.96702 17.9268 5.35698 17.9784 5.74915 17.9894C5.94697 17.9982 7.9666 18.004 9.98697 18.004C12.0073 18.004 14.0277 18.004 14.2212 17.9916C14.627 17.9839 15.0307 17.931 15.4248 17.8338C15.8966 17.7123 16.3363 17.4894 16.7131 17.1805C17.09 16.8716 17.3949 16.4843 17.6066 16.0454C17.832 15.5701 17.9604 15.0546 17.9841 14.5291C17.995 14.3909 17.9993 12.1931 17.9993 9.99817C17.9993 7.80326 17.9942 5.60908 17.9833 5.4709C17.9605 4.93975 17.8296 4.41883 17.5986 3.93999C17.4299 3.58775 17.1977 3.26969 16.9135 3.00181C16.3803 2.49232 15.6981 2.16686 14.9666 2.07308C14.183 1.9843 13.3935 1.95997 12.6059 2.00035H10.0022Z" fill="url(#paint0_radial_119_1778)"/>
<path d="M10.0022 2.00035C6.6626 2.00035 5.68588 2.00035 5.49315 2.01926C4.94684 2.04154 4.41103 2.17649 3.91933 2.41563C3.57484 2.58383 3.26344 2.8127 3.00006 3.09126C2.4913 3.62336 2.16699 4.30486 2.07497 5.03526C1.98629 5.81911 1.96196 6.6089 2.00224 7.39672C2.00224 8.03672 2.00224 8.87235 2.00224 10.0004C2.00224 13.3385 2.00588 14.3145 2.02188 14.5044C2.04477 15.0401 2.17459 15.5658 2.40369 16.0505C2.61697 16.4879 2.92242 16.8739 3.29905 17.182C3.67568 17.49 4.11456 17.7129 4.58551 17.8353C4.96702 17.9268 5.35698 17.9784 5.74915 17.9894C5.94697 17.9982 7.9666 18.004 9.98697 18.004C12.0073 18.004 14.0277 18.004 14.2212 17.9916C14.627 17.9839 15.0307 17.931 15.4248 17.8338C15.8966 17.7123 16.3363 17.4894 16.7131 17.1805C17.09 16.8716 17.3949 16.4843 17.6066 16.0454C17.832 15.5701 17.9604 15.0546 17.9841 14.5291C17.995 14.3909 17.9993 12.1931 17.9993 9.99817C17.9993 7.80326 17.9942 5.60908 17.9833 5.4709C17.9605 4.93975 17.8296 4.41883 17.5986 3.93999C17.4299 3.58775 17.1977 3.26969 16.9135 3.00181C16.3803 2.49232 15.6981 2.16686 14.9666 2.07308C14.183 1.9843 13.3935 1.95997 12.6059 2.00035H10.0022Z" fill="url(#paint1_radial_119_1778)"/>
<path d="M9.99871 4.09277C8.39434 4.09277 8.19362 4.10005 7.56307 4.12841C7.07319 4.13811 6.5885 4.23082 6.12962 4.40259C5.73728 4.55426 5.38094 4.78617 5.08338 5.08348C4.78583 5.38078 4.55362 5.73693 4.40162 6.12914C4.22945 6.58816 4.13673 7.07316 4.12743 7.56332C4.09907 8.19386 4.0918 8.39532 4.0918 9.99968C4.0918 11.604 4.09907 11.8048 4.12743 12.4353C4.13724 12.9254 4.22994 13.4103 4.40162 13.8695C4.5532 14.2621 4.78506 14.6186 5.08236 14.9165C5.37966 15.2143 5.73586 15.4467 6.12816 15.599C6.58729 15.7707 7.07222 15.8634 7.56234 15.8731C8.19216 15.9015 8.39362 15.9088 9.99725 15.9088C11.6009 15.9088 11.8023 15.9015 12.4322 15.8731C12.9223 15.8634 13.4072 15.7707 13.8663 15.599C14.2586 15.4467 14.6148 15.2143 14.9122 14.9167C15.2096 14.619 15.4417 14.2626 15.5936 13.8702C15.7646 13.4109 15.8573 12.9261 15.8678 12.436C15.8962 11.8055 15.9034 11.6048 15.9034 10.0004C15.9034 8.39605 15.8962 8.19459 15.8678 7.56405C15.8573 7.07401 15.7646 6.58921 15.5936 6.12986C15.4417 5.73741 15.2096 5.381 14.912 5.08344C14.6145 4.78588 14.2581 4.55374 13.8656 4.40186C13.4062 4.23018 12.9211 4.13747 12.4307 4.12768C11.8009 4.10005 11.6016 4.09277 9.99725 4.09277H9.99871ZM9.46852 5.1575H9.99871C11.5754 5.1575 11.7623 5.16332 12.3856 5.19168C12.7601 5.1963 13.1311 5.26518 13.4823 5.39532C13.737 5.49372 13.9683 5.64434 14.1614 5.83748C14.3544 6.03062 14.5048 6.26201 14.6031 6.51677C14.7333 6.86796 14.8022 7.23895 14.8067 7.6135C14.8351 8.23605 14.8409 8.42368 14.8409 10.0004C14.8409 11.5771 14.8351 11.764 14.8067 12.3873C14.8022 12.7619 14.7333 13.1328 14.6031 13.484C14.5046 13.7386 14.3541 13.9698 14.1611 14.1628C13.9681 14.3558 13.7369 14.5063 13.4823 14.6048C13.1312 14.7352 12.7602 14.8041 12.3856 14.8084C11.7631 14.8368 11.5762 14.8426 9.99871 14.8426C8.42125 14.8426 8.23434 14.8368 7.6118 14.8084C7.23726 14.8038 6.8663 14.7349 6.51507 14.6048C6.2603 14.5065 6.02891 14.3561 5.83577 14.1631C5.64263 13.97 5.49202 13.7388 5.39362 13.484C5.26334 13.1329 5.19445 12.7619 5.18998 12.3873C5.16162 11.7648 5.1558 11.5771 5.1558 9.99968C5.1558 8.42223 5.16162 8.23605 5.18998 7.61277C5.1946 7.23824 5.26348 6.86728 5.39362 6.51605C5.49197 6.26123 5.64256 6.02982 5.8357 5.83668C6.02884 5.64354 6.26026 5.49295 6.51507 5.39459C6.86624 5.26424 7.23724 5.19536 7.6118 5.19096C8.15652 5.16623 8.36816 5.15896 9.46852 5.1575ZM13.1514 6.13859C13.0112 6.13859 12.8741 6.18018 12.7575 6.2581C12.6409 6.33601 12.55 6.44676 12.4963 6.57633C12.4426 6.7059 12.4286 6.84847 12.456 6.98602C12.4833 7.12357 12.5509 7.24992 12.65 7.34909C12.7492 7.44825 12.8755 7.51579 13.0131 7.54315C13.1506 7.57051 13.2932 7.55647 13.4228 7.5028C13.5524 7.44913 13.6631 7.35824 13.741 7.24163C13.8189 7.12502 13.8605 6.98793 13.8605 6.84768C13.8605 6.75456 13.8422 6.66236 13.8065 6.57633C13.7709 6.49029 13.7187 6.41213 13.6528 6.34628C13.587 6.28044 13.5088 6.2282 13.4228 6.19257C13.3368 6.15693 13.2446 6.13859 13.1514 6.13859ZM9.99871 6.96696C9.39875 6.96681 8.81222 7.14458 8.31329 7.47778C7.81436 7.81098 7.42544 8.28465 7.19571 8.83889C6.96598 9.39312 6.90576 10.003 7.02267 10.5915C7.13957 11.18 7.42835 11.7205 7.85249 12.1449C8.27662 12.5692 8.81706 12.8582 9.40547 12.9754C9.99387 13.0926 10.6038 13.0327 11.1582 12.8032C11.7125 12.5738 12.1864 12.1851 12.5198 11.6863C12.8532 11.1875 13.0313 10.6011 13.0314 10.0011C13.0315 9.60278 12.9532 9.2083 12.8008 8.84023C12.6484 8.47216 12.4251 8.1377 12.1435 7.85595C11.8619 7.5742 11.5275 7.35067 11.1595 7.19814C10.7915 7.04561 10.3971 6.96705 9.99871 6.96696ZM9.99871 8.03168C10.3883 8.03154 10.7691 8.14692 11.0931 8.36324C11.417 8.57956 11.6696 8.8871 11.8188 9.24696C11.9679 9.60681 12.007 10.0028 11.9311 10.3849C11.8552 10.767 11.6677 11.118 11.3923 11.3935C11.1169 11.669 10.766 11.8566 10.3839 11.9327C10.0019 12.0087 9.60584 11.9698 9.24592 11.8207C8.88601 11.6717 8.57838 11.4193 8.36194 11.0954C8.1455 10.7715 8.02998 10.3907 8.02998 10.0011C8.02998 9.47893 8.23737 8.9781 8.60656 8.60878C8.97575 8.23946 9.4765 8.03188 9.99871 8.03168Z" fill="white"/>
<defs>
<radialGradient id="paint0_radial_119_1778" cx="0" cy="0" r="1" gradientUnits="userSpaceOnUse" gradientTransform="translate(15.9108 1.87968) rotate(-90) scale(15.8718 14.7669)">
<stop stop-color="#FFDD55"/>
<stop offset="0.1" stop-color="#FFDD55"/>
<stop offset="0.5" stop-color="#FF543E"/>
<stop offset="1" stop-color="#C837AB"/>
</radialGradient>
<radialGradient id="paint1_radial_119_1778" cx="0" cy="0" r="1" gradientUnits="userSpaceOnUse" gradientTransform="translate(8.25484 -0.0451537) rotate(78.7013) scale(7.09781 29.2591)">
<stop stop-color="#3771C8"/>
<stop offset="0.128" stop-color="#3771C8"/>
<stop offset="1" stop-color="#6600FF" stop-opacity="0"/>
</radialGradient>
</defs>
</svg>
