<svg width="24" height="24" viewBox="0 0 24 24" fill="none" xmlns="http://www.w3.org/2000/svg">
<path d="M19.9988 2C20.7944 2 21.5575 2.31608 22.1201 2.8787C22.6827 3.44131 22.9988 4.20439 22.9988 5.00005V6.99977H21.0009V19C21.0009 19.7956 20.6848 20.5587 20.1222 21.1213C19.5596 21.6839 18.7965 22 18.0009 22H4.00005C3.20439 22 2.44131 21.6839 1.87869 21.1213C1.31607 20.5587 1 19.7956 1 19V17.0002H16.9987V19C16.9988 19.2449 17.0888 19.4813 17.2515 19.6643C17.4143 19.8473 17.6385 19.9642 17.8818 19.9929L17.999 20.0003C18.244 20.0004 18.4805 19.9105 18.6636 19.7477C18.8466 19.5849 18.9635 19.3605 18.992 19.1172L18.9994 19V14.9987H3.00064V5.00005C3.00064 4.20439 3.31672 3.44131 3.87934 2.8787C4.44195 2.31608 5.20502 2 6.00069 2H19.9988Z" fill="#9746E8"/>
</svg>
