<svg width="24" height="24" viewBox="0 0 24 24" fill="none" xmlns="http://www.w3.org/2000/svg">
<path d="M18.6057 7.50098L16.7466 8.9489L17.8211 11.0431L19.6792 9.59419L18.6057 7.50098Z" fill="#989DAB"/>
<path d="M9.54908 9.35712C9.19153 9.04679 8.82563 8.7027 8.47399 8.38455C8.30903 8.2319 8.15355 8.0694 8.00839 7.89795C7.92735 7.80344 7.71943 7.5415 7.71943 7.5415C7.71943 7.5415 7.51153 7.8034 7.43047 7.89795C7.28531 8.0694 7.12983 8.2319 6.96487 8.38455C6.61323 8.7027 6.24733 9.04677 5.88978 9.35712C5.60235 9.55656 5.3699 9.82483 5.21383 10.1372C5.05776 10.4497 4.98309 10.7962 4.99669 11.1449C5.04279 11.4269 5.17889 11.6866 5.38481 11.8854C5.59073 12.0843 5.8555 12.2117 6.13984 12.2488C6.5539 12.2981 6.97346 12.228 7.34878 12.047C7.3221 12.5611 7.17581 13.062 6.92145 13.5102H8.51744C8.2631 13.0621 8.11683 12.5611 8.09017 12.047C8.46546 12.2281 8.88499 12.2981 9.29902 12.2488C9.58336 12.2117 9.84812 12.0843 10.054 11.8854C10.26 11.6866 10.3961 11.4269 10.4422 11.1449C10.4558 10.7962 10.3811 10.4497 10.225 10.1373C10.069 9.82484 9.83652 9.55656 9.54908 9.35712Z" fill="#989DAB"/>
<path d="M22.6369 6.82054L22.6203 6.76706C22.6037 6.71502 22.5871 6.66299 22.5666 6.61583C22.5289 6.52918 22.4862 6.44476 22.4387 6.36299L22.4182 6.32604C22.3851 6.26476 22.3519 6.20399 22.3148 6.14855C22.2718 6.08146 22.2221 6.01776 22.1586 5.93606C22.101 5.86459 22.0424 5.79506 21.979 5.72894C21.9224 5.66961 21.8648 5.61418 21.8043 5.5602C21.7209 5.48814 21.6339 5.4203 21.5437 5.35696C21.49 5.31855 21.4363 5.28013 21.3787 5.24561C21.2768 5.186 21.1716 5.13226 21.0635 5.08466L21.0088 5.0589C20.9707 5.0409 20.9337 5.02291 20.8936 5.00832C20.7194 4.94125 20.5389 4.89141 20.3548 4.85954L14.1049 3.79321C14.0458 3.60427 13.969 3.42128 13.8755 3.24668L13.8433 3.18736C13.8216 3.14264 13.7975 3.09913 13.7711 3.05704C13.7252 2.98654 13.6735 2.92089 13.6032 2.83192C13.5514 2.76627 13.5007 2.70112 13.4441 2.63985C13.3845 2.57566 13.3191 2.51683 13.2547 2.45849C13.1874 2.39774 13.1161 2.33887 13.0419 2.28295C12.9765 2.2353 12.9101 2.1896 12.8408 2.14632C12.747 2.08954 12.6503 2.03777 12.551 1.99121C12.4914 1.96203 12.4329 1.93285 12.3694 1.90806C12.2589 1.86683 12.1462 1.83192 12.0317 1.8035L11.977 1.78796C11.936 1.7758 11.8941 1.76364 11.8511 1.75538C11.6675 1.7194 11.4809 1.70084 11.2937 1.69995H4.1458C3.36485 1.70077 2.61611 2.01018 2.06385 2.5603C1.51158 3.11043 1.2009 3.85635 1.19995 4.63441V16.4165C1.2009 17.1945 1.51158 17.9405 2.06385 18.4906C2.61611 19.0407 3.36485 19.3501 4.1458 19.3509H8.13216C8.32609 19.7937 8.6276 20.1813 9.00948 20.4789C9.39136 20.7765 9.8416 20.9748 10.3196 21.0557L17.364 22.2576C17.5295 22.2857 17.697 22.2999 17.8648 22.2999C18.5597 22.301 19.2325 22.0564 19.7635 21.6097C20.2945 21.1631 20.6493 20.5433 20.7648 19.8605L22.7599 8.24765C22.7959 8.03472 22.8077 7.81845 22.7951 7.6029C22.7798 7.33597 22.7265 7.07256 22.6369 6.82054ZM20.9492 7.69577C20.9541 7.77599 20.9505 7.8565 20.9385 7.93598L18.9424 19.5493C18.9181 19.6907 18.8661 19.826 18.7893 19.9474C18.7126 20.0688 18.6125 20.1739 18.495 20.2568C18.3774 20.3397 18.2446 20.3986 18.1041 20.4303C17.9637 20.462 17.8183 20.4659 17.6764 20.4416L11.281 19.3509H11.2937C12.0747 19.3501 12.8234 19.0407 13.3757 18.4906C13.9279 17.9405 14.2386 17.1945 14.2396 16.4165V5.68517L20.0424 6.67515C20.0965 6.68463 20.1497 6.69828 20.2015 6.71598L20.3362 6.77919C20.3592 6.78836 20.3817 6.79875 20.4036 6.8103L20.4875 6.87011C20.5188 6.89126 20.5487 6.91415 20.5773 6.93868C20.6008 6.9591 20.6222 6.9805 20.6408 6.99942C20.6632 7.02373 20.6847 7.04999 20.7258 7.10007L20.7619 7.14578L20.8848 7.40689C20.9186 7.50002 20.9403 7.59712 20.9492 7.69577ZM12.1117 3.92206L12.2483 4.12142C12.2974 4.2079 12.3348 4.30044 12.3596 4.39664C12.3787 4.47449 12.3889 4.55427 12.3899 4.63441V16.4165C12.3896 16.7061 12.274 16.9837 12.0685 17.1886C11.863 17.3934 11.5844 17.5086 11.2937 17.5091H4.1458C3.85513 17.5086 3.5765 17.3934 3.37101 17.1886C3.16552 16.9837 3.04995 16.7061 3.04965 16.4165V4.63441C3.04995 4.34482 3.16552 4.06716 3.37101 3.86234C3.5765 3.65752 3.85513 3.54226 4.1458 3.54183H11.2937C11.3487 3.54238 11.4035 3.54709 11.4577 3.55593L11.5944 3.59337C11.6266 3.60164 11.6588 3.60893 11.6734 3.61476L11.7661 3.65899C11.801 3.67524 11.8349 3.69342 11.8677 3.71345C11.8924 3.72813 11.9162 3.74437 11.9389 3.76207C11.9662 3.78299 11.9936 3.80583 12.0141 3.82431L12.0453 3.85203C12.0599 3.86515 12.0746 3.8778 12.0873 3.89141L12.1117 3.92206Z" fill="#989DAB"/>
</svg>
