<svg width="24" height="24" viewBox="0 0 24 24" fill="none" xmlns="http://www.w3.org/2000/svg">
<path d="M23.0069 8.6665C22.4306 6.76473 21.3714 5.04473 19.9325 3.67418C18.4936 2.30362 16.7241 1.32927 14.7966 0.846112C12.869 0.362942 10.8492 0.387462 8.93394 0.917262C7.0187 1.44705 5.2734 2.46406 3.8682 3.86914C1.71474 6.0198 0.503263 8.93747 0.500013 11.981C0.497503 13.6342 0.851503 15.2686 1.53788 16.7727C2.22425 18.2768 3.22686 19.6152 4.47737 20.6967C5.72787 21.7782 7.19685 22.5773 8.78419 23.0397C10.3715 23.502 12.0399 23.6166 13.6756 23.3757C15.3112 23.1349 16.8757 22.5442 18.2624 21.6439C19.649 20.7436 20.8253 19.5549 21.7109 18.1588C22.5966 16.7627 23.1708 15.1921 23.3944 13.554C23.6181 11.9159 23.4859 10.2489 23.0069 8.6665Z" fill="url(#paint0_linear_60_930)"/>
<path d="M13.0994 3.25999V2.02429C12.7336 1.98847 12.3672 1.95703 11.9999 1.95703C11.6322 1.95703 11.2657 1.99514 10.8994 2.03103V3.25986C11.6303 3.17545 12.3685 3.17551 13.0994 3.25999Z" fill="white"/>
<path d="M20.1184 8.58224L21.1886 7.96439C21.0367 7.62968 20.8807 7.29662 20.6971 6.97855C20.5132 6.66013 20.297 6.36178 20.0828 6.0625L19.0186 6.67692C19.4571 7.26772 19.8261 7.907 20.1184 8.58224Z" fill="white"/>
<path d="M19.0176 17.3222L20.0877 17.94C20.3016 17.6412 20.5121 17.3395 20.6957 17.0215C20.8796 16.703 21.0298 16.3666 21.1819 16.0314L20.1177 15.417C19.8253 16.0922 19.4562 16.7314 19.0176 17.3222Z" fill="white"/>
<path d="M10.8994 20.739V21.9747C11.2652 22.0105 11.6317 22.042 11.9989 22.042C12.3666 22.042 12.7331 22.0039 13.0994 21.968V20.7392C12.3685 20.8236 11.6303 20.8235 10.8994 20.739Z" fill="white"/>
<path d="M3.8807 15.417L2.81055 16.0349C2.96244 16.3696 3.11842 16.7026 3.30206 17.0207C3.4859 17.3391 3.70216 17.6375 3.91638 17.9367L4.98058 17.3223C4.54202 16.7315 4.173 16.0922 3.8807 15.417Z" fill="white"/>
<path d="M4.98073 6.67742L3.91058 6.05957C3.69666 6.35846 3.48621 6.66008 3.30257 6.97815C3.11873 7.29657 2.96848 7.63303 2.81641 7.9682L3.88061 8.58262C4.17297 7.90742 4.54211 7.26819 4.98073 6.67742Z" fill="white"/>
<path d="M13.3371 9.42623C13.2419 9.295 13.1265 9.17972 12.9951 9.08478H14.1061C14.2062 9.09281 14.3061 9.06716 14.39 9.0119C14.4739 8.95664 14.5369 8.87494 14.5691 8.77978L14.8381 8.09668H9.84613C9.74563 8.09821 9.64843 8.13244 9.56913 8.19418C9.49005 8.25596 9.43291 8.34149 9.4061 8.43817L9.1991 9.17017H10.5901C10.9607 9.14378 11.3324 9.20216 11.6771 9.34088C11.8014 9.40413 11.9092 9.49543 11.9921 9.60753C12.0741 9.72023 12.1292 9.85023 12.1531 9.98743H9.83313C9.73073 9.98643 9.63093 10.0194 9.5493 10.0812C9.46768 10.143 9.40888 10.2301 9.38211 10.3289L9.1991 10.9999H12.0551C11.9872 11.2073 11.8649 11.3926 11.7011 11.5366C11.2265 11.8552 10.6606 12.0094 10.0901 11.9758H9.16211V12.7809L11.7861 15.9038H13.6421L11.2011 12.9639C11.8668 12.8962 12.4923 12.6136 12.9831 12.1587C13.3062 11.8269 13.512 11.3986 13.5691 10.9389H13.9471C14.0446 10.9493 14.1427 10.9259 14.225 10.8726C14.3073 10.8193 14.3688 10.7394 14.3991 10.6461L14.5941 9.98743H13.5561C13.5281 9.78583 13.4531 9.59363 13.3371 9.42623Z" fill="white"/>
<path d="M19.8613 11.2173C19.6727 9.22754 18.7385 7.38274 17.2461 6.05325C15.7726 4.73167 13.8431 4.03449 11.8652 4.10892C10.843 4.11326 9.8307 4.32012 8.88889 4.71754C7.94706 5.11496 7.09332 5.69507 6.37698 6.42435C4.91871 7.91467 4.10194 9.9167 4.10156 12.0018C4.10119 14.0869 4.91724 16.0893 6.37498 17.5801C7.09218 18.3087 7.94641 18.8882 8.88849 19.2854C9.8306 19.6825 10.8419 19.8894 11.8642 19.8941C11.9306 19.8961 11.998 19.897 12.0654 19.897C12.5076 19.897 12.9488 19.857 13.3838 19.7774C15.3416 19.4533 17.0991 18.387 18.291 16.8004C19.4974 15.2028 20.058 13.2096 19.8613 11.2173ZM17.958 13.2754C17.7253 14.4974 17.1353 15.6228 16.2627 16.5093C15.4008 17.3902 14.2934 17.9909 13.085 18.2329C12.6917 18.3136 12.2912 18.3541 11.8897 18.354H11.8682C11.0495 18.3534 10.2395 18.1877 9.48635 17.8667C8.72834 17.5462 8.04204 17.0774 7.46779 16.4878C6.8886 15.8956 6.43167 15.1951 6.12307 14.4263C5.81207 13.6542 5.65451 12.8289 5.6592 11.9966V11.8482C5.67803 11.0666 5.83988 10.2951 6.13674 9.5718C6.44022 8.80375 6.89825 8.10622 7.48244 7.52249C8.05698 6.93788 8.74127 6.47244 9.49607 6.15286C10.2373 5.84475 11.0322 5.68643 11.835 5.68703H11.8848C13.111 5.68627 14.3087 6.05668 15.3203 6.74953C16.3557 7.44787 17.1581 8.44042 17.624 9.5991C18.0953 10.7649 18.2115 12.0439 17.958 13.2754Z" fill="#E5419E"/>
<defs>
<linearGradient id="paint0_linear_60_930" x1="0.50133" y1="0.500977" x2="23.4988" y2="23.4984" gradientUnits="userSpaceOnUse">
<stop stop-color="#FFA5D9"/>
<stop offset="1" stop-color="#FF72BF"/>
</linearGradient>
</defs>
</svg>
