<svg width="16" height="16" viewBox="0 0 16 16" fill="none" xmlns="http://www.w3.org/2000/svg">
<path d="M5.50992 7.52004L7.24992 9.29004C7.44992 9.50004 7.71992 9.61004 8.00992 9.61004C8.29992 9.61004 8.55992 9.50004 8.76992 9.29004L10.5099 7.52004C10.7299 7.29004 10.7299 6.93004 10.5099 6.71004C10.2799 6.49004 9.91992 6.49004 9.69992 6.71004L8.59992 7.83004V2.37004C8.59992 2.05004 8.33992 1.79004 8.01992 1.79004C7.69992 1.79004 7.43992 2.05004 7.43992 2.37004V7.84004L6.33992 6.72004C6.11992 6.49004 5.74992 6.49004 5.52992 6.72004C5.29992 6.94004 5.29992 7.31004 5.52992 7.53004L5.50992 7.52004Z" fill="#00A6FF"/>
<path d="M12.02 2.88989H11.18C10.86 2.88989 10.6 3.14989 10.6 3.46989C10.6 3.78989 10.86 4.04989 11.18 4.04989H12.02C12.36 4.04989 12.64 4.32989 12.64 4.66989V12.1299C12.64 12.4699 12.36 12.7499 12.02 12.7499H3.97995C3.63995 12.7499 3.35995 12.4699 3.35995 12.1299V4.66989C3.35995 4.32989 3.63995 4.04989 3.97995 4.04989H4.81995C5.13995 4.04989 5.39995 3.78989 5.39995 3.46989C5.39995 3.14989 5.13995 2.88989 4.81995 2.88989H3.97995C2.99995 2.88989 2.19995 3.68989 2.19995 4.65989V12.1199C2.19995 13.0999 2.99995 13.8999 3.97995 13.8999H12.03C13.01 13.8999 13.81 13.0999 13.81 12.1199V4.65989C13.81 3.67989 13.01 2.88989 12.03 2.88989H12.02Z" fill="#00A6FF"/>
</svg>
