<svg width="24" height="24" viewBox="0 0 24 24" fill="none" xmlns="http://www.w3.org/2000/svg">
<path d="M21.2217 8.97729C21.5229 8.98403 21.8096 9.10942 22.0203 9.32659C22.231 9.54377 22.349 9.83548 22.349 10.1393C22.349 10.443 22.231 10.7347 22.0203 10.9519C21.8096 11.1691 21.5229 11.2945 21.2217 11.3012V19.4358C21.3752 19.4324 21.5278 19.4599 21.6707 19.5168C21.8135 19.5736 21.9436 19.6587 22.0533 19.7669C22.1631 19.8751 22.2503 20.0044 22.3099 20.1471C22.3694 20.2898 22.4001 20.443 22.4001 20.5978C22.4001 20.7526 22.3694 20.9058 22.3099 21.0485C22.2503 21.1912 22.1631 21.3205 22.0533 21.4287C21.9436 21.5369 21.8135 21.622 21.6707 21.6788C21.5278 21.7357 21.3752 21.7632 21.2217 21.7598H2.77851C2.625 21.7632 2.47236 21.7357 2.32954 21.6788C2.18673 21.622 2.05662 21.5369 1.94685 21.4287C1.83708 21.3205 1.74986 21.1912 1.69032 21.0485C1.63077 20.9058 1.6001 20.7526 1.6001 20.5978C1.6001 20.443 1.63077 20.2898 1.69032 20.1471C1.74986 20.0044 1.83708 19.8751 1.94685 19.7669C2.05662 19.6587 2.18673 19.5736 2.32954 19.5168C2.47236 19.4599 2.625 19.4324 2.77851 19.4358V11.3012C2.47726 11.2945 2.19059 11.1691 1.9799 10.9519C1.76921 10.7347 1.65123 10.443 1.65123 10.1393C1.65123 9.83548 1.76921 9.54377 1.9799 9.32659C2.19059 9.10942 2.47726 8.98403 2.77851 8.97729H21.2217ZM12.0001 12.4646C11.6943 12.4646 11.4011 12.5871 11.1849 12.805C10.9687 13.023 10.8473 13.3186 10.8473 13.6269V17.1142C10.8439 17.2689 10.8711 17.4228 10.9275 17.5668C10.9839 17.7108 11.0683 17.842 11.1756 17.9526C11.283 18.0633 11.4112 18.1512 11.5527 18.2113C11.6943 18.2713 11.8463 18.3022 11.9998 18.3022C12.1534 18.3022 12.3054 18.2713 12.4469 18.2113C12.5884 18.1512 12.7166 18.0633 12.824 17.9526C12.9313 17.842 13.0157 17.7108 13.0721 17.5668C13.1285 17.4228 13.1558 17.2689 13.1524 17.1142V13.6269C13.1524 13.3187 13.031 13.0232 12.8149 12.8052C12.5988 12.5873 12.3058 12.4648 12.0001 12.4646ZM16.6109 12.4646C16.3051 12.4646 16.0119 12.5871 15.7957 12.805C15.5795 13.023 15.4581 13.3186 15.4581 13.6269V17.1142C15.4546 17.2689 15.4819 17.4228 15.5383 17.5668C15.5947 17.7108 15.6791 17.842 15.7864 17.9526C15.8938 18.0633 16.022 18.1512 16.1635 18.2113C16.3051 18.2713 16.4571 18.3022 16.6106 18.3022C16.7642 18.3022 16.9162 18.2713 17.0577 18.2113C17.1992 18.1512 17.3274 18.0633 17.4348 17.9526C17.5421 17.842 17.6265 17.7108 17.6829 17.5668C17.7393 17.4228 17.7666 17.2689 17.7632 17.1142V13.6269C17.7632 13.3187 17.6418 13.0232 17.4257 12.8052C17.2096 12.5873 16.9165 12.4648 16.6109 12.4646ZM7.3893 12.4646C7.08355 12.4646 6.79032 12.5871 6.57412 12.805C6.35792 13.023 6.23646 13.3186 6.23646 13.6269V17.1142C6.23306 17.2689 6.26035 17.4228 6.31674 17.5668C6.37313 17.7108 6.45748 17.842 6.56485 17.9526C6.67221 18.0633 6.80042 18.1512 6.94195 18.2113C7.08348 18.2713 7.23547 18.3022 7.38902 18.3022C7.54256 18.3022 7.69456 18.2713 7.83609 18.2113C7.97762 18.1512 8.10583 18.0633 8.21319 17.9526C8.32055 17.842 8.4049 17.7108 8.4613 17.5668C8.51769 17.4228 8.54498 17.2689 8.54158 17.1142V13.6269C8.54158 13.3187 8.42019 13.0232 8.20412 12.8052C7.98804 12.5873 7.69495 12.4648 7.3893 12.4646Z" fill="url(#paint0_linear_256_4131)"/>
<path d="M4.385 7.8128C4.385 7.8128 3.12158 7.69846 2.87151 7.10619C2.75112 6.82295 2.74723 6.5031 2.86069 6.21697C2.97415 5.93085 3.19568 5.70185 3.47657 5.58034L11.5453 2.09302C11.6888 2.03163 11.8431 2 11.999 2C12.1548 2 12.3091 2.03163 12.4526 2.09302L20.5214 5.58034C20.8023 5.70185 21.0238 5.93085 21.1372 6.21697C21.2507 6.5031 21.2468 6.82295 21.1264 7.10619C20.9399 7.54753 20.066 7.81051 20.066 7.81051H4.385V7.8128Z" fill="url(#paint1_linear_256_4131)"/>
<defs>
<linearGradient id="paint0_linear_256_4131" x1="4.0961" y1="9.60365" x2="10.2506" y2="23.8367" gradientUnits="userSpaceOnUse">
<stop stop-color="#FFC488"/>
<stop offset="1" stop-color="#D5752E"/>
</linearGradient>
<linearGradient id="paint1_linear_256_4131" x1="4.99128" y1="2.28483" x2="6.61526" y2="9.60715" gradientUnits="userSpaceOnUse">
<stop stop-color="#FFC488"/>
<stop offset="1" stop-color="#D5752E"/>
</linearGradient>
</defs>
</svg>
