<svg width="16" height="16" viewBox="0 0 16 16" fill="none" xmlns="http://www.w3.org/2000/svg">
<path d="M2 4.4001C2 3.95827 2.35817 3.6001 2.8 3.6001H13.2C13.6418 3.6001 14 3.95827 14 4.4001C14 4.84193 13.6418 5.2001 13.2 5.2001H2.8C2.35817 5.2001 2 4.84193 2 4.4001Z" fill="#262B33"/>
<path d="M2 8.0002C2 7.55837 2.35817 7.2002 2.8 7.2002H13.2C13.6418 7.2002 14 7.55837 14 8.0002C14 8.44202 13.6418 8.8002 13.2 8.8002H2.8C2.35817 8.8002 2 8.44202 2 8.0002Z" fill="#262B33"/>
<path d="M2 11.5998C2 11.158 2.35817 10.7998 2.8 10.7998H13.2C13.6418 10.7998 14 11.158 14 11.5998C14 12.0416 13.6418 12.3998 13.2 12.3998H2.8C2.35817 12.3998 2 12.0416 2 11.5998Z" fill="#262B33"/>
</svg>
