<svg width="24" height="24" viewBox="0 0 24 24" fill="none" xmlns="http://www.w3.org/2000/svg">
<path d="M7.26141 20.2568H19.3091L22.4522 23.3998V12.3998C22.4506 11.8446 22.2294 11.3125 21.8368 10.9199C21.4441 10.5273 20.9121 10.306 20.3568 10.3044H7.26141C6.70616 10.306 6.17411 10.5273 5.78149 10.9199C5.38887 11.3125 5.16759 11.8446 5.16602 12.3998V18.1614C5.16759 18.7166 5.38887 19.2486 5.78149 19.6413C6.17411 20.0339 6.70616 20.2552 7.26141 20.2568Z" fill="#2F8B64"/>
<path d="M14.4905 16.4858H12.605L12.2381 17.5855H11.0854L13.0196 12.3479H14.0152L15.9537 17.5855H14.801L14.4905 16.4858ZM12.8694 15.648H14.1791L13.5503 13.6575L12.8694 15.648Z" fill="#1B5E20"/>
<path d="M16.6908 12.3999H4.6431L1.5 15.543V3.4953C1.50158 2.94005 1.72284 2.40799 2.11547 2.01537C2.50809 1.62275 3.04015 1.40148 3.5954 1.3999H16.6908C17.2461 1.40148 17.7781 1.62275 18.1707 2.01537C18.5634 2.40799 18.7846 2.94005 18.7862 3.4953V10.3045C18.7846 10.8598 18.5634 11.3918 18.1707 11.7844C17.7781 12.1771 17.2461 12.3983 16.6908 12.3999Z" fill="#4AC374"/>
<path d="M12.71 6.74344C12.7148 7.19345 12.6256 7.6395 12.4481 8.05306C12.3132 8.41067 12.0758 8.72051 11.7655 8.94377L12.6563 9.62632L11.9737 10.2551L10.8211 9.36439C10.7161 9.36439 10.5592 9.41643 10.4022 9.41643C10.0815 9.4154 9.76314 9.3624 9.45944 9.25946C9.18379 9.13348 8.93497 8.95562 8.72655 8.73559C8.50902 8.49482 8.34784 8.20862 8.25474 7.89778C8.14389 7.54196 8.09089 7.17066 8.09776 6.79803V6.58815C8.09089 6.21553 8.14389 5.84422 8.25474 5.48841C8.34782 5.17755 8.509 4.89135 8.72655 4.65059C8.9247 4.41907 9.17624 4.23928 9.45944 4.12674C9.76091 4.01517 10.0808 3.96189 10.4022 3.96975C10.7229 3.97078 11.0412 4.0238 11.3449 4.12674C11.6206 4.2527 11.8694 4.43055 12.0778 4.65059C12.2954 4.89135 12.4565 5.17755 12.5496 5.48841C12.6605 5.84422 12.7135 6.21553 12.7066 6.58815V6.74514L12.71 6.74344ZM11.5574 6.4815C11.5939 6.03945 11.4836 5.5977 11.2434 5.22478C11.1558 5.08465 11.0312 4.97139 10.8834 4.89749C10.7356 4.82358 10.5703 4.79189 10.4056 4.80588C10.2417 4.79749 10.0784 4.83166 9.93156 4.90506C9.78475 4.97847 9.65942 5.08861 9.56778 5.22478C9.34133 5.6035 9.23207 6.04078 9.2538 6.4815V6.74344C9.25924 6.99134 9.29448 7.23768 9.35875 7.47717C9.38666 7.66583 9.45855 7.84528 9.56863 8.00102C9.65013 8.14561 9.78005 8.25679 9.93549 8.31498C10.0862 8.37474 10.2455 8.41017 10.4073 8.41992C10.5712 8.42831 10.7345 8.39414 10.8813 8.32074C11.0281 8.24733 11.1535 8.13719 11.2451 8.00102C11.4779 7.6055 11.5872 7.14946 11.5591 6.69139L11.5574 6.4815Z" fill="white"/>
</svg>
