<svg width="20" height="20" viewBox="0 0 20 20" fill="none" xmlns="http://www.w3.org/2000/svg">
<path d="M14.6635 6.64714H13.0727V5.53435C13.0719 4.91549 12.8256 4.32222 12.388 3.88462C11.9504 3.44701 11.3572 3.2008 10.7383 3.19995H5.33547C4.71642 3.20052 4.12287 3.44661 3.68504 3.88424C3.24721 4.32187 3.00085 4.91531 3 5.53435L3 10.9361C3.00085 11.5552 3.24721 12.1486 3.68504 12.5862C4.12287 13.0239 4.71642 13.27 5.33547 13.2705H6.92623V14.3833C6.92708 15.0024 7.17344 15.5958 7.61127 16.0334C8.04911 16.4711 8.64265 16.7171 9.2617 16.7177H14.6645C15.2836 16.7171 15.8771 16.4711 16.315 16.0334C16.7528 15.5958 16.9992 15.0024 17 14.3833V8.98261C16.9994 8.36338 16.7532 7.76967 16.3153 7.33181C15.8775 6.89394 15.2827 6.6477 14.6635 6.64714ZM15.9352 14.3833C15.9335 14.7206 15.7988 15.0437 15.5602 15.2822C15.3217 15.5208 14.9987 15.6555 14.6613 15.6572H9.26063C8.92329 15.6555 8.60025 15.5208 8.36171 15.2822C8.12318 15.0437 7.98842 14.7206 7.98674 14.3833V13.2695H10.7383C11.3573 13.2689 11.9509 13.0228 12.3887 12.5852C12.8266 12.1475 13.0729 11.5541 13.0738 10.9351V9.38803C13.082 9.31351 13.0744 9.23809 13.0515 9.16669C13.0286 9.0953 12.9909 9.02954 12.9408 8.9737C12.8908 8.91786 12.8295 8.87319 12.7611 8.84261C12.6926 8.81203 12.6185 8.79623 12.5435 8.79623C12.4685 8.79623 12.3944 8.81203 12.3259 8.84261C12.2575 8.87319 12.1962 8.91786 12.1462 8.9737C12.0962 9.02954 12.0585 9.0953 12.0356 9.16669C12.0127 9.23809 12.0051 9.31351 12.0133 9.38803V10.9361C12.0116 11.2736 11.8767 11.5968 11.6379 11.8354C11.3991 12.074 11.0758 12.2086 10.7383 12.21H5.33547C4.99794 12.2086 4.67463 12.074 4.43586 11.8354C4.19709 11.5968 4.06219 11.2736 4.06051 10.9361V5.53435C4.06219 5.19683 4.19709 4.87363 4.43586 4.63506C4.67463 4.39649 4.99794 4.26186 5.33547 4.26046H10.7383C11.0756 4.26214 11.3987 4.3969 11.6372 4.63543C11.8758 4.87397 12.0105 5.19701 12.0122 5.53435V6.64714H9.26063C8.64158 6.64799 8.04815 6.89435 7.61052 7.33218C7.17289 7.77001 6.9268 8.36356 6.92623 8.98261V10.5051C6.9406 10.6357 7.00266 10.7564 7.1005 10.844C7.19835 10.9317 7.32511 10.9802 7.45649 10.9802C7.58786 10.9802 7.71462 10.9317 7.81247 10.844C7.91032 10.7564 7.97237 10.6357 7.98674 10.5051V8.98261C7.98842 8.64527 8.12318 8.32223 8.36171 8.08369C8.60025 7.84515 8.92329 7.7104 9.26063 7.70871H14.6635C15.0004 7.71096 15.3229 7.84596 15.561 8.08443C15.7991 8.32291 15.9335 8.64564 15.9352 8.98261V14.3833Z" fill="#989DAB"/>
</svg>
