<svg width="24" height="24" viewBox="0 0 24 24" fill="none" xmlns="http://www.w3.org/2000/svg">
<path d="M3.7829 2.82528L12.0014 1L20.2171 2.82584C20.4391 2.87524 20.6376 2.99881 20.7799 3.17618C20.9222 3.35355 20.9999 3.57413 21 3.80154V13.787C20.9998 14.7744 20.7559 15.7465 20.2899 16.6171C19.824 17.4877 19.1505 18.2298 18.329 18.7777L12.0014 22.9967L5.6743 18.7783C4.85232 18.2308 4.17817 17.4889 3.71166 16.6184C3.24515 15.7479 3.0007 14.7757 3 13.7881V3.80154C3.00013 3.57413 3.07775 3.35355 3.22007 3.17618C3.3624 2.99881 3.56091 2.87468 3.7829 2.82528ZM12.9988 9.99805V4.99728L7.99799 11.9984H10.9985V16.9991L15.9992 9.99805H12.9988Z" fill="url(#paint0_linear_256_4126)"/>
<defs>
<linearGradient id="paint0_linear_256_4126" x1="3.522" y1="1.76989" x2="21.4558" y2="18.3248" gradientUnits="userSpaceOnUse">
<stop stop-color="#89D6FF"/>
<stop offset="1" stop-color="#1A61C3"/>
</linearGradient>
</defs>
</svg>
