<svg width="20" height="20" viewBox="0 0 20 20" fill="none" xmlns="http://www.w3.org/2000/svg">
<rect x="2" y="2" width="16" height="16" rx="8" fill="#00A6FF"/>
<path d="M5.83168 9.44739C5.52647 9.44739 5.27905 9.69481 5.27905 10C5.27905 10.3052 5.52647 10.5526 5.83168 10.5526L9.44761 10.5526V14.1682C9.44761 14.4734 9.69503 14.7209 10.0002 14.7209C10.3054 14.7209 10.5529 14.4734 10.5529 14.1682V10.5526L14.168 10.5526C14.4732 10.5526 14.7206 10.3052 14.7206 10C14.7206 9.69481 14.4732 9.44739 14.168 9.44739H10.5529L10.5529 5.83192C10.5529 5.52672 10.3054 5.2793 10.0002 5.2793C9.69503 5.2793 9.44761 5.52672 9.44761 5.83192V9.44739L5.83168 9.44739Z" fill="white" stroke="white" stroke-width="0.4" stroke-linecap="round"/>
</svg>
