<svg width="24" height="24" viewBox="0 0 24 24" fill="none" xmlns="http://www.w3.org/2000/svg">
<g clip-path="url(#clip0_32_646)">
<path d="M11.9979 2.41211C13.493 2.4106 14.9678 2.75878 16.3044 3.42883C17.641 4.09888 18.8024 5.07224 19.6958 6.27114C20.5892 7.47005 21.1898 8.86127 21.4496 10.3337C21.7095 11.8061 21.6214 13.3188 21.1924 14.7511C20.7634 16.1834 20.0054 17.4955 18.9789 18.5826C17.9525 19.6698 16.686 20.5018 15.2806 21.0121C13.8753 21.5226 12.3701 21.6972 10.8852 21.5222C9.4003 21.3472 7.97693 20.8273 6.72879 20.0041L3.04261 21.1823L4.23715 17.6194C3.19976 16.1892 2.57801 14.5 2.44063 12.7386C2.30326 10.9771 2.6556 9.21195 3.45872 7.63823C4.26184 6.0645 5.48446 4.74348 6.99144 3.82118C8.49842 2.89889 10.2311 2.41123 11.9979 2.41211Z" fill="#00C500"/>
<path d="M11.9979 1.6626C13.5936 1.66185 15.1677 2.03064 16.597 2.74008C18.0262 3.44952 19.2718 4.48032 20.236 5.75169C21.2002 7.02306 21.8568 8.50046 22.1545 10.0681C22.4522 11.6357 22.3827 13.251 21.9516 14.7873C21.5206 16.3236 20.7395 17.7392 19.6698 18.9232C18.6 20.1071 17.2706 21.0272 15.7858 21.6114C14.3009 22.1956 12.7009 22.4279 11.1113 22.2902C9.52156 22.1526 7.98535 21.6486 6.62302 20.8179L1.8623 22.3386L3.40811 17.7328C2.2637 16.0385 1.65552 14.0391 1.66266 11.9946C1.66641 9.25497 2.75661 6.62867 4.69413 4.69176C6.63166 2.75485 9.2583 1.66548 11.9979 1.6626ZM11.9979 20.8299C13.1583 20.8299 14.3074 20.6013 15.3795 20.1572C16.4515 19.7132 17.4257 19.0623 18.2462 18.2418C19.0667 17.4212 19.7176 16.4471 20.1617 15.375C20.6057 14.303 20.8343 13.1539 20.8343 11.9935C20.8343 10.8331 20.6057 9.68405 20.1617 8.61198C19.7176 7.5399 19.0667 6.56579 18.2462 5.74525C17.4257 4.92472 16.4515 4.27384 15.3795 3.82977C14.3074 3.3857 13.1583 3.15714 11.9979 3.15714C9.65509 3.15945 7.40887 4.09117 5.75223 5.74781C4.09559 7.40445 3.16388 9.65067 3.16157 11.9935C3.15486 13.854 3.7444 15.6678 4.84375 17.1688L5.07175 17.4819L4.22411 20.0073L6.8423 19.1706L7.1423 19.3691C8.5835 20.324 10.2745 20.8322 12.0034 20.8299H11.9979Z" fill="white"/>
<path d="M9.25419 7.6821C9.07092 7.24573 8.92692 7.22828 8.65528 7.21737C8.54983 7.21082 8.44438 7.20719 8.33892 7.20646C7.98522 7.1906 7.63903 7.31173 7.37238 7.54464C7.05723 7.8359 6.80803 8.19121 6.64151 8.58672C6.475 8.98222 6.39501 9.40877 6.40692 9.83773C6.49957 10.8715 6.88901 11.8565 7.52838 12.6741C8.69405 14.4538 10.3184 15.886 12.2302 16.8195C14.4011 17.7163 15.0447 17.6334 15.54 17.5286C15.9283 17.4584 16.2961 17.3027 16.6168 17.0729C16.9375 16.8431 17.2032 16.545 17.3946 16.1999C17.5727 15.788 17.6288 15.3336 17.556 14.8908C17.4884 14.7752 17.3062 14.7086 17.0291 14.5701C16.752 14.4315 15.4004 13.765 15.1451 13.681C15.027 13.6255 14.8924 13.6158 14.7675 13.6537C14.6426 13.6916 14.5362 13.7744 14.4687 13.8861C14.24 14.224 13.9935 14.5496 13.7302 14.8614C13.6432 14.9445 13.5331 14.9995 13.4144 15.0189C13.2956 15.0384 13.1737 15.0215 13.0647 14.9705C12.2473 14.6587 11.4957 14.1962 10.8491 13.6068C10.2503 13.0514 9.73581 12.4116 9.32183 11.7075C9.16038 11.4305 9.30547 11.2712 9.43092 11.1206C9.56947 10.9494 9.70256 10.8272 9.8411 10.6668C9.96576 10.5388 10.0689 10.3914 10.1466 10.2305C10.1809 10.1485 10.1953 10.0596 10.1885 9.97099C10.1816 9.8824 10.1538 9.79671 10.1073 9.721C10.0407 9.58246 9.48547 8.23082 9.25747 7.68319L9.25419 7.6821Z" fill="white"/>
</g>
<defs>
<clipPath id="clip0_32_646">
<rect width="24" height="24" fill="white"/>
</clipPath>
</defs>
</svg>
