<svg width="24" height="24" viewBox="0 0 24 24" fill="none" xmlns="http://www.w3.org/2000/svg">
<path d="M14.7324 13.9102L10.9534 16.9452C10.8759 17.009 10.7856 17.0555 10.6887 17.0818C10.5918 17.108 10.4905 17.1132 10.3914 17.0972C10.2909 17.0794 10.1951 17.0412 10.11 16.985C10.0249 16.9287 9.95217 16.8556 9.89637 16.7702C9.82483 16.6598 9.77921 16.5346 9.76293 16.404C9.74665 16.2734 9.76014 16.1408 9.80238 16.0162C9.76843 15.9236 9.75018 15.8259 9.74838 15.7272V10.7782C9.75237 10.7103 9.76479 10.6431 9.78536 10.5782C9.75424 10.4631 9.74708 10.3428 9.76428 10.2249C9.78148 10.1069 9.82269 9.99366 9.88537 9.89223C9.93756 9.80557 10.0074 9.73089 10.0905 9.67308C10.1735 9.61527 10.2678 9.57564 10.3672 9.55676C10.4665 9.53789 10.5688 9.5402 10.6672 9.56354C10.7656 9.58688 10.858 9.63072 10.9384 9.69221L14.7174 12.5692C14.817 12.6497 14.8977 12.7513 14.9535 12.8666C15.0094 12.9819 15.0391 13.1081 15.0405 13.2362C15.042 13.3643 15.0151 13.4911 14.9618 13.6077C14.9085 13.7242 14.8302 13.8275 14.7324 13.9102ZM18.8324 5.41922H14.3724L15.3184 3.16722C15.4038 2.9713 15.4129 2.75055 15.3441 2.5482C15.2753 2.34586 15.1335 2.17649 14.9464 2.07323C14.8546 2.02972 14.7548 2.00577 14.6533 2.00291C14.5518 2.00006 14.4508 2.01835 14.3568 2.05663C14.2627 2.0949 14.1777 2.15234 14.107 2.22527C14.0364 2.29819 13.9817 2.38501 13.9464 2.48022L12.7024 5.41621H10.7754L9.54037 2.47722C9.50495 2.3821 9.45018 2.29537 9.3795 2.22253C9.30882 2.1497 9.22378 2.09234 9.12977 2.05408C9.03576 2.01582 8.93483 1.9975 8.83337 2.00027C8.73191 2.00305 8.63214 2.02687 8.54037 2.07022C8.35316 2.17367 8.21122 2.34317 8.14225 2.54564C8.07328 2.7481 8.08224 2.969 8.16737 3.16522L9.11337 5.41621H5.20738C4.78936 5.4367 4.39642 5.62169 4.11428 5.9308C3.83214 6.23992 3.6837 6.64808 3.70136 7.06622V19.4392C3.6837 19.8574 3.83214 20.2655 4.11428 20.5746C4.39642 20.8837 4.78936 21.0687 5.20738 21.0892H18.8254C19.2423 21.0672 19.6337 20.8816 19.9146 20.5726C20.1955 20.2637 20.3431 19.8564 20.3254 19.4392V7.06921C20.3433 6.65199 20.1958 6.24457 19.9149 5.93556C19.634 5.62656 19.2424 5.44098 18.8254 5.41922" fill="#F01C1C"/>
</svg>
