<svg width="24" height="24" viewBox="0 0 24 24" fill="none" xmlns="http://www.w3.org/2000/svg">
<path d="M8.24271 4.74758C8.53238 4.74758 8.8102 4.86266 9.01503 5.06749C9.21986 5.27232 9.33493 5.55013 9.33493 5.83981V8.24271C9.33493 8.53239 9.21986 8.8102 9.01503 9.01503C8.8102 9.21986 8.53238 9.33494 8.24271 9.33494H5.83981C5.55013 9.33494 5.27232 9.21986 5.06749 9.01503C4.86266 8.8102 4.74758 8.53239 4.74758 8.24271V5.83981C4.74758 5.55013 4.86266 5.27232 5.06749 5.06749C5.27232 4.86266 5.55013 4.74758 5.83981 4.74758H8.24271ZM8.24271 3.00002H5.83981C5.46648 2.99858 5.09655 3.07104 4.75136 3.21325C4.40617 3.35545 4.09254 3.56457 3.82856 3.82856C3.56457 4.09254 3.35545 4.40617 3.21325 4.75136C3.07104 5.09655 2.99858 5.46648 3.00002 5.83981V8.24271C3.00002 8.99587 3.29921 9.71818 3.83178 10.2507C4.36434 10.7833 5.08665 11.0825 5.83981 11.0825H8.24271C8.99498 11.0796 9.71562 10.7795 10.2476 10.2476C10.7795 9.71562 11.0796 8.99498 11.0825 8.24271V5.83981C11.0825 5.08665 10.7833 4.36434 10.2507 3.83178C9.71818 3.29921 8.99587 3.00002 8.24271 3.00002Z" fill="#5A5D62"/>
<path d="M18.1602 4.74758C18.4498 4.74758 18.7277 4.86266 18.9325 5.06749C19.1373 5.27232 19.2524 5.55013 19.2524 5.83981V8.24271C19.2524 8.53239 19.1373 8.8102 18.9325 9.01503C18.7277 9.21986 18.4498 9.33494 18.1602 9.33494H15.7573C15.4676 9.33494 15.1898 9.21986 14.9849 9.01503C14.7801 8.8102 14.665 8.53239 14.665 8.24271V5.83981C14.665 5.55013 14.7801 5.27232 14.9849 5.06749C15.1898 4.86266 15.4676 4.74758 15.7573 4.74758H18.1602ZM18.1602 3.00002H15.7573C15.0041 3.00002 14.2818 3.29921 13.7492 3.83178C13.2167 4.36434 12.9175 5.08665 12.9175 5.83981V8.24271C12.9204 8.99498 13.2205 9.71562 13.7524 10.2476C14.2844 10.7795 15.005 11.0796 15.7573 11.0825H18.1602C18.5331 11.0825 18.9024 11.009 19.2469 10.8663C19.5914 10.7236 19.9045 10.5144 20.1682 10.2507C20.4319 9.98704 20.6411 9.67399 20.7838 9.32945C20.9265 8.98491 21 8.61564 21 8.24271V5.83981C21.0014 5.46648 20.9289 5.09655 20.7867 4.75136C20.6445 4.40617 20.4354 4.09254 20.1714 3.82856C19.9074 3.56457 19.5938 3.35545 19.2486 3.21325C18.9034 3.07104 18.5335 2.99858 18.1602 3.00002Z" fill="#5A5D62"/>
<path d="M18.1602 14.665C18.4498 14.665 18.7277 14.7801 18.9325 14.9849C19.1373 15.1898 19.2524 15.4676 19.2524 15.7573V18.1602C19.2524 18.4498 19.1373 18.7277 18.9325 18.9325C18.7277 19.1373 18.4498 19.2524 18.1602 19.2524H15.7573C15.4676 19.2524 15.1898 19.1373 14.9849 18.9325C14.7801 18.7277 14.665 18.4498 14.665 18.1602V15.7573C14.665 15.4676 14.7801 15.1898 14.9849 14.9849C15.1898 14.7801 15.4676 14.665 15.7573 14.665H18.1602ZM18.1602 12.9175H15.7573C15.005 12.9204 14.2844 13.2205 13.7524 13.7524C13.2205 14.2844 12.9204 15.005 12.9175 15.7573V18.1602C12.9175 18.5331 12.9909 18.9024 13.1336 19.2469C13.2764 19.5914 13.4855 19.9045 13.7492 20.1682C14.0129 20.4319 14.326 20.6411 14.6705 20.7838C15.0151 20.9265 15.3843 21 15.7573 21H18.1602C18.5335 21.0014 18.9034 20.9289 19.2486 20.7867C19.5938 20.6445 19.9074 20.4354 20.1714 20.1714C20.4354 19.9074 20.6445 19.5938 20.7867 19.2486C20.9289 18.9034 21.0014 18.5335 21 18.1602V15.7573C21 15.3843 20.9265 15.0151 20.7838 14.6705C20.6411 14.326 20.4319 14.0129 20.1682 13.7492C19.9045 13.4855 19.5914 13.2764 19.2469 13.1336C18.9024 12.9909 18.5331 12.9175 18.1602 12.9175Z" fill="#5A5D62"/>
<path d="M8.24269 14.665C8.53236 14.665 8.81018 14.7801 9.01501 14.9849C9.21984 15.1898 9.33492 15.4676 9.33492 15.7573V18.1602C9.33492 18.4498 9.21984 18.7277 9.01501 18.9325C8.81018 19.1373 8.53236 19.2524 8.24269 19.2524H5.83979C5.55011 19.2524 5.2723 19.1373 5.06747 18.9325C4.86264 18.7277 4.74756 18.4498 4.74756 18.1602V15.7573C4.74756 15.4676 4.86264 15.1898 5.06747 14.9849C5.2723 14.7801 5.55011 14.665 5.83979 14.665H8.24269ZM8.24269 12.9175H5.83979C5.08752 12.9204 4.36688 13.2205 3.83493 13.7524C3.30299 14.2844 3.00288 15.005 3 15.7573V18.1602C3 18.5331 3.07345 18.9024 3.21617 19.2469C3.35888 19.5914 3.56806 19.9045 3.83175 20.1682C4.09545 20.4319 4.40851 20.6411 4.75305 20.7838C5.09759 20.9265 5.46686 21 5.83979 21H8.24269C8.61602 21.0014 8.98594 20.9289 9.33113 20.7867C9.67632 20.6445 9.98995 20.4354 10.2539 20.1714C10.5179 19.9074 10.7271 19.5938 10.8693 19.2486C11.0115 18.9034 11.0839 18.5335 11.0825 18.1602V15.7573C11.0825 15.3843 11.009 15.0151 10.8663 14.6705C10.7236 14.326 10.5144 14.0129 10.2507 13.7492C9.98702 13.4855 9.67397 13.2764 9.32943 13.1336C8.98489 12.9909 8.61561 12.9175 8.24269 12.9175Z" fill="#5A5D62"/>
</svg>
