<svg width="20" height="20" viewBox="0 0 20 20" fill="none" xmlns="http://www.w3.org/2000/svg">
<path d="M9.93198 11.6568C9.6001 11.6568 9.27567 11.5584 8.99973 11.374C8.72378 11.1896 8.50871 10.9276 8.38171 10.621C8.2547 10.3144 8.22147 9.97696 8.28622 9.65146C8.35096 9.32596 8.51077 9.02697 8.74545 8.7923C8.98012 8.55762 9.27911 8.39781 9.60461 8.33307C9.93011 8.26832 10.2675 8.30155 10.5741 8.42856C10.8807 8.55556 11.1428 8.77062 11.3272 9.04657C11.5116 9.32252 11.61 9.64694 11.61 9.97882C11.6087 10.4234 11.4314 10.8495 11.117 11.1639C10.8026 11.4783 10.3766 11.6555 9.93198 11.6568ZM9.93198 7.34282C9.41062 7.34282 8.90098 7.49742 8.46749 7.78706C8.034 8.07671 7.69614 8.4884 7.49663 8.97006C7.29712 9.45173 7.24492 9.98175 7.34663 10.4931C7.44834 11.0044 7.69939 11.4741 8.06804 11.8428C8.43669 12.2114 8.90638 12.4625 9.41772 12.5642C9.92905 12.6659 10.4591 12.6137 10.9407 12.4142C11.4224 12.2147 11.8341 11.8768 12.1237 11.4433C12.4134 11.0098 12.568 10.5002 12.568 9.97882C12.568 9.27971 12.2903 8.60923 11.7959 8.11488C11.3016 7.62054 10.6311 7.34282 9.93198 7.34282ZM9.99197 13.7898C7.57097 13.7898 5.80997 12.5678 4.56397 9.97882C5.80997 7.40282 7.57197 6.16882 9.99197 6.16882C12.412 6.16882 14.174 7.40282 15.42 9.97882C14.174 12.5548 12.412 13.7898 9.99197 13.7898ZM16.439 9.59583C15.013 6.59583 12.868 5.09082 9.99197 5.09082C7.11597 5.09082 4.97098 6.60082 3.54498 9.58382C3.48585 9.70301 3.45508 9.83426 3.45508 9.96732C3.45508 10.1004 3.48585 10.2316 3.54498 10.3508C4.97098 13.3468 7.11997 14.8448 9.99197 14.8448C12.868 14.8448 15.013 13.3348 16.439 10.3508C16.4922 10.232 16.5196 10.1034 16.5194 9.97322C16.5192 9.84308 16.4925 9.71446 16.439 9.59583Z" fill="#262B33"/>
</svg>
