<svg width="16" height="16" viewBox="0 0 16 16" fill="none" xmlns="http://www.w3.org/2000/svg">
<g id="icon-extand">
<g id="icon-extand_2">
<g id="icon">
<path id="s" d="M10.1177 7.26299H5.46971C5.37705 7.26294 5.28648 7.23544 5.20944 7.18396C5.13239 7.13249 5.07231 7.05934 5.0368 6.97376C5.00128 6.88818 4.99191 6.79399 5.00987 6.70309C5.02783 6.61218 5.07232 6.52864 5.13771 6.46299L7.46171 4.13799C7.50511 4.09439 7.55668 4.05979 7.61349 4.03619C7.67029 4.01258 7.7312 4.00043 7.79271 4.00043C7.85423 4.00043 7.91513 4.01258 7.97194 4.03619C8.02874 4.05979 8.08032 4.09439 8.12371 4.13799L10.4487 6.46199C10.5149 6.52733 10.5601 6.61091 10.5786 6.70206C10.597 6.7932 10.5879 6.88778 10.5524 6.97373C10.5169 7.05968 10.4566 7.1331 10.3791 7.18462C10.3017 7.23614 10.2107 7.26342 10.1177 7.26299Z" fill="#666666"/>
<path id="s_2" d="M5.46971 8.513H10.1177C10.2104 8.51305 10.3009 8.54055 10.378 8.59203C10.455 8.6435 10.5151 8.71665 10.5506 8.80223C10.5861 8.88781 10.5955 8.982 10.5776 9.0729C10.5596 9.16381 10.5151 9.24735 10.4497 9.313L8.12571 11.638C8.08232 11.6816 8.03074 11.7162 7.97394 11.7398C7.91713 11.7634 7.85623 11.7756 7.79471 11.7756C7.7332 11.7756 7.67229 11.7634 7.61549 11.7398C7.55869 11.7162 7.50711 11.6816 7.46371 11.638L5.13771 9.313C5.07232 9.24735 5.02783 9.16381 5.00987 9.0729C4.99191 8.982 5.00128 8.88781 5.0368 8.80223C5.07231 8.71665 5.13239 8.6435 5.20944 8.59203C5.28648 8.54055 5.37705 8.51305 5.46971 8.513Z" fill="#666666"/>
</g>
</g>
</g>
</svg>
