<svg width="24" height="24" viewBox="0 0 24 24" fill="none" xmlns="http://www.w3.org/2000/svg">
<g clip-path="url(#clip0_36_320)">
<path d="M12 0C9.62663 0 7.30655 0.703789 5.33316 2.02237C3.35977 3.34094 1.8217 5.21509 0.913451 7.4078C0.00519937 9.60051 -0.232441 12.0133 0.230582 14.3411C0.693605 16.6689 1.83649 18.8071 3.51472 20.4853C5.19295 22.1635 7.33115 23.3064 9.65892 23.7694C11.9867 24.2324 14.3995 23.9948 16.5922 23.0866C18.7849 22.1783 20.6591 20.6402 21.9776 18.6668C23.2962 16.6935 24 14.3734 24 12C23.9907 8.82026 22.7234 5.77342 20.475 3.52499C18.2266 1.27657 15.1797 0.00929956 12 0ZM17.9498 12.8498C17.9239 13.0302 17.8339 13.1953 17.6961 13.3147C17.5583 13.4341 17.3821 13.4997 17.1998 13.4996H6.79988C6.61521 13.5088 6.43412 13.4464 6.29438 13.3253C6.15464 13.2042 6.06705 13.0339 6.04988 12.8498C5.99986 12.2842 5.99986 11.7154 6.04988 11.1499C6.07571 10.9694 6.16578 10.8043 6.30356 10.6849C6.44134 10.5655 6.61757 10.4999 6.79988 10.5H17.1998C17.3821 10.4999 17.5583 10.5655 17.6961 10.6849C17.8339 10.8043 17.9239 10.9694 17.9498 11.1499C17.9998 11.7154 17.9998 12.2842 17.9498 12.8498Z" fill="#FF262E"/>
</g>
<defs>
<clipPath id="clip0_36_320">
<rect width="24" height="24" fill="white"/>
</clipPath>
</defs>
</svg>
