<svg width="24" height="24" viewBox="0 0 24 24" fill="none" xmlns="http://www.w3.org/2000/svg">
<g clip-path="url(#clip0_1090_3274)">
<path d="M12.0001 17.9093C10.7709 17.9084 9.56187 18.2213 8.48751 18.8185C7.41316 19.4157 6.50909 20.2774 5.86098 21.3218C7.58007 22.4573 9.58119 23.0921 11.6405 23.1552L12.0005 23.1604C14.183 23.1646 16.3183 22.5255 18.1396 21.3229C17.4916 20.2782 16.5875 19.4163 15.5131 18.8189C14.4387 18.2215 13.2294 17.9084 12.0001 17.9093ZM12.0001 0.837402C9.76819 0.837606 7.58759 1.50689 5.73987 2.75884C3.89215 4.01079 2.46218 5.78791 1.63459 7.86071C0.806999 9.93352 0.619806 12.2068 1.09718 14.3871C1.57455 16.5674 2.69456 18.5544 4.3126 20.0918C5.14914 18.8161 6.28994 17.7687 7.63218 17.0438C8.97442 16.3189 10.4759 15.9393 12.0014 15.9393C13.5269 15.9393 15.0284 16.3189 16.3706 17.0438C17.7129 17.7687 18.8537 18.8161 19.6902 20.0918C21.3083 18.5544 22.4283 16.5674 22.9056 14.3871C23.383 12.2068 23.1958 9.93352 22.3682 7.86071C21.5407 5.78791 20.1107 4.01079 18.263 2.75884C16.4152 1.50689 14.2346 0.837606 12.0027 0.837402H12.0001ZM12.0001 4.12053C13.039 4.12053 14.0547 4.42861 14.9185 5.00582C15.7824 5.58303 16.4557 6.40343 16.8532 7.36329C17.2508 8.32315 17.3549 9.37936 17.1522 10.3983C16.9495 11.4173 16.4492 12.3533 15.7145 13.088C14.9799 13.8226 14.0439 14.3229 13.0249 14.5256C12.0059 14.7283 10.9497 14.6243 9.98986 14.2267C9.03 13.8291 8.2096 13.1558 7.63239 12.2919C7.05518 11.4281 6.7471 10.4125 6.7471 9.37353C6.7471 7.98035 7.30054 6.64422 8.28567 5.6591C9.2708 4.67397 10.6069 4.12053 12.0001 4.12053ZM12.0001 6.0904C11.3508 6.0904 10.716 6.28295 10.1761 6.64371C9.63619 7.00446 9.21538 7.51722 8.96689 8.11713C8.7184 8.71704 8.65338 9.37717 8.78006 10.014C8.90674 10.6509 9.21943 11.2359 9.67858 11.695C10.1377 12.1542 10.7227 12.4669 11.3596 12.5936C11.9965 12.7203 12.6566 12.6552 13.2565 12.4067C13.8564 12.1582 14.3692 11.7374 14.7299 11.1975C15.0907 10.6576 15.2832 10.0229 15.2832 9.37353C15.2831 8.50285 14.9372 7.66788 14.3215 7.05225C13.7058 6.43663 12.8708 6.0904 12.0001 6.0904Z" fill="#00A6FF"/>
</g>
<defs>
<clipPath id="clip0_1090_3274">
<rect width="24" height="24" fill="white"/>
</clipPath>
</defs>
</svg>
