<svg width="24" height="24" viewBox="0 0 24 24" fill="none" xmlns="http://www.w3.org/2000/svg">
<path d="M18.4619 22.5H5.5371C4.46644 22.4987 3.43999 22.0728 2.68296 21.3157C1.92593 20.5586 1.50015 19.5321 1.49902 18.4614V5.53858C1.50015 4.46791 1.92593 3.44141 2.68296 2.68429C3.43999 1.92717 4.46644 1.50125 5.5371 1.5H18.4619C19.5326 1.50125 20.559 1.92717 21.3161 2.68429C22.0731 3.44141 22.4989 4.46791 22.5 5.53858V18.4614C22.4989 19.5321 22.0731 20.5586 21.3161 21.3157C20.559 22.0728 19.5326 22.4987 18.4619 22.5ZM5.5371 3.29981C4.94376 3.30073 4.37501 3.53695 3.95559 3.95664C3.53618 4.37633 3.30034 4.94524 3.2998 5.53858V18.4614C3.30034 19.0548 3.53618 19.6237 3.9556 20.0434C4.37501 20.4631 4.94376 20.6993 5.5371 20.7002H18.4619C19.0553 20.6993 19.624 20.4631 20.0434 20.0434C20.4628 19.6237 20.6987 19.0548 20.6992 18.4614V5.53858C20.6987 4.94524 20.4628 4.37633 20.0434 3.95664C19.624 3.53694 19.0553 3.30073 18.4619 3.29981H5.5371Z" fill="#989DAB"/>
<path d="M8.71166 10.2627L4.59766 14.3768H6.35666V17.3493C6.35542 17.3875 6.36188 17.4255 6.37566 17.4612C6.38959 17.4968 6.41069 17.5291 6.43766 17.5561C6.46463 17.5832 6.49699 17.6044 6.53266 17.6183C6.5683 17.6322 6.60642 17.6387 6.64466 17.6373H10.7587C10.7969 17.6387 10.835 17.6322 10.8707 17.6183C10.9063 17.6044 10.9387 17.5833 10.9657 17.5561C10.9926 17.5291 11.0137 17.4968 11.0277 17.4612C11.0419 17.4257 11.0484 17.3875 11.0467 17.3493V14.3974H12.7647L8.71166 10.2627Z" fill="#989DAB"/>
<path d="M18.1558 9.95283V6.65113C18.1575 6.61293 18.151 6.57481 18.1368 6.53933C18.1228 6.50374 18.1017 6.4714 18.0748 6.44433C18.0478 6.41722 18.0154 6.39603 17.9798 6.38213C17.9441 6.36825 17.906 6.36181 17.8678 6.36323H13.7538C13.7155 6.36181 13.6774 6.36825 13.6418 6.38213C13.6062 6.39627 13.5739 6.41742 13.5468 6.44433C13.5198 6.4714 13.4987 6.50374 13.4848 6.53933C13.471 6.57494 13.4645 6.61296 13.4658 6.65113V9.95283H11.7178L15.8318 14.0669L19.9458 9.95283H18.1558Z" fill="#989DAB"/>
</svg>
