<svg width="24" height="24" viewBox="0 0 24 24" fill="none" xmlns="http://www.w3.org/2000/svg">
<path d="M18.3286 23H5.66666C4.82681 23 4.02135 22.6688 3.42749 22.0794C2.83362 21.49 2.5 20.6905 2.5 19.8569V4.14223C2.50025 3.30879 2.83399 2.50957 3.42783 1.92032C4.02167 1.33108 4.82697 1.00005 5.66666 1.00005H15.9515C16.057 0.99884 16.1617 1.01861 16.2593 1.05821C16.357 1.09781 16.4456 1.15643 16.5201 1.2306L21.2677 5.94295C21.3416 6.0161 21.4002 6.10305 21.4401 6.19879C21.4799 6.29452 21.5003 6.39715 21.5 6.50074V19.8569C21.5 20.27 21.4179 20.6791 21.2585 21.0608C21.0991 21.4424 20.8654 21.7891 20.5709 22.081C20.2763 22.373 19.9267 22.6044 19.5419 22.7621C19.1572 22.9198 18.7449 23.0006 18.3286 23ZM7.24579 18.2858H16.7458C16.9557 18.2858 17.157 18.203 17.3054 18.0557C17.4538 17.9084 17.5372 17.7086 17.5372 17.5002C17.5372 17.2919 17.4538 17.0921 17.3054 16.9448C17.157 16.7975 16.9557 16.7147 16.7458 16.7147H7.24953C7.03963 16.7147 6.83833 16.7975 6.68991 16.9448C6.54148 17.0921 6.4581 17.2919 6.4581 17.5002C6.4581 17.7086 6.54148 17.9084 6.68991 18.0557C6.83833 18.203 7.03963 18.2858 7.24953 18.2858H7.24579ZM6.45435 12.7851C6.45435 12.9934 6.53774 13.1933 6.68616 13.3406C6.83458 13.4879 7.03589 13.5707 7.24579 13.5707H16.7458C16.9557 13.5707 17.157 13.4879 17.3054 13.3406C17.4538 13.1933 17.5372 12.9934 17.5372 12.7851C17.5372 12.5768 17.4538 12.377 17.3054 12.2296C17.157 12.0823 16.9557 11.9996 16.7458 11.9996H7.24953C7.03963 11.9996 6.83833 12.0823 6.68991 12.2296C6.54148 12.377 6.4581 12.5768 6.4581 12.7851H6.45435ZM19.121 6.49888H15.9544V3.35576C15.9544 3.14742 15.871 2.94761 15.7226 2.80029C15.5741 2.65298 15.3728 2.57022 15.1629 2.57022C14.953 2.57022 14.7517 2.65298 14.6033 2.80029C14.4549 2.94761 14.3715 3.14742 14.3715 3.35576V7.28442C14.3715 7.49276 14.4549 7.69257 14.6033 7.83989C14.7517 7.98721 14.953 8.06997 15.1629 8.06997H19.121C19.3309 8.06997 19.5322 7.98721 19.6806 7.83989C19.8291 7.69257 19.9125 7.49276 19.9125 7.28442C19.9125 7.07608 19.8291 6.87628 19.6806 6.72896C19.5322 6.58164 19.3309 6.49888 19.121 6.49888Z" fill="white"/>
</svg>
