<svg width="24" height="24" viewBox="0 0 24 24" fill="none" xmlns="http://www.w3.org/2000/svg">
<path d="M12.2301 11.9201C11.0401 11.9201 10.0801 10.9601 10.0801 9.77012C10.0801 8.58012 11.0401 7.62012 12.2301 7.62012C13.4201 7.62012 14.3801 8.58012 14.3801 9.77012C14.3801 10.9601 13.4201 11.9201 12.2301 11.9201ZM12.2301 8.92012C11.7601 8.92012 11.3801 9.30012 11.3801 9.77012C11.3801 10.2401 11.7601 10.6201 12.2301 10.6201C12.7001 10.6201 13.0801 10.2401 13.0801 9.77012C13.0801 9.30012 12.7001 8.92012 12.2301 8.92012Z" fill="#5A5D62"/>
<path d="M16.49 4.75H4.48999C2.96999 4.75 1.73999 5.98 1.73999 7.5V16.5C1.73999 18.02 2.96999 19.25 4.48999 19.25H12.97C12.86 19.01 12.76 18.76 12.68 18.5C12.61 18.26 12.55 18.01 12.51 17.75H4.48999C3.79999 17.75 3.23999 17.19 3.23999 16.5V15.57L6.79999 13.17C7.11999 12.96 7.54999 12.96 7.85999 13.19L10.93 15.47C11.32 15.76 11.78 15.9 12.25 15.9C12.34 15.9 12.43 15.88 12.52 15.87C12.6 15.34 12.74 14.83 12.95 14.35L12.7 14.49C12.39 14.66 11.99 14.64 11.71 14.43L8.63999 12.15C7.88999 11.59 6.85999 11.57 6.07999 12.1L3.24999 14.01V7.51C3.24999 6.82 3.80999 6.26 4.49999 6.26H16.5C17.19 6.26 17.75 6.82 17.75 7.51V10.75C18 10.72 18.25 10.7 18.5 10.7C18.75 10.7 19 10.72 19.25 10.75V7.51C19.25 5.99 18.02 4.76 16.5 4.76L16.49 4.75Z" fill="#5A5D62"/>
<path d="M18.4902 21.5599C15.8402 21.5599 13.6802 19.3999 13.6802 16.7499C13.6802 14.0999 15.8402 11.9399 18.4902 11.9399C21.1402 11.9399 23.3002 14.0999 23.3002 16.7499C23.3002 19.3999 21.1402 21.5599 18.4902 21.5599ZM18.4902 13.2399C16.5602 13.2399 14.9802 14.8099 14.9802 16.7499C14.9802 18.6899 16.5502 20.2599 18.4902 20.2599C20.4302 20.2599 22.0002 18.6899 22.0002 16.7499C22.0002 14.8099 20.4302 13.2399 18.4902 13.2399Z" fill="#5A5D62"/>
<path d="M18.4901 15.88C18.8656 15.88 19.1701 15.5756 19.1701 15.2C19.1701 14.8245 18.8656 14.52 18.4901 14.52C18.1145 14.52 17.8101 14.8245 17.8101 15.2C17.8101 15.5756 18.1145 15.88 18.4901 15.88Z" fill="#5A5D62"/>
<path d="M18.5203 16.4399H18.4703C18.1113 16.4399 17.8203 16.731 17.8203 17.0899V18.4899C17.8203 18.8489 18.1113 19.1399 18.4703 19.1399H18.5203C18.8793 19.1399 19.1703 18.8489 19.1703 18.4899V17.0899C19.1703 16.731 18.8793 16.4399 18.5203 16.4399Z" fill="#5A5D62"/>
</svg>
