<svg width="20" height="20" viewBox="0 0 20 20" fill="none" xmlns="http://www.w3.org/2000/svg">
<path fill-rule="evenodd" clip-rule="evenodd" d="M16.8571 10C16.8571 6.2129 13.7871 3.14286 10 3.14286C6.2129 3.14286 3.14286 6.2129 3.14286 10C3.14286 13.7871 6.2129 16.8571 10 16.8571C13.7871 16.8571 16.8571 13.7871 16.8571 10ZM10 2C14.4183 2 18 5.58172 18 10C18 14.4183 14.4183 18 10 18C5.58172 18 2 14.4183 2 10C2 5.58172 5.58172 2 10 2Z" fill="#33C85D"/>
<path d="M14.1405 8.15874L9.58735 12.7233C9.53225 12.7786 9.46679 12.8224 9.39472 12.8523C9.32265 12.8822 9.24538 12.8976 9.16735 12.8976C9.08932 12.8976 9.01205 12.8822 8.93998 12.8523C8.86791 12.8224 8.80245 12.7786 8.74735 12.7233L6.17478 10.1439C6.11947 10.0887 6.07557 10.0232 6.04558 9.9511C6.0156 9.87898 6.00011 9.80166 6 9.72355C5.99989 9.64544 6.01517 9.56808 6.04497 9.49588C6.07476 9.42368 6.11848 9.35805 6.17364 9.30274C6.22879 9.24744 6.2943 9.20354 6.36642 9.17355C6.43854 9.14356 6.51586 9.12807 6.59397 9.12797C6.67208 9.12786 6.74944 9.14314 6.82164 9.17293C6.89385 9.20272 6.95947 9.24645 7.01478 9.3016L9.16792 11.4605L13.3005 7.31646C13.4122 7.20507 13.5636 7.14261 13.7213 7.14282C13.879 7.14304 14.0302 7.20591 14.1416 7.3176C14.253 7.42929 14.3155 7.58066 14.3153 7.73841C14.3151 7.89615 14.2522 8.04735 14.1405 8.15874Z" fill="#33C85D"/>
</svg>
