<svg width="20" height="20" viewBox="0 0 20 20" fill="none" xmlns="http://www.w3.org/2000/svg">
<path d="M3.19995 3.5H13.589C13.9315 3.50131 14.2597 3.63776 14.5022 3.87968C14.7446 4.12161 14.8819 4.44947 14.884 4.792V15.192C14.8838 15.3619 14.8502 15.5301 14.785 15.687C14.7199 15.8439 14.6244 15.9864 14.5042 16.1064C14.3839 16.2263 14.2412 16.3214 14.0841 16.3862C13.9271 16.451 13.7588 16.4843 13.589 16.484H3.19995V3.5ZM5.79996 4.8H4.49995V15.185H5.79996V4.8ZM7.09995 15.186H13.591V4.799H7.09995V15.186ZM8.39995 12.586C8.39995 12.0695 8.60514 11.5741 8.97037 11.2089C9.33559 10.8437 9.83095 10.6385 10.3475 10.6385C10.864 10.6385 11.3593 10.8437 11.7245 11.2089C12.0898 11.5741 12.295 12.0695 12.295 12.586H8.39995ZM10.347 9.986C10.0898 9.986 9.83849 9.90975 9.62471 9.76691C9.41093 9.62406 9.2443 9.42103 9.1459 9.18349C9.04751 8.94594 9.02177 8.68456 9.07193 8.43238C9.12209 8.18021 9.24591 7.94857 9.42772 7.76676C9.60953 7.58495 9.84116 7.46114 10.0933 7.41098C10.3455 7.36082 10.6069 7.38656 10.8444 7.48495C11.082 7.58335 11.285 7.74998 11.4279 7.96376C11.5707 8.17754 11.647 8.42888 11.647 8.686C11.6478 8.85781 11.6145 9.02808 11.5491 9.18696C11.4836 9.34583 11.3874 9.49017 11.2659 9.61161C11.1443 9.73306 10.9999 9.8292 10.841 9.89449C10.6821 9.95978 10.5118 9.99292 10.34 9.992L10.347 9.986ZM15.5399 6.091H16.84V8.691H15.5399V6.091ZM15.5399 9.986H16.84V12.586H15.5399V9.986Z" fill="#989DAB"/>
</svg>
