<svg width="24" height="24" viewBox="0 0 24 24" fill="none" xmlns="http://www.w3.org/2000/svg">
<path fill-rule="evenodd" clip-rule="evenodd" d="M19.8198 8.63318C20.5083 7.91714 20.4634 6.77225 19.7209 6.11229L16.7169 3.44205C16.0145 2.81764 14.9443 2.85959 14.2928 3.53707L2.73854 15.5536C2.42507 15.8796 2.24999 16.3143 2.25 16.7666L2.25008 19.3638C2.2501 20.3303 3.0336 21.1138 4.00007 21.1138H7.81937L19.8198 8.63318ZM18.7244 7.2334C18.8304 7.32768 18.8369 7.49124 18.7385 7.59353L16.7664 9.64453L13.4077 6.62174L15.3741 4.57673C15.4671 4.47995 15.62 4.47395 15.7204 4.56316L18.7244 7.2334ZM15.7262 10.7264L12.3675 7.70358L3.81979 16.5932C3.77501 16.6398 3.75 16.7019 3.75 16.7665L3.75008 19.3638C3.75008 19.5018 3.86201 19.6138 4.00007 19.6138L7.18074 19.6138L15.7262 10.7264Z" fill="#5A5D62"/>
</svg>
