<svg width="24" height="24" viewBox="0 0 24 24" fill="none" xmlns="http://www.w3.org/2000/svg">
<path d="M10.8599 2.73406C11.2279 2.013 11.4119 1.65247 11.6596 1.53599C11.8752 1.43459 12.1248 1.43459 12.3404 1.53599C12.5881 1.65247 12.7721 2.013 13.1401 2.73406L15.1514 6.67512C15.2598 6.88763 15.314 6.99389 15.3919 7.07676C15.4609 7.15014 15.543 7.20985 15.6341 7.25274C15.737 7.30118 15.8548 7.31992 16.0904 7.35739L20.4601 8.05235C21.2596 8.1795 21.6593 8.24308 21.8467 8.44267C22.0097 8.61641 22.0869 8.8538 22.0571 9.09022C22.0228 9.3618 21.7368 9.64819 21.1647 10.221L18.0381 13.3517C17.8695 13.5205 17.7852 13.6049 17.7304 13.7045C17.682 13.7928 17.6506 13.8894 17.6379 13.9893C17.6236 14.1021 17.6422 14.2199 17.6794 14.4556L18.3688 18.8262C18.4949 19.6258 18.5579 20.0256 18.426 20.2655C18.3112 20.4742 18.1092 20.621 17.8752 20.6657C17.6063 20.717 17.2455 20.5335 16.524 20.1664L12.5804 18.1602C12.3677 18.0521 12.2614 17.998 12.1497 17.9767C12.0508 17.9579 11.9492 17.9579 11.8503 17.9767C11.7386 17.998 11.6323 18.0521 11.4196 18.1602L7.47599 20.1664C6.75446 20.5335 6.3937 20.717 6.12483 20.6657C5.89078 20.621 5.68884 20.4742 5.57399 20.2655C5.44206 20.0256 5.50512 19.6258 5.63124 18.8262L6.3206 14.4556C6.35778 14.2199 6.37636 14.1021 6.36208 13.9893C6.34944 13.8894 6.31805 13.7928 6.26956 13.7045C6.21481 13.6049 6.13051 13.5205 5.96191 13.3517L2.83525 10.221C2.2632 9.64819 1.97717 9.3618 1.94293 9.09022C1.91313 8.8538 1.99026 8.61641 2.15333 8.44267C2.34066 8.24308 2.7404 8.1795 3.53988 8.05235L7.90956 7.35739C8.14519 7.31992 8.263 7.30118 8.36587 7.25274C8.45697 7.20985 8.53915 7.15014 8.6081 7.07676C8.68595 6.99389 8.74018 6.88763 8.84863 6.67512L10.8599 2.73406Z" fill="#FFEA2C"/>
</svg>
