<svg width="20" height="20" viewBox="0 0 20 20" fill="none" xmlns="http://www.w3.org/2000/svg">
<g clip-path="url(#clip0_201_2217)">
<path d="M10 18C14.4183 18 18 14.4183 18 10C18 5.58172 14.4183 2 10 2C5.58172 2 2 5.58172 2 10C2 14.4183 5.58172 18 10 18Z" fill="#26A17B"/>
<path d="M10.9753 10.7266H8.80866C6.65533 10.6333 5.05533 10.26 5.05533 9.80664C5.05533 9.35331 6.65533 8.98664 8.80866 8.89331V10.3533C8.94866 10.3533 9.34866 10.3866 9.90866 10.3866C10.2645 10.4072 10.6215 10.396 10.9753 10.3533V8.89331C13.122 8.98664 14.722 9.35998 14.722 9.80664C14.722 10.2533 13.122 10.6333 10.9753 10.7266ZM10.9753 8.72664V7.39331H13.9687V5.39331H5.81533V7.39331H8.80866V8.72664C6.37533 8.83998 4.54199 9.31998 4.54199 9.89998C4.54199 10.48 6.37533 10.96 8.80866 11.0733V15.2666H10.9753V11.0866C13.402 10.9733 15.2287 10.4933 15.2287 9.91331C15.2287 9.33331 13.402 8.85331 10.9753 8.73998" fill="white"/>
</g>
<defs>
<clipPath id="clip0_201_2217">
<rect width="16" height="16" fill="white" transform="translate(2 2)"/>
</clipPath>
</defs>
</svg>
