<svg width="20" height="20" viewBox="0 0 20 20" fill="none" xmlns="http://www.w3.org/2000/svg">
<g clip-path="url(#clip0_2370_1045)">
<path fill-rule="evenodd" clip-rule="evenodd" d="M4.33723 14.3371C3.97111 14.7032 3.97111 15.2968 4.33723 15.6629C4.70335 16.029 5.29694 16.029 5.66305 15.6629L10 11.326L14.3371 15.6631C14.7032 16.0292 15.2968 16.0292 15.6629 15.6631C16.029 15.2969 16.029 14.7033 15.6629 14.3372L11.3258 10.0001L15.6631 5.66291C16.0292 5.2968 16.0292 4.7032 15.6631 4.33709C15.2969 3.97097 14.7033 3.97097 14.3372 4.33709L10 8.67431L5.66291 4.33723C5.2968 3.97111 4.7032 3.97111 4.33709 4.33723C3.97097 4.70334 3.97097 5.29694 4.33709 5.66305L8.67417 10.0001L4.33723 14.3371Z" fill="#262B33"/>
</g>
<defs>
<clipPath id="clip0_2370_1045">
<rect width="20" height="20" fill="white"/>
</clipPath>
</defs>
</svg>
