<svg width="28" height="28" viewBox="0 0 28 28" fill="none" xmlns="http://www.w3.org/2000/svg">
<circle cx="14" cy="14" r="14" fill="#1A1E24" fill-opacity="0.6"/>
<path d="M13.5279 7.94998C13.7187 7.57615 13.8388 7.34252 13.9391 7.1836C13.965 7.14258 13.9853 7.1138 14 7.09427C14.0147 7.1138 14.035 7.14258 14.0609 7.1836C14.1612 7.34252 14.2813 7.57615 14.4721 7.94998L15.6215 10.2023C15.6288 10.2167 15.6363 10.2314 15.6439 10.2464C15.7278 10.412 15.8294 10.6126 15.9835 10.7765C16.1171 10.9187 16.2763 11.0344 16.4528 11.1175C16.6563 11.2133 16.8784 11.248 17.0619 11.2766C17.0785 11.2792 17.0948 11.2818 17.1108 11.2843L19.608 11.6815C20.0225 11.7474 20.2818 11.7894 20.464 11.8357C20.511 11.8476 20.5446 11.858 20.5677 11.866C20.5537 11.8861 20.5326 11.9143 20.5016 11.9516C20.3815 12.0961 20.1964 12.2825 19.8998 12.5794L18.1129 14.3686C18.1015 14.38 18.0898 14.3917 18.0779 14.4036C17.9463 14.5345 17.787 14.6931 17.6786 14.8903C17.5847 15.0613 17.5239 15.2484 17.4994 15.442C17.4711 15.6652 17.5068 15.8871 17.5363 16.0704C17.5389 16.0871 17.5415 16.1034 17.5441 16.1193L17.938 18.6171C18.0034 19.0317 18.0436 19.2912 18.0559 19.4788C18.059 19.5272 18.0595 19.5624 18.0591 19.5869C18.0357 19.5797 18.0023 19.5684 17.9573 19.5504C17.7827 19.4808 17.5483 19.3624 17.1742 19.172L14.9204 18.0255C14.906 18.0182 14.8913 18.0107 14.8763 18.003C14.7111 17.9183 14.511 17.8158 14.29 17.7737C14.0984 17.7372 13.9016 17.7372 13.7099 17.7737C13.489 17.8158 13.2889 17.9183 13.1237 18.003C13.1087 18.0107 13.094 18.0182 13.0796 18.0255L10.8258 19.172C10.4517 19.3624 10.2173 19.4808 10.0427 19.5504C9.99765 19.5684 9.96432 19.5797 9.94091 19.5869C9.94047 19.5624 9.94096 19.5272 9.94413 19.4788C9.9564 19.2912 9.99658 19.0317 10.062 18.6171L10.4559 16.1193C10.4584 16.1034 10.4611 16.0871 10.4637 16.0704C10.4932 15.8871 10.5289 15.6652 10.5006 15.442C10.4761 15.2484 10.4153 15.0613 10.3214 14.8903L9.67488 15.2455L10.3214 14.8903C10.213 14.6931 10.0537 14.5345 9.92215 14.4036C9.91021 14.3917 9.89849 14.38 9.88707 14.3686L8.10021 12.5794C7.80363 12.2825 7.61854 12.0961 7.49839 11.9516C7.46737 11.9143 7.44627 11.8861 7.43225 11.866C7.45538 11.858 7.48903 11.8476 7.53604 11.8357C7.71818 11.7894 7.97748 11.7474 8.39197 11.6815L10.8892 11.2843C10.9052 11.2818 10.9215 11.2792 10.9381 11.2766C11.1216 11.248 11.3437 11.2133 11.5472 11.1175C11.7237 11.0344 11.8829 10.9187 12.0165 10.7765C12.1706 10.6126 12.2722 10.412 12.3561 10.2464C12.3637 10.2314 12.3712 10.2167 12.3785 10.2023L13.5279 7.94998Z" stroke="white" stroke-opacity="0.5" stroke-width="1.5"/>
</svg>
