<svg width="24" height="24" viewBox="0 0 24 24" fill="none" xmlns="http://www.w3.org/2000/svg">
<path d="M12.0305 21.4391C8.71714 21.4391 6.02093 20.6206 6.02093 19.6187V10.5126L1.82764 9.27912C1.71292 9.24632 1.61582 9.16948 1.55755 9.06535C1.49927 8.96123 1.48455 8.83828 1.5166 8.72334L2.78531 4.14535C3.17493 3.02806 5.1975 2.32741 8.96925 2C9.41534 2.73667 10.6456 3.23433 12.0305 3.23433C13.4155 3.23433 14.6457 2.73667 15.0926 2C19.5347 2.38471 20.9041 3.37921 21.2774 4.14535L22.5444 8.72334C22.5753 8.83847 22.5599 8.96111 22.5014 9.06499C22.443 9.16887 22.3462 9.24574 22.2318 9.27912L18.0409 10.5126V19.6146C18.0409 20.623 15.3447 21.4391 12.0305 21.4391ZM12.0592 7.81969C11.6373 7.81814 11.2194 7.90098 10.83 8.06334C10.4406 8.22569 10.0877 8.46429 9.79186 8.76509C9.34624 9.21721 9.0444 9.79111 8.92436 10.4145C8.80432 11.0379 8.87147 11.6828 9.11732 12.2681C9.36318 12.8534 9.77676 13.3528 10.3059 13.7034C10.8351 14.0541 11.4563 14.2403 12.0911 14.2385C12.5132 14.2408 12.9315 14.1585 13.3213 13.9966C13.7111 13.8346 14.0646 13.5963 14.3609 13.2956C14.8075 12.8435 15.1101 12.2691 15.2305 11.6451C15.351 11.0211 15.2838 10.3754 15.0376 9.78948C14.7913 9.2036 14.377 8.70381 13.8469 8.35323C13.3168 8.00265 12.6947 7.81699 12.0592 7.81969ZM10.8314 13.0353L11.1588 11.5522L10.0644 10.5536L11.5058 10.425L12.0698 9.02538L12.6338 10.425L14.0752 10.5536L12.9808 11.5522L13.3082 13.0345L12.0698 12.2487L10.8297 13.0361L10.8314 13.0353Z" fill="#FF9141"/>
<path d="M21.9399 6.66528L18.3286 7.87506C18.2116 7.92763 18.1175 8.02095 18.0641 8.13763C18.0107 8.25431 18.0014 8.38642 18.0381 8.50942C18.0506 8.56936 18.075 8.62618 18.1099 8.67651C18.1449 8.72683 18.1895 8.76963 18.2413 8.80238C18.293 8.83512 18.3508 8.85714 18.4112 8.86713C18.4717 8.87713 18.5335 8.8749 18.593 8.86056L22.1822 7.65897L21.9367 6.66611M6.00087 8.51596C6.03865 8.38991 6.02785 8.25427 5.97057 8.13579C5.9133 8.01731 5.81372 7.92457 5.69146 7.87588L2.08833 6.66611L1.84277 7.65897L5.43199 8.86056C5.49234 8.87813 5.55568 8.88299 5.618 8.87487C5.68033 8.86674 5.7403 8.84579 5.79413 8.81334C5.84796 8.78089 5.89448 8.73764 5.93077 8.68632C5.96705 8.635 5.99231 8.57672 6.00496 8.51515" fill="white"/>
</svg>
