<svg width="24" height="24" viewBox="0 0 24 24" fill="none" xmlns="http://www.w3.org/2000/svg">
<g clip-path="url(#clip0_322_7228)">
<path d="M23.0059 8.67041C22.4296 6.76864 21.3704 5.04864 19.9315 3.67809C18.4926 2.30753 16.7231 1.33318 14.7956 0.850015C12.868 0.366853 10.8482 0.391366 8.93297 0.921165C7.01773 1.45096 5.27243 2.46797 3.86723 3.87305C1.71377 6.02371 0.502295 8.94138 0.499037 11.9849C0.49653 13.6381 0.850531 15.2725 1.53691 16.7766C2.22328 18.2807 3.22589 19.6191 4.4764 20.7006C5.7269 21.7821 7.19588 22.5812 8.78322 23.0436C10.3705 23.5059 12.0389 23.6205 13.6746 23.3796C15.3102 23.1388 16.8747 22.5481 18.2614 21.6478C19.648 20.7475 20.8243 19.5588 21.7099 18.1627C22.5956 16.7666 23.1698 15.196 23.3934 13.5579C23.6171 11.9198 23.4849 10.2528 23.0059 8.67041ZM20.959 15.7192C20.9253 15.8005 20.8836 15.8775 20.8477 15.9576L20.0751 15.5119L20.0669 15.5261C19.8105 16.1077 19.4916 16.6597 19.1159 17.1724L19.1077 17.1866L19.8843 17.6347C19.0876 18.7608 18.0571 19.7017 16.8633 20.3931C15.6696 21.0844 14.3406 21.5099 12.9673 21.6406V20.7491C12.3246 20.8234 11.6755 20.8234 11.0328 20.7493V21.6468C10.7198 21.6158 10.4078 21.5735 10.0977 21.5117C7.89703 21.0695 5.91697 19.8799 4.49321 18.1445C4.36577 17.9889 4.24981 17.8256 4.13286 17.663L4.91338 17.2125C4.52832 16.693 4.2018 16.1325 3.93975 15.5414L3.16106 15.9907C2.59257 14.7328 2.29896 13.3682 2.29985 11.9878V11.9863C2.29913 10.7154 2.55039 9.45691 3.03911 8.28369C3.08306 8.1778 3.13799 8.07831 3.18535 7.97443L3.95794 8.42017C4.22239 7.83005 4.55125 7.27097 4.93853 6.75311L4.16143 6.30469C4.95818 5.1936 5.9837 4.26608 7.16895 3.58453C8.3542 2.90299 9.67169 2.48323 11.0328 2.35352V3.24994C11.6755 3.17576 12.3246 3.1758 12.9673 3.25006V2.37706C14.3328 2.50185 15.6553 2.91957 16.8447 3.60172C18.0341 4.28388 19.0624 5.21444 19.8597 6.33L19.1077 6.76383L19.2397 6.99241C19.4986 7.36944 19.7278 7.76606 19.925 8.17869L20.075 8.43852L20.8264 8.00498C21.3853 9.21045 21.6859 10.5195 21.7087 11.8481C21.7316 13.1767 21.4763 14.4953 20.959 15.7192Z" fill="#989DAB"/>
<path d="M19.8613 11.2173C19.6727 9.22754 18.7385 7.38274 17.2461 6.05325C15.7726 4.73167 13.8431 4.03449 11.8652 4.10892C10.843 4.11326 9.83073 4.32012 8.88889 4.71754C7.94706 5.11496 7.09332 5.69507 6.37698 6.42435C4.91871 7.91467 4.10194 9.91673 4.10156 12.0018C4.10119 14.0869 4.91724 16.0893 6.37498 17.5801C7.09218 18.3087 7.94641 18.8882 8.88849 19.2854C9.83057 19.6825 10.8419 19.8894 11.8642 19.8941C11.9306 19.8961 11.998 19.897 12.0654 19.897C12.5076 19.897 12.9488 19.857 13.3838 19.7774C15.3416 19.4533 17.0991 18.387 18.291 16.8004C19.4974 15.2028 20.058 13.2096 19.8613 11.2173ZM17.958 13.2754C17.7253 14.4974 17.1353 15.6228 16.2627 16.5093C15.4008 17.3902 14.2934 17.9909 13.085 18.2329C12.6917 18.3136 12.2912 18.3541 11.8897 18.354H11.8682C11.0495 18.3534 10.2395 18.1877 9.48635 17.8667C8.72834 17.5462 8.04204 17.0774 7.46779 16.4878C6.8886 15.8956 6.43167 15.1951 6.12307 14.4263C5.81207 13.6542 5.65451 12.8289 5.6592 11.9966V11.8482C5.67803 11.0666 5.83988 10.2951 6.13674 9.57181C6.44022 8.80375 6.89825 8.10622 7.48244 7.52249C8.05698 6.93788 8.74127 6.47244 9.49607 6.15286C10.2373 5.84475 11.0322 5.68643 11.835 5.68703H11.8848C13.111 5.68627 14.3087 6.05668 15.3203 6.74953C16.3557 7.44787 17.1581 8.44042 17.624 9.59915C18.0953 10.7649 18.2115 12.0439 17.958 13.2754Z" fill="#989DAB"/>
<path d="M13.2844 9.56104C13.1892 9.42977 13.0738 9.31449 12.9424 9.21955H14.0534C14.1535 9.22758 14.2534 9.20193 14.3373 9.14667C14.4212 9.09141 14.4842 9.00971 14.5164 8.91455L14.7854 8.23145H9.79338C9.6929 8.23298 9.59566 8.26721 9.51637 8.32895C9.43732 8.39073 9.38018 8.47626 9.35337 8.57294L9.14637 9.30494H10.5374C10.908 9.27855 11.2797 9.33693 11.6244 9.47565C11.7487 9.53887 11.8565 9.63018 11.9394 9.74234C12.0214 9.85497 12.0765 9.98495 12.1004 10.1222H9.78037C9.678 10.1212 9.57818 10.1542 9.49657 10.216C9.41495 10.2778 9.35615 10.3649 9.32938 10.4637L9.14637 11.1347H12.0024C11.9345 11.3421 11.8122 11.5274 11.6484 11.6714C11.1738 11.99 10.6079 12.1442 10.0374 12.1106H9.10938V12.9157L11.7334 16.0386H13.5894L11.1484 13.0987C11.8141 13.031 12.4396 12.7484 12.9304 12.2935C13.2535 11.9617 13.4593 11.5334 13.5164 11.0737H13.8944C13.9919 11.0841 14.09 11.0607 14.1723 11.0074C14.2546 10.9541 14.3161 10.8742 14.3464 10.7809L14.5414 10.1222H13.5034C13.4754 9.9206 13.4004 9.72836 13.2844 9.56104Z" fill="#989DAB"/>
</g>
<defs>
<clipPath id="clip0_322_7228">
<rect width="24" height="24" fill="white"/>
</clipPath>
</defs>
</svg>
