<svg width="24" height="24" viewBox="0 0 24 24" fill="none" xmlns="http://www.w3.org/2000/svg">
<path d="M11.9998 2.57129C10.1349 2.57129 8.31192 3.12429 6.76133 4.16036C5.21074 5.19643 4.00221 6.66904 3.28855 8.39197C2.57489 10.1149 2.38816 12.0108 2.75198 13.8398C3.1158 15.6688 4.01382 17.3489 5.33249 18.6676C6.65116 19.9863 8.33125 20.8843 10.1603 21.2481C11.9893 21.6119 13.8852 21.4252 15.6081 20.7115C17.3311 19.9979 18.8037 18.7894 19.8397 17.2388C20.8758 15.6882 21.4288 13.8652 21.4288 12.0003C21.4217 9.50175 20.426 7.10759 18.6592 5.34085C16.8925 3.57411 14.4983 2.57841 11.9998 2.57129ZM11.9998 5.40029C12.5593 5.40029 13.1063 5.56621 13.5715 5.87706C14.0367 6.18791 14.3993 6.62974 14.6135 7.14668C14.8276 7.66361 14.8836 8.23242 14.7744 8.7812C14.6653 9.32997 14.3959 9.83405 14.0002 10.2297C13.6046 10.6253 13.1005 10.8948 12.5517 11.0039C12.0029 11.1131 11.4341 11.0571 10.9172 10.8429C10.4003 10.6288 9.95843 10.2662 9.64758 9.80099C9.33672 9.33577 9.1708 8.78881 9.1708 8.22929C9.16388 7.85587 9.23233 7.4849 9.37205 7.13854C9.51177 6.79218 9.71989 6.47756 9.98398 6.21347C10.2481 5.94938 10.5627 5.74125 10.9091 5.60153C11.2554 5.46181 11.6264 5.39337 11.9998 5.40029ZM11.9998 18.7893C10.8818 18.7842 9.78196 18.5067 8.79539 17.9808C7.80882 17.455 6.96528 16.6966 6.3378 15.7713C6.3378 13.8853 10.1088 12.8483 11.9948 12.8483C13.8808 12.8483 17.6518 13.8853 17.6518 15.7713C17.0252 16.695 16.1832 17.4523 15.1985 17.978C14.2138 18.5036 13.116 18.7827 11.9998 18.7893Z" fill="white"/>
</svg>
