<svg width="24" height="24" viewBox="0 0 24 24" fill="none" xmlns="http://www.w3.org/2000/svg">
<path d="M11.97 4.06997C16.33 4.06997 19.87 7.60997 19.87 11.97C19.87 16.33 16.33 19.87 11.97 19.87C7.60997 19.87 4.06997 16.33 4.06997 11.97C4.06997 7.60997 7.60997 4.06997 11.97 4.06997ZM11.97 2.46997C6.72997 2.46997 2.46997 6.72997 2.46997 11.97C2.46997 17.21 6.71997 21.47 11.97 21.47C17.22 21.47 21.47 17.22 21.47 11.97C21.47 6.71997 17.22 2.46997 11.97 2.46997Z" fill="#262B33"/>
<path d="M15.78 13.3801H12C11.56 13.3801 11.2 13.0201 11.2 12.5801V7.42012C11.2 6.98012 11.56 6.62012 12 6.62012C12.44 6.62012 12.8 6.98012 12.8 7.42012V11.7801H15.78C16.22 11.7801 16.58 12.1401 16.58 12.5801C16.58 13.0201 16.22 13.3801 15.78 13.3801Z" fill="#262B33"/>
</svg>
