<svg width="24" height="24" viewBox="0 0 24 24" fill="none" xmlns="http://www.w3.org/2000/svg">
<path d="M11.0461 16.3049H13.5461" stroke="#5A5D62" stroke-width="1.6" stroke-linecap="round" stroke-linejoin="round"/>
<path d="M16.716 8.83504L12.716 4.17504C12.6691 4.12015 12.6108 4.07608 12.5452 4.04586C12.4796 4.01565 12.4083 4 12.336 4C12.2638 4 12.1924 4.01565 12.1269 4.04586C12.0613 4.07608 12.003 4.12015 11.956 4.17504L7.95604 8.83504C7.88854 8.91023 7.80023 8.96369 7.70231 8.98861C7.60439 9.01354 7.50127 9.00881 7.40604 8.97504L3.67604 7.61504C3.59558 7.58202 3.50779 7.57101 3.42167 7.58314C3.33555 7.59526 3.25421 7.63009 3.186 7.68405C3.11779 7.738 3.06518 7.80914 3.03355 7.89016C3.00192 7.97117 2.99243 8.05914 3.00604 8.14504L4.29604 17.535C4.38499 18.1562 4.69475 18.7245 5.16857 19.1359C5.64239 19.5473 6.24855 19.7742 6.87604 19.775H17.676C18.3104 19.7839 18.9262 19.5613 19.4084 19.1491C19.8906 18.7368 20.2062 18.163 20.296 17.535L21.626 8.14504C21.6397 8.05914 21.6302 7.97117 21.5985 7.89016C21.5669 7.80914 21.5143 7.738 21.4461 7.68405C21.3779 7.63009 21.2965 7.59526 21.2104 7.58314C21.1243 7.57101 21.0365 7.58202 20.956 7.61504L17.296 8.97504C17.1969 9.01555 17.0875 9.02383 16.9834 8.99871C16.8793 8.97358 16.7858 8.91632 16.716 8.83504Z" stroke="#5A5D62" stroke-width="1.6" stroke-linecap="round" stroke-linejoin="round"/>
</svg>
