<svg width="20" height="20" viewBox="0 0 20 20" fill="none" xmlns="http://www.w3.org/2000/svg">
<path d="M17.0882 5.90842C16.785 5.849 16.4707 5.89265 16.1952 6.03242L13.9672 7.14842C13.9471 7.15781 13.9243 7.15964 13.903 7.15358C13.8817 7.14752 13.8633 7.13396 13.8512 7.11542L11.0912 3.10442C10.8892 2.80983 10.5818 2.60406 10.2325 2.52962C9.88322 2.45518 9.51865 2.51775 9.21416 2.70442L9.14816 2.74542C9.01486 2.83884 8.89767 2.95334 8.80116 3.08442L5.95516 7.11542C5.94304 7.13396 5.92463 7.14752 5.90332 7.15358C5.88201 7.15964 5.85923 7.15781 5.83916 7.14842L3.69716 6.04842C3.46311 5.93135 3.20093 5.88223 2.94038 5.90663C2.67983 5.93103 2.43133 6.02797 2.22308 6.18645C2.01483 6.34492 1.85516 6.5586 1.7622 6.80322C1.66925 7.04785 1.64671 7.31363 1.69716 7.57042L3.24416 15.3284C3.34017 15.815 3.60193 16.2533 3.98485 16.5686C4.36777 16.8839 4.84815 17.0566 5.34416 17.0574H14.5492C15.0453 17.057 15.5258 16.8844 15.9088 16.5691C16.2918 16.2537 16.5535 15.8152 16.6492 15.3284L18.1962 7.55442C18.2637 7.18963 18.1855 6.81288 17.9783 6.50512C17.7712 6.19735 17.4516 5.98312 17.0882 5.90842ZM11.5962 14.0384H8.28816C8.11717 14.0318 7.9554 13.9592 7.83677 13.8358C7.71814 13.7125 7.65188 13.548 7.65188 13.3769C7.65188 13.2058 7.71814 13.0413 7.83677 12.918C7.9554 12.7947 8.11717 12.7221 8.28816 12.7154H11.5962C11.7671 12.7221 11.9289 12.7947 12.0475 12.918C12.1662 13.0413 12.2324 13.2058 12.2324 13.3769C12.2324 13.548 12.1662 13.7125 12.0475 13.8358C11.9289 13.9592 11.7671 14.0318 11.5962 14.0384Z" fill="#FFBB4D"/>
</svg>
