<svg width="24" height="24" viewBox="0 0 24 24" fill="none" xmlns="http://www.w3.org/2000/svg">
<path d="M2.5 12C2.5 10.1211 3.05716 8.28435 4.10104 6.72209C5.14491 5.15982 6.62861 3.94218 8.3645 3.22315C10.1004 2.50411 12.0105 2.31599 13.8533 2.68255C15.6962 3.0491 17.3889 3.95389 18.7175 5.28249C20.0461 6.61109 20.9509 8.30383 21.3175 10.1466C21.684 11.9895 21.4959 13.8996 20.7768 15.6355C20.0578 17.3714 18.8402 18.8551 17.2779 19.899C15.7156 20.9428 13.8789 21.5 12 21.5C9.48129 21.4972 7.06653 20.4955 5.28554 18.7145C3.50454 16.9335 2.50277 14.5187 2.5 12ZM4.28125 12C4.28125 13.5266 4.73395 15.019 5.58209 16.2883C6.43024 17.5577 7.63574 18.547 9.04616 19.1312C10.4566 19.7154 12.0086 19.8683 13.5058 19.5704C15.0031 19.2726 16.3785 18.5375 17.458 17.458C18.5375 16.3785 19.2726 15.0031 19.5704 13.5059C19.8683 12.0086 19.7154 10.4566 19.1312 9.04616C18.547 7.63575 17.5576 6.43025 16.2883 5.5821C15.019 4.73395 13.5266 4.28126 12 4.28126C9.95355 4.28352 7.99157 5.09747 6.54452 6.54452C5.09746 7.99158 4.28351 9.95356 4.28125 12ZM10.8125 15.5625V12C10.8125 11.6851 10.9376 11.383 11.1603 11.1603C11.383 10.9376 11.6851 10.8125 12 10.8125C12.3149 10.8125 12.617 10.9376 12.8397 11.1603C13.0624 11.383 13.1875 11.6851 13.1875 12V15.5625C13.1875 15.8774 13.0624 16.1795 12.8397 16.4022C12.617 16.6249 12.3149 16.75 12 16.75C11.6851 16.75 11.383 16.6249 11.1603 16.4022C10.9376 16.1795 10.8125 15.8774 10.8125 15.5625ZM10.8125 8.4375C10.8125 8.20264 10.8821 7.97305 11.0126 7.77776C11.1431 7.58248 11.3286 7.43027 11.5456 7.34039C11.7625 7.25051 12.0013 7.227 12.2317 7.27282C12.462 7.31864 12.6736 7.43174 12.8397 7.59781C13.0058 7.76389 13.1189 7.97548 13.1647 8.20583C13.2105 8.43618 13.187 8.67495 13.0971 8.89194C13.0072 9.10893 12.855 9.29439 12.6597 9.42487C12.4644 9.55536 12.2349 9.625 12 9.625C11.8438 9.625 11.6892 9.5942 11.5449 9.53434C11.4006 9.47448 11.2696 9.38675 11.1593 9.27618C11.049 9.16561 10.9616 9.03437 10.9021 8.88996C10.8426 8.74556 10.8121 8.59084 10.8125 8.43466V8.4375Z" fill="#5A5D62"/>
</svg>
