<svg width="24" height="24" viewBox="0 0 24 24" fill="none" xmlns="http://www.w3.org/2000/svg">
<g clip-path="url(#clip0_322_7165)">
<path d="M12 0.5C9.72552 0.5 7.50211 1.17446 5.61095 2.4381C3.71978 3.70173 2.2458 5.49779 1.37539 7.59914C0.504983 9.70049 0.277244 12.0128 0.720974 14.2435C1.1647 16.4743 2.25997 18.5234 3.86828 20.1317C5.47658 21.74 7.52568 22.8353 9.75646 23.279C11.9872 23.7228 14.2995 23.495 16.4009 22.6246C18.5022 21.7542 20.2983 20.2802 21.5619 18.3891C22.8255 16.4979 23.5 14.2745 23.5 12C23.4965 8.95109 22.2837 6.02806 20.1278 3.87216C17.9719 1.71625 15.0489 0.50352 12 0.5ZM5.083 5.21143C5.10785 5.40397 5.20213 5.58081 5.34815 5.70875C5.49417 5.83669 5.68187 5.90692 5.876 5.90625C5.89748 5.90576 5.92288 5.90674 5.94534 5.90725C6.07091 5.9073 6.19471 5.87768 6.30666 5.82082C6.43717 5.75366 6.54689 5.65221 6.62405 5.52736C6.86916 5.07229 7.08405 4.6968 7.30178 4.34279C7.35687 4.25032 7.39336 4.14798 7.4092 4.04152C7.42482 3.93447 7.41986 3.82542 7.39456 3.72023C7.37144 3.65019 7.33952 3.58337 7.29956 3.52138C7.7208 3.28969 8.15875 3.08978 8.60975 2.9233C7.1759 5.30784 6.35947 8.01237 6.23438 10.792C5.95116 14.0573 6.31022 17.3464 7.29126 20.4737C6.74937 20.1714 6.23761 19.818 5.76294 19.4184C5.77876 19.312 5.7737 19.2036 5.74805 19.0991C5.65528 18.7373 5.53614 18.2598 5.4375 17.7549C5.38049 17.5566 5.25121 17.3869 5.0752 17.2793C4.90354 17.1738 4.6988 17.1359 4.50074 17.1729C4.30268 17.2099 4.12543 17.3191 4.00342 17.4795C2.72924 15.6279 2.14 13.3903 2.33703 11.1513C2.53406 8.91235 3.50504 6.81199 5.083 5.21143ZM12.2688 21.6866C12.1992 21.4626 12.127 21.2348 12.0616 21.0181L11.9912 20.7866C11.9156 20.5986 11.7725 20.4457 11.5899 20.3579C11.4526 20.2917 11.2997 20.265 11.1481 20.2809C10.9966 20.2967 10.8524 20.3545 10.7319 20.4477C10.6113 20.5409 10.5191 20.6658 10.4655 20.8085C10.412 20.9511 10.3993 21.1059 10.4287 21.2554C10.459 21.3584 10.4955 21.4711 10.527 21.5762C10.2356 21.5315 9.94888 21.4743 9.66677 21.4046C8.29583 18.0979 7.75801 14.5051 8.10059 10.9419C8.23902 7.82948 9.31462 4.83151 11.1864 2.341C11.4553 2.31848 11.7254 2.2998 12 2.2998C12.1417 2.2998 12.2797 2.31506 12.4199 2.32111C12.2297 2.62805 12.056 2.91772 11.9131 3.17725C11.8587 3.26906 11.8232 3.37083 11.8086 3.47656C11.7935 3.58329 11.7999 3.69197 11.8274 3.79621C11.8549 3.90044 11.9029 3.99812 11.9688 4.0835C12.0343 4.16872 12.1159 4.24023 12.209 4.29395C12.3351 4.36501 12.4773 4.40251 12.6221 4.40283H12.6279C12.7706 4.40275 12.9107 4.36412 13.0332 4.29102C13.1554 4.21845 13.2554 4.11374 13.3223 3.98828C13.542 3.60938 13.7803 3.22119 14.0371 2.80957C14.078 2.7244 14.1039 2.6328 14.1137 2.53882C16.4216 3.05259 18.4621 4.39235 19.8509 6.30586C21.2398 8.21936 21.8813 10.5746 21.6545 12.9281C21.4278 15.2816 20.3485 17.4711 18.6198 19.0842C16.8911 20.6973 14.6324 21.6229 12.2688 21.6866Z" fill="#989DAB"/>
<path d="M4.14061 15.3155H4.14256L4.21678 15.315C4.43162 15.2934 4.62926 15.1879 4.76677 15.0214C4.90427 14.8549 4.97053 14.6409 4.95116 14.4258C4.89192 13.9727 4.86224 13.5161 4.86229 13.0591C4.85762 12.9513 4.83173 12.8455 4.78611 12.7478C4.74048 12.65 4.67602 12.5622 4.59641 12.4894C4.51679 12.4166 4.4236 12.3602 4.32216 12.3234C4.22072 12.2867 4.11303 12.2703 4.00526 12.2753C3.89748 12.2802 3.79174 12.3064 3.69409 12.3523C3.59645 12.3981 3.50881 12.4628 3.4362 12.5426C3.36359 12.6224 3.30744 12.7158 3.27096 12.8173C3.23448 12.9188 3.2184 13.0266 3.22362 13.1343C3.23436 13.3223 3.25194 13.5088 3.26854 13.6934C3.29686 13.9937 3.32225 14.2774 3.32323 14.5689C3.34143 14.773 3.43546 14.9629 3.58677 15.1011C3.73808 15.2393 3.93568 15.3158 4.14061 15.3155Z" fill="#989DAB"/>
<path d="M3.74818 10.375C3.84607 10.4386 3.95678 10.4797 4.0724 10.4956H4.22865C4.41153 10.4886 4.5868 10.4206 4.7266 10.3025C4.86639 10.1844 4.96268 10.0229 5.00013 9.84378C5.08419 9.40781 5.19045 8.97643 5.31849 8.55129C5.36916 8.34698 5.3393 8.13101 5.23508 7.94811C5.13087 7.76521 4.96029 7.62942 4.75869 7.56885C4.55709 7.50828 4.33991 7.52758 4.15216 7.62276C3.9644 7.71794 3.82045 7.8817 3.75013 8.08011C3.60387 8.55745 3.48583 9.04299 3.39662 9.5342C3.37334 9.63967 3.373 9.74891 3.39562 9.85452C3.41593 9.96054 3.45782 10.0613 3.51867 10.1504C3.57958 10.2397 3.65759 10.3161 3.74818 10.375Z" fill="#989DAB"/>
<path d="M11.435 5.98146C11.3337 5.94447 11.2262 5.92779 11.1184 5.93239C11.0107 5.93698 10.905 5.96275 10.8072 6.00824C10.7094 6.05372 10.6216 6.11801 10.5487 6.19745C10.4758 6.27689 10.4192 6.36991 10.3823 6.47121C10.2192 6.92189 10.0766 7.38088 9.9487 7.87111C9.91904 7.97581 9.91074 8.0854 9.92428 8.19338C9.94426 8.35676 10.0137 8.51013 10.1233 8.63292C10.2329 8.75571 10.3775 8.84205 10.5376 8.88038C10.574 8.88658 10.6109 8.88968 10.6479 8.88966C10.6796 8.8896 10.7113 8.88732 10.7426 8.88282C10.9136 8.87532 11.0783 8.81645 11.2153 8.71388C11.3625 8.61384 11.4726 8.46816 11.5288 8.29932C11.6381 7.871 11.7697 7.44871 11.9233 7.0342C11.9606 6.93303 11.9776 6.82549 11.9732 6.71774C11.9689 6.61 11.9433 6.50417 11.8979 6.40635C11.8525 6.30853 11.7883 6.22063 11.7088 6.14772C11.6294 6.0748 11.5364 6.0183 11.435 5.98146Z" fill="#989DAB"/>
<path d="M11.0769 16.3248L11.0622 16.2164C11.0494 16.1095 11.0163 16.0061 10.9646 15.9117C10.8703 15.7497 10.7233 15.625 10.5482 15.5584C10.373 15.4917 10.1803 15.4872 10.0022 15.5456C9.82411 15.6039 9.67143 15.7216 9.56967 15.879C9.46791 16.0364 9.42323 16.2239 9.44309 16.4102C9.49387 16.8433 9.57493 17.3531 9.65501 17.8507C9.69069 18.0392 9.79039 18.2096 9.93723 18.3331C10.0847 18.456 10.2706 18.5232 10.4626 18.523L10.6599 18.5186C10.8653 18.466 11.0428 18.3369 11.1563 18.1578C11.2697 17.9786 11.3105 17.7629 11.2702 17.5548C11.1882 17.129 11.1315 16.7203 11.0769 16.3248Z" fill="#989DAB"/>
<path d="M9.78909 13.6158C9.8875 13.6584 9.99337 13.6812 10.1006 13.6827L10.2529 13.6549V13.6436C10.4076 13.6195 10.552 13.5514 10.6689 13.4474C10.828 13.3058 10.9263 13.1083 10.9434 12.8961C10.9473 12.6803 10.9629 12.4664 10.9775 12.2555C10.9941 12.0138 11.0127 11.7638 11.0117 11.5348C11.0204 11.427 11.0076 11.3186 10.9741 11.2159C10.9406 11.1131 10.8871 11.018 10.8166 10.936C10.7461 10.8541 10.6601 10.7869 10.5635 10.7384C10.467 10.6899 10.3617 10.661 10.2539 10.6534C10.1479 10.6445 10.0413 10.6573 9.94043 10.691C9.83884 10.7237 9.74486 10.7765 9.66407 10.8463C9.58271 10.9158 9.51599 11.0008 9.46778 11.0963C9.42186 11.1868 9.39368 11.2852 9.38478 11.3863C9.3146 11.8707 9.28683 12.3604 9.30178 12.8497C9.29992 12.9562 9.31848 13.0621 9.35647 13.1617C9.39445 13.2628 9.45259 13.3552 9.52736 13.4331C9.60191 13.5104 9.69081 13.5725 9.78909 13.6158Z" fill="#989DAB"/>
</g>
<defs>
<clipPath id="clip0_322_7165">
<rect width="24" height="24" fill="white"/>
</clipPath>
</defs>
</svg>
