<svg width="24" height="24" viewBox="0 0 24 24" fill="none" xmlns="http://www.w3.org/2000/svg">
<path d="M13.7602 4.41486C13.7415 3.96392 13.5492 3.53766 13.2235 3.22521C12.8979 2.91275 12.464 2.73828 12.0127 2.73828C11.5613 2.73828 11.1275 2.91275 10.8018 3.22521C10.4761 3.53766 10.2839 3.96392 10.2652 4.41486C10.2659 4.50801 10.274 4.60096 10.2892 4.69286C9.0092 5.15224 7.9015 5.99422 7.11636 7.10459C6.33121 8.21495 5.90662 9.53996 5.90018 10.8999V13.2079C5.90018 13.2079 5.90018 16.5279 5.04818 16.5569C4.93407 16.5486 4.81946 16.5637 4.7114 16.6013C4.60335 16.6389 4.50411 16.6982 4.41978 16.7755C4.33545 16.8528 4.2678 16.9466 4.22099 17.051C4.17418 17.1554 4.14918 17.2682 4.14755 17.3826C4.14591 17.497 4.16766 17.6106 4.21147 17.7163C4.25527 17.822 4.32021 17.9176 4.40229 17.9973C4.48438 18.077 4.58188 18.1391 4.68881 18.1798C4.79575 18.2205 4.90988 18.2389 5.02418 18.2339H19.0012C19.1137 18.2377 19.2259 18.2189 19.331 18.1785C19.4362 18.1382 19.5321 18.077 19.6131 17.9988C19.6941 17.9205 19.7585 17.8268 19.8025 17.7231C19.8465 17.6194 19.8691 17.508 19.8691 17.3954C19.8691 17.2827 19.8465 17.1713 19.8025 17.0676C19.7585 16.9639 19.6941 16.8702 19.6131 16.7919C19.5321 16.7137 19.4362 16.6526 19.331 16.6122C19.2259 16.5718 19.1137 16.553 19.0012 16.5569C18.1302 16.5569 18.1302 13.2319 18.1302 13.2319V10.9039C18.1503 9.53717 17.7361 8.19936 16.9474 7.08303C16.1587 5.96671 15.0361 5.12947 13.7412 4.69186C13.7502 4.59786 13.7602 4.50386 13.7602 4.41486ZM14.6312 19.0619C14.6017 19.7365 14.3129 20.3738 13.8251 20.8408C13.3373 21.3077 12.688 21.5684 12.0127 21.5684C11.3374 21.5684 10.6881 21.3077 10.2003 20.8408C9.71243 20.3738 9.42366 19.7365 9.39417 19.0619H14.6312Z" fill="white"/>
<rect x="11" width="13" height="10" rx="4" fill="#FF262E"/>
<path d="M14.7955 2.10227C15.0947 2.10227 15.3826 2.15246 15.6591 2.25284C15.9375 2.35322 16.1856 2.51326 16.4034 2.73295C16.6231 2.95265 16.7964 3.24432 16.9233 3.60795C17.0521 3.9697 17.1174 4.41383 17.1193 4.94034C17.1193 5.43466 17.0634 5.87595 16.9517 6.2642C16.8419 6.65057 16.6837 6.97917 16.4773 7.25C16.2708 7.52083 16.0218 7.72727 15.7301 7.86932C15.4384 8.00947 15.1127 8.07955 14.7528 8.07955C14.3646 8.07955 14.0218 8.00473 13.7244 7.85511C13.4271 7.7036 13.1875 7.49811 13.0057 7.23864C12.8258 6.97727 12.7169 6.68371 12.679 6.35795H13.892C13.9394 6.57008 14.0388 6.73485 14.1903 6.85227C14.3419 6.9678 14.5294 7.02557 14.7528 7.02557C15.1316 7.02557 15.4195 6.8608 15.6165 6.53125C15.8134 6.19981 15.9129 5.74621 15.9148 5.17045H15.875C15.7879 5.34091 15.6705 5.48769 15.5227 5.6108C15.375 5.73201 15.2055 5.82576 15.0142 5.89205C14.8248 5.95833 14.6231 5.99148 14.4091 5.99148C14.0663 5.99148 13.7604 5.91098 13.4915 5.75C13.2225 5.58902 13.0104 5.36742 12.8551 5.08523C12.6998 4.80303 12.6222 4.48106 12.6222 4.11932C12.6203 3.72917 12.7102 3.38163 12.892 3.0767C13.0739 2.77178 13.3277 2.53314 13.6534 2.3608C13.9811 2.18655 14.3617 2.10038 14.7955 2.10227ZM14.804 3.06818C14.6127 3.06818 14.4422 3.11364 14.2926 3.20455C14.1449 3.29545 14.0275 3.41761 13.9403 3.57102C13.8551 3.72443 13.8134 3.89583 13.8153 4.08523C13.8153 4.27652 13.857 4.44886 13.9403 4.60227C14.0256 4.75379 14.1411 4.875 14.2869 4.96591C14.4347 5.05492 14.6032 5.09943 14.7926 5.09943C14.9347 5.09943 15.0663 5.07292 15.1875 5.01989C15.3087 4.96686 15.4138 4.89394 15.5028 4.80114C15.5938 4.70644 15.6648 4.59754 15.7159 4.47443C15.767 4.35133 15.7926 4.22064 15.7926 4.08239C15.7907 3.89867 15.7472 3.73011 15.6619 3.5767C15.5767 3.4233 15.4593 3.30019 15.3097 3.20739C15.16 3.11458 14.9915 3.06818 14.804 3.06818ZM20.0767 2.10227C20.3759 2.10227 20.6638 2.15246 20.9403 2.25284C21.2188 2.35322 21.4669 2.51326 21.6847 2.73295C21.9044 2.95265 22.0777 3.24432 22.2045 3.60795C22.3333 3.9697 22.3987 4.41383 22.4006 4.94034C22.4006 5.43466 22.3447 5.87595 22.233 6.2642C22.1231 6.65057 21.965 6.97917 21.7585 7.25C21.5521 7.52083 21.303 7.72727 21.0114 7.86932C20.7197 8.00947 20.3939 8.07955 20.0341 8.07955C19.6458 8.07955 19.303 8.00473 19.0057 7.85511C18.7083 7.7036 18.4688 7.49811 18.2869 7.23864C18.107 6.97727 17.9981 6.68371 17.9602 6.35795H19.1733C19.2206 6.57008 19.3201 6.73485 19.4716 6.85227C19.6231 6.9678 19.8106 7.02557 20.0341 7.02557C20.4129 7.02557 20.7008 6.8608 20.8977 6.53125C21.0947 6.19981 21.1941 5.74621 21.196 5.17045H21.1562C21.0691 5.34091 20.9517 5.48769 20.804 5.6108C20.6563 5.73201 20.4867 5.82576 20.2955 5.89205C20.1061 5.95833 19.9044 5.99148 19.6903 5.99148C19.3475 5.99148 19.0417 5.91098 18.7727 5.75C18.5038 5.58902 18.2917 5.36742 18.1364 5.08523C17.9811 4.80303 17.9034 4.48106 17.9034 4.11932C17.9015 3.72917 17.9915 3.38163 18.1733 3.0767C18.3551 2.77178 18.6089 2.53314 18.9347 2.3608C19.2623 2.18655 19.643 2.10038 20.0767 2.10227ZM20.0852 3.06818C19.8939 3.06818 19.7235 3.11364 19.5739 3.20455C19.4261 3.29545 19.3087 3.41761 19.2216 3.57102C19.1364 3.72443 19.0947 3.89583 19.0966 4.08523C19.0966 4.27652 19.1383 4.44886 19.2216 4.60227C19.3068 4.75379 19.4223 4.875 19.5682 4.96591C19.7159 5.05492 19.8845 5.09943 20.0739 5.09943C20.2159 5.09943 20.3475 5.07292 20.4688 5.01989C20.59 4.96686 20.6951 4.89394 20.7841 4.80114C20.875 4.70644 20.946 4.59754 20.9972 4.47443C21.0483 4.35133 21.0739 4.22064 21.0739 4.08239C21.072 3.89867 21.0284 3.73011 20.9432 3.5767C20.858 3.4233 20.7405 3.30019 20.5909 3.20739C20.4413 3.11458 20.2727 3.06818 20.0852 3.06818Z" fill="white"/>
</svg>
