<svg width="24" height="24" viewBox="0 0 24 24" fill="none" xmlns="http://www.w3.org/2000/svg">
<g clip-path="url(#clip0_191_1799)">
<path d="M11.9861 24C9.01147 23.9965 6.14409 22.8883 3.94027 20.8903C1.73646 18.8924 0.35309 16.1474 0.0588684 13.1873C-0.235353 10.2272 0.580352 7.26281 2.34775 4.87012C4.11515 2.47743 6.7085 0.826464 9.62429 0.237502C12.5401 -0.35146 15.5705 0.164022 18.128 1.68311C20.6856 3.2022 22.588 5.61745 23.4658 8.45966C24.3436 11.3019 24.1342 14.368 22.8787 17.0648C21.6231 19.7615 19.4108 21.8961 16.6707 23.0539C15.1888 23.6815 13.5955 24.0032 11.9861 24ZM11.9861 13.9708L15.3534 17.2861C15.5901 17.5187 15.9088 17.649 16.2407 17.6495C16.5736 17.6466 16.8924 17.5167 17.1325 17.2861L17.2916 17.1206C17.4104 17.0062 17.5047 16.8688 17.5693 16.7171C17.6338 16.5653 17.6672 16.4021 17.6672 16.2372C17.6672 16.0722 17.6338 15.909 17.5693 15.7573C17.5047 15.6055 17.4104 15.4682 17.2916 15.3537L13.8436 11.9611L17.299 8.5625C17.4156 8.4487 17.5085 8.3131 17.5717 8.1629C17.6349 8.01269 17.6674 7.85085 17.6672 7.68788C17.6671 7.52317 17.6344 7.3601 17.5712 7.20797C17.5081 7.05585 17.4155 6.91787 17.299 6.80152L17.1325 6.63991C17.0163 6.52325 16.8783 6.43105 16.726 6.36862C16.5737 6.30618 16.4102 6.27497 16.2456 6.27655C15.912 6.27563 15.5913 6.40606 15.3534 6.63991L11.9856 9.95424L8.61843 6.63991C8.38049 6.40606 8.05981 6.27563 7.72619 6.27655C7.56188 6.27515 7.39924 6.30716 7.24726 6.3696C7.09527 6.43203 6.95717 6.52342 6.84129 6.63991L6.67234 6.80152C6.43767 7.03699 6.30536 7.35544 6.30457 7.68788C6.30479 7.85075 6.33745 8.01276 6.40056 8.1629C6.46366 8.31304 6.55615 8.44838 6.67234 8.5625L10.1204 11.9611L6.67234 15.3537C6.55445 15.4687 6.46079 15.6062 6.39762 15.7582C6.33444 15.9103 6.30285 16.0745 6.30457 16.2391C6.3023 16.4035 6.33391 16.5663 6.39713 16.7181C6.46035 16.8698 6.55403 17.0074 6.67234 17.1216L6.83345 17.2871C7.0735 17.5177 7.39283 17.6476 7.7257 17.6505C8.05676 17.6496 8.37414 17.5193 8.61011 17.2871L11.9847 13.9718L11.9861 13.9708Z" fill="#FF262E"/>
</g>
<defs>
<clipPath id="clip0_191_1799">
<rect width="23.9995" height="24" fill="white"/>
</clipPath>
</defs>
</svg>
