<svg width="24" height="24" viewBox="0 0 24 24" fill="none" xmlns="http://www.w3.org/2000/svg">
<g clip-path="url(#clip0_524_2555)">
<path d="M12.2201 9.8501C11.0301 9.8501 10.0701 10.8101 10.0701 12.0001C10.0701 13.1901 11.0301 14.1501 12.2201 14.1501C13.4101 14.1501 14.3701 13.1901 14.3701 12.0001C14.3701 10.8101 13.4101 9.8501 12.2201 9.8501ZM12.2201 12.8501C11.7501 12.8501 11.3701 12.4701 11.3701 12.0001C11.3701 11.5301 11.7501 11.1501 12.2201 11.1501C12.6901 11.1501 13.0701 11.5301 13.0701 12.0001C13.0701 12.4701 12.6901 12.8501 12.2201 12.8501Z" fill="#5A5D62"/>
<path d="M19.56 3.87012H7.55998C6.03998 3.87012 4.80998 5.10012 4.80998 6.62012V6.98012H4.47998C2.95998 6.98012 1.72998 8.21012 1.72998 9.73012V18.7301C1.72998 20.2501 2.95998 21.4801 4.47998 21.4801H16.48C18 21.4801 19.23 20.2501 19.23 18.7301V18.3701H19.56C21.08 18.3701 22.31 17.1401 22.31 15.6201V6.62012C22.31 5.10012 21.08 3.87012 19.56 3.87012ZM17.73 18.7301C17.73 19.4201 17.17 19.9801 16.48 19.9801H4.47998C3.78998 19.9801 3.22998 19.4201 3.22998 18.7301V17.8001L6.78998 15.3901C7.10998 15.1801 7.53998 15.1801 7.84998 15.4101L10.92 17.6901C11.31 17.9801 11.77 18.1201 12.24 18.1201C12.61 18.1201 12.99 18.0301 13.32 17.8401L17.73 15.3801V18.7201V18.7301ZM17.73 13.9001L12.68 16.7101C12.37 16.8801 11.97 16.8601 11.69 16.6501L8.61998 14.3701C7.86998 13.8101 6.83998 13.7901 6.05998 14.3201L3.22998 16.2301V9.73012C3.22998 9.04012 3.78998 8.48012 4.47998 8.48012H16.48C17.17 8.48012 17.73 9.04012 17.73 9.73012V13.9001ZM20.81 15.6201C20.81 16.3101 20.25 16.8701 19.56 16.8701H19.23V9.73012C19.23 8.21012 18 6.98012 16.48 6.98012H6.30998V6.62012C6.30998 5.93012 6.86998 5.37012 7.55998 5.37012H19.56C20.25 5.37012 20.81 5.93012 20.81 6.62012V15.6201Z" fill="#5A5D62"/>
</g>
<defs>
<clipPath id="clip0_524_2555">
<rect width="24" height="24" fill="white"/>
</clipPath>
</defs>
</svg>
