<svg width="24" height="24" viewBox="0 0 24 24" fill="none" xmlns="http://www.w3.org/2000/svg">
<path d="M15.5347 2.57153C15.575 2.57153 15.6153 2.57153 15.6579 2.57153C15.7567 3.79285 15.2906 4.70542 14.724 5.36627C14.1681 6.02256 13.4069 6.65908 12.1757 6.5625C12.0935 5.35867 12.5605 4.51378 13.1263 3.85445C13.651 3.23999 14.613 2.69321 15.5347 2.57153Z" fill="#00A6FF"/>
<path d="M19.2618 15.1082C19.2618 15.1204 19.2618 15.131 19.2618 15.1424C18.9158 16.1904 18.4222 17.0885 17.8199 17.922C17.2701 18.6786 16.5963 19.6969 15.3932 19.6969C14.3537 19.6969 13.6632 19.0284 12.5977 19.0102C11.4707 18.9919 10.8509 19.5691 9.8205 19.7144C9.70262 19.7144 9.58475 19.7144 9.46916 19.7144C8.71249 19.6049 8.10183 19.0056 7.65695 18.4657C6.34513 16.8702 5.33142 14.8093 5.14282 12.172C5.14282 11.9135 5.14282 11.6557 5.14282 11.3971C5.22267 9.5096 6.1398 7.97496 7.35884 7.23122C8.0022 6.83577 8.88663 6.49888 9.87145 6.64946C10.2935 6.71486 10.7247 6.85935 11.1027 7.00232C11.4608 7.13996 11.9088 7.38407 12.3331 7.37115C12.6206 7.36278 12.9065 7.21297 13.1962 7.10726C14.0449 6.80079 14.8769 6.44945 15.9735 6.61447C17.2914 6.81372 18.2268 7.39928 18.8047 8.30273C17.6899 9.01225 16.8085 10.0815 16.9591 11.9074C17.0929 13.566 18.0572 14.5363 19.2618 15.1082Z" fill="#00A6FF"/>
</svg>
