<svg width="24" height="24" viewBox="0 0 24 24" fill="none" xmlns="http://www.w3.org/2000/svg">
<path d="M14.903 16.2249H8.11202C7.79938 16.2014 7.50716 16.0606 7.29394 15.8308C7.08072 15.6009 6.96224 15.299 6.96224 14.9854C6.96224 14.6719 7.08072 14.37 7.29394 14.1401C7.50716 13.9102 7.79938 13.7695 8.11202 13.7459H14.903C15.2157 13.7695 15.5079 13.9102 15.7211 14.1401C15.9343 14.37 16.0528 14.6719 16.0528 14.9854C16.0528 15.299 15.9343 15.6009 15.7211 15.8308C15.5079 16.0606 15.2157 16.2014 14.903 16.2249ZM8.14102 7.95994H11.563C11.8812 7.9756 12.1812 8.11302 12.4009 8.34376C12.6205 8.57449 12.743 8.88087 12.743 9.19944C12.743 9.51801 12.6205 9.82438 12.4009 10.0551C12.1812 10.2859 11.8812 10.4233 11.563 10.4389H8.14102C7.82283 10.4233 7.52286 10.2859 7.3032 10.0551C7.08354 9.82438 6.96102 9.51801 6.96102 9.19944C6.96102 8.88087 7.08354 8.57449 7.3032 8.34376C7.52286 8.11302 7.82283 7.9756 8.14102 7.95994ZM20.524 10.0339C20.124 9.86994 18.402 10.0519 17.924 9.63394C17.586 9.33394 17.564 8.79794 17.433 8.07894C17.3589 7.4036 17.1759 6.74474 16.891 6.12794C16.4466 5.25207 15.7851 4.50475 14.9696 3.95731C14.1541 3.40988 13.212 3.08061 12.233 3.00094H8.02302C6.46365 2.96974 4.95521 3.55644 3.82671 4.63305C2.69821 5.70966 2.04121 7.18883 1.99902 8.74794V15.4479C2.04199 17.0058 2.69959 18.4834 3.82824 19.5581C4.95689 20.6328 6.46491 21.2173 8.02302 21.1839H14.947C16.5038 21.2133 18.0095 20.6277 19.1372 19.554C20.265 18.4804 20.9239 17.0053 20.971 15.4489L21.009 10.8079C21.0077 10.6469 20.9617 10.4895 20.876 10.3531C20.7904 10.2168 20.6685 10.107 20.524 10.0359" fill="#FF6500"/>
</svg>
