<svg width="27" height="28" viewBox="0 0 27 28" fill="none" xmlns="http://www.w3.org/2000/svg">
<path d="M18.193 3.3125H8.7919C6.14309 3.3125 3.99365 5.4728 3.99365 8.1216V19.8784C3.99365 22.5381 6.14309 24.6875 8.7919 24.6875H18.2038C20.8527 24.6875 23.0021 22.5272 23.0021 19.8784V8.1216C23.0021 5.46194 20.8527 3.3125 18.2038 3.3125H18.193ZM21.1458 19.8893C21.1458 21.5285 19.8214 22.8529 18.193 22.8529H8.7919C7.16354 22.8529 5.83913 21.5176 5.83913 19.8893V8.1216C5.83913 6.48238 7.16354 5.15798 8.7919 5.15798H18.2038C19.8322 5.15798 21.1566 6.49324 21.1566 8.1216V19.8784L21.1458 19.8893Z" fill="#989DAB"/>
<path d="M18.3341 8.10007H8.65077C8.14055 8.10007 7.72803 8.51259 7.72803 9.02281C7.72803 9.53303 8.14055 9.94555 8.65077 9.94555H18.3341C18.8443 9.94555 19.2568 9.53303 19.2568 9.02281C19.2568 8.51259 18.8443 8.10007 18.3341 8.10007Z" fill="#989DAB"/>
<path d="M18.3341 12.7029H8.65077C8.14055 12.7029 7.72803 13.1154 7.72803 13.6256C7.72803 14.1359 8.14055 14.5484 8.65077 14.5484H18.3341C18.8443 14.5484 19.2568 14.1359 19.2568 13.6256C19.2568 13.1154 18.8443 12.7029 18.3341 12.7029Z" fill="#989DAB"/>
<path d="M14.8551 17.3057H8.47593C8.06238 17.3057 7.72803 17.7182 7.72803 18.2285C7.72803 18.7387 8.06238 19.1512 8.47593 19.1512H14.8551C15.2687 19.1512 15.603 18.7387 15.603 18.2285C15.603 17.7182 15.2687 17.3057 14.8551 17.3057Z" fill="#989DAB"/>
</svg>
