<svg width="24" height="24" viewBox="0 0 24 24" fill="none" xmlns="http://www.w3.org/2000/svg">
<path d="M19.1977 5.6096C19.2118 5.41493 19.1845 5.21948 19.1176 5.0361C19.0165 4.76337 18.8301 4.53051 18.586 4.37215C18.3419 4.21378 18.0531 4.13837 17.7627 4.15711C17.7141 4.15964 17.6665 4.17174 17.6226 4.1927C17.5791 4.21413 17.54 4.24362 17.5075 4.2796C17.4757 4.31615 17.4512 4.35854 17.4355 4.4044C17.4196 4.45029 17.4134 4.499 17.4175 4.5474C17.4238 4.63677 17.4621 4.72086 17.5255 4.78421C17.5952 4.8558 17.689 4.89911 17.7887 4.9058C17.956 4.92953 18.1122 5.0031 18.237 5.1169C18.3509 5.24077 18.4224 5.39764 18.4411 5.5648C18.4546 5.66372 18.4995 5.75569 18.5692 5.8272C18.6311 5.89288 18.7162 5.9319 18.8064 5.936C18.9013 5.94329 18.9953 5.91324 19.0684 5.85228C19.1415 5.79131 19.1879 5.70424 19.1977 5.6096Z" fill="#989DAB" stroke="#989DAB" stroke-width="0.3"/>
<mask id="path-2-inside-1_60_1014" fill="white">
<path d="M21.9008 5.09606C22.0281 4.60292 22.0329 4.08621 21.9151 3.59076C21.7972 3.09531 21.5601 2.6361 21.2244 2.25296C20.9509 2.00012 20.6301 1.80367 20.2805 1.67486C19.9309 1.54604 19.5593 1.48739 19.187 1.50226C18.9162 1.50441 18.6461 1.52954 18.3795 1.57736C17.2418 1.80864 16.199 2.37384 15.3845 3.20066C15.0743 3.51026 14.4919 4.12026 13.7224 4.94596L5.36583 2.47816C5.29227 2.45644 5.21632 2.44381 5.13968 2.44056C5.03491 2.44044 4.93115 2.46111 4.83444 2.50138C4.73773 2.54166 4.64999 2.60072 4.5763 2.67516L2.79312 4.45806C2.64247 4.6061 2.5568 4.80786 2.55492 5.01899C2.55305 5.23012 2.63512 5.43336 2.78311 5.58406C2.81676 5.61989 2.85474 5.6514 2.89619 5.67786L9.05528 9.96606L8.68904 10.3602C8.14468 10.9514 7.60932 11.5331 7.11199 12.0774L3.5156 11.3548C3.4632 11.3439 3.40997 11.3377 3.35649 11.3361C3.25169 11.3357 3.14787 11.3563 3.05113 11.3966C2.95439 11.4369 2.86667 11.496 2.79312 11.5707L1.23406 13.1283C1.14572 13.215 1.07925 13.3215 1.04011 13.439C1.00097 13.5564 0.990274 13.6815 1.00891 13.8039C1.03498 13.9766 1.11358 14.1371 1.23406 14.2637C1.28573 14.3132 1.3424 14.3572 1.40317 14.3951L3.77875 15.7463C3.7045 15.8966 3.6799 16.0667 3.70849 16.2319C3.73708 16.3971 3.81739 16.549 3.93786 16.6658L4.82045 17.5479L4.56728 17.8012C4.41621 17.9534 4.33165 18.1592 4.33212 18.3736C4.33192 18.4783 4.35261 18.582 4.39299 18.6787C4.43336 18.7754 4.49262 18.863 4.56728 18.9366C4.64103 19.0109 4.72879 19.0699 4.82548 19.1102C4.92218 19.1504 5.0259 19.1712 5.13065 19.1712C5.23541 19.1712 5.33912 19.1504 5.43582 19.1102C5.53251 19.0699 5.62027 19.0109 5.69403 18.9366L5.9472 18.6926L6.79276 19.5372C6.91446 19.6561 7.07008 19.7345 7.23819 19.7613C7.4063 19.7882 7.57861 19.7623 7.73138 19.6873L9.1123 22.1082C9.14513 22.1721 9.18958 22.2294 9.24339 22.2771C9.36766 22.401 9.52955 22.4802 9.70369 22.5023H9.80676C9.91156 22.5026 10.0154 22.482 10.1121 22.4417C10.2089 22.4014 10.2966 22.3423 10.3701 22.2677L11.9292 20.7101C12.0224 20.6171 12.091 20.5023 12.1285 20.3761C12.1661 20.2499 12.1715 20.1164 12.1443 19.9876L11.4028 16.328C11.8071 15.9527 12.2294 15.568 12.6707 15.1645C12.9429 14.9111 13.215 14.6578 13.4972 14.4044L17.8161 20.6069C17.8161 20.6069 17.8721 20.6819 17.9002 20.7101C18.0346 20.8428 18.2104 20.9256 18.3985 20.9447C18.5155 20.9539 18.6332 20.9377 18.7434 20.8972C18.8536 20.8567 18.9537 20.7929 19.0369 20.7101L20.8211 18.9272C20.9229 18.8243 20.9949 18.6959 21.0296 18.5555C21.0643 18.4151 21.0604 18.2679 21.0182 18.1296L18.5296 9.71276C19.4682 8.84006 19.9855 8.34276 20.2477 8.07996C21.0845 7.2726 21.6603 6.23334 21.9008 5.09606ZM10.4922 19.8843L9.9849 20.391L8.96122 18.5894C9.27143 18.3079 9.63767 17.9701 10.0419 17.5948L10.5012 19.875L10.4922 19.8843ZM5.83514 13.4567C5.4689 13.8602 5.13968 14.2168 4.85849 14.517L3.10232 13.513L3.60966 13.0063L5.82513 13.4567H5.83514ZM12.5016 6.25026C11.7131 7.09476 10.9145 7.95806 10.154 8.78376L4.59532 4.91776L5.36583 4.14836L12.5016 6.25026ZM8.59598 16.0465C8.74501 15.8968 8.82912 15.6946 8.83013 15.4835C8.82919 15.2696 8.74525 15.0644 8.59598 14.9111C8.52308 14.8356 8.43548 14.7758 8.33859 14.7355C8.24169 14.6952 8.13756 14.6751 8.0326 14.6766C7.81866 14.6794 7.61375 14.7632 7.45922 14.9111L5.94722 16.4219L5.60999 16.0841C8.55795 12.875 15.2344 5.62156 16.5293 4.34546C17.116 3.74576 17.8681 3.33418 18.6897 3.16316C18.8564 3.12975 19.0261 3.114 19.1961 3.11616C19.5216 3.09135 19.8442 3.19209 20.0977 3.39766C20.2411 3.59911 20.3367 3.83051 20.3775 4.07434C20.4182 4.31818 20.4029 4.56808 20.3328 4.80516C20.1591 5.62521 19.7474 6.37589 19.1491 6.96336C17.7501 8.36146 9.39356 16.0278 7.39318 17.8669L7.09298 17.5666L8.60498 16.0559L8.59598 16.0465ZM15.2524 12.7999C15.9569 12.1524 16.6233 11.5331 17.2437 10.9514L19.3651 18.139L18.5956 18.9085L14.699 13.316L15.2524 12.8093V12.7999Z"/>
</mask>
<path d="M21.9008 5.09606C22.0281 4.60292 22.0329 4.08621 21.9151 3.59076C21.7972 3.09531 21.5601 2.6361 21.2244 2.25296C20.9509 2.00012 20.6301 1.80367 20.2805 1.67486C19.9309 1.54604 19.5593 1.48739 19.187 1.50226C18.9162 1.50441 18.6461 1.52954 18.3795 1.57736C17.2418 1.80864 16.199 2.37384 15.3845 3.20066C15.0743 3.51026 14.4919 4.12026 13.7224 4.94596L5.36583 2.47816C5.29227 2.45644 5.21632 2.44381 5.13968 2.44056C5.03491 2.44044 4.93115 2.46111 4.83444 2.50138C4.73773 2.54166 4.64999 2.60072 4.5763 2.67516L2.79312 4.45806C2.64247 4.6061 2.5568 4.80786 2.55492 5.01899C2.55305 5.23012 2.63512 5.43336 2.78311 5.58406C2.81676 5.61989 2.85474 5.6514 2.89619 5.67786L9.05528 9.96606L8.68904 10.3602C8.14468 10.9514 7.60932 11.5331 7.11199 12.0774L3.5156 11.3548C3.4632 11.3439 3.40997 11.3377 3.35649 11.3361C3.25169 11.3357 3.14787 11.3563 3.05113 11.3966C2.95439 11.4369 2.86667 11.496 2.79312 11.5707L1.23406 13.1283C1.14572 13.215 1.07925 13.3215 1.04011 13.439C1.00097 13.5564 0.990274 13.6815 1.00891 13.8039C1.03498 13.9766 1.11358 14.1371 1.23406 14.2637C1.28573 14.3132 1.3424 14.3572 1.40317 14.3951L3.77875 15.7463C3.7045 15.8966 3.6799 16.0667 3.70849 16.2319C3.73708 16.3971 3.81739 16.549 3.93786 16.6658L4.82045 17.5479L4.56728 17.8012C4.41621 17.9534 4.33165 18.1592 4.33212 18.3736C4.33192 18.4783 4.35261 18.582 4.39299 18.6787C4.43336 18.7754 4.49262 18.863 4.56728 18.9366C4.64103 19.0109 4.72879 19.0699 4.82548 19.1102C4.92218 19.1504 5.0259 19.1712 5.13065 19.1712C5.23541 19.1712 5.33912 19.1504 5.43582 19.1102C5.53251 19.0699 5.62027 19.0109 5.69403 18.9366L5.9472 18.6926L6.79276 19.5372C6.91446 19.6561 7.07008 19.7345 7.23819 19.7613C7.4063 19.7882 7.57861 19.7623 7.73138 19.6873L9.1123 22.1082C9.14513 22.1721 9.18958 22.2294 9.24339 22.2771C9.36766 22.401 9.52955 22.4802 9.70369 22.5023H9.80676C9.91156 22.5026 10.0154 22.482 10.1121 22.4417C10.2089 22.4014 10.2966 22.3423 10.3701 22.2677L11.9292 20.7101C12.0224 20.6171 12.091 20.5023 12.1285 20.3761C12.1661 20.2499 12.1715 20.1164 12.1443 19.9876L11.4028 16.328C11.8071 15.9527 12.2294 15.568 12.6707 15.1645C12.9429 14.9111 13.215 14.6578 13.4972 14.4044L17.8161 20.6069C17.8161 20.6069 17.8721 20.6819 17.9002 20.7101C18.0346 20.8428 18.2104 20.9256 18.3985 20.9447C18.5155 20.9539 18.6332 20.9377 18.7434 20.8972C18.8536 20.8567 18.9537 20.7929 19.0369 20.7101L20.8211 18.9272C20.9229 18.8243 20.9949 18.6959 21.0296 18.5555C21.0643 18.4151 21.0604 18.2679 21.0182 18.1296L18.5296 9.71276C19.4682 8.84006 19.9855 8.34276 20.2477 8.07996C21.0845 7.2726 21.6603 6.23334 21.9008 5.09606ZM10.4922 19.8843L9.9849 20.391L8.96122 18.5894C9.27143 18.3079 9.63767 17.9701 10.0419 17.5948L10.5012 19.875L10.4922 19.8843ZM5.83514 13.4567C5.4689 13.8602 5.13968 14.2168 4.85849 14.517L3.10232 13.513L3.60966 13.0063L5.82513 13.4567H5.83514ZM12.5016 6.25026C11.7131 7.09476 10.9145 7.95806 10.154 8.78376L4.59532 4.91776L5.36583 4.14836L12.5016 6.25026ZM8.59598 16.0465C8.74501 15.8968 8.82912 15.6946 8.83013 15.4835C8.82919 15.2696 8.74525 15.0644 8.59598 14.9111C8.52308 14.8356 8.43548 14.7758 8.33859 14.7355C8.24169 14.6952 8.13756 14.6751 8.0326 14.6766C7.81866 14.6794 7.61375 14.7632 7.45922 14.9111L5.94722 16.4219L5.60999 16.0841C8.55795 12.875 15.2344 5.62156 16.5293 4.34546C17.116 3.74576 17.8681 3.33418 18.6897 3.16316C18.8564 3.12975 19.0261 3.114 19.1961 3.11616C19.5216 3.09135 19.8442 3.19209 20.0977 3.39766C20.2411 3.59911 20.3367 3.83051 20.3775 4.07434C20.4182 4.31818 20.4029 4.56808 20.3328 4.80516C20.1591 5.62521 19.7474 6.37589 19.1491 6.96336C17.7501 8.36146 9.39356 16.0278 7.39318 17.8669L7.09298 17.5666L8.60498 16.0559L8.59598 16.0465ZM15.2524 12.7999C15.9569 12.1524 16.6233 11.5331 17.2437 10.9514L19.3651 18.139L18.5956 18.9085L14.699 13.316L15.2524 12.8093V12.7999Z" fill="#989DAB" stroke="#989DAB" stroke-width="2" mask="url(#path-2-inside-1_60_1014)"/>
</svg>
