<svg width="20" height="20" viewBox="0 0 20 20" fill="none" xmlns="http://www.w3.org/2000/svg">
<path d="M12.616 13.6697L13.9286 7.48228C14.0446 6.93772 13.732 6.72342 13.3749 6.85714L5.66058 9.83028C5.1337 10.0354 5.14286 10.3303 5.57142 10.464L7.54458 11.08L12.1251 8.196C12.3394 8.05314 12.536 8.13372 12.3754 8.27658L8.67028 11.6246L8.52742 13.6606C8.73258 13.6606 8.82228 13.5714 8.92914 13.464L9.89314 12.5354L11.8931 14.0086C12.2594 14.2137 12.5183 14.1069 12.6166 13.6691L12.616 13.6697ZM18 10C18 14.4194 14.4194 18 10 18C5.58058 18 2 14.4194 2 10C2 5.58058 5.58058 2 10 2C14.4194 2 18 5.58058 18 10Z" fill="#1296DB"/>
</svg>
