<svg width="24" height="24" viewBox="0 0 24 24" fill="none" xmlns="http://www.w3.org/2000/svg">
<path d="M6.6031 3H17.4028C18.3576 3 19.2733 3.3793 19.9485 4.05446C20.6236 4.72963 21.0029 5.64534 21.0029 6.60017V17.3998C21.0029 18.3547 20.6236 19.2704 19.9485 19.9455C19.2733 20.6207 18.3576 21 17.4028 21H6.6031C5.64827 21 4.73255 20.6207 4.05739 19.9455C3.38223 19.2704 3.00293 18.3547 3.00293 17.3998V6.60017C3.00293 5.64534 3.38223 4.72963 4.05739 4.05446C4.73255 3.3793 5.64827 3 6.6031 3ZM6.6031 4.80009C6.12568 4.80009 5.66783 4.98974 5.33025 5.32732C4.99267 5.6649 4.80302 6.12275 4.80302 6.60017V17.3998C4.80302 17.8772 4.99267 18.3351 5.33025 18.6727C5.66783 19.0103 6.12568 19.1999 6.6031 19.1999H17.4028C17.8802 19.1999 18.338 19.0103 18.6756 18.6727C19.0132 18.3351 19.2029 17.8772 19.2029 17.3998V6.60017C19.2029 6.12275 19.0132 5.6649 18.6756 5.32732C18.338 4.98974 17.8802 4.80009 17.4028 4.80009H6.6031ZM8.40318 9.30029C8.16447 9.30029 7.93554 9.20547 7.76675 9.03668C7.59796 8.86788 7.50313 8.63896 7.50313 8.40025C7.50313 8.16155 7.59796 7.93261 7.76675 7.76382C7.93554 7.59503 8.16447 7.50021 8.40318 7.50021H12.9034C13.1421 7.50021 13.371 7.59503 13.5398 7.76382C13.7086 7.93261 13.8034 8.16155 13.8034 8.40025C13.8034 8.63896 13.7086 8.86788 13.5398 9.03668C13.371 9.20547 13.1421 9.30029 12.9034 9.30029H8.40318ZM8.40318 16.5039C8.16447 16.5039 7.93554 16.4091 7.76675 16.2403C7.59796 16.0715 7.50313 15.8426 7.50313 15.6039C7.50313 15.3652 7.59796 15.1363 7.76675 14.9675C7.93554 14.7987 8.16447 14.7039 8.40318 14.7039H11.1033C11.342 14.7039 11.5709 14.7987 11.7397 14.9675C11.9085 15.1363 12.0033 15.3652 12.0033 15.6039C12.0033 15.8426 11.9085 16.0715 11.7397 16.2403C11.5709 16.4091 11.342 16.5039 11.1033 16.5039H8.40318ZM8.40318 12.9038C8.16447 12.9038 7.93554 12.8089 7.76675 12.6402C7.59796 12.4714 7.50313 12.2424 7.50313 12.0037C7.50313 11.765 7.59796 11.5361 7.76675 11.3673C7.93554 11.1985 8.16447 11.1037 8.40318 11.1037H15.6068C15.8455 11.1037 16.0745 11.1985 16.2432 11.3673C16.412 11.5361 16.5069 11.765 16.5069 12.0037C16.5069 12.2424 16.412 12.4714 16.2432 12.6402C16.0745 12.8089 15.8455 12.9038 15.6068 12.9038H8.40318Z" fill="#5A5D62"/>
</svg>
