<svg width="20" height="20" viewBox="0 0 20 20" fill="none" xmlns="http://www.w3.org/2000/svg">
<circle cx="10" cy="10" r="8" fill="#00A6FF"/>
<path d="M14.1405 8.1585L9.58735 12.7231C9.53225 12.7783 9.46679 12.8222 9.39472 12.8521C9.32265 12.882 9.24538 12.8974 9.16735 12.8974C9.08932 12.8974 9.01205 12.882 8.93998 12.8521C8.86791 12.8222 8.80245 12.7783 8.74735 12.7231L6.17478 10.1436C6.11947 10.0885 6.07557 10.023 6.04558 9.95086C6.0156 9.87874 6.00011 9.80141 6 9.72331C5.99989 9.6452 6.01517 9.56784 6.04497 9.49563C6.07476 9.42343 6.11848 9.3578 6.17364 9.3025C6.22879 9.24719 6.2943 9.20329 6.36642 9.17331C6.43854 9.14332 6.51586 9.12783 6.59397 9.12772C6.67208 9.12762 6.74944 9.14289 6.82164 9.17269C6.89385 9.20248 6.95947 9.2462 7.01478 9.30136L9.16792 11.4602L13.3005 7.31621C13.4122 7.20482 13.5636 7.14236 13.7213 7.14258C13.879 7.14279 14.0302 7.20566 14.1416 7.31736C14.253 7.42905 14.3155 7.58042 14.3153 7.73816C14.3151 7.89591 14.2522 8.04711 14.1405 8.1585Z" fill="white"/>
</svg>
