<svg width="24" height="24" viewBox="0 0 24 24" fill="none" xmlns="http://www.w3.org/2000/svg">
<path d="M16.8939 13.8951C16.9184 13.7015 16.9792 13.5144 17.0731 13.3434C17.1814 13.1462 17.3408 12.9876 17.4723 12.8566C17.4843 12.8448 17.496 12.8331 17.5074 12.8217L20.6341 9.69099C20.9307 9.39403 21.1157 9.20764 21.2359 9.06314C21.2669 9.02584 21.288 8.99764 21.302 8.97759C21.2789 8.9696 21.2453 8.95919 21.1982 8.94725C21.0161 8.90097 20.7568 8.85897 20.3423 8.79304L15.9726 8.09808C15.9567 8.09554 15.9403 8.093 15.9237 8.0904C15.7403 8.06177 15.5181 8.02711 15.3146 7.93128C15.1381 7.84817 14.9789 7.73249 14.8453 7.59031C14.6913 7.42636 14.5897 7.22583 14.5058 7.06022C14.4982 7.04518 14.4907 7.03044 14.4833 7.01604L12.4721 3.07498C12.2813 2.70115 12.1612 2.46752 12.0609 2.3086C12.035 2.26757 12.0147 2.2388 12 2.21927C11.9853 2.2388 11.965 2.26757 11.9391 2.3086C11.8388 2.46752 11.7187 2.70115 11.5279 3.07498L9.51667 7.01604C9.50932 7.03044 9.50185 7.04518 9.49424 7.06021C9.41033 7.22582 9.30873 7.42636 9.15469 7.5903C9.02111 7.73249 8.86188 7.84817 8.68538 7.93128C8.48186 8.02711 8.25974 8.06177 8.07631 8.0904C8.05966 8.09299 8.04333 8.09554 8.02736 8.09808L3.65768 8.79304C3.24319 8.85897 2.9839 8.90097 2.80176 8.94725C2.75474 8.95919 2.7211 8.96961 2.69797 8.97759C2.71199 8.99764 2.73309 9.02584 2.7641 9.06314C2.88425 9.20764 3.06934 9.39403 3.36592 9.69099L6.49258 12.8217C6.50401 12.8331 6.51572 12.8448 6.52766 12.8566C6.65924 12.9876 6.81856 13.1462 6.92688 13.3434L6.26956 13.7045L6.92688 13.3434C7.02082 13.5144 7.08164 13.7015 7.10614 13.8951C7.1344 14.1183 7.09872 14.3402 7.06926 14.5235C7.06659 14.5402 7.06396 14.5565 7.06144 14.5724L6.37209 18.943C6.3067 19.3576 6.26651 19.6172 6.25425 19.8047C6.25108 19.8531 6.25059 19.8883 6.25103 19.9128C6.27443 19.9056 6.30777 19.8943 6.35283 19.8763C6.52739 19.8067 6.76185 19.6883 7.13593 19.498L11.0796 17.4918C11.094 17.4844 11.1087 17.4769 11.1237 17.4692C11.2889 17.3846 11.489 17.282 11.7099 17.2399C11.9016 17.2034 12.0984 17.2034 12.2901 17.2399C12.511 17.282 12.7111 17.3846 12.8763 17.4692C12.8913 17.4769 12.906 17.4844 12.9204 17.4918L16.8641 19.498C17.2382 19.6883 17.4726 19.8067 17.6472 19.8763C17.6922 19.8943 17.7256 19.9056 17.749 19.9128C17.7494 19.8883 17.7489 19.8531 17.7458 19.8047C17.7335 19.6172 17.6933 19.3576 17.6279 18.943L16.9386 14.5724C16.936 14.5565 16.9334 14.5402 16.9307 14.5235C16.9013 14.3402 16.8656 14.1183 16.8939 13.8951ZM16.8939 13.8951C16.8939 13.8951 16.8939 13.8951 16.8939 13.8951L17.6379 13.9893L16.8939 13.8951Z" stroke="#262B33" stroke-width="1.5"/>
</svg>
