<svg width="24" height="24" viewBox="0 0 24 24" fill="none" xmlns="http://www.w3.org/2000/svg">
<path d="M19.2301 3.98989C19.6014 3.98989 19.9575 4.13739 20.2201 4.39994C20.4826 4.66249 20.6301 5.01859 20.6301 5.38989V11.1099C20.6301 11.4812 20.4826 11.8373 20.2201 12.0998C19.9575 12.3624 19.6014 12.5099 19.2301 12.5099H10.1201C9.74881 12.5099 9.39272 12.3624 9.13017 12.0998C8.86762 11.8373 8.72012 11.4812 8.72012 11.1099V5.38989C8.72012 5.01859 8.86762 4.66249 9.13017 4.39994C9.39272 4.13739 9.74881 3.98989 10.1201 3.98989H19.2301ZM19.2301 2.38989H10.1201C9.32447 2.38989 8.56141 2.70596 7.9988 3.26857C7.43619 3.83118 7.12012 4.59424 7.12012 5.38989V11.1099C7.12012 11.9055 7.43619 12.6686 7.9988 13.2312C8.56141 13.7938 9.32447 14.1099 10.1201 14.1099H19.2301C20.0258 14.1099 20.7888 13.7938 21.3514 13.2312C21.914 12.6686 22.2301 11.9055 22.2301 11.1099V5.38989C22.2301 4.59424 21.914 3.83118 21.3514 3.26857C20.7888 2.70596 20.0258 2.38989 19.2301 2.38989Z" fill="#5A5D62"/>
<path d="M13.7401 18.7598C13.7401 18.5211 13.6452 18.2922 13.4765 18.1234C13.3077 17.9546 13.0788 17.8598 12.8401 17.8598H4.77007C4.18659 17.8598 3.62701 17.628 3.21443 17.2154C2.80185 16.8029 2.57007 16.2433 2.57007 15.6598V8.2498C2.5727 7.66714 2.80533 7.10909 3.21734 6.69708C3.62935 6.28506 4.1874 6.05244 4.77007 6.0498H16.0701C16.6527 6.05244 17.2108 6.28506 17.6228 6.69708C18.0348 7.10909 18.2674 7.66714 18.2701 8.2498V16.6798C18.2684 17.0624 18.167 17.438 17.9759 17.7694C17.7847 18.1009 17.5104 18.3768 17.1801 18.5698L13.7401 20.5698V18.7598Z" fill="white"/>
<path d="M16.07 6.85C16.2539 6.85 16.4359 6.88621 16.6058 6.95657C16.7756 7.02693 16.93 7.13005 17.06 7.26005C17.19 7.39005 17.2931 7.54439 17.3635 7.71424C17.4338 7.8841 17.47 8.06615 17.47 8.25V16.68C17.4699 16.9229 17.4061 17.1615 17.285 17.372C17.164 17.5825 16.9898 17.7577 16.78 17.88L14.54 19.19V18.76C14.54 18.3091 14.3609 17.8767 14.0421 17.5579C13.7233 17.2391 13.2909 17.06 12.84 17.06H4.77002C4.39872 17.06 4.04262 16.9125 3.78007 16.65C3.51752 16.3874 3.37002 16.0313 3.37002 15.66V8.25C3.37002 8.06615 3.40623 7.8841 3.47659 7.71424C3.54694 7.54439 3.65007 7.39005 3.78007 7.26005C3.91007 7.13005 4.06441 7.02693 4.23426 6.95657C4.40412 6.88621 4.58617 6.85 4.77002 6.85H16.07ZM16.07 5.25H4.77002C3.97437 5.25 3.21131 5.56607 2.6487 6.12868C2.08609 6.69129 1.77002 7.45435 1.77002 8.25V15.66C1.77002 16.4556 2.08609 17.2187 2.6487 17.7813C3.21131 18.3439 3.97437 18.66 4.77002 18.66H12.84C12.8658 18.6623 12.8899 18.6735 12.9082 18.6918C12.9265 18.7101 12.9378 18.7342 12.94 18.76V21.11C12.9387 21.176 12.9507 21.2417 12.9753 21.3029C13 21.3642 13.0367 21.4199 13.0834 21.4666C13.1301 21.5133 13.1858 21.5501 13.2471 21.5747C13.3084 21.5994 13.374 21.6114 13.44 21.61C13.5392 21.6117 13.6367 21.5839 13.72 21.53L17.59 19.27C18.0412 19.0049 18.4151 18.6263 18.6748 18.172C18.9344 17.7176 19.0706 17.2033 19.07 16.68V8.25C19.07 7.45435 18.754 6.69129 18.1913 6.12868C17.6287 5.56607 16.8657 5.25 16.07 5.25Z" fill="#5A5D62"/>
<path d="M8.90005 10.0898C8.89544 9.79059 8.99834 9.49963 9.19005 9.26982C9.36732 9.08756 9.58386 8.94818 9.82317 8.8623C10.0625 8.77643 10.3182 8.74633 10.5709 8.7743C10.8237 8.80227 11.0666 8.88757 11.2814 9.02371C11.4961 9.15984 11.6769 9.3432 11.8101 9.55982C11.9154 9.74225 11.9708 9.94918 11.9708 10.1598C11.9708 10.3705 11.9154 10.5774 11.8101 10.7598C11.5278 11.1581 11.1912 11.5149 10.8101 11.8198C10.5551 12.0683 10.3928 12.3964 10.3501 12.7498" stroke="#5A5D62" stroke-width="1.4" stroke-miterlimit="10" stroke-linecap="round"/>
<path d="M10.36 15.7999C10.8129 15.7999 11.18 15.4328 11.18 14.9799C11.18 14.527 10.8129 14.1599 10.36 14.1599C9.90717 14.1599 9.54004 14.527 9.54004 14.9799C9.54004 15.4328 9.90717 15.7999 10.36 15.7999Z" fill="#5A5D62"/>
</svg>
