<svg width="24" height="24" viewBox="0 0 24 24" fill="none" xmlns="http://www.w3.org/2000/svg">
<g clip-path="url(#clip0_541_2551)">
<path d="M9.61698 2.55431L3.06841 6.94288C2.11698 7.57717 1.55127 8.64859 1.55127 9.7886V19.3886C1.55127 20.8115 2.69984 21.96 4.1227 21.96H19.8941C21.317 21.96 22.4656 20.8115 22.4656 19.3886V9.7886C22.4656 8.64859 21.8998 7.57717 20.9484 6.94288L14.3998 2.55431C12.9598 1.58574 11.0741 1.58574 9.62556 2.55431H9.61698Z" fill="#00A6FF"/>
<path d="M15.48 17H9.02C8.45667 17 8 17.4477 8 18C8 18.5523 8.45667 19 9.02 19H15.48C16.0433 19 16.5 18.5523 16.5 18C16.5 17.4477 16.0433 17 15.48 17Z" fill="white"/>
</g>
<defs>
<clipPath id="clip0_541_2551">
<rect width="24" height="24" fill="white"/>
</clipPath>
</defs>
</svg>
