<svg width="16" height="16" viewBox="0 0 16 16" fill="none" xmlns="http://www.w3.org/2000/svg">
<g clip-path="url(#clip0_259_4162)">
<path d="M13.7046 14.5C13.6 14.5 13.4966 14.4793 13.4 14.4393C13.3035 14.3993 13.2158 14.3406 13.1419 14.2666L9.89697 11.0167C9.81971 10.9437 9.75785 10.8559 9.71509 10.7586C9.67233 10.6612 9.64954 10.5563 9.64803 10.45C9.64652 10.3437 9.66633 10.2382 9.7063 10.1397C9.74627 10.0411 9.80558 9.95163 9.88074 9.87643C9.95589 9.80123 10.0453 9.74185 10.1438 9.70182C10.2423 9.66179 10.3478 9.64193 10.4541 9.64338C10.5604 9.64484 10.6654 9.66758 10.7627 9.71028C10.8601 9.75299 10.9479 9.81479 11.021 9.89201L14.2666 13.1419C14.3777 13.2531 14.4533 13.3948 14.4839 13.549C14.5145 13.7031 14.4988 13.8629 14.4387 14.0082C14.3785 14.1534 14.2767 14.2776 14.1461 14.365C14.0154 14.4524 13.8618 14.4998 13.7046 14.5Z" fill="#262B33"/>
<path d="M6.83334 12.1684C5.7785 12.1684 4.74736 11.8556 3.87029 11.2696C2.99323 10.6835 2.30965 9.8505 1.90598 8.87591C1.50231 7.90132 1.39669 6.82891 1.60248 5.79429C1.80827 4.75968 2.31622 3.80932 3.0621 3.0634C3.80798 2.31748 4.75829 1.80951 5.79285 1.60371C6.82742 1.39791 7.89977 1.50353 8.87431 1.90722C9.84885 2.31091 10.6818 2.99453 11.2678 3.87164C11.8539 4.74874 12.1667 5.77994 12.1667 6.83483C12.1651 8.2489 11.6027 9.6046 10.6028 10.6045C9.60297 11.6044 8.24734 12.1668 6.83334 12.1684ZM6.83334 2.81396C6.03831 2.81409 5.26118 3.04997 4.60019 3.49176C3.93921 3.93356 3.42406 4.56144 3.11988 5.296C2.8157 6.03057 2.73614 6.83885 2.89128 7.61863C3.04641 8.39841 3.42927 9.11468 3.99143 9.67688C4.5536 10.2391 5.26983 10.6219 6.04958 10.7771C6.82932 10.9322 7.63755 10.8527 8.37208 10.5485C9.10661 10.2443 9.73446 9.7291 10.1762 9.06809C10.618 8.40707 10.8539 7.62989 10.854 6.83483C10.8531 5.76858 10.4293 4.74623 9.67548 3.99215C8.92169 3.23807 7.89953 2.81386 6.83334 2.81262" fill="#262B33"/>
</g>
<defs>
<clipPath id="clip0_259_4162">
<rect width="13" height="13" fill="white" transform="translate(1.5 1.5)"/>
</clipPath>
</defs>
</svg>
