<svg width="24" height="24" viewBox="0 0 24 24" fill="none" xmlns="http://www.w3.org/2000/svg">
<path d="M9.75995 16.43L7.47995 15.46L5.19995 20.82L7.98995 20.84L9.74995 22.76L12.04 17.4L9.75995 16.43Z" stroke="#4C525D" stroke-width="1.5" stroke-linecap="round" stroke-linejoin="round"/>
<path d="M13.6999 16.43L15.9799 15.46L18.2599 20.82L15.4699 20.84L13.7099 22.76L11.4199 17.4L13.6999 16.43Z" stroke="#4C525D" stroke-width="1.5" stroke-linecap="round" stroke-linejoin="round"/>
<path d="M11.73 17.46C15.9992 17.46 19.46 13.9992 19.46 9.73C19.46 5.46084 15.9992 2 11.73 2C7.46084 2 4 5.46084 4 9.73C4 13.9992 7.46084 17.46 11.73 17.46Z" fill="white" stroke="#4C525D" stroke-width="1.6" stroke-linecap="round" stroke-linejoin="round"/>
<path d="M11.73 11.99C12.9781 11.99 13.99 10.9781 13.99 9.72997C13.99 8.48181 12.9781 7.46997 11.73 7.46997C10.4818 7.46997 9.46997 8.48181 9.46997 9.72997C9.46997 10.9781 10.4818 11.99 11.73 11.99Z" stroke="#4C525D" stroke-width="1.6" stroke-linecap="round" stroke-linejoin="round"/>
</svg>
