<svg width="24" height="24" viewBox="0 0 24 24" fill="none" xmlns="http://www.w3.org/2000/svg">
<path d="M19.5545 16.5426C19.4979 16.5049 19.4318 16.4954 19.3657 16.4954H17.8736C17.7981 16.4954 17.7225 16.5143 17.647 16.5426C17.5809 16.571 17.5148 16.6276 17.4676 16.6843C17.3259 16.8637 17.1654 17.0337 17.0048 17.1942C15.9755 18.2235 14.6818 18.9129 13.2559 19.1962C11.8299 19.4795 10.3662 19.3378 9.02529 18.7807C7.68435 18.2235 6.54171 17.2886 5.73904 16.0799C4.92692 14.8712 4.50197 13.4641 4.50197 12.0099C4.50197 10.5556 4.92692 9.14856 5.73904 7.93982C6.54171 6.73108 7.68435 5.7962 9.02529 5.23905C10.3662 4.6819 11.8299 4.54025 13.2559 4.82354C14.6818 5.10684 15.9755 5.80564 17.0048 6.82551C17.1654 6.98605 17.3165 7.15603 17.4676 7.33545C17.5148 7.39211 17.5809 7.43933 17.647 7.4771C17.7225 7.51487 17.7981 7.52432 17.8736 7.52432H19.3657C19.4318 7.52432 19.4979 7.50543 19.5451 7.4771C19.6017 7.44877 19.649 7.40155 19.6773 7.33545C19.7056 7.27879 19.7245 7.22213 19.7151 7.15603C19.7151 7.08993 19.6962 7.02382 19.6584 6.97661C18.5819 5.29571 16.9482 3.98309 15.0784 3.28429C13.2087 2.58549 11.1123 2.50995 9.19527 3.07654C7.27829 3.64314 5.55962 4.83299 4.36032 6.4289C3.16103 8.02481 2.5 10.0079 2.5 12.0099C2.5 14.0118 3.16103 15.9949 4.36032 17.5908C5.55962 19.1867 7.27829 20.386 9.19527 20.9432C10.0452 21.1887 10.9328 21.3209 11.8111 21.3209C12.9254 21.3209 14.0302 21.1226 15.069 20.7354C16.9387 20.0366 18.5724 18.724 19.649 17.0431C19.6867 16.9865 19.7056 16.9298 19.7056 16.8637C19.7056 16.7976 19.6962 16.7315 19.6678 16.6843C19.6395 16.6276 19.5923 16.5804 19.5356 16.5426H19.5545Z" fill="#5A5D62"/>
<path d="M21.4715 11.774C21.4432 11.7268 21.4149 11.6795 21.3677 11.6418L18.3553 9.26207C18.2986 9.2243 18.2419 9.19597 18.1758 9.18652C18.1097 9.18652 18.0436 9.18652 17.9775 9.2243C17.9209 9.25263 17.8737 9.29984 17.8264 9.3565C17.7887 9.41316 17.7698 9.47926 17.7698 9.54537V10.9713H11.2917C11.1973 10.9713 11.1028 11.0091 11.0367 11.0752C10.9706 11.1413 10.9329 11.2357 10.9329 11.3301V12.52C10.9329 12.6144 10.9706 12.7089 11.0367 12.775C11.1028 12.8411 11.1973 12.8788 11.2917 12.8788H17.7698V14.2953C17.7698 14.3614 17.7887 14.4275 17.8264 14.4936C17.8642 14.5503 17.9114 14.5975 17.9775 14.6258C18.0247 14.6447 18.0814 14.6636 18.1381 14.6636C18.1475 14.6636 18.1664 14.6636 18.1758 14.6636C18.2419 14.6636 18.2986 14.6353 18.3553 14.5881L21.3582 12.2178C21.3582 12.2178 21.4432 12.1423 21.4621 12.0856C21.481 12.0384 21.4999 11.9817 21.4999 11.9345C21.4999 11.8873 21.4904 11.8306 21.4621 11.774H21.4715Z" fill="#5A5D62"/>
</svg>
