<svg width="16" height="16" viewBox="0 0 16 16" fill="none" xmlns="http://www.w3.org/2000/svg">
<path d="M10.9828 3.9997H2.84204C2.62454 3.99505 2.41402 4.07655 2.25631 4.22642C2.0986 4.3763 2.00648 4.58243 2 4.79993V13.1997C2.00648 13.4172 2.0986 13.6233 2.25631 13.7732C2.41402 13.923 2.62454 14.0045 2.84204 13.9999H10.9828C11.2003 14.0045 11.4108 13.923 11.5685 13.7732C11.7262 13.6233 11.8183 13.4172 11.8248 13.1997V4.79993C11.8183 4.58243 11.7262 4.3763 11.5685 4.22642C11.4108 4.07655 11.2003 3.99505 10.9828 3.9997ZM10.7023 12.9327H3.12472V5.06616H10.7016L10.7023 12.9327Z" fill="#00A6FF"/>
<path d="M4.17773 2.80041C4.18421 2.58291 4.27634 2.37679 4.43405 2.22691C4.59176 2.07703 4.80228 1.99554 5.01978 2.00019H13.1582C13.3757 1.99554 13.5863 2.07703 13.744 2.22691C13.9017 2.37679 13.9938 2.58291 14.0003 2.80041V11.2001C13.9938 11.4176 13.9017 11.6238 13.744 11.7736C13.5863 11.9235 13.3757 12.005 13.1582 12.0004H12.8756V3.06665H4.17773V2.80041Z" fill="#00A6FF"/>
<path d="M4.59814 7.33343C4.60148 7.22482 4.64755 7.12189 4.72631 7.04704C4.80507 6.97219 4.91017 6.93146 5.01879 6.93368H8.8076C8.91623 6.93146 9.02133 6.97219 9.10009 7.04704C9.17885 7.12189 9.22492 7.22482 9.22825 7.33343V7.60041C9.22492 7.70903 9.17885 7.81196 9.10009 7.88681C9.02133 7.96165 8.91623 8.00239 8.8076 8.00017H5.01879C4.91017 8.00239 4.80507 7.96165 4.72631 7.88681C4.64755 7.81196 4.60148 7.70903 4.59814 7.60041V7.33343ZM4.59814 9.93358C4.60129 9.8249 4.64727 9.72188 4.72608 9.64699C4.80489 9.5721 4.91012 9.53143 5.01879 9.53385H7.54417C7.65279 9.53163 7.75789 9.57237 7.83666 9.64722C7.91542 9.72206 7.96146 9.82497 7.9648 9.93358V10.2006C7.96146 10.3092 7.91542 10.4121 7.83666 10.487C7.75789 10.5618 7.65279 10.6025 7.54417 10.6003H5.01879C4.91017 10.6025 4.80507 10.5618 4.72631 10.487C4.64755 10.4121 4.60148 10.3092 4.59814 10.2006V9.93358Z" fill="#00A6FF"/>
</svg>
