<svg width="20" height="20" viewBox="0 0 20 20" fill="none" xmlns="http://www.w3.org/2000/svg">
<path d="M17.7622 11.9363C17.3792 13.4715 16.5496 14.8586 15.3784 15.9223C14.2071 16.986 12.7467 17.6785 11.1819 17.9122C9.61706 18.146 8.01805 17.9105 6.58706 17.2355C5.15608 16.5605 3.95735 15.4763 3.14251 14.1201C2.32767 12.7638 1.93329 11.1964 2.00922 9.61606C2.08516 8.03568 2.62804 6.51329 3.56916 5.24143C4.51028 3.96956 5.80739 3.00535 7.2965 2.47066C8.78561 1.93597 10.3998 1.85485 11.9351 2.23755C12.9545 2.49169 13.914 2.94416 14.7586 3.56913C15.6032 4.1941 16.3164 4.97932 16.8575 5.87996C17.3986 6.78059 17.757 7.779 17.9122 8.81816C18.0675 9.85732 18.0165 10.9169 17.7622 11.9363Z" fill="#F7931A"/>
<path d="M13.5296 8.85556C13.6894 7.79072 12.8747 7.21837 11.7693 6.83592L12.1295 5.39518L11.2519 5.17646L10.9022 6.57923C10.6717 6.5216 10.4347 6.46789 10.1989 6.41419L10.5512 5.00095L9.67369 4.78223L9.31347 6.22297C9.12225 6.17975 8.93498 6.13652 8.75292 6.09199L7.54269 5.78941L7.30954 6.7272C7.30954 6.7272 7.96442 6.87652 7.94739 6.88568C8.06877 6.90049 8.17954 6.96227 8.25593 7.05776C8.33231 7.15324 8.36826 7.27484 8.35605 7.39651L7.94612 9.04026C7.97728 9.04783 8.00788 9.05746 8.03777 9.06908L7.9448 9.0455L7.3711 11.348C7.35844 11.3882 7.33802 11.4254 7.31094 11.4576C7.28386 11.4898 7.25069 11.5163 7.21333 11.5357C7.17597 11.555 7.13514 11.5668 7.09322 11.5703C7.0513 11.5739 7.0091 11.5691 6.96903 11.5563C6.9782 11.5694 6.33118 11.3965 6.33118 11.3965L5.89502 12.4011L7.03714 12.6853C7.24932 12.739 7.45757 12.794 7.6632 12.8464L7.30039 14.3055L8.17795 14.5242L8.53812 13.0835C8.77781 13.1489 9.01094 13.2144 9.23753 13.2655L8.87863 14.7063L9.75619 14.925L10.119 13.4685C11.6161 13.7514 12.7385 13.6375 13.2166 12.2898C13.3136 12.0986 13.3697 11.8893 13.3812 11.6753C13.3928 11.4612 13.3595 11.2472 13.2836 11.0467C13.2077 10.8463 13.0907 10.6639 12.9403 10.5112C12.7898 10.3585 12.6091 10.2389 12.4098 10.1601C12.7149 10.0981 12.9907 9.9362 13.1935 9.69994C13.3963 9.46368 13.5146 9.16656 13.5296 8.85556ZM11.5231 11.6689C11.2519 12.7587 9.41566 12.1692 8.82103 12.0226L9.303 10.0894C9.89894 10.2374 11.8073 10.5307 11.5231 11.6676V11.6689ZM11.7942 8.83985C11.5466 9.83134 10.0181 9.32841 9.52304 9.20398L9.96052 7.45151C10.4569 7.57463 12.0535 7.80514 11.7955 8.83985H11.7942Z" fill="white"/>
</svg>
