<svg width="24" height="24" viewBox="0 0 24 24" fill="none" xmlns="http://www.w3.org/2000/svg">
<path d="M13.7602 4.41486C13.7415 3.96392 13.5492 3.53766 13.2235 3.22521C12.8979 2.91275 12.464 2.73828 12.0127 2.73828C11.5613 2.73828 11.1275 2.91275 10.8018 3.22521C10.4761 3.53766 10.2839 3.96392 10.2652 4.41486C10.2659 4.50801 10.274 4.60096 10.2892 4.69286C9.0092 5.15224 7.9015 5.99422 7.11636 7.10459C6.33121 8.21495 5.90662 9.53996 5.90018 10.8999V13.2079C5.90018 13.2079 5.90018 16.5279 5.04818 16.5569C4.93407 16.5486 4.81946 16.5637 4.7114 16.6013C4.60335 16.6389 4.50411 16.6982 4.41978 16.7755C4.33545 16.8528 4.2678 16.9466 4.22099 17.051C4.17418 17.1554 4.14918 17.2682 4.14755 17.3826C4.14591 17.497 4.16766 17.6106 4.21147 17.7163C4.25527 17.822 4.32021 17.9176 4.40229 17.9973C4.48438 18.077 4.58188 18.1391 4.68881 18.1798C4.79575 18.2205 4.90988 18.2389 5.02418 18.2339H19.0012C19.1137 18.2377 19.2259 18.2189 19.331 18.1785C19.4362 18.1382 19.5321 18.077 19.6131 17.9988C19.6941 17.9205 19.7585 17.8268 19.8025 17.7231C19.8465 17.6194 19.8691 17.508 19.8691 17.3954C19.8691 17.2827 19.8465 17.1713 19.8025 17.0676C19.7585 16.9639 19.6941 16.8702 19.6131 16.7919C19.5321 16.7137 19.4362 16.6526 19.331 16.6122C19.2259 16.5718 19.1137 16.553 19.0012 16.5569C18.1302 16.5569 18.1302 13.2319 18.1302 13.2319V10.9039C18.1503 9.53717 17.7361 8.19936 16.9474 7.08303C16.1587 5.96671 15.0361 5.12947 13.7412 4.69186C13.7502 4.59786 13.7602 4.50386 13.7602 4.41486ZM14.6312 19.0619C14.6017 19.7365 14.3129 20.3738 13.8251 20.8408C13.3373 21.3077 12.688 21.5684 12.0127 21.5684C11.3374 21.5684 10.6881 21.3077 10.2003 20.8408C9.71243 20.3738 9.42366 19.7365 9.39417 19.0619H14.6312Z" fill="white"/>
</svg>
