<svg width="20" height="20" viewBox="0 0 20 20" fill="none" xmlns="http://www.w3.org/2000/svg">
<g clip-path="url(#clip0_257_4138)">
<path d="M12.0899 3.03528L12.9415 1.79743C12.9591 1.77203 12.9659 1.74069 12.9604 1.71028C12.955 1.67987 12.9377 1.65286 12.9123 1.63519L12.8909 1.6206C12.8654 1.60309 12.8339 1.59642 12.8035 1.60205C12.7731 1.60768 12.7462 1.62516 12.7286 1.65065L11.853 2.92454C11.2727 2.67512 10.6487 2.54342 10.0171 2.53708C9.38555 2.53075 8.759 2.6499 8.17383 2.88763L7.33687 1.67038C7.31932 1.6449 7.29239 1.62742 7.26197 1.62179C7.23155 1.61616 7.20013 1.62283 7.17463 1.64034L7.15401 1.65494C7.12871 1.67262 7.1114 1.69955 7.10578 1.7299C7.10016 1.76026 7.1067 1.7916 7.12399 1.81718L7.93348 2.99321C7.30824 3.27968 6.76405 3.71712 6.34987 4.26616C5.93569 4.8152 5.66453 5.4586 5.56079 6.13847H14.3785C14.2777 5.47427 14.0166 4.84461 13.6179 4.30393C13.2192 3.76325 12.6947 3.32782 12.0899 3.03528ZM8.11287 4.80878C8.02578 4.80895 7.9406 4.78328 7.86809 4.73504C7.79558 4.68679 7.739 4.61812 7.70551 4.53772C7.67202 4.45732 7.66312 4.36879 7.67994 4.28333C7.69677 4.19788 7.73856 4.11933 7.80003 4.05763C7.86149 3.99592 7.93988 3.95382 8.02527 3.93666C8.11066 3.91951 8.19921 3.92806 8.27975 3.96123C8.36028 3.9944 8.42916 4.05071 8.47769 4.12304C8.52622 4.19536 8.55221 4.28045 8.55238 4.36755C8.55294 4.42567 8.54201 4.48332 8.52018 4.53719C8.49836 4.59106 8.4661 4.64007 8.42524 4.68141C8.38439 4.72275 8.33574 4.75559 8.28213 4.77804C8.22852 4.80049 8.17099 4.8121 8.11287 4.81221V4.80878ZM11.9054 4.80878C11.8183 4.80895 11.7331 4.78328 11.6606 4.73504C11.5881 4.68679 11.5315 4.61812 11.498 4.53772C11.4645 4.45732 11.4556 4.36879 11.4724 4.28333C11.4893 4.19788 11.5311 4.11933 11.5925 4.05763C11.654 3.99592 11.7324 3.95382 11.8178 3.93666C11.9032 3.91951 11.9917 3.92806 12.0723 3.96123C12.1528 3.9944 12.2217 4.05071 12.2702 4.12304C12.3187 4.19536 12.3447 4.28045 12.3449 4.36755C12.3455 4.42567 12.3345 4.48332 12.3127 4.53719C12.2909 4.59106 12.2586 4.64007 12.2178 4.68141C12.1769 4.72275 12.1282 4.75559 12.0746 4.77804C12.021 4.80049 11.9635 4.8121 11.9054 4.81221V4.80878Z" fill="#9CDD6E"/>
<path d="M4.94859 7.90518V11.5157C4.97594 11.7801 4.90001 12.0449 4.73667 12.2546C4.57332 12.4644 4.33522 12.6028 4.07214 12.6411H3.87728C3.6142 12.6028 3.3761 12.4644 3.21275 12.2546C3.04941 12.0449 2.97348 11.7801 3.00083 11.5157V7.90518C2.97348 7.64075 3.04941 7.37598 3.21275 7.16624C3.3761 6.9565 3.6142 6.81803 3.87728 6.77979H4.07214C4.33522 6.81803 4.57332 6.9565 4.73667 7.16624C4.90001 7.37598 4.97594 7.64075 4.94859 7.90518Z" fill="#9CDD6E"/>
<path d="M17.0001 7.92666V11.5372C17.0275 11.8016 16.9516 12.0664 16.7882 12.2761C16.6249 12.4859 16.3868 12.6243 16.1237 12.6626H15.9288C15.6657 12.6243 15.4276 12.4859 15.2643 12.2761C15.1009 12.0664 15.025 11.8016 15.0523 11.5372V7.92666C15.025 7.66223 15.1009 7.39747 15.2643 7.18773C15.4276 6.97799 15.6657 6.83951 15.9288 6.80127H16.1237C16.3868 6.83951 16.6249 6.97799 16.7882 7.18773C16.9516 7.39747 17.0275 7.66223 17.0001 7.92666Z" fill="#9CDD6E"/>
<path d="M14.4453 6.72412V13.849C14.4449 14.0868 14.3504 14.3148 14.1825 14.4832C14.0146 14.6515 13.7869 14.7467 13.5491 14.7478H12.81V16.808C12.8374 17.0724 12.7614 17.3372 12.5981 17.5469C12.4347 17.7567 12.1967 17.8952 11.9336 17.9334H11.7387C11.4756 17.8952 11.2375 17.7567 11.0742 17.5469C10.9108 17.3372 10.8349 17.0724 10.8623 16.808V14.7478H9.21496V16.7831C9.24232 17.0476 9.16637 17.3123 9.00303 17.5221C8.83969 17.7318 8.60157 17.8703 8.33849 17.9085H8.14364C7.88056 17.8703 7.64247 17.7318 7.47913 17.5221C7.31578 17.3123 7.23984 17.0476 7.26719 16.7831V14.7478H6.46114C6.22336 14.7467 5.99567 14.6515 5.82778 14.4832C5.65988 14.3148 5.56539 14.0868 5.56494 13.849V6.72412H14.4453Z" fill="#9CDD6E"/>
</g>
<defs>
<clipPath id="clip0_257_4138">
<rect width="14" height="16.3323" fill="white" transform="translate(3 1.6001)"/>
</clipPath>
</defs>
</svg>
