<svg width="24" height="24" viewBox="0 0 24 24" fill="none" xmlns="http://www.w3.org/2000/svg">
<g clip-path="url(#clip0_246_1999)">
<path d="M3.02788 11.8353C3.05717 12.8876 3.31338 13.921 3.779 14.8651C4.24463 15.8091 4.90866 16.6415 5.72569 17.3052C7.13606 18.4597 8.92061 19.0574 10.7418 18.9852C12.5631 18.9131 14.2947 18.176 15.6093 16.9135C16.3081 16.2804 16.9411 15.5783 17.4988 14.8179C18.292 13.7766 18.8068 12.5504 18.9946 11.2549C19.1824 9.95951 19.0371 8.63757 18.5722 7.41389C18.0438 6.09795 17.1408 4.96601 15.9751 4.15835C14.8095 3.3507 13.4325 2.90283 12.0148 2.87026C11.1051 2.9792 10.1826 2.89574 9.30725 2.62531C8.43186 2.35487 7.62308 1.9035 6.93333 1.30044C6.89367 1.26221 6.8618 1.21664 6.83951 1.16626C4.43307 2.31533 2.47618 4.23077 1.27588 6.61208C1.32069 6.6321 1.36167 6.65979 1.39697 6.69389C2.02145 7.38391 2.49028 8.20013 2.77167 9.08722C3.05306 9.97431 3.14044 10.9115 3.02788 11.8353Z" fill="#D3EF30"/>
<path d="M12.0007 1.04599e-06C10.5222 -0.000617071 9.05639 0.272724 7.67747 0.806183C8.27975 1.2812 8.97013 1.63228 9.70877 1.83918C10.4474 2.04607 11.2197 2.10468 11.9811 2.01164H12.0051H12.028C13.6146 2.04459 15.1564 2.54379 16.4611 3.44701C17.7659 4.35024 18.776 5.61753 19.3655 7.09091C19.8858 8.45064 20.051 9.92057 19.8454 11.3619C19.6398 12.8032 19.0703 14.1683 18.1906 15.3284C17.5986 16.1353 16.9269 16.8805 16.1855 17.5527C15.0238 18.6473 13.5773 19.3925 12.0116 19.7029C11.5135 19.7908 11.0087 19.8349 10.5029 19.8349C8.57204 19.8405 6.6972 19.1862 5.1891 17.9804C4.27325 17.2381 3.52915 16.3061 3.00805 15.2487C2.48695 14.1912 2.20123 13.0334 2.17056 11.8549V11.808C2.26911 11.0302 2.2077 10.2405 1.9901 9.48733C1.77249 8.73415 1.40327 8.03337 0.905104 7.428C-0.0753826 9.80735 -0.264989 12.4389 0.364269 14.9342C0.993526 17.4296 2.40831 19.6565 4.39982 21.2864C6.39133 22.9163 8.85406 23.8628 11.4246 23.9862C13.9951 24.1096 16.5371 23.4034 18.6756 21.9718C20.8141 20.5401 22.4357 18.459 23.3011 16.0354C24.1665 13.6118 24.2299 10.9742 23.4819 8.51188C22.7338 6.04954 21.214 3.89291 19.1467 2.36027C17.0794 0.82762 14.5742 0.000158864 12.0007 1.04599e-06Z" fill="#D3EF30"/>
<path d="M2.17144 11.8013V11.8482C2.20191 13.0267 2.48743 14.1845 3.00834 15.2419C3.52926 16.2994 4.27319 17.2314 5.1889 17.9737C6.69704 19.1794 8.57185 19.8338 10.5027 19.8282C11.0085 19.828 11.5133 19.7839 12.0114 19.6962C13.5771 19.386 15.0237 18.6408 16.1853 17.5461C16.9267 16.8735 17.5985 16.1279 18.1903 15.3206C19.0701 14.1606 19.6396 12.7954 19.8452 11.3541C20.0508 9.91281 19.8856 8.44289 19.3653 7.08315C18.7746 5.61121 17.764 4.34553 16.4593 3.44373C15.1547 2.54192 13.6135 2.04385 12.0278 2.01152H12.0049H11.9809C11.2199 2.10539 10.4478 2.04768 9.70912 1.84172C8.97049 1.63576 8.27993 1.28564 7.67726 0.811523C7.39362 0.920614 7.11326 1.03952 6.83944 1.17043C6.86178 1.22078 6.89364 1.26635 6.93326 1.30461C7.62301 1.90767 8.43179 2.35904 9.30718 2.62948C10.1826 2.89991 11.105 2.98337 12.0147 2.87443C13.4324 2.907 14.8094 3.35487 15.9751 4.16252C17.1407 4.97018 18.0437 6.10212 18.5722 7.41807C19.037 8.64174 19.1823 9.96368 18.9945 11.2591C18.8067 12.5546 18.2919 13.7808 17.4987 14.8221C16.9412 15.5825 16.3081 16.2846 15.6093 16.9177C14.2945 18.18 12.5629 18.9169 10.7418 18.989C8.92059 19.0612 7.13609 18.4636 5.72562 17.3093C4.90859 16.6456 4.24455 15.8133 3.77893 14.8693C3.31331 13.9252 3.0571 12.8917 3.02781 11.8395C3.14123 10.9152 3.05449 9.97723 2.77346 9.08936C2.49244 8.20148 2.02371 7.38445 1.39908 6.6937C1.36379 6.65958 1.32281 6.63189 1.27799 6.61188C1.14272 6.87879 1.01799 7.15079 0.903809 7.42788C1.40137 8.03234 1.77034 8.73199 1.98812 9.48399C2.2059 10.236 2.269 11.0245 2.17144 11.8013Z" fill="white"/>
</g>
<defs>
<clipPath id="clip0_246_1999">
<rect width="24" height="24" fill="white"/>
</clipPath>
</defs>
</svg>
