<svg width="20" height="20" viewBox="0 0 20 20" fill="none" xmlns="http://www.w3.org/2000/svg">
<rect x="3.65" y="4.70029" width="12.7" height="11.7" rx="1.85" stroke="#989DAB" stroke-width="1.3"/>
<path d="M7.2501 2.94971C7.2501 2.59072 6.95908 2.29971 6.6001 2.29971C6.24111 2.29971 5.9501 2.59072 5.9501 2.94971L7.2501 2.94971ZM5.9501 2.94971L5.9501 4.74971L7.2501 4.74971L7.2501 2.94971L5.9501 2.94971Z" fill="#989DAB"/>
<path d="M14.0499 2.94971C14.0499 2.59072 13.7589 2.29971 13.3999 2.29971C13.0409 2.29971 12.7499 2.59072 12.7499 2.94971L14.0499 2.94971ZM12.7499 2.94971L12.7499 4.74971L14.0499 4.74971L14.0499 2.94971L12.7499 2.94971Z" fill="#989DAB"/>
<line x1="3.87183" y1="8.13809" x2="16.2993" y2="8.13809" stroke="#989DAB" stroke-width="1.3"/>
</svg>
