<svg width="24" height="24" viewBox="0 0 24 24" fill="none" xmlns="http://www.w3.org/2000/svg">
<path d="M20.7778 4.20228C20.2645 3.10996 18.1927 2.32013 14.5934 2C14.1596 2.73689 12.9563 3.26709 11.5311 3.26709C10.106 3.26709 8.90265 2.73605 8.46881 2C4.86952 2.31761 2.69866 2.99065 2.28446 4.20228L1.01566 8.9026C0.98462 9.02079 1.0001 9.14677 1.05875 9.25335C1.11741 9.35993 1.21454 9.43857 1.32918 9.47228L5.52029 10.7427V20.0829C5.52029 21.1147 8.21096 21.9516 11.5303 21.9516C14.8496 21.9516 17.5403 21.1113 17.5403 20.0829V10.7411L21.7314 9.4706C21.846 9.4369 21.9431 9.35823 22.0016 9.25161C22.0601 9.14499 22.0754 9.019 22.0441 8.90092L20.7778 4.20228Z" fill="#2BC4B8"/>
<path d="M21.264 6.43359L17.7215 7.64525C17.6067 7.6979 17.5145 7.79136 17.462 7.90822C17.4096 8.02509 17.4005 8.15741 17.4365 8.28059C17.4488 8.34063 17.4728 8.39754 17.507 8.44794C17.5412 8.49834 17.585 8.54121 17.6358 8.57401C17.6866 8.6068 17.7433 8.62885 17.8025 8.63886C17.8618 8.64888 17.9224 8.64664 17.9809 8.63229L21.5016 7.42883L21.2608 6.43442M5.62885 8.28715C5.66591 8.1609 5.65531 8.02505 5.59913 7.90638C5.54295 7.78772 5.44527 7.69484 5.32534 7.64607L1.79092 6.43442L1.55005 7.42883L5.07082 8.63229C5.13002 8.64988 5.19215 8.65475 5.25329 8.64661C5.31442 8.63847 5.37325 8.61749 5.42605 8.58499C5.47885 8.55249 5.52449 8.50917 5.56008 8.45777C5.59568 8.40637 5.62046 8.348 5.63286 8.28633" fill="white"/>
</svg>
