<svg width="24" height="24" viewBox="0 0 24 24" fill="none" xmlns="http://www.w3.org/2000/svg">
<path d="M19.8931 4.86136H14.8359V3.04921C14.8346 2.56819 14.6637 2.10727 14.3605 1.76713C14.0573 1.42699 13.6463 1.23529 13.2175 1.23389H10.79C10.3612 1.23529 9.95031 1.42699 9.64708 1.76713C9.34386 2.10727 9.17296 2.56819 9.17171 3.04921V4.86454H4.10687C3.94713 4.86885 3.79499 4.94195 3.682 5.0687C3.56901 5.19544 3.50384 5.3661 3.5 5.54529V6.90678C3.50384 7.08597 3.56901 7.25663 3.682 7.38338C3.79499 7.51012 3.94713 7.58322 4.10687 7.58753H19.8931C20.0529 7.58322 20.205 7.51012 20.318 7.38338C20.431 7.25663 20.4962 7.08597 20.5 6.90678V5.54211C20.4962 5.36292 20.431 5.19226 20.318 5.06551C20.205 4.93877 20.0529 4.86566 19.8931 4.86136ZM10.7891 3.49987C10.7851 3.43913 10.7929 3.37816 10.8118 3.32109C10.8308 3.26402 10.8605 3.2122 10.8988 3.16914C10.9372 3.12608 10.9834 3.0928 11.0343 3.07156C11.0852 3.05031 11.1395 3.04161 11.1937 3.04603H12.812C12.8661 3.04161 12.9205 3.05031 12.9714 3.07156C13.0222 3.0928 13.0685 3.12608 13.1068 3.16914C13.1452 3.2122 13.1749 3.26402 13.1938 3.32109C13.2128 3.37816 13.2205 3.43913 13.2166 3.49987V4.86136H10.7891V3.49987ZM18.2748 9.39968H5.72898C5.56924 9.40398 5.41709 9.47709 5.30411 9.60383C5.19112 9.73057 5.12595 9.90123 5.12211 10.0804V20.7465C5.11946 21.0453 5.16996 21.3418 5.27069 21.6184C5.37141 21.8951 5.52031 22.1464 5.70869 22.3577C5.89706 22.569 6.12112 22.736 6.36775 22.849C6.61438 22.962 6.87863 23.0187 7.14502 23.0157H16.8559C17.1223 23.0187 17.3866 22.962 17.6332 22.849C17.8798 22.736 18.1039 22.569 18.2922 22.3577C18.4806 22.1464 18.6295 21.8951 18.7303 21.6184C18.831 21.3418 18.8815 21.0453 18.8788 20.7465V10.0804C18.875 9.90123 18.8098 9.73057 18.6968 9.60383C18.5839 9.47709 18.4317 9.40398 18.272 9.39968H18.2748ZM10.7891 19.385C10.793 19.4458 10.7853 19.5067 10.7663 19.5638C10.7474 19.6209 10.7177 19.6727 10.6793 19.7158C10.641 19.7588 10.5948 19.7921 10.5439 19.8133C10.493 19.8346 10.4386 19.8433 10.3845 19.8389H9.57535C9.5212 19.8433 9.46684 19.8346 9.41597 19.8133C9.36509 19.7921 9.31889 19.7588 9.28051 19.7158C9.24212 19.6727 9.21245 19.6209 9.19352 19.5638C9.17458 19.5067 9.16682 19.4458 9.17076 19.385V13.0303C9.16682 12.9696 9.17458 12.9086 9.19352 12.8516C9.21245 12.7945 9.24212 12.7427 9.28051 12.6996C9.31889 12.6565 9.36509 12.6233 9.41597 12.602C9.46684 12.5808 9.5212 12.5721 9.57535 12.5765H10.3845C10.4386 12.5721 10.493 12.5808 10.5439 12.602C10.5948 12.6233 10.641 12.6565 10.6793 12.6996C10.7177 12.7427 10.7474 12.7945 10.7663 12.8516C10.7853 12.9086 10.793 12.9696 10.7891 13.0303V19.385ZM14.8349 19.385C14.8388 19.4458 14.8311 19.5067 14.8122 19.5638C14.7932 19.6209 14.7635 19.6727 14.7252 19.7158C14.6868 19.7588 14.6406 19.7921 14.5897 19.8133C14.5388 19.8346 14.4845 19.8433 14.4303 19.8389H13.6212C13.567 19.8433 13.5127 19.8346 13.4618 19.8133C13.4109 19.7921 13.3647 19.7588 13.3263 19.7158C13.2879 19.6727 13.2583 19.6209 13.2393 19.5638C13.2204 19.5067 13.2126 19.4458 13.2166 19.385V13.0303C13.2126 12.9696 13.2204 12.9086 13.2393 12.8516C13.2583 12.7945 13.2879 12.7427 13.3263 12.6996C13.3647 12.6565 13.4109 12.6233 13.4618 12.602C13.5127 12.5808 13.567 12.5721 13.6212 12.5765H14.4303C14.4845 12.5721 14.5388 12.5808 14.5897 12.602C14.6406 12.6233 14.6868 12.6565 14.7252 12.6996C14.7635 12.7427 14.7932 12.7945 14.8122 12.8516C14.8311 12.9086 14.8388 12.9696 14.8349 13.0303V19.385Z" fill="white"/>
</svg>
