<svg width="24" height="24" viewBox="0 0 24 24" fill="none" xmlns="http://www.w3.org/2000/svg">
<g clip-path="url(#clip0_326_2410)">
<path d="M7.94376 23.1462C9.22377 23.7039 10.6045 23.9934 12.0007 23.9968L13.0583 24V23.9471C15.4822 23.7091 17.7425 22.6172 19.4356 20.8663C21.1969 19.1143 22.2144 16.7504 22.2763 14.267C22.2567 12.6187 21.8525 10.9977 21.096 9.53316C20.2428 7.86281 19.0177 6.41049 17.515 5.28797L15.8482 4.0379L15.8239 6.03569C15.5058 4.84271 14.9385 3.7307 14.1592 2.77302C13.1563 1.47299 11.7287 0.566425 10.1256 0.21152L8.88395 0L8.89454 1.25854C8.89983 1.95338 8.43871 3.58736 5.28814 6.73794C3.14968 8.87745 1.7251 10.9757 1.7251 14.2638C1.82743 16.7048 2.83791 19.0196 4.55839 20.7542C5.5116 21.7745 6.66375 22.5885 7.94376 23.1462Z" fill="#00A6FF"/>
<path fill-rule="evenodd" clip-rule="evenodd" d="M11 12.5C10.1676 13.5339 10.2098 13.883 10.2098 14.2036C10.2098 14.6786 10.3985 15.1341 10.7344 15.47C11.0703 15.8059 11.5258 15.9946 12.0008 15.9946C12.4758 15.9946 12.9313 15.8059 13.2672 15.47C13.6031 15.1341 13.7918 14.6786 13.7918 14.2036C13.7918 13.8554 13.5 13 12.5 12L12.0001 11.5L11.5 12L11 12.5Z" fill="white"/>
</g>
<defs>
<clipPath id="clip0_326_2410">
<rect width="24" height="24" fill="white"/>
</clipPath>
</defs>
</svg>
