<svg width="24" height="24" viewBox="0 0 24 24" fill="none" xmlns="http://www.w3.org/2000/svg">
<path d="M20.449 5.03937L14.0501 3.90884C13.9108 3.28152 13.5604 2.72048 13.0571 2.31874C12.5538 1.91699 11.9277 1.69866 11.2828 1.69996H4.02839C3.27744 1.70226 2.55804 2.00105 2.02786 2.53084C1.49768 3.06063 1.19996 3.7782 1.19996 4.52628V16.4751C1.19882 16.8459 1.27113 17.2132 1.41275 17.556C1.55438 17.8989 1.76254 18.2105 2.0253 18.4731C2.28806 18.7357 2.60025 18.944 2.94398 19.0861C3.28771 19.2283 3.65622 19.3014 4.02839 19.3014H8.19246C8.37008 19.7492 8.65993 20.1442 9.03435 20.4487C9.40877 20.7532 9.85527 20.957 10.3312 21.0407L17.4809 22.2582C17.8478 22.3218 18.2237 22.3126 18.5871 22.2312C18.9505 22.1497 19.2941 21.9975 19.5983 21.7834C19.9024 21.5693 20.1611 21.2974 20.3596 20.9834C20.558 20.6694 20.6922 20.3195 20.7545 19.9537L22.7623 8.27442C22.8837 7.54015 22.7086 6.78786 22.2752 6.18177C21.8418 5.57567 21.1853 5.16499 20.449 5.03937Z" fill="url(#paint0_linear_176_2159)"/>
<path d="M18.6331 10.5181L17.7776 8.84836L19.2529 7.70044L20.1084 9.36145L18.6331 10.5181Z" fill="white"/>
<path d="M9.51941 9.31775C9.15276 9.00468 8.78611 8.64813 8.42819 8.32637C8.26009 8.17494 8.10259 8.01223 7.95679 7.83937C7.86949 7.74371 7.65998 7.47412 7.65998 7.47412L7.3719 7.83937C7.22349 8.0046 7.05763 8.17853 6.9005 8.32637C6.54258 8.64813 6.1672 9.00468 5.80928 9.31775C5.51765 9.51906 5.28161 9.79029 5.12293 10.1064C4.96426 10.4226 4.88807 10.7734 4.90139 11.1266C4.94784 11.4132 5.08593 11.6772 5.29513 11.8794C5.50433 12.0815 5.77345 12.2109 6.06244 12.2484C6.48158 12.3006 6.90684 12.228 7.2846 12.0397C7.26322 12.5635 7.11335 13.0741 6.84812 13.5268H8.47184C8.21598 13.0701 8.06678 12.5618 8.03536 12.0397C8.41601 12.2287 8.84427 12.3013 9.26625 12.2484C9.55524 12.2109 9.82436 12.0815 10.0336 11.8794C10.2428 11.6772 10.3809 11.4132 10.4273 11.1266C10.4382 10.7738 10.361 10.4238 10.2025 10.108C10.044 9.7923 9.80931 9.52074 9.51941 9.31775Z" fill="white"/>
<path fill-rule="evenodd" clip-rule="evenodd" d="M9.13604 20.5276H11.2827C11.8192 20.5311 12.351 20.4288 12.8476 20.2267C13.3441 20.0245 13.7957 19.7266 14.1762 19.3499C14.5568 18.9733 14.8588 18.5254 15.0648 18.032C15.2709 17.5386 15.377 17.0095 15.377 16.4751V4.52628C15.3768 4.39671 15.3704 4.26779 15.3579 4.1399L14.0514 3.90907C14.0966 4.11012 14.1199 4.317 14.1199 4.52628V16.4751C14.121 16.8466 14.0485 17.2146 13.9063 17.5581C13.7641 17.9015 13.5552 18.2135 13.2915 18.4762C13.0278 18.7389 12.7146 18.947 12.3698 19.0886C12.0251 19.2303 11.6556 19.3026 11.2827 19.3014H7.65991L8.19246 19.3014C8.37008 19.7492 8.65993 20.1442 9.03435 20.4487C9.06768 20.4758 9.10159 20.5021 9.13604 20.5276ZM11.2856 1.69995C12.037 1.70071 12.7575 1.9984 13.2889 2.52776C13.5433 2.78121 13.7444 3.07785 13.8851 3.40037C13.7029 2.98033 13.4197 2.60819 13.0571 2.31874C12.5552 1.91817 11.9314 1.69995 11.2885 1.69995H11.2827C11.2837 1.69995 11.2847 1.69995 11.2856 1.69995Z" fill="white"/>
<defs>
<linearGradient id="paint0_linear_176_2159" x1="0.97297" y1="1.14337" x2="20.6528" y2="20.8986" gradientUnits="userSpaceOnUse">
<stop stop-color="#FF406B"/>
<stop offset="1" stop-color="#F02B76"/>
</linearGradient>
</defs>
</svg>
