<svg width="24" height="24" viewBox="0 0 24 24" fill="none" xmlns="http://www.w3.org/2000/svg">
<path d="M8.56003 5.36003C8.82525 5.36003 9.0796 5.46539 9.26714 5.65292C9.45467 5.84046 9.56003 6.09481 9.56003 6.36003V8.56003C9.56003 8.82525 9.45467 9.0796 9.26714 9.26714C9.0796 9.45467 8.82525 9.56003 8.56003 9.56003H6.36003C6.09481 9.56003 5.84046 9.45467 5.65292 9.26714C5.46539 9.0796 5.36003 8.82525 5.36003 8.56003V6.36003C5.36003 6.09481 5.46539 5.84046 5.65292 5.65292C5.84046 5.46539 6.09481 5.36003 6.36003 5.36003H8.56003ZM8.56003 3.76003H6.36003C6.01822 3.75871 5.67953 3.82506 5.36349 3.95525C5.04745 4.08544 4.7603 4.27691 4.5186 4.5186C4.27691 4.7603 4.08544 5.04745 3.95525 5.36349C3.82506 5.67953 3.75871 6.01822 3.76003 6.36003V8.56003C3.76003 9.24959 4.03396 9.91091 4.52155 10.3985C5.00915 10.8861 5.67047 11.16 6.36003 11.16H8.56003C9.24878 11.1574 9.90857 10.8826 10.3956 10.3956C10.8826 9.90857 11.1574 9.24878 11.16 8.56003V6.36003C11.16 5.67047 10.8861 5.00915 10.3985 4.52155C9.91091 4.03396 9.24959 3.76003 8.56003 3.76003Z" fill="#5A5D62"/>
<path d="M17.6401 5.36003C17.9053 5.36003 18.1597 5.46539 18.3472 5.65292C18.5347 5.84046 18.6401 6.09481 18.6401 6.36003V8.56003C18.6401 8.82525 18.5347 9.0796 18.3472 9.26714C18.1597 9.45467 17.9053 9.56003 17.6401 9.56003H15.4401C15.1749 9.56003 14.9205 9.45467 14.733 9.26714C14.5454 9.0796 14.4401 8.82525 14.4401 8.56003V6.36003C14.4401 6.09481 14.5454 5.84046 14.733 5.65292C14.9205 5.46539 15.1749 5.36003 15.4401 5.36003H17.6401ZM17.6401 3.76003H15.4401C14.7505 3.76003 14.0892 4.03396 13.6016 4.52155C13.114 5.00915 12.8401 5.67047 12.8401 6.36003V8.56003C12.8427 9.24878 13.1175 9.90857 13.6045 10.3956C14.0915 10.8826 14.7513 11.1574 15.4401 11.16H17.6401C17.9815 11.16 18.3196 11.0928 18.6351 10.9621C18.9505 10.8315 19.2371 10.6399 19.4786 10.3985C19.72 10.1571 19.9115 9.87045 20.0422 9.55501C20.1728 9.23956 20.2401 8.90147 20.2401 8.56003V6.36003C20.2414 6.01822 20.1751 5.67953 20.0449 5.36349C19.9147 5.04745 19.7232 4.7603 19.4815 4.5186C19.2398 4.27691 18.9527 4.08544 18.6366 3.95525C18.3206 3.82506 17.9819 3.75871 17.6401 3.76003Z" fill="#5A5D62"/>
<path d="M17.6401 14.4401C17.9053 14.4401 18.1597 14.5454 18.3472 14.733C18.5347 14.9205 18.6401 15.1749 18.6401 15.4401V17.6401C18.6401 17.9053 18.5347 18.1597 18.3472 18.3472C18.1597 18.5347 17.9053 18.6401 17.6401 18.6401H15.4401C15.1749 18.6401 14.9205 18.5347 14.733 18.3472C14.5454 18.1597 14.4401 17.9053 14.4401 17.6401V15.4401C14.4401 15.1749 14.5454 14.9205 14.733 14.733C14.9205 14.5454 15.1749 14.4401 15.4401 14.4401H17.6401ZM17.6401 12.8401H15.4401C14.7513 12.8427 14.0915 13.1175 13.6045 13.6045C13.1175 14.0915 12.8427 14.7513 12.8401 15.4401V17.6401C12.8401 17.9815 12.9073 18.3196 13.038 18.6351C13.1687 18.9505 13.3602 19.2371 13.6016 19.4786C13.843 19.72 14.1297 19.9115 14.4451 20.0422C14.7606 20.1728 15.0987 20.2401 15.4401 20.2401H17.6401C17.9819 20.2414 18.3206 20.1751 18.6366 20.0449C18.9527 19.9147 19.2398 19.7232 19.4815 19.4815C19.7232 19.2398 19.9147 18.9527 20.0449 18.6366C20.1751 18.3206 20.2414 17.9819 20.2401 17.6401V15.4401C20.2401 15.0987 20.1728 14.7606 20.0422 14.4451C19.9115 14.1297 19.72 13.843 19.4786 13.6016C19.2371 13.3602 18.9505 13.1687 18.6351 13.038C18.3196 12.9073 17.9815 12.8401 17.6401 12.8401Z" fill="#5A5D62"/>
<path d="M4.36011 16.73H9.96011" stroke="#5A5D62" stroke-width="1.6" stroke-miterlimit="10" stroke-linecap="round"/>
<path d="M7.15991 13.9299V19.5299" stroke="#5A5D62" stroke-width="1.6" stroke-miterlimit="10" stroke-linecap="round"/>
</svg>
