<svg width="24" height="24" viewBox="0 0 24 24" fill="none" xmlns="http://www.w3.org/2000/svg">
<path d="M12 24C18.6274 24 24 18.6274 24 12C24 5.37258 18.6274 0 12 0C5.37258 0 0 5.37258 0 12C0 18.6274 5.37258 24 12 24Z" fill="#00C500"/>
<path d="M12.0502 4.75002C13.1899 4.74758 14.3144 5.01186 15.3337 5.52172C16.353 6.03158 17.2389 6.77289 17.9205 7.68635C18.6021 8.59981 19.0605 9.66009 19.2591 10.7824C19.4576 11.9047 19.3908 13.0579 19.064 14.1498C18.7372 15.2416 18.1594 16.2419 17.3769 17.0705C16.5943 17.8992 15.6288 18.5332 14.5574 18.9219C13.486 19.3107 12.3385 19.4433 11.2067 19.3093C10.0749 19.1753 8.99011 18.7783 8.03916 18.15L5.23116 19.05L6.14116 16.336C5.35104 15.2466 4.87743 13.96 4.77265 12.6184C4.66787 11.2767 4.936 9.93221 5.54742 8.73337C6.15884 7.53454 7.08975 6.52805 8.23731 5.82509C9.38487 5.12214 10.7044 4.75008 12.0502 4.75002Z" fill="#00C500"/>
<path d="M12.0003 5.00002C13.8501 4.99576 15.6261 5.72558 16.9385 7.02931C18.2508 8.33304 18.9923 10.1042 19.0003 11.954C18.9912 13.1864 18.6571 14.3946 18.0319 15.4566C17.4067 16.5187 16.5123 17.397 15.4392 18.003C14.366 18.6089 13.152 18.9211 11.9197 18.9079C10.6873 18.8948 9.48024 18.5568 8.42027 17.928L5.04327 19L6.14327 15.752C5.39456 14.6268 4.99676 13.3046 5.00027 11.953C5.00847 10.1033 5.7501 8.33247 7.06243 7.02896C8.37475 5.72545 10.1506 4.99576 12.0003 5.00002ZM12.0003 17.614C12.7558 17.6341 13.5077 17.5026 14.2116 17.2274C14.9155 16.9521 15.5572 16.5387 16.0987 16.0114C16.6402 15.4841 17.0706 14.8537 17.3644 14.1573C17.6583 13.461 17.8097 12.7128 17.8097 11.957C17.8097 11.2012 17.6583 10.4531 17.3644 9.75671C17.0706 9.06037 16.6402 8.42995 16.0987 7.90266C15.5572 7.37537 14.9155 6.9619 14.2116 6.68664C13.5077 6.41139 12.7558 6.27993 12.0003 6.30002C10.4952 6.29576 9.04987 6.88862 7.98131 7.94855C6.91275 9.00848 6.30821 10.449 6.30027 11.954C6.29707 13.1471 6.67822 14.3095 7.38727 15.269L7.58727 15.539L7.10027 16.989L8.61327 16.509L8.87427 16.68C9.80258 17.2902 10.8894 17.6149 12.0003 17.614Z" fill="white"/>
<path d="M10.2701 9.29513C10.1511 9.01113 10.0611 8.99513 9.88014 8.99513C9.81347 8.99046 9.74481 8.98813 9.67414 8.98813C9.44405 8.97828 9.21894 9.05702 9.04514 9.20813C8.84109 9.39725 8.67972 9.6277 8.57177 9.88412C8.46383 10.1405 8.41179 10.417 8.41914 10.6951C8.47874 11.3683 8.73193 12.0097 9.14814 12.5421C9.90621 13.6988 10.9623 14.6295 12.2051 15.2361C13.6161 15.8191 14.0351 15.7651 14.3571 15.6971C14.6095 15.6514 14.8484 15.5501 15.0568 15.4007C15.2652 15.2513 15.4378 15.0574 15.5621 14.8331C15.6761 14.5652 15.7108 14.2702 15.6621 13.9831C15.6181 13.9081 15.4991 13.8651 15.3191 13.7741C15.1391 13.6831 14.2611 13.2521 14.0951 13.1941C14.0182 13.158 13.9306 13.1517 13.8494 13.1764C13.7681 13.2012 13.6989 13.2553 13.6551 13.3281C13.5062 13.5478 13.3456 13.7595 13.1741 13.9621C13.1173 14.016 13.0456 14.0513 12.9683 14.0637C12.891 14.076 12.8119 14.0646 12.7411 14.0311C12.2095 13.8287 11.7207 13.5281 11.3001 13.1451C10.9083 12.7845 10.5714 12.3684 10.3001 11.9101C10.2001 11.7301 10.2891 11.6251 10.3721 11.5281C10.4551 11.4311 10.5491 11.3371 10.6391 11.2281C10.7204 11.1458 10.788 11.0509 10.8391 10.9471C10.8615 10.8939 10.8709 10.8362 10.8666 10.7786C10.8622 10.7211 10.8443 10.6654 10.8141 10.6161C10.7711 10.5261 10.4141 9.64713 10.2621 9.29113L10.2701 9.29513Z" fill="white"/>
</svg>
