<svg width="24" height="24" viewBox="0 0 24 24" fill="none" xmlns="http://www.w3.org/2000/svg">
<path d="M13.7104 21.6362L4.88487 17.7438C4.35026 17.5083 3.93101 17.0702 3.7192 16.5258C3.6137 16.2564 3.56287 15.9687 3.5697 15.6794C3.57653 15.3901 3.64085 15.1051 3.75896 14.8409L8.40805 4.29987L5.25186 4.01583C5.02629 3.99538 4.79892 4.01959 4.58273 4.08712C4.36655 4.15465 4.1658 4.26415 3.99199 4.40936C3.81818 4.55457 3.67473 4.73264 3.56982 4.93336C3.46491 5.13409 3.40062 5.35353 3.38063 5.57913L2.00704 20.8238C1.98658 21.0494 2.01081 21.2768 2.07834 21.493C2.14587 21.7092 2.25538 21.9099 2.40059 22.0837C2.5458 22.2575 2.72386 22.401 2.92459 22.5059C3.12531 22.6108 3.34476 22.6751 3.57036 22.6951L13.1776 23.5585C13.4029 23.5788 13.6301 23.5545 13.8461 23.487C14.0621 23.4195 14.2626 23.31 14.4363 23.1649C14.61 23.0199 14.7534 22.842 14.8583 22.6415C14.9632 22.441 15.0275 22.2217 15.0476 21.9963L15.0692 21.7691C14.6124 21.8758 14.1331 21.8287 13.7059 21.6351L13.7104 21.6362Z" fill="url(#paint0_linear_246_2040)"/>
<path d="M21.4737 4.03869L12.6481 0.146282C12.441 0.0550175 12.2179 0.0054519 11.9916 0.000424998C11.7652 -0.0046019 11.5402 0.0350077 11.3291 0.116984C11.1181 0.198961 10.9253 0.321703 10.7618 0.478199C10.5982 0.634695 10.4671 0.82188 10.3759 1.02906L4.19754 15.0343C4.10628 15.2414 4.05672 15.4645 4.05169 15.6908C4.04667 15.9172 4.08627 16.1422 4.16825 16.3533C4.25022 16.5643 4.37296 16.757 4.52946 16.9206C4.68596 17.0842 4.87313 17.2153 5.08031 17.3065L13.9058 21.1989C14.113 21.2902 14.3361 21.3398 14.5624 21.3448C14.7888 21.3498 15.0138 21.3102 15.2248 21.2282C15.4359 21.1463 15.6287 21.0235 15.7922 20.867C15.9558 20.7105 16.0869 20.5233 16.1781 20.3162L22.3542 6.30984C22.538 5.89183 22.5485 5.41799 22.3834 4.99224C22.2184 4.56649 21.8912 4.22357 21.4737 4.03869ZM14.8216 11.444L12.4277 12.595L11.6643 10.0489C11.6068 9.82185 11.626 9.58219 11.7188 9.36718C11.7745 9.24086 11.8545 9.12676 11.9543 9.03138C12.0542 8.936 12.1718 8.86122 12.3005 8.81132C12.4292 8.76141 12.5665 8.73735 12.7045 8.74052C12.8425 8.74369 12.9786 8.77404 13.1049 8.8298C13.3551 8.93925 13.5517 9.14357 13.6514 9.39787L13.8683 8.6412L14.3785 8.86842L13.9638 9.53647C14.2192 9.44071 14.502 9.44928 14.7511 9.56032C14.8775 9.61602 14.9916 9.69606 15.0869 9.79587C15.1823 9.89568 15.2571 10.0133 15.307 10.142C15.3569 10.2708 15.381 10.4081 15.3778 10.5461C15.3746 10.6841 15.3443 10.8201 15.2885 10.9464C15.1939 11.1605 15.0292 11.336 14.8216 11.444Z" fill="url(#paint1_linear_246_2040)"/>
<defs>
<linearGradient id="paint0_linear_246_2040" x1="6.52195" y1="4.00879" x2="21.0192" y2="20.4223" gradientUnits="userSpaceOnUse">
<stop stop-color="#FFA5A5"/>
<stop offset="1" stop-color="#DE7215"/>
</linearGradient>
<linearGradient id="paint1_linear_246_2040" x1="10.4345" y1="-1.83879e-07" x2="25.2864" y2="21.7476" gradientUnits="userSpaceOnUse">
<stop stop-color="#FFA5A5"/>
<stop offset="1" stop-color="#DE7215"/>
</linearGradient>
</defs>
</svg>
