<svg width="24" height="24" viewBox="0 0 24 24" fill="none" xmlns="http://www.w3.org/2000/svg">
<path d="M21.1049 6.34229H2.84776C2.7025 6.34229 2.56319 6.39999 2.46047 6.50271C2.35775 6.60542 2.30005 6.74474 2.30005 6.89V9.08998C2.30003 9.23367 2.35648 9.37162 2.45723 9.47408C2.55798 9.57654 2.69496 9.6353 2.83863 9.63769V19.7613C2.83863 20.4876 3.12716 21.1841 3.64074 21.6977C4.15432 22.2113 4.85089 22.4998 5.5772 22.4998H18.3663C19.0926 22.4998 19.7892 22.2113 20.3028 21.6977C20.8163 21.1841 21.1049 20.4876 21.1049 19.7613V9.63769C21.2485 9.6353 21.3855 9.57654 21.4863 9.47408C21.587 9.37162 21.6435 9.23367 21.6434 9.08998V6.89C21.6435 6.7463 21.587 6.60836 21.4863 6.5059C21.3855 6.40344 21.2485 6.34468 21.1049 6.34229Z" fill="url(#paint0_linear_60_899)"/>
<path d="M8.60806 2.87361C8.76552 2.87237 8.92232 2.89389 9.07362 2.93751C9.76963 3.21758 10.3625 3.70525 10.7715 4.33418C10.9232 4.53929 11.0633 4.75261 11.1914 4.97318H10.6072C9.71687 5.03523 8.82655 4.85212 8.03296 4.44373C7.84232 4.31816 7.70565 4.12573 7.64988 3.90436C7.59412 3.683 7.62332 3.44878 7.73172 3.24789C7.83821 3.11152 7.97841 3.00528 8.1385 2.93964C8.29858 2.87401 8.47301 2.85125 8.64458 2.87361M8.64458 1.50433C8.24006 1.47962 7.83611 1.56095 7.47267 1.74026C7.10923 1.91958 6.79891 2.19067 6.5724 2.52673C6.26149 3.03157 6.16377 3.6392 6.30071 4.21607C6.43766 4.79293 6.79805 5.29181 7.30268 5.60305C8.31539 6.14831 9.4587 6.40414 10.6072 6.34246H13.1632C12.9475 5.30988 12.5013 4.33939 11.8578 3.50348C11.2722 2.63308 10.4251 1.97135 9.43876 1.61387C9.16775 1.54167 8.88853 1.50485 8.60806 1.50433H8.64458Z" fill="#FFBD29"/>
<path d="M15.3449 2.87368C15.5165 2.85132 15.6909 2.87408 15.851 2.93971C16.0111 3.00534 16.1513 3.11159 16.2578 3.24795C16.3662 3.44885 16.3954 3.68307 16.3396 3.90443C16.2839 4.12579 16.1472 4.31823 15.9566 4.44379C15.1601 4.85338 14.2665 5.03652 13.3732 4.97325H12.7981C12.924 4.75136 13.0643 4.53791 13.218 4.33425C13.6216 3.72122 14.2006 3.24405 14.8794 2.96497C15.0307 2.92135 15.1875 2.89983 15.3449 2.90107M15.3449 1.53179C15.0645 1.5323 14.7853 1.56912 14.5142 1.64133C13.5279 1.99881 12.6808 2.66053 12.0952 3.53094C11.4554 4.35883 11.0094 5.31957 10.7898 6.34253H13.3458C14.4943 6.40421 15.6376 6.14838 16.6503 5.60312C17.155 5.29188 17.5153 4.793 17.6523 4.21613C17.7892 3.63927 17.6915 3.03164 17.3806 2.5268C17.1573 2.19624 16.8529 1.92861 16.4964 1.74957C16.1399 1.57054 15.7434 1.48612 15.3449 1.5044V1.53179Z" fill="#FFBD29"/>
<path d="M12.8892 6.09595H11.0635V22.5H12.8892V6.09595Z" fill="#FFBD29"/>
<path d="M21.6435 9.63794H2.31836V10.6421H21.6435V9.63794Z" fill="white"/>
<defs>
<linearGradient id="paint0_linear_60_899" x1="2.94818" y1="6.14146" x2="20.9223" y2="21.0301" gradientUnits="userSpaceOnUse">
<stop stop-color="#26CE70"/>
<stop offset="1" stop-color="#23B36E"/>
</linearGradient>
</defs>
</svg>
