<svg width="24" height="24" viewBox="0 0 24 24" fill="none" xmlns="http://www.w3.org/2000/svg">
<path d="M6.84985 17.0983C6.84985 17.5786 7.23885 17.9676 7.71911 17.9676H9.1647V20.7831C9.1647 21.4333 9.6919 21.9601 10.3417 21.9601C10.9919 21.9601 11.5187 21.4329 11.5187 20.7831V17.9676H13.2485V20.7831C13.2485 21.4333 13.7757 21.9601 14.4255 21.9601C15.0757 21.9601 15.6024 21.4329 15.6024 20.7831V17.9676H17.048C17.5283 17.9676 17.9173 17.5786 17.9173 17.0983V8.71777H6.84985V17.0983Z" fill="#00A6FF"/>
<path d="M19.5907 8.55859H19.5903C18.9403 8.55859 18.4133 9.08555 18.4133 9.73557V14.8403C18.4133 15.4903 18.9403 16.0173 19.5903 16.0173H19.5907C20.2408 16.0173 20.7677 15.4903 20.7677 14.8403V9.73557C20.7677 9.08555 20.2408 8.55859 19.5907 8.55859Z" fill="#00A6FF"/>
<path d="M5.17698 8.55859C4.52677 8.55859 4 9.0858 4 9.73557V14.8403C4 15.4905 4.52721 16.0173 5.17698 16.0173C5.82719 16.0173 6.35396 15.4901 6.35396 14.8403V9.73557C6.35396 9.08537 5.82675 8.55859 5.17698 8.55859Z" fill="#00A6FF"/>
<path d="M15.0561 3.91278L15.9445 2.24901C15.9884 2.16643 15.9575 2.06429 15.875 2.01996C15.7924 1.97606 15.6902 2.00692 15.6459 2.0895L14.7571 3.75414C14.0369 3.39948 13.2328 3.20129 12.3836 3.20129C11.5343 3.20129 10.7302 3.39948 10.0101 3.75414L9.12123 2.0895C9.07734 2.00692 8.97476 1.97606 8.89218 2.01996C8.8096 2.06386 8.77874 2.16643 8.82264 2.24901L9.71103 3.91278C8.19721 4.77813 7.10802 6.35584 6.84985 8.21562H17.9173C17.6591 6.35584 16.5699 4.77813 15.0561 3.91278Z" fill="#00A6FF"/>
<path d="M9.87493 6.24376C10.1385 6.24376 10.3522 6.03009 10.3522 5.76653C10.3522 5.50297 10.1385 5.28931 9.87493 5.28931C9.61137 5.28931 9.39771 5.50297 9.39771 5.76653C9.39771 6.03009 9.61137 6.24376 9.87493 6.24376Z" fill="white"/>
<path d="M14.8923 6.24376C15.1558 6.24376 15.3695 6.03009 15.3695 5.76653C15.3695 5.50297 15.1558 5.28931 14.8923 5.28931C14.6287 5.28931 14.415 5.50297 14.415 5.76653C14.415 6.03009 14.6287 6.24376 14.8923 6.24376Z" fill="white"/>
</svg>
