<svg width="24" height="24" viewBox="0 0 24 24" fill="none" xmlns="http://www.w3.org/2000/svg">
<path d="M12.25 22.25C17.7728 22.25 22.25 17.7728 22.25 12.25C22.25 6.72715 17.7728 2.25 12.25 2.25C6.72715 2.25 2.25 6.72715 2.25 12.25C2.25 17.7728 6.72715 22.25 12.25 22.25Z" fill="#E53935"/>
<path d="M6.25215 14L7.65215 12.6L8.35215 13.3L6.95215 14.75L6.25215 14ZM8.35215 11.9L9.75215 10.5L10.5021 11.2L9.05215 12.6L8.35215 11.9ZM10.5021 9.74995L11.9021 8.34995L12.6021 9.04995L11.2021 10.5L10.5021 9.74995ZM12.6021 7.64995L14.0021 6.24995L14.7521 6.94995L13.3021 8.34995L12.6021 7.64995ZM12.6021 17.55L11.2021 18.95L10.5021 18.25L11.9021 16.85L12.6021 17.55ZM14.7021 15.45L13.3021 16.85L12.6021 16.15L14.0021 14.7L14.7021 15.45ZM16.8521 13.3L15.4521 14.75L14.7021 14L16.1521 12.6L16.8521 13.3ZM18.9521 11.2L17.5521 12.6L16.8521 11.9L18.2521 10.5L18.9521 11.2ZM8.45215 20.2999C8.80215 20.4499 9.10215 20.6 9.45215 20.7L10.5021 19.65L9.80215 18.95L8.45215 20.2999ZM18.9521 9.74995L19.7021 10.5L20.7021 9.44995C20.6021 9.09995 20.4521 8.79995 20.3021 8.44995L18.9521 9.74995ZM6.70215 19.2C6.95215 19.4 7.25215 19.6 7.55215 19.8L19.8021 7.54995C19.6021 7.24995 19.4021 6.99995 19.2021 6.69995L6.70215 19.2ZM17.8021 5.29995L5.30215 17.8C5.50215 18.05 5.70215 18.3 5.95215 18.55L18.5521 5.94995C18.3021 5.69995 18.0521 5.49995 17.8021 5.29995ZM16.9521 4.69995C16.6521 4.49995 16.3521 4.34995 16.0521 4.19995L14.7521 5.54995L15.4521 6.24995L16.9521 4.69995ZM6.25215 15.45L5.55215 14.7L4.20215 16.05C4.35215 16.35 4.50215 16.65 4.70215 16.95L6.25215 15.45Z" fill="#EAEBED"/>
</svg>
