<svg width="20" height="20" viewBox="0 0 20 20" fill="none" xmlns="http://www.w3.org/2000/svg">
<path d="M17.04 10.167C17.04 9.64699 16.9933 9.14699 16.9067 8.66699H10V11.507H13.9467C13.7733 12.4203 13.2533 13.1937 12.4733 13.7137V15.5603H14.8533C16.24 14.2803 17.04 12.4003 17.04 10.167Z" fill="#4285F4"/>
<path d="M9.99979 17.3332C11.9798 17.3332 13.6398 16.6799 14.8531 15.5599L12.4731 13.7132C11.8198 14.1532 10.9865 14.4199 9.99979 14.4199C8.09312 14.4199 6.47312 13.1332 5.89312 11.3999H3.45312V13.2932C4.65979 15.6866 7.13312 17.3332 9.99979 17.3332Z" fill="#34A853"/>
<path d="M5.89366 11.3934C5.74699 10.9534 5.66033 10.4867 5.66033 10C5.66033 9.51338 5.74699 9.04671 5.89366 8.60671V6.71338H3.45366C2.95366 7.70005 2.66699 8.81338 2.66699 10C2.66699 11.1867 2.95366 12.3 3.45366 13.2867L5.35366 11.8067L5.89366 11.3934Z" fill="#FBBC05"/>
<path d="M9.99979 5.58699C11.0798 5.58699 12.0398 5.96033 12.8065 6.68033L14.9065 4.58033C13.6331 3.39366 11.9798 2.66699 9.99979 2.66699C7.13312 2.66699 4.65979 4.31366 3.45312 6.71366L5.89312 8.60699C6.47312 6.87366 8.09312 5.58699 9.99979 5.58699Z" fill="#EA4335"/>
</svg>
