<svg width="24" height="24" viewBox="0 0 24 24" fill="none" xmlns="http://www.w3.org/2000/svg">
<path d="M6.92543 12.5769H5.11768C5.03569 12.5773 4.95445 12.5604 4.8786 12.5273C4.80276 12.4941 4.73381 12.4454 4.67572 12.3838C4.61763 12.3223 4.57153 12.2491 4.54008 12.1685C4.50862 12.088 4.49243 12.0016 4.49243 11.9143C4.49243 11.8271 4.50862 11.7407 4.54008 11.6601C4.57153 11.5796 4.61763 11.5064 4.67572 11.4448C4.73381 11.3833 4.80276 11.3345 4.8786 11.3014C4.95445 11.2682 5.03569 11.2514 5.11768 11.2517H6.92543C7.00742 11.2514 7.08867 11.2682 7.16451 11.3014C7.24036 11.3345 7.3093 11.3833 7.3674 11.4448C7.42549 11.5064 7.47159 11.5796 7.50304 11.6601C7.53449 11.7407 7.55068 11.8271 7.55068 11.9143C7.55068 12.0016 7.53449 12.088 7.50304 12.1685C7.47159 12.2491 7.42549 12.3223 7.3674 12.3838C7.3093 12.4454 7.24036 12.4941 7.16451 12.5273C7.08867 12.5604 7.00742 12.5773 6.92543 12.5769Z" fill="#989DAB"/>
<path d="M22.4638 12.6198C22.3808 10.7201 22.1127 8.93035 21.4051 7.22066C20.6452 5.76837 19.3508 4.67642 17.8013 4.18056C15.896 3.76972 13.9487 3.59233 12.0014 3.65221H11.9986C10.0513 3.59233 8.10393 3.76972 6.1986 4.18056C4.64916 4.67642 3.35477 5.76837 2.59486 7.22066C1.88728 8.93036 1.6192 10.7201 1.53619 12.6198C1.51888 13.0159 1.50147 13.4129 1.50017 13.8095C1.49386 15.6381 1.65734 17.7526 2.42186 18.911C2.774 19.4504 3.2982 19.8517 3.90728 20.0482C4.76831 20.3067 5.66856 20.4054 6.56439 20.3395C7.11545 20.3497 7.66662 20.3271 8.21505 20.2719C8.71374 20.239 9.19829 20.0907 9.63136 19.8386C9.98077 19.6443 10.7717 19.0465 11.4006 18.6043C11.5839 18.5011 11.7902 18.447 12 18.447C12.2098 18.447 12.4161 18.5011 12.5994 18.6043C13.2283 19.0465 14.0192 19.6443 14.3686 19.8386C14.8017 20.0907 15.2863 20.239 15.7849 20.2719C16.3334 20.3271 16.8846 20.3497 17.4356 20.3395C18.3314 20.4054 19.2317 20.3067 20.0927 20.0482C20.7018 19.8517 21.226 19.4504 21.5781 18.911C22.3427 17.7526 22.5061 15.6381 22.4998 13.8095C22.4985 13.4129 22.4811 13.0159 22.4638 12.6198ZM7.11048 5.53497C8.72904 5.29191 10.3637 5.17523 12 5.18594C13.6363 5.17523 15.271 5.29191 16.8895 5.53497C17.6125 5.72097 18.2811 6.0785 18.8401 6.57791C19.3991 7.07732 19.8323 7.70424 20.1037 8.40667C19.7603 8.40218 17.3255 8.33593 12 8.33593C6.67454 8.33593 4.23973 8.40219 3.89629 8.40668C4.16774 7.70424 4.60091 7.07733 5.15988 6.57792C5.71885 6.0785 6.38753 5.72097 7.11048 5.53497ZM20.9114 13.8151C20.9114 16.407 20.4949 17.7022 20.2568 18.0199C20.0907 18.2629 19.8492 18.443 19.5705 18.5317C18.8764 18.7268 18.1535 18.7953 17.4356 18.7337C16.9461 18.7431 16.4564 18.7242 15.969 18.677C15.6748 18.668 15.3875 18.5836 15.1344 18.4317C14.9474 18.3277 14.3609 17.9032 13.973 17.6223L13.5173 17.2937C13.0653 16.998 12.5384 16.8407 12 16.8407C11.4617 16.8407 10.9348 16.998 10.4828 17.2937L10.0271 17.6223C9.63914 17.9032 9.05269 18.3277 8.86571 18.4317C8.61251 18.5836 8.32531 18.668 8.03102 18.677C7.54363 18.7242 7.05397 18.7431 6.56443 18.7337C5.84658 18.7953 5.12363 18.7268 4.42956 18.5317C4.15086 18.443 3.90937 18.2629 3.74327 18.0199C3.50518 17.7022 3.08866 16.407 3.08866 13.8151V13.8139C3.08866 12.6198 3.25319 10.7735 3.25985 10.7201C3.28465 10.5182 3.31177 10.3199 3.34264 10.1262C3.35404 10.0936 3.37544 10.0655 3.40373 10.046C3.43202 10.0265 3.46571 10.0166 3.49992 10.0178C5.25718 9.99969 12 9.94171 12 9.94171C12 9.94171 18.7428 9.99969 20.5001 10.0178C20.5343 10.0166 20.568 10.0265 20.5963 10.046C20.6246 10.0655 20.646 10.0936 20.6574 10.1262C20.6883 10.3199 20.7154 10.5182 20.7402 10.7201C20.7469 10.7735 20.9075 12.6936 20.9114 13.8139L20.9114 13.8151Z" fill="#989DAB"/>
</svg>
