<svg width="20" height="20" viewBox="0 0 20 20" fill="none" xmlns="http://www.w3.org/2000/svg">
<g clip-path="url(#clip0_16524_11135)">
<path d="M17.1301 18.125C16.9994 18.125 16.8701 18.0992 16.7494 18.0492C16.6288 17.9991 16.5191 17.9258 16.4268 17.8333L12.3708 13.7709C12.2743 13.6797 12.1969 13.5699 12.1435 13.4483C12.09 13.3266 12.0616 13.1954 12.0597 13.0625C12.0578 12.9297 12.0825 12.7978 12.1325 12.6746C12.1825 12.5515 12.2566 12.4396 12.3505 12.3456C12.4445 12.2516 12.5563 12.1774 12.6794 12.1273C12.8025 12.0773 12.9344 12.0525 13.0673 12.0543C13.2001 12.0561 13.3313 12.0845 13.453 12.1379C13.5747 12.1913 13.6844 12.2685 13.7757 12.3651L17.8326 16.4274C17.9714 16.5664 18.0659 16.7435 18.1042 16.9362C18.1425 17.129 18.1228 17.3287 18.0476 17.5103C17.9725 17.6918 17.8452 17.847 17.6819 17.9563C17.5186 18.0656 17.3266 18.1248 17.1301 18.125Z" fill="white"/>
<path d="M8.54133 15.2107C7.22285 15.2107 5.93399 14.8197 4.83772 14.0871C3.74144 13.3546 2.88701 12.3133 2.38245 11.0951C1.87789 9.87684 1.74587 8.53632 2.00309 7.24305C2.26032 5.94978 2.89522 4.76183 3.82752 3.82943C4.75983 2.89704 5.94765 2.26206 7.24079 2.00482C8.53393 1.74757 9.87431 1.8796 11.0924 2.38421C12.3105 2.88882 13.3517 3.74335 14.0842 4.83973C14.8167 5.93611 15.2077 7.22511 15.2077 8.54372C15.2057 10.3113 14.5027 12.0059 13.2529 13.2558C12.0032 14.5057 10.3087 15.2087 8.54133 15.2107ZM8.54133 3.51763C7.5476 3.51779 6.57623 3.81264 5.75004 4.36489C4.92386 4.91713 4.27995 5.70198 3.89974 6.62019C3.51954 7.5384 3.4201 8.54874 3.61401 9.52347C3.80792 10.4982 4.28646 11.3935 4.98913 12.0963C5.6918 12.799 6.58705 13.2776 7.56168 13.4715C8.5363 13.6655 9.54654 13.566 10.4647 13.1858C11.3828 12.8055 12.1675 12.1616 12.7197 11.3353C13.2719 10.509 13.5667 9.53755 13.5669 8.54372C13.5658 7.2109 13.036 5.93297 12.0938 4.99037C11.1516 4.04777 9.87401 3.51751 8.54133 3.51596" fill="white"/>
</g>
<defs>
<clipPath id="clip0_16524_11135">
<rect width="16.2492" height="16.25" fill="white" transform="translate(1.875 1.875)"/>
</clipPath>
</defs>
</svg>
