<svg width="20" height="20" viewBox="0 0 20 20" fill="none" xmlns="http://www.w3.org/2000/svg">
<path d="M14.9838 8.58067H14.3333V6.946C14.333 5.82002 13.8875 4.74024 13.0946 3.94406C12.3017 3.14787 11.2264 2.70046 10.1051 2.7002H9.89479C8.77349 2.70046 7.69821 3.14787 6.90533 3.94406C6.11246 4.74024 5.66691 5.82002 5.66665 6.946V8.5787H5.01609C4.46843 8.57974 3.94351 8.79867 3.55626 9.18754C3.16901 9.57641 2.95099 10.1035 2.94995 10.6535V15.2254C2.95099 15.7754 3.16901 16.3025 3.55626 16.6914C3.94351 17.0802 4.46843 17.2992 5.01609 17.3002H14.9838C15.5315 17.2992 16.0564 17.0802 16.4437 16.6914C16.8309 16.3025 17.0489 15.7754 17.05 15.2254V10.6338C17.0443 10.0873 16.8241 9.56512 16.4372 9.18069C16.0504 8.79626 15.5281 8.58064 14.9838 8.58067ZM6.75743 6.94797C6.76103 6.11353 7.09273 5.31429 7.68032 4.72425C8.26791 4.13421 9.06382 3.80113 9.89479 3.79751H10.1051C10.9361 3.80113 11.732 4.13421 12.3196 4.72425C12.9072 5.31429 13.2389 6.11353 13.2425 6.94797V8.58067H6.73786V6.946L6.75743 6.94797ZM15.9592 15.2087C15.9592 15.4693 15.8561 15.7191 15.6726 15.9034C15.4892 16.0876 15.2403 16.1911 14.9809 16.1911H5.03175C4.77229 16.1911 4.52346 16.0876 4.33999 15.9034C4.15653 15.7191 4.05346 15.4693 4.05346 15.2087V10.6368C4.05346 10.3762 4.15653 10.1264 4.33999 9.94213C4.52346 9.7579 4.77229 9.6544 5.03175 9.6544H14.9985C15.2579 9.6544 15.5068 9.7579 15.6902 9.94213C15.8737 10.1264 15.9768 10.3762 15.9768 10.6368V15.2087H15.9592Z" fill="#989DAB"/>
<path d="M8.91648 12.923C8.91648 13.1396 8.98047 13.3514 9.10033 13.5315C9.22019 13.7116 9.39054 13.852 9.58986 13.9349C9.78917 14.0178 10.0085 14.0395 10.2201 13.9973C10.4317 13.955 10.626 13.8506 10.7786 13.6975C10.9311 13.5443 11.035 13.3491 11.0771 13.1367C11.1192 12.9242 11.0976 12.7039 11.015 12.5038C10.9325 12.3036 10.7927 12.1325 10.6133 12.0122C10.4339 11.8918 10.223 11.8276 10.0073 11.8276C9.86396 11.8275 9.72201 11.8557 9.58956 11.9107C9.45711 11.9657 9.33673 12.0463 9.23533 12.1481C9.13394 12.2498 9.05352 12.3706 8.99864 12.5036C8.94376 12.6365 8.91648 12.779 8.91648 12.923Z" fill="#989DAB"/>
</svg>
