<svg width="20" height="20" viewBox="0 0 20 20" fill="none" xmlns="http://www.w3.org/2000/svg">
<g clip-path="url(#clip0_224_7115)">
<path d="M15.3893 3.74788H13.6524V3.01568C13.6524 2.82485 13.5766 2.64183 13.4417 2.50689C13.3067 2.37195 13.1237 2.29614 12.9329 2.29614C12.7421 2.29614 12.559 2.37195 12.4241 2.50689C12.2892 2.64183 12.2134 2.82485 12.2134 3.01568V3.74788H7.78755V3.01568C7.78755 2.82485 7.71174 2.64183 7.5768 2.50689C7.44186 2.37195 7.25885 2.29614 7.06801 2.29614C6.87718 2.29614 6.69417 2.37195 6.55923 2.50689C6.42429 2.64183 6.34848 2.82485 6.34848 3.01568V3.74788H4.61255C3.78727 3.7486 2.996 4.07676 2.41244 4.66032C1.82888 5.24388 1.50072 6.03515 1.5 6.86043V14.5472C1.50072 15.3725 1.82888 16.1638 2.41244 16.7473C2.996 17.3309 3.78727 17.6591 4.61255 17.6598H15.3829C16.2082 17.6591 16.9995 17.3309 17.583 16.7473C18.1666 16.1638 18.4948 15.3725 18.4955 14.5472V6.86043C18.4957 6.03595 18.1687 5.24509 17.5863 4.6615C17.0039 4.07791 16.2137 3.74932 15.3893 3.74788ZM4.61888 5.18423H6.3512V5.58699C6.3512 5.77782 6.427 5.96084 6.56194 6.09578C6.69688 6.23072 6.8799 6.30652 7.07073 6.30652C7.26156 6.30652 7.44458 6.23072 7.57951 6.09578C7.71445 5.96084 7.79026 5.77782 7.79026 5.58699V5.18423H12.2197V5.58699C12.2197 5.77782 12.2955 5.96084 12.4304 6.09578C12.5654 6.23072 12.7484 6.30652 12.9392 6.30652C13.1301 6.30652 13.3131 6.23072 13.448 6.09578C13.583 5.96084 13.6588 5.77782 13.6588 5.58699V5.18423H15.3956C15.8401 5.18447 16.2663 5.36115 16.5806 5.67545C16.8949 5.98974 17.0716 6.41595 17.0718 6.86043V7.07131H2.93906V6.86043C2.94098 6.41704 3.11821 5.99241 3.43208 5.67922C3.74595 5.36603 4.17096 5.18971 4.61436 5.18876L4.61888 5.18423ZM15.3893 16.2261H4.61888C4.1744 16.2259 3.7482 16.0492 3.4339 15.7349C3.11961 15.4206 2.94293 14.9944 2.94269 14.5499V8.50857H17.0673V14.5499C17.0668 14.9949 16.8899 15.4215 16.5753 15.7363C16.2608 16.051 15.8342 16.2281 15.3893 16.2289V16.2261Z" fill="#5A5D62"/>
<path d="M6.80469 9.38672H5.81999C5.69332 9.38696 5.57189 9.43738 5.48232 9.52695C5.39275 9.61652 5.34233 9.73792 5.34209 9.86459V10.8493C5.34233 10.976 5.39275 11.0974 5.48232 11.187C5.57189 11.2765 5.69332 11.3269 5.81999 11.3272H6.80469C6.93136 11.3269 7.05278 11.2765 7.14235 11.187C7.23192 11.0974 7.28234 10.976 7.28258 10.8493V9.86459C7.28282 9.80176 7.27061 9.73952 7.24668 9.68143C7.22274 9.62335 7.18755 9.57057 7.14313 9.52615C7.0987 9.48173 7.04593 9.44653 6.98784 9.4226C6.92975 9.39867 6.86751 9.38648 6.80469 9.38672ZM10.5073 9.38672H9.52262C9.39595 9.38696 9.27455 9.43738 9.18498 9.52695C9.09541 9.61652 9.04499 9.73792 9.04475 9.86459V10.8493C9.04499 10.976 9.09541 11.0974 9.18498 11.187C9.27455 11.2765 9.39595 11.3269 9.52262 11.3272H10.5073C10.634 11.3269 10.7554 11.2765 10.845 11.187C10.9346 11.0974 10.985 10.976 10.9852 10.8493V9.86459C10.985 9.73792 10.9346 9.61652 10.845 9.52695C10.7554 9.43738 10.634 9.38696 10.5073 9.38672ZM14.21 9.38672H13.2253C13.0986 9.38696 12.9772 9.43738 12.8876 9.52695C12.7981 9.61652 12.7477 9.73792 12.7474 9.86459V10.8493C12.7477 10.976 12.7981 11.0974 12.8876 11.187C12.9772 11.2765 13.0986 11.3269 13.2253 11.3272H14.21C14.3367 11.3269 14.4581 11.2765 14.5476 11.187C14.6372 11.0974 14.6876 10.976 14.6879 10.8493V9.86459C14.6876 9.73808 14.6373 9.6168 14.548 9.52726C14.4586 9.43771 14.3374 9.3872 14.2109 9.38672H14.21ZM6.77754 12.6839H5.79283C5.66617 12.6841 5.54474 12.7345 5.45517 12.8241C5.3656 12.9137 5.31518 13.0351 5.31494 13.1618V14.1465C5.31518 14.2732 5.3656 14.3946 5.45517 14.4841C5.54474 14.5737 5.66617 14.6241 5.79283 14.6244H6.77754C6.90421 14.6241 7.02563 14.5737 7.1152 14.4841C7.20477 14.3946 7.25519 14.2732 7.25543 14.1465V13.1618C7.25519 13.0353 7.20488 12.914 7.1155 12.8244C7.02613 12.7349 6.90496 12.6844 6.77845 12.6839H6.77754ZM10.4802 12.6839H9.49638C9.36971 12.6841 9.24831 12.7345 9.15874 12.8241C9.06918 12.9137 9.01875 13.0351 9.01851 13.1618V14.1465C9.01875 14.2732 9.06918 14.3946 9.15874 14.4841C9.24831 14.5737 9.36971 14.6241 9.49638 14.6244H10.4811C10.6078 14.6241 10.7292 14.5737 10.8187 14.4841C10.9083 14.3946 10.9587 14.2732 10.959 14.1465V13.1618C10.9587 13.0351 10.9083 12.9137 10.8187 12.8241C10.7292 12.7345 10.6078 12.6841 10.4811 12.6839H10.4802ZM14.1829 12.6839H13.1981C13.0715 12.6841 12.9501 12.7345 12.8605 12.8241C12.7709 12.9137 12.7205 13.0351 12.7203 13.1618V14.1465C12.7205 14.2732 12.7709 14.3946 12.8605 14.4841C12.9501 14.5737 13.0715 14.6241 13.1981 14.6244H14.1847C14.3113 14.6241 14.4327 14.5737 14.5223 14.4841C14.6119 14.3946 14.6623 14.2732 14.6625 14.1465V13.1618C14.6623 13.0351 14.6119 12.9137 14.5223 12.8241C14.4327 12.7345 14.3113 12.6841 14.1847 12.6839H14.1829Z" fill="#5A5D62"/>
</g>
<defs>
<clipPath id="clip0_224_7115">
<rect width="17" height="15.3645" fill="white" transform="translate(1.5 2.30005)"/>
</clipPath>
</defs>
</svg>
