<svg width="24" height="24" viewBox="0 0 24 24" fill="none" xmlns="http://www.w3.org/2000/svg">
<path d="M20.9359 18.8145C21.0197 18.7373 21.0787 18.6371 21.1056 18.5265C21.1325 18.4159 21.1261 18.2998 21.0871 18.1928L18.4728 9.57852C19.9044 8.21089 21.5761 6.83437 21.9318 4.73852C22.0288 4.29516 22.0222 3.83547 21.9128 3.39503C21.8033 2.95459 21.5938 2.54523 21.3005 2.19863C20.9534 1.9057 20.5436 1.69646 20.1026 1.58712C19.6616 1.47778 19.2013 1.47127 18.7574 1.5681C16.6855 1.92332 15.2984 3.58402 13.9379 5.0227L5.30374 2.42953C5.1957 2.40282 5.08277 2.40282 4.97473 2.42953C4.86585 2.4594 4.7654 2.51412 4.6813 2.58938L2.84065 4.39217C2.77738 4.45656 2.72618 4.53176 2.68948 4.61419C2.67151 4.70508 2.67151 4.7986 2.68948 4.88949C2.70007 5.02912 2.75277 5.16226 2.84065 5.27136L2.92068 5.34241L9.3585 9.88935L7.1355 12.2605L3.36528 11.4701H3.24079C3.15861 11.4689 3.07701 11.484 3.0007 11.5145C2.92439 11.545 2.85489 11.5903 2.79619 11.6477L1.18673 13.2196C1.06811 13.3371 1.00096 13.4968 1 13.6637C1.00134 13.8287 1.06483 13.9872 1.17784 14.1077L1.31122 14.2054L3.90769 15.7062C3.80067 15.8262 3.74066 15.9807 3.73874 16.1414C3.73942 16.2227 3.75627 16.303 3.78833 16.3777C3.82039 16.4524 3.86701 16.52 3.92548 16.5765L4.94806 17.6067L7.54453 15.0579C7.66962 14.9486 7.83194 14.8914 7.99802 14.8981C8.11792 14.9039 8.23378 14.9432 8.33238 15.0116C8.43097 15.08 8.50833 15.1747 8.55561 15.2849C8.6029 15.3951 8.61822 15.5163 8.59981 15.6348C8.5814 15.7533 8.53001 15.8642 8.45151 15.9549L5.89061 18.557L6.93098 19.5782C7.04524 19.691 7.19732 19.7575 7.3578 19.7647C7.5193 19.7662 7.67522 19.7058 7.7935 19.596L9.30515 22.1892L9.40296 22.3224C9.52357 22.4353 9.68229 22.4987 9.84756 22.5C10.0146 22.499 10.1745 22.432 10.2922 22.3135L11.8749 20.7239C11.9315 20.6644 11.9766 20.5952 12.0083 20.5196C12.0218 20.4402 12.0218 20.3592 12.0083 20.2798C12.0126 20.2385 12.0126 20.1968 12.0083 20.1555L11.2258 16.3901L13.6 14.161L18.1527 20.5906C18.1714 20.624 18.1954 20.654 18.2238 20.6794C18.3298 20.7769 18.4634 20.8389 18.6062 20.8571C18.6973 20.8744 18.7908 20.8744 18.8819 20.8571C18.9644 20.8204 19.0397 20.7693 19.1042 20.7061L20.9359 18.8145Z" fill="url(#paint0_linear_176_2165)"/>
<path d="M20.1891 5.32458C20.2097 5.0544 20.1719 4.78294 20.0783 4.5286C19.9847 4.27426 19.8375 4.04297 19.6467 3.85038C19.4569 3.66326 19.2297 3.51828 18.9799 3.42493C18.7301 3.33157 18.4634 3.29195 18.1973 3.30866C18.1299 3.31203 18.0639 3.32881 18.0031 3.35801C17.9422 3.38721 17.8879 3.42824 17.8432 3.47869C17.7984 3.52915 17.7643 3.58802 17.7426 3.65184C17.721 3.71567 17.7123 3.78317 17.7171 3.85038C17.7261 3.97456 17.7798 4.09128 17.8683 4.17897C17.9647 4.2783 18.0946 4.33842 18.2329 4.3477C18.4651 4.38056 18.6821 4.4827 18.8553 4.64077C19.0138 4.8126 19.1134 5.0303 19.1398 5.26242C19.158 5.39983 19.2205 5.52762 19.3177 5.62653C19.4034 5.7178 19.5215 5.77198 19.6467 5.7775C19.7784 5.78745 19.9087 5.74568 20.01 5.66109C20.1113 5.5765 20.1756 5.45577 20.1891 5.32458Z" fill="#FCFCFC"/>
<defs>
<linearGradient id="paint0_linear_176_2165" x1="5.15257" y1="2.08318" x2="21.4221" y2="18.3645" gradientUnits="userSpaceOnUse">
<stop stop-color="#2A81F5"/>
<stop offset="1" stop-color="#2A59DE"/>
</linearGradient>
</defs>
</svg>
