<svg width="20" height="20" viewBox="0 0 20 20" fill="none" xmlns="http://www.w3.org/2000/svg">
<path d="M5.25431 16.8362C5.25941 16.9877 5.23382 17.1386 5.17907 17.2799C5.12431 17.4212 5.04154 17.5499 4.93572 17.6584C4.82991 17.7668 4.70324 17.8527 4.56335 17.911C4.42345 17.9692 4.27323 17.9985 4.1217 17.9971C3.96286 17.9995 3.80544 17.967 3.66059 17.9017C3.51575 17.8365 3.38703 17.7402 3.28357 17.6196C3.09467 17.403 2.99346 17.1236 2.99979 16.8362C2.9993 16.6836 3.02965 16.5325 3.08901 16.392C3.14837 16.2514 3.23553 16.1243 3.34524 16.0182C3.44987 15.9125 3.57515 15.8294 3.71329 15.7742C3.85142 15.719 3.99944 15.6928 4.14813 15.6973C4.35205 15.6881 4.55398 15.7409 4.72731 15.8487C4.90063 15.9565 5.03721 16.1144 5.11903 16.3014H4.72388C4.65322 16.2101 4.56192 16.1368 4.45746 16.0876C4.35301 16.0383 4.23838 16.0146 4.12296 16.0182C4.02068 16.0174 3.9193 16.0375 3.82498 16.077C3.73066 16.1166 3.64537 16.175 3.57428 16.2485C3.42184 16.4069 3.33512 16.6171 3.33162 16.8369C3.32811 17.0567 3.40808 17.2696 3.5554 17.4327C3.62832 17.5102 3.71597 17.5724 3.8132 17.6156C3.91044 17.6588 4.01532 17.6822 4.1217 17.6844C4.28853 17.6842 4.45129 17.6329 4.58816 17.5376C4.72503 17.4422 4.82947 17.3073 4.88747 17.1508H3.88449V16.8362H5.25431Z" fill="black"/>
<path d="M5.59955 17.9559H5.25977L6.12621 15.7417H6.43768L7.30287 17.9559H6.95113L6.70888 17.3116H5.84872L5.59955 17.9559ZM6.281 16.1589L5.96324 17.0002H6.59247L6.281 16.1589Z" fill="black"/>
<path d="M7.42313 17.9559V15.7417H7.89946L8.54064 17.4545L9.18183 15.7417H9.65249V17.9559H9.34983L9.37185 16.0343L8.65202 17.9559H8.42487L7.70817 16.0343L7.7302 17.9559H7.42188H7.42313Z" fill="black"/>
<path d="M11.0627 17.9999C10.9086 18.0026 10.7557 17.9727 10.614 17.9122C10.4723 17.8517 10.3449 17.762 10.2403 17.6488C10.0307 17.4272 9.91755 17.1314 9.9257 16.8264C9.92452 16.6771 9.95375 16.529 10.0116 16.3913C10.0695 16.2536 10.1548 16.1291 10.2623 16.0254C10.368 15.9199 10.4938 15.8366 10.6323 15.7805C10.7707 15.7244 10.919 15.6966 11.0684 15.6989C11.3252 15.6995 11.5742 15.7874 11.7745 15.9481C11.9748 16.1089 12.1146 16.3329 12.1708 16.5835H11.585C11.54 16.4848 11.4678 16.401 11.3769 16.3419C11.2859 16.2828 11.18 16.251 11.0715 16.2501C10.9947 16.2487 10.9183 16.2627 10.8469 16.2912C10.7755 16.3197 10.7105 16.3621 10.6557 16.416C10.6008 16.4699 10.5573 16.5342 10.5276 16.6051C10.4979 16.676 10.4826 16.7521 10.4826 16.8289C10.4781 16.9879 10.5363 17.1423 10.6446 17.2588C10.7529 17.3754 10.9026 17.4447 11.0615 17.4519C11.1674 17.4503 11.2708 17.4199 11.3608 17.3639C11.4507 17.3079 11.5236 17.2285 11.5718 17.1341H12.1607C12.1047 17.3825 11.9649 17.6041 11.7649 17.7616C11.5649 17.9192 11.3167 18.0031 11.0621 17.9993L11.0627 17.9999Z" fill="black"/>
<path d="M12.7082 17.9559H12.1167L12.9668 15.7417H13.4072L14.2573 17.9559H13.6596L13.5501 17.635H12.8202L12.7082 17.9559ZM13.1876 16.4672L12.9668 17.177H13.4072L13.1876 16.4672Z" fill="black"/>
<path d="M14.3027 17.956V15.7417H15.0377C15.2327 15.7215 15.4291 15.764 15.5983 15.8632C15.6967 15.9325 15.7758 16.0257 15.8282 16.134C15.8806 16.2423 15.9045 16.3622 15.8978 16.4823C15.9087 16.641 15.8645 16.7986 15.7729 16.9285C15.6812 17.0585 15.5476 17.1529 15.3944 17.1959L15.9362 17.956H15.2655L14.8414 17.2425V17.956H14.3027ZM14.9502 16.7605C15.2176 16.7605 15.3491 16.6919 15.3491 16.493C15.3491 16.3093 15.2346 16.2344 14.9943 16.2344H14.8445V16.7611L14.9502 16.7605Z" fill="black"/>
<path d="M16.1841 17.9559V15.7417H17.3859V16.2312H16.7258V16.5893H17.3859V17.0807H16.7258V17.4677H17.3859V17.9572H16.1841V17.9559Z" fill="black"/>
<path d="M16.9957 9.66053C16.9351 9.62717 16.8687 9.60581 16.8 9.5976C16.7837 9.59446 16.7673 9.59446 16.7497 9.59194C16.7321 9.58942 16.7321 9.59194 16.7233 9.59194H16.6981C16.6761 9.59194 16.6534 9.59194 16.6314 9.59194H12.2992C12.152 9.59194 12.0108 9.65041 11.9067 9.75449C11.8026 9.85857 11.7442 9.99973 11.7442 10.1469C11.7442 10.2941 11.8026 10.4353 11.9067 10.5393C12.0108 10.6434 12.152 10.7019 12.2992 10.7019H13.9817C14.003 10.7011 14.0239 10.7071 14.0415 10.719C14.0591 10.731 14.0724 10.7483 14.0794 10.7683C14.0864 10.7884 14.0869 10.8102 14.0806 10.8305C14.0744 10.8508 14.0617 10.8686 14.0446 10.8812C12.9898 11.4171 11.8204 11.6886 10.6374 11.6722C10.3283 11.6721 10.0195 11.6546 9.7124 11.6199V12.8784C9.97479 12.8979 10.2403 12.9092 10.5096 12.9092C12.1451 12.9368 13.7594 12.5357 15.1917 11.7458C15.2076 11.7374 15.2253 11.7329 15.2433 11.7326C15.2577 11.7326 15.2719 11.7354 15.2852 11.7409C15.2985 11.7464 15.3106 11.7545 15.3207 11.7646C15.3309 11.7748 15.339 11.7869 15.3445 11.8002C15.35 11.8134 15.3528 11.8277 15.3528 11.8421C15.3526 11.8528 15.3507 11.8634 15.3471 11.8735L15.0904 12.5707C15.0317 12.7454 15.0435 12.9361 15.1232 13.1023C15.2029 13.2684 15.3442 13.397 15.5172 13.4606C15.6902 13.5242 15.8811 13.5178 16.0495 13.4428C16.2178 13.3678 16.3503 13.2301 16.4187 13.059L17.3474 10.5389C17.4076 10.3751 17.4049 10.1948 17.34 10.0328C17.275 9.87084 17.1524 9.73866 16.9957 9.66178V9.66053Z" fill="#231F20"/>
<path d="M10.6355 4.90125C11.8274 4.88425 13.0054 5.15925 14.0667 5.70225C14.0667 5.70225 14.6544 6.12509 14.9337 5.71987C15.2546 5.25361 14.6135 4.9648 14.6135 4.9648C13.3242 4.38344 11.9238 4.08971 10.5096 4.10401C10.2397 4.10401 9.97416 4.11471 9.7124 4.13485V4.95284C10.0189 4.91843 10.3271 4.9012 10.6355 4.90125Z" fill="#231F20"/>
<path d="M3.98787 2C3.85927 1.99992 3.73192 2.02519 3.61309 2.07436C3.49427 2.12353 3.3863 2.19565 3.29537 2.28658C3.20444 2.37751 3.13232 2.48548 3.08315 2.6043C3.03397 2.72313 3.00871 2.85048 3.00879 2.97908V13.6533C3.00871 13.7819 3.03397 13.9092 3.08315 14.0281C3.13232 14.1469 3.20444 14.2549 3.29537 14.3458C3.3863 14.4367 3.49427 14.5088 3.61309 14.558C3.73192 14.6072 3.85927 14.6325 3.98787 14.6324H9.71384V12.8705C6.27071 12.6188 3.59523 10.7588 3.59523 8.50118C3.59523 6.24351 6.27071 4.38289 9.71384 4.13182V2H3.98787Z" fill="black"/>
<path d="M5.32568 8.28349C5.32568 9.95031 7.21903 11.3346 9.71077 11.6134V4.95361C7.21966 5.23236 5.32568 6.61603 5.32568 8.28349Z" fill="black"/>
</svg>
