<svg width="24" height="24" viewBox="0 0 24 24" fill="none" xmlns="http://www.w3.org/2000/svg">
<g opacity="0.2">
<path d="M17.1553 5.3585C17.0168 5.3585 16.8738 5.32158 16.7491 5.2385C16.5091 5.08619 16.2599 4.94773 16.0107 4.8185C15.6368 4.62927 15.4845 4.16773 15.6784 3.79389C15.8722 3.42004 16.3291 3.26773 16.703 3.46158C16.9984 3.61389 17.2891 3.77542 17.5661 3.95542C17.9215 4.18158 18.0276 4.65235 17.8015 5.00773C17.6584 5.2385 17.4091 5.36312 17.1553 5.36312V5.3585Z" fill="#00A6FF"/>
<path d="M21.6506 12.5217C21.2676 12.5217 20.9399 12.2355 20.8937 11.8478C20.843 11.3955 20.7553 10.9478 20.6353 10.5094C20.5245 10.1032 20.7645 9.68323 21.166 9.57246C21.5722 9.46169 21.9922 9.70169 22.103 10.1032C22.2414 10.6155 22.3476 11.1417 22.4076 11.6678C22.4583 12.0878 22.1583 12.4617 21.7383 12.5125C21.7106 12.5125 21.6783 12.5171 21.6506 12.5171V12.5217ZM20.2106 8.43246C19.9568 8.43246 19.7076 8.30784 19.5645 8.07708C19.3245 7.694 19.0522 7.32015 18.7522 6.97861C18.4799 6.66015 18.5122 6.18015 18.8353 5.90323C19.1537 5.63092 19.6337 5.66784 19.9106 5.98631C20.2568 6.38784 20.5753 6.82169 20.8568 7.26938C21.0783 7.62477 20.9722 8.09554 20.6168 8.31708C20.4922 8.39554 20.3491 8.43246 20.2106 8.43246Z" fill="#00A6FF"/>
<path d="M21.3506 16.3017C21.2813 16.3017 21.2121 16.2924 21.1429 16.274C20.7367 16.1586 20.5013 15.7386 20.6167 15.3324C20.6952 15.0601 20.7598 14.7786 20.8106 14.5017C20.8844 14.0863 21.2813 13.814 21.6967 13.8878C22.1121 13.9617 22.3844 14.3586 22.3106 14.774C22.2506 15.097 22.1767 15.4247 22.089 15.7432C21.9967 16.0801 21.6875 16.297 21.3552 16.297L21.3506 16.3017Z" fill="#00A6FF"/>
</g>
<path d="M20.4415 17.7969C20.0954 17.5615 19.62 17.6492 19.3846 17.9954C17.5015 20.7462 14.2754 22.2415 10.9615 21.8908C5.99999 21.3646 2.38615 16.9015 2.9123 11.94C3.38307 7.47232 7.05691 4.1077 11.4046 3.86309L10.6108 4.45386C10.2738 4.70309 10.2046 5.18309 10.4538 5.52001C10.6015 5.72309 10.8323 5.82924 11.0677 5.82924C11.2246 5.82924 11.3861 5.77847 11.52 5.67693L13.8692 3.9277C14.04 3.80309 14.1508 3.60924 14.1738 3.39693C14.1969 3.18462 14.1277 2.97232 13.9892 2.81539L12.0554 0.613855C11.7785 0.295394 11.2938 0.267701 10.98 0.544624C10.6661 0.821547 10.6338 1.30155 10.9108 1.62001L11.5292 2.32155C6.35538 2.51078 1.95692 6.48462 1.39845 11.7785C0.784608 17.5754 5.00307 22.7908 10.8046 23.4046C11.1785 23.4462 11.5523 23.4646 11.9215 23.4646C15.3923 23.4646 18.66 21.7615 20.6446 18.8539C20.88 18.5077 20.7923 18.0323 20.4461 17.7969H20.4415Z" fill="#00A6FF"/>
<path d="M15.0831 16.0384C14.9216 16.0384 14.7554 15.9876 14.617 15.8815L11.6216 13.5691C11.377 13.3799 11.2385 13.0938 11.2385 12.7891V7.90607C11.2385 7.48607 11.5801 7.14453 12.0001 7.14453C12.4201 7.14453 12.7616 7.48607 12.7616 7.90607V12.5261L15.5493 14.6815C15.8816 14.9399 15.9416 15.4153 15.6878 15.7476C15.5354 15.9415 15.3139 16.043 15.0831 16.043V16.0384Z" fill="#00A6FF"/>
</svg>
