<svg width="24" height="24" viewBox="0 0 24 24" fill="none" xmlns="http://www.w3.org/2000/svg">
<path d="M12 24C15.3907 23.9062 18.215 22.7305 20.4728 20.4728C22.7305 18.215 23.9062 15.3907 24 12C23.9062 8.60925 22.7305 5.785 20.4728 3.52725C18.215 1.2695 15.3907 0.09375 12 0C8.60925 0.09375 5.785 1.2695 3.52725 3.52725C1.2695 5.785 0.09375 8.60925 0 12C0.09375 15.3907 1.2695 18.215 3.52725 20.4728C5.785 22.7305 8.60925 23.9062 12 24ZM13.1951 19.2889C13.023 19.4644 12.8166 19.6029 12.5889 19.6956C12.3612 19.7884 12.1168 19.8335 11.871 19.8281C11.6338 19.8368 11.3975 19.7954 11.1774 19.7066C10.9573 19.6177 10.7584 19.4834 10.5938 19.3125C10.4319 19.1444 10.3051 18.9459 10.2206 18.7285C10.136 18.511 10.0955 18.279 10.1014 18.0457C10.1008 17.8086 10.147 17.5737 10.2375 17.3545C10.328 17.1353 10.4609 16.9361 10.6286 16.7685C10.7963 16.6008 10.9954 16.4679 11.2146 16.3774C11.4338 16.2869 11.6687 16.2407 11.9059 16.2412C12.4131 16.2646 12.8918 16.4829 13.242 16.8506C13.4029 17.0022 13.5299 17.1861 13.6145 17.3903C13.6992 17.5945 13.7397 17.8143 13.7333 18.0353C13.7338 18.2699 13.6864 18.5021 13.5938 18.7177C13.5013 18.9333 13.3656 19.1277 13.1951 19.2889ZM10.4531 5.01562C10.8665 4.71146 11.37 4.55473 11.883 4.5705C12.0718 4.58164 12.2598 4.60519 12.4455 4.641C12.8598 4.64415 13.2637 4.77065 13.6057 5.00438C13.7473 5.1206 13.8631 5.265 13.9458 5.4284C14.0285 5.59181 14.0763 5.77063 14.0861 5.9535C14.1162 6.08427 14.132 6.21794 14.133 6.35213C14.133 6.57088 14.1096 6.899 14.0629 7.3365C13.9536 8.05525 13.7428 9.20375 13.4303 10.782L12.5389 14.7889H11.367C11.11 13.9523 10.9142 13.0982 10.7812 12.2333L10.1014 8.742C9.97407 7.90353 9.89581 7.05834 9.867 6.21075C9.85669 5.97838 9.90497 5.74715 10.0074 5.53831C10.1098 5.32947 10.2631 5.14974 10.4531 5.01562Z" fill="#FBBA26"/>
</svg>
