<svg width="24" height="24" viewBox="0 0 24 24" fill="none" xmlns="http://www.w3.org/2000/svg">
<path d="M12 22.8C17.9646 22.8 22.8 17.9646 22.8 12C22.8 6.03528 17.9646 1.19995 12 1.19995C6.03528 1.19995 1.19995 6.03528 1.19995 12C1.19995 17.9646 6.03528 22.8 12 22.8Z" fill="url(#paint0_linear_13_132)"/>
<path d="M12 22.8C17.9646 22.8 22.8 17.9646 22.8 12C22.8 6.03528 17.9646 1.19995 12 1.19995C6.03528 1.19995 1.19995 6.03528 1.19995 12C1.19995 17.9646 6.03528 22.8 12 22.8Z" fill="#78CEFF" fill-opacity="0.3"/>
<path d="M11.9538 7.35583C12.2732 7.35583 12.5854 7.45054 12.851 7.62798C13.1165 7.80541 13.3235 8.05761 13.4457 8.35268C13.5679 8.64775 13.5999 8.97244 13.5376 9.28568C13.4753 9.59893 13.3215 9.88666 13.0957 10.1125C12.8698 10.3383 12.5821 10.4921 12.2688 10.5544C11.9556 10.6167 11.6309 10.5848 11.3358 10.4625C11.0408 10.3403 10.7886 10.1333 10.6111 9.86779C10.4337 9.60224 10.339 9.29003 10.339 8.97065C10.3414 8.54312 10.5123 8.13379 10.8146 7.83147C11.117 7.52916 11.5263 7.35825 11.9538 7.35583ZM11.9538 6.15625C11.4084 6.16534 10.8778 6.33539 10.4286 6.64505C9.9795 6.9547 9.63187 7.39015 9.4294 7.89672C9.22694 8.40329 9.17866 8.95838 9.29063 9.4923C9.40259 10.0262 9.66982 10.5151 10.0587 10.8977C10.4477 11.2802 10.9409 11.5393 11.4766 11.6425C12.0123 11.7456 12.5665 11.6881 13.0697 11.4773C13.5728 11.2665 14.0025 10.9118 14.3047 10.4576C14.6069 10.0034 14.7681 9.47004 14.7682 8.92451C14.7537 8.18687 14.4511 7.48419 13.9252 6.96683C13.3992 6.44946 12.6916 6.15852 11.9538 6.15625Z" fill="#FCFCFC"/>
<path d="M12 13.6497C8.4827 13.6497 7.49239 15.4601 7.49239 16.2159C7.48076 16.3073 7.49015 16.4003 7.51981 16.4873C7.54947 16.5743 7.59856 16.653 7.66313 16.7169C8.89329 17.7289 10.4254 18.2722 12 18.2549C13.5746 18.2722 15.1067 17.7289 16.3369 16.7169C16.4014 16.653 16.4505 16.5743 16.4802 16.4873C16.5098 16.4003 16.5192 16.3073 16.5076 16.2159C16.482 15.4601 15.4917 13.6497 12 13.6497Z" stroke="#FCFCFC" stroke-width="1.2" stroke-linecap="round" stroke-linejoin="round"/>
<defs>
<linearGradient id="paint0_linear_13_132" x1="2.76235" y1="2.76235" x2="21.1128" y2="21.1128" gradientUnits="userSpaceOnUse">
<stop stop-color="#B0C5ED"/>
<stop offset="1" stop-color="#819CD1"/>
</linearGradient>
</defs>
</svg>
