<svg width="20" height="20" viewBox="0 0 20 20" fill="none" xmlns="http://www.w3.org/2000/svg">
<path d="M4.14004 5.9999C3.87482 5.9999 3.62047 6.10526 3.43293 6.2928C3.2454 6.48033 3.14004 6.73469 3.14004 6.9999V12.9999C3.14004 13.2651 3.2454 13.5195 3.43293 13.707C3.62047 13.8945 3.87482 13.9999 4.14004 13.9999H16.14C16.4053 13.9999 16.6596 13.8945 16.8471 13.707C17.0347 13.5195 17.14 13.2651 17.14 12.9999V6.9999C17.14 6.73469 17.0347 6.48033 16.8471 6.2928C16.6596 6.10526 16.4053 5.9999 16.14 5.9999H4.14004ZM4.14004 4.8999H16.14C16.697 4.8999 17.2311 5.12115 17.625 5.51498C18.0188 5.9088 18.24 6.44295 18.24 6.9999V12.9999C18.24 13.5569 18.0188 14.091 17.625 14.4848C17.2311 14.8787 16.697 15.0999 16.14 15.0999H4.14004C3.58308 15.0999 3.04894 14.8787 2.65511 14.4848C2.26129 14.091 2.04004 13.5569 2.04004 12.9999V6.9999C2.04004 6.44295 2.26129 5.9088 2.65511 5.51498C3.04894 5.12115 3.58308 4.8999 4.14004 4.8999Z" fill="#989DAB"/>
<path d="M5.69106 8.61189V9.44989L6.57606 9.16689L6.73706 9.58189L5.85306 9.84889L6.40106 10.5589L6.00106 10.8259L5.47206 10.0879L4.93506 10.8259L4.52106 10.5589L5.07706 9.84889L4.18506 9.58189L4.34706 9.16389L5.22306 9.45789V8.61189H5.69106ZM8.92406 8.61189V9.44989L9.80906 9.16689L9.97006 9.58189L9.08606 9.84889L9.63406 10.5589L9.23406 10.8259L8.70506 10.0879L8.16806 10.8259L7.75406 10.5589L8.31006 9.84889L7.41806 9.58189L7.58006 9.16389L8.45606 9.45789V8.61189H8.92406ZM12.1571 8.61189V9.44989L13.0421 9.16689L13.2031 9.58189L12.3191 9.84889L12.8671 10.5589L12.4671 10.8259L11.9381 10.0879L11.3971 10.8229L10.9831 10.5559L11.5391 9.84589L10.6471 9.57889L10.8091 9.16089L11.6851 9.45489V8.60889L12.1571 8.61189Z" fill="#989DAB"/>
<path d="M5.12095 8.51196H5.79096V9.31196L6.63496 9.04196L6.86996 9.64196L6.02096 9.89796L6.54496 10.578L5.97396 10.958L5.47396 10.258L4.96196 10.958L4.37696 10.58L4.90996 9.89896L4.05396 9.64296L4.28996 9.03496L5.12396 9.31496L5.12095 8.51196ZM5.59096 8.71196H5.32096V9.59696L4.40396 9.28896L4.31496 9.51696L5.24396 9.79496L4.66496 10.534L4.90696 10.691L5.46996 9.91796L6.02396 10.69L6.25596 10.536L5.68496 9.79596L6.60496 9.51796L6.51696 9.29096L5.59096 9.59096V8.71196ZM8.35295 8.51196H9.02295V9.31196L9.86695 9.04196L10.102 9.64196L9.25295 9.89796L9.77696 10.578L9.20596 10.958L8.70596 10.258L8.19395 10.958L7.60896 10.58L8.14195 9.89896L7.28596 9.64296L7.52196 9.03496L8.35596 9.31496L8.35295 8.51196ZM8.82296 8.71196H8.55296V9.59696L7.63596 9.28896L7.54696 9.51696L8.47596 9.79496L7.89696 10.534L8.13896 10.691L8.70195 9.91796L9.25595 10.69L9.48796 10.536L8.91695 9.79596L9.83696 9.51796L9.74895 9.29096L8.82296 9.59096V8.71196ZM11.585 8.51196H12.255V9.31196L13.099 9.04196L13.334 9.64196L12.485 9.89796L13.009 10.578L12.438 10.958L11.938 10.258L11.426 10.958L10.841 10.58L11.374 9.89896L10.518 9.64296L10.754 9.03496L11.588 9.31496L11.585 8.51196ZM12.055 8.71196H11.785V9.59696L10.868 9.28896L10.779 9.51696L11.708 9.79496L11.129 10.534L11.371 10.691L11.934 9.91796L12.488 10.69L12.72 10.536L12.149 9.79596L13.069 9.51796L12.981 9.29096L12.055 9.59096V8.71196Z" fill="#989DAB"/>
<path d="M13.782 10.479H15.459V11.179H13.782V10.479Z" fill="#989DAB"/>
</svg>
