<svg width="24" height="24" viewBox="0 0 24 24" fill="none" xmlns="http://www.w3.org/2000/svg">
<path d="M7.0315 10.93C8.26862 10.93 9.2715 9.92707 9.2715 8.68995C9.2715 7.45283 8.26862 6.44995 7.0315 6.44995C5.79439 6.44995 4.7915 7.45283 4.7915 8.68995C4.7915 9.92707 5.79439 10.93 7.0315 10.93Z" stroke="#4C525D" stroke-width="1.6" stroke-miterlimit="10" stroke-linecap="round"/>
<path d="M15.5615 10.6C17.1079 10.6 18.3615 9.3464 18.3615 7.8C18.3615 6.2536 17.1079 5 15.5615 5C14.0151 5 12.7615 6.2536 12.7615 7.8C12.7615 9.3464 14.0151 10.6 15.5615 10.6Z" stroke="#4C525D" stroke-width="1.6" stroke-miterlimit="10" stroke-linecap="round"/>
<path d="M7.00152 13.0701C3.84152 13.0701 3.00152 15.2401 3.00152 16.1501C2.98983 16.362 3.04587 16.5721 3.16152 16.7501C3.50152 17.3401 4.87152 18.1801 7.00152 18.1801C9.13152 18.1801 10.5315 17.3401 10.9015 16.7501C11.0137 16.5709 11.0662 16.3609 11.0515 16.1501C11.0815 15.2401 10.1915 13.0801 7.00152 13.0701Z" stroke="#4C525D" stroke-width="1.6" stroke-miterlimit="10" stroke-linecap="round"/>
<path d="M15.5616 12.72C11.0616 12.72 9.80162 15.8 9.79162 17.1C9.78033 17.3987 9.85682 17.6942 10.0116 17.95C10.5416 18.79 12.4916 19.95 15.5616 19.95C18.6316 19.95 20.5616 18.75 21.1016 17.95C21.2655 17.6981 21.3428 17.3997 21.3216 17.1C21.3216 15.8 20.0616 12.72 15.5616 12.72Z" fill="white" stroke="#4C525D" stroke-width="1.6" stroke-miterlimit="10" stroke-linecap="round"/>
</svg>
