<svg width="24" height="24" viewBox="0 0 24 24" fill="none" xmlns="http://www.w3.org/2000/svg">
<path d="M20.6967 3.50098H3.30416C2.73243 3.501 2.18413 3.72813 1.77986 4.1324C1.37559 4.53667 1.14846 5.08497 1.14844 5.6567V16.8067C1.14846 17.3784 1.37559 17.9267 1.77987 18.331C2.18416 18.7352 2.73247 18.9624 3.3042 18.9623H5.25228L4.92489 20.5554C4.8763 20.794 4.92425 21.0421 5.05824 21.2453C5.19223 21.4486 5.40133 21.5905 5.63973 21.6399C5.70111 21.6525 5.76358 21.659 5.82625 21.6594C6.03752 21.6586 6.24211 21.5853 6.40569 21.4515C6.56927 21.3178 6.6819 21.1319 6.72469 20.925L7.12826 18.9623H16.8729L17.2764 20.925C17.2999 21.0435 17.3467 21.1562 17.4141 21.2565C17.4814 21.3567 17.5681 21.4426 17.669 21.5091C17.7698 21.5755 17.8829 21.6213 18.0016 21.6437C18.1203 21.666 18.2423 21.6646 18.3604 21.6394C18.4786 21.6152 18.5908 21.568 18.6907 21.5005C18.7906 21.4329 18.8762 21.3463 18.9426 21.2456C19.009 21.1449 19.0549 21.0322 19.0777 20.9137C19.1005 20.7953 19.0996 20.6735 19.0753 20.5554L18.7483 18.9623H20.6967C20.9798 18.9623 21.2601 18.9066 21.5217 18.7982C21.7832 18.6899 22.0208 18.5311 22.221 18.331C22.4212 18.1308 22.58 17.8932 22.6883 17.6316C22.7966 17.3701 22.8524 17.0898 22.8524 16.8067V5.6567C22.8524 5.08498 22.6253 4.53667 22.221 4.1324C21.8168 3.72812 21.2685 3.501 20.6967 3.50098Z" fill="url(#paint0_linear_176_2153)"/>
<path d="M7.2 7H5" stroke="#FCFCFC" stroke-width="1.3" stroke-miterlimit="10" stroke-linecap="round"/>
<defs>
<linearGradient id="paint0_linear_176_2153" x1="2.92118" y1="3.50098" x2="21.0796" y2="21.6594" gradientUnits="userSpaceOnUse">
<stop stop-color="#FF8306"/>
<stop offset="1" stop-color="#F86900"/>
</linearGradient>
</defs>
</svg>
