<svg width="24" height="24" viewBox="0 0 24 24" fill="none" xmlns="http://www.w3.org/2000/svg">
<path d="M19.7725 8.5476C20.2306 8.5476 20.67 8.72958 20.994 9.0535C21.318 9.37742 21.5 9.81675 21.5 10.2748V13.7284C21.5 14.1865 21.318 14.6258 20.994 14.9497C20.67 15.2736 20.2306 15.4556 19.7725 15.4556H18.8549C18.6445 17.125 17.8319 18.6603 16.5697 19.7732C15.3075 20.8861 13.6824 21.5001 11.9995 21.5V19.7728C13.3745 19.7728 14.6933 19.2266 15.6656 18.2545C16.6379 17.2824 17.1841 15.9639 17.1841 14.5891V9.40536C17.2075 8.71034 17.0908 8.01772 16.8409 7.36873C16.591 6.71974 16.2131 6.12766 15.7296 5.62772C15.2462 5.12779 14.667 4.73023 14.0267 4.45871C13.3864 4.18719 12.698 4.04727 12.0024 4.04727C11.3069 4.04727 10.6185 4.18719 9.97817 4.45871C9.33785 4.73023 8.75871 5.12779 8.27524 5.62772C7.79177 6.12766 7.41385 6.71974 7.16398 7.36873C6.91411 8.01772 6.79741 8.71034 6.82081 9.40536V15.4497H4.22754C3.76937 15.4497 3.32996 15.2678 3.00599 14.9438C2.68201 14.6199 2.5 14.1806 2.5 13.7225V10.2748C2.5 9.81675 2.68201 9.37742 3.00599 9.0535C3.32996 8.72958 3.76937 8.5476 4.22754 8.5476H5.14511C5.35478 6.8776 6.16704 5.34159 7.42933 4.22803C8.69162 3.11448 10.3171 2.5 12.0005 2.5C13.6839 2.5 15.3094 3.11448 16.5716 4.22803C17.8339 5.34159 18.6462 6.8776 18.8559 8.5476H19.7725ZM8.339 15.2698L9.25462 13.8027C10.0783 14.317 11.0299 14.5897 12.001 14.5897C12.9721 14.5897 13.9237 14.317 14.7473 13.8027L15.663 15.2698C14.5647 15.9553 13.2961 16.3187 12.0015 16.3187C10.7068 16.3187 9.43819 15.9553 8.33998 15.2698H8.339Z" fill="white"/>
</svg>
