<svg width="24" height="24" viewBox="0 0 24 24" fill="none" xmlns="http://www.w3.org/2000/svg">
<path d="M22.2 11.4C22.2 11 22.15 10.7 22.05 10.4C21.8 8.85 21.1 7.35 20.15 6.1C19 4.6 17.45 3.5 15.65 2.85C14 2.25 12.25 2.1 10.5 2.4C9.95 2.5 9.4 2.65 8.85 2.85C4.9 4.3 2.25 8.05 2.25 12.25V12.6C2.3 14.5 2.9 16.3 3.95 17.85C5.3 19.8 7.25 21.2 9.5 21.85C10.4 22.1 11.3 22.25 12.25 22.25C13.2 22.25 14.1 22.1 15 21.85H15.05C15.6 21.7 16.15 21.5 16.65 21.25C18.2 20.45 19.55 19.3 20.55 17.85C21.6 16.3 22.2 14.5 22.25 12.6V12.25C22.25 11.95 22.25 11.7 22.2 11.4ZM12.75 5.9L15.55 3.85C17 4.4 18.25 5.3 19.25 6.5L18.15 9.85L15.75 10.6L12.75 8.4V5.9ZM8.95 3.85L11.75 5.9V8.4L8.75 10.6L6.35 9.85L5.25 6.5C6.25 5.3 7.5 4.4 8.95 3.85ZM3.25 12.8L6.05 10.75L8.45 11.5L9.6 15.1L8.15 17.1H4.6C3.8 15.8 3.3 14.35 3.25 12.8ZM14.5 21C13.05 21.4 11.45 21.4 10 21L8.9 17.65L10.35 15.65H14.15L15.6 17.65L14.5 21ZM19.9 17.1H16.35L14.9 15.1L16.05 11.5L18.45 10.75L21.25 12.8C21.2 14.35 20.7 15.8 19.9 17.1Z" fill="#3B4350"/>
</svg>
