<svg width="24" height="24" viewBox="0 0 24 24" fill="none" xmlns="http://www.w3.org/2000/svg">
<path d="M12 23.5C18.3513 23.5 23.5 18.3513 23.5 12C23.5 5.64873 18.3513 0.5 12 0.5C5.64873 0.5 0.5 5.64873 0.5 12C0.5 18.3513 5.64873 23.5 12 23.5Z" fill="url(#paint0_linear_60_910)"/>
<path d="M4.15956 19.3576C4.01624 19.3581 3.87685 19.3109 3.76326 19.2235C3.64966 19.1361 3.5683 19.0135 3.53193 18.8749C3.42572 18.4307 3.31951 17.9865 3.22295 17.5134C3.2044 17.352 3.24726 17.1895 3.343 17.0583C3.43874 16.927 3.58036 16.8366 3.73971 16.805C3.89906 16.7733 4.06448 16.8028 4.20309 16.8876C4.3417 16.9723 4.44336 17.1061 4.48785 17.2623C4.57476 17.7065 4.68097 18.141 4.78718 18.5562C4.82832 18.7213 4.80274 18.896 4.71599 19.0424C4.62923 19.1888 4.4883 19.2951 4.32371 19.3383L4.15956 19.3576ZM3.37744 14.7229C3.21545 14.7235 3.0591 14.6634 2.93931 14.5543C2.81952 14.4453 2.74501 14.2952 2.73051 14.1339C2.73051 13.6897 2.66292 13.2262 2.63395 12.7531C2.62627 12.5815 2.68706 12.4139 2.80295 12.2872C2.91884 12.1604 3.08034 12.0849 3.25192 12.0772C3.4235 12.0695 3.5911 12.1303 3.71785 12.2462C3.84461 12.3621 3.92014 12.5236 3.92782 12.6952C3.92782 13.1458 3.95679 13.5899 4.01472 14.0277C4.02822 14.1963 3.97513 14.3635 3.86684 14.4934C3.75855 14.6234 3.60366 14.7057 3.43538 14.7229H3.37744ZM3.45469 10.0688H3.30985C3.22639 10.0538 3.14677 10.0222 3.07565 9.97604C3.00454 9.92985 2.94336 9.86992 2.8957 9.79978C2.84803 9.72964 2.81485 9.65069 2.79809 9.56756C2.78133 9.48443 2.78134 9.39879 2.7981 9.31566C2.885 8.85218 3.00087 8.35008 3.13605 7.92523C3.19269 7.76961 3.30686 7.64164 3.45503 7.56767C3.60321 7.49371 3.7741 7.47938 3.93252 7.52765C4.09094 7.57592 4.22482 7.6831 4.30657 7.82713C4.38833 7.97115 4.41174 8.14104 4.37198 8.30181C4.2475 8.71464 4.14437 9.13361 4.063 9.55705C4.03302 9.69789 3.9569 9.82469 3.84672 9.91739C3.73654 10.0101 3.59858 10.0634 3.45469 10.0688ZM5.07685 5.63682C4.96206 5.6411 4.84824 5.61427 4.74744 5.55917C4.64665 5.50407 4.56261 5.42275 4.50424 5.32381C4.44587 5.22488 4.41532 5.112 4.41584 4.99713C4.41635 4.88225 4.44791 4.76965 4.50717 4.67124C4.72925 4.2657 4.96099 3.86016 5.20238 3.46427C5.29949 3.32865 5.44589 3.23651 5.61017 3.20763C5.77445 3.17874 5.94351 3.21542 6.08105 3.30978C6.15402 3.35348 6.21765 3.41113 6.26831 3.47944C6.31897 3.54776 6.35566 3.62539 6.37629 3.7079C6.39692 3.79041 6.40107 3.87617 6.38852 3.96029C6.37597 4.0444 6.34695 4.12522 6.30314 4.19811C6.0714 4.57469 5.85897 4.95126 5.64654 5.34715C5.58624 5.44203 5.50155 5.51897 5.40133 5.56993C5.30112 5.62088 5.18905 5.64398 5.07685 5.63682Z" fill="#FCFCFC"/>
<path d="M11.0343 22.3027C10.8989 22.3029 10.7669 22.26 10.6575 22.1801C10.5481 22.1002 10.467 21.9876 10.426 21.8585C10.2812 21.4047 10.146 20.9606 10.0205 20.5357C9.99268 20.3785 10.024 20.2165 10.1085 20.081C10.1929 19.9455 10.3245 19.846 10.4779 19.8017C10.6313 19.7573 10.7956 19.7713 10.9394 19.8408C11.0831 19.9104 11.196 20.0306 11.2564 20.1784C11.3819 20.5936 11.5074 21.0185 11.6523 21.4627C11.7041 21.6253 11.6895 21.8018 11.6117 21.9537C11.5339 22.1056 11.3993 22.2206 11.2371 22.2737C11.1712 22.2928 11.1029 22.3026 11.0343 22.3027ZM9.91425 17.7935C9.76263 17.7937 9.61576 17.7406 9.49928 17.6435C9.38281 17.5465 9.30412 17.4116 9.27697 17.2624C9.19972 16.7796 9.12248 16.2968 9.0742 15.8816C9.05755 15.7133 9.1065 15.5451 9.21083 15.412C9.31516 15.2789 9.46682 15.1912 9.63423 15.1671C9.71802 15.1563 9.80311 15.1623 9.88456 15.1847C9.96601 15.2071 10.0422 15.2455 10.1087 15.2976C10.1752 15.3497 10.2306 15.4145 10.2719 15.4883C10.3131 15.562 10.3392 15.6432 10.3488 15.7271C10.4067 16.1423 10.4646 16.5768 10.5515 17.0307C10.5838 17.1954 10.5518 17.3663 10.462 17.5082C10.3722 17.6501 10.2315 17.7522 10.0687 17.7935H9.91425ZM9.56664 13.1201C9.48212 13.1188 9.39869 13.1008 9.3212 13.067C9.24372 13.0332 9.17374 12.9843 9.11533 12.9232C9.05692 12.8621 9.01125 12.79 8.98098 12.7111C8.95071 12.6322 8.93644 12.548 8.93902 12.4635C8.93902 11.9904 8.93902 11.4979 9.01626 11.0731C9.02237 10.9893 9.04497 10.9076 9.08278 10.8325C9.12059 10.7575 9.17285 10.6907 9.23656 10.636C9.30027 10.5813 9.37417 10.5397 9.45402 10.5136C9.53387 10.4875 9.61808 10.4775 9.70182 10.4841C9.78686 10.4902 9.86986 10.513 9.94603 10.5513C10.0222 10.5896 10.0901 10.6426 10.1457 10.7072C10.2013 10.7718 10.2436 10.8468 10.2702 10.9278C10.2968 11.0088 10.3071 11.0943 10.3005 11.1793C10.3005 11.6041 10.2425 12.0483 10.2329 12.5021C10.2182 12.6669 10.1409 12.8197 10.017 12.9292C9.8931 13.0388 9.73194 13.0967 9.56664 13.0911V13.1201ZM10.175 8.48533C10.1206 8.4947 10.0651 8.4947 10.0108 8.48533C9.92845 8.4641 9.85117 8.4266 9.78353 8.37505C9.71589 8.32349 9.65926 8.25891 9.61696 8.18512C9.57467 8.11133 9.54757 8.02983 9.53727 7.9454C9.52697 7.86098 9.53367 7.77535 9.55698 7.69356C9.67285 7.24939 9.80803 6.80523 9.97218 6.35141C10.0311 6.19007 10.1517 6.05874 10.3074 5.98631C10.4631 5.91388 10.6412 5.90628 10.8026 5.96518C10.9639 6.02408 11.0952 6.14465 11.1677 6.30038C11.2401 6.45611 11.2477 6.63424 11.1888 6.79557C11.0382 7.20038 10.9092 7.61295 10.8026 8.03151C10.7572 8.16018 10.6718 8.2709 10.5588 8.34737C10.4458 8.42385 10.3113 8.46205 10.175 8.45636V8.48533ZM11.9999 4.15955C11.8848 4.15943 11.7717 4.12949 11.6716 4.07265C11.5982 4.03068 11.5338 3.97451 11.4823 3.90742C11.4308 3.84033 11.3932 3.76366 11.3716 3.68187C11.35 3.60009 11.345 3.51483 11.3567 3.43106C11.3684 3.3473 11.3967 3.2667 11.4399 3.19398C11.6523 2.80775 11.8937 2.41186 12.1544 2.00632C12.2549 1.88315 12.3972 1.80128 12.5541 1.77633C12.7111 1.75138 12.8718 1.7851 13.0055 1.87106C13.1392 1.95702 13.2366 2.08919 13.2791 2.24236C13.3216 2.39554 13.3062 2.55899 13.2358 2.70153C12.9944 3.08776 12.7627 3.46434 12.5503 3.83126C12.4973 3.93106 12.418 4.01444 12.321 4.07232C12.2239 4.1302 12.1129 4.16037 11.9999 4.15955Z" fill="#FCFCFC"/>
<path fill-rule="evenodd" clip-rule="evenodd" d="M11.8601 0.500977C11.1439 0.509511 10.4434 0.583526 9.76435 0.71731C7.31901 3.55478 5.89243 7.13625 5.72376 10.8898C5.36725 15.3547 6.15244 19.7077 7.62015 22.6367C8.2046 22.8776 8.81326 23.0718 9.44146 23.2145C7.79337 20.8138 6.58864 16.1976 7.00797 10.9961C7.43886 5.65123 9.70639 2.06472 11.8601 0.500977Z" fill="#FCFCFC"/>
<defs>
<linearGradient id="paint0_linear_60_910" x1="4.35584" y1="3.4105" x2="19.6412" y2="20.5905" gradientUnits="userSpaceOnUse">
<stop stop-color="#E7492B"/>
<stop offset="1" stop-color="#D73524"/>
</linearGradient>
</defs>
</svg>
