<svg width="20" height="20" viewBox="0 0 20 20" fill="none" xmlns="http://www.w3.org/2000/svg">
<path d="M16.5711 4.65505C16.702 4.75105 16.793 4.89186 16.8268 5.05065C16.8605 5.20944 16.8347 5.3751 16.7541 5.51605L16.6981 5.59905L4.61512 15.683C4.50146 15.8261 4.33639 15.919 4.15515 15.942C3.97392 15.965 3.79088 15.9162 3.64512 15.806C3.51421 15.71 3.42321 15.5692 3.38946 15.4104C3.35571 15.2516 3.38157 15.086 3.46212 14.945L3.51912 14.862L15.6001 4.78304C15.7138 4.64002 15.8788 4.5471 16.0601 4.52412C16.2413 4.50114 16.4244 4.54992 16.5701 4.66004L16.5711 4.65505ZM14.9711 7.98505C15.5779 8.70547 16.0704 9.51493 16.4311 10.385C15.2701 13.113 13.0741 15.17 9.71612 15.17C8.78373 15.1789 7.85897 15.0015 6.99612 14.648L8.06912 13.748C8.60521 13.8978 9.15952 13.9721 9.71612 13.969C10.8674 13.9745 11.9941 13.6361 12.9519 12.9972C13.9096 12.3583 14.6549 11.4481 15.0921 10.383C14.8122 9.80042 14.4594 9.25573 14.0421 8.76205L14.9691 7.98805L14.9711 7.98505ZM9.71612 5.59405C10.752 5.58301 11.7772 5.80444 12.7161 6.24204L11.6751 7.11105C11.0441 6.89354 10.3806 6.78499 9.71312 6.79005C8.56033 6.78426 7.43213 7.12326 6.47345 7.76351C5.51478 8.40375 4.76942 9.31599 4.33312 10.383C4.65194 11.0504 5.06852 11.6666 5.56912 12.211L4.64112 12.985C3.94726 12.2193 3.39045 11.3398 2.99512 10.385C4.15612 7.65605 6.35212 5.59905 9.70912 5.59905L9.71612 5.59405ZM12.1561 10.334V10.38C12.1532 10.6976 12.0878 11.0115 11.9634 11.3037C11.8391 11.596 11.6583 11.8608 11.4315 12.0831C11.2047 12.3054 10.9362 12.4807 10.6415 12.5991C10.3468 12.7175 10.0317 12.7766 9.71412 12.773C9.569 12.773 9.42415 12.7606 9.28112 12.736L12.1561 10.334ZM9.71412 7.98305C9.97516 7.98251 10.2347 8.023 10.4831 8.10304L7.30312 10.757C7.28284 10.6307 7.2728 10.503 7.27312 10.375C7.27599 10.0576 7.34145 9.74385 7.46574 9.45174C7.59003 9.15963 7.77072 8.89491 7.99746 8.67272C8.22419 8.45054 8.49253 8.27525 8.7871 8.15691C9.08167 8.03856 9.39669 7.97949 9.71412 7.98305Z" fill="#262B33"/>
</svg>
