<svg width="20" height="20" viewBox="0 0 20 20" fill="none" xmlns="http://www.w3.org/2000/svg">
<path d="M5.56999 2.77567C5.78575 2.55932 6.04232 2.38817 6.32474 2.2722C6.60716 2.15623 6.90978 2.09775 7.21498 2.10018H12.779C13.0842 2.09764 13.3869 2.15603 13.6694 2.27193C13.9519 2.38783 14.2086 2.55892 14.4244 2.77524C14.6403 2.99156 14.811 3.24879 14.9266 3.53191C15.0423 3.81503 15.1005 4.11839 15.098 4.4243V15.5729C15.1009 15.8791 15.043 16.1827 14.9275 16.4662C14.812 16.7497 14.6414 17.0073 14.4255 17.2239C14.2096 17.4405 13.9528 17.6119 13.6701 17.728C13.3874 17.8441 13.0845 17.9026 12.779 17.9H7.21898C6.91374 17.9026 6.61105 17.8442 6.32856 17.7283C6.04606 17.6124 5.78941 17.4413 5.57357 17.225C5.35772 17.0086 5.187 16.7514 5.07135 16.4683C4.95571 16.1852 4.89745 15.8818 4.89998 15.5759V4.4243C4.89756 4.11843 4.95591 3.81513 5.07163 3.53208C5.18734 3.24904 5.35812 2.99191 5.57399 2.77567H5.56999ZM5.82599 15.5729C5.83463 15.9394 5.98373 16.2884 6.24237 16.5476C6.50101 16.8069 6.84931 16.9563 7.21498 16.965H12.779C13.1447 16.9563 13.493 16.8069 13.7516 16.5476C14.0102 16.2884 14.1593 15.9394 14.168 15.5729V13.7128H5.82599V15.5729ZM5.82599 12.7887H14.172V4.4243C14.1633 4.05783 14.0142 3.70875 13.7556 3.44954C13.497 3.19033 13.1487 3.04089 12.783 3.03223H7.21898C6.85272 3.04117 6.50398 3.19125 6.24529 3.45126C5.98659 3.71127 5.83786 4.06122 5.82999 4.42832V12.7887H5.82599Z" fill="#989DAB" stroke="#989DAB" stroke-width="0.3"/>
<mask id="path-2-inside-1_13_318" fill="white">
<path d="M10.4613 15.5726H9.53528C9.41248 15.5726 9.29472 15.5237 9.20789 15.4367C9.12106 15.3497 9.07227 15.2316 9.07227 15.1086C9.07227 14.9855 9.12106 14.8675 9.20789 14.7805C9.29472 14.6934 9.41248 14.6445 9.53528 14.6445H10.4613C10.5841 14.6445 10.7018 14.6934 10.7887 14.7805C10.8755 14.8675 10.9243 14.9855 10.9243 15.1086C10.9243 15.2316 10.8755 15.3497 10.7887 15.4367C10.7018 15.5237 10.5841 15.5726 10.4613 15.5726Z"/>
</mask>
<path d="M10.4613 15.5726H9.53528C9.41248 15.5726 9.29472 15.5237 9.20789 15.4367C9.12106 15.3497 9.07227 15.2316 9.07227 15.1086C9.07227 14.9855 9.12106 14.8675 9.20789 14.7805C9.29472 14.6934 9.41248 14.6445 9.53528 14.6445H10.4613C10.5841 14.6445 10.7018 14.6934 10.7887 14.7805C10.8755 14.8675 10.9243 14.9855 10.9243 15.1086C10.9243 15.2316 10.8755 15.3497 10.7887 15.4367C10.7018 15.5237 10.5841 15.5726 10.4613 15.5726Z" fill="#989DAB"/>
<path d="M10.4613 15.5726V16.5726V15.5726ZM9.53528 15.5726V16.5726V15.5726ZM9.53528 14.6445V13.6445V14.6445ZM10.4613 14.5726H9.53528V16.5726H10.4613V14.5726ZM9.53528 14.5726C9.67847 14.5726 9.81527 14.6296 9.91577 14.7304L8.5 16.143C8.77416 16.4178 9.1465 16.5726 9.53528 16.5726V14.5726ZM9.91577 14.7304C10.0162 14.831 10.0723 14.9671 10.0723 15.1086H8.07227C8.07227 15.4962 8.22592 15.8683 8.5 16.143L9.91577 14.7304ZM10.0723 15.1086C10.0723 15.2501 10.0162 15.3861 9.91577 15.4868L8.5 14.0741C8.22592 14.3488 8.07227 14.7209 8.07227 15.1086H10.0723ZM9.91577 15.4868C9.81527 15.5875 9.67847 15.6445 9.53528 15.6445V13.6445C9.1465 13.6445 8.77416 13.7994 8.5 14.0741L9.91577 15.4868ZM9.53528 15.6445H10.4613V13.6445H9.53528V15.6445ZM10.4613 15.6445C10.3181 15.6445 10.1813 15.5875 10.0808 15.4868L11.4966 14.0741C11.2224 13.7994 10.8501 13.6445 10.4613 13.6445V15.6445ZM10.0808 15.4868C9.98024 15.386 9.92426 15.2499 9.92426 15.1086H11.9243C11.9243 14.7211 11.7708 14.3489 11.4966 14.0741L10.0808 15.4868ZM9.92426 15.1086C9.92426 14.9672 9.98024 14.8311 10.0808 14.7304L11.4966 16.143C11.7708 15.8682 11.9243 15.496 11.9243 15.1086H9.92426ZM10.0808 14.7304C10.1813 14.6296 10.3181 14.5726 10.4613 14.5726V16.5726C10.8501 16.5726 11.2224 16.4178 11.4966 16.143L10.0808 14.7304Z" fill="#989DAB" mask="url(#path-2-inside-1_13_318)"/>
<mask id="path-4-inside-2_13_318" fill="white">
<path d="M7.67786 5.35236H12.3159C12.4387 5.35236 12.5564 5.30347 12.6432 5.21645C12.7301 5.12943 12.7789 5.0114 12.7789 4.88834C12.7789 4.76527 12.7301 4.64724 12.6432 4.56022C12.5564 4.4732 12.4387 4.42432 12.3159 4.42432H7.67786C7.55506 4.42432 7.43729 4.4732 7.35046 4.56022C7.26363 4.64724 7.21484 4.76527 7.21484 4.88834C7.21484 5.0114 7.26363 5.12943 7.35046 5.21645C7.43729 5.30347 7.55506 5.35236 7.67786 5.35236Z"/>
</mask>
<path d="M7.67786 5.35236H12.3159C12.4387 5.35236 12.5564 5.30347 12.6432 5.21645C12.7301 5.12943 12.7789 5.0114 12.7789 4.88834C12.7789 4.76527 12.7301 4.64724 12.6432 4.56022C12.5564 4.4732 12.4387 4.42432 12.3159 4.42432H7.67786C7.55506 4.42432 7.43729 4.4732 7.35046 4.56022C7.26363 4.64724 7.21484 4.76527 7.21484 4.88834C7.21484 5.0114 7.26363 5.12943 7.35046 5.21645C7.43729 5.30347 7.55506 5.35236 7.67786 5.35236Z" fill="#989DAB"/>
<path d="M7.67786 6.35236H12.3159V4.35236H7.67786V6.35236ZM12.3159 6.35236C12.7046 6.35236 13.0769 6.1976 13.3511 5.92278L11.9354 4.51013C12.0359 4.40935 12.1728 4.35236 12.3159 4.35236V6.35236ZM13.3511 5.92278C13.6252 5.64809 13.7789 5.27596 13.7789 4.88834H11.7789C11.7789 4.74685 11.8349 4.61077 11.9354 4.51013L13.3511 5.92278ZM13.7789 4.88834C13.7789 4.50071 13.6252 4.12858 13.3511 3.8539L11.9354 5.26655C11.8349 5.1659 11.7789 5.02983 11.7789 4.88834H13.7789ZM13.3511 3.8539C13.0769 3.57907 12.7046 3.42432 12.3159 3.42432V5.42432C12.1728 5.42432 12.0359 5.36733 11.9354 5.26655L13.3511 3.8539ZM12.3159 3.42432H7.67786V5.42432H12.3159V3.42432ZM7.67786 3.42432C7.28916 3.42432 6.91679 3.57907 6.64258 3.8539L8.05835 5.26655C7.95779 5.36733 7.82096 5.42432 7.67786 5.42432V3.42432ZM6.64258 3.8539C6.36849 4.12858 6.21484 4.50071 6.21484 4.88834H8.21484C8.21484 5.02983 8.15878 5.1659 8.05835 5.26655L6.64258 3.8539ZM6.21484 4.88834C6.21484 5.27596 6.36849 5.64809 6.64258 5.92278L8.05835 4.51013C8.15878 4.61077 8.21484 4.74685 8.21484 4.88834H6.21484ZM6.64258 5.92278C6.91679 6.1976 7.28916 6.35236 7.67786 6.35236V4.35236C7.82096 4.35236 7.95779 4.40935 8.05835 4.51013L6.64258 5.92278Z" fill="#989DAB" mask="url(#path-4-inside-2_13_318)"/>
<mask id="path-6-inside-3_13_318" fill="white">
<path d="M7.68003 4.42332H12.322C12.3828 4.42332 12.443 4.43532 12.4992 4.45863C12.5554 4.48195 12.6064 4.51614 12.6494 4.55923C12.6924 4.60232 12.7265 4.65347 12.7498 4.70977C12.7731 4.76607 12.785 4.82641 12.785 4.88734C12.785 4.94828 12.7731 5.00862 12.7498 5.06492C12.7265 5.12122 12.6924 5.17237 12.6494 5.21546C12.6064 5.25855 12.5554 5.29272 12.4992 5.31604C12.443 5.33936 12.3828 5.35137 12.322 5.35137H7.68003C7.61824 5.35517 7.55635 5.34578 7.49845 5.32381C7.44056 5.30184 7.38799 5.26779 7.34422 5.22392C7.30044 5.18005 7.26644 5.12735 7.24452 5.06933C7.22259 5.0113 7.21322 4.94927 7.21702 4.88734C7.21239 4.82522 7.22121 4.76282 7.24284 4.70442C7.26447 4.64601 7.2984 4.59297 7.34236 4.54892C7.38631 4.50487 7.43923 4.47085 7.49751 4.44917C7.55578 4.42749 7.61805 4.41868 7.68003 4.42332Z"/>
</mask>
<path d="M7.68003 4.42332H12.322C12.3828 4.42332 12.443 4.43532 12.4992 4.45863C12.5554 4.48195 12.6064 4.51614 12.6494 4.55923C12.6924 4.60232 12.7265 4.65347 12.7498 4.70977C12.7731 4.76607 12.785 4.82641 12.785 4.88734C12.785 4.94828 12.7731 5.00862 12.7498 5.06492C12.7265 5.12122 12.6924 5.17237 12.6494 5.21546C12.6064 5.25855 12.5554 5.29272 12.4992 5.31604C12.443 5.33936 12.3828 5.35137 12.322 5.35137H7.68003C7.61824 5.35517 7.55635 5.34578 7.49845 5.32381C7.44056 5.30184 7.38799 5.26779 7.34422 5.22392C7.30044 5.18005 7.26644 5.12735 7.24452 5.06933C7.22259 5.0113 7.21322 4.94927 7.21702 4.88734C7.21239 4.82522 7.22121 4.76282 7.24284 4.70442C7.26447 4.64601 7.2984 4.59297 7.34236 4.54892C7.38631 4.50487 7.43923 4.47085 7.49751 4.44917C7.55578 4.42749 7.61805 4.41868 7.68003 4.42332Z" fill="#989DAB"/>
<path d="M7.68003 4.42332L7.60533 5.42053L7.64263 5.42332H7.68003V4.42332ZM12.322 4.42332V5.42332H12.322L12.322 4.42332ZM12.322 5.35137L12.322 4.35137H12.322V5.35137ZM7.68003 5.35137V4.35137H7.64925L7.61852 4.35326L7.68003 5.35137ZM7.21702 4.88734L8.21514 4.94859L8.21931 4.88075L8.21425 4.81297L7.21702 4.88734ZM7.68003 5.42332H12.322V3.42332H7.68003V5.42332ZM12.322 5.42332C12.2513 5.42332 12.1812 5.40938 12.1158 5.38222L12.8826 3.53505C12.7048 3.46125 12.5143 3.42332 12.322 3.42332L12.322 5.42332ZM12.1158 5.38222C12.0504 5.35508 11.9913 5.31538 11.9415 5.26555L13.3573 3.8529C13.2216 3.7169 13.0603 3.60883 12.8826 3.53505L12.1158 5.38222ZM11.9415 5.26555C11.8918 5.21573 11.8525 5.15666 11.8256 5.09173L13.674 4.32781C13.6006 4.15028 13.493 3.9889 13.3573 3.8529L11.9415 5.26555ZM11.8256 5.09173C11.7988 5.0269 11.785 4.95746 11.785 4.88734H13.785C13.785 4.69535 13.7473 4.50523 13.674 4.32781L11.8256 5.09173ZM11.785 4.88734C11.785 4.81723 11.7988 4.74779 11.8256 4.68296L13.674 5.44688C13.7473 5.26946 13.785 5.07934 13.785 4.88734H11.785ZM11.8256 4.68296C11.8525 4.61803 11.8918 4.55896 11.9415 4.50914L13.3573 5.92179C13.493 5.78579 13.6006 5.62441 13.674 5.44688L11.8256 4.68296ZM11.9415 4.50914C11.9914 4.45921 12.0506 4.41954 12.1158 4.39246L12.8826 6.23962C13.0602 6.1659 13.2215 6.05789 13.3573 5.92179L11.9415 4.50914ZM12.1158 4.39246C12.1811 4.36536 12.2512 4.35137 12.322 4.35137L12.322 6.35137C12.5145 6.35137 12.705 6.31336 12.8826 6.23962L12.1158 4.39246ZM12.322 4.35137H7.68003V6.35137H12.322V4.35137ZM7.61852 4.35326C7.69846 4.34833 7.77849 4.36049 7.85327 4.38887L7.14363 6.25874C7.33421 6.33107 7.53802 6.36202 7.74155 6.34947L7.61852 4.35326ZM7.85327 4.38887C7.92809 4.41727 7.99584 4.46121 8.0521 4.51759L6.63633 5.93024C6.78014 6.07437 6.95302 6.1864 7.14363 6.25874L7.85327 4.38887ZM8.0521 4.51759C8.10822 4.57383 8.15183 4.64139 8.17997 4.71587L6.30906 5.42278C6.38105 5.61331 6.49266 5.78626 6.63633 5.93024L8.0521 4.51759ZM8.17997 4.71587C8.20803 4.79013 8.22 4.86944 8.21514 4.94859L6.2189 4.8261C6.20644 5.0291 6.23716 5.23247 6.30906 5.42278L8.17997 4.71587ZM8.21425 4.81297C8.22031 4.89425 8.20876 4.97565 8.1806 5.0517L6.30508 4.35713C6.23366 4.54999 6.20446 4.75619 6.21979 4.96172L8.21425 4.81297ZM8.1806 5.0517C8.1524 5.12785 8.10802 5.19734 8.05024 5.25525L6.63447 3.8426C6.48878 3.98861 6.37654 4.16417 6.30508 4.35713L8.1806 5.0517ZM8.05024 5.25525C7.99256 5.31306 7.92296 5.35785 7.84614 5.38643L7.14887 3.51191C6.9555 3.58384 6.78006 3.69668 6.63447 3.8426L8.05024 5.25525ZM7.84614 5.38643C7.76924 5.41503 7.68708 5.42665 7.60533 5.42053L7.75474 3.42612C7.54901 3.41071 7.34233 3.43995 7.14887 3.51191L7.84614 5.38643Z" fill="#989DAB" mask="url(#path-6-inside-3_13_318)"/>
</svg>
