<svg width="20" height="20" viewBox="0 0 20 20" fill="none" xmlns="http://www.w3.org/2000/svg">
<path d="M9.99921 2C11.6294 1.99976 13.2207 2.49755 14.5601 3.42673C15.8996 4.35591 16.9231 5.67211 17.4938 7.19911C18.0645 8.72611 18.155 10.391 17.7533 11.9709C17.3515 13.5508 16.4767 14.9702 15.2459 16.0391L15.0879 16.1731C14.0979 16.9892 12.9261 17.5552 11.6714 17.8234C10.4166 18.0915 9.11584 18.0539 7.8787 17.7137C6.64156 17.3736 5.5044 16.7408 4.56316 15.8689C3.62192 14.9969 2.90422 13.9114 2.47063 12.7038C2.03704 11.4963 1.90027 10.2022 2.07187 8.93064C2.24346 7.65913 2.71839 6.44754 3.45657 5.39812C4.19475 4.3487 5.17453 3.49223 6.31323 2.90098C7.45194 2.30974 8.71616 2.00006 9.99921 2ZM9.99921 13.5993C9.25036 13.599 8.51385 13.79 7.8594 14.1539C7.20496 14.5179 6.65425 15.0429 6.2594 15.6791C7.30665 16.3709 8.52571 16.7576 9.78022 16.7961H9.99921C11.3288 16.7985 12.6296 16.4089 13.739 15.6761C13.3438 15.0404 12.7929 14.516 12.1385 14.1526C11.4841 13.7892 10.7478 13.5987 9.99921 13.5993ZM9.99921 3.19992C8.63947 3.19982 7.31093 3.60739 6.18517 4.36998C5.05942 5.13256 4.18815 6.21515 3.6839 7.47791C3.17965 8.74068 3.06558 10.1256 3.35642 11.4539C3.64725 12.7821 4.32964 13.9927 5.31545 14.9292C5.82483 14.1518 6.51968 13.5135 7.33736 13.0717C8.15503 12.6299 9.06981 12.3986 9.99921 12.3986C10.9286 12.3986 11.8434 12.6299 12.6611 13.0717C13.4787 13.5135 14.1736 14.1518 14.683 14.9292C15.6688 13.9927 16.3512 12.7821 16.642 11.4539C16.9328 10.1256 16.8188 8.74068 16.3145 7.47791C15.8103 6.21515 14.939 5.13256 13.8132 4.36998C12.6875 3.60739 11.3589 3.19982 9.99921 3.19992ZM9.99921 5.1998C10.6321 5.1998 11.2507 5.38746 11.7769 5.73906C12.3032 6.09066 12.7133 6.5904 12.9555 7.17509C13.1977 7.75978 13.261 8.40315 13.1376 9.02385C13.0141 9.64455 12.7093 10.2147 12.2618 10.6622C11.8143 11.1097 11.2442 11.4144 10.6235 11.5379C10.0028 11.6614 9.35938 11.598 8.77469 11.3558C8.18999 11.1136 7.69024 10.7035 7.33864 10.1773C6.98704 9.65111 6.79938 9.03246 6.79938 8.3996C6.79938 7.55096 7.1365 6.73708 7.73658 6.137C8.33667 5.53692 9.15056 5.1998 9.99921 5.1998ZM9.99921 6.39973C9.60367 6.39973 9.21701 6.51701 8.88813 6.73676C8.55925 6.95651 8.30291 7.26885 8.15154 7.63428C8.00017 7.99971 7.96057 8.40182 8.03774 8.78976C8.11491 9.1777 8.30538 9.53404 8.58507 9.81373C8.86476 10.0934 9.2211 10.2839 9.60905 10.361C9.99699 10.4382 10.3991 10.3986 10.7645 10.2472C11.13 10.0959 11.4423 9.83955 11.6621 9.51067C11.8818 9.18179 11.9991 8.79514 11.9991 8.3996C11.9991 7.8692 11.7884 7.36052 11.4134 6.98547C11.0383 6.61042 10.5296 6.39973 9.99921 6.39973Z" fill="#989DAB"/>
</svg>
