<svg width="24" height="24" viewBox="0 0 24 24" fill="none" xmlns="http://www.w3.org/2000/svg">
<path d="M5.53808 22.5H18.4629C19.5336 22.4987 20.56 22.0728 21.317 21.3157C22.0741 20.5586 22.4998 19.5321 22.501 18.4614V5.53858C22.4998 4.46791 22.0741 3.44141 21.317 2.68429C20.56 1.92717 19.5336 1.50125 18.4629 1.5H5.53808C4.46741 1.50125 3.44096 1.92717 2.68394 2.68429C1.92691 3.44141 1.50112 4.46791 1.5 5.53858V18.4614C1.50112 19.5321 1.92691 20.5586 2.68394 21.3157C3.44097 22.0728 4.46742 22.4987 5.53808 22.5Z" fill="url(#paint0_linear_60_915)"/>
<path d="M8.71263 10.2627L4.59863 14.3768H6.35763V17.3493C6.35639 17.3875 6.36285 17.4255 6.37663 17.4612C6.39056 17.4968 6.41167 17.5291 6.43863 17.5561C6.4656 17.5832 6.49797 17.6044 6.53363 17.6183C6.56928 17.6322 6.60739 17.6387 6.64563 17.6373H10.7596C10.7979 17.6387 10.836 17.6322 10.8716 17.6183C10.9073 17.6044 10.9397 17.5833 10.9666 17.5561C10.9936 17.5291 11.0147 17.4968 11.0286 17.4612C11.0429 17.4257 11.0494 17.3875 11.0476 17.3493V14.3974H12.7656L8.71263 10.2627Z" fill="#FCFCFC"/>
<path d="M18.1565 9.95283V6.65113C18.1582 6.61293 18.1518 6.57481 18.1375 6.53933C18.1236 6.50374 18.1025 6.4714 18.0755 6.44433C18.0485 6.41722 18.0162 6.39603 17.9805 6.38213C17.9449 6.36825 17.9067 6.36181 17.8685 6.36323H13.7545C13.7163 6.36181 13.6782 6.36825 13.6425 6.38213C13.607 6.39627 13.5747 6.41742 13.5475 6.44433C13.5205 6.4714 13.4994 6.50374 13.4855 6.53933C13.4717 6.57494 13.4653 6.61296 13.4665 6.65113V9.95283H11.7185L15.8325 14.0669L19.9465 9.95283H18.1565Z" fill="#FCFCFC"/>
<defs>
<linearGradient id="paint0_linear_60_915" x1="1.50049" y1="1.5" x2="22.5005" y2="22.5" gradientUnits="userSpaceOnUse">
<stop stop-color="#FFCB2A"/>
<stop offset="1" stop-color="#FFAE38"/>
</linearGradient>
</defs>
</svg>
