<svg width="24" height="24" viewBox="0 0 24 24" fill="none" xmlns="http://www.w3.org/2000/svg">
<path d="M20.7674 20.4022C20.7795 20.3876 20.7909 20.3723 20.8018 20.3564C20.8123 20.3412 20.8218 20.3259 20.8304 20.3106L20.8361 20.3001C20.8562 20.2643 20.8734 20.227 20.8877 20.1885V20.1808C20.8989 20.1496 20.9082 20.1178 20.9153 20.0854V20.072C20.9153 20.0644 20.9153 20.0567 20.9153 20.0482C20.9153 20.0396 20.9153 20.0348 20.9153 20.0281V20.0109C20.9153 20.0033 20.9153 19.9957 20.9153 19.989C20.9153 19.9823 20.9153 19.9785 20.9153 19.9737C20.9153 19.9689 20.9153 19.9584 20.9153 19.9508C20.9153 19.9432 20.9153 19.9413 20.9153 19.9365C20.9153 19.9317 20.9153 19.9212 20.9153 19.9136C20.9153 19.9059 20.9153 19.9031 20.9153 19.8983C20.9153 19.8935 20.9153 19.884 20.9153 19.8773C20.9153 19.8706 20.9153 19.8659 20.9153 19.8601C20.9153 19.8544 20.9153 19.8477 20.9153 19.841V19.822V19.8057V19.7838V19.7695L20.9106 19.7456V19.7332L20.9039 19.7084V19.6979L20.8962 19.6731V19.6626L20.8867 19.6378L20.8819 19.6253L20.8724 19.6024L20.8648 19.5872L20.8562 19.569L20.8409 19.5404L18.0206 14.6547C18.5532 14.0334 5.4222 14.0334 5.95286 14.6547L3.17073 19.4726L3.15355 19.5051L3.14591 19.5213L3.13732 19.5385L3.12873 19.5595L3.12301 19.5729L3.11441 19.5958V19.6082L3.10678 19.632V19.6444L3.1001 19.6673V19.6807V19.7027V19.7179V19.738V19.7561V19.7733C3.1001 19.78 3.1001 19.7866 3.1001 19.7943C3.1001 19.8019 3.1001 19.8048 3.1001 19.8096C3.1001 19.8143 3.1001 19.8248 3.1001 19.8325C3.1001 19.8401 3.1001 19.841 3.1001 19.8458C3.1001 19.8506 3.1001 19.862 3.1001 19.8706C3.1001 19.8792 3.1001 19.8792 3.1001 19.883C3.1001 19.8869 3.1001 19.9002 3.1001 19.9088C3.1001 19.9174 3.1001 19.9174 3.1001 19.9212C3.1001 19.925 3.1001 19.9374 3.1001 19.946V19.9603C3.1001 19.968 3.1001 19.9756 3.1001 19.9833V20.0014V20.0205C3.1001 20.0319 3.10583 20.0443 3.10869 20.0558C3.11346 20.0749 3.12014 20.094 3.12682 20.1131V20.1216C3.1335 20.1388 3.14019 20.156 3.14782 20.1722C3.15546 20.1885 3.16692 20.2123 3.17741 20.2324L3.18408 20.2438C3.19267 20.2591 3.20222 20.2744 3.21177 20.2887C3.22259 20.3039 3.23372 20.3189 3.24518 20.3335L3.25185 20.3412C3.26394 20.3558 3.27635 20.3698 3.28907 20.3832L3.29481 20.3889C3.32434 20.4188 3.35625 20.4462 3.39024 20.471L3.43606 20.5025H3.44178L3.4666 20.5177L3.48091 20.5254C3.49873 20.5355 3.51687 20.5448 3.53532 20.553L3.55155 20.5607L3.60309 20.5807L3.65939 20.5979H3.6718L3.7157 20.6074H3.7348L3.77393 20.6122H3.79301H3.8436H3.85028C3.89475 20.6122 3.93913 20.6084 3.98294 20.6008H4.00013H4.02016L4.04976 20.5941L6.47685 19.9441L7.12681 22.3712C7.13158 22.3903 7.13826 22.4094 7.14494 22.4285V22.4371C7.15162 22.4543 7.15831 22.4714 7.16594 22.4877C7.17358 22.5039 7.18502 22.5277 7.19552 22.5478L7.20221 22.5592C7.2108 22.5745 7.22033 22.5898 7.22988 22.6041C7.24069 22.6194 7.25183 22.6343 7.26328 22.649L7.26997 22.6566C7.28142 22.6712 7.29383 22.6852 7.30719 22.6986L7.31292 22.7043C7.34244 22.7342 7.37436 22.7617 7.40836 22.7864L7.45417 22.8179H7.4599L7.48472 22.8332L7.49904 22.8408C7.51685 22.851 7.53498 22.8602 7.55343 22.8685L7.56965 22.8761L7.62119 22.8962L7.67751 22.9133H7.68992L7.73381 22.9229H7.7529L7.79204 22.9276H7.81113H7.86171H7.86839C7.91448 22.9276 7.96047 22.9235 8.00583 22.9152H8.01823L8.04019 22.9105L8.06883 22.9038L8.11081 22.8914H8.12037L8.15472 22.879H8.16617L8.20054 22.8637H8.20817C8.23612 22.8501 8.2632 22.8348 8.28929 22.8179L8.29788 22.8122L8.32747 22.7912L8.33797 22.7835L8.37233 22.7558H8.3771C8.39893 22.7367 8.41964 22.7163 8.43914 22.6948L8.44963 22.6833L8.47731 22.6499L8.48494 22.6404L8.51358 22.5993L8.53839 22.5592L11.4437 17.5266C11.4662 17.4876 11.4854 17.4467 11.5009 17.4044C11.6622 17.4139 11.8235 17.4197 11.9858 17.4197C12.148 17.4197 12.3217 17.4139 12.4878 17.4034C12.5053 17.4703 12.5316 17.5345 12.5661 17.5943L15.4713 22.627C15.4815 22.6448 15.4923 22.662 15.5038 22.6785L15.5248 22.7072L15.5324 22.7177L15.5601 22.7511L15.5715 22.7635L15.5925 22.7854L15.6049 22.7978L15.6336 22.8236L15.6403 22.8293L15.6727 22.8561L15.6832 22.8637L15.7118 22.8837L15.7214 22.8904C15.7475 22.9073 15.7746 22.9226 15.8025 22.9362H15.8111C15.8369 22.9485 15.8633 22.9594 15.8903 22.9687H15.9008L15.9428 22.9811L15.9724 22.9878H15.9924H16.0058C16.0505 22.9959 16.0959 23 16.1413 23.0002H16.148H16.1986H16.2177C16.2521 22.9968 16.2862 22.9911 16.3198 22.983H16.3322L16.3895 22.9658L16.441 22.9458L16.4563 22.9391L16.5116 22.9114L16.5259 22.9038L16.5508 22.8885H16.5565L16.6023 22.8561L16.6099 22.8503C16.6405 22.8267 16.6692 22.8009 16.6958 22.773L16.7006 22.7683C16.7133 22.7543 16.7257 22.7403 16.7378 22.7263L16.7436 22.7186C16.7556 22.704 16.7671 22.6887 16.7779 22.6728C16.7884 22.6575 16.798 22.6423 16.8066 22.627L16.8123 22.6165C16.8323 22.5807 16.8496 22.5433 16.8638 22.5048V22.4972C16.8705 22.4781 16.8772 22.4581 16.882 22.438L17.53 20.0176L19.9571 20.6676L19.9867 20.6743H20.0067H20.0201C20.0648 20.6824 20.1102 20.6865 20.1556 20.6867H20.1623H20.2129H20.232C20.2664 20.6833 20.3005 20.6775 20.3341 20.6695H20.3465L20.4038 20.6523L20.4553 20.6323L20.4715 20.6256L20.5269 20.5979L20.5412 20.5903L20.566 20.575H20.5717L20.6176 20.5425L20.6252 20.5368C20.6557 20.5132 20.6844 20.4874 20.7111 20.4595L20.7159 20.4547C20.7286 20.4407 20.741 20.4267 20.7531 20.4127L20.7674 20.4022Z" fill="url(#paint0_linear_163_2036)"/>
<path d="M11.9775 17.3578C9.8092 17.3553 7.73045 16.4928 6.19724 14.9596C4.66404 13.4264 3.8016 11.3477 3.79907 9.17939C3.80135 7.01095 4.66366 4.93195 6.19689 3.39854C7.73013 1.86512 9.80904 1.00253 11.9775 1C14.1461 1.00227 16.2252 1.86476 17.7587 3.3982C19.2921 4.93164 20.1547 7.01078 20.1569 9.17939C20.1544 11.3478 19.2918 13.4267 17.7584 14.96C16.225 16.4932 14.1459 17.3556 11.9775 17.3578ZM11.9775 6.08039C11.1559 6.0814 10.3682 6.40822 9.78728 6.98918C9.20632 7.57014 8.87954 8.3578 8.87853 9.17939C8.87954 10.001 9.20632 10.7886 9.78728 11.3696C10.3682 11.9506 11.1559 12.2774 11.9775 12.2784C12.7991 12.2774 13.5867 11.9506 14.1677 11.3696C14.7486 10.7886 15.0755 10.001 15.0766 9.17939C15.0755 8.35796 14.7488 7.57045 14.168 6.98952C13.5873 6.40859 12.7989 6.08165 11.9775 6.08039Z" fill="url(#paint1_linear_163_2036)"/>
<defs>
<linearGradient id="paint0_linear_163_2036" x1="12.9163" y1="23.0002" x2="12.6938" y2="9.18158" gradientUnits="userSpaceOnUse">
<stop stop-color="#AA6521"/>
<stop offset="1" stop-color="#553311"/>
</linearGradient>
<linearGradient id="paint1_linear_163_2036" x1="7.7086" y1="2.71757" x2="16.7381" y2="15.8039" gradientUnits="userSpaceOnUse">
<stop stop-color="#FFDBB9"/>
<stop offset="1" stop-color="#FFC440"/>
</linearGradient>
</defs>
</svg>
