<svg width="24" height="24" viewBox="0 0 24 24" fill="none" xmlns="http://www.w3.org/2000/svg">
<path d="M16.1714 2.5H7.81491C5.46042 2.5 3.5498 4.42026 3.5498 6.77476V17.2252C3.5498 19.5894 5.46042 21.5 7.81491 21.5H16.1811C18.5356 21.5 20.4462 19.5797 20.4462 17.2252V6.77476C20.4462 4.41061 18.5356 2.5 16.1811 2.5H16.1714ZM18.7961 17.2349C18.7961 18.692 17.6189 19.8692 16.1714 19.8692H7.81491C6.36748 19.8692 5.19023 18.6823 5.19023 17.2349V6.77476C5.19023 5.31767 6.36748 4.14043 7.81491 4.14043H16.1811C17.6285 4.14043 18.8058 5.32732 18.8058 6.77476V17.2252L18.7961 17.2349Z" fill="#5A5D62"/>
<path d="M16.2968 6.75562H7.68935C7.23582 6.75562 6.86914 7.1223 6.86914 7.57583C6.86914 8.02936 7.23582 8.39604 7.68935 8.39604H16.2968C16.7503 8.39604 17.117 8.02936 17.117 7.57583C17.117 7.1223 16.7503 6.75562 16.2968 6.75562Z" fill="#5A5D62"/>
<path d="M16.2968 10.8469H7.68935C7.23582 10.8469 6.86914 11.2136 6.86914 11.6671C6.86914 12.1207 7.23582 12.4874 7.68935 12.4874H16.2968C16.7503 12.4874 17.117 12.1207 17.117 11.6671C17.117 11.2136 16.7503 10.8469 16.2968 10.8469Z" fill="#5A5D62"/>
<path d="M13.2043 14.9385H7.53394C7.16635 14.9385 6.86914 15.3052 6.86914 15.7587C6.86914 16.2122 7.16635 16.5789 7.53394 16.5789H13.2043C13.5719 16.5789 13.8691 16.2122 13.8691 15.7587C13.8691 15.3052 13.5719 14.9385 13.2043 14.9385Z" fill="#5A5D62"/>
</svg>
