<svg width="20" height="20" viewBox="0 0 20 20" fill="none" xmlns="http://www.w3.org/2000/svg">
<g id="ICON-EYE">
<path id="close_eye" d="M17.3012 4.0612C17.4467 4.16787 17.5478 4.32433 17.5853 4.50077C17.6228 4.6772 17.5941 4.86126 17.5046 5.01787L17.4424 5.11009L4.0168 16.3145C3.89051 16.4735 3.7071 16.5767 3.50572 16.6022C3.30435 16.6278 3.10098 16.5736 2.93902 16.4512C2.79357 16.3445 2.69245 16.1881 2.65495 16.0116C2.61745 15.8352 2.64619 15.6511 2.73569 15.4945L2.79902 15.4023L16.2224 4.20342C16.3486 4.04451 16.5321 3.94126 16.7334 3.91573C16.9348 3.89019 17.1382 3.94439 17.3001 4.06676L17.3012 4.0612ZM15.5235 7.76121C16.1977 8.56168 16.7448 9.46108 17.1457 10.4279C15.8557 13.459 13.4157 15.7445 9.68458 15.7445C8.64859 15.7544 7.62108 15.5572 6.66235 15.1645L7.85458 14.1645C8.45023 14.3309 9.06614 14.4135 9.68458 14.4101C10.9638 14.4161 12.2157 14.0401 13.2798 13.3303C14.344 12.6204 15.1721 11.609 15.6579 10.4256C15.3469 9.77829 14.9548 9.17308 14.4912 8.62454L15.5212 7.76454L15.5235 7.76121ZM9.68458 5.10454C10.8355 5.09227 11.9746 5.3383 13.0179 5.82453L11.8612 6.79009C11.1601 6.54841 10.4229 6.4278 9.68124 6.43343C8.40036 6.427 7.14681 6.80367 6.08161 7.51505C5.01642 8.22643 4.18824 9.24003 3.70346 10.4256C4.05771 11.1672 4.52058 11.8518 5.0768 12.4568L4.04569 13.3168C3.27473 12.4659 2.65606 11.4887 2.2168 10.4279C3.5068 7.39565 5.9468 5.11009 9.6768 5.11009L9.68458 5.10454ZM12.3957 10.3712V10.4223C12.3925 10.7752 12.3197 11.1239 12.1816 11.4486C12.0434 11.7733 11.8426 12.0676 11.5905 12.3146C11.3385 12.5615 11.0402 12.7564 10.7128 12.8879C10.3854 13.0195 10.0352 13.0852 9.68235 13.0812C9.52111 13.0811 9.36016 13.0674 9.20124 13.0401L12.3957 10.3712ZM9.68235 7.75898C9.9724 7.75838 10.2607 7.80337 10.5368 7.89231L7.00347 10.8412C6.98093 10.7008 6.96978 10.5589 6.97013 10.4168C6.97332 10.064 7.04605 9.71543 7.18416 9.39086C7.32226 9.0663 7.52302 8.77216 7.77495 8.52529C8.02688 8.27842 8.32503 8.08365 8.65233 7.95216C8.97963 7.82067 9.32965 7.75502 9.68235 7.75898Z" fill="#666666"/>
</g>
</svg>
