<svg width="80" height="20" viewBox="0 0 80 20" fill="none" xmlns="http://www.w3.org/2000/svg">
<path d="M9.44395 5.37201L17.756 5.33603L18.127 2L8.52695 2.04703L7.32696 2.05301C3.85496 2.31701 3.54896 6.02802 3.54896 6.02802L3.00195 17.655L7.68596 17.679L7.96396 12.147L17.064 12.102L17.273 8.79401L8.10396 8.84903C8.10396 8.84903 8.11496 7.87702 8.22896 6.78702C8.25252 6.45191 8.38342 6.13332 8.60227 5.87845C8.82112 5.62358 9.11626 5.44598 9.44395 5.37201Z" fill="white"/>
<path d="M33.43 2L32.551 10.673C32.051 15.609 31.232 17.8 24.931 17.8C19.595 17.8 17.957 15.517 18.443 10.719L19.327 2H23.959L23.059 10.927C22.779 13.695 23.041 14.268 25.092 14.268C27.066 14.268 27.807 13.626 28.081 10.927L28.981 2H33.43Z" fill="white"/>
<path d="M44.335 2.00879L43.865 6.60281C43.643 8.12845 43.5314 9.66811 43.531 11.2098C43.049 10.0428 42.4829 9.0348 41.8979 7.7988L39.1349 2.00781H34.869L33.251 17.8078H37.158L37.8289 13.0488C38.0039 11.3348 38.223 9.77879 38.378 8.30679C38.893 9.48479 39.478 10.6568 39.962 11.7128L42.637 16.8818C42.8042 17.2398 43.0763 17.5384 43.4173 17.7379C43.7583 17.9374 44.152 18.0284 44.546 17.9988C45.1244 18.0127 45.6863 17.8048 46.1164 17.4177C46.5465 17.0305 46.8121 16.4936 46.8589 15.9168L48.241 2.00781L44.335 2.00879Z" fill="white"/>
<path d="M49.787 10.0039C49.4641 10.1769 49.1882 10.4261 48.9833 10.7298C48.7783 11.0335 48.6505 11.3826 48.611 11.7469L48.2221 15.9819C48.1937 16.24 48.2209 16.5011 48.3019 16.7478C48.3828 16.9945 48.5156 17.221 48.6913 17.4121C48.867 17.6033 49.0815 17.7546 49.3205 17.856C49.5595 17.9574 49.8175 18.0064 50.077 17.9999H59.191C59.7442 17.9924 60.2756 17.7832 60.6855 17.4116C61.0953 17.0401 61.3554 16.5317 61.417 15.9819L61.807 11.7469C61.8443 11.4051 61.7836 11.0597 61.6321 10.7511C61.4805 10.4425 61.2443 10.1834 60.951 10.0039C61.274 9.8309 61.5499 9.58171 61.7548 9.27798C61.9597 8.97426 62.0875 8.62515 62.127 8.26089L62.517 4.02588C62.5454 3.7678 62.5182 3.50667 62.4372 3.25998C62.3563 3.01329 62.2235 2.78678 62.0478 2.59564C61.8721 2.4045 61.6575 2.25317 61.4185 2.15179C61.1795 2.05042 60.9216 2.00136 60.662 2.0079H51.548C50.9949 2.01564 50.4637 2.22488 50.0538 2.5964C49.644 2.96793 49.3838 3.47618 49.322 4.02588L48.933 8.26089C48.8955 8.6025 48.9558 8.94776 49.107 9.25638C49.2582 9.565 49.494 9.82427 49.787 10.0039ZM52.287 12.0959C52.3233 11.8671 52.4415 11.6594 52.6196 11.5113C52.7977 11.3632 53.0235 11.2849 53.255 11.2909H57.255C57.3635 11.2829 57.4725 11.2982 57.5746 11.3356C57.6768 11.373 57.7697 11.4317 57.8474 11.5079C57.9251 11.584 57.9857 11.6759 58.0251 11.7773C58.0645 11.8786 58.0819 11.9873 58.076 12.0959L57.921 13.7859C57.8847 14.0148 57.7664 14.2227 57.5881 14.3708C57.4098 14.5189 57.1837 14.5971 56.952 14.5909H52.952C52.8436 14.5987 52.7348 14.5834 52.6328 14.5459C52.5308 14.5084 52.4379 14.4496 52.3603 14.3735C52.2828 14.2974 52.2223 14.2056 52.1829 14.1043C52.1436 14.003 52.1262 13.8944 52.132 13.7859L52.287 12.0959ZM52.837 6.12289C52.8733 5.89415 52.9915 5.68639 53.1696 5.5383C53.3477 5.39021 53.5735 5.31188 53.805 5.3179H57.805C57.9135 5.30993 58.0225 5.32516 58.1246 5.36258C58.2268 5.39999 58.3198 5.45872 58.3974 5.53488C58.4751 5.61104 58.5357 5.70287 58.5751 5.80426C58.6145 5.90565 58.6319 6.01427 58.626 6.12289L58.471 7.81289C58.4347 8.04182 58.3164 8.24971 58.1381 8.39783C57.9598 8.54594 57.7337 8.62415 57.502 8.61789H53.502C53.3936 8.62587 53.2847 8.61063 53.1826 8.57321C53.0805 8.53579 52.9875 8.47702 52.9099 8.40085C52.8324 8.32467 52.7719 8.23282 52.7326 8.13144C52.6933 8.03005 52.6761 7.92147 52.682 7.81289L52.837 6.12289Z" fill="white"/>
<path d="M64.2671 10.0039C63.9441 10.177 63.6683 10.4261 63.4634 10.7298C63.2585 11.0335 63.1307 11.3826 63.0911 11.7469L62.701 15.9819C62.6727 16.2399 62.7 16.5011 62.7809 16.7478C62.8618 16.9945 62.9946 17.221 63.1703 17.4121C63.346 17.6033 63.5605 17.7546 63.7996 17.856C64.0386 17.9573 64.2965 18.0064 64.5561 17.9998H73.6671C74.2202 17.9921 74.7514 17.7829 75.1613 17.4113C75.5711 17.0398 75.8313 16.5316 75.8931 15.9819L76.2821 11.7469C76.3195 11.405 76.2588 11.0596 76.1073 10.751C75.9557 10.4424 75.7194 10.1833 75.4261 10.0039C75.749 9.83087 76.0249 9.58168 76.2299 9.27796C76.4348 8.97423 76.5625 8.62512 76.602 8.26087L76.9921 4.02585C77.0202 3.76781 76.9929 3.50675 76.9119 3.26013C76.8309 3.01352 76.6981 2.78705 76.5225 2.59595C76.3468 2.40485 76.1323 2.2535 75.8933 2.15207C75.6544 2.05064 75.3966 2.0015 75.1371 2.00787H66.0221C65.4689 2.0154 64.9375 2.22457 64.5276 2.59613C64.1178 2.96769 63.8576 3.47607 63.7961 4.02585L63.4061 8.26087C63.369 8.60319 63.4304 8.94898 63.5829 9.25769C63.7354 9.5664 63.9727 9.82525 64.2671 10.0039ZM66.7671 12.0959C66.8034 11.8671 66.9216 11.6594 67.0996 11.5113C67.2777 11.3632 67.5035 11.2848 67.735 11.2909H71.735C71.8435 11.2829 71.9525 11.2981 72.0546 11.3355C72.1568 11.373 72.2498 11.4317 72.3275 11.5078C72.4051 11.584 72.4657 11.6758 72.5051 11.7772C72.5445 11.8786 72.5619 11.9872 72.5561 12.0959L72.4011 13.7859C72.3647 14.0148 72.2464 14.2227 72.0681 14.3708C71.8898 14.5189 71.6638 14.5971 71.4321 14.5909H67.4321C67.3236 14.5988 67.2147 14.5836 67.1126 14.5462C67.0105 14.5088 66.9176 14.45 66.84 14.3738C66.7624 14.2977 66.7019 14.2058 66.6626 14.1044C66.6233 14.003 66.6061 13.8944 66.6121 13.7859L66.7671 12.0959ZM67.3161 6.12286C67.3524 5.89412 67.4705 5.68636 67.6486 5.53827C67.8267 5.39018 68.0525 5.31186 68.2841 5.31787H72.2841C72.3925 5.30991 72.5015 5.32513 72.6036 5.36255C72.7058 5.39997 72.7988 5.45869 72.8764 5.53485C72.9541 5.61101 73.0147 5.70284 73.0541 5.80423C73.0935 5.90562 73.1109 6.01424 73.1051 6.12286L72.9501 7.81287C72.9138 8.04179 72.7954 8.24968 72.6171 8.3978C72.4388 8.54591 72.2127 8.62412 71.981 8.61786H67.981C67.8726 8.62584 67.7637 8.61061 67.6616 8.57318C67.5595 8.53576 67.4666 8.477 67.389 8.40082C67.3114 8.32464 67.2509 8.2328 67.2116 8.13141C67.1723 8.03002 67.1551 7.92144 67.1611 7.81287L67.3161 6.12286Z" fill="white"/>
</svg>
