<svg width="50" height="50" viewBox="0 0 50 50" fill="none" xmlns="http://www.w3.org/2000/svg">
<g id="tag-new">
<path id="Rectangle" d="M20 0H50L0 50V20L20 0Z" fill="#FF4141"/>
<path id="NEW" d="M16.9517 25.912L15.5517 27.3121L8.68213 25.8787C8.40168 25.8244 8.1249 25.7526 7.8534 25.6638L7.83289 25.6843C8.20289 25.9947 8.5569 26.3237 8.89355 26.67L12.5436 30.3201L11.2468 31.6169L4.8291 25.1992L6.32039 23.7079L12.9721 25.1271C13.4138 25.2209 13.6901 25.2845 13.8009 25.318L13.8214 25.2975C13.4932 25.0382 13.1843 24.7553 12.8972 24.4511L9.23721 20.7911L10.534 19.4943L16.9517 25.912ZM22.2423 20.6214L18.443 24.4207L12.0253 18.003L15.6754 14.3529L16.7941 15.4716L14.5115 17.7541L16.024 19.2666L18.1453 17.1453L19.2597 18.2597L17.1384 20.381L18.6941 21.9366L21.1258 19.5049L22.2423 20.6214ZM25.3578 4.67049L30.065 12.7987L28.5448 14.319L23.2655 11.2289C22.9754 11.056 22.7038 10.8536 22.4552 10.625L22.4417 10.6385C22.6606 10.8965 22.8583 11.1717 23.0329 11.4615L26.0953 16.7684L24.5171 18.3466L16.3903 13.638L17.8879 12.1404L23.1913 15.5373C23.4775 15.7286 23.7486 15.9416 24.0023 16.1744L24.0313 16.1454C23.7984 15.8765 23.593 15.5849 23.4182 15.275L20.2794 9.74894L21.7325 8.29583L27.202 11.5945C27.4773 11.7662 27.739 11.9588 27.9847 12.1708L28.0052 12.1503C27.7777 11.9017 27.5729 11.6331 27.3936 11.3477L23.9705 6.05784L25.3578 4.67049Z" fill="white"/>
</g>
</svg>
