<svg xmlns="http://www.w3.org/2000/svg" width="14.2" height="14.2" viewBox="0 0 14.2 14.2">
  <g id="Group_12996" data-name="Group 12996" transform="translate(-100.9 -183.9)">
    <path id="Path_2" data-name="Path 2" d="M7,0a7,7,0,1,0,7,7A7.008,7.008,0,0,0,7,0ZM7,13.138A6.138,6.138,0,1,1,13.138,7,6.145,6.145,0,0,1,7,13.138Z" transform="translate(101 184)" fill="#00a6ff" stroke="#00a6ff" stroke-width="0.2"/>
    <g id="info_6_" data-name="info (6)" transform="translate(106.069 187.081)">
      <path id="Path_4" data-name="Path 4" d="M34.443,6.876l-.108.44q-.485.191-.773.291a2.04,2.04,0,0,1-.671.1,1.339,1.339,0,0,1-.912-.286.926.926,0,0,1-.326-.727,2.571,2.571,0,0,1,.024-.35q.025-.179.079-.4l.4-1.429q.054-.205.091-.389a1.691,1.691,0,0,0,.037-.335.518.518,0,0,0-.113-.382.638.638,0,0,0-.432-.108,1.132,1.132,0,0,0-.321.049c-.11.032-.2.064-.283.093L31.247,3q.4-.162.759-.276a2.271,2.271,0,0,1,.687-.115,1.306,1.306,0,0,1,.9.282.935.935,0,0,1,.316.732c0,.062-.007.172-.022.328a2.194,2.194,0,0,1-.081.431L33.4,5.8a3.782,3.782,0,0,0-.088.392,2.019,2.019,0,0,0-.039.333.479.479,0,0,0,.127.387.715.715,0,0,0,.44.1,1.27,1.27,0,0,0,.333-.051A1.86,1.86,0,0,0,34.443,6.876ZM34.545.9a.833.833,0,0,1-.281.634.958.958,0,0,1-.677.262.968.968,0,0,1-.681-.262A.831.831,0,0,1,32.622.9a.839.839,0,0,1,.284-.636,1,1,0,0,1,1.358,0A.841.841,0,0,1,34.545.9Z" transform="translate(-31.139 0)" fill="#00a6ff"/>
    </g>
  </g>
</svg>
