<svg width="14" height="14" viewBox="0 0 14 14" fill="none" xmlns="http://www.w3.org/2000/svg">
<g id="ICON-Round">
<path id="t" d="M7 14C5.61553 14 4.26215 13.5895 3.11101 12.8203C1.95987 12.0511 1.06266 10.9579 0.532846 9.67879C0.00303296 8.3997 -0.13559 6.99224 0.134506 5.63437C0.404603 4.2765 1.07129 3.02922 2.05026 2.05026C3.02922 1.07129 4.2765 0.404603 5.63437 0.134506C6.99224 -0.13559 8.3997 0.00303296 9.67879 0.532846C10.9579 1.06266 12.0511 1.95987 12.8203 3.11101C13.5895 4.26215 14 5.61553 14 7C13.9981 8.85593 13.26 10.6353 11.9476 11.9476C10.6353 13.26 8.85593 13.9981 7 14ZM7 8.58111L8.8352 10.4332C8.86676 10.4649 8.90428 10.4901 8.94562 10.5073C8.98695 10.5245 9.03127 10.5333 9.07604 10.5333C9.1208 10.5333 9.16513 10.5245 9.20646 10.5073C9.24779 10.4901 9.28532 10.4649 9.31688 10.4332L10.4344 9.31808C10.4663 9.2866 10.4916 9.24911 10.5089 9.20776C10.5262 9.16642 10.5351 9.12205 10.5351 9.07724C10.5351 9.03243 10.5262 8.98807 10.5089 8.94672C10.4916 8.90538 10.4663 8.86788 10.4344 8.8364L8.58111 7L10.4356 5.16601C10.4994 5.10211 10.5353 5.01549 10.5353 4.92517C10.5353 4.83485 10.4994 4.74823 10.4356 4.68433L9.31688 3.56684C9.28548 3.53479 9.24801 3.50934 9.20666 3.49196C9.1653 3.47458 9.1209 3.46563 9.07604 3.46563C9.03118 3.46563 8.98677 3.47458 8.94542 3.49196C8.90406 3.50934 8.86659 3.53479 8.8352 3.56684L7 5.4201L5.16601 3.56563C5.13445 3.53388 5.09693 3.50869 5.05559 3.49149C5.01426 3.4743 4.96994 3.46545 4.92517 3.46545C4.8804 3.46545 4.83608 3.4743 4.79475 3.49149C4.75342 3.50869 4.71589 3.53388 4.68433 3.56563L3.56684 4.68313C3.53494 4.7146 3.50962 4.7521 3.49233 4.79345C3.47505 4.83479 3.46615 4.87915 3.46615 4.92397C3.46615 4.96878 3.47505 5.01314 3.49233 5.05449C3.50962 5.09583 3.53494 5.13333 3.56684 5.16481L5.4201 7L3.56924 8.8352C3.53735 8.86668 3.51203 8.90417 3.49474 8.94552C3.47746 8.98686 3.46856 9.03123 3.46856 9.07604C3.46856 9.12085 3.47746 9.16521 3.49474 9.20656C3.51203 9.2479 3.53735 9.2854 3.56924 9.31688L4.68313 10.4344C4.71469 10.4661 4.75221 10.4913 4.79354 10.5085C4.83488 10.5257 4.8792 10.5346 4.92397 10.5346C4.96873 10.5346 5.01306 10.5257 5.05439 10.5085C5.09572 10.4913 5.13325 10.4661 5.16481 10.4344L6.9988 8.58232L7 8.58111Z" fill="#F11818"/>
</g>
</svg>
