<svg width="169" height="157" viewBox="0 0 169 157" fill="none" xmlns="http://www.w3.org/2000/svg">
<g id="Group 8239">
<path id="Exclusion 1" d="M108.091 157C103.968 157.001 99.8555 156.59 95.8149 155.772C86.1569 153.81 77.1209 149.538 69.4835 143.323C61.846 137.108 55.8357 129.136 51.9688 120.092C50.4118 116.438 49.2229 112.638 48.4197 108.749C47.5958 104.742 47.181 100.662 47.1818 96.5708C47.1818 94.9902 47.2441 93.397 47.3666 91.8292H106.895L78.8046 43.5701C83.2004 41.1752 87.8761 39.3313 92.7253 38.0804C104.919 34.9149 117.795 35.5899 129.589 40.0127C141.382 44.4356 151.516 52.3897 158.599 62.7842C166.497 74.4027 170.076 88.4094 168.718 102.382C167.36 116.354 161.149 129.414 151.161 139.302C139.72 150.659 124.231 157.024 108.091 157ZM47.3624 91.8302H0L53.4476 0L78.8067 43.5691C70.0578 48.3373 62.6119 55.1695 57.1192 63.4691C51.5079 71.9437 48.1503 81.7043 47.3624 91.8302Z" fill="white" fill-opacity="0.5"/>
</g>
</svg>
