<svg width="20" height="21" viewBox="0 0 20 21" fill="none" xmlns="http://www.w3.org/2000/svg">
<g id="ICON-EYE">
<path id="eye" d="M9.92446 12.0382C9.55571 12.0382 9.19523 11.9289 8.88862 11.724C8.58202 11.5191 8.34305 11.228 8.20194 10.8873C8.06082 10.5466 8.0239 10.1717 8.09584 9.81005C8.16778 9.44839 8.34534 9.11618 8.60609 8.85543C8.86684 8.59468 9.19906 8.41711 9.56072 8.34517C9.92239 8.27323 10.2973 8.31016 10.6379 8.45127C10.9786 8.59239 11.2698 8.83135 11.4747 9.13795C11.6796 9.44456 11.7889 9.80504 11.7889 10.1738C11.7874 10.6678 11.5905 11.1412 11.2412 11.4905C10.8919 11.8399 10.4185 12.0368 9.92446 12.0382ZM9.92446 7.2449C9.34518 7.2449 8.77891 7.41667 8.29725 7.7385C7.8156 8.06033 7.4402 8.51776 7.21852 9.05294C6.99684 9.58813 6.93884 10.177 7.05185 10.7452C7.16486 11.3133 7.44381 11.8352 7.85342 12.2448C8.26303 12.6544 8.78491 12.9334 9.35306 13.0464C9.92121 13.1594 10.5101 13.1014 11.0453 12.8797C11.5805 12.6581 12.0379 12.2826 12.3597 11.801C12.6816 11.3193 12.8533 10.7531 12.8533 10.1738C12.8533 9.397 12.5448 8.65202 11.9955 8.10275C11.4462 7.55347 10.7012 7.2449 9.92446 7.2449ZM9.99112 14.4082C7.30112 14.4082 5.34445 13.0505 3.96001 10.1738C5.34445 7.31157 7.30223 5.94046 9.99112 5.94046C12.68 5.94046 14.6378 7.31157 16.0222 10.1738C14.6378 13.036 12.68 14.4082 9.99112 14.4082ZM17.1545 9.74824C15.57 6.4149 13.1867 4.74268 9.99112 4.74268C6.79557 4.74268 4.41224 6.42045 2.82779 9.73489C2.7621 9.86733 2.72791 10.0132 2.72791 10.161C2.72791 10.3088 2.7621 10.4547 2.82779 10.5871C4.41224 13.916 6.80001 15.5805 9.99112 15.5805C13.1867 15.5805 15.57 13.9027 17.1545 10.5871C17.2135 10.4551 17.244 10.3122 17.2438 10.1676C17.2436 10.023 17.2139 9.88005 17.1545 9.74824Z" fill="#666666"/>
</g>
</svg>
