<svg xmlns="http://www.w3.org/2000/svg" width="20" height="20" viewBox="0 0 20 20"><defs><style>.a{fill:#f92d2d;}.b{fill:none;}</style></defs><g transform="translate(-456 -766)"><path class="a" d="M7.448.18c1.315,1.253,5.081,4.879,5.677,5.53A3.39,3.39,0,1,1,8.1,10.259c.005,1.026.038,1.439,1.449,2.068a.872.872,0,0,1,.5.963A.889.889,0,0,1,9.17,14H4.813a.875.875,0,0,1-.853-.678.885.885,0,0,1,.511-1c1.41-.632,1.43-1.061,1.432-2.062A3.389,3.389,0,0,1,0,7.918a3.286,3.286,0,0,1,.875-2.2C1.465,5.06,5.232,1.433,6.544.18A.657.657,0,0,1,7.448.18Z" transform="translate(459 769)"/><rect class="b" width="20" height="20" transform="translate(456 766)"/></g></svg>