<svg xmlns="http://www.w3.org/2000/svg" width="20" height="20" viewBox="0 0 20 20"><defs><style>.a{fill:#f92d2d;}.b{fill:none;}</style></defs><g transform="translate(-458 -714)"><path class="a" d="M13.464,11.2a2.874,2.874,0,0,1-2.738-1.866L10.539,8.8H5.463l-.188.534A2.874,2.874,0,0,1,2.538,11.2,2.581,2.581,0,0,1,.55,10.292,2.308,2.308,0,0,1,.036,8.406L.87,3.116A3.277,3.277,0,0,1,3.388.537,24.187,24.187,0,0,1,8,0a24.187,24.187,0,0,1,4.613.537,3.277,3.277,0,0,1,2.519,2.579l.834,5.29a2.309,2.309,0,0,1-.516,1.887A2.58,2.58,0,0,1,13.464,11.2ZM10.8,5a1,1,0,1,0,1,1A1,1,0,0,0,10.8,5ZM2.9,4.2a.3.3,0,0,0-.3.3v.6a.3.3,0,0,0,.3.3H4.2V6.7a.3.3,0,0,0,.3.3h.6a.3.3,0,0,0,.3-.3V5.4H6.7A.3.3,0,0,0,7,5.1V4.5a.3.3,0,0,0-.3-.3H5.4V2.9a.3.3,0,0,0-.3-.3H4.5a.3.3,0,0,0-.3.3V4.2Zm9.5-1.6a1,1,0,1,0,1,1A1,1,0,0,0,12.4,2.6Z" transform="translate(459.999 718)"/><rect class="b" width="20" height="20" transform="translate(458 714)"/></g></svg>