<svg xmlns="http://www.w3.org/2000/svg" width="20" height="20" viewBox="0 0 20 20"><defs><style>.a{fill:#f92d2d;}.b{fill:none;}</style></defs><g transform="translate(-458 -913)"><path class="a" d="M13.778,14A2.188,2.188,0,1,1,16,11.813,2.207,2.207,0,0,1,13.778,14ZM8,14a2.188,2.188,0,1,1,2.222-2.187A2.207,2.207,0,0,1,8,14ZM2.222,14a2.188,2.188,0,1,1,0-4.375,2.188,2.188,0,1,1,0,4.375Zm8.889-5.031a2.188,2.188,0,1,1,2.222-2.187A2.207,2.207,0,0,1,11.111,8.969Zm-6.222,0A2.188,2.188,0,1,1,7.111,6.781,2.207,2.207,0,0,1,4.889,8.969ZM8,4.375A2.207,2.207,0,0,1,5.778,2.187a2.222,2.222,0,0,1,4.444,0A2.207,2.207,0,0,1,8,4.375Z" transform="translate(460 916)"/><rect class="b" width="20" height="20" transform="translate(458 913)"/></g></svg>