<svg xmlns="http://www.w3.org/2000/svg" width="20" height="20" viewBox="0 0 20 20"><defs><style>.a{fill:#f92d2d;}.b{fill:none;}</style></defs><g transform="translate(-457 -812)"><path class="a" d="M16.187,14H10.062A1.314,1.314,0,0,1,8.75,12.688V11.418l3.726-3.726a2.207,2.207,0,0,0,.465-2.443h3.246A1.314,1.314,0,0,1,17.5,6.563v6.125A1.314,1.314,0,0,1,16.187,14ZM13.125,8.969a.656.656,0,1,0,.656.656A.657.657,0,0,0,13.125,8.969Zm-7,3.281a1.334,1.334,0,0,1-.949-.393L.393,7.074a1.341,1.341,0,0,1,0-1.9L5.177.393a1.341,1.341,0,0,1,1.9,0l4.784,4.783a1.344,1.344,0,0,1,0,1.9L7.074,11.857A1.334,1.334,0,0,1,6.125,12.25Zm0-3.281a.656.656,0,1,0,.656.656A.657.657,0,0,0,6.125,8.969Zm3.5-3.5a.656.656,0,1,0,.656.656A.657.657,0,0,0,9.625,5.469Zm-3.5,0a.656.656,0,1,0,.656.656A.657.657,0,0,0,6.125,5.469Zm-3.5,0a.656.656,0,1,0,.656.656A.657.657,0,0,0,2.625,5.469Zm3.5-3.5a.656.656,0,1,0,.656.656A.657.657,0,0,0,6.125,1.969Z" transform="translate(458 815)"/><rect class="b" width="20" height="20" transform="translate(457 812)"/></g></svg>