<svg xmlns="http://www.w3.org/2000/svg" width="20" height="20" viewBox="0 0 20 20"><defs><style>.a{fill:#f92d2d;}.b{fill:none;}</style></defs><g transform="translate(-461 -860)"><path class="a" d="M7.875,14h-7A.876.876,0,0,1,0,13.125V.875A.876.876,0,0,1,.875,0h8.75A.876.876,0,0,1,10.5.875v10.5A2.628,2.628,0,0,1,7.875,14ZM6.344,9.187A.656.656,0,1,0,7,9.844.657.657,0,0,0,6.344,9.187ZM1.969,8.75a.219.219,0,0,0-.219.219v.438a.219.219,0,0,0,.219.219h.656v.656a.219.219,0,0,0,.219.219h.437a.219.219,0,0,0,.219-.219V9.625h.656a.219.219,0,0,0,.219-.219V8.969a.219.219,0,0,0-.219-.219H3.5V8.094a.219.219,0,0,0-.219-.219H2.844a.219.219,0,0,0-.219.219V8.75Zm6.125-.875a.656.656,0,1,0,.656.656A.657.657,0,0,0,8.094,7.875ZM3.062,1.75a.438.438,0,0,0-.437.437v3.5a.438.438,0,0,0,.437.437H7a.876.876,0,0,0,.875-.875V2.187a.438.438,0,0,0-.437-.437Z" transform="translate(466 863)"/><rect class="b" width="20" height="20" transform="translate(461 860)"/></g></svg>