<svg xmlns="http://www.w3.org/2000/svg" width="20" height="20" viewBox="0 0 20 20"><defs><style>.a{fill:#f92d2d;}.b{fill:none;}</style></defs><g transform="translate(-459 -669)"><path class="a" d="M7,14a7,7,0,1,1,7-7A7.008,7.008,0,0,1,7,14ZM2.7,9.509h0l2.437.3,1.04,2.228-.856.509a5.77,5.77,0,0,0,3.567,0l-.856-.509,1.04-2.228,2.437-.3.221.97a5.675,5.675,0,0,0,1.1-3.379V7.093l-.746.652L10.287,6.07l.472-2.416.982.088A5.7,5.7,0,0,0,8.857,1.648l.391.914L7.1,3.751,4.955,2.562l.391-.914A5.694,5.694,0,0,0,2.462,3.742l.99-.088L3.916,6.07,2.121,7.745l-.747-.652V7.1a5.675,5.675,0,0,0,1.1,3.378L2.7,9.51Zm5.79-.416H5.724L4.868,6.479,7.1,4.86,9.335,6.479,8.486,9.093Z" transform="translate(462 672)"/><rect class="b" width="20" height="20" transform="translate(459 669)"/></g></svg>