<svg xmlns="http://www.w3.org/2000/svg" width="20" height="20" viewBox="0 0 20 20"><defs><style>.a{fill:#f92d2d;}.b{fill:none;}</style></defs><g transform="translate(-459 -1008)"><path class="a" d="M8,14a.333.333,0,0,1-.258-.121L.075,4.561a.326.326,0,0,1-.02-.389L2.833.147A.33.33,0,0,1,3.111,0h9.778a.337.337,0,0,1,.281.147l2.775,4.025a.324.324,0,0,1-.02.389L8.258,13.879A.333.333,0,0,1,8,14ZM5.311,5.25,8,11.9,10.689,5.25Zm6.806,0L10.223,9.625,13.545,5.25Zm-9.664,0L5.778,9.625,3.881,5.25Zm8.322-3.937,1.436,2.625h1.9L12.353,1.312Zm-4.036,0L5.305,3.937h5.39L9.259,1.312Zm-3.092,0L1.889,3.937h1.9L5.225,1.312H3.647Z" transform="translate(461 1011)"/><rect class="b" width="20" height="20" transform="translate(459 1008)"/></g></svg>