<svg width="68" height="32" viewBox="0 0 68 32" fill="none" xmlns="http://www.w3.org/2000/svg">
<g clip-path="url(#clip0_117_1558)">
<path d="M32.9613 16.3625V20.779H31.5371V9.85719H35.241C36.1387 9.85502 37.0035 10.1945 37.66 10.8067C37.9849 11.0991 38.2423 11.4586 38.4145 11.8604C38.5867 12.2621 38.6696 12.6964 38.6574 13.1334C38.665 13.5698 38.5801 14.0029 38.4082 14.4041C38.2362 14.8053 37.9813 15.1655 37.66 15.461C37.0076 16.0813 36.1385 16.422 35.2383 16.4104L32.9587 16.3625H32.9613ZM32.9613 11.1865V14.9853H35.336C35.7061 14.9891 36.0692 14.8848 36.3809 14.6851C36.6926 14.4855 36.9392 14.1992 37.0904 13.8613C37.2416 13.5235 37.291 13.1489 37.2323 12.7834C37.1736 12.418 37.0096 12.0776 36.7602 11.8041L36.7123 11.7562C36.5396 11.5651 36.3264 11.4149 36.0883 11.3167C35.8502 11.2185 35.5932 11.1746 35.336 11.1882L32.9613 11.1865Z" fill="#5F6368"/>
<path d="M41.9362 13.0864C42.8393 13.0386 43.7254 13.3452 44.4058 13.9409C44.7116 14.2334 44.9506 14.5886 45.1064 14.9821C45.2621 15.3755 45.331 15.798 45.3083 16.2206V20.779H43.9772V19.7346H43.9311C43.6868 20.1309 43.3442 20.4573 42.9365 20.682C42.5288 20.9067 42.0699 21.022 41.6044 21.0169C40.8454 21.0369 40.1043 20.7851 39.5146 20.307C39.2512 20.0747 39.0391 19.79 38.892 19.4711C38.7448 19.1522 38.6658 18.8062 38.6601 18.455C38.6503 18.1014 38.7223 17.7502 38.8705 17.429C39.0188 17.1078 39.2392 16.8251 39.5146 16.6031C40.189 16.1172 41.012 15.8821 41.8413 15.9384C42.5531 15.8977 43.2615 16.0625 43.8823 16.4132V16.0804C43.8887 15.8447 43.8407 15.6107 43.7419 15.3966C43.643 15.1825 43.4961 14.9941 43.3126 14.8461C43.0779 14.6442 42.8027 14.4951 42.5054 14.4089C42.2082 14.3226 41.8958 14.3013 41.5896 14.3463C41.2834 14.3914 40.9904 14.5017 40.7306 14.6698C40.4707 14.8379 40.25 15.0599 40.0834 15.3208L38.8491 14.5612C39.202 14.0797 39.6686 13.693 40.2072 13.4357C40.7459 13.1784 41.3399 13.0584 41.9362 13.0864ZM40.1322 18.4994C40.131 18.6773 40.1736 18.8527 40.2565 19.0101C40.3393 19.1675 40.4597 19.3021 40.607 19.4018C40.9228 19.6387 41.3046 19.7714 41.6993 19.7816C42.2889 19.7755 42.8522 19.5366 43.2664 19.117C43.4874 18.93 43.6653 18.6974 43.7878 18.4352C43.9104 18.1729 43.9747 17.8873 43.9763 17.5978C43.4343 17.2225 42.7826 17.0386 42.1244 17.0751C41.6154 17.0566 41.1147 17.207 40.7001 17.5029C40.5242 17.602 40.3784 17.7471 40.2784 17.9226C40.1784 18.0981 40.1279 18.2974 40.1322 18.4994Z" fill="#5F6368"/>
<path d="M52.9991 13.3242L48.296 24.1031H46.8762L48.6332 20.3513L45.5452 13.3721H47.0643L49.297 18.7372H49.3449L51.5296 13.3712H52.9991V13.3242Z" fill="#5F6368"/>
<path d="M27.3139 15.4131C27.3047 14.9842 27.2719 14.5561 27.2154 14.1309H21.2798V16.5525H24.6518C24.5852 16.9362 24.4415 17.3024 24.2293 17.6289C24.0172 17.9555 23.741 18.2356 23.4175 18.4524V20.0195H25.4584C26.073 19.4244 26.5557 18.7069 26.8754 17.9134C27.195 17.1198 27.3444 16.268 27.3139 15.4131Z" fill="#4285F4"/>
<path d="M21.281 21.5386C22.8157 21.5778 24.3085 21.0351 25.4597 20.0194L23.4187 18.4523C22.7847 18.8688 22.0403 19.0852 21.2819 19.0735C20.4946 19.0656 19.7301 18.808 19.0984 18.3379C18.4668 17.8678 18.0006 17.2094 17.767 16.4575H15.6772V18.0717C16.1979 19.1123 16.9978 19.9877 17.9874 20.6C18.977 21.2122 20.1173 21.5372 21.281 21.5386Z" fill="#34A853"/>
<path d="M17.7661 16.4583C17.4812 15.6762 17.4812 14.8187 17.7661 14.0367V12.4216H15.6772C15.2324 13.297 15.0005 14.2651 15.0005 15.247C15.0005 16.229 15.2324 17.197 15.6772 18.0724L17.7661 16.4583Z" fill="#FBBC04"/>
<path d="M21.28 11.4714C22.1785 11.4685 23.0444 11.808 23.7016 12.4209L25.5056 10.6168C24.373 9.56081 22.8763 8.98314 21.3279 9.00448C20.1636 8.99927 19.0212 9.32084 18.0306 9.93262C17.0399 10.5444 16.2408 11.4219 15.7241 12.4652L17.8139 14.0829C18.0315 13.3313 18.4869 12.6706 19.1119 12.1997C19.7368 11.7289 20.4975 11.4733 21.28 11.4714Z" fill="#EA4335"/>
</g>
<defs>
<clipPath id="clip0_117_1558">
<rect width="38" height="15.1031" fill="white" transform="translate(15 9)"/>
</clipPath>
</defs>
</svg>
