<svg width="68" height="32" viewBox="0 0 68 32" fill="none" xmlns="http://www.w3.org/2000/svg">
<g clip-path="url(#clip0_119_1755)">
<path d="M34.1306 12.4388V12.869C34.1312 13.0783 34.0882 13.2855 34.0041 13.4782C33.9215 13.6687 33.8035 13.8429 33.6561 13.9922C33.5079 14.1424 33.3314 14.2636 33.1361 14.3494C32.9348 14.4379 32.7161 14.4828 32.4951 14.4811C32.294 14.481 32.0938 14.4554 31.8996 14.405C31.6993 14.3535 31.5132 14.2599 31.3545 14.1308C31.1862 13.992 31.0502 13.8202 30.9554 13.6267C30.8421 13.3792 30.7883 13.11 30.7983 12.8393V9.00373C30.7962 8.78623 30.8373 8.57036 30.9193 8.36789C30.9966 8.17736 31.1134 8.00424 31.2625 7.85922C31.4142 7.71351 31.5945 7.59879 31.7928 7.52188C32.0093 7.43819 32.2407 7.39654 32.4739 7.39928C32.6923 7.39125 32.9101 7.42776 33.1131 7.50647C33.316 7.58517 33.4997 7.70431 33.6522 7.85617C33.8028 8.01026 33.921 8.19131 34.0002 8.38921C34.0859 8.60275 34.1288 8.83019 34.1266 9.05932V9.45072H33.1015V9.11795C33.1057 8.93446 33.0453 8.75506 32.9303 8.60928C32.8765 8.53976 32.8062 8.48386 32.7254 8.44633C32.6446 8.40881 32.5556 8.39078 32.466 8.39378C32.3674 8.38094 32.2671 8.3956 32.1768 8.43606C32.0865 8.47653 32.01 8.5411 31.9562 8.62223C31.8655 8.80347 31.8221 9.00348 31.8297 9.20476V12.7662C31.8232 12.945 31.8704 13.1217 31.9656 13.2749C32.0216 13.3476 32.0962 13.4048 32.1821 13.4408C32.2679 13.4769 32.362 13.4906 32.455 13.4805C32.5286 13.4795 32.6017 13.4679 32.6718 13.4462C32.7509 13.4225 32.8245 13.3842 32.8886 13.3335C32.9549 13.2734 33.0067 13.1998 33.0402 13.118C33.0839 13.0089 33.1045 12.8924 33.1007 12.7754V12.4327L34.1306 12.4388ZM34.9075 14.4247V9.46367H35.9373V9.99214C36.1238 9.82499 36.3306 9.68051 36.5532 9.5619C36.7851 9.45079 37.0417 9.39691 37.3003 9.40504V10.462C37.2004 10.423 37.0937 10.4031 36.986 10.4033C36.868 10.405 36.7507 10.4232 36.638 10.4574C36.5133 10.4936 36.3981 10.5554 36.3003 10.6386C36.1881 10.7291 36.0985 10.8428 36.0379 10.9714C35.9659 11.1317 35.9316 11.3054 35.9373 11.4801V14.4255L34.9075 14.4247ZM37.4613 9.46367H38.5516L39.2586 12.5553H39.2775L39.9742 9.46367H41.0339L39.5611 15.2868C39.519 15.4809 39.4421 15.6665 39.334 15.835C39.2439 15.971 39.1295 16.0904 38.9962 16.1876C38.8741 16.2763 38.7354 16.3413 38.5878 16.3787C38.4409 16.4149 38.29 16.4331 38.1384 16.4328H37.8556V15.4916H38.0913C38.1804 15.4935 38.2692 15.4804 38.3537 15.4528C38.439 15.4171 38.5099 15.3553 38.5556 15.2769C38.622 15.1543 38.6729 15.0244 38.7072 14.89C38.7543 14.7235 38.8082 14.4935 38.869 14.2001L37.4613 9.46367ZM41.4479 16.4305V9.46367H42.4778V9.91371C42.595 9.77988 42.7267 9.65861 42.8706 9.552C43.0443 9.44344 43.2495 9.39192 43.4558 9.40504C43.6364 9.39064 43.8175 9.42737 43.977 9.51077C44.1365 9.59417 44.2676 9.72065 44.3545 9.87487C44.421 10.0041 44.4653 10.143 44.4856 10.2861C44.5161 10.5033 44.5294 10.7225 44.5257 10.9417V12.8302C44.53 13.0948 44.5197 13.3594 44.4951 13.6229C44.4826 13.772 44.4341 13.9162 44.3535 14.0437C44.2728 14.1713 44.1623 14.2786 44.0308 14.357C43.8521 14.4522 43.6491 14.4963 43.4456 14.4841C43.2568 14.4874 43.0706 14.4419 42.9059 14.3524C42.7418 14.258 42.6023 14.1282 42.4982 13.9732H42.4778V16.429L41.4479 16.4305ZM43.4974 11.0795C43.5055 10.9088 43.4636 10.7393 43.3764 10.5907C43.3356 10.5292 43.2785 10.4795 43.211 10.4468C43.1436 10.4141 43.0683 10.3996 42.9931 10.4049C42.9214 10.4029 42.8502 10.4173 42.7853 10.4471C42.7205 10.4769 42.6638 10.5211 42.62 10.5762C42.521 10.7043 42.471 10.8618 42.4786 11.0217V12.949C42.473 13.0915 42.5254 13.2305 42.6247 13.3358C42.6713 13.3853 42.7283 13.4245 42.7918 13.4507C42.8554 13.477 42.924 13.4898 42.9931 13.4881C43.0699 13.4971 43.1477 13.4854 43.2181 13.4544C43.2884 13.4233 43.3487 13.3742 43.3922 13.3122C43.465 13.1869 43.5016 13.0448 43.4982 12.901L43.4974 11.0795ZM45.3749 9.46519V7.95745H46.4047V9.46443H47.041V10.2472H46.4047V12.997C46.4012 13.0896 46.4132 13.1822 46.4401 13.2711C46.4599 13.3318 46.501 13.3838 46.5563 13.4181C46.6163 13.4526 46.6839 13.4727 46.7535 13.4767C46.831 13.4833 46.9269 13.4866 47.041 13.4866V14.4263H46.6168C46.4142 14.4327 46.2126 14.396 46.0261 14.3189C45.8803 14.2562 45.7509 14.1625 45.6475 14.0448C45.5534 13.934 45.4832 13.8061 45.4409 13.6686C45.3984 13.5372 45.3762 13.4004 45.3749 13.2627V10.2488H44.8603V9.46595L45.3749 9.46519ZM47.3435 11.1283C47.3422 10.9418 47.3556 10.7554 47.3835 10.5709C47.4064 10.4134 47.4577 10.261 47.5351 10.1208C47.6565 9.9053 47.8363 9.726 48.0552 9.60226C48.3058 9.46557 48.5902 9.3979 48.8776 9.40656C49.1651 9.3979 49.4495 9.46557 49.7001 9.60226C49.9189 9.726 50.0987 9.9053 50.2201 10.1208C50.2975 10.261 50.3489 10.4134 50.3717 10.5709C50.3996 10.7554 50.413 10.9418 50.4118 11.1283V12.7624C50.413 12.9489 50.3996 13.1353 50.3717 13.3198C50.3489 13.4773 50.2975 13.6297 50.2201 13.7699C50.0987 13.9854 49.9189 14.1647 49.7001 14.2884C49.4495 14.4251 49.1651 14.4928 48.8776 14.4841C48.5902 14.4928 48.3058 14.4251 48.0552 14.2884C47.8363 14.1647 47.6565 13.9854 47.5351 13.7699C47.4577 13.6297 47.4064 13.4773 47.3835 13.3198C47.3556 13.1353 47.3422 12.9489 47.3435 12.7624V11.1283ZM48.3733 12.9185C48.361 13.072 48.4097 13.2243 48.5092 13.3442C48.5566 13.3919 48.6141 13.4292 48.6776 13.4537C48.7411 13.4781 48.8093 13.4891 48.8776 13.4858C48.9459 13.4891 49.0141 13.4781 49.0777 13.4537C49.1412 13.4292 49.1986 13.3919 49.246 13.3442C49.3456 13.2243 49.3942 13.072 49.3819 12.9185V10.9714C49.3942 10.8179 49.3456 10.6657 49.246 10.5457C49.1986 10.498 49.1412 10.4607 49.0777 10.4363C49.0141 10.4118 48.9459 10.4009 48.8776 10.4041C48.8093 10.4009 48.7411 10.4118 48.6776 10.4363C48.6141 10.4607 48.5566 10.498 48.5092 10.5457C48.4097 10.6657 48.361 10.8179 48.3733 10.9714V12.9185ZM34.1306 21.4083V21.8386C34.1312 22.0478 34.0882 22.255 34.0041 22.4478C33.9215 22.6383 33.8035 22.8125 33.6561 22.9618C33.5079 23.1119 33.3314 23.2331 33.1361 23.3189C32.9348 23.4074 32.7161 23.4524 32.4951 23.4506C32.294 23.4505 32.0938 23.4249 31.8996 23.3745C31.6993 23.3231 31.5132 23.2295 31.3545 23.1004C31.1862 22.9616 31.0501 22.7897 30.9554 22.5963C30.8421 22.3488 30.7883 22.0795 30.7983 21.8089V17.974C30.7962 17.7565 30.8373 17.5407 30.9193 17.3382C30.9972 17.1472 31.1149 16.9738 31.2649 16.8288C31.4166 16.683 31.5969 16.5683 31.7951 16.4914C32.0117 16.4077 32.2431 16.3661 32.4762 16.3688C32.6947 16.3608 32.9124 16.3973 33.1154 16.476C33.3184 16.5547 33.5021 16.6739 33.6545 16.8257C33.8051 16.9798 33.9233 17.1609 34.0025 17.3588C34.0883 17.5723 34.1312 17.7997 34.129 18.0289V18.4203H33.1015V18.0875C33.1057 17.904 33.0453 17.7246 32.9303 17.5788C32.8765 17.5093 32.8062 17.4534 32.7254 17.4159C32.6446 17.3784 32.5556 17.3603 32.466 17.3633C32.3674 17.3505 32.2671 17.3651 32.1768 17.4056C32.0865 17.4461 32.01 17.5106 31.9562 17.5918C31.8655 17.773 31.8221 17.973 31.8297 18.1743V21.7403C31.8232 21.9191 31.8704 22.0958 31.9656 22.249C32.0216 22.3217 32.0962 22.3789 32.1821 22.4149C32.2679 22.451 32.362 22.4647 32.455 22.4546C32.5286 22.4536 32.6017 22.4421 32.6718 22.4203C32.7509 22.3966 32.8245 22.3583 32.8886 22.3076C32.9549 22.2475 33.0067 22.1739 33.0402 22.0921C33.0839 21.983 33.1045 21.8665 33.1007 21.7495V21.4068L34.1306 21.4083ZM37.986 18.434V23.3943H36.957V22.9146H36.9365C36.8337 23.0664 36.7017 23.1978 36.5477 23.3014C36.3749 23.4086 36.1722 23.4618 35.9672 23.4537C35.8372 23.4529 35.7081 23.4313 35.5854 23.3897C35.4558 23.3463 35.3383 23.2744 35.2421 23.1796C35.1349 23.0719 35.0525 22.9434 35.0002 22.8026C34.9349 22.6219 34.904 22.4313 34.909 22.2399V18.4324H35.9373V21.8667C35.9282 22.0206 35.9746 22.1727 36.0685 22.297C36.1138 22.3495 36.1712 22.391 36.2359 22.4182C36.3007 22.4454 36.3712 22.4576 36.4416 22.4539C36.5184 22.4619 36.596 22.45 36.6664 22.4194C36.7368 22.3887 36.7975 22.3404 36.8423 22.2795C36.9255 22.1226 36.9638 21.9469 36.953 21.7708V18.434H37.986ZM38.8336 23.3951V18.434H39.8635V18.9624C40.05 18.7953 40.2568 18.6508 40.4794 18.5322C40.7113 18.4211 40.9679 18.3672 41.2264 18.3753V19.4323C41.1265 19.3933 41.0198 19.3734 40.9122 19.3736C40.7941 19.3753 40.6769 19.3935 40.5642 19.4277C40.4395 19.4639 40.3243 19.5257 40.2264 19.6089C40.1143 19.6994 40.0246 19.8131 39.964 19.9417C39.8921 20.102 39.8577 20.2757 39.8635 20.4504V23.3943L38.8336 23.3951ZM41.6396 23.3951V18.434H42.6695V18.9624C42.8559 18.7953 43.0628 18.6508 43.2853 18.5322C43.5172 18.4211 43.7738 18.3672 44.0324 18.3753V19.4323C43.9325 19.3933 43.8258 19.3734 43.7182 19.3736C43.6001 19.3753 43.4829 19.3935 43.3702 19.4277C43.2454 19.4639 43.1302 19.5257 43.0324 19.6089C42.9203 19.6994 42.8306 19.8131 42.77 19.9417C42.698 20.102 42.6637 20.2757 42.6695 20.4504V23.3943L41.6396 23.3951ZM47.4244 21.2911H45.3819V21.9688C45.3776 22.0349 45.3874 22.1012 45.4108 22.1635C45.4342 22.2257 45.4706 22.2826 45.5178 22.3305C45.5676 22.3742 45.6257 22.4079 45.689 22.4297C45.7522 22.4516 45.8192 22.4611 45.8863 22.4577C45.9606 22.4676 46.0363 22.4573 46.1049 22.428C46.1736 22.3987 46.2325 22.3515 46.2751 22.2917C46.3362 22.1893 46.3757 22.0762 46.3914 21.9589H47.4212C47.43 22.1531 47.3979 22.347 47.3267 22.5287C47.2555 22.7105 47.1468 22.8762 47.0072 23.0158C46.8702 23.1545 46.7052 23.2644 46.5226 23.3387C46.3209 23.4194 46.1044 23.4594 45.8863 23.456C45.5988 23.4646 45.3144 23.397 45.0638 23.2603C44.8832 23.1591 44.7288 23.0192 44.6126 22.8513C44.4963 22.6835 44.4212 22.492 44.3929 22.2917C44.365 22.1071 44.3516 21.9208 44.3529 21.7343V20.0971C44.3516 19.9105 44.365 19.7242 44.3929 19.5396C44.4158 19.3822 44.4671 19.2298 44.5446 19.0896C44.666 18.8741 44.8458 18.6948 45.0646 18.571C45.3152 18.4343 45.5996 18.3667 45.8871 18.3753C46.1067 18.3723 46.3247 18.4122 46.5281 18.4926C46.7126 18.5661 46.8792 18.6761 47.0175 18.8155C47.2917 19.1212 47.436 19.5163 47.4212 19.9212L47.4244 21.2911ZM45.3819 20.5083H46.3945V19.941C46.4068 19.7875 46.3582 19.6352 46.2586 19.5153C46.2112 19.4676 46.1538 19.4302 46.0902 19.4058C46.0267 19.3814 45.9585 19.3704 45.8902 19.3736C45.8219 19.3704 45.7537 19.3814 45.6902 19.4058C45.6266 19.4302 45.5692 19.4676 45.5218 19.5153C45.4222 19.6352 45.3736 19.7875 45.3859 19.941L45.3819 20.5083ZM48.1777 23.3951V18.434H49.2076V18.9137H49.228C49.3308 18.7618 49.4629 18.6305 49.6168 18.5269C49.7896 18.4196 49.9923 18.3664 50.1973 18.3746C50.3279 18.3752 50.4574 18.3968 50.5807 18.4385C50.7103 18.4819 50.8278 18.5539 50.924 18.6487C51.0312 18.7564 51.1136 18.8849 51.1659 19.0256C51.2312 19.2063 51.2621 19.397 51.257 19.5884V23.3958H50.2303V19.96C50.2394 19.8062 50.193 19.6541 50.0991 19.5297C50.0538 19.4773 49.9965 19.4358 49.9317 19.4086C49.8669 19.3813 49.7965 19.3691 49.726 19.3729C49.6486 19.3644 49.5703 19.3763 49.4993 19.4072C49.4282 19.4382 49.3671 19.4871 49.3222 19.5488C49.239 19.7057 49.2007 19.8813 49.2115 20.0575V23.3943L48.1777 23.3951ZM53.1981 21.9688C53.1937 22.0349 53.2036 22.1012 53.2269 22.1635C53.2503 22.2257 53.2868 22.2826 53.334 22.3305C53.3838 22.3742 53.4419 22.4079 53.5051 22.4297C53.5684 22.4516 53.6354 22.4611 53.7024 22.4577C53.7768 22.4676 53.8525 22.4573 53.9211 22.428C53.9898 22.3987 54.0487 22.3515 54.0913 22.2917C54.1524 22.1893 54.1919 22.0762 54.2076 21.9589H55.2374C55.2462 22.1531 55.214 22.347 55.1429 22.5287C55.0717 22.7105 54.963 22.8762 54.8234 23.0158C54.6863 23.1545 54.5214 23.2644 54.3387 23.3387C54.1371 23.4194 53.9206 23.4594 53.7024 23.456C53.415 23.4646 53.1306 23.397 52.88 23.2603C52.6994 23.1591 52.545 23.0192 52.4287 22.8513C52.3125 22.6835 52.2373 22.492 52.2091 22.2917C52.1812 22.1071 52.1678 21.9208 52.1691 21.7343V20.0971C52.1678 19.9105 52.1812 19.7242 52.2091 19.5396C52.232 19.3822 52.2833 19.2298 52.3607 19.0896C52.4821 18.8741 52.662 18.6948 52.8808 18.571C53.1314 18.4343 53.4158 18.3667 53.7032 18.3753C53.9229 18.3723 54.1409 18.4122 54.3442 18.4926C54.5287 18.5661 54.6954 18.6761 54.8336 18.8155C55.1115 19.1335 55.2556 19.5413 55.2374 19.9577H54.2076C54.2217 19.7979 54.1732 19.6389 54.0717 19.5122C54.0242 19.4645 53.9668 19.4272 53.9033 19.4028C53.8397 19.3783 53.7715 19.3674 53.7032 19.3706C53.635 19.3674 53.5668 19.3783 53.5032 19.4028C53.4397 19.4272 53.3822 19.4645 53.3348 19.5122C53.2353 19.6322 53.1867 19.7844 53.1989 19.9379L53.1981 21.9688ZM55.2241 18.434H56.3144L57.0214 21.5256H57.0418L57.7386 18.434H58.7983L57.3262 24.2532C57.2841 24.4474 57.2072 24.633 57.0991 24.8015C57.009 24.9375 56.8946 25.0569 56.7614 25.1541C56.6393 25.2428 56.5005 25.3078 56.3529 25.3452C56.206 25.3814 56.0551 25.3996 55.9035 25.3993H55.6168V24.4611H55.8525C55.9416 24.463 56.0304 24.4499 56.1149 24.4223C56.2002 24.3867 56.2711 24.3249 56.3167 24.2464C56.3832 24.1238 56.4341 23.9939 56.4684 23.8596C56.5155 23.693 56.5694 23.4631 56.6302 23.1697L55.2241 18.434Z" fill="#0E2140"/>
</g>
<g clip-path="url(#clip1_119_1755)">
<path d="M16.57 7.096C16.5699 6.82507 16.6063 6.55533 16.6782 6.29388C16.2543 6.10019 15.7929 6.0001 15.3259 6.00056C14.4884 5.99491 13.6829 6.31813 13.0863 6.89922C12.4897 7.48032 12.1508 8.27177 12.144 9.09971C12.1442 9.50578 12.2259 9.90777 12.3844 10.2824C12.543 10.657 12.7752 10.9967 13.0676 11.2819H17.5906C17.9802 10.9009 18.2614 10.4252 18.406 9.9026C17.8604 9.65747 17.3974 9.26275 17.072 8.76526C16.7465 8.26778 16.5723 7.68843 16.57 7.096Z" fill="#FFBE1B"/>
<path d="M16.5701 7.11571C16.1942 6.89256 15.7637 6.7751 15.3252 6.776C14.7683 6.76623 14.2261 6.95246 13.7952 7.30142C13.3644 7.65039 13.0731 8.13938 12.9733 8.68108C12.8735 9.22277 12.9717 9.78189 13.2504 10.2586C13.5291 10.7353 13.9701 11.0986 14.4947 11.2835H16.1557C16.5529 11.1419 16.9046 10.8977 17.1741 10.5763C17.4437 10.255 17.6213 9.86815 17.6885 9.456C17.3411 9.16988 17.061 8.81221 16.8678 8.408C16.6746 8.00378 16.573 7.56276 16.5701 7.11571Z" fill="#FFE37B"/>
<path d="M16.2891 9.24678C16.1989 9.14831 16.0784 9.08198 15.9462 9.05805C15.986 9.04075 16.0125 9.02841 16.0258 9.02107C16.0538 9.00437 16.0804 8.98544 16.1053 8.96446C16.1649 8.91812 16.2121 8.85806 16.2427 8.78951C16.2734 8.72096 16.2865 8.64602 16.2811 8.57127C16.2835 8.44811 16.2441 8.32773 16.1691 8.22936C16.0941 8.13099 15.9879 8.06031 15.8675 8.02866C15.832 8.01741 15.7959 8.00821 15.7593 8.00113V7.71411H15.36V7.97363H15.0871V7.71411H14.6798V7.97363H14.2344V8.39985H14.5661V9.80431H14.2344V10.2305H14.6798V10.49H15.0871V10.2305H15.36V10.49H15.7672V10.2227C15.9483 10.2174 16.1211 10.1463 16.2525 10.0229C16.3601 9.91035 16.4197 9.76106 16.4187 9.60616C16.4229 9.47448 16.3766 9.34611 16.2891 9.24678ZM15.0832 8.39905H15.3321C15.4429 8.39211 15.5538 8.40875 15.6575 8.44782C15.6914 8.46813 15.7185 8.49777 15.7356 8.53311C15.7527 8.56845 15.759 8.60794 15.7537 8.64677C15.759 8.68595 15.7518 8.72576 15.7331 8.76071C15.7144 8.79566 15.6852 8.82399 15.6495 8.84178C15.5474 8.877 15.4394 8.89249 15.3313 8.8874H15.0855L15.0832 8.39905ZM15.772 9.75005C15.6658 9.79136 15.5519 9.80962 15.4379 9.80354H15.0832V9.28373H15.3886C15.5161 9.27726 15.6437 9.29433 15.7649 9.33406C15.8041 9.35176 15.8367 9.38134 15.8578 9.41851C15.879 9.45568 15.8876 9.49852 15.8826 9.54088C15.8876 9.58281 15.8798 9.62529 15.8601 9.66274C15.8403 9.7002 15.8097 9.7309 15.772 9.75084V9.75005Z" fill="#1F1703"/>
<path d="M21.4305 11.8593C21.4307 11.6664 21.4493 11.4739 21.4862 11.2845H12.5236C12.116 11.2814 11.7234 11.4359 11.4294 11.7151C11.1354 11.9942 10.9635 12.3759 10.9502 12.7786C10.9916 12.9711 11.0786 13.1511 11.204 13.304C11.3294 13.4568 11.4897 13.578 11.6717 13.6578C12.1202 13.8231 12.5986 13.8941 13.0765 13.8662H22.1854C21.6973 13.309 21.4292 12.5963 21.4305 11.8593Z" fill="#28519F"/>
<path d="M24.6155 8.75989C23.778 8.75424 22.9724 9.07745 22.3758 9.65854C21.7792 10.2396 21.4403 11.0311 21.4336 11.859C21.4334 12.5966 21.7029 13.3093 22.1925 13.8659H25.1047C25.3442 13.8652 25.5808 13.9184 25.7964 14.0214C26.0121 14.1244 26.2012 14.2745 26.3496 14.4604C26.794 14.1831 27.1604 13.7994 27.4148 13.3448C27.6691 12.8901 27.8032 12.3793 27.8045 11.8598C27.8013 11.4492 27.7162 11.0432 27.5541 10.6651C27.3921 10.287 27.1562 9.94422 26.86 9.65631C26.5639 9.3684 26.2132 9.14105 25.828 8.98723C25.4429 8.83342 25.0308 8.75616 24.6155 8.75989Z" fill="#5D8EF9"/>
<path d="M24.6156 9.53328C24.3039 9.53079 23.9948 9.58903 23.706 9.70468C23.4171 9.82033 23.1541 9.99113 22.9321 10.2073C22.71 10.4235 22.5332 10.6808 22.4118 10.9645C22.2903 11.2483 22.2267 11.5529 22.2244 11.861C22.2255 12.2687 22.3354 12.6689 22.5429 13.0213C22.7504 13.3736 23.0483 13.6656 23.4064 13.8678H25.1008C25.286 13.8675 25.4699 13.8992 25.6441 13.9614C26.133 13.7379 26.5293 13.355 26.7665 12.8769C27.0037 12.3987 27.0673 11.8545 26.9467 11.3355C26.8261 10.8166 26.5286 10.3543 26.1042 10.0265C25.6797 9.6986 25.1541 9.52502 24.6156 9.53484V9.53328Z" fill="#D1EBFF"/>
<path d="M24.6151 10.2949L23.6343 11.7505L24.6151 12.4535L25.5959 11.7505L24.6151 10.2949Z" fill="#0C2048"/>
<path d="M24.6151 12.6936L23.6343 11.9426L24.6151 13.4234L25.5959 11.9426L24.6151 12.6936Z" fill="#0C2048"/>
<path d="M25.1012 13.8655H13.0761C12.5983 13.8934 12.1198 13.8224 11.6713 13.6571C11.4875 13.5776 11.3257 13.4555 11.1999 13.3011C11.074 13.1467 10.9877 12.9645 10.9482 12.77V22.868C10.9516 23.2775 11.1193 23.6689 11.4145 23.9561C11.7097 24.2434 12.1082 24.403 12.5225 24.3998H25.0996C25.3047 24.4015 25.5082 24.3632 25.6983 24.2871C25.8885 24.211 26.0616 24.0986 26.2078 23.9564C26.354 23.8141 26.4704 23.6448 26.5503 23.458C26.6303 23.2713 26.6723 23.0708 26.6738 22.868V15.3973C26.6707 14.9881 26.5032 14.5968 26.2083 14.3095C25.9134 14.0222 25.5152 13.8625 25.1012 13.8655Z" fill="#4A89FF"/>
<path d="M22.4214 17.604C22.3294 17.6033 22.2383 17.6205 22.1531 17.6546C22.0679 17.6887 21.9903 17.7391 21.9248 17.8028C21.8593 17.8666 21.8071 17.9425 21.7712 18.0262C21.7354 18.1098 21.7165 18.1996 21.7158 18.2905V19.942C21.7165 20.0328 21.7354 20.1227 21.7712 20.2064C21.8071 20.2901 21.8593 20.3659 21.9248 20.4297C21.9903 20.4934 22.0679 20.5438 22.1531 20.5779C22.2383 20.612 22.3294 20.6292 22.4214 20.6285H26.6748V17.604H22.4214Z" fill="#8AC9F9"/>
<path d="M23.084 18.4341C22.9482 18.4363 22.8162 18.4781 22.7044 18.5542C22.5926 18.6303 22.506 18.7374 22.4555 18.862C22.4051 18.9866 22.393 19.1232 22.4209 19.2546C22.4487 19.3859 22.5152 19.5062 22.6119 19.6004C22.7087 19.6945 22.8315 19.7583 22.9648 19.7837C23.0981 19.8091 23.236 19.795 23.3613 19.7431C23.4865 19.6913 23.5934 19.604 23.6686 19.4923C23.7439 19.3806 23.784 19.2493 23.784 19.1151C23.7833 19.0249 23.7646 18.9358 23.729 18.8528C23.6934 18.7698 23.6417 18.6945 23.5767 18.6313C23.5117 18.568 23.4347 18.518 23.3501 18.4842C23.2656 18.4504 23.1752 18.4334 23.084 18.4341Z" fill="#FFE37B"/>
<path d="M19.7557 4.00007C19.1377 4.00922 18.5363 4.19874 18.0269 4.54483C17.5176 4.89091 17.1231 5.37812 16.893 5.9452C16.663 6.51228 16.6076 7.13394 16.7339 7.73205C16.8601 8.33015 17.1624 8.87802 17.6028 9.30678C18.0431 9.73554 18.6018 10.0261 19.2086 10.1418C19.8155 10.2576 20.4434 10.1935 21.0135 9.9575C21.5836 9.72151 22.0704 9.32421 22.4127 8.81551C22.7551 8.30681 22.9377 7.70942 22.9376 7.09843C22.9307 6.27062 22.5917 5.47938 21.9951 4.89846C21.3985 4.31753 20.5931 3.99442 19.7557 4.00007Z" fill="#330D84"/>
<path d="M19.7562 4.77303C19.2925 4.78047 18.8414 4.92319 18.4595 5.18327C18.0776 5.44335 17.782 5.80918 17.6097 6.23482C17.4375 6.66047 17.3963 7.12695 17.4914 7.57566C17.5864 8.02437 17.8135 8.4353 18.144 8.75685C18.4746 9.0784 18.8938 9.29623 19.3492 9.38296C19.8046 9.4697 20.2757 9.42148 20.7034 9.24437C21.1312 9.06726 21.4964 8.76914 21.7533 8.38747C22.0102 8.0058 22.1473 7.5576 22.1474 7.09915C22.1449 6.7912 22.0811 6.48676 21.9595 6.20319C21.838 5.91963 21.6612 5.6625 21.4391 5.4465C21.2171 5.23049 20.9542 5.05985 20.6654 4.94429C20.3767 4.82874 20.0677 4.77054 19.7562 4.77303Z" fill="#5932AE"/>
<path d="M21.0802 7.71707V6.06567L19.7557 7.38679L18.4313 6.06567V7.71707H18.0335V8.13701H18.8656V7.09426L19.7589 7.98445L20.6522 7.09426V8.13701H21.4843V7.71707H21.0802ZM18.5243 18.4418C18.3255 18.4412 18.1324 18.5075 17.9769 18.6299C17.8213 18.7522 17.7125 18.9233 17.6684 19.1149H16.064L14.8604 17.7781H10.9491V18.1343H14.6942L15.8977 19.4712H17.6684C17.7 19.6323 17.7773 19.7813 17.8913 19.9007C18.0053 20.0201 18.1514 20.1049 18.3123 20.1453C18.4733 20.1856 18.6426 20.1799 18.8004 20.1287C18.9582 20.0775 19.098 19.9829 19.2034 19.8561C19.3089 19.7293 19.3757 19.5754 19.396 19.4124C19.4162 19.2495 19.3892 19.0842 19.318 18.9359C19.2467 18.7875 19.1343 18.6623 18.9938 18.5748C18.8532 18.4873 18.6904 18.4412 18.5243 18.4418ZM18.5243 19.7881C18.422 19.7891 18.3218 19.7597 18.2366 19.7036C18.1515 19.6475 18.0854 19.5673 18.047 19.4735H18.2237C18.2554 19.5233 18.2994 19.5643 18.3516 19.5927C18.4038 19.621 18.4624 19.6358 18.522 19.6355C18.6133 19.6355 18.7009 19.5996 18.7655 19.5358C18.8301 19.4719 18.8664 19.3853 18.8664 19.295C18.8664 19.2047 18.8301 19.1181 18.7655 19.0542C18.7009 18.9904 18.6133 18.9545 18.522 18.9545C18.4623 18.9543 18.4037 18.9692 18.3515 18.9977C18.2993 19.0262 18.2553 19.0673 18.2237 19.1173H18.047C18.0789 19.0313 18.1339 18.9556 18.2062 18.8984C18.2785 18.8412 18.3653 18.8047 18.4571 18.7928C18.5489 18.7809 18.6423 18.7941 18.727 18.831C18.8118 18.8679 18.8847 18.927 18.9378 19.002C18.991 19.0769 19.0223 19.1649 19.0285 19.2562C19.0346 19.3475 19.0153 19.4388 18.9727 19.5201C18.9301 19.6013 18.8658 19.6695 18.7867 19.7172C18.7077 19.7648 18.6169 19.7902 18.5243 19.7904V19.7881ZM24.7544 21.9373L24.1443 21.581H17.0153L16.056 22.9179H14.4651C14.4206 22.7122 14.3006 22.53 14.1283 22.4065C13.9561 22.283 13.7436 22.2269 13.532 22.2491C13.3204 22.2712 13.1246 22.3699 12.9822 22.5263C12.8399 22.6827 12.7611 22.8856 12.7611 23.096C12.7611 23.3064 12.8399 23.5093 12.9822 23.6657C13.1246 23.822 13.3204 23.9208 13.532 23.9429C13.7436 23.965 13.9561 23.909 14.1283 23.7855C14.3006 23.662 14.4206 23.4798 14.4651 23.2741H16.2437L17.2031 21.9373H24.0393L24.6494 22.2935H26.6715V21.9373H24.7552H24.7544ZM13.6075 23.4314C13.6671 23.4316 13.7257 23.4169 13.7779 23.3885C13.8301 23.3602 13.8741 23.3192 13.9058 23.2694H14.0825C14.0404 23.3773 13.9614 23.4673 13.8593 23.5237C13.7571 23.5802 13.6382 23.5995 13.5232 23.5783C13.4081 23.5572 13.3042 23.4969 13.2294 23.4079C13.1546 23.319 13.1137 23.207 13.1137 23.0913C13.1137 22.9756 13.1546 22.8636 13.2294 22.7746C13.3042 22.6856 13.4081 22.6253 13.5232 22.6042C13.6382 22.583 13.7571 22.6024 13.8593 22.6588C13.9614 22.7152 14.0404 22.8052 14.0825 22.9132H13.9058C13.8742 22.8632 13.8302 22.822 13.778 22.7936C13.7258 22.7651 13.6672 22.7502 13.6075 22.7504C13.5162 22.7504 13.4286 22.7862 13.364 22.8501C13.2994 22.914 13.2631 23.0006 13.2631 23.0909C13.2631 23.1812 13.2994 23.2678 13.364 23.3317C13.4286 23.3955 13.5162 23.4314 13.6075 23.4314ZM15.2287 20.0193C15.1691 20.0191 15.1104 20.034 15.0582 20.0624C15.006 20.0909 14.962 20.1321 14.9304 20.182H13.1804L12.8312 20.867H10.9475V21.2232H13.0619L13.4111 20.5383H14.9328C14.9645 20.5881 15.0086 20.6291 15.0607 20.6574C15.1129 20.6858 15.1716 20.7005 15.2311 20.7003C15.3225 20.7003 15.41 20.6644 15.4746 20.6005C15.5392 20.5367 15.5755 20.4501 15.5755 20.3598C15.5755 20.2695 15.5392 20.1829 15.4746 20.119C15.41 20.0551 15.3225 20.0193 15.2311 20.0193H15.2287ZM20.1105 14.9141C20.0509 14.9139 19.9922 14.9288 19.94 14.9572C19.8878 14.9857 19.8438 15.0269 19.8122 15.0768H18.522L17.7893 14.7206H12.6936L12.3443 15.4056H10.9483V15.7618H12.571L12.9203 15.0768H17.7034L18.436 15.4331H19.813C19.8534 15.4966 19.9135 15.5456 19.9843 15.5726C20.0551 15.5997 20.1328 15.6034 20.206 15.5833C20.2864 15.5611 20.3558 15.5107 20.4015 15.4417C20.4472 15.3726 20.4659 15.2895 20.4543 15.2077C20.4426 15.126 20.4013 15.0513 20.3381 14.9974C20.2749 14.9435 20.194 14.9134 20.1105 14.9141ZM21.6625 15.8247L20.9712 17.1309H18.028L16.8244 16.2084H14.5176C14.4771 16.1447 14.4169 16.0957 14.3459 16.0686C14.275 16.0416 14.197 16.0379 14.1238 16.0583C14.0421 16.0792 13.9711 16.1291 13.9242 16.1985C13.8774 16.2679 13.858 16.352 13.8698 16.4346C13.8816 16.5172 13.9238 16.5926 13.9882 16.6465C14.0527 16.7004 14.1349 16.7289 14.2193 16.7267C14.2788 16.7269 14.3374 16.7122 14.3896 16.6838C14.4418 16.6555 14.4858 16.6145 14.5176 16.5647H16.6995L17.9031 17.4871H21.1963L21.8876 16.1809H26.6763V15.8247H21.6648H21.6625Z" fill="white"/>
</g>
<defs>
<clipPath id="clip0_119_1755">
<rect width="28" height="18" fill="white" transform="translate(30.8 7.3999)"/>
</clipPath>
<clipPath id="clip1_119_1755">
<rect width="19" height="23" fill="white" transform="translate(8.80005 4)"/>
</clipPath>
</defs>
</svg>
