<svg width="68" height="32" viewBox="0 0 68 32" fill="none" xmlns="http://www.w3.org/2000/svg">
<g clip-path="url(#clip0_119_1758)">
<path d="M24.0091 28.9235V27.2033C24.0213 27.0569 24.0019 26.9097 23.9523 26.7718C23.9026 26.6338 23.8238 26.5086 23.7215 26.4047C23.6191 26.3009 23.4956 26.221 23.3597 26.1706C23.2237 26.1202 23.0786 26.1005 22.9344 26.1129C22.745 26.1045 22.5567 26.1452 22.3872 26.2312C22.2177 26.3173 22.0726 26.4458 21.9658 26.6047C21.874 26.4455 21.7405 26.3152 21.5801 26.2284C21.4197 26.1416 21.2387 26.1016 21.0572 26.1129C20.9035 26.1074 20.751 26.1411 20.6135 26.2109C20.476 26.2808 20.358 26.3845 20.2702 26.5126V26.1746H19.6802V28.9392H20.2711V27.4187C20.2711 26.927 20.528 26.6968 20.9219 26.6968C21.3158 26.6968 21.5119 26.9574 21.5119 27.4187V28.9392H22.102V27.4187C22.09 27.3263 22.0982 27.2324 22.1258 27.1435C22.1534 27.0546 22.1998 26.9729 22.2618 26.9041C22.3238 26.8353 22.3999 26.7811 22.4847 26.7453C22.5695 26.7095 22.661 26.6929 22.7528 26.6968C23.1467 26.6968 23.3428 26.9574 23.3428 27.4187V28.9392H23.9937L24.0091 28.9235ZM32.8194 26.159H31.8508V25.3292H31.2608V26.159H30.7187V26.7115H31.2634V27.9704C31.2634 28.6003 31.5203 28.9843 32.2054 28.9843C32.4644 28.9765 32.7182 28.9081 32.947 28.7845L32.7808 28.2632C32.6255 28.3567 32.4476 28.4045 32.267 28.4014C31.9793 28.4014 31.8731 28.2328 31.8731 27.9409V26.7115H32.8416V26.159H32.8194ZM37.8599 26.0973C37.7173 26.0955 37.5767 26.1314 37.4519 26.2014C37.3271 26.2715 37.2225 26.3734 37.1483 26.4969V26.159H36.5583V28.9235H37.1483V27.3718C37.1483 26.9113 37.3453 26.6498 37.7084 26.6498C37.8314 26.6554 37.9533 26.6761 38.0715 26.7115L38.2376 26.1433C38.1079 26.1179 37.9757 26.1077 37.8437 26.1129L37.8599 26.0973ZM30.246 26.3892C29.9142 26.1834 29.5299 26.0818 29.1413 26.0973C28.4562 26.0973 28.0058 26.4352 28.0058 26.9878C28.0058 27.4483 28.3389 27.7098 28.9478 27.7862L29.2355 27.8166C29.5532 27.8783 29.7202 27.9548 29.7202 28.1086C29.7202 28.3084 29.4933 28.4465 29.0993 28.4465C28.7733 28.4516 28.4544 28.3492 28.1907 28.1546L27.903 28.6151C28.2484 28.8458 28.6551 28.9638 29.0685 28.9531C29.8555 28.9531 30.3094 28.5847 30.3094 28.0625C30.3094 27.5708 29.9463 27.3101 29.3674 27.2328L29.0796 27.2024C28.8227 27.172 28.6258 27.1103 28.6258 26.9418C28.6258 26.7419 28.8227 26.6194 29.1396 26.6194C29.4357 26.6302 29.7256 26.7089 29.9874 26.8497L30.2443 26.3579L30.246 26.3892ZM46.0476 26.0973C45.905 26.0955 45.7644 26.1314 45.6396 26.2014C45.5148 26.2715 45.4102 26.3734 45.336 26.4969V26.159H44.746V28.9235H45.336V27.3718C45.336 26.9113 45.533 26.6498 45.8961 26.6498C46.0191 26.6554 46.141 26.6761 46.2592 26.7115L46.4253 26.1433C46.2956 26.1179 46.1634 26.1077 46.0314 26.1129L46.0476 26.0973ZM38.4483 27.5412C38.4394 27.7345 38.4707 27.9275 38.5401 28.1077C38.6094 28.2879 38.7152 28.4514 38.8508 28.5875C38.9863 28.7236 39.1485 28.8293 39.3268 28.8978C39.5052 28.9663 39.6957 28.9961 39.8861 28.9852C40.2369 29.0013 40.5814 28.8866 40.8546 28.6629L40.5669 28.1711C40.3645 28.3353 40.1143 28.4269 39.8553 28.4318C39.7417 28.4355 39.6286 28.4145 39.5237 28.3702C39.4188 28.3259 39.3244 28.2593 39.2469 28.175C39.1695 28.0906 39.1107 27.9904 39.0746 27.8811C39.0384 27.7718 39.0258 27.6559 39.0374 27.5412C39.0308 27.4276 39.047 27.3139 39.085 27.2068C39.123 27.0997 39.182 27.0016 39.2584 26.9184C39.3349 26.8351 39.4272 26.7685 39.5298 26.7224C39.6324 26.6764 39.7431 26.652 39.8553 26.6507C40.1143 26.6555 40.3645 26.7472 40.5669 26.9113L40.8546 26.4196C40.5826 26.1936 40.2372 26.0787 39.8861 26.0973C39.6954 26.0851 39.5043 26.114 39.3254 26.1821C39.1465 26.2502 38.9839 26.3558 38.8481 26.4922C38.7123 26.6286 38.6065 26.7925 38.5376 26.9733C38.4687 27.1541 38.4382 27.3477 38.4483 27.5412ZM43.9435 27.5412V26.159H43.3535V26.4969C43.2541 26.3662 43.1252 26.2617 42.9777 26.1922C42.8301 26.1226 42.6683 26.0901 42.5057 26.0973C42.1388 26.1131 41.7921 26.2721 41.538 26.5411C41.2839 26.8101 41.1421 27.1682 41.1421 27.5408C41.1421 27.9134 41.2839 28.2715 41.538 28.5405C41.7921 28.8095 42.1388 28.9685 42.5057 28.9843C42.6691 28.9983 42.8332 28.9688 42.9819 28.8987C43.1306 28.8286 43.2587 28.7204 43.3535 28.5847V28.9226H43.9435V27.5412ZM41.7641 27.5412C41.756 27.4273 41.7711 27.3129 41.8085 27.2051C41.8458 27.0973 41.9047 26.9985 41.9814 26.9149C42.0581 26.8312 42.151 26.7645 42.2542 26.7189C42.3575 26.6733 42.4689 26.6497 42.5815 26.6497C42.6941 26.6497 42.8055 26.6733 42.9088 26.7189C43.012 26.7645 43.1049 26.8312 43.1816 26.9149C43.2583 26.9985 43.3171 27.0973 43.3545 27.2051C43.3919 27.3129 43.407 27.4273 43.3989 27.5412C43.407 27.6552 43.3919 27.7696 43.3545 27.8774C43.3171 27.9851 43.2583 28.0839 43.1816 28.1676C43.1049 28.2512 43.012 28.318 42.9088 28.3636C42.8055 28.4092 42.6941 28.4327 42.5815 28.4327C42.4689 28.4327 42.3575 28.4092 42.2542 28.3636C42.151 28.318 42.0581 28.2512 41.9814 28.1676C41.9047 28.0839 41.8458 27.9851 41.8085 27.8774C41.7711 27.7696 41.756 27.6552 41.7641 27.5412ZM34.6494 26.0973C34.4639 26.0921 34.2794 26.1263 34.1077 26.1979C33.9361 26.2695 33.7811 26.3767 33.6528 26.5128C33.5245 26.6488 33.4258 26.8106 33.3629 26.9878C33.3 27.1649 33.2745 27.3534 33.2878 27.5412C33.2739 27.7318 33.3002 27.9232 33.3649 28.1026C33.4295 28.2821 33.5311 28.4455 33.6628 28.5821C33.7945 28.7187 33.9533 28.8253 34.1287 28.8948C34.3042 28.9643 34.4922 28.9951 34.6803 28.9852C35.0793 28.9952 35.4696 28.8651 35.785 28.6168L35.4972 28.1868C35.2706 28.3637 34.9959 28.4656 34.7102 28.4787C34.5163 28.4968 34.3229 28.4383 34.1706 28.3152C34.0182 28.1922 33.9185 28.0142 33.8924 27.8184H35.9057V27.5882C35.9338 27.4071 35.9227 27.222 35.8732 27.0457C35.8237 26.8695 35.737 26.7062 35.6191 26.5674C35.5012 26.4285 35.355 26.3173 35.1905 26.2415C35.026 26.1658 34.8472 26.1272 34.6666 26.1286L34.6494 26.0973ZM34.6494 26.6186C34.8265 26.6141 34.9981 26.6812 35.1266 26.805C35.255 26.9287 35.3298 27.0992 35.3345 27.2789H33.9095C33.929 27.0945 34.0161 26.9243 34.1534 26.802C34.2908 26.6797 34.4684 26.6142 34.6511 26.6186H34.6494ZM49.4089 27.5404V25.0686H48.8188V26.5126C48.7194 26.3819 48.5905 26.2774 48.443 26.2078C48.2954 26.1382 48.1336 26.1057 47.971 26.1129C47.6041 26.1287 47.2574 26.2877 47.0033 26.5567C46.7492 26.8257 46.6074 27.1839 46.6074 27.5564C46.6074 27.929 46.7492 28.2872 47.0033 28.5562C47.2574 28.8251 47.6041 28.9841 47.971 29C48.1344 29.014 48.2986 28.9845 48.4472 28.9144C48.5959 28.8443 48.724 28.736 48.8188 28.6003V28.9383H49.4089V27.5569V27.5404ZM47.2294 27.5404C47.2213 27.4264 47.2364 27.312 47.2738 27.2042C47.3112 27.0965 47.37 26.9977 47.4467 26.914C47.5234 26.8304 47.6163 26.7636 47.7196 26.718C47.8228 26.6724 47.9342 26.6489 48.0468 26.6489C48.1594 26.6489 48.2708 26.6724 48.3741 26.718C48.4773 26.7636 48.5702 26.8304 48.6469 26.914C48.7236 26.9977 48.7825 27.0965 48.8199 27.2042C48.8573 27.312 48.8724 27.4264 48.8642 27.5404C48.8724 27.6543 48.8573 27.7687 48.8199 27.8765C48.7825 27.9843 48.7236 28.0831 48.6469 28.1667C48.5702 28.2504 48.4773 28.3171 48.3741 28.3627C48.2708 28.4083 48.1594 28.4319 48.0468 28.4319C47.9342 28.4319 47.8228 28.4083 47.7196 28.3627C47.6163 28.3171 47.5234 28.2504 47.4467 28.1667C47.37 28.0831 47.3112 27.9843 47.2738 27.8765C47.2364 27.7687 47.2213 27.6543 47.2294 27.5404ZM27.3386 27.5404V26.159H26.7495V26.4969C26.6501 26.3662 26.5212 26.2617 26.3736 26.1922C26.2261 26.1226 26.0642 26.0901 25.9017 26.0973C25.5348 26.1131 25.1881 26.2721 24.934 26.5411C24.6799 26.8101 24.538 27.1682 24.538 27.5408C24.538 27.9134 24.6799 28.2715 24.934 28.5405C25.1881 28.8095 25.5348 28.9685 25.9017 28.9843C26.065 28.9983 26.2292 28.9688 26.3779 28.8987C26.5266 28.8286 26.6547 28.7204 26.7495 28.5847V28.9226H27.3395L27.3386 27.5404ZM25.1284 27.5404C25.1202 27.4264 25.1353 27.312 25.1727 27.2042C25.2101 27.0965 25.269 26.9977 25.3457 26.914C25.4224 26.8304 25.5153 26.7636 25.6185 26.718C25.7218 26.6724 25.8332 26.6489 25.9458 26.6489C26.0584 26.6489 26.1698 26.6724 26.273 26.718C26.3763 26.7636 26.4691 26.8304 26.5458 26.914C26.6225 26.9977 26.6814 27.0965 26.7188 27.2042C26.7562 27.312 26.7713 27.4264 26.7632 27.5404C26.7713 27.6543 26.7562 27.7687 26.7188 27.8765C26.6814 27.9843 26.6225 28.0831 26.5458 28.1667C26.4691 28.2504 26.3763 28.3171 26.273 28.3627C26.1698 28.4083 26.0584 28.4319 25.9458 28.4319C25.8332 28.4319 25.7218 28.4083 25.6185 28.3627C25.5153 28.3171 25.4224 28.2504 25.3457 28.1667C25.269 28.0831 25.2101 27.9843 25.1727 27.8765C25.1353 27.7687 25.1202 27.6543 25.1284 27.5404Z" fill="black"/>
<path d="M38.9654 5.21118H30.0344V21.4744H38.9654V5.21118Z" fill="#FF5F00"/>
<path d="M30.61 13.3511C30.6114 11.7861 30.9605 10.2415 31.6314 8.83227C32.3022 7.42301 33.2776 6.18532 34.485 5.21123C32.9809 4.01278 31.1747 3.26795 29.273 3.06189C27.3712 2.85583 25.4507 3.19687 23.731 4.046C22.0114 4.89514 20.5619 6.2181 19.5484 7.86361C18.535 9.50912 17.9984 11.4108 18 13.3511C17.9984 15.2914 18.535 17.1931 19.5484 18.8386C20.5619 20.4841 22.0114 21.8071 23.731 22.6562C25.4507 23.5053 27.3712 23.8464 29.273 23.6403C31.1747 23.4343 32.9809 22.6894 34.485 21.491C33.2737 20.5205 32.2954 19.2836 31.6242 17.8735C30.9529 16.4634 30.6061 14.917 30.61 13.3511Z" fill="#EB001B"/>
<path d="M50.9999 13.351C51.0015 15.2913 50.4649 17.193 49.4515 18.8385C48.438 20.484 46.9885 21.807 45.2689 22.6561C43.5492 23.5053 41.6287 23.8463 39.7269 23.6402C37.8252 23.4342 36.019 22.6893 34.5149 21.4909C35.7286 20.5225 36.7085 19.286 37.38 17.8755C38.0515 16.4649 38.3969 14.9175 38.3899 13.351C38.3902 11.7857 38.0418 10.2406 37.3708 8.83108C36.6998 7.42157 35.7235 6.18411 34.5149 5.21113C36.3031 3.77616 38.5172 2.99691 40.7972 3.00001C43.5019 3.00392 46.0948 4.09572 48.0073 6.03606C49.9199 7.9764 50.9961 10.607 50.9999 13.351Z" fill="#F79E1B"/>
</g>
<defs>
<clipPath id="clip0_119_1758">
<rect width="33" height="26" fill="white" transform="translate(18 3)"/>
</clipPath>
</defs>
</svg>
