<svg width="68" height="32" viewBox="0 0 68 32" fill="none" xmlns="http://www.w3.org/2000/svg">
<g clip-path="url(#clip0_119_1761)">
<path d="M18.8638 12.8347L17.3853 20.4064H19.8635L21.356 12.8347H23.3552L23.7955 10.7097H17.3065L16.8777 12.8347H18.8638Z" fill="#FEFDFC"/>
<path d="M24.6349 10.7097L22.7021 20.4196H25.2238L27.1541 10.7097H24.6349Z" fill="#FEFDFC"/>
<path d="M29.6602 20.5C29.6417 20.4742 29.6192 20.4516 29.5937 20.4328C28.9882 20.2989 28.4409 19.9737 28.031 19.5046C27.6211 19.0354 27.3701 18.4467 27.3143 17.8239C26.9834 15.9668 27.3801 14.0526 28.4207 12.4849C29.0114 11.6145 29.8788 10.9736 30.8794 10.668C31.8801 10.3623 32.9542 10.4104 33.9241 10.8041C34.3504 10.9517 34.7504 11.1671 35.1907 11.3553L34.2707 13.3443C33.658 13.1289 33.0715 12.8736 32.4579 12.7261C32.1498 12.6567 31.8286 12.6767 31.5314 12.7838C31.2342 12.8908 30.973 13.0806 30.7781 13.3311C30.09 14.18 29.7217 15.2471 29.7382 16.3437C29.7212 16.6644 29.7444 16.986 29.8072 17.3009C29.8207 17.4596 29.866 17.6139 29.9405 17.7544C30.015 17.8948 30.1171 18.0184 30.2406 18.1177C30.364 18.217 30.5063 18.2898 30.6586 18.3318C30.8109 18.3738 30.9701 18.3839 31.1264 18.3617C31.7754 18.2634 32.4168 18.1197 33.046 17.9316C33.1659 17.9051 33.2727 17.8371 33.4329 17.7841V19.8013C33.4329 19.8842 33.3261 19.9894 33.2333 20.0168C32.8333 20.1643 32.4332 20.2721 32.034 20.4072C31.9749 20.4317 31.917 20.4594 31.8607 20.49H29.6733L29.6602 20.5Z" fill="#E95506"/>
<path d="M10.9464 20.4999C10.5866 20.3657 10.24 20.2173 9.87854 20.0855C9.78791 20.0553 9.71054 19.9942 9.65972 19.9127C9.60891 19.8312 9.58782 19.7343 9.60008 19.6388C9.61323 18.9758 9.60008 18.3211 9.60008 17.581C9.73315 17.6481 9.82679 17.702 9.91961 17.7559C10.5996 18.1584 11.3713 18.3765 12.1596 18.389C12.3187 18.4106 12.4805 18.3789 12.6201 18.2988C12.7597 18.2187 12.8694 18.0947 12.9325 17.9456C13.0022 17.7936 13.0216 17.6229 12.9881 17.4588C12.9545 17.2947 12.8697 17.1458 12.746 17.034C12.4126 16.6975 12.0528 16.371 11.693 16.0519C11.2611 15.6839 10.9328 15.2078 10.7409 14.6713C10.549 14.1348 10.5003 13.5568 10.5997 12.9954C10.7185 12.357 11.0405 11.7752 11.5168 11.3383C11.9932 10.9013 12.5978 10.6332 13.2389 10.5745C14.2841 10.4336 15.3472 10.6117 16.2912 11.0859C16.3848 11.1265 16.4645 11.1936 16.5713 11.2475L15.731 13.2109C15.3712 13.0633 15.0377 12.915 14.6911 12.7965C14.4301 12.7202 14.162 12.6707 13.8911 12.6489C13.7446 12.6225 13.5936 12.6434 13.4595 12.7085C13.3255 12.7737 13.2152 12.8799 13.1444 13.0119C13.0748 13.1506 13.0455 13.3064 13.0601 13.4611C13.0746 13.6159 13.1323 13.7633 13.2266 13.8863C13.4136 14.1134 13.6185 14.3249 13.8393 14.5187C14.1194 14.788 14.4258 15.03 14.7059 15.2985C15.0913 15.6923 15.3628 16.1849 15.4909 16.723C15.6191 17.2612 15.5991 17.8244 15.4331 18.3519C15.2671 18.8794 14.9615 19.3511 14.5491 19.7161C14.1368 20.0811 13.6335 20.3255 13.0935 20.4229C13.0672 20.4229 13.0401 20.4635 13.0114 20.4767H10.9464V20.4999Z" fill="#E95506"/>
<path d="M58.6902 10.8307C57.7974 12.2023 56.971 13.6278 55.9845 14.9323C55.1058 16.1902 54.5557 17.6513 54.3853 19.1806C54.3333 19.5207 54.262 19.8574 54.1717 20.1892C54.1454 20.2837 54.0255 20.4047 53.945 20.4047C53.1983 20.418 52.4385 20.4047 51.6525 20.4047C51.7987 19.6654 51.9326 18.9519 52.0788 18.2499C52.1724 17.7659 52.2784 17.2951 52.372 16.8111C52.3876 16.6767 52.3832 16.5407 52.3589 16.4075C51.9153 14.6223 51.466 12.8347 51.0257 11.0454C50.9995 10.9376 50.9724 10.8299 50.9436 10.6956H53.4899L54.051 14.2328C54.5438 13.3212 55.0104 12.4841 55.4638 11.6504C55.6371 11.328 55.7439 10.897 56.024 10.7387C56.2909 10.5771 56.7304 10.6848 57.0918 10.6848H58.691V10.8174L58.6902 10.8307Z" fill="#E95506"/>
<path d="M48.8006 10.6824H45.7753C45.7147 10.697 45.6581 10.7252 45.6096 10.7647C45.5612 10.8043 45.5221 10.8543 45.4952 10.9111C44.2692 13.4262 43.0519 15.9501 41.8433 18.4828C41.5369 19.1152 41.2437 19.7467 40.9233 20.4197H43.3226C43.3779 20.4093 43.4297 20.3856 43.4738 20.3505C43.5179 20.3154 43.5528 20.27 43.5756 20.2183C43.7892 19.7608 43.9863 19.2768 44.2024 18.8193C44.2246 18.7667 44.2593 18.7205 44.3035 18.6847C44.3476 18.6488 44.3997 18.6245 44.4554 18.6138C45.3219 18.6005 46.1745 18.6138 47.0838 18.6138C47.1101 19.232 47.1372 19.8238 47.166 20.4155H49.5653C49.3074 17.1783 49.0552 13.9635 48.7874 10.7089L48.8006 10.6824ZM45.2151 16.4921C45.7753 15.1876 46.3347 13.8831 46.8949 12.5654C46.9352 13.8831 46.9771 15.1743 47.0148 16.4921H45.2151Z" fill="#E95506"/>
<path d="M39.6033 10.7759C38.5031 10.6999 37.3993 10.6913 36.298 10.7502C35.6581 13.951 35.0182 17.179 34.3652 20.4063H36.8459C36.9526 19.8684 37.0594 19.3438 37.1654 18.8192C37.2722 18.2813 37.3789 17.7567 37.4718 17.2321C37.9515 17.2056 38.3917 17.1915 38.8312 17.1376C39.657 17.0984 40.44 16.7552 41.032 16.1729C41.624 15.5905 41.9839 14.8095 42.0437 13.9775C42.1899 12.2155 41.3504 10.9781 39.591 10.7635L39.6033 10.7759ZM38.657 15.0126C38.419 15.0515 38.1786 15.0739 37.9375 15.0798C38.0977 14.2999 38.2307 13.5739 38.3769 12.847C39.0702 12.7642 39.4702 12.968 39.563 13.452C39.6357 13.7791 39.5829 14.1218 39.4153 14.4112C39.2476 14.7006 38.9776 14.9152 38.6595 15.0118L38.657 15.0126Z" fill="#E95506"/>
<path d="M18.8638 12.8347H16.8777L17.304 10.7097H23.793L23.3536 12.8347H21.356L19.8635 20.4064H17.3845L18.8638 12.8347Z" fill="#E95506"/>
<path d="M24.6881 10.5H27.2073L25.2614 20.2099H22.7422L24.6881 10.5Z" fill="#E95506"/>
</g>
<defs>
<clipPath id="clip0_119_1761">
<rect width="49.0909" height="10" fill="white" transform="translate(9.6001 10.5)"/>
</clipPath>
</defs>
</svg>
