<svg width="68" height="32" viewBox="0 0 68 32" fill="none" xmlns="http://www.w3.org/2000/svg">
<path d="M55.6478 11.0037L57.9998 15.2993L53.0574 19.6033L55.6478 11.0037Z" fill="#2B8B4B"/>
<path d="M54.0019 11.0037L56.3539 15.2993L51.4099 19.6033L54.0019 11.0037Z" fill="#E9661C"/>
<path d="M21.4981 19.3162C21.715 19.1705 21.8762 18.9557 21.9552 18.7066L22.7392 16.1306C22.7773 16.0323 22.7885 15.9257 22.7716 15.8216C22.7547 15.7175 22.7104 15.6199 22.6432 15.5386C22.5693 15.4562 22.4776 15.3917 22.375 15.3501C22.2724 15.3085 22.1617 15.2909 22.0512 15.2986C22.3169 15.2972 22.575 15.2101 22.7872 15.0503C23.0047 14.9117 23.164 14.6984 23.2352 14.4506L24.0192 11.8747C24.058 11.772 24.071 11.6615 24.0571 11.5527C24.0431 11.4439 24.0026 11.3402 23.9392 11.2507C23.8676 11.1649 23.7765 11.0976 23.6735 11.0543C23.5705 11.0111 23.4586 10.9933 23.3472 11.0023H13.153L10.5625 19.5356H20.7621C21.0267 19.5551 21.2892 19.4752 21.4981 19.3116M14.4985 12.6876H21.2185C21.3064 12.7061 21.3895 12.7427 21.4625 12.7952C21.5355 12.8477 21.5966 12.9148 21.6421 12.9924C21.6742 13.0986 21.6904 13.209 21.6901 13.32C21.6891 13.379 21.6837 13.4378 21.6741 13.496L21.6581 13.5524L21.5941 13.768C21.5002 13.9609 21.3581 14.1263 21.1815 14.2482C21.0049 14.3701 20.7998 14.4443 20.5861 14.4636H13.9621L14.4985 12.6876ZM20.5465 17.2392C20.4478 17.42 20.3068 17.5741 20.1355 17.6884C19.9642 17.8027 19.7677 17.8736 19.5629 17.8952H12.9244L13.4577 16.1352H20.1625C20.2783 16.1583 20.3853 16.2134 20.4715 16.2942C20.5577 16.375 20.6195 16.4782 20.6501 16.5923C20.6594 16.6426 20.6647 16.6936 20.6661 16.7447C20.6672 16.7704 20.6646 16.796 20.6585 16.8209V16.8529L20.5465 17.2392ZM36.538 11.0312L33.9941 19.5432H32.1655L33.1895 16.1276H25.8295L24.8055 19.5432H22.9815L25.5255 11.0312H27.3541L26.3301 14.4598H33.6901L34.7141 11.0312H36.538ZM37.0714 19.5645H35.2314L37.7914 11.0609H39.6314L37.0714 19.5645ZM52.439 11.0449L51.6771 13.5729L49.8934 19.5249H48.0649L49.2725 15.4609L44.4405 19.5325L41.5209 14.9329L40.1449 19.5249H38.3163L40.2843 12.9725L40.8603 11.0366H40.8923L42.1243 12.9162L44.791 16.9878L52.4466 11.0449H52.439Z" fill="#6D6E71"/>
<path d="M10.0023 21.8519L10.3299 20.5955H10.6979C10.773 20.5901 10.8484 20.5955 10.9219 20.6115C10.9632 20.6159 11.0022 20.6326 11.0339 20.6595C11.0526 20.6725 11.0686 20.6891 11.0809 20.7083C11.0932 20.7276 11.1016 20.749 11.1055 20.7715C11.1216 20.821 11.1216 20.8744 11.1055 20.9239C11.0896 20.9875 11.0564 21.0455 11.0095 21.0915C10.9616 21.1402 10.9004 21.1736 10.8335 21.1875C10.8688 21.1906 10.9029 21.2016 10.9334 21.2197C10.9638 21.2378 10.9898 21.2624 11.0095 21.2919C11.0263 21.3236 11.0364 21.3584 11.0392 21.3942C11.0419 21.43 11.0373 21.466 11.0255 21.4999C11.0115 21.5522 10.9872 21.6011 10.9539 21.6439C10.9222 21.6916 10.8813 21.7326 10.8335 21.7643C10.7819 21.7977 10.725 21.8219 10.6651 21.8359C10.5648 21.8553 10.4625 21.8632 10.3604 21.8595H10L10.0023 21.8519ZM10.2743 21.6835H10.3505C10.4118 21.6859 10.4732 21.6834 10.5341 21.6759C10.5705 21.6713 10.6058 21.6605 10.6385 21.6439C10.6708 21.6271 10.7003 21.6056 10.7261 21.5799C10.7498 21.5524 10.7664 21.5194 10.7741 21.4839C10.782 21.4498 10.782 21.4143 10.7741 21.3803C10.7694 21.3642 10.7612 21.3494 10.7502 21.3369C10.7391 21.3244 10.7254 21.3145 10.7101 21.3079L10.6377 21.2843C10.6057 21.2843 10.5737 21.2766 10.5257 21.2766H10.3733L10.2743 21.6835ZM10.4183 21.1235H10.5059C10.5905 21.1269 10.675 21.1135 10.7543 21.0839C10.7812 21.0713 10.8047 21.0524 10.8227 21.0288C10.8408 21.0052 10.8528 20.9775 10.8579 20.9483C10.8742 20.8761 10.8663 20.8281 10.8343 20.8043C10.7625 20.7724 10.684 20.7588 10.6057 20.7646H10.5181L10.4183 21.1235ZM12.0183 21.8519L12.1783 21.2424H12.8899L12.7299 21.8519H12.9585L13.2861 20.5955H13.0575L12.9379 21.0595H12.2255L12.3459 20.5955H12.1173L11.789 21.8519H12.0183ZM14.8739 21.8519L14.7977 21.5235H14.2217L13.9733 21.8519H13.7249L14.7649 20.5399L15.1253 21.8519H14.8739ZM14.3459 21.3559H14.7535L14.6819 21.0679C14.6819 21.0519 14.6743 21.0283 14.6743 21.0039C14.6743 20.9795 14.6667 20.9559 14.6667 20.9239C14.6507 20.9483 14.6347 20.9795 14.6187 21.0039C14.6046 21.0266 14.5885 21.048 14.5707 21.0679L14.3459 21.3559ZM16.2339 21.2919L16.0899 21.8519H15.8659L16.1935 20.5955H16.5211C16.5961 20.5953 16.671 20.6007 16.7451 20.6115C16.7889 20.6202 16.8299 20.6393 16.8647 20.6671C16.9034 20.6965 16.9293 20.7396 16.9371 20.7875C16.9462 20.8408 16.9433 20.8954 16.9287 20.9475C16.9085 21.0412 16.8579 21.1256 16.7847 21.1875C16.7068 21.2491 16.6119 21.2856 16.5127 21.2919L16.8647 21.8679H16.6011L16.2651 21.3079H16.2331L16.2339 21.2919ZM16.2903 21.1319H16.3307C16.4179 21.1365 16.5051 21.1227 16.5867 21.0915C16.6116 21.0773 16.6331 21.0578 16.6497 21.0343C16.6663 21.0109 16.6775 20.9841 16.6827 20.9559C16.6984 20.8838 16.6903 20.8358 16.6583 20.8119C16.5877 20.7762 16.5081 20.7624 16.4297 20.7723H16.3893L16.2903 21.1319ZM18.5699 21.8519L18.4937 21.5235H17.9177L17.6617 21.8519H17.4133L18.4533 20.5399L18.8129 21.8519H18.5699ZM18.0503 21.3559H18.4579L18.3863 21.0679C18.3789 21.0474 18.3761 21.0256 18.3779 21.0039C18.3779 20.9795 18.3703 20.9559 18.3703 20.9239C18.3536 20.9488 18.3401 20.9757 18.3299 21.0039C18.3158 21.0266 18.2998 21.048 18.2819 21.0679L18.0503 21.3559ZM20.5943 20.7639L20.6423 20.5879H19.6343L19.5863 20.7639H19.9672L19.6876 21.8519H19.9162L20.1965 20.7639H20.5943ZM22.5699 21.8519L22.8975 20.5955H22.6575L22.3299 21.8519H22.5699ZM23.7379 21.8519L23.9664 20.9795L24.0144 21.0519C24.0312 21.0749 24.0501 21.0963 24.0708 21.1159L24.8068 21.8999L25.1504 20.5955H24.9348L24.7108 21.4679C24.6895 21.4403 24.6708 21.4107 24.6552 21.3795C24.6392 21.3551 24.6148 21.3315 24.5988 21.3071L23.8788 20.5391L23.5352 21.8511H23.7348L23.7379 21.8519ZM26.8975 20.7639L26.9371 20.5879H25.9375L25.8895 20.7639H26.2704L25.9908 21.8519H26.2308L26.5112 20.7639H26.8975ZM28.2171 21.8519L28.2651 21.6683H27.6891L27.7935 21.2599H28.3695L28.4175 21.0839H27.8415L27.9215 20.7639H28.4975L28.5455 20.5879H27.7295L27.4011 21.8442H28.2171V21.8519ZM29.4651 21.2919L29.3211 21.8519H29.0971L29.4247 20.5955H29.7523C29.8248 20.5949 29.8971 20.6002 29.9687 20.6115C30.0125 20.6202 30.0535 20.6393 30.0883 20.6671C30.127 20.6965 30.1529 20.7396 30.1607 20.7875C30.1698 20.8408 30.1669 20.8954 30.1523 20.9475C30.1321 21.0412 30.0815 21.1256 30.0083 21.1875C29.9304 21.2491 29.8355 21.2856 29.7363 21.2919L30.0883 21.8679H29.8247L29.4887 21.3079H29.4643L29.4651 21.2919ZM29.5215 21.1319H29.5611C29.6483 21.1373 29.7357 21.1235 29.8171 21.0915C29.842 21.0773 29.8635 21.0578 29.8801 21.0343C29.8967 21.0109 29.908 20.9841 29.9131 20.9559C29.9288 20.8838 29.9207 20.8358 29.8887 20.8119C29.8182 20.7762 29.7386 20.7624 29.6601 20.7723H29.6205L29.5215 21.1319ZM31.0811 21.8519L31.2335 21.2599H31.8095L31.8575 21.0839H31.2815L31.3577 20.7715H31.9337L31.9817 20.5955H31.174L30.8457 21.8519H31.0811ZM33.4087 21.8519L33.3325 21.5235H32.7565L32.5005 21.8519H32.2498L33.2898 20.5399L33.6502 21.8519H33.4087ZM32.8807 21.3559H33.2883L33.2167 21.0679C33.2096 21.0473 33.207 21.0255 33.2091 21.0039C33.2091 20.9795 33.2015 20.9559 33.2015 20.9239C33.1855 20.9483 33.1695 20.9795 33.1535 21.0039C33.1389 21.0245 33.1254 21.0459 33.1131 21.0679L32.8807 21.3559ZM35.8521 20.6923C35.7897 20.6523 35.7227 20.6201 35.6525 20.5962C35.5747 20.5729 35.4937 20.5621 35.4125 20.5643C35.3068 20.5646 35.2018 20.5807 35.1009 20.6122C34.9992 20.6422 34.9041 20.6911 34.8205 20.7563C34.7364 20.8177 34.6611 20.8902 34.5965 20.9719C34.5397 21.0494 34.4965 21.1359 34.4685 21.2279C34.4462 21.3141 34.4436 21.4042 34.4609 21.4915C34.4788 21.5705 34.5142 21.6444 34.5645 21.7079C34.6236 21.7713 34.6981 21.8183 34.7809 21.8442C34.8758 21.8776 34.9759 21.8938 35.0765 21.8923C35.1604 21.894 35.2441 21.8832 35.3249 21.8602C35.4051 21.8424 35.4821 21.8127 35.5535 21.7719L35.6091 21.5433C35.5304 21.5961 35.444 21.6364 35.3531 21.6629C35.27 21.6878 35.1838 21.7011 35.0971 21.7025C35.0356 21.7064 34.9741 21.6962 34.9172 21.6727C34.8603 21.6492 34.8095 21.613 34.7687 21.5669C34.7312 21.5205 34.7064 21.4652 34.6965 21.4063C34.6866 21.3475 34.6921 21.2871 34.7123 21.2309C34.7499 21.0919 34.8348 20.9704 34.9523 20.8873C35.0754 20.7975 35.2243 20.7499 35.3767 20.7517C35.4531 20.7518 35.5289 20.7652 35.6007 20.7913C35.6681 20.8178 35.7305 20.8557 35.7851 20.9033L35.8521 20.6923ZM37.2517 21.8526L37.2997 21.669H36.7237L36.8274 21.2606H37.4034L37.4514 21.0846H36.8754L36.9554 20.7646H37.5314L37.5794 20.5886H36.771L36.4426 21.845H37.251L37.2517 21.8526ZM39.5953 21.8526L39.7477 21.2606H40.3237L40.3717 21.0846H39.7927L39.8727 20.7723H40.4487L40.4967 20.5962H39.6891L39.3614 21.8526H39.5953ZM42.6833 21.2286C42.6588 21.3219 42.6152 21.409 42.5553 21.4846C42.4929 21.5685 42.4173 21.6415 42.3313 21.701C42.244 21.7647 42.1467 21.8133 42.0433 21.845C41.9447 21.876 41.842 21.8922 41.7386 21.893C41.6405 21.894 41.543 21.8777 41.4506 21.845C41.3676 21.8162 41.2934 21.7666 41.235 21.701C41.181 21.642 41.1425 21.5705 41.123 21.493C41.1056 21.4082 41.1082 21.3206 41.1306 21.237C41.1557 21.1454 41.1965 21.0588 41.251 20.981C41.3135 20.8975 41.3891 20.8247 41.475 20.7654C41.5623 20.7017 41.6596 20.6531 41.763 20.6214C41.8641 20.5898 41.9694 20.5736 42.0753 20.5734C42.1734 20.5724 42.2709 20.5887 42.3633 20.6214C42.4456 20.6521 42.5196 20.7014 42.5797 20.7654C42.6354 20.8262 42.674 20.9005 42.6917 20.981C42.7091 21.0632 42.7065 21.1484 42.6841 21.2294M42.4365 21.2294C42.4508 21.1692 42.4534 21.1069 42.4441 21.0458C42.437 20.9886 42.412 20.9353 42.3725 20.8934C42.3337 20.8474 42.2842 20.8116 42.2285 20.789C42.1673 20.7655 42.102 20.7546 42.0365 20.757C41.9658 20.7553 41.8954 20.7661 41.8285 20.789C41.7564 20.8125 41.6887 20.8478 41.6281 20.8934C41.5677 20.9336 41.516 20.9854 41.4757 21.0458C41.4352 21.101 41.4053 21.1633 41.3873 21.2294C41.373 21.2898 41.3704 21.3524 41.3797 21.4138C41.3902 21.4698 41.4149 21.5223 41.4513 21.5662C41.4902 21.6121 41.5396 21.648 41.5953 21.6705C41.6565 21.6941 41.7218 21.705 41.7873 21.7025C41.8577 21.7003 41.9276 21.6896 41.9953 21.6705C42.0674 21.6471 42.1352 21.6118 42.1957 21.5662C42.2547 21.5216 42.3084 21.4705 42.3557 21.4138C42.3891 21.3554 42.4167 21.2936 42.4365 21.2294ZM43.7713 21.2934L43.6273 21.8534H43.4033L43.7317 20.597H44.0593C44.1343 20.5968 44.2092 20.6022 44.2833 20.613C44.3271 20.6217 44.3681 20.6408 44.4029 20.6686C44.4416 20.698 44.4675 20.7411 44.4753 20.789C44.4844 20.8423 44.4815 20.897 44.467 20.949C44.4468 21.0427 44.3961 21.1271 44.323 21.189C44.245 21.2507 44.1501 21.2871 44.0509 21.2934L44.4029 21.8694H44.1355L43.7995 21.3094H43.7675L43.7713 21.2934ZM43.8277 21.1334H43.8673C43.9546 21.1388 44.042 21.125 44.1233 21.093C44.1483 21.0788 44.1698 21.0593 44.1864 21.0359C44.203 21.0125 44.2143 20.9857 44.2193 20.9574C44.2356 20.8853 44.2277 20.8373 44.1957 20.8134C44.1252 20.7777 44.0456 20.7639 43.9671 20.7738H43.9268L43.8277 21.1334ZM47.7134 21.8534H47.9298L47.9222 20.5414L47.2982 21.3338L47.2738 21.3658C47.2258 21.4222 47.1976 21.4701 47.1702 21.5021C47.1618 21.4625 47.1542 21.4222 47.1458 21.3902C47.1424 21.3684 47.1371 21.347 47.1298 21.3262L46.9142 20.5315L46.2285 21.8435H46.4448L46.7649 21.2195C46.7799 21.1909 46.7931 21.1614 46.8045 21.1311C46.8137 21.1039 46.8244 21.0772 46.8365 21.0511C46.8365 21.0755 46.8448 21.1067 46.8448 21.1311C46.8448 21.1555 46.8525 21.1867 46.8609 21.2111L47.0605 21.8968L47.6128 21.2248C47.6367 21.1976 47.6582 21.1683 47.6768 21.1372C47.6928 21.1052 47.7088 21.0816 47.7248 21.0488C47.7248 21.0732 47.7165 21.1045 47.7165 21.1372C47.7116 21.1636 47.7091 21.1904 47.7088 21.2172V21.8488L47.7134 21.8534ZM50.3854 21.2294C50.3605 21.3209 50.32 21.4075 50.2658 21.4854C50.2034 21.5692 50.1277 21.6423 50.0418 21.7018C49.9545 21.7654 49.8571 21.8141 49.7538 21.8458C49.6527 21.8773 49.5474 21.8935 49.4414 21.8938C49.3433 21.8947 49.2459 21.8785 49.1534 21.8458C49.0701 21.8171 48.9956 21.7675 48.937 21.7018C48.8831 21.6428 48.8446 21.5713 48.825 21.4938C48.8079 21.409 48.8108 21.3213 48.8334 21.2378C48.8586 21.1462 48.8993 21.0596 48.9538 20.9818C49.0163 20.8983 49.0919 20.8254 49.1778 20.7662C49.2651 20.7025 49.3625 20.6538 49.4658 20.6222C49.5669 20.5906 49.6722 20.5744 49.7782 20.5742C49.8736 20.5725 49.9684 20.5888 50.0578 20.6222C50.1408 20.6509 50.215 20.7005 50.2734 20.7662C50.3291 20.8269 50.3677 20.9013 50.3854 20.9818C50.4095 21.0628 50.4095 21.1491 50.3854 21.2302M50.137 21.2302C50.1513 21.17 50.1539 21.1077 50.1446 21.0465C50.1341 20.9905 50.1095 20.938 50.073 20.8942C50.0342 20.8482 49.9848 20.8123 49.929 20.7898C49.8679 20.7662 49.8025 20.7553 49.737 20.7578C49.6639 20.7567 49.5911 20.7675 49.5214 20.7898C49.4493 20.8132 49.3816 20.8485 49.321 20.8942C49.2607 20.9344 49.2089 20.9862 49.1687 21.0465C49.1284 21.1018 49.0987 21.1641 49.081 21.2302C49.0664 21.2905 49.0635 21.3531 49.0727 21.4145C49.0866 21.4694 49.1109 21.5211 49.1443 21.5669C49.1831 21.6129 49.2325 21.6487 49.2883 21.6713C49.3494 21.6948 49.4148 21.7057 49.4803 21.7033C49.5531 21.7004 49.6254 21.6897 49.6959 21.6713C49.768 21.6478 49.8357 21.6126 49.8963 21.5669C49.9548 21.5245 50.0062 21.473 50.0486 21.4145C50.0877 21.3582 50.1176 21.2959 50.137 21.2302ZM51.321 21.8542L51.545 20.9818L51.593 21.0542C51.6074 21.079 51.6265 21.1008 51.6494 21.1182L52.3854 21.9022L52.729 20.5978H52.5164L52.2924 21.4702C52.2681 21.4382 52.2521 21.4138 52.2285 21.3818C52.2048 21.3498 52.1881 21.3338 52.1721 21.3094L51.4521 20.5414L51.1085 21.8534H51.3241L51.321 21.8542ZM54.153 21.8542L54.201 21.6705H53.625L53.7286 21.2622H54.3046L54.3526 21.0862H53.7766L53.8566 20.7662H54.4326L54.4806 20.5902H53.6723L53.3446 21.8465H54.1523L54.153 21.8542ZM55.5854 21.8542L55.7378 21.2782L56.4174 20.5978H56.1774L55.7538 21.0222L55.7058 21.0702C55.6898 21.0862 55.6738 21.1098 55.6578 21.1265C55.6535 21.1075 55.6482 21.0886 55.6418 21.0702C55.6344 21.0579 55.629 21.0445 55.6258 21.0305L55.4338 20.6062H55.1831L55.4947 21.2865L55.3423 21.8625H55.5823L55.5854 21.8542Z" fill="#6D6E71"/>
</svg>
