<svg width="68" height="32" viewBox="0 0 68 32" fill="none" xmlns="http://www.w3.org/2000/svg">
<path fill-rule="evenodd" clip-rule="evenodd" d="M33.0071 14.7649C32.2331 14.7649 31.9161 14.1209 31.9161 13.4029C31.9161 12.6849 32.2331 12.0319 33.0071 12.0319C33.7811 12.0319 34.0981 12.6759 34.0981 13.4029C34.0981 14.1299 33.7811 14.7649 33.0071 14.7649ZM33.0071 15.9399C33.4984 15.8877 33.964 15.6942 34.3475 15.3828C34.731 15.0715 35.0161 14.6556 35.1681 14.1856C35.3202 13.7155 35.3327 13.2115 35.2041 12.7345C35.0756 12.2575 34.8115 11.828 34.4439 11.4979C34.0763 11.1679 33.6209 10.9516 33.1328 10.8751C32.6448 10.7986 32.145 10.8652 31.694 11.0669C31.2431 11.2686 30.8602 11.5966 30.5919 12.0114C30.3236 12.4262 30.1812 12.9099 30.1821 13.4039C30.1812 13.7623 30.256 14.1169 30.4016 14.4443C30.5472 14.7718 30.7603 15.0648 31.027 15.3042C31.2937 15.5436 31.608 15.724 31.9492 15.8336C32.2904 15.9431 32.6509 15.9794 33.0071 15.9399Z" fill="#ED3338"/>
<path fill-rule="evenodd" clip-rule="evenodd" d="M35.6792 12.1459H36.6392V14.1269C36.6392 15.2829 37.0032 15.9449 38.5042 15.9449C38.8572 15.9369 39.2093 15.9058 39.5582 15.8519L39.5032 14.7609C39.3342 14.7963 39.1627 14.818 38.9902 14.8259C38.4592 14.8259 38.3192 14.5259 38.3192 13.9399V12.1499H39.4942V10.9749H38.3192V9.29492L36.6692 9.88393V10.9749H35.6802L35.6792 12.1459Z" fill="#ED3338"/>
<path fill-rule="evenodd" clip-rule="evenodd" d="M45.366 15.8301H47.045V13.4241H47.064L48.407 15.8301H50.44L48.613 13.2011L50.3 10.9721H48.463L47.063 13.0141H47.044V9.2981L45.365 9.8791L45.366 15.8301Z" fill="#ED3338"/>
<path fill-rule="evenodd" clip-rule="evenodd" d="M25.7129 15.8301H27.3919V13.4241H27.4099L28.7529 15.8301H30.7859L28.9589 13.2011L30.6459 10.9721H28.8089L27.4089 13.0141H27.3909V9.2981L25.7119 9.8511L25.7129 15.8301Z" fill="#ED3338"/>
<path fill-rule="evenodd" clip-rule="evenodd" d="M41.344 14.295C41.344 13.824 41.797 13.644 42.373 13.644C42.628 13.644 42.873 13.663 43.09 13.672C43.105 13.9649 43.003 14.2518 42.8065 14.4695C42.6099 14.6872 42.335 14.818 42.042 14.833C41.642 14.833 41.342 14.633 41.342 14.295H41.344ZM44.77 15.853C44.7013 15.4699 44.6699 15.0811 44.676 14.692V12.861C44.676 11.361 43.59 10.822 42.336 10.822C41.6651 10.8075 40.9979 10.9261 40.373 11.171L40.401 12.322C40.8835 12.0678 41.4229 11.9411 41.968 11.954C42.582 11.954 43.082 12.133 43.091 12.803C42.8289 12.7599 42.5637 12.7379 42.298 12.737C41.392 12.737 39.759 12.917 39.759 14.417C39.759 15.484 40.628 15.965 41.599 15.965C41.9157 15.9784 42.2297 15.9023 42.5051 15.7455C42.7805 15.5886 43.0061 15.3572 43.156 15.078H43.175C43.175 15.333 43.202 15.588 43.213 15.852L44.77 15.853Z" fill="#ED3338"/>
<path fill-rule="evenodd" clip-rule="evenodd" d="M7.80005 15.046C7.80005 11.155 11.468 8 15.993 8C20.518 8 24.1861 11.154 24.1861 15.046C24.1861 18.938 20.518 22.093 15.993 22.093C11.468 22.093 7.80005 18.938 7.80005 15.046Z" fill="#1F4578"/>
<path fill-rule="evenodd" clip-rule="evenodd" d="M14.998 10.2621L16.898 9.63306L16.907 19.9231L14.988 20.5661L14.998 10.2621Z" fill="#ED3338"/>
<path fill-rule="evenodd" clip-rule="evenodd" d="M16.1282 16.68C15.3012 17.68 14.5012 18.695 13.0042 18.695C10.8882 18.695 9.88623 16.65 9.88623 14.94C9.88623 13.297 10.6702 11.353 12.7302 11.353C13.1643 11.3784 13.5889 11.4912 13.9784 11.6845C14.3679 11.8778 14.7144 12.1477 14.9972 12.478V13.873C14.3794 13.5262 13.6898 13.327 12.9822 13.291C11.6752 13.269 10.5232 13.835 10.5442 15.125C10.5907 15.5533 10.8003 15.9472 11.1295 16.225C11.4587 16.5028 11.8823 16.6432 12.3122 16.617C13.6532 16.617 14.4652 15.392 15.1442 14.462C15.3332 14.219 15.8682 13.505 15.9512 13.391C16.2571 12.8167 16.7046 12.33 17.2513 11.9772C17.7981 11.6244 18.4259 11.4171 19.0752 11.375C19.8433 11.4113 20.5727 11.7229 21.1298 12.2529C21.6869 12.7828 22.0346 13.4957 22.1092 14.261H21.3092C21.1308 14.0204 20.8978 13.8255 20.6294 13.6926C20.361 13.5596 20.0648 13.4922 19.7652 13.496C18.3792 13.496 17.5512 14.771 16.8592 15.709C16.8592 15.709 16.3202 16.444 16.1252 16.679L16.1282 16.68ZM22.1542 15.756C21.9752 17.228 21.1542 18.714 19.3472 18.718C18.8379 18.6795 18.3465 18.5126 17.9191 18.2328C17.4918 17.953 17.1422 17.5695 16.9032 17.118V16.094C17.5655 16.5067 18.3138 16.7616 19.0902 16.839C19.5311 16.8819 19.9753 16.8034 20.3748 16.6122C20.7744 16.421 21.1141 16.1242 21.3572 15.754L22.1542 15.756Z" fill="white"/>
<path d="M25.76 20.7999V17.9999H26V19.3199L27.26 17.9999H27.58L26.26 19.3799L27.66 20.7999H27.34L26 19.4399V20.7999H25.76ZM29.224 20.5479C29.1406 20.6411 29.0381 20.7154 28.9236 20.7658C28.8091 20.8162 28.6851 20.8414 28.56 20.8399C28.4342 20.842 28.3095 20.817 28.1942 20.7666C28.079 20.7162 27.9759 20.6417 27.892 20.5479C27.7056 20.3444 27.6065 20.0758 27.616 19.7999C27.6054 19.5246 27.7031 19.2561 27.888 19.0519C27.9723 18.9577 28.0761 18.8828 28.1921 18.8324C28.308 18.782 28.4336 18.7573 28.56 18.7599C28.6858 18.7578 28.8105 18.7828 28.9258 18.8332C29.041 18.8836 29.1441 18.9582 29.228 19.0519C29.413 19.2561 29.5106 19.5246 29.5 19.7999C29.5095 20.0758 29.4104 20.3444 29.224 20.5479ZM29.052 20.3759C29.1929 20.2179 29.2675 20.0116 29.26 19.7999C29.2697 19.5894 29.1981 19.3832 29.06 19.2239C28.9982 19.1522 28.9213 19.095 28.8349 19.0563C28.7485 19.0176 28.6547 18.9983 28.56 18.9999C28.4653 18.9983 28.3715 19.0176 28.2851 19.0563C28.1987 19.095 28.1218 19.1522 28.06 19.2239C27.922 19.3832 27.8504 19.5894 27.86 19.7999C27.8504 20.0105 27.922 20.2167 28.06 20.3759C28.1218 20.4476 28.1987 20.5049 28.2851 20.5436C28.3715 20.5823 28.4653 20.6015 28.56 20.5999C28.6533 20.6003 28.7456 20.5805 28.8306 20.5419C28.9155 20.5032 28.991 20.4466 29.052 20.3759ZM29.972 20.4599V19.0399H29.652V18.7999H29.972V18.2399H30.212V18.7999H30.712V19.0399H30.212V20.4199C30.2093 20.4389 30.2111 20.4583 30.2172 20.4765C30.2233 20.4947 30.2336 20.5112 30.2471 20.5248C30.2607 20.5384 30.2772 20.5486 30.2954 20.5547C30.3136 20.5608 30.333 20.5626 30.352 20.5599H30.712V20.7999H30.332C30.2353 20.8054 30.1404 20.7723 30.068 20.7079C30.0355 20.6756 30.0102 20.6368 29.9937 20.5941C29.9771 20.5514 29.9697 20.5057 29.972 20.4599ZM32.372 20.7999L32.332 20.5199H32.312C32.2662 20.5816 32.2108 20.6357 32.148 20.6799C32.0029 20.7857 31.8276 20.8418 31.648 20.8399C31.4673 20.8486 31.2903 20.7869 31.154 20.6679C31.0926 20.611 31.0442 20.5415 31.0121 20.4642C30.98 20.3869 30.965 20.3036 30.968 20.2199C30.9645 20.1343 30.9808 20.049 31.0154 19.9707C31.0501 19.8923 31.1023 19.8229 31.168 19.7679C31.3355 19.6453 31.5409 19.5858 31.748 19.5999H32.328V19.5199C32.338 19.4493 32.3315 19.3773 32.3089 19.3097C32.2863 19.242 32.2483 19.1805 32.1978 19.1301C32.1474 19.0797 32.0859 19.0417 32.0183 19.0191C31.9506 18.9965 31.8786 18.9899 31.808 18.9999C31.6746 18.992 31.5421 19.0271 31.43 19.0999C31.3847 19.1316 31.3468 19.1726 31.3189 19.2202C31.2909 19.2679 31.2736 19.321 31.268 19.3759H31.028C31.0489 19.2058 31.1314 19.0492 31.26 18.9359C31.4135 18.8123 31.6072 18.7496 31.804 18.7599C31.9063 18.7536 32.0089 18.7681 32.1055 18.8025C32.202 18.8369 32.2907 18.8904 32.366 18.9599C32.4355 19.0353 32.4891 19.1239 32.5235 19.2205C32.5578 19.3171 32.5723 19.4196 32.566 19.5219V20.7999H32.372ZM32.332 19.9199V19.8199H31.752C31.6098 19.8106 31.4687 19.8501 31.352 19.9319C31.3081 19.9658 31.2727 20.0095 31.2487 20.0595C31.2247 20.1095 31.2128 20.1645 31.214 20.2199C31.2119 20.2716 31.2213 20.3231 31.2413 20.3708C31.2613 20.4185 31.2916 20.4612 31.33 20.4959C31.4217 20.5686 31.5373 20.6043 31.654 20.5959C31.7453 20.6012 31.8368 20.5877 31.9228 20.5564C32.0087 20.5251 32.0874 20.4767 32.154 20.4139C32.2146 20.3474 32.2612 20.2694 32.291 20.1845C32.3209 20.0997 32.3335 20.0097 32.328 19.9199H32.332ZM33.16 20.7999V17.9999H33.4V19.7199L34.372 18.7999H34.7L33.66 19.7799L34.744 20.7999H34.416L33.404 19.8399V20.7999H33.16ZM35.872 20.7999V17.9999H36.332L37.272 20.5599H37.352L38.296 17.9999H38.756V20.7999H38.516V18.2999H38.436L37.516 20.7999H37.116L36.196 18.2999H36.116V20.7999H35.872ZM40.672 20.7999L40.632 20.5199H40.612C40.5662 20.5816 40.5108 20.6357 40.448 20.6799C40.3029 20.7857 40.1276 20.8418 39.948 20.8399C39.7673 20.8486 39.5903 20.7869 39.454 20.6679C39.3926 20.611 39.3442 20.5415 39.3121 20.4642C39.28 20.3869 39.265 20.3036 39.268 20.2199C39.2645 20.1343 39.2808 20.049 39.3154 19.9707C39.3501 19.8923 39.4023 19.8229 39.468 19.7679C39.6355 19.6453 39.8409 19.5858 40.048 19.5999H40.628V19.5199C40.638 19.4493 40.6315 19.3773 40.6089 19.3097C40.5863 19.242 40.5483 19.1805 40.4978 19.1301C40.4474 19.0797 40.3859 19.0417 40.3183 19.0191C40.2506 18.9965 40.1786 18.9899 40.108 18.9999C39.9746 18.992 39.8421 19.0271 39.73 19.0999C39.6847 19.1316 39.6468 19.1726 39.6189 19.2202C39.5909 19.2679 39.5736 19.321 39.568 19.3759H39.328C39.349 19.2038 39.4331 19.0456 39.564 18.9319C39.7175 18.8083 39.9112 18.7456 40.108 18.7559C40.2103 18.7496 40.3129 18.7641 40.4095 18.7985C40.506 18.8329 40.5947 18.8864 40.67 18.9559C40.7395 19.0313 40.7931 19.1199 40.8275 19.2165C40.8618 19.3131 40.8763 19.4156 40.87 19.5179V20.7999H40.672ZM40.632 19.9199V19.8199H40.052C39.9098 19.8106 39.7687 19.8501 39.652 19.9319C39.6081 19.9658 39.5727 20.0095 39.5487 20.0595C39.5247 20.1095 39.5128 20.1645 39.514 20.2199C39.5119 20.2716 39.5213 20.3231 39.5413 20.3708C39.5613 20.4185 39.5916 20.4612 39.63 20.4959C39.7217 20.5686 39.8373 20.6043 39.954 20.5959C40.0453 20.6012 40.1368 20.5877 40.2228 20.5564C40.3087 20.5251 40.3874 20.4767 40.454 20.4139C40.5153 20.3477 40.5626 20.2699 40.5932 20.185C40.6238 20.1001 40.637 20.01 40.632 19.9199ZM41.468 20.7999V17.9999H41.708V19.0599H41.728C41.7669 19.0024 41.8156 18.9523 41.872 18.9119C42.0092 18.8093 42.1768 18.7558 42.348 18.7599C42.4547 18.7567 42.5609 18.7758 42.6598 18.8161C42.7587 18.8564 42.848 18.917 42.922 18.9939C42.998 19.0749 43.0572 19.1701 43.096 19.2742C43.1348 19.3782 43.1525 19.489 43.148 19.5999V20.7999H42.908V19.5999C42.9118 19.5201 42.8994 19.4403 42.8715 19.3654C42.8437 19.2905 42.801 19.2219 42.746 19.1639C42.6914 19.1093 42.626 19.0666 42.5541 19.0384C42.4822 19.0101 42.4052 18.9971 42.328 18.9999C42.2459 18.997 42.1641 19.0107 42.0874 19.0403C42.0107 19.0698 41.9409 19.1146 41.882 19.1719C41.8251 19.2275 41.7803 19.2941 41.7504 19.3678C41.7204 19.4414 41.706 19.5205 41.708 19.5999V20.7999H41.468ZM43.744 20.7999V18.7999H43.984V20.7999H43.744ZM43.724 18.3399V18.0599H44.004V18.3399H43.724ZM44.58 20.7999V18.7999H44.78L44.82 19.0599H44.84C44.8789 19.0024 44.9276 18.9523 44.984 18.9119C45.1212 18.8093 45.2888 18.7558 45.46 18.7599C45.5667 18.7567 45.6729 18.7758 45.7718 18.8161C45.8707 18.8564 45.96 18.917 46.034 18.9939C46.11 19.0749 46.1692 19.1701 46.208 19.2742C46.2468 19.3782 46.2645 19.489 46.26 19.5999V20.7999H46.02V19.5999C46.024 19.5202 46.012 19.4405 45.9845 19.3656C45.957 19.2907 45.9146 19.2221 45.86 19.1639C45.8051 19.1091 45.7395 19.0662 45.6672 19.038C45.5949 19.0097 45.5175 18.9968 45.44 18.9999C45.3579 18.997 45.2761 19.0107 45.1994 19.0403C45.1227 19.0698 45.0529 19.1146 44.994 19.1719C44.9371 19.2275 44.8923 19.2941 44.8624 19.3678C44.8324 19.4414 44.818 19.5205 44.82 19.5999V20.7999H44.58ZM47.128 20.3839C47.1883 20.4538 47.2634 20.5094 47.3478 20.5467C47.4321 20.5841 47.5238 20.6022 47.616 20.5999C47.7083 20.6022 47.7999 20.5841 47.8843 20.5467C47.9687 20.5094 48.0437 20.4538 48.104 20.3839C48.2389 20.2202 48.3074 20.0118 48.296 19.7999C48.3074 19.5881 48.2389 19.3797 48.104 19.2159C48.0437 19.1461 47.9687 19.0905 47.8843 19.0531C47.7999 19.0158 47.7083 18.9976 47.616 18.9999C47.5238 18.9976 47.4321 19.0158 47.3478 19.0531C47.2634 19.0905 47.1883 19.1461 47.128 19.2159C46.9931 19.3797 46.9246 19.5881 46.936 19.7999C46.9246 20.0118 46.9931 20.2202 47.128 20.3839ZM48.336 20.7999L48.296 20.4799H48.276C48.2021 20.5923 48.101 20.6841 47.9821 20.747C47.8633 20.81 47.7305 20.8419 47.596 20.8399C47.4746 20.8422 47.3541 20.8178 47.2432 20.7683C47.1323 20.7189 47.0335 20.6457 46.954 20.5539C46.7753 20.3445 46.6831 20.0749 46.696 19.7999C46.6831 19.5249 46.7753 19.2553 46.954 19.0459C47.0335 18.9541 47.1323 18.8809 47.2432 18.8315C47.3541 18.7821 47.4746 18.7577 47.596 18.7599C47.7305 18.7579 47.8633 18.7899 47.9821 18.8528C48.101 18.9157 48.2021 19.0076 48.276 19.1199H48.296V17.9999H48.536V20.7999H48.336ZM49.136 20.7999V18.7999H49.336L49.356 18.9999H49.376C49.4197 18.9348 49.4795 18.8822 49.5496 18.8471C49.6197 18.8121 49.6977 18.7958 49.776 18.7999H50.136V19.0399H49.796C49.7396 19.0368 49.6831 19.0453 49.6302 19.0649C49.5772 19.0845 49.5288 19.1148 49.488 19.1539C49.4486 19.1981 49.4185 19.2497 49.3992 19.3057C49.38 19.3616 49.3721 19.4209 49.376 19.4799V20.7999H49.136ZM51.652 20.7999L51.612 20.5199H51.592C51.5462 20.5816 51.4908 20.6357 51.428 20.6799C51.2829 20.7857 51.1076 20.8418 50.928 20.8399C50.7473 20.8486 50.5703 20.7869 50.434 20.6679C50.3726 20.611 50.3242 20.5415 50.2921 20.4642C50.26 20.3869 50.245 20.3036 50.248 20.2199C50.2445 20.1343 50.2608 20.049 50.2954 19.9707C50.3301 19.8923 50.3823 19.8229 50.448 19.7679C50.6155 19.6453 50.8209 19.5858 51.028 19.5999H51.608V19.5199C51.618 19.4493 51.6115 19.3773 51.5889 19.3097C51.5663 19.242 51.5283 19.1805 51.4778 19.1301C51.4274 19.0797 51.3659 19.0417 51.2983 19.0191C51.2306 18.9965 51.1586 18.9899 51.088 18.9999C50.9546 18.992 50.8221 19.0271 50.71 19.0999C50.6647 19.1316 50.6268 19.1726 50.5989 19.2202C50.5709 19.2679 50.5536 19.321 50.548 19.3759H50.308C50.329 19.2038 50.4131 19.0456 50.544 18.9319C50.6975 18.8083 50.8912 18.7456 51.088 18.7559C51.1903 18.7496 51.2929 18.7641 51.3895 18.7985C51.486 18.8329 51.5747 18.8864 51.65 18.9559C51.7195 19.0313 51.7731 19.1199 51.8075 19.2165C51.8418 19.3131 51.8563 19.4156 51.85 19.5179V20.7999H51.652ZM51.612 19.9199V19.8199H51.032C50.8898 19.8106 50.7487 19.8501 50.632 19.9319C50.5881 19.9658 50.5527 20.0095 50.5287 20.0595C50.5047 20.1095 50.4928 20.1645 50.494 20.2199C50.4919 20.2716 50.5013 20.3231 50.5213 20.3708C50.5413 20.4185 50.5716 20.4612 50.61 20.4959C50.7017 20.5686 50.8173 20.6043 50.934 20.5959C51.0253 20.6012 51.1168 20.5877 51.2028 20.5564C51.2887 20.5251 51.3674 20.4767 51.434 20.4139C51.4946 20.3474 51.5412 20.2694 51.571 20.1845C51.6009 20.0997 51.6135 20.0097 51.608 19.9199H51.612ZM53.304 20.7999V17.9999H54.444C54.545 17.9965 54.6455 18.014 54.7395 18.0511C54.8334 18.0883 54.9187 18.1444 54.99 18.2159C55.0607 18.2874 55.1161 18.3724 55.1529 18.4659C55.1897 18.5595 55.2071 18.6595 55.204 18.7599C55.2093 18.9371 55.1479 19.1098 55.032 19.2439C54.9834 19.2993 54.9251 19.3454 54.86 19.3799V19.3999C54.93 19.4324 54.9937 19.4771 55.048 19.5319C55.1129 19.5991 55.1633 19.6788 55.1963 19.7662C55.2293 19.8535 55.2442 19.9466 55.24 20.0399C55.2431 20.1404 55.2257 20.2404 55.1889 20.3339C55.1521 20.4274 55.0967 20.5125 55.026 20.5839C54.9547 20.6555 54.8694 20.7116 54.7755 20.7487C54.6815 20.7859 54.581 20.8033 54.48 20.7999H53.304ZM53.544 20.5599H54.484C54.553 20.5624 54.6218 20.5507 54.6861 20.5256C54.7504 20.5005 54.8089 20.4625 54.858 20.4139C54.9066 20.3648 54.9446 20.3063 54.9697 20.242C54.9948 20.1777 55.0065 20.1089 55.004 20.0399C55.0072 19.9701 54.996 19.9004 54.9712 19.8351C54.9465 19.7697 54.9086 19.7101 54.86 19.6599C54.8095 19.612 54.7497 19.5749 54.6844 19.5508C54.6191 19.5268 54.5495 19.5163 54.48 19.5199H53.54L53.544 20.5599ZM53.544 19.2799H54.444C54.513 19.2824 54.5818 19.2707 54.6461 19.2456C54.7104 19.2205 54.7689 19.1825 54.818 19.1339C54.8659 19.0845 54.9031 19.0259 54.9275 18.9616C54.952 18.8973 54.963 18.8286 54.96 18.7599C54.9625 18.6909 54.9508 18.6221 54.9257 18.5578C54.9006 18.4935 54.8626 18.435 54.814 18.3859C54.7649 18.3374 54.7064 18.2994 54.6421 18.2742C54.5778 18.2491 54.509 18.2375 54.44 18.2399H53.54L53.544 19.2799ZM57.044 20.7999L57.004 20.5199H56.984C56.9382 20.5816 56.8828 20.6357 56.82 20.6799C56.6749 20.7857 56.4996 20.8418 56.32 20.8399C56.1393 20.8486 55.9623 20.7869 55.826 20.6679C55.7646 20.611 55.7162 20.5415 55.6841 20.4642C55.652 20.3869 55.637 20.3036 55.64 20.2199C55.6365 20.1343 55.6528 20.049 55.6874 19.9707C55.7221 19.8923 55.7743 19.8229 55.84 19.7679C56.0075 19.6453 56.2129 19.5858 56.42 19.5999H57V19.5199C57.01 19.4493 57.0035 19.3773 56.9809 19.3097C56.9583 19.242 56.9203 19.1805 56.8698 19.1301C56.8194 19.0797 56.7579 19.0417 56.6903 19.0191C56.6226 18.9965 56.5506 18.9899 56.48 18.9999C56.3466 18.992 56.2141 19.0271 56.102 19.0999C56.0567 19.1316 56.0188 19.1726 55.9909 19.2202C55.9629 19.2679 55.9456 19.321 55.94 19.3759H55.7C55.721 19.2038 55.8051 19.0456 55.936 18.9319C56.0895 18.8083 56.2832 18.7456 56.48 18.7559C56.5823 18.7496 56.6849 18.7641 56.7815 18.7985C56.878 18.8329 56.9667 18.8864 57.042 18.9559C57.1115 19.0313 57.1651 19.1199 57.1995 19.2165C57.2338 19.3131 57.2483 19.4156 57.242 19.5179V20.7999H57.044ZM57.004 19.9199V19.8199H56.424C56.2818 19.8106 56.1407 19.8501 56.024 19.9319C55.9801 19.9658 55.9447 20.0095 55.9207 20.0595C55.8967 20.1095 55.8848 20.1645 55.886 20.2199C55.8839 20.2716 55.8933 20.3231 55.9133 20.3708C55.9333 20.4185 55.9636 20.4612 56.002 20.4959C56.0937 20.5686 56.2093 20.6043 56.326 20.5959C56.4173 20.6012 56.5088 20.5877 56.5948 20.5564C56.6807 20.5251 56.7594 20.4767 56.826 20.4139C56.8858 20.3471 56.9317 20.2689 56.9609 20.1841C56.9901 20.0993 57.002 20.0094 56.996 19.9199H57.004ZM57.82 20.7999V18.7999H58.02L58.06 19.0599H58.08C58.1189 19.0024 58.1676 18.9523 58.224 18.9119C58.3612 18.8093 58.5288 18.7558 58.7 18.7599C58.8067 18.7567 58.9129 18.7758 59.0118 18.8161C59.1107 18.8564 59.2 18.917 59.274 18.9939C59.35 19.0749 59.4092 19.1701 59.448 19.2742C59.4868 19.3782 59.5045 19.489 59.5 19.5999V20.7999H59.26V19.5999C59.2638 19.5201 59.2514 19.4403 59.2235 19.3654C59.1957 19.2905 59.153 19.2219 59.098 19.1639C59.0424 19.1083 58.9758 19.065 58.9024 19.0367C58.829 19.0085 58.7505 18.9959 58.672 18.9999C58.5899 18.997 58.5081 19.0107 58.4314 19.0403C58.3547 19.0698 58.2849 19.1146 58.226 19.1719C58.1691 19.2275 58.1243 19.2941 58.0944 19.3678C58.0644 19.4414 58.05 19.5205 58.052 19.5999V20.7999H57.82ZM60.096 20.7999V17.9999H60.336V19.7199L61.308 18.7999H61.636L60.596 19.7799L61.676 20.7999H61.34L60.328 19.8399V20.7999H60.096Z" fill="#1F4578"/>
</svg>
