<svg width="68" height="32" viewBox="0 0 68 32" fill="none" xmlns="http://www.w3.org/2000/svg">
<path d="M16.9973 18.8901H18.8565L20.3141 13.4109H18.4718L16.9973 18.8901Z" fill="#004A7F"/>
<path d="M26.5305 18.8901H28.3897L29.8473 13.4109H27.9881L26.5305 18.8901Z" fill="#004A7F"/>
<path d="M36.0798 18.8901H37.9221L39.3627 13.4109H37.5035L36.0798 18.8901Z" fill="#004A7F"/>
<path d="M24.7987 15.2861H26.6579C26.9128 14.0545 26.1295 13.428 24.3064 13.428C22.1923 13.428 20.7694 14.4752 20.2786 16.259C19.8586 17.9127 20.7156 18.9064 22.7015 18.9064C24.7066 18.9064 25.8907 18.2814 26.3859 16.8655H24.5268C24.4209 17.1505 24.2286 17.3945 23.9772 17.5628C23.7258 17.731 23.4281 17.815 23.1267 17.8027C22.2328 17.8027 21.8688 17.2512 22.1422 16.204C22.2109 15.7456 22.436 15.3258 22.7788 15.017C23.1216 14.7081 23.5605 14.5297 24.0198 14.5124C24.6027 14.5124 24.8576 14.7695 24.8031 15.2839" fill="#004A7F"/>
<path d="M34.3496 15.2861H36.2088C36.4638 14.0545 35.6613 13.428 33.8382 13.428C31.7418 13.428 30.3012 14.4752 29.8288 16.259C29.3918 17.9127 30.2481 18.9064 32.2348 18.9064C34.2214 18.9064 35.4034 18.2814 35.9192 16.8655H34.0608C33.9566 17.1523 33.7641 17.3981 33.5115 17.5667C33.259 17.7353 32.9595 17.818 32.657 17.8027C31.7639 17.8027 31.3999 17.2512 31.6902 16.204C31.7524 15.7461 31.9731 15.3251 32.3133 15.0156C32.6536 14.706 33.0914 14.5277 33.5494 14.5124C34.133 14.5124 34.4064 14.7695 34.3519 15.2839" fill="#004A7F"/>
<path d="M9.83472 10.3784C12.3136 7.89667 15.3209 7.25228 16.5242 8.9439C17.7276 10.6355 16.6716 14.0544 14.1912 16.5361C11.7123 19.0364 8.70507 19.6793 7.48552 17.9698C6.30134 16.2604 7.35878 12.8593 9.83694 10.3784" fill="#F06321"/>
<path d="M11.4757 9.05386C11.1888 9.27042 10.915 9.50397 10.6555 9.75325C8.48614 11.922 7.57461 14.8995 8.65047 16.3889C9.7617 17.8754 12.4226 17.3262 14.6465 15.138C15.7485 14.1039 16.5543 12.7897 16.9795 11.3334C17.1083 10.5075 16.9472 9.6621 16.5241 8.94312C15.5765 7.62014 13.5353 7.73014 11.4757 9.05386Z" fill="#AE282E"/>
<path d="M14.6098 9.32973V9.38473C14.5589 9.77974 14.3719 10.1441 14.0815 10.4141C13.5893 10.892 12.9334 11.0756 12.6593 10.8006C12.3498 10.5033 12.5326 9.86264 13.0277 9.34757C13.5377 8.85108 14.1935 8.68608 14.4669 8.97966C14.5142 9.02437 14.5517 9.07852 14.5771 9.13867C14.6024 9.19881 14.6151 9.26363 14.6143 9.32899M12.7131 17.7678C12.2301 18.1884 11.6678 18.5061 11.06 18.7021C10.4521 18.898 9.81134 18.968 9.17603 18.9079C9.66827 18.9265 10.0699 18.3743 10.3978 17.6392C10.6834 16.9556 10.909 16.248 11.072 15.5247C11.287 14.8986 11.331 14.2257 11.1995 13.5766C10.9991 13.3187 10.5621 13.3745 10.0507 13.6688C9.79575 13.8174 9.46783 13.7238 9.85102 13.2459C10.5842 12.5171 11.4264 11.9091 12.3469 11.4443C12.9673 11.2785 13.6593 11.5186 13.4227 12.1979C13.2577 12.6944 11.1089 18.3557 12.7131 17.7678Z" fill="white"/>
<path d="M42.1502 18.0248L42.5695 16.4446H43.5901V15.5988H42.8068L43.1716 14.2565H43.5909V13.4286H42.2055L40.7649 18.9115H43.5901V18.0248H42.1502ZM43.5901 16.4446H43.7898C44.7198 16.4446 45.1575 16.6104 44.9747 17.2533C44.8274 17.8226 44.3742 18.0248 43.5901 18.0248V18.9115C44.2548 18.9682 44.9191 18.8068 45.4854 18.4514C45.8657 18.1987 46.139 17.812 46.2518 17.367C46.4515 16.6134 46.1236 16.0983 45.2673 15.989C45.6084 15.9603 45.9326 15.8268 46.1961 15.6064C46.4597 15.3861 46.6499 15.0895 46.7411 14.7567C46.8219 14.5631 46.8334 14.3471 46.7736 14.1458C46.7138 13.9445 46.5863 13.7706 46.4132 13.6538C45.9619 13.4509 45.4649 13.3739 44.974 13.4308H43.5887V14.2588H44.3005C45.1752 14.2588 45.576 14.3688 45.4486 14.9202C45.2842 15.4532 44.8112 15.6011 43.9181 15.6011H43.5894L43.5901 16.4446Z" fill="#004A7F"/>
<path d="M48.6895 15.066V15.7453C48.6115 15.7837 48.5421 15.8377 48.4857 15.9042C48.4293 15.9707 48.387 16.0482 48.3615 16.1318H47.268C47.3905 15.8434 47.5865 15.5928 47.8362 15.4056C48.0859 15.2184 48.3803 15.1012 48.6895 15.066ZM48.6895 18.2828C48.5528 18.3203 48.4118 18.3388 48.2702 18.3378C47.7779 18.3378 47.5598 18.1349 47.6689 17.767C47.7779 17.3441 48.1058 17.1976 48.6895 17.1419V16.499C47.4316 16.5912 46.7389 16.9219 46.52 17.7484C46.3196 18.502 46.7942 18.9993 47.7779 18.9993C48.0892 19.0028 48.3983 18.9465 48.6887 18.8335L48.6895 18.2828ZM49.7469 17.1426L49.7285 17.1976C49.6721 17.4581 49.5451 17.6975 49.3614 17.8892C49.1778 18.0808 48.9448 18.2171 48.6887 18.2828V18.8335C48.9575 18.7267 49.2045 18.5718 49.4175 18.3749L49.3261 18.9078H50.4204C50.4749 18.6499 50.5295 18.3556 50.6024 18.0613L51.0217 16.5176C51.0576 16.3922 51.076 16.2624 51.0762 16.1318V15.9483C51.0401 15.3224 50.5118 14.9917 49.5288 14.9917C49.2475 14.9952 48.967 15.0201 48.6895 15.066V15.7453C48.8822 15.6503 49.0957 15.6063 49.3099 15.6175C49.8736 15.6175 50.0932 15.8739 49.9282 16.4262L49.9112 16.4812H49.3276C49.1065 16.4812 48.8906 16.4997 48.6902 16.4997V17.1426H49.7469Z" fill="#004A7F"/>
<path d="M51.4087 18.9079H52.5207L53.0475 16.9398C53.1347 16.6044 53.3274 16.3065 53.5968 16.091C53.8661 15.8755 54.1975 15.754 54.5412 15.7447C55.197 15.7447 55.4351 16.1312 55.2162 16.9034L54.6871 18.9102H55.7991L56.4188 16.5756C56.6738 15.5834 56.1823 14.994 55.0924 14.994C54.7601 14.9881 54.4305 15.0539 54.1255 15.1869C53.8204 15.32 53.5471 15.5173 53.3239 15.7655L53.4514 15.0854H52.3401C52.2311 15.6919 52.1581 16.0606 52.1191 16.207L51.4087 18.9079Z" fill="#004A7F"/>
<path d="M56.7834 18.9116H57.8777L58.4245 16.8529L59.8983 18.9116H61.4104L59.7332 16.7235L61.9933 15.0884H60.5932L58.4989 16.6076L59.3368 13.4272H58.2432L56.7834 18.9116Z" fill="#004A7F"/>
</svg>
