<svg width="68" height="32" viewBox="0 0 68 32" fill="none" xmlns="http://www.w3.org/2000/svg">
<g clip-path="url(#clip0_224_5790)">
<path d="M40.8655 16.7957C40.8655 17.0978 40.9559 17.3931 41.1254 17.6443C41.2949 17.8956 41.5357 18.0913 41.8175 18.207C42.0994 18.3226 42.4095 18.3528 42.7087 18.2939C43.0078 18.235 43.2826 18.0895 43.4983 17.8758C43.714 17.6622 43.8609 17.39 43.9204 17.0937C43.9799 16.7974 43.9494 16.4902 43.8327 16.2111C43.7159 15.9319 43.5183 15.6934 43.2646 15.5255C43.011 15.3577 42.7128 15.2681 42.4078 15.2681C41.9987 15.2681 41.6065 15.429 41.3172 15.7155C41.028 16.002 40.8655 16.3905 40.8655 16.7957Z" fill="#247BF2"/>
<path d="M25.3751 9.57399L40.7658 5.35599C40.8931 5.30228 41.0315 5.27911 41.1696 5.28836C41.3077 5.29762 41.4417 5.33904 41.5606 5.40925C41.6795 5.47946 41.7799 5.57649 41.8538 5.69243C41.9277 5.80837 41.9729 5.93996 41.9858 6.07647L43.2749 10.996C43.3298 11.1229 43.3546 11.2607 43.3473 11.3986C43.34 11.5366 43.3008 11.671 43.2327 11.7916C43.1647 11.9122 43.0696 12.0157 42.9547 12.0941C42.8399 12.1725 42.7085 12.2237 42.5705 12.2439L27.179 16.4634C27.0517 16.5171 26.9133 16.5403 26.7752 16.531C26.6371 16.5218 26.5031 16.4803 26.3843 16.4101C26.2654 16.3399 26.1649 16.2429 26.091 16.127C26.0171 16.011 25.9719 15.8794 25.959 15.7429L24.67 10.8234C24.6147 10.6963 24.5897 10.5584 24.5969 10.4202C24.6041 10.282 24.6433 10.1473 24.7115 10.0265C24.7797 9.90571 24.875 9.80208 24.99 9.72361C25.1051 9.64515 25.2369 9.59395 25.3751 9.57399Z" fill="#FFD627"/>
<path d="M43.95 13.6783C43.2374 13.3415 42.4302 13.2554 41.6615 13.434C40.8928 13.6126 40.2085 14.0454 39.7214 14.6609C39.231 15.2792 38.9644 16.0426 38.9644 16.8288C38.9644 17.6151 39.231 18.3785 39.7214 18.9967C40.2085 19.6123 40.8928 20.045 41.6615 20.2237C42.4302 20.4023 43.2374 20.3161 43.95 19.9794V22.3073C43.9521 22.8335 43.743 23.3389 43.3689 23.7124C42.9948 24.086 42.4862 24.297 41.955 24.2992H25.995C25.4638 24.297 24.9552 24.086 24.5811 23.7124C24.207 23.3389 23.998 22.8335 24 22.3073V10.354C23.998 9.82786 24.207 9.32244 24.5811 8.9489C24.9552 8.57535 25.4638 8.36427 25.995 8.36206H41.955C42.4862 8.36427 42.9948 8.57535 43.3689 8.9489C43.743 9.32244 43.9521 9.82786 43.95 10.354V13.6783Z" fill="#247BF2"/>
</g>
<defs>
<clipPath id="clip0_224_5790">
<rect width="19.95" height="19" fill="white" transform="translate(24 5.30005)"/>
</clipPath>
</defs>
</svg>
