<svg xmlns="http://www.w3.org/2000/svg" width="54" height="54" viewBox="0 0 54 54">
  <g id="CS" transform="translate(-2786 -459)">
    <rect id="矩形_4709" data-name="矩形 4709" width="54" height="54" transform="translate(2786 459)" fill="#fff" opacity="0"/>
    <g id="TLM-service-LINE-icons_Support-Services" transform="translate(2791.625 464.625)">
      <path id="路径_4441" data-name="路径 4441" d="M29.8,33.759H26.269a1.4,1.4,0,0,1-1.4-1.4h0A1.4,1.4,0,0,1,26.269,31H29.8a1.4,1.4,0,0,1,1.4,1.4h0A1.4,1.4,0,0,1,29.8,33.759Z" transform="translate(-5.979 -7.2)" fill="none" stroke="#00a6ff" stroke-linecap="round" stroke-linejoin="round" stroke-width="1.5"/>
      <path id="路径_4442" data-name="路径 4442" d="M22.127,30.819H18.638a4.189,4.189,0,0,1-4.188-4.19v-3.5" transform="translate(-3.936 -5.659)" fill="none" stroke="#00a6ff" stroke-linecap="round" stroke-linejoin="round" stroke-width="1.5"/>
      <path id="路径_4443" data-name="路径 4443" d="M13.589,26.306A3.216,3.216,0,0,1,10.1,23.161v-2.1a3.216,3.216,0,0,1,3.489-3.145" transform="translate(-3.082 -4.637)" fill="none" stroke="#00a6ff" stroke-linecap="round" stroke-linejoin="round" stroke-width="1.5"/>
      <path id="路径_4444" data-name="路径 4444" d="M43.12,26.306a3.216,3.216,0,0,0,3.489-3.145v-2.1a3.216,3.216,0,0,0-3.489-3.145" transform="translate(-9.559 -4.637)" fill="none" stroke="#00a6ff" stroke-linecap="round" stroke-linejoin="round" stroke-width="1.5"/>
      <path id="路径_4445" data-name="路径 4445" d="M44.706,52.387v-.1a9.78,9.78,0,0,0-5.627-8.847L31.4,40.5c-2.058,1.407-4.365,2.815-7.645,2.815a12.536,12.536,0,0,1-8.384-2.8L7,43.452A9.78,9.78,0,0,0,1.37,52.3v.1" transform="translate(-1.37 -9.059)" fill="none" stroke="#00a6ff" stroke-linecap="square" stroke-linejoin="round" stroke-width="1.5"/>
      <path id="路径_4446" data-name="路径 4446" d="M14.44,18.879V12.589A10.992,10.992,0,0,1,25.613,1.41c6.359,0,11.873,4.89,11.873,11.179V23.045" transform="translate(-3.933 -1.408)" fill="none" stroke="#00a6ff" stroke-linecap="round" stroke-linejoin="round" stroke-width="1.5"/>
      <path id="路径_4447" data-name="路径 4447" d="M35.38,19.66V24.9c0,4.826-2.8,10.134-8.73,10.134h0c-5.941,0-8.73-5.324-8.73-10.134V19.66" transform="translate(-4.616 -4.98)" fill="none" stroke="#00a6ff" stroke-linecap="square" stroke-linejoin="round" stroke-width="1.5"/>
      <path id="路径_4448" data-name="路径 4448" d="M17.92,15.16c9.22,0,12.572-2.1,13.971-4.19,0,0,0,4.19,3.489,4.19" transform="translate(-4.616 -3.28)" fill="none" stroke="#00a6ff" stroke-linecap="square" stroke-linejoin="round" stroke-width="1.5"/>
    </g>
  </g>
</svg>
