<svg xmlns="http://www.w3.org/2000/svg" width="54" height="54" viewBox="0 0 54 54">
  <g id="组_12754" data-name="组 12754" transform="translate(-2720 -459)">
    <rect id="矩形_4708" data-name="矩形 4708" width="54" height="54" transform="translate(2720 459)" fill="#fff" opacity="0"/>
    <g id="mail-send" transform="translate(2725.693 475.43)">
      <path id="路径_4452" data-name="路径 4452" d="M83.862,106.613l.047-.011.04-.01.045-.016.039-.015.041-.019.04-.019.038-.022.039-.024.039-.029.033-.025c.02-.016.039-.034.057-.051l.01-.009.01-.011c.018-.018.035-.037.051-.056s.018-.023.026-.035.019-.024.027-.037.017-.028.025-.041.014-.023.021-.035.014-.029.021-.043.012-.025.018-.038.01-.028.016-.043.01-.028.015-.042.008-.029.011-.044.008-.029.01-.043.005-.035.008-.052,0-.024.005-.037a.912.912,0,0,0,0-.091V86.174a.914.914,0,0,0-.914-.914H54.861l-.052,0-.041,0-.047.007-.043.009-.043.011-.042.013-.043.016-.039.016-.043.021-.036.019-.042.025-.033.023-.038.029-.034.028-.032.03-.035.036-.017.018-.009.011c-.011.013-.022.027-.033.041l-.023.031c-.01.014-.018.028-.027.042s-.015.023-.021.035-.014.028-.021.042-.013.026-.019.039-.011.028-.016.042-.011.027-.015.041-.008.028-.012.043-.008.029-.011.044-.005.028-.008.042-.005.032-.007.048,0,.027,0,.04,0,.034,0,.051,0,.01,0,.015v5.638a.914.914,0,1,0,1.828,0V88.2l8.128,7.2a.921.921,0,0,0-.121.1L55.8,103.509V97.5a.914.914,0,0,0-1.828,0v1.117H49.247a.914.914,0,1,0,0,1.828h4.724v5.27a.914.914,0,0,0,.914.914h28.8c.03,0,.06,0,.09,0l.041-.006Zm-1.093-3.1L74.762,95.5l-.016-.014,6.02-5.107a.914.914,0,0,0-1.183-1.394L69.3,97.713l-12-10.624H82.769ZM65.1,96.795a.911.911,0,0,0,.159-.215l3.419,3.027a.914.914,0,0,0,1.2.013l3.485-2.957a.918.918,0,0,0,.108.132l8.007,8.007H57.092Z" transform="translate(-42.441 -85.26)" fill="#00a6ff"/>
      <path id="路径_4453" data-name="路径 4453" d="M.914,157.5H16.355a.914.914,0,0,0,0-1.829H.914a.914.914,0,0,0,0,1.829Z" transform="translate(0 -147.092)" fill="#00a6ff"/>
      <path id="路径_4454" data-name="路径 4454" d="M14.039,116.173h6.933a.914.914,0,1,0,0-1.828H14.039a.914.914,0,1,0,0,1.828Z" transform="translate(-11.525 -110.8)" fill="#00a6ff"/>
      <path id="路径_4455" data-name="路径 4455" d="M7.619,226.51H.914a.914.914,0,1,0,0,1.828h6.7a.914.914,0,1,0,0-1.828Z" transform="translate(0 -209.292)" fill="#00a6ff"/>
    </g>
  </g>
</svg>
