<svg id="组_12758" data-name="组 12758" xmlns="http://www.w3.org/2000/svg" width="54" height="54" viewBox="0 0 54 54">
  <rect id="矩形_4707" data-name="矩形 4707" width="54" height="54" fill="#fff" opacity="0"/>
  <g id="hand-and-phone-svgrepo-com" transform="translate(9.84 4.796)">
    <path id="路径_4449" data-name="路径 4449" d="M81.138,26.323,74.02,19.206V2.859A2.862,2.862,0,0,0,71.161,0H57.008a2.862,2.862,0,0,0-2.859,2.859v11.88a3.143,3.143,0,0,0-2.013,5.36l.661.661a3.157,3.157,0,0,0-.758.557,3.143,3.143,0,0,0,0,4.447l.728.729c.046.046.1.089.144.132a3.149,3.149,0,0,0,.212,4.212l.727.727a3.067,3.067,0,0,0,.3.263V34.44A2.862,2.862,0,0,0,57.008,37.3h2.7l8.838,4.608a11.314,11.314,0,0,0,5.209,1.276h1.511a.627.627,0,1,0,0-1.254H73.751a10.053,10.053,0,0,1-4.629-1.134l-6.705-3.5H70.3c.072.076.145.151.221.224l1.445,1.445a.627.627,0,0,0,.887-.887l-1.45-1.45-.011-.01a4.937,4.937,0,0,1-1.052-5.713,3.45,3.45,0,0,0-.7-3.916l-3.208-3.208a2.159,2.159,0,0,1,3.053-3.053l7.145,7.145a.627.627,0,1,0,.887-.887l-3.5-3.5V20.979l6.231,6.231a9.948,9.948,0,0,1,2.933,7.081.627.627,0,1,0,1.254,0A11.193,11.193,0,0,0,81.138,26.323ZM57.008,1.254H71.161a1.607,1.607,0,0,1,1.6,1.6V4.727H55.4V2.859A1.607,1.607,0,0,1,57.008,1.254ZM55.4,20.289,69.712,5.981h2.168L55.4,22.458Zm0-1.773V5.981H67.938Zm-2.38-1.977A1.876,1.876,0,0,1,54.149,16v4.342l-1.126-1.127a1.888,1.888,0,0,1,0-2.672Zm-.652,7a1.889,1.889,0,0,1,1.673-1.877c.034,0,.069-.008.1-.01V25.7c-.083.034-.164.072-.243.113a1.927,1.927,0,0,1-.254-.213l-.727-.728A1.877,1.877,0,0,1,52.371,23.54Zm1.638,6.409a1.893,1.893,0,0,1,0-2.673,1.828,1.828,0,0,1,.14-.126v2.939Zm3,6.1A1.607,1.607,0,0,1,55.4,34.44V31.4H68.829a6.18,6.18,0,0,0,.556,4.646ZM68.76,27.879a2.2,2.2,0,0,1,.543,2.266H58.731L64.974,23.9a3.425,3.425,0,0,0,.578.769Zm-3.208-8.034a3.39,3.39,0,0,0-1,2.413c0,.094,0,.187.012.28l-7.607,7.607H55.4V24.231L72.766,6.867v7.469l-4.521,4.522A3.406,3.406,0,0,0,65.552,19.844Zm4.827,0a3.4,3.4,0,0,0-.769-.577l3.157-3.157v6.122Z" transform="translate(-51.117)" fill="#00a6ff"/>
    <path id="路径_4450" data-name="路径 4450" d="M159.676,24.254h3.858a.627.627,0,0,0,0-1.254h-3.858a.627.627,0,0,0,0,1.254Z" transform="translate(-148.638 -20.781)" fill="#00a6ff"/>
    <path id="路径_4451" data-name="路径 4451" d="M170.793,338a1.575,1.575,0,1,0,1.575,1.575A1.577,1.577,0,0,0,170.793,338Zm0,1.9a.321.321,0,1,1,.321-.321A.322.322,0,0,1,170.793,339.9Z" transform="translate(-157.826 -305.4)" fill="#00a6ff"/>
  </g>
</svg>
