<svg xmlns="http://www.w3.org/2000/svg" width="40" height="40" viewBox="0 0 40 40"><defs><style>.a{fill:none;}.b{fill:#1c8eff;}</style></defs><g transform="translate(0 -0.5)"><rect class="a" width="40" height="40" transform="translate(0 0.5)"/><path class="b" d="M4.375,18.375A9.625,9.625,0,1,1,14,28,9.636,9.636,0,0,1,4.375,18.375ZM14,21.541l2.563,1.346a.629.629,0,0,0,.776-.155.616.616,0,0,0,.139-.5l-.493-2.858,2.075-2.019a.63.63,0,0,0,.156-.651.615.615,0,0,0-.5-.424l-2.867-.416-1.28-2.6a.632.632,0,0,0-1.13,0l-1.28,2.6-2.867.416a.629.629,0,0,0-.344,1.075l2.07,2.019-.488,2.858a.613.613,0,0,0,.137.506.636.636,0,0,0,.482.225.606.606,0,0,0,.292-.072L14,21.541v0ZM.159,1.377A.875.875,0,0,1,.877,0H6.955a1.939,1.939,0,0,1,1.5.85l3.781,6.3a11.311,11.311,0,0,0-5.991,2.92Zm15.6,5.774L19.544.85a1.75,1.75,0,0,1,1.5-.85h6.079a.875.875,0,0,1,.717,1.377l-6.086,8.692A11.32,11.32,0,0,0,15.764,7.151Z" transform="translate(6 6.5)"/></g></svg>