<svg width="20" height="20" viewBox="0 0 20 20" fill="none" xmlns="http://www.w3.org/2000/svg">
<path fill-rule="evenodd" clip-rule="evenodd" d="M10 3.14286C6.2129 3.14286 3.14286 6.2129 3.14286 10C3.14286 13.7871 6.2129 16.8571 10 16.8571C13.7871 16.8571 16.8571 13.7871 16.8571 10C16.8571 6.2129 13.7871 3.14286 10 3.14286ZM2 10C2 5.58172 5.58172 2 10 2C14.4183 2 18 5.58172 18 10C18 14.4183 14.4183 18 10 18C5.58172 18 2 14.4183 2 10Z" fill="#F01616"/>
<path d="M7.7445 12.6217H4.62621V11.9462L6.06279 10.4365C6.34022 10.1832 6.52674 9.84567 6.59364 9.47596C6.60457 9.31945 6.56007 9.16408 6.46793 9.0371C6.42254 8.98589 6.36604 8.94572 6.30276 8.91968C6.23947 8.89363 6.17108 8.88239 6.10279 8.88681C6.02723 8.88604 5.95266 8.90401 5.88575 8.93911C5.81884 8.97421 5.76167 9.02535 5.71936 9.08796C5.6172 9.23482 5.56546 9.41088 5.57193 9.58967H4.53421C4.53238 9.32252 4.60351 9.05994 4.73993 8.83024C4.87606 8.59911 5.07395 8.41052 5.31136 8.28567C5.56169 8.15308 5.84124 8.0853 6.1245 8.08853C6.52439 8.06234 6.92035 8.18101 7.23993 8.42281C7.3732 8.54319 7.4776 8.69208 7.54537 8.85839C7.61314 9.02469 7.64253 9.20415 7.63136 9.38338C7.63135 9.55948 7.598 9.73398 7.53307 9.89767C7.45547 10.0855 7.35282 10.2619 7.22793 10.4222C7.02226 10.6814 6.80009 10.9271 6.56279 11.1577L5.98564 11.8217H7.7445V12.6217ZM10.5588 12.6217H9.52164V9.31938L8.50279 9.6171V8.83138L10.4639 8.1531H10.5594L10.5588 12.6217ZM13.7874 10.0862H14.8342V10.9731H13.7879V12.1731H12.8211V10.9731H11.7714V10.0862H12.8211V8.91996H13.7879L13.7874 10.0862Z" fill="#222222"/>
</svg>
