<svg xmlns="http://www.w3.org/2000/svg" width="80" height="80" viewBox="0 0 80 80">
  <g id="Group_13288" data-name="Group 13288" transform="translate(-164 -356)">
    <rect id="Rectangle_2482" data-name="Rectangle 2482" width="80" height="80" transform="translate(164 356)" fill="#bcbec3" opacity="0"/>
    <g id="Group_7760" data-name="Group 7760" transform="translate(167.333 361)">
      <path id="文件" d="M84.008,81.026H37.643A13.758,13.758,0,0,1,23.9,67.289V26.78A13.758,13.758,0,0,1,37.643,13.042H54.768a4.445,4.445,0,0,1,4.154,2.827l.808,2.045-4.709,1.858-.661-1.682H37.641a8.7,8.7,0,0,0-8.693,8.689V67.289a8.7,8.7,0,0,0,8.693,8.689H84.007A8.7,8.7,0,0,0,92.7,67.289V31.444h-1.41V26.4h1.99a4.474,4.474,0,0,1,4.468,4.479V67.3A13.758,13.758,0,0,1,84.007,81.024ZM94.085,31.456H62.669a4.437,4.437,0,0,1-4.149-2.827L53.657,16.319h26.48A13.7,13.7,0,0,1,93.8,28.674l.283,2.781ZM63.067,26.407h24.94a8.779,8.779,0,0,0-7.87-5.048H61.079Z" transform="translate(-23.902 -13.042)" fill="#bcbec3"/>
      <path id="箭头" d="M248.735,92.186V72.838l7.843,8.147a.534.534,0,0,0,.755,0l1.637-1.637a.535.535,0,0,0,0-.755L249.1,68.338c-.01-.012-.02-.023-.031-.035l-.055-.055-1.522-1.582a.614.614,0,0,0-.815,0L245.1,68.3a.433.433,0,0,0-.029.033l-9.875,10.258a.532.532,0,0,0,0,.755l1.636,1.637a.534.534,0,0,0,.755,0l7.769-8.07V92.186a.534.534,0,0,0,.534.534H248.2A.534.534,0,0,0,248.735,92.186Z" transform="translate(-209.628 -39.403)" fill="#bcbec3"/>
    </g>
  </g>
</svg>
