<svg width="80" height="80" viewBox="0 0 80 80" fill="none" xmlns="http://www.w3.org/2000/svg">
<path d="M5.49 9.002H6.309V14H5.49V9.002ZM9.08685 10.283C9.98985 10.283 10.4449 10.773 10.4449 11.767V14H9.64685V11.837C9.64685 11.242 9.37385 10.948 8.82785 10.948C8.63185 10.948 8.45685 11.018 8.30985 11.158C8.14185 11.312 8.04385 11.536 8.01585 11.823V14H7.21785V10.381H8.01585V10.801C8.15585 10.633 8.31685 10.5 8.49185 10.416C8.67385 10.325 8.86985 10.283 9.08685 10.283ZM15.8563 8.904C16.4443 8.904 16.9343 9.058 17.3123 9.366C17.6763 9.66 17.8933 10.066 17.9703 10.57H17.1723C17.0883 10.241 16.9343 10.003 16.7033 9.849C16.4793 9.695 16.1923 9.625 15.8423 9.625C15.3173 9.625 14.9253 9.8 14.6593 10.164C14.4143 10.486 14.2953 10.934 14.2953 11.508C14.2953 12.096 14.4143 12.551 14.6523 12.866C14.9113 13.202 15.3173 13.377 15.8633 13.377C16.2203 13.377 16.5143 13.286 16.7383 13.118C16.9763 12.929 17.1443 12.642 17.2423 12.264H18.0403C17.9283 12.852 17.6693 13.307 17.2563 13.636C16.8713 13.944 16.4093 14.098 15.8703 14.098C15.0373 14.098 14.4143 13.832 14.0083 13.314C13.6513 12.866 13.4763 12.264 13.4763 11.508C13.4763 10.766 13.6583 10.157 14.0293 9.695C14.4493 9.163 15.0583 8.904 15.8563 8.904ZM20.4232 10.283C20.9692 10.283 21.4102 10.458 21.7462 10.822C22.0752 11.179 22.2432 11.634 22.2432 12.194C22.2432 12.747 22.0752 13.202 21.7532 13.552C21.4172 13.916 20.9692 14.098 20.4232 14.098C19.8702 14.098 19.4292 13.916 19.0932 13.552C18.7642 13.202 18.6032 12.747 18.6032 12.194C18.6032 11.634 18.7642 11.179 19.1002 10.822C19.4292 10.458 19.8702 10.283 20.4232 10.283ZM20.4232 10.934C20.0872 10.934 19.8352 11.06 19.6532 11.326C19.4992 11.55 19.4222 11.844 19.4222 12.194C19.4222 12.544 19.4992 12.831 19.6532 13.055C19.8352 13.314 20.0872 13.447 20.4232 13.447C20.7522 13.447 21.0112 13.314 21.1932 13.055C21.3472 12.824 21.4312 12.537 21.4312 12.194C21.4312 11.844 21.3472 11.55 21.1932 11.326C21.0112 11.06 20.7522 10.934 20.4232 10.934ZM24.6205 10.283C25.1665 10.283 25.6075 10.458 25.9435 10.822C26.2725 11.179 26.4405 11.634 26.4405 12.194C26.4405 12.747 26.2725 13.202 25.9505 13.552C25.6145 13.916 25.1665 14.098 24.6205 14.098C24.0675 14.098 23.6265 13.916 23.2905 13.552C22.9615 13.202 22.8005 12.747 22.8005 12.194C22.8005 11.634 22.9615 11.179 23.2975 10.822C23.6265 10.458 24.0675 10.283 24.6205 10.283ZM24.6205 10.934C24.2845 10.934 24.0325 11.06 23.8505 11.326C23.6965 11.55 23.6195 11.844 23.6195 12.194C23.6195 12.544 23.6965 12.831 23.8505 13.055C24.0325 13.314 24.2845 13.447 24.6205 13.447C24.9495 13.447 25.2085 13.314 25.3905 13.055C25.5445 12.824 25.6285 12.537 25.6285 12.194C25.6285 11.844 25.5445 11.55 25.3905 11.326C25.2085 11.06 24.9495 10.934 24.6205 10.934ZM28.9718 10.283C29.5038 10.283 29.9238 10.472 30.2318 10.85C30.5118 11.2 30.6518 11.648 30.6518 12.208C30.6518 12.74 30.5118 13.181 30.2388 13.531C29.9448 13.909 29.5318 14.098 29.0138 14.098C28.5938 14.098 28.2298 13.895 27.9358 13.503V15.386H27.1378V10.381H27.8798V10.766C28.1318 10.444 28.4958 10.283 28.9718 10.283ZM28.8528 10.927C28.5378 10.927 28.2998 11.046 28.1318 11.298C27.9778 11.515 27.9078 11.802 27.9078 12.166V12.222C27.9078 12.6 27.9988 12.908 28.1878 13.139C28.3558 13.349 28.5658 13.454 28.8248 13.454C29.1748 13.454 29.4408 13.335 29.6088 13.111C29.7558 12.901 29.8328 12.6 29.8328 12.208C29.8328 11.816 29.7628 11.515 29.6298 11.305C29.4618 11.053 29.2028 10.927 28.8528 10.927ZM32.8887 10.283C33.4837 10.283 33.9387 10.479 34.2537 10.885C34.5407 11.249 34.6877 11.76 34.6877 12.411H31.9787C32.0067 12.747 32.0977 13.006 32.2517 13.181C32.4057 13.356 32.6297 13.447 32.9167 13.447C33.1617 13.447 33.3577 13.391 33.5117 13.279C33.6307 13.188 33.7357 13.041 33.8337 12.838H34.6317C34.5477 13.174 34.3797 13.461 34.1277 13.685C33.8057 13.958 33.4067 14.098 32.9237 14.098C32.3847 14.098 31.9577 13.93 31.6427 13.601C31.3067 13.258 31.1387 12.789 31.1387 12.187C31.1387 11.648 31.2927 11.2 31.6147 10.836C31.9227 10.465 32.3497 10.283 32.8887 10.283ZM32.9097 10.934C32.6437 10.934 32.4407 11.004 32.2867 11.158C32.1397 11.305 32.0417 11.522 31.9927 11.809H33.8547C33.7847 11.221 33.4697 10.934 32.9097 10.934ZM37.0284 10.283C37.2034 10.283 37.3574 10.311 37.4834 10.374V11.172C37.3014 11.116 37.1334 11.095 36.9654 11.095C36.7554 11.095 36.5664 11.172 36.3984 11.34C36.2024 11.529 36.1114 11.774 36.1114 12.082V14H35.3204V10.381H36.1114V10.899C36.2094 10.717 36.3214 10.577 36.4544 10.479C36.6154 10.346 36.8044 10.283 37.0284 10.283ZM39.5836 10.283C40.1156 10.283 40.5146 10.416 40.7666 10.682C40.9906 10.913 41.1026 11.249 41.1026 11.69V14H40.3606V13.524C40.2206 13.706 40.0456 13.839 39.8426 13.937C39.6116 14.042 39.3386 14.098 39.0236 14.098C38.6456 14.098 38.3516 14 38.1346 13.811C37.9106 13.615 37.7986 13.37 37.7986 13.069C37.7986 12.663 37.9526 12.348 38.2746 12.131C38.5686 11.921 38.9816 11.809 39.5136 11.795L40.3046 11.774V11.634C40.3046 11.158 40.0456 10.927 39.5276 10.927C39.3036 10.927 39.1286 10.962 38.9956 11.046C38.8416 11.137 38.7366 11.277 38.6946 11.466L37.9036 11.403C37.9806 11.004 38.1766 10.71 38.4916 10.528C38.7576 10.36 39.1216 10.283 39.5836 10.283ZM40.3046 12.348L39.5696 12.369C38.9326 12.383 38.6176 12.607 38.6176 13.041C38.6176 13.167 38.6666 13.272 38.7786 13.356C38.8906 13.44 39.0306 13.489 39.2056 13.489C39.5136 13.489 39.7726 13.398 39.9826 13.223C40.1926 13.041 40.3046 12.81 40.3046 12.53V12.348ZM43.0784 9.212V10.381H43.8834V11.039H43.0784V13.083C43.0784 13.167 43.0924 13.23 43.1344 13.279C43.1764 13.321 43.2324 13.342 43.3164 13.342H43.7924V14H43.1834C42.8684 14 42.6374 13.916 42.4904 13.748C42.3504 13.594 42.2804 13.377 42.2804 13.083V11.039H41.6294V10.381H42.2804V9.541L43.0784 9.212ZM45.0195 8.904C45.1735 8.904 45.3065 8.953 45.4115 9.051C45.5095 9.149 45.5655 9.275 45.5655 9.429C45.5655 9.583 45.5095 9.716 45.4045 9.814C45.2995 9.912 45.1735 9.961 45.0195 9.961C44.8655 9.961 44.7395 9.912 44.6345 9.814C44.5295 9.709 44.4805 9.583 44.4805 9.429C44.4805 9.275 44.5295 9.149 44.6345 9.051C44.7395 8.953 44.8655 8.904 45.0195 8.904ZM44.6205 10.381H45.4185V14H44.6205V10.381ZM48.0883 10.283C48.6343 10.283 49.0753 10.458 49.4113 10.822C49.7403 11.179 49.9083 11.634 49.9083 12.194C49.9083 12.747 49.7403 13.202 49.4183 13.552C49.0823 13.916 48.6343 14.098 48.0883 14.098C47.5353 14.098 47.0943 13.916 46.7583 13.552C46.4293 13.202 46.2683 12.747 46.2683 12.194C46.2683 11.634 46.4293 11.179 46.7653 10.822C47.0943 10.458 47.5353 10.283 48.0883 10.283ZM48.0883 10.934C47.7523 10.934 47.5003 11.06 47.3183 11.326C47.1643 11.55 47.0873 11.844 47.0873 12.194C47.0873 12.544 47.1643 12.831 47.3183 13.055C47.5003 13.314 47.7523 13.447 48.0883 13.447C48.4173 13.447 48.6763 13.314 48.8583 13.055C49.0123 12.824 49.0963 12.537 49.0963 12.194C49.0963 11.844 49.0123 11.55 48.8583 11.326C48.6763 11.06 48.4173 10.934 48.0883 10.934ZM52.4745 10.283C53.3775 10.283 53.8325 10.773 53.8325 11.767V14H53.0345V11.837C53.0345 11.242 52.7615 10.948 52.2155 10.948C52.0195 10.948 51.8445 11.018 51.6975 11.158C51.5295 11.312 51.4315 11.536 51.4035 11.823V14H50.6055V10.381H51.4035V10.801C51.5435 10.633 51.7045 10.5 51.8795 10.416C52.0615 10.325 52.2575 10.283 52.4745 10.283ZM56.619 9.002H57.543L58.481 12.803H58.509L59.496 9.002H60.343L61.33 12.803H61.358L62.296 9.002H63.22L61.778 14H60.91L59.937 10.241H59.909L58.929 14H58.054L56.619 9.002ZM64.2149 8.904C64.3689 8.904 64.5019 8.953 64.6069 9.051C64.7049 9.149 64.7609 9.275 64.7609 9.429C64.7609 9.583 64.7049 9.716 64.5999 9.814C64.4949 9.912 64.3689 9.961 64.2149 9.961C64.0609 9.961 63.9349 9.912 63.8299 9.814C63.7249 9.709 63.6759 9.583 63.6759 9.429C63.6759 9.275 63.7249 9.149 63.8299 9.051C63.9349 8.953 64.0609 8.904 64.2149 8.904ZM63.8159 10.381H64.6139V14H63.8159V10.381ZM66.7376 9.212V10.381H67.5426V11.039H66.7376V13.083C66.7376 13.167 66.7516 13.23 66.7936 13.279C66.8356 13.321 66.8916 13.342 66.9756 13.342H67.4516V14H66.8426C66.5276 14 66.2966 13.916 66.1496 13.748C66.0096 13.594 65.9396 13.377 65.9396 13.083V11.039H65.2886V10.381H65.9396V9.541L66.7376 9.212ZM68.1397 8.904H68.9377V10.864C69.0707 10.661 69.2387 10.514 69.4347 10.416C69.6097 10.325 69.8127 10.283 70.0437 10.283C70.4847 10.283 70.8137 10.409 71.0307 10.668C71.2337 10.913 71.3387 11.277 71.3387 11.76V14H70.5407V11.9C70.5407 11.592 70.4777 11.354 70.3587 11.193C70.2187 11.018 70.0157 10.934 69.7427 10.934C69.4907 10.934 69.2947 11.032 69.1547 11.228C69.0077 11.424 68.9377 11.669 68.9377 11.977V14H68.1397V8.904Z" fill="black"/>
<path d="M9.16 70.404C9.748 70.404 10.238 70.558 10.616 70.866C10.98 71.16 11.197 71.566 11.274 72.07H10.476C10.392 71.741 10.238 71.503 10.007 71.349C9.783 71.195 9.496 71.125 9.146 71.125C8.621 71.125 8.229 71.3 7.963 71.664C7.718 71.986 7.599 72.434 7.599 73.008C7.599 73.596 7.718 74.051 7.956 74.366C8.215 74.702 8.621 74.877 9.167 74.877C9.524 74.877 9.818 74.786 10.042 74.618C10.28 74.429 10.448 74.142 10.546 73.764H11.344C11.232 74.352 10.973 74.807 10.56 75.136C10.175 75.444 9.713 75.598 9.174 75.598C8.341 75.598 7.718 75.332 7.312 74.814C6.955 74.366 6.78 73.764 6.78 73.008C6.78 72.266 6.962 71.657 7.333 71.195C7.753 70.663 8.362 70.404 9.16 70.404ZM13.587 71.783C14.182 71.783 14.637 71.979 14.952 72.385C15.239 72.749 15.386 73.26 15.386 73.911H12.677C12.705 74.247 12.796 74.506 12.95 74.681C13.104 74.856 13.328 74.947 13.615 74.947C13.86 74.947 14.056 74.891 14.21 74.779C14.329 74.688 14.434 74.541 14.532 74.338H15.33C15.246 74.674 15.078 74.961 14.826 75.185C14.504 75.458 14.105 75.598 13.622 75.598C13.083 75.598 12.656 75.43 12.341 75.101C12.005 74.758 11.837 74.289 11.837 73.687C11.837 73.148 11.991 72.7 12.313 72.336C12.621 71.965 13.048 71.783 13.587 71.783ZM13.608 72.434C13.342 72.434 13.139 72.504 12.985 72.658C12.838 72.805 12.74 73.022 12.691 73.309H14.553C14.483 72.721 14.168 72.434 13.608 72.434ZM17.7266 71.783C17.9016 71.783 18.0556 71.811 18.1816 71.874V72.672C17.9996 72.616 17.8316 72.595 17.6636 72.595C17.4536 72.595 17.2646 72.672 17.0966 72.84C16.9006 73.029 16.8096 73.274 16.8096 73.582V75.5H16.0186V71.881H16.8096V72.399C16.9076 72.217 17.0196 72.077 17.1526 71.979C17.3136 71.846 17.5026 71.783 17.7266 71.783ZM19.7708 70.712V71.881H20.5758V72.539H19.7708V74.583C19.7708 74.667 19.7848 74.73 19.8268 74.779C19.8688 74.821 19.9248 74.842 20.0088 74.842H20.4848V75.5H19.8758C19.5608 75.5 19.3298 75.416 19.1828 75.248C19.0428 75.094 18.9728 74.877 18.9728 74.583V72.539H18.3218V71.881H18.9728V71.041L19.7708 70.712ZM21.7119 70.404C21.8659 70.404 21.9989 70.453 22.1039 70.551C22.2019 70.649 22.2579 70.775 22.2579 70.929C22.2579 71.083 22.2019 71.216 22.0969 71.314C21.9919 71.412 21.8659 71.461 21.7119 71.461C21.5579 71.461 21.4319 71.412 21.3269 71.314C21.2219 71.209 21.1729 71.083 21.1729 70.929C21.1729 70.775 21.2219 70.649 21.3269 70.551C21.4319 70.453 21.5579 70.404 21.7119 70.404ZM21.3129 71.881H22.1109V75.5H21.3129V71.881ZM24.5217 70.502H25.2917V71.174H24.6337C24.5287 71.174 24.4517 71.202 24.3957 71.258C24.3397 71.314 24.3187 71.398 24.3187 71.517V71.881H26.5377V75.5H25.7397V72.532H24.3187V75.5H23.5207V72.532H22.7157V71.881H23.5207V71.496C23.5207 71.188 23.6047 70.943 23.7797 70.768C23.9477 70.586 24.1997 70.502 24.5217 70.502ZM29.0723 71.783C29.5413 71.783 29.9123 71.888 30.1923 72.098C30.4793 72.322 30.6613 72.658 30.7313 73.113H29.9403C29.8913 72.882 29.7933 72.714 29.6533 72.602C29.5063 72.49 29.3103 72.434 29.0723 72.434C28.7783 72.434 28.5473 72.539 28.3793 72.763C28.2113 72.98 28.1273 73.288 28.1273 73.68C28.1273 74.079 28.2043 74.394 28.3723 74.618C28.5263 74.835 28.7573 74.947 29.0653 74.947C29.5973 74.947 29.8913 74.681 29.9543 74.156H30.7453C30.6613 74.646 30.4723 75.01 30.1853 75.248C29.9053 75.479 29.5273 75.598 29.0583 75.598C28.4983 75.598 28.0643 75.416 27.7563 75.052C27.4553 74.702 27.3083 74.247 27.3083 73.687C27.3083 73.141 27.4553 72.693 27.7493 72.35C28.0643 71.972 28.5053 71.783 29.0723 71.783ZM33.0171 71.783C33.5491 71.783 33.9481 71.916 34.2001 72.182C34.4241 72.413 34.5361 72.749 34.5361 73.19V75.5H33.7941V75.024C33.6541 75.206 33.4791 75.339 33.2761 75.437C33.0451 75.542 32.7721 75.598 32.4571 75.598C32.0791 75.598 31.7851 75.5 31.5681 75.311C31.3441 75.115 31.2321 74.87 31.2321 74.569C31.2321 74.163 31.3861 73.848 31.7081 73.631C32.0021 73.421 32.4151 73.309 32.9471 73.295L33.7381 73.274V73.134C33.7381 72.658 33.4791 72.427 32.9611 72.427C32.7371 72.427 32.5621 72.462 32.4291 72.546C32.2751 72.637 32.1701 72.777 32.1281 72.966L31.3371 72.903C31.4141 72.504 31.6101 72.21 31.9251 72.028C32.1911 71.86 32.5551 71.783 33.0171 71.783ZM33.7381 73.848L33.0031 73.869C32.3661 73.883 32.0511 74.107 32.0511 74.541C32.0511 74.667 32.1001 74.772 32.2121 74.856C32.3241 74.94 32.4641 74.989 32.6391 74.989C32.9471 74.989 33.2061 74.898 33.4161 74.723C33.6261 74.541 33.7381 74.31 33.7381 74.03V73.848ZM36.512 70.712V71.881H37.317V72.539H36.512V74.583C36.512 74.667 36.526 74.73 36.568 74.779C36.61 74.821 36.666 74.842 36.75 74.842H37.226V75.5H36.617C36.302 75.5 36.071 75.416 35.924 75.248C35.784 75.094 35.714 74.877 35.714 74.583V72.539H35.063V71.881H35.714V71.041L36.512 70.712ZM39.4541 71.783C40.0491 71.783 40.5041 71.979 40.8191 72.385C41.1061 72.749 41.2531 73.26 41.2531 73.911H38.5441C38.5721 74.247 38.6631 74.506 38.8171 74.681C38.9711 74.856 39.1951 74.947 39.4821 74.947C39.7271 74.947 39.9231 74.891 40.0771 74.779C40.1961 74.688 40.3011 74.541 40.3991 74.338H41.1971C41.1131 74.674 40.9451 74.961 40.6931 75.185C40.3711 75.458 39.9721 75.598 39.4891 75.598C38.9501 75.598 38.5231 75.43 38.2081 75.101C37.8721 74.758 37.7041 74.289 37.7041 73.687C37.7041 73.148 37.8581 72.7 38.1801 72.336C38.4881 71.965 38.9151 71.783 39.4541 71.783ZM39.4751 72.434C39.2091 72.434 39.0061 72.504 38.8521 72.658C38.7051 72.805 38.6071 73.022 38.5581 73.309H40.4201C40.3501 72.721 40.0351 72.434 39.4751 72.434ZM44.2869 70.502H45.1059L47.5769 74.107H47.6049V70.502H48.4309V75.5H47.6329L45.1339 71.846H45.1059V75.5H44.2869V70.502ZM51.0238 71.783C51.5698 71.783 52.0108 71.958 52.3468 72.322C52.6758 72.679 52.8438 73.134 52.8438 73.694C52.8438 74.247 52.6758 74.702 52.3538 75.052C52.0178 75.416 51.5698 75.598 51.0238 75.598C50.4708 75.598 50.0298 75.416 49.6938 75.052C49.3648 74.702 49.2038 74.247 49.2038 73.694C49.2038 73.134 49.3648 72.679 49.7008 72.322C50.0298 71.958 50.4708 71.783 51.0238 71.783ZM51.0238 72.434C50.6878 72.434 50.4358 72.56 50.2538 72.826C50.0998 73.05 50.0228 73.344 50.0228 73.694C50.0228 74.044 50.0998 74.331 50.2538 74.555C50.4358 74.814 50.6878 74.947 51.0238 74.947C51.3528 74.947 51.6118 74.814 51.7938 74.555C51.9478 74.324 52.0318 74.037 52.0318 73.694C52.0318 73.344 51.9478 73.05 51.7938 72.826C51.6118 72.56 51.3528 72.434 51.0238 72.434ZM54.0801 74.443C54.2341 74.443 54.3601 74.492 54.4721 74.604C54.5771 74.709 54.6331 74.842 54.6331 74.996C54.6331 75.15 54.5771 75.276 54.4721 75.388C54.3601 75.486 54.2341 75.542 54.0801 75.542C53.9261 75.542 53.7931 75.486 53.6951 75.388C53.5831 75.276 53.5341 75.15 53.5341 74.996C53.5341 74.842 53.5831 74.709 53.6951 74.604C53.7931 74.492 53.9261 74.443 54.0801 74.443ZM59.4799 70.404C60.0609 70.404 60.5159 70.642 60.8449 71.132C61.1529 71.594 61.3069 72.217 61.3069 73.001C61.3069 73.785 61.1529 74.408 60.8449 74.87C60.5159 75.353 60.0609 75.598 59.4799 75.598C58.8919 75.598 58.4369 75.353 58.1149 74.87C57.8069 74.408 57.6529 73.785 57.6529 73.001C57.6529 72.217 57.8069 71.594 58.1149 71.132C58.4369 70.642 58.8919 70.404 59.4799 70.404ZM59.4799 71.097C59.0809 71.097 58.8009 71.314 58.6399 71.762C58.5279 72.063 58.4719 72.476 58.4719 73.001C58.4719 73.519 58.5279 73.932 58.6399 74.24C58.8009 74.681 59.0809 74.905 59.4799 74.905C59.8719 74.905 60.1519 74.681 60.3199 74.24C60.4319 73.932 60.4879 73.519 60.4879 73.001C60.4879 72.476 60.4319 72.063 60.3199 71.762C60.1519 71.314 59.8719 71.097 59.4799 71.097ZM63.2011 70.502H63.8171V75.5H62.9981V71.489C62.6971 71.762 62.3191 71.965 61.8571 72.098V71.286C62.0811 71.23 62.3191 71.132 62.5711 70.992C62.8231 70.838 63.0331 70.677 63.2011 70.502ZM66.5972 70.404C67.1012 70.404 67.5142 70.523 67.8222 70.768C68.1232 71.013 68.2772 71.349 68.2772 71.783C68.2772 72.329 67.9972 72.693 67.4442 72.875C67.7382 72.966 67.9692 73.099 68.1232 73.281C68.2912 73.47 68.3752 73.715 68.3752 74.009C68.3752 74.471 68.2142 74.849 67.8922 75.143C67.5562 75.444 67.1152 75.598 66.5692 75.598C66.0512 75.598 65.6312 75.465 65.3162 75.199C64.9662 74.905 64.7702 74.471 64.7282 73.911H65.5612C65.5752 74.233 65.6732 74.485 65.8692 74.66C66.0442 74.821 66.2752 74.905 66.5622 74.905C66.8772 74.905 67.1292 74.814 67.3112 74.639C67.4722 74.478 67.5562 74.282 67.5562 74.044C67.5562 73.757 67.4652 73.547 67.2972 73.414C67.1292 73.274 66.8842 73.211 66.5622 73.211H66.2122V72.595H66.5622C66.8562 72.595 67.0802 72.532 67.2342 72.406C67.3812 72.28 67.4582 72.091 67.4582 71.846C67.4582 71.601 67.3882 71.419 67.2552 71.293C67.1082 71.167 66.8912 71.104 66.6042 71.104C66.3102 71.104 66.0862 71.174 65.9252 71.321C65.7572 71.468 65.6592 71.692 65.6312 71.993H64.8262C64.8682 71.489 65.0502 71.097 65.3862 70.817C65.7012 70.537 66.1072 70.404 66.5972 70.404ZM70.7945 70.404C71.2985 70.404 71.7115 70.523 72.0195 70.768C72.3205 71.013 72.4745 71.349 72.4745 71.783C72.4745 72.329 72.1945 72.693 71.6415 72.875C71.9355 72.966 72.1665 73.099 72.3205 73.281C72.4885 73.47 72.5725 73.715 72.5725 74.009C72.5725 74.471 72.4115 74.849 72.0895 75.143C71.7535 75.444 71.3125 75.598 70.7665 75.598C70.2485 75.598 69.8285 75.465 69.5135 75.199C69.1635 74.905 68.9675 74.471 68.9255 73.911H69.7585C69.7725 74.233 69.8705 74.485 70.0665 74.66C70.2415 74.821 70.4725 74.905 70.7595 74.905C71.0745 74.905 71.3265 74.814 71.5085 74.639C71.6695 74.478 71.7535 74.282 71.7535 74.044C71.7535 73.757 71.6625 73.547 71.4945 73.414C71.3265 73.274 71.0815 73.211 70.7595 73.211H70.4095V72.595H70.7595C71.0535 72.595 71.2775 72.532 71.4315 72.406C71.5785 72.28 71.6555 72.091 71.6555 71.846C71.6555 71.601 71.5855 71.419 71.4525 71.293C71.3055 71.167 71.0885 71.104 70.8015 71.104C70.5075 71.104 70.2835 71.174 70.1225 71.321C69.9545 71.468 69.8565 71.692 69.8285 71.993H69.0235C69.0655 71.489 69.2475 71.097 69.5835 70.817C69.8985 70.537 70.3045 70.404 70.7945 70.404Z" fill="black"/>
<path d="M54.577 32.326C54.577 32.326 53.577 30.61 50.425 29.826C50.3856 29.8305 50.3456 29.8262 50.308 29.8132C50.2704 29.8002 50.2363 29.7789 50.208 29.7509C48.4976 29.4454 46.7425 29.4951 45.052 29.897C44.61 29.968 41.607 30.8969 40.104 29.1809C39.388 28.3939 39.534 26.2359 40.25 26.2359C40.75 26.2359 40.533 26.8109 40.462 27.0979C40.391 27.5979 40.962 27.9559 41.2491 27.0979C41.607 26.0229 40.3911 24.8029 41.2491 22.5119C41.5912 21.7139 42.1658 21.0375 42.898 20.571C45.763 19.071 50.3531 19.426 53.5111 26.023C53.6079 26.2633 53.6517 26.5218 53.6394 26.7807C53.6272 27.0396 53.5592 27.2928 53.44 27.523C53.2032 27.8489 52.8897 28.1113 52.5273 28.2872C52.1648 28.463 51.7646 28.5467 51.362 28.531C50.6462 28.5217 49.9498 28.2975 49.363 27.8873C48.7763 27.4772 48.3265 26.9001 48.072 26.231C47.9264 25.9684 47.85 25.6732 47.85 25.3729C47.85 25.0727 47.9264 24.7775 48.072 24.5149C48.1427 24.3862 48.2453 24.2779 48.37 24.2005C48.4948 24.1231 48.6374 24.0791 48.784 24.073C49.001 24.073 49.43 24.2149 49.717 24.9309C49.9201 25.4884 50.297 25.9659 50.792 26.2929C51.438 26.6509 52.154 26.364 52.225 25.935C52.225 25.718 52.154 25.577 52.008 25.577C51.9788 25.5619 51.9469 25.553 51.9141 25.5507C51.8814 25.5484 51.8485 25.5527 51.8175 25.5635C51.7864 25.5742 51.7579 25.5911 51.7336 25.6132C51.7093 25.6353 51.6897 25.6621 51.676 25.6919C51.6606 25.7232 51.6514 25.7572 51.649 25.7919C51.578 26.0789 51.795 26.1499 51.795 26.1499C51.7113 26.208 51.6092 26.2332 51.508 26.2209C50.575 26.0789 50.508 25.292 50.363 24.576C50.218 23.86 50.005 23.006 48.863 23.006H48.646C48.4037 23.0493 48.1537 23.0119 47.9347 22.8993C47.7158 22.7867 47.5398 22.6053 47.434 22.383C47.363 22.312 47.363 22.241 47.288 22.1C47.0818 21.7924 46.8026 21.5406 46.4755 21.367C46.1484 21.1934 45.7834 21.1034 45.413 21.105C44.7971 21.1231 44.2041 21.3427 43.7249 21.7302C43.2457 22.1176 42.9068 22.6515 42.76 23.2499C42.6147 23.722 42.5843 24.2219 42.6712 24.7081C42.7582 25.1942 42.9601 25.6526 43.26 26.045C43.6494 26.5155 44.1289 26.9034 44.6704 27.1859C45.2119 27.4684 45.8044 27.6398 46.413 27.6899C46.554 27.6899 46.554 27.548 46.267 27.478C44.122 26.691 45.267 24.758 43.976 24.825C43.476 24.825 43.26 24.2499 43.26 23.9409C43.2478 23.5229 43.3988 23.1164 43.6811 22.8077C43.9633 22.499 44.3545 22.3122 44.772 22.287C45.272 22.287 45.9881 22.5039 46.2051 23.7199C46.289 24.9178 46.7614 26.0557 47.5506 26.9607C48.3398 27.8658 49.4027 28.4887 50.578 28.7349C51.2155 28.8809 51.8776 28.8809 52.515 28.7349C54.015 28.3769 54.515 29.235 54.947 30.022C54.947 30.0408 54.9545 30.0588 54.9678 30.0722C54.9812 30.0855 54.9992 30.0929 55.018 30.0929C55.0267 30.1484 55.053 30.1996 55.093 30.239C55.451 30.885 55.88 30.955 55.951 30.809C56.0282 30.404 56.0039 29.9862 55.88 29.5929V29.381C55.3484 26.7615 54.1782 24.3139 52.4733 22.2554C50.7684 20.1969 48.5816 18.5912 46.107 17.5809C45.9132 17.9528 45.6148 18.2599 45.2485 18.4642C44.8823 18.6685 44.4643 18.7613 44.046 18.731C44.046 18.731 42.176 19.0889 40.508 21.6669C40.465 21.7007 40.4299 21.7436 40.4053 21.7925C40.3808 21.8415 40.3674 21.8952 40.366 21.95V22.0249C39.4627 23.5805 38.9245 25.321 38.7921 27.115C38.7211 27.557 38.646 30.6969 36.643 31.634C35.643 32.076 33.636 31.276 33.924 30.634C34.066 30.1919 34.565 30.563 34.782 30.634C35.282 30.851 35.7821 30.4169 35.0691 29.8469C34.2071 29.1309 32.632 29.9889 30.769 28.4139C30.1163 27.8448 29.6431 27.0982 29.407 26.2649C28.828 23.0279 30.5481 18.805 37.9281 17.865C38.1845 17.8446 38.4422 17.8862 38.6792 17.9863C38.9162 18.0864 39.1257 18.242 39.2901 18.4399C39.5185 18.7706 39.6639 19.1515 39.7139 19.5503C39.7638 19.9491 39.7169 20.3541 39.577 20.731C39.3514 21.4035 38.9315 21.994 38.3702 22.4277C37.809 22.8615 37.1317 23.1191 36.424 23.1679C36.1236 23.218 35.8154 23.1915 35.5279 23.0911C35.2404 22.9906 34.9829 22.8192 34.779 22.5929C34.562 22.3059 34.4921 22.0229 34.6371 21.8059C34.7435 21.5979 34.9089 21.4257 35.1124 21.3108C35.316 21.196 35.5489 21.1435 35.782 21.16C36.3909 21.1526 36.9759 20.9229 37.427 20.5139C37.927 19.9439 37.8691 19.227 37.4981 19.086C37.4203 19.0482 37.3309 19.0419 37.2486 19.0683C37.1663 19.0948 37.0973 19.152 37.0561 19.228C37.0308 19.2613 37.0126 19.2994 37.0025 19.34C36.9924 19.3806 36.9906 19.4228 36.9972 19.4641C37.0039 19.5054 37.0188 19.5449 37.0411 19.5803C37.0634 19.6157 37.0926 19.6462 37.127 19.67C37.1811 19.7082 37.2479 19.7236 37.3132 19.7129C37.3785 19.7023 37.437 19.6664 37.476 19.613C37.4718 19.7124 37.4477 19.81 37.405 19.8999C36.963 20.7579 36.189 20.5409 35.4731 20.4699C34.7571 20.3989 33.8991 20.3289 33.5411 21.4029V21.509C33.3151 22.296 33.0321 22.3669 32.5281 22.4419C32.4571 22.4419 32.316 22.5129 32.245 22.5129C31.8933 22.6054 31.5706 22.7852 31.307 23.0357C31.0433 23.2863 30.8473 23.5994 30.737 23.946C30.5629 24.5435 30.5876 25.1815 30.8077 25.7638C31.0278 26.346 31.4312 26.841 31.9571 27.174C32.3726 27.4551 32.8488 27.6342 33.3466 27.6964C33.8445 27.7586 34.3501 27.7022 34.822 27.532C35.9587 27.0392 36.8757 26.1474 37.4001 25.0249C37.4711 24.8829 37.325 24.8829 37.183 25.0959C35.821 26.8649 34.2381 25.1709 33.9551 26.4579C33.8091 26.9579 33.2391 26.9579 32.9551 26.8999C32.7589 26.8467 32.5753 26.7553 32.4146 26.6308C32.2539 26.5064 32.1194 26.3515 32.0188 26.175C31.9182 25.9984 31.8534 25.8037 31.8282 25.6021C31.803 25.4004 31.8179 25.1958 31.8721 24.9999C31.8701 24.9884 31.8701 24.9765 31.8721 24.965C32.0141 24.465 32.451 23.82 33.742 24.036C37.536 24.606 39.327 22.457 39.897 21.449C40.2497 20.8848 40.4705 20.2483 40.543 19.587C40.684 17.938 41.834 17.818 42.754 17.655C43.47 17.509 43.687 17.155 43.541 17.009C43.2093 16.8325 42.8416 16.7344 42.466 16.7219C42.395 16.7219 42.254 16.6509 42.183 16.6509C41.5169 16.5661 40.8465 16.5187 40.175 16.509C37.8248 16.5038 35.5022 17.0161 33.3722 18.0097C31.2423 19.0033 29.3573 20.4537 27.851 22.258C28.1519 22.5625 28.3548 22.95 28.4335 23.3708C28.5123 23.7915 28.4634 24.2262 28.293 24.619C28.3194 26.0005 28.7978 27.3353 29.655 28.419C29.8361 28.6472 30.0031 28.8863 30.155 29.1349C30.155 29.1542 30.1624 29.1727 30.1756 29.1866C30.1888 29.2006 30.2069 29.2089 30.226 29.21C31.3953 30.5451 32.8708 31.5769 34.5261 32.217C34.8841 32.429 37.8911 33.4329 38.1081 35.6529C38.2491 36.7279 36.817 38.3729 36.339 37.9439C35.981 37.6569 36.4801 37.3029 36.626 37.1569C36.984 36.7989 36.767 36.1569 35.98 36.6569C35.047 37.3029 35.334 39.018 33.252 40.314C32.5031 40.7561 31.6455 40.9798 30.7761 40.96C27.5521 40.46 24.1171 37.5149 25.4701 30.2189C25.6377 29.759 25.9682 29.3765 26.399 29.144C26.7754 29.029 27.1744 29.0092 27.5602 29.0864C27.9461 29.1635 28.3068 29.3352 28.6101 29.586C29.1852 30.0142 29.6212 30.6026 29.8634 31.2775C30.1057 31.9523 30.1435 32.6837 29.9721 33.38C29.947 33.6771 29.8404 33.9615 29.664 34.2019C29.4875 34.4422 29.248 34.6291 28.9721 34.742C28.8431 34.7853 28.7066 34.8013 28.5711 34.7891C28.4356 34.7769 28.3042 34.7367 28.185 34.671C27.973 34.529 27.743 34.171 27.973 33.38C28.0778 33.1022 28.1267 32.8065 28.1169 32.5098C28.1072 32.2131 28.0389 31.9212 27.9161 31.6509C27.5581 31.0049 26.8411 30.789 26.5541 31.076C26.5258 31.0976 26.5021 31.1246 26.4843 31.1555C26.4665 31.1864 26.455 31.2204 26.4505 31.2558C26.4459 31.2911 26.4484 31.3269 26.4578 31.3613C26.4671 31.3957 26.4832 31.4278 26.505 31.4559C26.519 31.4745 26.5355 31.491 26.5541 31.505C26.6066 31.5683 26.6804 31.6104 26.7617 31.6235C26.843 31.6365 26.9263 31.6196 26.996 31.576C27.0242 31.5588 27.0487 31.5362 27.068 31.5094C27.0873 31.4827 27.101 31.4524 27.1085 31.4203C27.1159 31.3881 27.1169 31.3548 27.1113 31.3223C27.1058 31.2898 27.0938 31.2588 27.076 31.231C27.1867 31.2418 27.2891 31.2939 27.363 31.377C28.079 32.023 27.58 32.735 27.2921 33.377C27.0041 34.019 26.646 34.8099 27.579 35.5259L27.6501 35.5969L27.7211 35.6679C28.3671 36.1679 28.367 36.3839 28.296 36.8879V37.175C28.2853 37.5305 28.3572 37.8838 28.5061 38.2068C28.655 38.5299 28.8768 38.8141 29.154 39.037C29.6674 39.3824 30.2778 39.5545 30.896 39.5282C31.5142 39.502 32.1078 39.2787 32.59 38.891C32.9849 38.5903 33.3018 38.1992 33.5141 37.7506C33.7264 37.302 33.8279 36.8089 33.81 36.313C33.6988 35.0805 33.1365 33.9324 32.231 33.089C32.16 33.018 32.09 33.0889 32.231 33.3059C33.522 35.1679 31.444 36.101 32.518 36.8169C32.5926 36.8738 32.6552 36.9447 32.7022 37.0258C32.7493 37.1069 32.7798 37.1964 32.7922 37.2893C32.8046 37.3822 32.7985 37.4767 32.7742 37.5672C32.75 37.6578 32.7081 37.7426 32.6511 37.8169L32.589 37.8829C32.4739 38.0583 32.3251 38.2091 32.1512 38.3264C31.9772 38.4438 31.7818 38.5254 31.576 38.5665C31.3703 38.6077 31.1584 38.6075 30.9528 38.566C30.7471 38.5245 30.5518 38.4426 30.378 38.3249H30.351C29.909 38.0379 29.493 37.4629 30.064 36.3169C31.784 32.8809 30.281 30.517 29.494 29.728C29.071 29.2548 28.562 28.8662 27.994 28.5829C27.7505 28.5091 27.5246 28.3864 27.3301 28.2223C27.1355 28.0583 26.9765 27.8562 26.8627 27.6286C26.7489 27.401 26.6827 27.1526 26.6681 26.8985C26.6536 26.6444 26.691 26.3901 26.7781 26.1509V25.864C26.8491 25.148 26.561 24.781 26.42 24.864C26.1486 25.08 25.9281 25.3531 25.774 25.6639C25.703 25.7389 25.703 25.81 25.628 25.881C24.588 28.0489 24.05 30.4234 24.0541 32.828C24.0342 35.8276 24.8804 38.7693 26.491 41.3C26.8724 41.1045 27.3056 41.0338 27.7293 41.0981C28.153 41.1623 28.5458 41.3582 28.852 41.658C28.9077 41.6631 28.9596 41.6883 28.9981 41.729C30.5641 42.0843 32.2039 41.9084 33.659 41.229C33.73 41.229 33.8 41.158 33.871 41.158C35.452 40.4268 36.8472 39.3476 37.952 38.001C38.239 37.714 40.1631 35.2059 42.3301 35.6399C43.4051 35.8519 44.541 37.714 43.975 38.072C43.533 38.359 43.405 37.7849 43.259 37.5019C43.047 37.0599 42.33 37.0599 42.618 37.9439C42.905 39.0189 44.618 39.306 45.271 41.676C45.4798 42.5611 45.4038 43.4895 45.0541 44.329C43.5541 47.194 39.6771 49.5559 33.2341 46.0449C33.0276 45.9127 32.8552 45.7337 32.7308 45.5225C32.6064 45.3112 32.5335 45.0736 32.518 44.829C32.5097 44.4312 32.6042 44.038 32.7926 43.6876C32.9809 43.3372 33.2567 43.0414 33.593 42.829C34.1737 42.4074 34.8699 42.1745 35.5874 42.1618C36.3048 42.1491 37.0088 42.3572 37.604 42.7579C37.8733 42.8738 38.1071 43.0588 38.2818 43.2941C38.4566 43.5294 38.566 43.8067 38.599 44.098C38.5999 44.2371 38.5679 44.3744 38.5057 44.4988C38.4435 44.6232 38.3528 44.7312 38.241 44.814C38.029 44.96 37.671 45.1009 36.954 44.6719C36.4829 44.3156 35.8913 44.157 35.3051 44.2299C34.5891 44.3709 34.1601 45.0169 34.376 45.3749C34.4188 45.4494 34.4879 45.5052 34.5696 45.5314C34.6513 45.5577 34.7399 45.5525 34.8181 45.5169C34.889 45.49 34.9489 45.4402 34.9882 45.3753C35.0275 45.3104 35.044 45.2343 35.035 45.1589C34.889 44.9469 34.7481 45.0169 34.7481 45.0169C34.7959 44.9254 34.8696 44.8499 34.96 44.8C35.747 44.358 36.322 45.0169 36.822 45.4459C37.397 46.0159 37.967 46.521 38.909 45.8039L38.98 45.733L39.051 45.658C39.2239 45.4789 39.4505 45.3613 39.6964 45.323C39.9423 45.2848 40.194 45.3279 40.413 45.4459C40.484 45.4459 40.554 45.517 40.696 45.587C41.0347 45.7368 41.4082 45.7896 41.7751 45.7397C42.142 45.6897 42.4878 45.5389 42.774 45.3039C43.2628 44.928 43.6174 44.4046 43.7855 43.8113C43.9535 43.218 43.926 42.5864 43.7071 42.01C43.5291 41.5429 43.2507 41.1207 42.8917 40.773C42.5326 40.4253 42.1016 40.1608 41.629 39.9979C41.0353 39.8473 40.417 39.8202 39.8124 39.9183C39.2078 40.0163 38.6297 40.2374 38.114 40.568C38.043 40.639 38.114 40.709 38.326 40.639C40.475 39.998 40.771 42.293 41.7 41.439C41.8655 41.3244 42.0697 41.2801 42.2678 41.3157C42.4659 41.3513 42.6418 41.4639 42.757 41.6289V41.656C42.885 41.815 42.9802 41.9976 43.0375 42.1935C43.0947 42.3894 43.1127 42.5947 43.0905 42.7975C43.0683 43.0004 43.0063 43.1969 42.9081 43.3757C42.8099 43.5546 42.6773 43.7124 42.518 43.8399L42.4691 43.8749C42.316 43.9877 42.1415 44.0681 41.9564 44.1112C41.7712 44.1543 41.5792 44.1593 41.3921 44.1258C41.205 44.0923 41.0266 44.0211 40.8679 43.9164C40.7092 43.8117 40.5735 43.6758 40.4691 43.5169C37.7411 40.7929 35.021 41.5089 34.022 42.0169C33.4295 42.2619 32.8938 42.6261 32.448 43.087C32.1378 43.4953 31.6825 43.7689 31.1763 43.8511C30.6701 43.9334 30.1516 43.8181 29.728 43.529C29.6719 43.5224 29.6201 43.4958 29.5821 43.454C29.5111 43.454 29.511 43.3829 29.44 43.3829C28.794 43.0959 28.365 43.241 28.365 43.454C28.365 43.667 28.6521 43.9539 29.0111 44.3379L29.0821 44.4089C32.0931 47.3026 36.106 48.9203 40.282 48.9239C41.5595 48.9232 42.8326 48.7749 44.076 48.482C44.0148 48.0653 44.0769 47.6397 44.2546 47.2579C44.4323 46.876 44.7178 46.5545 45.076 46.333C45.076 46.333 46.4381 44.833 46.1511 41.606C46.1543 41.5068 46.1297 41.4088 46.0801 41.3229C45.8666 39.6048 45.2699 37.9566 44.334 36.4999C44.1171 36.1419 42.334 33.5639 43.476 31.6359C44.046 30.7029 46.129 30.136 46.266 30.849C46.412 31.349 45.766 31.291 45.55 31.349C45.05 31.42 44.834 32.0649 45.767 32.1359C46.912 32.1359 47.6291 30.636 50.1361 30.7739C51.0131 30.895 51.8443 31.2394 52.55 31.7739C54.841 34.0649 55.84 38.4419 50.613 43.4519C50.4219 43.6246 50.1912 43.7476 49.9413 43.81C49.6914 43.8724 49.4299 43.8724 49.18 43.8099C48.8023 43.6852 48.4606 43.4702 48.1848 43.1836C47.9089 42.8969 47.7072 42.5472 47.597 42.165C47.3893 41.4781 47.3884 40.7453 47.5945 40.0579C47.8006 39.3705 48.2046 38.7591 48.756 38.3C48.9631 38.0781 49.2252 37.915 49.5157 37.8272C49.8062 37.7394 50.1147 37.73 50.41 37.8C50.5523 37.8433 50.6834 37.9172 50.7941 38.0166C50.9049 38.1159 50.9925 38.2382 51.051 38.3749C51.126 38.5869 51.126 39.016 50.551 39.52C50.0935 39.8803 49.7722 40.3857 49.64 40.953C49.565 41.669 49.998 42.24 50.427 42.169C50.639 42.169 50.71 42.027 50.71 41.811C50.7069 41.7365 50.6762 41.6659 50.6239 41.6128C50.5716 41.5598 50.5014 41.5281 50.427 41.524C50.127 41.524 50.127 41.7409 50.127 41.7409C50.0649 41.6533 50.017 41.5565 49.9851 41.454C49.8431 40.521 50.555 40.238 51.201 39.88C51.847 39.522 52.572 39.093 52.214 38.018V37.859C51.997 37.067 52.139 36.8589 52.426 36.4929L52.643 36.2759C52.8929 35.9996 53.0592 35.658 53.1226 35.2908C53.186 34.9237 53.1438 34.5461 53.001 34.202C52.8027 33.6145 52.412 33.111 51.8921 32.7731C51.3722 32.4353 50.7535 32.2826 50.1361 32.34C49.642 32.3565 49.1586 32.488 48.7242 32.7241C48.2899 32.9602 47.9166 33.2943 47.634 33.7C47.304 34.2202 47.0833 34.8021 46.9853 35.4103C46.8873 36.0186 46.9141 36.6404 47.064 37.238C47.135 37.38 47.2061 37.309 47.2061 37.092C47.2771 34.792 49.5061 35.323 48.9971 34.076C48.7801 33.576 49.284 33.218 49.5671 33.147C49.7531 33.0723 49.9521 33.035 50.1526 33.0373C50.3531 33.0395 50.5511 33.0813 50.7355 33.1601C50.9198 33.239 51.0868 33.3534 51.2269 33.4968C51.367 33.6402 51.4775 33.8098 51.552 33.996L51.579 34.076C51.725 34.576 51.7961 35.296 50.6501 35.867C47.2051 37.596 47.0681 40.3859 47.2051 41.5319C47.2536 42.1874 47.4484 42.8236 47.7751 43.3939C48.0676 43.8171 48.1849 44.3371 48.1025 44.8449C48.0201 45.3528 47.7444 45.809 47.333 46.1179L47.2621 46.189L47.12 46.331C46.62 46.831 46.678 47.331 46.833 47.331C47.2082 47.2697 47.5711 47.1488 47.908 46.973C47.962 46.9659 48.012 46.9409 48.05 46.902C50.4139 45.6037 52.4186 43.7392 53.8847 41.4756C55.3507 39.212 56.2321 36.62 56.45 33.932C55.804 33.932 55.017 33.6449 54.588 32.3579L54.577 32.326Z" fill="url(#paint0_radial_2164_3532)"/>
<path d="M78.279 59.9239H2.221C2.16279 59.9227 2.10732 59.899 2.06614 59.8578C2.02497 59.8166 2.00127 59.7612 2 59.7029C2 59.6443 2.02329 59.5881 2.06473 59.5467C2.10618 59.5052 2.16239 59.4819 2.221 59.4819H78.279C78.3376 59.4819 78.3938 59.5052 78.4353 59.5467C78.4767 59.5881 78.5 59.6443 78.5 59.7029C78.5 59.7616 78.4767 59.8178 78.4353 59.8592C78.3938 59.9007 78.3376 59.9239 78.279 59.9239Z" fill="#EB1923"/>
<path d="M35.9343 66.1939C35.9343 66.1509 35.9793 65.7939 35.9793 65.6639C35.8903 65.6639 34.9173 65.6189 34.6973 65.6189H33.9453V65.5309C33.9893 65.5309 34.2993 65.4879 34.4313 65.4879V63.7179V62.6659C34.3433 62.6659 34.0773 62.6209 33.9443 62.6209V62.5329H35.4883L35.4433 62.6209C35.3553 62.6209 35.0893 62.6659 34.9133 62.6659V65.4869C35.2797 65.4956 35.6431 65.4196 35.9753 65.2649C36.0183 65.1329 36.1073 64.8649 36.1523 64.7799H36.2383C36.1281 65.26 36.0546 65.7477 36.0183 66.2389L35.9343 66.1939ZM75.9623 65.3229C75.9838 65.0877 75.9838 64.8511 75.9623 64.6159L76.0503 64.6589C76.0474 64.7936 76.0622 64.9281 76.0943 65.0589C76.1536 65.1905 76.2459 65.3045 76.3622 65.3898C76.4786 65.4752 76.615 65.5289 76.7583 65.5459C76.9093 65.5581 77.0591 65.5103 77.175 65.4127C77.2909 65.3151 77.3636 65.1758 77.3773 65.0249C77.3798 65.007 77.3798 64.9888 77.3773 64.9709C77.3773 64.6179 77.1113 64.4409 76.8033 64.2609C76.3613 63.9989 76.0033 63.7289 76.0033 63.2419C76.0117 63.0217 76.107 62.8138 76.2684 62.6639C76.4298 62.5139 76.6441 62.4341 76.8643 62.4419H76.9313C77.1269 62.4334 77.3222 62.4633 77.5063 62.5299C77.5493 62.4419 77.5493 62.3079 77.5943 62.1759H77.6823C77.6383 62.6179 77.5943 63.0159 77.5943 63.3699L77.5063 63.3249V62.9709C77.4652 62.8519 77.3874 62.749 77.2841 62.6771C77.1807 62.6052 77.0572 62.568 76.9313 62.5709C76.5313 62.5709 76.4003 62.7929 76.4003 63.0139C76.4003 63.2349 76.7103 63.4559 77.0193 63.6769C77.3283 63.8979 77.7713 64.1639 77.7713 64.6979C77.7705 64.828 77.744 64.9566 77.6932 65.0763C77.6424 65.1961 77.5684 65.3046 77.4754 65.3955C77.3824 65.4865 77.2723 65.5581 77.1514 65.6062C77.0306 65.6543 76.9014 65.678 76.7713 65.6759H76.6653C76.4514 65.6824 76.239 65.6371 76.0463 65.5439C76.0033 65.6319 76.0033 65.8529 75.9583 65.9859L75.8703 66.0289C75.8743 65.9869 75.9623 65.4999 75.9623 65.3229ZM18.3843 65.3229C18.4058 65.0877 18.4058 64.8511 18.3843 64.6159L18.4723 64.6589C18.4681 64.7936 18.4826 64.9282 18.5153 65.0589C18.5745 65.1905 18.6667 65.3046 18.7831 65.3899C18.8995 65.4753 19.036 65.529 19.1793 65.5459C19.3303 65.5581 19.4801 65.5103 19.596 65.4127C19.7119 65.3151 19.7846 65.1758 19.7983 65.0249C19.8012 65.007 19.8012 64.9888 19.7983 64.9709C19.7983 64.6179 19.5333 64.4409 19.2243 64.2609C18.7813 63.9989 18.4243 63.7289 18.4243 63.2419C18.4282 63.1308 18.4544 63.0216 18.5013 62.9208C18.5482 62.82 18.6148 62.7296 18.6972 62.655C18.7796 62.5804 18.8762 62.5231 18.9812 62.4865C19.0861 62.4499 19.1974 62.4347 19.3083 62.4419H19.3743C19.5699 62.4334 19.7652 62.4633 19.9493 62.5299C19.9923 62.4419 19.9923 62.3079 20.0373 62.1759H20.1253C20.0803 62.6179 20.0373 63.0159 20.0373 63.3699L19.9493 63.3249V62.9709C19.9082 62.8519 19.8304 62.749 19.7271 62.6771C19.6237 62.6052 19.5002 62.568 19.3743 62.5709C18.9743 62.5709 18.8443 62.7929 18.8443 63.0139C18.8443 63.2349 19.1543 63.4559 19.4633 63.6769C19.7723 63.8979 20.2153 64.1639 20.2153 64.6979C20.2146 64.828 20.188 64.9566 20.1372 65.0763C20.0864 65.1961 20.0124 65.3046 19.9194 65.3955C19.8264 65.4865 19.7163 65.5581 19.5954 65.6062C19.4746 65.6543 19.3454 65.678 19.2153 65.6759H19.1083C18.8944 65.6824 18.682 65.6371 18.4893 65.5439C18.4793 65.6944 18.4497 65.843 18.4013 65.9859L18.2913 66.0289C18.2953 65.9869 18.3843 65.4999 18.3843 65.3229ZM41.4263 65.3099C41.4492 65.0745 41.4492 64.8373 41.4263 64.6019L41.5143 64.6469C41.5117 64.7816 41.5265 64.916 41.5583 65.0469C41.6173 65.1785 41.7096 65.2924 41.826 65.3774C41.9425 65.4625 42.0791 65.5157 42.2223 65.5319C42.3734 65.5444 42.5233 65.4966 42.6392 65.399C42.7552 65.3014 42.8278 65.1619 42.8413 65.0109C42.8437 64.9937 42.8437 64.9762 42.8413 64.9589C42.8413 64.6039 42.5753 64.4269 42.2653 64.2469C41.8233 63.9859 41.4653 63.7169 41.4653 63.2289C41.469 63.1177 41.495 63.0084 41.5417 62.9075C41.5885 62.8065 41.6551 62.716 41.7376 62.6414C41.8201 62.5667 41.9168 62.5094 42.0219 62.4729C42.127 62.4364 42.2383 62.4215 42.3493 62.4289H42.4153C42.6106 62.4195 42.8058 62.4495 42.9893 62.5169C43.0343 62.4289 43.0343 62.2949 43.0793 62.1619H43.1673C43.1223 62.6049 43.0793 63.0029 43.0793 63.3559L42.9893 63.3129V62.9599C42.9488 62.8407 42.8713 62.7376 42.768 62.6656C42.6647 62.5937 42.5412 62.5566 42.4153 62.5599C42.0153 62.5599 41.8853 62.7809 41.8853 63.0019C41.8853 63.2229 42.1943 63.4439 42.5043 63.6659C42.8143 63.8879 43.2563 64.1519 43.2563 64.6869C43.2558 64.8171 43.2294 64.9458 43.1787 65.0657C43.128 65.1855 43.054 65.2941 42.9609 65.3851C42.8679 65.4761 42.7577 65.5477 42.6367 65.5958C42.5158 65.6438 42.3865 65.6673 42.2563 65.6649H42.1503C41.9363 65.6712 41.7239 65.6256 41.5313 65.5319C41.4863 65.6199 41.4863 65.8429 41.4433 65.9749L41.3313 66.0179C41.3373 65.9739 41.4263 65.4869 41.4263 65.3109V65.3099ZM14.4753 65.9409V65.6759C14.0191 65.6371 13.5611 65.6228 13.1033 65.6329H12.4393L12.4843 65.5449C12.5723 65.5449 12.8383 65.4999 12.9263 65.4999C12.9263 65.4119 12.9703 64.6159 12.9703 64.1249V63.8599H12.8953C12.9091 63.4464 12.8941 63.0324 12.8503 62.6209C12.7623 62.6209 12.4963 62.5779 12.4083 62.5779V62.4899H13.2083C13.6361 62.4971 14.0641 62.4821 14.4903 62.4449C14.5118 62.3731 14.5269 62.2994 14.5353 62.2249H14.6233C14.571 62.532 14.5416 62.8425 14.5353 63.1539L14.4473 63.1089V62.7989C14.3573 62.6669 13.6953 62.6219 13.4733 62.6219C13.4733 62.6669 13.4303 63.5559 13.4303 63.8159V63.9049C13.7421 63.9115 14.0535 63.8816 14.3583 63.8159C14.3958 63.7646 14.412 63.7008 14.4033 63.6379H14.4793C14.4532 63.9208 14.4088 64.2017 14.3463 64.4789L14.2583 64.4389V64.1259C13.9879 64.0366 13.7015 64.0062 13.4183 64.0369V64.1259C13.4183 64.5679 13.4183 65.0409 13.4623 65.5009C13.8208 65.5149 14.1792 65.4703 14.5233 65.3689C14.568 65.2394 14.5976 65.1052 14.6113 64.9689L14.6993 64.9259C14.6285 65.2605 14.5844 65.6003 14.5673 65.9419L14.4753 65.9409ZM39.6273 65.9279V65.6629C39.1714 65.6237 38.7138 65.6087 38.2563 65.6179H37.5893L37.6323 65.5299C37.7203 65.5299 37.9863 65.4869 38.0743 65.4869C38.0743 65.3989 38.1233 64.6019 38.1233 64.1109V63.8469H38.0233C38.0369 63.4334 38.0218 63.0194 37.9783 62.6079C37.8903 62.6079 37.6243 62.5649 37.5363 62.5649V62.4749H38.3463C38.7741 62.483 39.202 62.4687 39.6283 62.4319C39.6494 62.3594 39.6638 62.2851 39.6713 62.2099H39.7603C39.7603 62.2989 39.6713 63.0099 39.6713 63.1389L39.5833 63.0959V62.7859C39.4953 62.6529 38.8313 62.6089 38.6103 62.6089C38.6103 62.6529 38.5653 63.5419 38.5653 63.8029V63.8919C38.8774 63.898 39.1891 63.8681 39.4943 63.8029C39.4943 63.7589 39.5383 63.6699 39.5383 63.6259H39.6263C39.5993 63.9087 39.5548 64.1896 39.4933 64.4669L39.4033 64.4249V64.1109C39.1324 64.0223 38.8457 63.9926 38.5623 64.0239V64.1109C38.5623 64.5549 38.5623 65.0279 38.6073 65.4869C38.9666 65.5013 39.3258 65.456 39.6703 65.3529C39.7157 65.2236 39.7456 65.0893 39.7593 64.9529L39.8473 64.9079C39.7763 65.2429 39.7322 65.5829 39.7153 65.9249L39.6273 65.9279ZM53.0273 63.1559C52.8953 63.5559 52.1873 65.2339 51.9663 65.8089C51.8333 65.4549 51.1663 63.1559 50.9483 62.6199C50.8505 62.5789 50.7436 62.5641 50.6383 62.5769V62.4889H52.0033L51.9603 62.5769C51.9153 62.5769 51.6503 62.6199 51.5603 62.6199C51.6093 62.7969 52.0903 64.6589 52.1793 64.8799C52.2233 64.7479 52.8873 63.1549 52.9793 62.7569C52.8453 62.7139 52.6253 62.7139 52.5353 62.6679L52.4923 62.5799H53.7293V62.6679C53.606 62.6699 53.4849 62.7004 53.3753 62.7569C53.4633 63.0239 54.0393 64.5699 54.1753 64.9249C54.2253 64.7029 54.7563 63.0619 54.7993 62.6199C54.6693 62.5834 54.5341 62.5689 54.3993 62.5769L54.3543 62.4889H55.5033V62.5769C55.4153 62.5769 55.2833 62.6199 55.2383 62.6199C55.1063 62.7529 54.1323 65.6759 54.0843 65.8089C53.9543 65.5449 53.1583 63.5529 53.0253 63.1529L53.0273 63.1559ZM60.0273 65.6769L60.0723 65.5879C60.1593 65.5879 60.5143 65.5449 60.6463 65.5449C60.6463 65.1899 60.6903 64.4389 60.6903 64.0369V63.7719C60.7041 63.4177 60.6897 63.0629 60.6473 62.7109C60.2547 62.6916 59.8622 62.7518 59.4933 62.8879C59.4483 62.9719 59.4483 63.1529 59.4043 63.2879L59.3163 63.3329C59.3568 62.9647 59.3711 62.5941 59.3593 62.2239H59.4473C59.4469 62.3286 59.4621 62.4327 59.4923 62.5329C59.5803 62.5329 60.3313 62.5779 60.9113 62.5779C61.4913 62.5779 62.3263 62.5329 62.3703 62.5329C62.4143 62.5329 62.4133 62.3559 62.4133 62.2679H62.5463C62.4798 62.6487 62.4354 63.033 62.4133 63.4189L62.3253 63.3739V62.9319C61.9566 62.8024 61.567 62.7424 61.1763 62.7549C61.1763 62.8869 61.1313 63.5069 61.1313 63.8159V64.0379C61.1313 64.4379 61.1313 65.1909 61.1763 65.5459C61.2653 65.5459 61.6613 65.5889 61.7503 65.5889V65.6779L60.0273 65.6769ZM45.2183 65.6769L45.2623 65.5879C45.3503 65.5879 45.7043 65.5449 45.8373 65.5449C45.8373 65.1899 45.8803 64.4389 45.8803 64.0369V63.7719H45.8593C45.8729 63.4176 45.8578 63.0628 45.8143 62.7109C45.422 62.6917 45.0298 62.7519 44.6613 62.8879C44.6163 62.9719 44.6163 63.1529 44.5723 63.2879L44.4843 63.3329C44.5251 62.9647 44.5398 62.5941 44.5283 62.2239H44.6163C44.6159 62.3286 44.6311 62.4327 44.6613 62.5329C44.7493 62.5329 45.5053 62.5779 46.0803 62.5779C46.6553 62.5779 47.4953 62.5329 47.5383 62.5329C47.5813 62.5329 47.5833 62.3559 47.5833 62.2679H47.7153C47.6496 62.6488 47.6055 63.0331 47.5833 63.4189L47.4953 63.3739V62.9319C47.1266 62.8024 46.737 62.7424 46.3463 62.7549C46.3463 62.8869 46.3013 63.5069 46.3013 63.8159V64.0379C46.3013 64.4379 46.3013 65.1909 46.3463 65.5459C46.4343 65.5459 46.8313 65.5889 46.9203 65.5889V65.6779L45.2183 65.6769ZM71.7033 65.2859C71.5759 65.1589 71.4786 65.0049 71.4187 64.8353C71.3588 64.6657 71.3379 64.4847 71.3573 64.3059V63.6429H71.4033V63.6379C71.4191 63.2982 71.404 62.9578 71.3583 62.6209C71.2449 62.5822 71.1247 62.5676 71.0053 62.5779V62.4899H72.4113V62.5779C72.2783 62.5779 72.1013 62.6209 71.9683 62.6209C71.9683 62.7089 71.9253 63.2399 71.9253 63.6379V64.2129C71.9253 65.1459 72.3253 65.4559 72.8093 65.4559C72.9224 65.4655 73.0362 65.4506 73.143 65.4123C73.2498 65.374 73.3471 65.3131 73.4283 65.2339C73.6756 64.905 73.7866 64.4935 73.7383 64.0849V63.6849C73.7485 63.3146 73.7334 62.9441 73.6933 62.5759C73.6053 62.5759 73.3393 62.5309 73.2083 62.5309L73.1633 62.4429H74.4033L74.3603 62.5309C74.2703 62.5309 74.1833 62.5759 74.0503 62.5759V64.0839C74.0725 64.3101 74.0444 64.5384 73.968 64.7524C73.8915 64.9664 73.7687 65.1609 73.6083 65.3219C73.3472 65.5358 73.0165 65.6461 72.6793 65.6319C72.6373 65.6319 72.5963 65.6379 72.5543 65.6379C72.2353 65.6374 71.9295 65.5109 71.7033 65.2859ZM3.47733 65.6329V65.5449C3.56533 65.5449 3.91933 65.4999 4.05233 65.4999C4.05233 65.1459 4.09533 64.3949 4.09533 63.9919V63.7759C4.1103 63.4217 4.09592 63.0668 4.05233 62.7149C3.6613 62.6957 3.27045 62.756 2.90333 62.8919C2.85833 62.9759 2.85833 63.1569 2.81533 63.2919L2.72733 63.3369C2.76785 62.9674 2.78189 62.5954 2.76933 62.2239H2.85833C2.85717 62.3286 2.87235 62.4329 2.90333 62.5329C2.99133 62.5329 3.74233 62.5779 4.31833 62.5779C4.89433 62.5779 5.73333 62.5329 5.77733 62.5329C5.82133 62.5329 5.82133 62.3559 5.82133 62.2679H5.91033C5.84331 62.6486 5.7989 63.0329 5.77733 63.4189V62.8869C5.40887 62.7562 5.01905 62.6961 4.62833 62.7099C4.62833 62.8429 4.58333 63.4619 4.58333 63.7719V63.9929C4.58333 64.3929 4.58333 65.1469 4.62833 65.5009C4.71633 65.5009 5.11333 65.5459 5.20233 65.5459V65.6339L3.47733 65.6329ZM25.4543 62.9619C25.2824 63.7802 25.1651 64.609 25.1033 65.4429C25.1913 65.4429 25.4133 65.4869 25.5033 65.4869V65.5749H24.3493L24.3923 65.4869C24.4813 65.4869 24.6143 65.4429 24.7023 65.4429C24.7903 65.1769 25.2763 62.9619 25.3653 62.6079C25.2333 62.6079 24.9653 62.5649 24.9233 62.5649L24.8783 62.4749H26.1613V62.5649C26.0575 62.5727 25.9543 62.587 25.8523 62.6079C25.9843 63.0079 26.5163 64.4699 26.6523 64.7799C26.7863 64.5139 27.5363 62.6969 27.5363 62.6079C27.4376 62.5714 27.3322 62.5568 27.2273 62.5649V62.4749H28.4213V62.5649C28.3763 62.5649 28.1563 62.6079 28.0663 62.6079C28.1563 63.0949 28.5533 65.1329 28.6413 65.4429C28.7565 65.475 28.8758 65.4898 28.9953 65.4869L29.0393 65.5749H27.6203L27.5323 65.4869C27.5763 65.4869 27.9323 65.4429 28.0193 65.4429C28.0193 65.2659 27.6193 63.2719 27.5773 62.9619C27.4443 63.2269 26.6053 65.3539 26.4723 65.6159C26.3383 65.3529 25.5033 63.1349 25.4543 62.9619ZM56.5843 65.5879V65.4879C56.6733 65.4879 56.9843 65.4439 57.0713 65.4439C57.0713 65.2669 57.1153 64.4259 57.1153 64.0249V63.7629C57.1248 63.392 57.1101 63.0209 57.0713 62.6519C56.9823 62.6519 56.6713 62.6079 56.6293 62.6079L56.5843 62.5199H58.0843V62.6079C57.9963 62.6079 57.7743 62.6519 57.5973 62.6519C57.5973 62.7419 57.5533 63.2719 57.5533 63.8019V64.0239L57.5973 64.0369C57.5833 64.5107 57.5983 64.9849 57.6423 65.4569C57.8017 65.4905 57.9645 65.5049 58.1273 65.4999V65.5879H56.5843ZM21.5533 65.5879V65.4879C21.6423 65.4879 21.9073 65.4439 22.0403 65.4439V62.6659C21.9513 62.6659 21.6403 62.6209 21.5983 62.6209V62.4889H23.1103L23.0663 62.5769C22.9823 62.5769 22.7663 62.6199 22.6233 62.6199V64.0359V65.4529C22.7681 65.4869 22.9167 65.5014 23.0653 65.4959L23.1103 65.5839L21.5533 65.5879ZM66.0033 65.5449L66.0463 65.4569C66.0913 65.4569 66.4003 65.4119 66.4883 65.4119C66.5368 65.0159 66.5518 64.6165 66.5333 64.2179V63.9529C66.3113 63.9529 64.7633 64.0409 64.7203 64.0409V64.1609C64.7112 64.5588 64.7262 64.9568 64.7653 65.3529C64.91 65.3872 65.0587 65.402 65.2073 65.3969L65.2523 65.4849H63.7523L63.7973 65.3969C63.8853 65.3969 64.1513 65.3529 64.2393 65.3529C64.2393 65.1309 64.2843 64.4239 64.2843 64.0699V63.7349C64.2935 63.364 64.2785 62.9929 64.2393 62.6239C64.1513 62.6239 63.8853 62.5809 63.7973 62.5809L63.7523 62.4929H65.2523L65.2073 62.5809C65.0753 62.5809 64.8533 62.6239 64.7653 62.6239C64.7653 62.7569 64.7223 63.2429 64.7223 63.6409V63.8669H66.5353V63.6469C66.5515 63.3056 66.5365 62.9635 66.4903 62.6249C66.4023 62.6249 66.1813 62.5819 66.0483 62.5819L66.0053 62.4939H67.5053L67.4613 62.5819C67.3723 62.5819 67.1513 62.6249 67.0183 62.6249C66.984 62.9942 66.9696 63.3651 66.9753 63.7359V64.0449C66.9611 64.5024 66.9754 64.9602 67.0183 65.4159C67.1063 65.4159 67.3723 65.4609 67.4613 65.4609L67.5053 65.5489L66.0033 65.5449ZM9.48933 65.5449V65.4529C9.53433 65.4529 9.84333 65.4079 9.93133 65.4079C9.97927 65.0118 9.99432 64.6125 9.97633 64.2139V63.9529C9.75433 63.9529 8.20633 64.0409 8.15833 64.0409V64.1609C8.14898 64.5588 8.16401 64.9569 8.20333 65.3529C8.34803 65.3873 8.49669 65.4021 8.64533 65.3969V65.4849H7.14533L7.19033 65.3969C7.27833 65.3969 7.54033 65.3529 7.63233 65.3529V64.0669L7.67733 63.7139L7.66833 63.7319V62.6209C7.58033 62.6209 7.31833 62.5779 7.22633 62.5779L7.18533 62.4899H8.68533V62.5779C8.55233 62.5779 8.32633 62.6209 8.24333 62.6209C8.24333 62.7539 8.19833 63.2399 8.19833 63.6379V63.8639H10.0213V63.6439C10.0375 63.3026 10.0231 62.9606 9.97833 62.6219C9.88933 62.6219 9.66733 62.5789 9.53633 62.5789V62.4909H11.0363L10.9913 62.5789C10.9043 62.5789 10.6823 62.6219 10.5513 62.6219C10.5513 62.7099 10.5063 63.6389 10.5063 63.7329V64.0419C10.4918 64.4994 10.5068 64.9574 10.5513 65.4129C10.6383 65.4129 10.9053 65.4579 10.9913 65.4579V65.5459L9.48933 65.5449ZM30.1893 65.5309V65.4429C30.2333 65.4429 30.5423 65.3989 30.6753 65.3989V62.5779C30.5165 62.5386 30.3527 62.5234 30.1893 62.5329V62.4449H31.1613C31.5204 62.4266 31.8799 62.4716 32.2233 62.5779C32.6233 62.7549 32.6653 63.0199 32.6653 63.1079C32.6658 63.2409 32.6383 63.3726 32.5847 63.4944C32.5312 63.6161 32.4527 63.7253 32.3543 63.8149C32.0922 64.0468 31.7704 64.2007 31.4253 64.2589V64.1259C31.6334 64.0949 31.8221 63.9864 31.9534 63.822C32.0847 63.6577 32.149 63.4497 32.1333 63.2399C32.1345 63.1146 32.1023 62.9913 32.0401 62.8825C31.9779 62.7737 31.8879 62.6835 31.7793 62.6209C31.5975 62.5459 31.4003 62.5158 31.2043 62.5329V63.6829L31.1643 63.8909V65.3989C31.2533 65.3989 31.6063 65.4429 31.7403 65.4429L31.7833 65.5309H30.1893ZM71.3123 57.8479V57.7529H70.2923L70.3103 57.3529H71.3103V56.7399H70.4263C70.1691 56.7493 69.9128 56.704 69.6743 56.6069C69.4887 56.5259 69.3231 56.405 69.1893 56.2529C69.0649 56.1003 68.9878 55.9147 68.9673 55.7189C68.9185 55.5304 68.889 55.3374 68.8793 55.1429C68.8886 54.9487 68.9181 54.756 68.9673 54.5679C69.0254 54.385 69.0997 54.2076 69.1893 54.0379C69.3228 53.8855 69.4885 53.7646 69.6743 53.6839C69.9131 53.5881 70.1692 53.5431 70.4263 53.5519H71.3103V53.5069H71.8583V57.8459L71.3123 57.8479ZM69.8973 54.1279C69.785 54.2056 69.6811 54.2947 69.5873 54.3939C69.5064 54.4946 69.4601 54.6188 69.4553 54.7479C69.4227 54.863 69.4075 54.9823 69.4103 55.1019C69.405 55.2216 69.4202 55.3413 69.4553 55.4559C69.4953 55.5749 69.5383 55.6949 69.5873 55.8099C69.6584 55.9302 69.7674 56.0235 69.8973 56.0749C70.0619 56.1544 70.2459 56.1849 70.4273 56.1629H71.3113V54.0379H70.4273C70.2464 54.0386 70.0668 54.0683 69.8953 54.1259L69.8973 54.1279ZM36.7303 57.8459V57.7529H35.7093V57.3529H36.7263V56.7399H35.8423C35.5852 56.7492 35.3289 56.7042 35.0903 56.6079C34.9042 56.5262 34.7381 56.4051 34.6033 56.2529C34.4787 56.1005 34.4018 55.9148 34.3823 55.7189C34.3327 55.5305 34.3029 55.3375 34.2933 55.1429C34.3029 54.9487 34.3327 54.756 34.3823 54.5679C34.4394 54.3848 34.5134 54.2074 34.6033 54.0379C34.7377 53.8856 34.904 53.7647 35.0903 53.6839C35.3291 53.5881 35.5852 53.5431 35.8423 53.5519H36.7303V53.5069H37.2603V57.8459H36.7303ZM35.3103 54.1259C35.1986 54.2039 35.0951 54.2931 35.0013 54.3919C34.92 54.4925 34.8733 54.6167 34.8683 54.7459C34.8358 54.861 34.8209 54.9804 34.8243 55.0999C34.8191 55.2195 34.834 55.3392 34.8683 55.4539C34.9083 55.5729 34.9523 55.6929 35.0013 55.8079C35.072 55.9281 35.1807 56.0214 35.3103 56.0729C35.4756 56.1524 35.6602 56.1829 35.8423 56.1609H36.7303V54.0379H35.8423C35.6614 54.0387 35.4818 54.0685 35.3103 54.1259ZM75.6663 56.6059C75.4802 56.5246 75.3141 56.4038 75.1793 56.2519C75.0562 56.1003 74.9798 55.9161 74.9593 55.7219C74.9093 55.5323 74.8798 55.3378 74.8713 55.1419C74.8799 54.9476 74.9094 54.7548 74.9593 54.5669C75.0161 54.3838 75.0898 54.2064 75.1793 54.0369C75.3136 53.8845 75.4799 53.7636 75.6663 53.6829C75.9051 53.587 76.1612 53.5421 76.4183 53.5509H76.5503C76.8077 53.5383 77.0647 53.5834 77.3023 53.6829C77.4895 53.7617 77.6559 53.8829 77.7883 54.0369C77.9158 54.1861 77.9934 54.3714 78.0103 54.5669C78.0636 54.7541 78.0932 54.9473 78.0983 55.1419C78.0933 55.3368 78.0637 55.5304 78.0103 55.7179C77.9561 55.9022 77.8817 56.08 77.7883 56.2479C77.6559 56.4019 77.4895 56.5231 77.3023 56.6019C77.0629 56.6954 76.8073 56.7406 76.5503 56.7349H76.4183H76.3543C76.1189 56.7371 75.8852 56.6937 75.6663 56.6069V56.6059ZM75.8863 54.1699C75.7745 54.2474 75.6709 54.3362 75.5773 54.4349C75.496 54.5355 75.4493 54.6597 75.4443 54.7889C75.4125 54.9044 75.3987 55.0242 75.4033 55.1439C75.3978 55.2652 75.4127 55.3865 75.4473 55.5029C75.4873 55.6219 75.5313 55.7409 75.5803 55.8569C75.651 55.9771 75.7598 56.0703 75.8893 56.1219C76.0546 56.2015 76.2392 56.2321 76.4213 56.2099H76.5533C76.7337 56.2089 76.9127 56.1785 77.0833 56.1199C77.1959 56.043 77.2998 55.9541 77.3933 55.8549C77.4776 55.7561 77.5243 55.6308 77.5253 55.5009C77.5626 55.3868 77.5779 55.2667 77.5703 55.1469C77.579 55.0274 77.5637 54.9074 77.5253 54.7939C77.49 54.6728 77.4459 54.5545 77.3933 54.4399C77.3267 54.316 77.2161 54.2215 77.0833 54.1749C76.9192 54.0938 76.7349 54.0629 76.5533 54.0859H76.4213C76.2396 54.085 76.0589 54.1127 75.8863 54.1699ZM65.8403 56.6069C65.6547 56.5259 65.4891 56.405 65.3553 56.2529C65.2311 56.1018 65.1539 55.9175 65.1333 55.7229C65.0842 55.5331 65.0548 55.3387 65.0453 55.1429C65.0541 54.9487 65.0836 54.7559 65.1333 54.5679C65.1902 54.3845 65.2645 54.207 65.3553 54.0379C65.4888 53.8855 65.6545 53.7646 65.8403 53.6839C66.0805 53.5882 66.3379 53.5432 66.5963 53.5519H68.1443V54.0379H66.5963C66.4443 54.0342 66.2933 54.0642 66.1543 54.1259C66.0321 54.1738 65.9241 54.2519 65.8403 54.3529C65.7675 54.4312 65.7078 54.5207 65.6633 54.6179C65.6183 54.7059 65.6183 54.8389 65.5743 54.9279H68.1433V55.3699H65.5623C65.5712 55.4778 65.6015 55.5828 65.6513 55.6789C65.6961 55.776 65.7558 55.8654 65.8283 55.9439C65.9147 56.0281 66.021 56.089 66.1373 56.1209C66.2787 56.175 66.428 56.2054 66.5793 56.2109H68.1323V56.6969H66.5833V56.7409H66.5963H66.5323C66.2952 56.7411 66.0602 56.6956 65.8403 56.6069ZM57.9213 56.6069C57.7352 56.5256 57.5691 56.4048 57.4343 56.2529C57.3109 56.1013 57.2342 55.9172 57.2133 55.7229C57.1635 55.5332 57.134 55.3388 57.1253 55.1429C57.1341 54.9486 57.1636 54.7559 57.2133 54.5679C57.2704 54.3848 57.3444 54.2074 57.4343 54.0379C57.5686 53.8855 57.7349 53.7646 57.9213 53.6839C58.1598 53.5881 58.4155 53.5432 58.6723 53.5519H60.2253V54.0379H58.6723C58.5205 54.0367 58.3701 54.0666 58.2303 54.1259C58.1108 54.176 58.0049 54.2538 57.9213 54.3529C57.8482 54.4309 57.7884 54.5205 57.7443 54.6179C57.6993 54.7059 57.6993 54.8389 57.6563 54.9279H60.2253V55.3699H57.6653C57.6746 55.4776 57.7045 55.5825 57.7533 55.6789C57.7981 55.7759 57.8579 55.8654 57.9303 55.9439C58.0167 56.0281 58.123 56.089 58.2393 56.1209C58.3811 56.175 58.5307 56.2054 58.6823 56.2109H60.2553V56.6969H58.7033V56.7409H58.6713H58.6033C58.3695 56.7404 58.138 56.6949 57.9213 56.6069ZM47.5683 56.6069C47.3826 56.5255 47.2168 56.4047 47.0823 56.2529C46.9584 56.1016 46.8816 55.9174 46.8613 55.7229C46.8124 55.533 46.7826 55.3387 46.7723 55.1429C46.7814 54.9486 46.8112 54.7559 46.8613 54.5679C46.9189 54.3849 46.9928 54.2076 47.0823 54.0379C47.2164 53.8857 47.3823 53.7649 47.5683 53.6839C47.8071 53.5882 48.0632 53.5433 48.3203 53.5519H48.4533C48.7104 53.5392 48.967 53.5843 49.2043 53.6839C49.3921 53.7622 49.5589 53.8834 49.6913 54.0379C49.8178 54.1877 49.8953 54.3727 49.9133 54.5679C49.9671 54.755 49.9967 54.9483 50.0013 55.1429C49.9951 55.3377 49.9655 55.5311 49.9133 55.7189C49.8583 55.9029 49.7838 56.0806 49.6913 56.2489C49.5589 56.4034 49.3921 56.5246 49.2043 56.6029C48.9652 56.6963 48.71 56.7415 48.4533 56.7359H48.3163H48.2523C48.0182 56.7372 47.7859 56.6934 47.5683 56.6069ZM47.8473 54.1709C47.735 54.2481 47.6311 54.3369 47.5373 54.4359C47.455 54.5364 47.408 54.6611 47.4033 54.7909C47.3704 54.9056 47.3552 55.0246 47.3583 55.1439C47.3533 55.2649 47.3685 55.3859 47.4033 55.5019C47.4433 55.6209 47.4863 55.7399 47.5353 55.8559C47.6062 55.9764 47.7153 56.0697 47.8453 56.1209C48.0099 56.2004 48.1939 56.231 48.3753 56.2089H48.4953C48.6757 56.2079 48.8547 56.1775 49.0253 56.1189C49.1378 56.0419 49.2417 55.953 49.3353 55.8539C49.4197 55.7551 49.4667 55.6298 49.4683 55.4999C49.5045 55.3856 49.5191 55.2656 49.5113 55.1459C49.5206 55.0265 49.506 54.9065 49.4683 54.7929C49.4322 54.672 49.3878 54.5537 49.3353 54.4389C49.2679 54.3156 49.1576 54.2213 49.0253 54.1739C48.8612 54.0929 48.6769 54.0619 48.4953 54.0849H48.3753C48.1958 54.0848 48.0175 54.1139 47.8473 54.1709ZM14.9213 56.6079C14.7358 56.5237 14.5689 56.4033 14.4303 56.2539C14.3072 56.1023 14.2308 55.9181 14.2103 55.7239C14.1603 55.5343 14.1308 55.3398 14.1223 55.1439C14.1309 54.9496 14.1604 54.7568 14.2103 54.5689C14.2669 54.3857 14.3406 54.2083 14.4303 54.0389C14.5647 53.8866 14.731 53.7657 14.9173 53.6849C15.1521 53.5918 15.4028 53.5453 15.6553 53.5479H16.5143V53.5079H17.0443V56.7399H16.5143V56.6399H15.6383V56.7279L15.6743 56.7369H15.6103C15.3745 56.7385 15.1406 56.6947 14.9213 56.6079ZM15.0633 54.1229C14.9511 54.2002 14.8472 54.289 14.7533 54.3879C14.6727 54.4888 14.6265 54.6129 14.6213 54.7419C14.5894 54.8571 14.5746 54.9764 14.5773 55.0959C14.5718 55.2155 14.5867 55.3353 14.6213 55.4499C14.6613 55.5689 14.7043 55.6889 14.7533 55.8039C14.8246 55.9242 14.9336 56.0177 15.0633 56.0699C15.2281 56.1487 15.4118 56.1796 15.5933 56.1589H16.5133V54.0339H15.5933C15.4131 54.0353 15.2342 54.0653 15.0633 54.1229ZM10.5843 56.6079C10.361 56.5271 10.1627 56.3892 10.0093 56.2079C9.84143 56.0344 9.71972 55.8216 9.65533 55.5889C9.5674 55.3462 9.52239 55.09 9.52233 54.8319V54.3529C9.52236 54.0964 9.56737 53.8419 9.65533 53.6009C9.72763 53.3703 9.84794 53.1577 10.0083 52.9769C10.1696 52.8045 10.3656 52.6682 10.5833 52.5769C10.8386 52.4804 11.1106 52.4356 11.3833 52.4449H13.2413V52.9329H11.3793C11.1793 52.9282 10.9813 52.9736 10.8033 53.0649C10.6456 53.1322 10.5079 53.239 10.4033 53.3749C10.2897 53.5055 10.2 53.6552 10.1383 53.8169C10.0892 53.9917 10.0607 54.1715 10.0533 54.3529V54.8389C10.0579 55.0195 10.0879 55.1986 10.1423 55.3709C10.1871 55.538 10.2775 55.6893 10.4033 55.8079C10.5279 55.9233 10.6617 56.0283 10.8033 56.1219C10.9818 56.211 11.1788 56.2566 11.3783 56.2549H12.7033V54.3529H13.2353V56.7359H11.3793H11.3373C11.0808 56.7375 10.8259 56.6942 10.5843 56.6079ZM3.46433 56.6079C3.24079 56.527 3.04225 56.3891 2.88833 56.2079C2.72091 56.0341 2.59927 55.8214 2.53433 55.5889C2.4475 55.3467 2.40318 55.0912 2.40333 54.8339V54.3529C2.40277 54.0964 2.44745 53.8419 2.53533 53.6009C2.6088 53.3708 2.72898 53.1584 2.88833 52.9769C3.04987 52.8043 3.24619 52.668 3.46433 52.5769C3.71819 52.4817 3.98835 52.4375 4.25933 52.4469H5.80333V52.9329H4.25933C4.05987 52.9284 3.86248 52.9742 3.68533 53.0659C3.5278 53.1335 3.39013 53.2402 3.28533 53.3759C3.17155 53.5064 3.08183 53.6561 3.02033 53.8179C2.94915 53.9868 2.91932 54.1702 2.93333 54.3529H5.80333V54.8389H2.93333C2.93807 55.0194 2.96768 55.1985 3.02133 55.3709C3.07852 55.5348 3.16871 55.6852 3.28633 55.8129C3.41095 55.9282 3.54472 56.0332 3.68633 56.1269C3.86447 56.2159 4.06117 56.2615 4.26033 56.2599H5.80333V56.7449H4.21833C3.96091 56.7437 3.70571 56.6973 3.46433 56.6079ZM72.7473 56.7399V53.5069H74.2473V53.9939H73.2783V56.7399H72.7473ZM63.7623 56.7399V55.0529C63.7709 54.9331 63.7556 54.8128 63.7173 54.6989C63.6733 54.5659 63.6293 54.4769 63.5853 54.3449C63.4937 54.243 63.3892 54.1536 63.2743 54.0789C63.1037 54.0204 62.9246 53.9907 62.7443 53.9909H62.5673C62.3871 53.992 62.2082 54.0217 62.0373 54.0789C61.9156 54.1436 61.8097 54.2344 61.7273 54.3449C61.6399 54.4418 61.5927 54.5684 61.5953 54.6989C61.5631 54.8141 61.5479 54.9333 61.5503 55.0529V56.7399H61.0203V55.0529C61.0304 54.8588 61.0599 54.6662 61.1083 54.4779C61.1567 54.3059 61.2313 54.1423 61.3293 53.9929C61.4633 53.8406 61.6293 53.7197 61.8153 53.6389C62.0538 53.5422 62.3101 53.4969 62.5673 53.5059H62.7443C63.0017 53.4941 63.2586 53.5395 63.4963 53.6389C63.684 53.7168 63.8506 53.8381 63.9823 53.9929C64.101 54.13 64.1777 54.2984 64.2033 54.4779C64.2571 54.665 64.2867 54.8583 64.2913 55.0529V56.7399H63.7623ZM53.4543 55.0529C53.4636 54.9331 53.4483 54.8126 53.4093 54.6989C53.3663 54.5659 53.3223 54.4769 53.2773 54.3449C53.1855 54.2437 53.0814 54.1543 52.9673 54.0789C52.7964 54.0204 52.617 53.9907 52.4363 53.9909H52.2593C52.0791 53.992 51.9002 54.0217 51.7293 54.0789C51.6052 54.1447 51.498 54.2385 51.4163 54.3529C51.3292 54.4501 51.2818 54.5764 51.2833 54.7069C51.251 54.822 51.2365 54.9414 51.2403 55.0609V56.7399H50.7093V55.0529C50.7185 54.8586 50.7484 54.6659 50.7983 54.4779C50.8509 54.3033 50.9298 54.1377 51.0323 53.9869C51.1658 53.8345 51.3315 53.7136 51.5173 53.6329C51.756 53.5368 52.0122 53.4918 52.2693 53.5009H52.4463C52.7051 53.4867 52.9637 53.5319 53.2023 53.6329C53.3901 53.7112 53.5569 53.8324 53.6893 53.9869C53.8083 54.1247 53.8854 54.2937 53.9113 54.4739C53.9651 54.661 53.9943 54.8543 53.9983 55.0489V56.7359H53.4553L53.4543 55.0529ZM45.4903 56.7399V54.3029C45.4902 54.1227 45.4608 53.9437 45.4033 53.7729C45.3613 53.6024 45.2689 53.4484 45.1383 53.3309C45.0175 53.2126 44.8833 53.1089 44.7383 53.0219C44.5617 52.9288 44.3639 52.883 44.1643 52.8889H43.3643V56.7399H42.8333V52.8939H42.0333C41.8337 52.8894 41.636 52.9347 41.4583 53.0259C41.3009 53.0937 41.1633 53.2004 41.0583 53.3359C40.9604 53.4771 40.8722 53.6248 40.7943 53.7779C40.7225 53.9449 40.6916 54.1266 40.7043 54.3079V56.7399H40.1733V54.3079C40.1732 54.0514 40.2182 53.7968 40.3063 53.5559C40.3798 53.3271 40.5004 53.1163 40.6603 52.9369C40.8217 52.765 41.0172 52.6288 41.2343 52.5369C41.4897 52.4407 41.7616 52.3959 42.0343 52.4049H44.1173C44.3885 52.3951 44.6589 52.44 44.9123 52.5369C45.1367 52.6162 45.3357 52.7543 45.4883 52.9369C45.6595 53.1079 45.7817 53.3216 45.8423 53.5559C45.9356 53.7954 45.9808 54.0509 45.9753 54.3079V56.7399H45.4903ZM33.0123 56.7399V55.0529C33.0209 54.9331 33.0056 54.8128 32.9673 54.6989C32.9233 54.5659 32.8793 54.4769 32.8353 54.3449C32.7434 54.2434 32.6389 54.154 32.5243 54.0789C32.3609 54.0215 32.1895 53.9901 32.0163 53.9859H31.8393C31.6588 53.9869 31.4795 54.0166 31.3083 54.0739C31.1873 54.1396 31.0817 54.2303 30.9983 54.3399C30.9115 54.4372 30.8644 54.5635 30.8663 54.6939C30.8343 54.8091 30.8194 54.9284 30.8223 55.0479V56.7359H30.3363V55.0529C30.3452 54.8587 30.3747 54.6659 30.4243 54.4779C30.4719 54.3056 30.5465 54.1419 30.6453 53.9929C30.7793 53.8405 30.9452 53.7197 31.1313 53.6389C31.3698 53.5421 31.6261 53.4968 31.8833 53.5059H32.0603C32.3171 53.4941 32.5733 53.5396 32.8103 53.6389C32.9983 53.7168 33.1652 53.8381 33.2973 53.9929C33.4163 54.1297 33.4927 54.2983 33.5173 54.4779C33.5719 54.6649 33.6018 54.8582 33.6063 55.0529V56.7399H33.0123ZM28.9483 56.7399V53.5069H29.4753V56.7399H28.9483ZM27.5953 56.7399V52.3579H28.1263L28.1033 56.7399H27.5953ZM22.2883 56.7399V55.0529C22.2983 54.9332 22.2837 54.8127 22.2453 54.6989C22.2003 54.5659 22.1573 54.4769 22.1123 54.3449C22.0214 54.2431 21.9175 54.1537 21.8033 54.0789C21.6327 54.0207 21.4536 53.9909 21.2733 53.9909H20.5633V56.7399H20.0503V53.9889H19.3433C19.1631 53.99 18.9842 54.0197 18.8133 54.0769C18.6919 54.1419 18.5861 54.2327 18.5033 54.3429C18.4159 54.4398 18.3687 54.5664 18.3713 54.6969C18.3382 54.8119 18.323 54.9313 18.3263 55.0509V56.7359H17.8033V55.0529C17.812 54.8586 17.8415 54.6659 17.8913 54.4779C17.9392 54.3058 18.0134 54.1422 18.1113 53.9929C18.2461 53.841 18.4122 53.7202 18.5983 53.6389C18.8368 53.5421 19.0931 53.4968 19.3503 53.5059H21.2953C21.5527 53.4941 21.8096 53.5395 22.0473 53.6389C22.235 53.7164 22.4013 53.8378 22.5323 53.9929C22.6515 54.1298 22.7286 54.2982 22.7543 54.4779C22.8077 54.6651 22.8372 54.8583 22.8423 55.0529V56.7399H22.2883ZM25.1883 56.6969H23.6883V52.3529H24.2183L24.1743 53.5039H25.1913C25.4487 53.492 25.7056 53.5375 25.9433 53.6369C26.1306 53.7151 26.2967 53.8364 26.4283 53.9909C26.5559 54.14 26.6336 54.3254 26.6503 54.5209C26.7041 54.7081 26.734 54.9013 26.7393 55.0959C26.7339 55.2902 26.704 55.4831 26.6503 55.6699C26.5964 55.855 26.522 56.0334 26.4283 56.2019C26.2954 56.3557 26.1297 56.4777 25.9433 56.5589C25.7159 56.6468 25.4742 56.6922 25.2303 56.6929L25.1883 56.6969ZM25.2313 56.1969C25.4123 56.1968 25.592 56.1671 25.7633 56.1089C25.8749 56.031 25.9784 55.9423 26.0723 55.8439C26.1562 55.7448 26.2032 55.6197 26.2053 55.4899C26.2396 55.3735 26.2541 55.2521 26.2483 55.1309C26.2586 55.0112 26.2439 54.8907 26.2053 54.7769C26.1692 54.656 26.1248 54.5377 26.0723 54.4229C26.0049 54.3 25.8951 54.2058 25.7633 54.1579C25.5983 54.0774 25.4134 54.0468 25.2313 54.0699H24.1683V56.2009L25.2313 56.1969ZM55.3063 56.6969V53.9529H54.7313L54.7403 53.5109H55.3143V52.3579H55.8363V53.4639H56.4033V53.9529H55.8333V56.6969H55.3063ZM6.75033 54.9669V54.4799H8.63733V54.9669H6.75033ZM28.9473 52.8889V52.3579H29.4743V52.8889H28.9473Z" fill="black"/>
<defs>
<radialGradient id="paint0_radial_2164_3532" cx="0" cy="0" r="1" gradientUnits="userSpaceOnUse" gradientTransform="translate(36.004 -303.55) scale(16.0038 16.013)">
<stop stop-color="#EB5023"/>
<stop offset="0.85" stop-color="#D71921"/>
</radialGradient>
</defs>
</svg>
