<svg xmlns="http://www.w3.org/2000/svg" width="20" height="20" viewBox="0 0 20 20"><defs><style>.a{fill:#222;}.b{fill:none;}</style></defs><g transform="translate(-459 -1054)"><path class="a" d="M6.654,14a9.4,9.4,0,0,1-4.839-1.019A3.711,3.711,0,0,1,0,9.923a3.516,3.516,0,0,1,1.17-2.913A3.971,3.971,0,0,1,.13,4.5,3.582,3.582,0,0,1,1.2,1.682C2.307.625,4.3.059,7.133,0c2.683.012,4.587.528,5.66,1.535A3.582,3.582,0,0,1,13.87,4.384a3.977,3.977,0,0,1-1.042,2.509A3.517,3.517,0,0,1,14,9.805a3.854,3.854,0,0,1-1.8,3.141A8.966,8.966,0,0,1,7.43,13.993h-.2C7.032,14,6.84,14,6.654,14ZM4.667,10.019c.061.676.711,1.019,1.933,1.019.132,0,.272,0,.417-.012,1.469,0,2.249-.38,2.316-1.129H9.322c-.015-.824-.783-1.255-2.282-1.282-1.552.108-2.347.58-2.362,1.4Zm2.4-6.788c-1.374.1-2.078.54-2.093,1.305.034.563.637.848,1.792.848.107,0,.219,0,.336-.007,1.441-.018,2.191-.34,2.229-.955C9.318,3.657,8.557,3.256,7.071,3.231Z" transform="translate(462 1057)"/><rect class="b" width="20" height="20" transform="translate(459 1054)"/></g></svg>