<svg xmlns="http://www.w3.org/2000/svg" width="20" height="20" viewBox="0 0 20 20"><defs><style>.a{fill:#222;}.b{fill:none;}</style></defs><g transform="translate(-458 -961)"><path class="a" d="M10.222,10.5A7.825,7.825,0,0,1,6.363,9.409,11.141,11.141,0,0,1,3.589,7.165L.859,9.333a.529.529,0,0,1-.331.117.544.544,0,0,1-.43-.21.471.471,0,0,1-.087-.389l.756-3.6-.755-3.6A.471.471,0,0,1,.1,1.26a.543.543,0,0,1,.43-.21.53.53,0,0,1,.332.117L3.589,3.335A11.143,11.143,0,0,1,6.363,1.091,7.825,7.825,0,0,1,10.222,0a8.941,8.941,0,0,1,5.5,2.231C17.129,3.412,18,4.718,18,5.25s-.871,1.838-2.278,3.019A8.941,8.941,0,0,1,10.222,10.5Zm2.732-6.037a.788.788,0,1,0,.75.787A.77.77,0,0,0,12.954,4.463Z" transform="translate(459 966)"/><rect class="b" width="20" height="20" transform="translate(458 961)"/></g></svg>