<svg id="icon-external-link" xmlns="http://www.w3.org/2000/svg" width="24" height="24" viewBox="0 0 24 24">
  <rect id="wrap" width="24" height="24" fill="none"/>
  <path id="路径_8437" data-name="路径 8437" d="M10.687,5.625a1.687,1.687,0,0,1,1.687,1.687v9A1.687,1.687,0,0,1,10.687,18h-9A1.687,1.687,0,0,1,0,16.313v-9A1.687,1.687,0,0,1,1.687,5.625Zm0,1.687h-9v9h9ZM9,14.063H3.375V12.375H9ZM16.313,0A1.687,1.687,0,0,1,18,1.687v9a1.687,1.687,0,0,1-1.687,1.687H13.5V10.687h2.812v-9h-9V4.5H5.625V1.687A1.687,1.687,0,0,1,7.313,0ZM9,11.25H3.375V9.562H9Z" transform="translate(3 3)" fill="#fe0"/>
  <rect id="矩形_16943" data-name="矩形 16943" width="18.133" height="18.133" transform="translate(2.934 2.934)" fill="none"/>
</svg>
