<svg id="Copy_icon" data-name="Copy icon" xmlns="http://www.w3.org/2000/svg" width="16" height="16" viewBox="0 0 16 16">
  <rect id="Rectangle_5459" data-name="Rectangle 5459" width="16" height="16" fill="#00a6ff" opacity="0"/>
  <path id="Union_3" data-name="Union 3" d="M1390.982-2742a.962.962,0,0,1-.983-.934v-9.8a.962.962,0,0,1,.983-.933h9.5a.961.961,0,0,1,.982.933v9.8a.962.962,0,0,1-.982.934Zm.328-1.245h8.842v-9.177h-8.842Zm11.38-1.088v-10.422h-10.152v-.311a.962.962,0,0,1,.983-.933h9.5a.961.961,0,0,1,.983.933v9.8a.962.962,0,0,1-.983.934Zm-9.17-1.633a.481.481,0,0,1-.491-.467v-.311a.481.481,0,0,1,.491-.467h2.948a.48.48,0,0,1,.49.467v.311a.48.48,0,0,1-.49.467Zm0-3.033a.481.481,0,0,1-.491-.467v-.311a.481.481,0,0,1,.491-.466h4.421a.481.481,0,0,1,.491.466v.311a.481.481,0,0,1-.491.467Z" transform="translate(-1389 2757.002)" fill="#00a6ff"/>
</svg>
