<svg xmlns="http://www.w3.org/2000/svg" width="17" height="17.001" viewBox="0 0 17 17.001">
  <g id="check" transform="translate(0.5 0.501)">
    <path id="c" d="M0,8a8,8,0,1,1,8,8A8.009,8.009,0,0,1,0,8ZM1.549,8A6.451,6.451,0,1,0,8,1.548,6.457,6.457,0,0,0,1.549,8Zm4.856,3.819L3.478,8.867a.387.387,0,0,1,0-.548l.733-.726a.387.387,0,0,1,.548,0L6.689,9.538l4.559-4.523a.388.388,0,0,1,.547,0l.727.733a.389.389,0,0,1,0,.548L6.953,11.821a.389.389,0,0,1-.548,0Z" fill="#ccc" stroke="rgba(0,0,0,0)" stroke-width="1"/>
  </g>
</svg>
