<svg xmlns="http://www.w3.org/2000/svg" xmlns:xlink="http://www.w3.org/1999/xlink" width="80" height="80" viewBox="0 0 80 80">
  <defs>
    <clipPath id="clip-path">
      <rect id="Rectangle_16942" data-name="Rectangle 16942" width="35.3" height="53.187" fill="none"/>
    </clipPath>
  </defs>
  <g id="head" transform="translate(-0.5)">
    <path id="avator" d="M40,0A40,40,0,1,1,0,40,40,40,0,0,1,40,0Z" transform="translate(0.5)" fill="#efeff4"/>
    <g id="Group_13234" data-name="Group 13234" transform="translate(22.5 14.407)">
      <g id="Group_13233" data-name="Group 13233" transform="translate(0 0)" clip-path="url(#clip-path)">
        <path id="Path_8427" data-name="Path 8427" d="M35.3,47.77v4.5a.918.918,0,0,1-.916.916H.916A.918.918,0,0,1,0,52.27v-4.5a8.548,8.548,0,0,1,8.548-8.546,4.741,4.741,0,0,0,3.985-2.162A5.381,5.381,0,0,0,13.3,33.7l.016-.043A11.345,11.345,0,0,1,6.3,23.172v-.358a2.828,2.828,0,0,1-2.864-2.79V15.239A15.862,15.862,0,0,1,7.7,3.659C12.613-1.074,20.4-.688,26.036,1.843a.229.229,0,0,1,.121.3.218.218,0,0,1-.121.121l-1.471.614a.229.229,0,0,0,.063.44l.714.078a11.565,11.565,0,0,1,8.632,5.421.071.071,0,0,1-.012.084,6.933,6.933,0,0,0-1.986,4.848v6.1a2.979,2.979,0,0,1-2.984,2.972h0v.358a11.345,11.345,0,0,1-7.008,10.488L22,33.7a5.381,5.381,0,0,0,.763,3.359,4.741,4.741,0,0,0,3.985,2.162,8.548,8.548,0,0,1,8.548,8.546Z" transform="translate(0 0)" fill="#ffd6a6"/>
        <path id="Path_8428" data-name="Path 8428" d="M32.219,8.81a.069.069,0,0,1-.012.084,6.936,6.936,0,0,0-1.98,4.854v6.094a2.979,2.979,0,0,1-2.978,2.978h0V16.565a.915.915,0,0,0-.918-.914.886.886,0,0,0-.264.039,12.3,12.3,0,0,1-6.268.368c-3.987-.867-5.114-2.428-8.366-3.209A5.584,5.584,0,0,0,4.524,18.32c0,1.17.027,2.633.029,4.5a2.828,2.828,0,0,1-2.864-2.79V15.239A15.862,15.862,0,0,1,5.952,3.659c4.909-4.735,12.7-4.347,18.334-1.814a.229.229,0,0,1,.121.3.218.218,0,0,1-.121.121l-1.471.614a.229.229,0,0,0,.063.44l.714.076a11.562,11.562,0,0,1,8.632,5.421Z" transform="translate(1.748 0)" fill="#42434d"/>
        <path id="Path_8429" data-name="Path 8429" d="M24.607,9.2a.913.913,0,0,1,1.141.605.929.929,0,0,1,.041.27V16.69A11.347,11.347,0,1,1,3.1,16.712V16.69c0-2.093-.02-3.578-.029-4.858A5.58,5.58,0,0,1,9.973,6.36c3.252.781,4.38,2.342,8.366,3.209A12.3,12.3,0,0,0,24.607,9.2" transform="translate(3.207 6.483)" fill="#ffdfba"/>
        <path id="Path_8430" data-name="Path 8430" d="M35.3,28.826v4.5a.918.918,0,0,1-.916.916H.916A.918.918,0,0,1,0,33.326v-4.5a8.548,8.548,0,0,1,8.548-8.546,4.741,4.741,0,0,0,3.985-2.162,7.868,7.868,0,0,0,10.228,0,4.741,4.741,0,0,0,3.985,2.162,8.548,8.548,0,0,1,8.548,8.546Z" transform="translate(0 18.943)" fill="#00a6ff"/>
        <path id="Path_8431" data-name="Path 8431" d="M15.044,25.989H12.293a.921.921,0,1,1,0-1.841h2.751a.921.921,0,1,1,0,1.841" transform="translate(11.89 25.249)" fill="#fff"/>
        <path id="Path_8432" data-name="Path 8432" d="M13.166,23.052a4.686,4.686,0,0,1-1.366.2,8.57,8.57,0,0,0-8.591,8.518v.861a1.6,1.6,0,0,1-1.6,1.6H.917A.918.918,0,0,1,0,33.323v-4.5a8.548,8.548,0,0,1,8.548-8.546,4.741,4.741,0,0,0,3.985-2.162,8.021,8.021,0,0,0,1.09.781,2.288,2.288,0,0,1-.458,4.157" transform="translate(0.001 18.94)" fill="#4ac0ff"/>
        <path id="Path_8433" data-name="Path 8433" d="M11.634,23.052a4.686,4.686,0,0,0,1.366.2,8.57,8.57,0,0,1,8.591,8.518v.861a1.6,1.6,0,0,0,1.6,1.6h.687a.918.918,0,0,0,.916-.916v-4.5a8.548,8.548,0,0,0-8.548-8.546,4.741,4.741,0,0,1-3.985-2.162,8.021,8.021,0,0,1-1.09.781,2.288,2.288,0,0,0,.458,4.157" transform="translate(10.499 18.94)" fill="#0792dc"/>
        <path id="Path_8434" data-name="Path 8434" d="M15.406,18.38a11.386,11.386,0,0,1-8.97,0A7.09,7.09,0,0,0,6.565,16.5l.016-.043a11.361,11.361,0,0,0,8.675,0l.016.043a7.172,7.172,0,0,0,.133,1.882" transform="translate(6.729 17.205)" fill="#f7c388"/>
        <path id="Path_8435" data-name="Path 8435" d="M24.278,2.266c-1.08.444-1.319.6-1.816.52C13.369,1.289,6.21,6.042,5.228,15.342a1.391,1.391,0,0,1-.131.47,8.2,8.2,0,0,0-.558,4.218,1.432,1.432,0,0,1-2.847.121V15.241A15.862,15.862,0,0,1,5.954,3.661c4.909-4.735,12.7-4.347,18.334-1.814a.229.229,0,0,1,.121.3.218.218,0,0,1-.121.121Z" transform="translate(1.75 0.002)" fill="#4d4e59"/>
        <path id="Path_8436" data-name="Path 8436" d="M11.876,23.04a1.812,1.812,0,0,1-1.649,3.209A11.349,11.349,0,0,1,3.1,15.712c0-2.095-.02-3.574-.029-4.858a5.587,5.587,0,0,1,.916-3.111,1.379,1.379,0,0,1,2.52.818c0,1.291.029,2.762.029,4.858a11.269,11.269,0,0,0,5.343,9.62" transform="translate(3.208 7.462)" fill="#ffebd2"/>
      </g>
    </g>
  </g>
</svg>
