<svg id="icon-reject" xmlns="http://www.w3.org/2000/svg" width="60" height="60" viewBox="0 0 60 60">
  <rect id="wrap" width="60" height="60" fill="none"/>
  <path id="Fill_1" data-name="Fill 1" d="M30,60A30.008,30.008,0,0,1,18.323,2.358,30.008,30.008,0,0,1,41.678,57.643,29.811,29.811,0,0,1,30,60Zm1.481-45.506c-2.228,0-3.491,1.046-4.223,3.5l-.018.068a10.622,10.622,0,0,1-1.9,4.4A4.8,4.8,0,0,1,21.7,24.251l-.667.014a2.894,2.894,0,0,0-2.025.884,2.94,2.94,0,0,0-.834,2.06v9.663a3.558,3.558,0,0,0,3.54,3.568H34.258a6.132,6.132,0,0,0,5.75-4.072l2.605-7.285a3.58,3.58,0,0,0-2.129-4.567,3.516,3.516,0,0,0-1.2-.212H33.835c.5-2.225.854-3.873,1.059-4.9a4.454,4.454,0,0,0-.765-3.718A3.3,3.3,0,0,0,31.482,14.495Z" fill="#42d200"/>
</svg>
