<svg id="icon-warn" xmlns="http://www.w3.org/2000/svg" width="60" height="60" viewBox="0 0 60 60">
  <rect id="wrap" width="60" height="60" fill="none"/>
  <path id="Fill_1" data-name="Fill 1" d="M30,60A30.008,30.008,0,0,1,18.323,2.358,30.008,30.008,0,0,1,41.678,57.643,29.811,29.811,0,0,1,30,60Zm.112-21.226a3.281,3.281,0,0,0,0,6.563,3.35,3.35,0,0,0,3.281-3.281A3.285,3.285,0,0,0,30.112,38.775Zm-.225-24.169a3.75,3.75,0,0,0-3.637,3.75l1.068,15.15a4.769,4.769,0,0,0,.673,2.67,2.416,2.416,0,0,0,2.121,1.081,2.443,2.443,0,0,0,2.122-1.109,4.753,4.753,0,0,0,.673-2.642l.843-15.15A3.9,3.9,0,0,0,29.887,14.606Z" fill="#ffbe25"/>
</svg>
