<svg xmlns="http://www.w3.org/2000/svg" xmlns:xlink="http://www.w3.org/1999/xlink" width="20" height="20" viewBox="0 0 20 20">
  <defs>
    <clipPath id="clip-path">
      <rect id="Rectangle_3" data-name="Rectangle 3" width="20" height="20" transform="translate(0)" fill="none"/>
    </clipPath>
  </defs>
  <g id="icons" transform="translate(-305 -245)">
    <g id="Group_15" data-name="Group 15" transform="translate(305 245)" clip-path="url(#clip-path)">
      <path id="Path_2" data-name="Path 2" d="M17.315,2.233H15.982V1.177A.279.279,0,0,0,15.7.9h-.767a.276.276,0,0,0-.282.274V2.233H5.328V1.177A.279.279,0,0,0,5.045.9H4.278A.276.276,0,0,0,4,1.177V2.233H2.663A2.659,2.659,0,0,0,0,4.89v13.3a2.662,2.662,0,0,0,2.663,2.658H17.315a2.659,2.659,0,0,0,2.663-2.658V4.89a2.663,2.663,0,0,0-2.663-2.658m1.331,15.96a1.328,1.328,0,0,1-1.331,1.328H2.663a1.332,1.332,0,0,1-1.331-1.328V7.552H18.646Zm0-11.971H1.332V4.89A1.328,1.328,0,0,1,2.663,3.563H4V4.618a.279.279,0,0,0,.282.274h.767a.276.276,0,0,0,.282-.274V3.563h9.323V4.618a.279.279,0,0,0,.282.274H15.7a.276.276,0,0,0,.282-.274V3.563h1.332A1.332,1.332,0,0,1,18.646,4.89V6.222Z" transform="translate(-0.003 -0.878)" fill="#989493"/>
    </g>
  </g>
</svg>
