<svg width="18" height="18" fill="none" xmlns="http://www.w3.org/2000/svg">
    <path d="M9 0a8.99 8.99 0 0 0-9 9c0 4.979 4.021 9 9 9s9-4.021 9-9-4.021-9-9-9zm0 16.506c-4.136 0-7.506-3.37-7.506-7.506S4.864 1.494 9 1.494 16.506 4.864 16.506 9 13.136 16.506 9 16.506z" fill="#5F5D5E"/>
    <path d="M9.038 6.894a.768.768 0 0 0-.766.766v6.204c0 .421.345.766.766.766.421 0 .766-.345.766-.728V7.66a.768.768 0 0 0-.766-.766zM8.962 3.332a.768.768 0 0 0-.766.766v.728c0 .42.344.766.766.766.421 0 .727-.345.766-.766v-.728a.768.768 0 0 0-.766-.766z" fill="#5F5D5E"/>
</svg>
