<svg xmlns="http://www.w3.org/2000/svg" width="20" height="20" viewBox="0 0 20 20">
  <g id="Group_13289" data-name="Group 13289" transform="translate(-261 -556)">
    <g id="Rectangle_5514" data-name="Rectangle 5514" transform="translate(261 556)" fill="#fff" stroke="#707070" stroke-width="1" opacity="0">
      <rect width="20" height="20" stroke="none"/>
      <rect x="0.5" y="0.5" width="19" height="19" fill="none"/>
    </g>
    <path id="id-card" d="M65.768,192A1.7,1.7,0,0,0,64,193.6v7.45a1.7,1.7,0,0,0,1.768,1.6H78.732a1.7,1.7,0,0,0,1.768-1.6V193.6a1.7,1.7,0,0,0-1.768-1.6Zm0,1.064H78.732a.553.553,0,0,1,.589.532v7.45a.553.553,0,0,1-.589.532H65.768a.553.553,0,0,1-.589-.532V193.6A.553.553,0,0,1,65.768,193.064Zm3.536,1.064a2.258,2.258,0,0,0-2.357,2.129,2.027,2.027,0,0,0,.718,1.513,2.62,2.62,0,0,0-1.308,2.212h1.179a1.777,1.777,0,0,1,3.536,0H72.25a2.62,2.62,0,0,0-1.308-2.212,2.026,2.026,0,0,0,.718-1.513A2.258,2.258,0,0,0,69.3,194.129Zm4.125.532v1.064h4.714v-1.064Zm-4.125.532a1.07,1.07,0,1,1-1.179,1.064A1.117,1.117,0,0,1,69.3,195.193Zm4.125,1.6v1.064h4.714v-1.064Zm0,2.129v1.064h2.946v-1.064Z" transform="translate(199 368.52)" fill="#00a6ff"/>
  </g>
</svg>
