<svg xmlns="http://www.w3.org/2000/svg" width="32.371" height="33.651" viewBox="0 0 32.371 33.651">
  <g id="icon-error" transform="translate(-3.814 -4.174)">
    <g id="加载" transform="translate(3.814 4.174)">
      <path id="路径_3" data-name="路径 3" d="M596.957,135.64a1.793,1.793,0,1,0,1.793-1.793,1.793,1.793,0,0,0-1.793,1.793" transform="translate(-572.342 -128.328)" fill="#fff" opacity="0.1"/>
      <path id="路径_4" data-name="路径 4" d="M677.723,360.845a2.213,2.213,0,1,0,1.107-1.917,2.213,2.213,0,0,0-1.107,1.917" transform="translate(-649.778 -343.844)" fill="#fff" opacity="0.2"/>
      <path id="路径_5" data-name="路径 5" d="M579.293,587.888a2.605,2.605,0,1,0,1.3-2.256,2.605,2.605,0,0,0-1.3,2.256" transform="translate(-555.406 -561.149)" fill="#fff" opacity="0.3"/>
      <path id="路径_6" data-name="路径 6" d="M333.344,672.72a3.018,3.018,0,1,0,1.509-2.614,3.018,3.018,0,0,0-1.509,2.614" transform="translate(-319.599 -642.087)" fill="#fff" opacity="0.4"/>
      <path id="路径_7" data-name="路径 7" d="M92.172,566.59a3.361,3.361,0,1,0,3.361-3.361,3.362,3.362,0,0,0-3.361,3.361" transform="translate(-88.371 -540.005)" fill="#fff" opacity="0.5"/>
      <path id="路径_8" data-name="路径 8" d="M321.684,3.558A3.558,3.558,0,1,0,323.463.477a3.558,3.558,0,0,0-1.779,3.081" transform="translate(-308.42 0)" fill="#fff" opacity="0.8"/>
      <path id="路径_9" data-name="路径 9" d="M87.41,96.64a3.558,3.558,0,1,0,3.558-3.558A3.558,3.558,0,0,0,87.41,96.64" transform="translate(-83.806 -89.244)" fill="#fff" opacity="0.7"/>
      <path id="路径_10" data-name="路径 10" d="M0,330.769a3.39,3.39,0,1,0,3.39-3.39A3.39,3.39,0,0,0,0,330.769" transform="translate(0 -313.88)" fill="#fff" opacity="0.6"/>
    </g>
  </g>
</svg>
