<svg xmlns="http://www.w3.org/2000/svg" width="20" height="20" viewBox="0 0 20 20">
  <g id="Group_12804" data-name="Group 12804" transform="translate(-156 -556)">
    <g id="Rectangle_5518" data-name="Rectangle 5518" transform="translate(156 556)" fill="#fff" stroke="#707070" stroke-width="1" opacity="0">
      <rect width="20" height="20" stroke="none"/>
      <rect x="0.5" y="0.5" width="19" height="19" fill="none"/>
    </g>
    <g id="receipt" transform="translate(158.996 558.21)">
      <path id="Path_5411" data-name="Path 5411" d="M128,91.863a.8.8,0,0,1,1.247-.672l.072.055,1.094.911,1.126-.844a.8.8,0,0,1,.877-.058l.088.058,1.126.844,1.126-.844a.8.8,0,0,1,.877-.058l.088.058,1.126.844,1.126-.844a.8.8,0,0,1,.877-.058l.088.058,1.126.844,1.094-.911a.8.8,0,0,1,1.314.527l0,.091v14.259a.8.8,0,0,1-1.247.672l-.072-.055-1.094-.911-1.126.844a.8.8,0,0,1-.877.058l-.088-.058-1.126-.844-1.126.844a.8.8,0,0,1-.877.058l-.088-.058-1.126-.844-1.126.844a.8.8,0,0,1-.877.058l-.088-.058-1.126-.844-1.094.911a.8.8,0,0,1-1.314-.527l0-.091Zm10.455.6-.885.664a1.206,1.206,0,0,1-1.448,0l-.885-.664-.885.663a1.206,1.206,0,0,1-1.448,0l-.885-.663-.885.663a1.206,1.206,0,0,1-1.5-.039l-.434-.362v12.542l.434-.362a1.206,1.206,0,0,1,1.5-.038l.885.663.885-.663a1.206,1.206,0,0,1,1.448,0l.885.663.885-.663a1.206,1.206,0,0,1,1.448,0l.885.663.885-.663a1.206,1.206,0,0,1,1.5.039l.434.362V92.721l-.434.362a1.206,1.206,0,0,1-1.5.038Z" transform="translate(-128 -91.058)" fill="#00a6ff"/>
      <path id="Path_5412" data-name="Path 5412" d="M309.936,394.667h6.434a.6.6,0,0,1,0,1.206h-6.434a.6.6,0,0,1,0-1.206Zm0,3.217h3.217a.6.6,0,0,1,0,1.206h-3.217a.6.6,0,0,1,0-1.206Z" transform="translate(-305.915 -388.944)" fill="#00a6ff"/>
    </g>
  </g>
</svg>
