<svg xmlns="http://www.w3.org/2000/svg" width="20" height="20" viewBox="0 0 20 20">
  <g id="组_9414" data-name="组 9414" transform="translate(-510 305)">
    <rect id="矩形_4718" data-name="矩形 4718" width="20" height="20" transform="translate(510 -305)" fill="#bcbec3" opacity="0"/>
    <g id="密码" transform="translate(512.222 -303.123)">
      <path id="路径_4948" data-name="路径 4948" d="M145.763,129.529h-.739v-1.847a4.8,4.8,0,0,0-4.8-4.8h-.239a4.8,4.8,0,0,0-4.8,4.8v1.847h-.739a2.351,2.351,0,0,0-2.347,2.347v5.171a2.351,2.351,0,0,0,2.347,2.347h11.32a2.351,2.351,0,0,0,2.347-2.347v-5.193A2.346,2.346,0,0,0,145.763,129.529Zm-9.343-1.847a3.579,3.579,0,0,1,3.563-3.563h.239a3.579,3.579,0,0,1,3.563,3.563v1.847H136.4v-1.847Zm10.451,9.343a1.113,1.113,0,0,1-1.108,1.108h-11.3a1.113,1.113,0,0,1-1.108-1.108v-5.171a1.113,1.113,0,0,1,1.108-1.108h11.32a1.113,1.113,0,0,1,1.108,1.108v5.171Z" transform="translate(-132.096 -122.88)" fill="#bcbec3"/>
      <path id="路径_4949" data-name="路径 4949" d="M452.823,610.519m-1.238,0a1.238,1.238,0,1,0,1.238-1.239A1.238,1.238,0,0,0,451.584,610.519Z" transform="translate(-444.805 -598.959)" fill="#bcbec3"/>
    </g>
  </g>
</svg>
