<svg xmlns="http://www.w3.org/2000/svg" width="50" height="50" viewBox="0 0 50 50">
  <g id="icon" transform="translate(-5 -12)">
    <rect id="矩形_57" data-name="矩形 57" width="50" height="49.713" transform="translate(5 12)" fill="none"/>
    <path id="m" d="M26.03,49H4.592A4.6,4.6,0,0,1,0,44.408V4.592A4.6,4.6,0,0,1,4.592,0H26.03a4.6,4.6,0,0,1,4.6,4.592V44.408A4.6,4.6,0,0,1,26.03,49ZM15.314,39.811a3.062,3.062,0,1,0,3.059,3.065A3.068,3.068,0,0,0,15.314,39.811ZM5.744,4.592A1.153,1.153,0,0,0,4.592,5.744V35.6a1.153,1.153,0,0,0,1.152,1.152H24.883A1.151,1.151,0,0,0,26.03,35.6V5.744a1.151,1.151,0,0,0-1.147-1.152Z" transform="translate(15 13)" fill="#42d200"/>
  </g>
</svg>
