<svg xmlns="http://www.w3.org/2000/svg" xmlns:xlink="http://www.w3.org/1999/xlink" width="64" height="64" viewBox="0 0 64 64">
  <defs>
    <linearGradient id="linear-gradient" y1="0.079" x2="1" y2="1.228" gradientUnits="objectBoundingBox">
      <stop offset="0" stop-color="#00a6ff"/>
      <stop offset="1" stop-color="#3d61e9"/>
    </linearGradient>
  </defs>
  <g id="Group_12825" data-name="Group 12825" transform="translate(-3140 -12152)">
    <rect id="Rectangle_5522" data-name="Rectangle 5522" width="64" height="64" transform="translate(3140 12152)" fill="#fff" opacity="0"/>
    <g id="审核不通过" transform="translate(3131.2 12119.6)">
      <path id="Path_5416" data-name="Path 5416" d="M45.467,85.785a15.653,15.653,0,0,1,2.872-16.154A13.66,13.66,0,0,1,53.005,66.4a14.4,14.4,0,0,1,5.385-1.077V42.708A4.365,4.365,0,0,0,54.082,38.4H17.108A4.365,4.365,0,0,0,12.8,42.708V86.5a4.365,4.365,0,0,0,4.308,4.308H48.7A28.9,28.9,0,0,1,45.467,85.785ZM22.851,48.81H33.621a2.154,2.154,0,1,1,0,4.308H22.851a2.154,2.154,0,0,1,0-4.308Zm0,12.564H47.621a2.154,2.154,0,1,1,0,4.308H22.851c-1.077-.718-2.154-1.436-2.154-2.872C20.7,62.092,21.774,61.374,22.851,61.374ZM37.569,77.169H22.851a2.154,2.154,0,0,1,0-4.308H37.569a2.154,2.154,0,1,1,0,4.308Z" fill="url(#linear-gradient)"/>
      <path id="Path_5417" data-name="Path 5417" d="M675.292,601.6a9.887,9.887,0,0,0-9.692,9.692,9.692,9.692,0,1,0,9.692-9.692Zm4.667,13.282a1.015,1.015,0,0,1-1.436,1.436l-3.59-3.59-3.59,3.59a1.015,1.015,0,0,1-1.436-1.436l3.59-3.59-3.59-3.59a1.015,1.015,0,0,1,1.436-1.436l3.59,3.59,3.59-3.59a1.015,1.015,0,0,1,1.436,1.436l-3.59,3.59Z" transform="translate(-616.185 -531.61)" fill="#eb2121"/>
    </g>
  </g>
</svg>
