<svg xmlns="http://www.w3.org/2000/svg" width="20" height="20" viewBox="0 0 20 20">
  <g id="组_7841" data-name="组 7841" transform="translate(-566 305)">
    <rect id="矩形_4719" data-name="矩形 4719" width="20" height="20" transform="translate(566 -305)" fill="#bcbec3" opacity="0"/>
    <g id="姓名_用户名_昵称_2_" data-name="姓名 用户名 昵称 (2)" transform="translate(568.058 -303.417)">
      <path id="路径_4946" data-name="路径 4946" d="M69.009,530.5a7.838,7.838,0,0,0-15.676,0,.547.547,0,0,0,1.094,0,6.744,6.744,0,1,1,13.488,0,.547.547,0,0,0,1.094,0Z" transform="translate(-53.333 -513.918)" fill="#bcbec3"/>
      <path id="路径_4947" data-name="路径 4947" d="M228.921,20.51A4.921,4.921,0,1,0,224,15.588,4.921,4.921,0,0,0,228.921,20.51Zm0-1.094a3.828,3.828,0,1,1,3.828-3.828A3.828,3.828,0,0,1,228.921,19.416Z" transform="translate(-221.084 -10.667)" fill="#bcbec3"/>
    </g>
  </g>
</svg>
