<svg xmlns="http://www.w3.org/2000/svg" xmlns:xlink="http://www.w3.org/1999/xlink" width="64" height="64" viewBox="0 0 64 64">
  <defs>
    <linearGradient id="linear-gradient" y1="0.079" x2="1" y2="1.228" gradientUnits="objectBoundingBox">
      <stop offset="0" stop-color="#00a6ff"/>
      <stop offset="1" stop-color="#3d61e9"/>
    </linearGradient>
  </defs>
  <g id="Group_12824" data-name="Group 12824" transform="translate(-3044 -12152)">
    <rect id="Rectangle_5521" data-name="Rectangle 5521" width="64" height="64" transform="translate(3044 12152)" fill="#fff" opacity="0"/>
    <g id="审核通过" transform="translate(3048 12132.4)">
      <path id="Path_5414" data-name="Path 5414" d="M41.194,25.6H4.225A4.281,4.281,0,0,0,0,29.825v44.01A4.281,4.281,0,0,0,4.225,78.06H35.912a13.4,13.4,0,0,1-3.169-4.577,15.55,15.55,0,0,1,0-11.267,12.982,12.982,0,0,1,2.817-4.929,13.4,13.4,0,0,1,4.577-3.169,14.127,14.127,0,0,1,5.281-1.056V29.825A4.068,4.068,0,0,0,41.194,25.6ZM10.21,36.162H20.773a2.112,2.112,0,1,1,0,4.225H10.21a2.112,2.112,0,0,1,0-4.225ZM25,64.681H10.21a2.112,2.112,0,1,1,0-4.225H25a2.112,2.112,0,1,1,0,4.225Zm10.21-12.323h-25A2.029,2.029,0,0,1,8.1,50.246a2.272,2.272,0,0,1,2.112-2.112h25a2.272,2.272,0,0,1,2.112,2.112A1.867,1.867,0,0,1,35.208,52.358Z" fill="url(#linear-gradient)"/>
      <path id="Path_5415" data-name="Path 5415" d="M656.61,595.2a10.21,10.21,0,1,0,10.21,10.21C667.173,599.777,662.6,595.2,656.61,595.2Zm6.69,9.154-7.042,6.69a1.761,1.761,0,0,1-2.112,0l-3.873-3.873c-.7-.7-.7-1.76,0-2.112.7-.7,1.76-.7,2.112,0l2.817,2.817,5.985-5.633c.7-.7,1.76-.7,2.112,0C664,602.594,664,603.65,663.3,604.354Z" transform="translate(-610.84 -538.265)" fill="#0ccc3c" stroke="rgba(0,0,0,0)" stroke-width="1"/>
    </g>
  </g>
</svg>
