<svg xmlns="http://www.w3.org/2000/svg" width="40" height="40" viewBox="0 0 40 40"><defs><style>.a{fill:none;}.b{fill:#e91e63;}</style></defs><g transform="translate(0 -0.5)"><rect class="a" width="40" height="40" transform="translate(0 0.5)"/><path class="b" d="M4.375,18.374A9.625,9.625,0,1,1,14,28,9.635,9.635,0,0,1,4.375,18.374Zm9.062-5.112-1.282,2.6-2.868.417a.629.629,0,0,0-.346,1.073l2.075,2.021-.491,2.854a.614.614,0,0,0,.136.509.631.631,0,0,0,.483.227.616.616,0,0,0,.292-.074L14,21.542l2.565,1.347a.626.626,0,0,0,.775-.157.612.612,0,0,0,.137-.506l-.491-2.854,2.075-2.021a.629.629,0,0,0-.347-1.073l-2.868-.417-1.282-2.6a.628.628,0,0,0-1.126,0ZM.159,1.377A.875.875,0,0,1,.877,0H6.955a1.939,1.939,0,0,1,1.5.85l3.781,6.3a11.311,11.311,0,0,0-5.991,2.92Zm15.6,5.774L19.544.85a1.75,1.75,0,0,1,1.5-.85h6.079a.875.875,0,0,1,.717,1.377l-6.086,8.692A11.32,11.32,0,0,0,15.764,7.151Z" transform="translate(6 6.5)"/></g></svg>