<svg xmlns="http://www.w3.org/2000/svg" width="40" height="40" viewBox="0 0 40 40"><defs><style>.a{fill:none;}.b{fill:#e91e63;}</style></defs><g transform="translate(-0.125)"><rect class="a" width="40" height="40" transform="translate(0.125)"/><path class="b" d="M12.115,27.795a16.387,16.387,0,0,1-4.363-2.75,21.11,21.11,0,0,1-3.89-4.489A24.791,24.791,0,0,1,0,7,2.607,2.607,0,0,1,1.62,4.576L12.119.2A3.145,3.145,0,0,1,13.127,0a3.112,3.112,0,0,1,1.009.2l10.5,4.374A2.61,2.61,0,0,1,26.251,7a26.064,26.064,0,0,1-1.235,8.08A22.674,22.674,0,0,1,21.948,21.2,21.185,21.185,0,0,1,18,25.425a16.318,16.318,0,0,1-3.869,2.37,2.615,2.615,0,0,1-2.018,0ZM2.625,7A22.391,22.391,0,0,0,5.876,18.825a16.2,16.2,0,0,0,7.248,6.548,13.773,13.773,0,0,0,3.8-2.434A18.417,18.417,0,0,0,20.3,18.951,22.3,22.3,0,0,0,23.625,7l-10.5-4.375Zm8.213,12.765-4.965-5a.663.663,0,0,1,.005-.93L7.12,12.6a.663.663,0,0,1,.93.005L11.32,15.9l7.733-7.667a.663.663,0,0,1,.93.005l1.23,1.242a.661.661,0,0,1-.005.93l-9.439,9.363a.662.662,0,0,1-.93-.006Z" transform="translate(7 6.001)"/></g></svg>