<svg width="20" height="20" viewBox="0 0 20 20" fill="none" xmlns="http://www.w3.org/2000/svg">
<path d="M10.0002 2C11.2476 1.99935 12.4778 2.29037 13.5926 2.84984C14.7075 3.4093 15.676 4.2217 16.421 5.22216C17.1659 6.22261 17.6666 7.3834 17.8831 8.61182C18.0995 9.84025 18.0257 11.1023 17.6676 12.2971C17.3094 13.4919 16.6768 14.5864 15.8203 15.4932C14.9638 16.4 13.9072 17.094 12.7347 17.5197C11.5623 17.9454 10.3065 18.091 9.06775 17.945C7.82898 17.7989 6.64153 17.3652 5.60023 16.6785L2.52677 17.6611L3.52314 14.6887C2.6573 13.4953 2.13836 12.0857 2.02372 10.6158C1.90907 9.14584 2.20318 7.67283 2.87352 6.35962C3.54386 5.04641 4.56432 3.94416 5.82206 3.17477C7.0798 2.40537 8.52582 1.9988 10.0002 2ZM7.70932 6.39709C7.55659 6.03346 7.44095 6.01818 7.20968 6.00873C7.12144 6.00291 7.03344 6 6.94568 6C6.65054 5.98681 6.36168 6.08788 6.13914 6.28218C5.87612 6.52521 5.66814 6.82168 5.52916 7.15171C5.39017 7.48174 5.3234 7.83768 5.33332 8.19564C5.40965 9.05966 5.73448 9.88311 6.26859 10.5665C7.24165 12.0508 8.59717 13.245 10.1922 14.0233C12.0039 14.7716 12.5406 14.7025 12.9559 14.6145C13.2797 14.5559 13.5865 14.426 13.854 14.2344C14.1215 14.0427 14.3431 13.794 14.5028 13.5062C14.6511 13.1629 14.6978 12.7843 14.6373 12.4153C14.5813 12.3185 14.4286 12.2633 14.201 12.1476C13.9733 12.032 12.8439 11.4778 12.63 11.4036C12.5314 11.3573 12.4191 11.3492 12.3148 11.3809C12.2106 11.4126 12.1218 11.4819 12.0657 11.5753C11.8746 11.857 11.6688 12.1284 11.449 12.3884C11.376 12.4573 11.2839 12.5026 11.1847 12.5183C11.0856 12.534 10.984 12.5194 10.8933 12.4764C10.2113 12.2164 9.58413 11.8305 9.04459 11.3389C8.54157 10.8757 8.1091 10.3413 7.76095 9.75273C7.62641 9.52146 7.74714 9.38909 7.85332 9.26255C7.96895 9.11709 8.08023 9.01818 8.19586 8.88364C8.29975 8.77694 8.38571 8.65414 8.45041 8.52C8.47916 8.45159 8.49118 8.37731 8.48549 8.30332C8.4798 8.22933 8.45655 8.15776 8.41768 8.09455C8.36241 7.97891 7.89914 6.85091 7.70932 6.39491V6.39709Z" fill="#25D366"/>
</svg>
