<svg width="145" height="32" viewBox="0 0 145 32" fill="none" xmlns="http://www.w3.org/2000/svg">
<path id="fun" d="M77.6642 29.7593L72.4298 19.4265C71.4858 17.3148 70.3374 14.9705 69.3297 12.6175C69.0237 15.5595 68.596 18.6717 68.2538 22.098L66.9416 31.6135H59.2914L62.4568 0.0174515H70.8072L76.2128 11.5966C77.3568 14.0689 78.4661 16.0831 79.4028 18.4157C79.4041 15.3337 79.6221 12.2555 80.0552 9.20424L80.9861 0.0174515H88.6319L85.9262 27.8294C85.8459 28.9723 85.3321 30.041 84.4904 30.8157C83.6487 31.5904 82.5431 32.0122 81.4008 31.9945H81.324C80.5603 32.0357 79.8021 31.8443 79.1489 31.4454C78.4958 31.0464 77.9782 30.4586 77.6642 29.7593ZM120.639 31.9945C120.127 32.0011 119.619 31.898 119.149 31.6921C118.68 31.4861 118.259 31.1821 117.916 30.8003C117.573 30.4185 117.315 29.9676 117.16 29.4779C117.004 28.9882 116.954 28.4708 117.014 27.9603L117.777 19.4919C117.851 18.7668 118.099 18.0704 118.5 17.4625C118.901 16.8547 119.443 16.3534 120.079 16.0016C119.501 15.6363 119.038 15.1151 118.742 14.4979C118.446 13.8806 118.329 13.1921 118.405 12.5113L119.166 4.04585C119.277 2.95733 119.78 1.94679 120.581 1.20379C121.381 0.460788 122.425 0.0363814 123.516 0.0101801H141.351C141.863 0.00379512 142.371 0.107099 142.841 0.313199C143.31 0.5193 143.73 0.823458 144.073 1.20538C144.417 1.58731 144.674 2.03821 144.83 2.52802C144.986 3.01783 145.035 3.53528 144.976 4.04585L144.213 12.5113C144.139 13.2364 143.891 13.9328 143.49 14.5407C143.089 15.1486 142.547 15.6499 141.91 16.0016C142.488 16.3668 142.952 16.8879 143.248 17.5053C143.544 18.1226 143.661 18.8111 143.585 19.4919L142.824 27.9603C142.713 29.0487 142.21 30.059 141.409 30.8018C140.608 31.5446 139.564 31.9687 138.474 31.9945H120.639ZM124.961 20.1914L124.655 23.5698C124.642 23.7849 124.674 24.0005 124.75 24.2022C124.826 24.4039 124.944 24.587 125.096 24.7395C125.248 24.8919 125.43 25.0101 125.631 25.0863C125.833 25.1625 126.047 25.1948 126.262 25.1811H134.082C134.539 25.1886 134.983 25.0293 135.331 24.7329C135.68 24.4365 135.909 24.0231 135.977 23.5698L136.281 20.1914C136.295 19.9762 136.263 19.7605 136.187 19.5587C136.111 19.3569 135.994 19.1737 135.842 19.0212C135.69 18.8687 135.507 18.7505 135.306 18.6744C135.104 18.5984 134.889 18.5662 134.675 18.5801H126.851C126.394 18.571 125.949 18.7296 125.6 19.026C125.252 19.3225 125.023 19.7363 124.957 20.19L124.961 20.1914ZM126.036 8.24731L125.731 11.6256C125.718 11.8403 125.75 12.0554 125.826 12.2566C125.901 12.4578 126.019 12.6406 126.17 12.7927C126.322 12.9449 126.504 13.0629 126.705 13.139C126.905 13.2151 127.12 13.2475 127.334 13.2341H135.153C135.61 13.242 136.054 13.0833 136.403 12.7875C136.752 12.4916 136.982 12.0787 137.05 11.6256L137.354 8.24731C137.368 8.03204 137.336 7.81629 137.26 7.61443C137.184 7.41257 137.067 7.22923 136.915 7.07662C136.763 6.92402 136.58 6.80566 136.379 6.72942C136.178 6.65319 135.962 6.62083 135.748 6.6345H127.925C127.468 6.62742 127.024 6.78707 126.676 7.08375C126.328 7.38042 126.099 7.79393 126.031 8.24731H126.036ZM92.2656 31.9945C91.753 32.0016 91.2449 31.8988 90.7751 31.693C90.3053 31.4872 89.8848 31.1832 89.5416 30.8013C89.1984 30.4194 88.9405 29.9683 88.7852 29.4784C88.6298 28.9885 88.5805 28.4709 88.6406 27.9603L89.4004 19.4919C89.4743 18.7668 89.7224 18.0704 90.1234 17.4625C90.5245 16.8547 91.0665 16.3534 91.703 16.0016C91.1252 15.6363 90.6617 15.1151 90.3655 14.4979C90.0693 13.8806 89.9524 13.1921 90.0283 12.5113L90.7924 4.04585C90.903 2.95721 91.406 1.94649 92.2069 1.20343C93.0078 0.460373 94.0516 0.0360713 95.1424 0.0101801H112.977C113.49 0.00379512 113.998 0.107099 114.467 0.313199C114.937 0.5193 115.357 0.823458 115.7 1.20538C116.043 1.58731 116.301 2.03821 116.457 2.52802C116.612 3.01783 116.662 3.53528 116.602 4.04585L115.854 12.52C115.78 13.245 115.532 13.9413 115.132 14.5492C114.731 15.157 114.189 15.6584 113.553 16.0103C114.131 16.3758 114.594 16.897 114.89 17.5142C115.186 18.1315 115.303 18.8199 115.228 19.5007L114.465 27.969C114.352 29.0581 113.846 30.0683 113.043 30.8097C112.239 31.551 111.193 31.9724 110.102 31.9945H92.2656ZM96.5866 20.1914L96.2821 23.5698C96.2682 23.7848 96.3003 24.0004 96.376 24.2021C96.4518 24.4038 96.5695 24.587 96.7214 24.7394C96.8733 24.8919 97.0558 25.0102 97.2568 25.0863C97.4578 25.1625 97.6727 25.1948 97.8872 25.1811H105.704C106.161 25.189 106.606 25.0298 106.955 24.7334C107.304 24.4369 107.533 24.0234 107.601 23.5698L107.905 20.1914C107.919 19.9764 107.887 19.761 107.811 19.5594C107.735 19.3578 107.617 19.1747 107.465 19.0223C107.313 18.8699 107.131 18.7516 106.93 18.6754C106.729 18.5991 106.514 18.5666 106.3 18.5801H98.4802C98.0235 18.5725 97.5795 18.7316 97.231 19.0278C96.8824 19.3239 96.6529 19.7369 96.5851 20.19L96.5866 20.1914ZM97.661 8.24731L97.3565 11.6256C97.3429 11.8405 97.375 12.0559 97.4509 12.2573C97.5268 12.4588 97.6446 12.6417 97.7965 12.7939C97.9483 12.9461 98.1308 13.0641 98.3317 13.14C98.5326 13.2159 98.7474 13.248 98.9616 13.2341H106.781C107.238 13.242 107.682 13.0833 108.031 12.7875C108.38 12.4916 108.61 12.0787 108.678 11.6256L108.981 8.24731C108.995 8.03211 108.963 7.81639 108.888 7.61453C108.812 7.41266 108.694 7.2293 108.542 7.07667C108.39 6.92404 108.208 6.80566 108.007 6.72941C107.806 6.65316 107.59 6.6208 107.376 6.6345H99.5532C99.0963 6.62742 98.6523 6.78707 98.304 7.08375C97.9557 7.38042 97.7281 7.79393 97.661 8.24731ZM30.2685 17.4356L31.9998 0H41.0665L39.2947 17.8515C38.7451 23.3778 39.2584 24.5311 43.272 24.5311C47.1376 24.5311 48.5862 23.2469 49.1212 17.8515L50.8946 0H59.5945L57.882 17.3425C56.9033 27.2128 55.2996 31.5946 42.9675 31.5946C32.5247 31.5931 29.3187 27.0295 30.2685 17.4356ZM0 31.3052L1.07009 8.05534C1.07009 8.05534 1.66749 0.636981 8.46213 0.106164L10.8082 0.0959835L29.6073 0L28.8823 6.67231L12.6149 6.74212C11.9661 6.89252 11.3832 7.24941 10.9533 7.75949C10.5233 8.26957 10.2695 8.90546 10.2297 9.57217C10.0064 11.7536 9.98461 13.6936 9.98461 13.6936L27.9282 13.586L27.5179 20.1987L9.71491 20.2903L9.16972 31.3517L0 31.3052Z" fill="white"/>
</svg>
