<svg width="68" height="32" viewBox="0 0 68 32" fill="none" xmlns="http://www.w3.org/2000/svg">
<path d="M16.1276 21.1653H16.4011L16.1468 22.2274C16.1261 22.2853 16.1173 22.3468 16.121 22.4082C16.1247 22.4696 16.1408 22.5296 16.1683 22.5846C16.2025 22.6274 16.2471 22.6608 16.2979 22.6816C16.3486 22.7023 16.4038 22.7098 16.4583 22.7031C16.5843 22.7082 16.7076 22.6659 16.804 22.5846C16.9037 22.4885 16.9709 22.3636 16.9961 22.2274L17.2504 21.1653H17.5276L17.2668 22.2539C17.228 22.4595 17.1217 22.6462 16.9647 22.7846C16.8009 22.9088 16.5986 22.9713 16.3933 22.961C16.3045 22.9716 16.2146 22.9612 16.1306 22.9306C16.0466 22.9001 15.971 22.8503 15.9097 22.7853C15.8645 22.705 15.8375 22.6159 15.8305 22.5241C15.8234 22.4323 15.8366 22.34 15.869 22.2539L16.1276 21.1653Z" fill="#696A6A"/>
<path d="M17.4912 22.9145L17.9269 21.0959L18.7541 22.1624C18.7762 22.1924 18.7984 22.2245 18.8205 22.2588C18.8426 22.2931 18.8648 22.3302 18.8884 22.3745L19.1791 21.1602H19.4355L18.9998 22.9824L18.1548 21.8938C18.1318 21.8641 18.1106 21.8331 18.0912 21.8009C18.0714 21.7677 18.0535 21.7334 18.0376 21.6981L17.7462 22.9124L17.4912 22.9145Z" fill="#696A6A"/>
<path d="M19.4111 22.9129L19.8297 21.1658H20.1068L19.6883 22.9129H19.4111Z" fill="#696A6A"/>
<path d="M20.0864 22.9129L20.505 21.1658H21.4571L21.3993 21.4072H20.7243L20.62 21.8415H21.2943L21.2343 22.0915H20.56L20.3636 22.9129H20.0864Z" fill="#696A6A"/>
<path d="M21.3433 22.9129L21.7618 21.1658H22.039L21.6204 22.9129H21.3433Z" fill="#696A6A"/>
<path d="M22.0198 22.9129L22.4383 21.1658H23.3905L23.3326 21.4072H22.6576L22.5526 21.8458H23.2269L23.1669 22.0958H22.4933L22.3576 22.6608H23.0319L22.9712 22.9129H22.0198Z" fill="#696A6A"/>
<path d="M23.6274 22.6573H23.8602C23.9583 22.6599 24.0564 22.651 24.1524 22.6309C24.221 22.6138 24.2857 22.5837 24.3431 22.5423C24.4218 22.4845 24.4883 22.4117 24.5388 22.328C24.5939 22.2372 24.6339 22.1381 24.6574 22.0345C24.683 21.9391 24.6905 21.8397 24.6795 21.7416C24.6707 21.6622 24.6378 21.5874 24.5852 21.5273C24.5441 21.4842 24.4916 21.4535 24.4338 21.4387C24.3324 21.4175 24.2288 21.4087 24.1252 21.4123H23.9238L23.6274 22.6573ZM23.2888 22.9145L23.7074 21.1652H24.0809C24.2499 21.1588 24.4191 21.1715 24.5852 21.203C24.6716 21.2241 24.7511 21.2672 24.8159 21.328C24.8974 21.4081 24.951 21.5123 24.9688 21.6252C24.9899 21.7636 24.9821 21.9049 24.9459 22.0402C24.9125 22.187 24.8532 22.3268 24.7709 22.453C24.6936 22.5709 24.5933 22.672 24.4759 22.7502C24.3887 22.8085 24.2921 22.8513 24.1902 22.8766C24.0409 22.9062 23.8888 22.9189 23.7367 22.9145H23.2881H23.2888Z" fill="#696A6A"/>
<path d="M26.2958 21.8974H26.3673C26.4765 21.9056 26.5861 21.888 26.6873 21.846C26.719 21.8259 26.7461 21.7993 26.7669 21.7681C26.7877 21.7368 26.8017 21.7016 26.808 21.6645C26.8304 21.5693 26.8187 21.5036 26.773 21.4674C26.6859 21.4194 26.5862 21.3993 26.4873 21.4095H26.4158L26.2958 21.8974ZM26.2244 22.1303L26.0316 22.9153H25.7744L26.193 21.166H26.6123C26.7025 21.1629 26.7928 21.1699 26.8816 21.1867C26.9322 21.199 26.979 21.2235 27.018 21.2581C27.0626 21.3017 27.0923 21.3581 27.103 21.4195C27.1165 21.4953 27.1133 21.573 27.0937 21.6474C27.0741 21.7292 27.04 21.8069 26.993 21.8767C26.9502 21.9427 26.894 21.9989 26.828 22.0417C26.7761 22.0752 26.7189 22.0993 26.6587 22.1131C26.5665 22.1291 26.4729 22.1358 26.3794 22.1331H26.2194L26.2244 22.1303Z" fill="#696A6A"/>
<path d="M27.4381 22.2274H27.9131L27.8338 21.8281C27.8302 21.8024 27.8266 21.7731 27.8231 21.7402C27.8195 21.7074 27.8181 21.6688 27.8166 21.6295C27.7981 21.6676 27.7797 21.7033 27.7616 21.7367C27.7435 21.77 27.7257 21.8005 27.7081 21.8281L27.4381 22.2274ZM28.0402 22.9145L27.9545 22.4638H27.2788L26.9731 22.9145H26.6816L27.9431 21.0959L28.3324 22.9145H28.0402Z" fill="#696A6A"/>
<path d="M28.7297 22.9131L28.9211 22.1124L28.5747 21.1659H28.8661L29.0804 21.7595C29.0854 21.7745 29.0911 21.7945 29.0983 21.8195C29.1054 21.8445 29.1118 21.8709 29.1183 21.8995C29.1354 21.8716 29.1533 21.8452 29.1711 21.8202C29.189 21.7952 29.2068 21.7731 29.2254 21.7488L29.7326 21.1624H30.0097L29.1961 22.1152L29.0047 22.9131H28.7297Z" fill="#696A6A"/>
<path d="M31.3754 22.0508C31.3754 22.0375 31.3792 22.0001 31.3869 21.9387C31.3926 21.8877 31.3973 21.8456 31.4011 21.8122C31.384 21.8531 31.3645 21.893 31.3426 21.9315C31.319 21.9735 31.2932 22.0143 31.2654 22.0537L30.5961 22.9822L30.3776 22.0337C30.3685 21.9962 30.3613 21.9583 30.3561 21.9201C30.3511 21.8837 30.3483 21.8487 30.3469 21.8115C30.3376 21.848 30.3254 21.8865 30.3104 21.9272C30.2954 21.968 30.2783 22.0094 30.2576 22.0537L29.8683 22.9144H29.6133L30.4526 21.0908L30.6919 22.1951C30.6919 22.2122 30.7004 22.2415 30.7061 22.2822C30.7119 22.323 30.7197 22.373 30.7276 22.433C30.7557 22.383 30.7966 22.3192 30.8504 22.2415L30.8826 22.1937L31.6383 21.0908L31.6147 22.9144H31.3569L31.3754 22.0508Z" fill="#696A6A"/>
<path d="M31.8354 22.9129L32.254 21.1658H33.2062L33.1483 21.4072H32.4733L32.3683 21.8458H33.0426L32.9826 22.0958H32.309L32.174 22.6608H32.8483L32.7869 22.9129H31.8354Z" fill="#696A6A"/>
<path d="M33.1047 22.9145L33.5405 21.0959L34.3676 22.1624C34.3897 22.1924 34.4119 22.2245 34.434 22.2588C34.4562 22.2931 34.4783 22.3302 34.5019 22.3745L34.7926 21.1602H35.049L34.6133 22.9824L33.7683 21.8938C33.7453 21.8641 33.7241 21.8331 33.7047 21.8009C33.6849 21.7677 33.667 21.7334 33.6512 21.6981L33.3597 22.9124L33.1047 22.9145Z" fill="#696A6A"/>
<path d="M35.9326 21.406L35.5719 22.9146H35.2948L35.6555 21.4067H35.2026L35.2605 21.1653H36.4412L36.3834 21.4067L35.9326 21.406Z" fill="#696A6A"/>
<path d="M36.2211 22.5646L36.4676 22.4596C36.4663 22.4927 36.4721 22.5257 36.4844 22.5565C36.4967 22.5872 36.5153 22.6151 36.539 22.6382C36.5957 22.6828 36.667 22.7047 36.739 22.6996C36.8165 22.7014 36.8923 22.6761 36.9533 22.6282C37.0136 22.5803 37.0553 22.5128 37.0711 22.4375C37.0959 22.3346 37.0347 22.2429 36.8876 22.1625L36.8404 22.1389C36.7165 22.0803 36.6085 21.9928 36.5254 21.8839C36.4799 21.798 36.4702 21.6976 36.4983 21.6046C36.5293 21.4664 36.6083 21.3437 36.7211 21.2582C36.8365 21.1696 36.9785 21.1227 37.124 21.1253C37.2282 21.1187 37.332 21.1436 37.4219 21.1967C37.4573 21.2208 37.4869 21.2526 37.5084 21.2897C37.5299 21.3268 37.5428 21.3683 37.5461 21.411L37.3019 21.526C37.2863 21.4803 37.2583 21.4398 37.2211 21.4089C37.1827 21.382 37.1366 21.3685 37.0897 21.3703C37.0208 21.3687 36.9533 21.3897 36.8976 21.4303C36.8445 21.4693 36.8072 21.5261 36.7926 21.5903C36.7673 21.6956 36.8402 21.7934 37.0111 21.8839L37.0419 21.901C37.1576 21.9523 37.258 22.0328 37.3333 22.1346C37.3796 22.2226 37.3891 22.3253 37.3597 22.4203C37.326 22.5768 37.2385 22.7165 37.1126 22.8153C36.9842 22.9125 36.8264 22.9629 36.6654 22.9582C36.5458 22.9665 36.4273 22.9298 36.3333 22.8553C36.2944 22.8181 36.2642 22.7727 36.2448 22.7225C36.2254 22.6722 36.2173 22.6183 36.2211 22.5646Z" fill="#696A6A"/>
<path d="M38.2686 22.9129L38.6871 21.1658H38.9643L38.5457 22.9129H38.2686Z" fill="#696A6A"/>
<path d="M38.9438 22.9145L39.3796 21.0959L40.2067 22.1624C40.2288 22.1924 40.251 22.2245 40.2731 22.2588C40.2953 22.2931 40.3174 22.3302 40.341 22.3745L40.6317 21.1602H40.8881L40.4524 22.9824L39.6074 21.8938C39.5845 21.8641 39.5632 21.8331 39.5438 21.8009C39.5241 21.7677 39.5062 21.7334 39.4903 21.6981L39.1988 22.9124L38.9438 22.9145Z" fill="#696A6A"/>
<path d="M41.7715 21.406L41.4108 22.9146H41.1336L41.4944 21.4067H41.0415L41.0994 21.1653H42.2801L42.2222 21.4067L41.7715 21.406Z" fill="#696A6A"/>
<path d="M42.0747 22.9129L42.4933 21.1658H43.4454L43.3876 21.4072H42.7133L42.6083 21.8458H43.2826L43.2226 22.0958H42.5483L42.4133 22.6608H43.0876L43.0261 22.9129H42.0747Z" fill="#696A6A"/>
<path d="M43.8618 21.9116H43.9118C44.0163 21.9201 44.1212 21.9021 44.2168 21.8594C44.2477 21.8376 44.274 21.8099 44.2941 21.7779C44.3142 21.7459 44.3278 21.7103 44.334 21.673C44.3573 21.5778 44.3478 21.5099 44.3054 21.4694C44.2236 21.4198 44.1276 21.3989 44.0325 21.4101H43.9825L43.8618 21.9116ZM43.7904 22.1323L43.6033 22.918H43.3433L43.7618 21.1687H44.1497C44.2365 21.1661 44.3233 21.1738 44.4083 21.1916C44.4617 21.2034 44.511 21.2293 44.5511 21.2666C44.5937 21.3098 44.6223 21.3648 44.6333 21.4244C44.6455 21.4976 44.6421 21.5726 44.6233 21.6444C44.5997 21.7699 44.5393 21.8855 44.4497 21.9766C44.3593 22.0583 44.2447 22.1085 44.1233 22.1194L44.5161 22.9151H44.2025L43.8225 22.1294L43.7904 22.1323Z" fill="#696A6A"/>
<path d="M44.6807 22.9129L45.0992 21.1658H46.0514L45.9935 21.4072H45.3185L45.2142 21.8415H45.8885L45.8285 22.0915H45.1549L44.9578 22.9129H44.6807Z" fill="#696A6A"/>
<path d="M46.3712 22.2274H46.8462L46.7669 21.8281C46.7631 21.8029 46.7595 21.7736 46.7562 21.7402C46.7562 21.7074 46.7512 21.6688 46.7497 21.6295C46.7312 21.6676 46.7128 21.7033 46.6947 21.7367C46.6767 21.77 46.6586 21.8005 46.6405 21.8281L46.3712 22.2274ZM46.9733 22.9145L46.8876 22.4638H46.2119L45.9062 22.9145H45.6147L46.8762 21.0959L47.2655 22.9145H46.9733Z" fill="#696A6A"/>
<path d="M49.0701 21.5907C49.0108 21.5243 48.9376 21.4717 48.8558 21.4365C48.7723 21.4019 48.6826 21.3848 48.5923 21.3865C48.4087 21.3851 48.231 21.4506 48.0923 21.5707C47.9477 21.6936 47.8473 21.8604 47.8065 22.0457C47.782 22.1232 47.7745 22.2051 47.7846 22.2857C47.7948 22.3664 47.8222 22.4439 47.8651 22.5129C47.9083 22.5742 47.9666 22.6233 48.0342 22.6556C48.1019 22.6878 48.1767 22.7022 48.2515 22.6972C48.3547 22.6969 48.457 22.6783 48.5537 22.6422C48.6617 22.6011 48.7634 22.5451 48.8558 22.4757L48.7787 22.7972C48.6942 22.851 48.6026 22.8925 48.5065 22.9207C48.4104 22.9469 48.3111 22.9594 48.2115 22.9579C48.093 22.9614 47.975 22.9402 47.8651 22.8957C47.7677 22.8541 47.6832 22.7873 47.6201 22.7022C47.5556 22.6153 47.5141 22.5136 47.4994 22.4065C47.4828 22.2853 47.4901 22.162 47.5208 22.0436C47.5516 21.9154 47.6035 21.7933 47.6744 21.6822C47.7455 21.57 47.8342 21.4702 47.9373 21.3865C48.0382 21.3029 48.1524 21.2367 48.2751 21.1907C48.394 21.1468 48.5198 21.1243 48.6465 21.1243C48.7404 21.1233 48.8336 21.1385 48.9223 21.1693C49.0074 21.1998 49.0861 21.2458 49.1544 21.305L49.0701 21.5907Z" fill="#696A6A"/>
<path d="M49.0974 22.9129L49.516 21.1658H50.4681L50.4103 21.4072H49.736L49.631 21.8458H50.3053L50.2453 22.0958H49.571L49.436 22.6608H50.1103L50.0488 22.9129H49.0974Z" fill="#696A6A"/>
<path d="M44.042 19.6417H42.1384L44.7884 10.0703H46.692L44.042 19.6417Z" fill="#66686C"/>
<path d="M43.0528 10.3715C42.9815 10.2785 42.8881 10.2047 42.7811 10.1568C42.6741 10.109 42.5569 10.0885 42.44 10.0972H31.9621L31.4428 11.9715H33.3493H40.975L40.42 13.9715H32.7943V13.97H30.8886L29.3071 19.68H31.215L32.2764 15.8472H40.8478C41.1237 15.8443 41.3904 15.7478 41.6043 15.5736C41.831 15.406 41.9956 15.1678 42.0721 14.8965L43.1321 11.0629C43.1734 10.9493 43.1876 10.8277 43.1737 10.7077C43.1598 10.5877 43.1189 10.4726 43.0528 10.3715Z" fill="#66686C"/>
<path d="M28.1975 19.0437C28.1465 19.2283 28.0365 19.3912 27.8841 19.5073C27.7317 19.6234 27.5455 19.6864 27.3539 19.6865H17.5225C17.4079 19.6945 17.2932 19.6737 17.1887 19.6259C17.0843 19.5781 16.9935 19.5049 16.9246 19.413C16.8588 19.3143 16.8168 19.2017 16.8022 19.084C16.7876 18.9663 16.8006 18.8468 16.8403 18.7351L19.2389 10.1001H21.1461L19.0032 17.8144H26.6325L28.7753 10.1001H30.6825L28.1975 19.0437Z" fill="#66686C"/>
<path d="M49.9825 10.0889L52.3947 14.8867L47.3232 19.6832L49.9825 10.0889Z" fill="#27803B"/>
<path d="M48.2911 10.0889L50.704 14.8867L45.6326 19.6832L48.2911 10.0889Z" fill="#E9661C"/>
</svg>
