<svg width="68" height="32" viewBox="0 0 68 32" fill="none" xmlns="http://www.w3.org/2000/svg">
<g clip-path="url(#clip0_117_1539)">
<path d="M20.752 19.5653V11.3476H21.8933L23.6862 16.2972H23.7093V11.3476H24.8968V19.5617H23.7795L21.9626 14.6281H21.9395V19.5662L20.752 19.5653ZM29.3333 17.0851H26.9813V17.881C26.9763 17.9592 26.9877 18.0377 27.0148 18.1113C27.0419 18.1849 27.0841 18.252 27.1386 18.3083C27.255 18.4123 27.4077 18.4661 27.5635 18.4578C27.6484 18.4689 27.7346 18.4565 27.813 18.4219C27.8913 18.3874 27.9587 18.3321 28.008 18.262C28.0784 18.1414 28.124 18.0079 28.1422 17.8694H29.3297C29.3397 18.0988 29.3025 18.3278 29.2204 18.5422C29.1383 18.7566 29.013 18.9518 28.8524 19.1157C28.6939 19.2795 28.5036 19.4092 28.2933 19.4967C28.0607 19.592 27.8112 19.6392 27.56 19.6356C27.2285 19.646 26.9005 19.5663 26.6106 19.405C26.3589 19.2595 26.1514 19.0481 26.0106 18.7934C25.92 18.6274 25.8598 18.4465 25.8328 18.2593C25.8006 18.0415 25.7852 17.8216 25.7866 17.6014V15.675C25.7852 15.4548 25.8006 15.2349 25.8328 15.0171C25.8598 14.8298 25.92 14.6489 26.0106 14.483C26.1514 14.2283 26.3589 14.0169 26.6106 13.8714C26.9005 13.71 27.2285 13.6304 27.56 13.6408C27.8132 13.6374 28.0647 13.6846 28.2995 13.7797C28.5119 13.8662 28.7041 13.996 28.864 14.1607C29.1793 14.5199 29.3459 14.986 29.3297 15.464L29.3333 17.0851ZM26.9813 16.1619H28.1457V15.4925C28.1592 15.3111 28.1029 15.1315 27.9884 14.9904C27.9335 14.9339 27.8672 14.8898 27.7939 14.861C27.7207 14.8321 27.6421 14.8192 27.5635 14.823C27.4849 14.8192 27.4064 14.8321 27.3331 14.861C27.2599 14.8898 27.1936 14.9339 27.1386 14.9904C27.0241 15.1315 26.9678 15.3111 26.9813 15.4925V16.1619ZM30.2071 13.7165V11.936H31.3946V13.7165H32.128V14.6414H31.3946V17.8836C31.3906 17.9929 31.4045 18.102 31.4355 18.2068C31.4587 18.2783 31.5062 18.3394 31.5697 18.3795C31.6388 18.4202 31.7164 18.4439 31.7964 18.4489C31.8859 18.4566 31.9964 18.4605 32.128 18.4605V19.5679H31.6391C31.4056 19.5752 31.1733 19.5317 30.9582 19.4406C30.7904 19.3669 30.6413 19.2565 30.5217 19.1175C30.4129 18.9867 30.3316 18.8353 30.2826 18.6724C30.2338 18.5174 30.2083 18.3559 30.2071 18.1934V14.6414H29.6133V13.7182L30.2071 13.7165ZM32.6524 19.5662V11.3476H34.3875C34.72 11.3386 35.0508 11.3974 35.36 11.5203C35.6105 11.6234 35.8352 11.7809 36.0177 11.9814C36.1879 12.1723 36.3133 12.3989 36.3848 12.6446C36.4589 12.8976 36.496 13.16 36.4951 13.4236V13.7236C36.4983 13.9134 36.4807 14.1029 36.4426 14.2889C36.4122 14.4312 36.3591 14.5677 36.2853 14.693C36.134 14.9264 35.9256 15.117 35.68 15.2468C35.9447 15.3639 36.1621 15.5672 36.2968 15.8236C36.4436 16.1492 36.5115 16.5048 36.4951 16.8616V17.3228C36.5348 17.9243 36.3441 18.5184 35.9617 18.9839C35.7353 19.1934 35.4676 19.353 35.1757 19.4524C34.8839 19.5517 34.5745 19.5887 34.2675 19.5608L32.6524 19.5662ZM33.84 15.7587V18.3893H34.352C34.5456 18.3984 34.7387 18.3628 34.9164 18.2851C35.0457 18.222 35.1531 18.1215 35.2248 17.9967C35.2983 17.8615 35.3419 17.7122 35.3528 17.5587C35.3682 17.3895 35.376 17.205 35.376 17.005C35.3778 16.8236 35.3662 16.6424 35.3413 16.4628C35.3234 16.3234 35.2758 16.1896 35.2017 16.0702C35.1229 15.9615 35.0133 15.879 34.8871 15.8334C34.7183 15.7779 34.5411 15.7526 34.3635 15.7587H33.84ZM33.84 12.4586V14.7198H34.3733C34.5204 14.7396 34.6702 14.7233 34.8096 14.6721C34.949 14.6209 35.0738 14.5364 35.1733 14.426C35.3255 14.1662 35.3964 13.8666 35.3768 13.566C35.3987 13.2713 35.3187 12.978 35.1502 12.7354C35.0421 12.6315 34.9124 12.5529 34.7704 12.505C34.6284 12.4571 34.4777 12.4413 34.3288 12.4586H33.84ZM39.7902 19.5653V18.9653H39.7671C39.6368 19.1544 39.4775 19.3218 39.2951 19.4611C39.0955 19.5875 38.8614 19.6479 38.6257 19.6338C38.4818 19.6333 38.3387 19.612 38.2008 19.5706C38.0475 19.5227 37.9064 19.4419 37.7875 19.3338C37.6429 19.2078 37.5327 19.047 37.4675 18.8664C37.3777 18.6129 37.3361 18.3448 37.3448 18.0759C37.3413 17.7836 37.3687 17.4918 37.4266 17.2053C37.4724 16.9733 37.5768 16.7569 37.7297 16.5768C37.8836 16.4062 38.0808 16.2806 38.3004 16.2136C38.5987 16.1247 38.9093 16.0839 39.2204 16.0925H39.3484C39.3913 16.0922 39.4342 16.0961 39.4764 16.1041C39.5224 16.1124 39.5692 16.1163 39.616 16.1156C39.6754 16.1158 39.7348 16.1196 39.7937 16.1272V15.5156C39.8005 15.3413 39.756 15.1689 39.6657 15.0198C39.6115 14.9498 39.5401 14.895 39.4585 14.8607C39.3769 14.8264 39.2879 14.8137 39.2 14.8239C39.0454 14.8236 38.8954 14.8764 38.7751 14.9735C38.6409 15.0839 38.5517 15.2397 38.5244 15.4115H37.3688C37.3788 14.9358 37.5696 14.4818 37.9022 14.142C38.0626 13.9849 38.2527 13.8615 38.4613 13.7788C38.6948 13.6874 38.9439 13.6423 39.1946 13.6461C39.4324 13.6445 39.6687 13.6836 39.8933 13.7619C40.1057 13.8359 40.3001 13.9539 40.464 14.1082C40.6262 14.2729 40.753 14.4693 40.8364 14.685C40.9343 14.9427 40.9817 15.2168 40.976 15.4925V19.5653H39.7902ZM39.7902 17.0504C39.6826 17.0297 39.5735 17.0181 39.464 17.0157C39.232 17.0087 39.0031 17.0707 38.8062 17.1937C38.7084 17.2695 38.6318 17.3693 38.5838 17.4835C38.5359 17.5977 38.5182 17.7223 38.5324 17.8453C38.5233 18.0393 38.5807 18.2306 38.6951 18.3875C38.7488 18.4558 38.8181 18.5103 38.8971 18.5464C38.9761 18.5824 39.0625 18.5991 39.1493 18.5949C39.2376 18.5998 39.3259 18.5848 39.4076 18.5509C39.4893 18.517 39.5623 18.4651 39.6213 18.3991C39.7427 18.2411 39.8027 18.0443 39.7902 17.8453V17.0504ZM41.8515 19.5653V13.7156H43.0391V14.2809H43.0622C43.18 14.102 43.3308 13.9472 43.5066 13.8251C43.7065 13.6991 43.94 13.637 44.176 13.647C44.3272 13.6473 44.4774 13.6725 44.6204 13.7218C44.7696 13.7731 44.9049 13.858 45.016 13.9702C45.1395 14.097 45.2347 14.2487 45.2951 14.4153C45.3703 14.6281 45.4058 14.8529 45.4 15.0785V19.5662H44.2151V15.5165C44.2256 15.3349 44.1721 15.1553 44.064 15.0091C44.0112 14.9471 43.9448 14.8982 43.87 14.8662C43.7952 14.8342 43.714 14.8201 43.6328 14.8248C43.5438 14.8147 43.4537 14.8286 43.3718 14.8651C43.2899 14.9015 43.2192 14.9592 43.1671 15.0322C43.0709 15.2169 43.0267 15.4243 43.0391 15.6322V19.5662L41.8515 19.5653ZM46.3848 19.5653V11.3476H47.568V16.2625H47.5911L49.0231 13.7129H50.2106L48.8017 16.0898L50.5022 19.5617H49.2097L48.1386 17.0352L47.568 17.9255V19.5635L46.3848 19.5653ZM50.9182 19.5653V13.7156H52.1057V19.5653H50.9182ZM50.9182 12.5271V11.3476H52.1057V12.5245L50.9182 12.5271ZM53.0844 19.5653V13.7156H54.272V14.2809H54.2951C54.4129 14.102 54.5637 13.9473 54.7395 13.8251C54.9394 13.6991 55.1729 13.637 55.4088 13.647C55.5601 13.6473 55.7103 13.6725 55.8533 13.7218C56.0024 13.7731 56.1378 13.858 56.2488 13.9702C56.3724 14.097 56.4676 14.2487 56.528 14.4153C56.6031 14.6281 56.6387 14.8529 56.6328 15.0785V19.5662H55.44V15.5165C55.4504 15.3349 55.397 15.1553 55.2888 15.0091C55.2361 14.9471 55.1697 14.8982 55.0949 14.8662C55.0201 14.8342 54.9389 14.8201 54.8577 14.8248C54.7687 14.8147 54.6786 14.8286 54.5967 14.8651C54.5148 14.9015 54.4441 14.9592 54.392 15.0322C54.2958 15.2169 54.2516 15.4243 54.264 15.6322V19.5662L53.0844 19.5653ZM58.8017 20.2463C58.8126 20.3924 58.8721 20.5306 58.9706 20.6389C59.0285 20.7022 59.0999 20.7516 59.1794 20.7835C59.259 20.8154 59.3447 20.829 59.4302 20.8232C59.5094 20.8306 59.5892 20.8183 59.6624 20.7872C59.7356 20.7561 59.8 20.7073 59.8497 20.6451C59.9396 20.5106 59.9844 20.351 59.9777 20.1893V19.032H59.9546C59.8334 19.2146 59.6719 19.3669 59.4826 19.4771C59.2884 19.584 59.0695 19.6377 58.848 19.6329C58.64 19.6524 58.431 19.6103 58.2468 19.5118C58.0625 19.4134 57.9112 19.263 57.8115 19.0792C57.735 18.9272 57.6839 18.7636 57.6604 18.5949C57.6253 18.3389 57.6099 18.0806 57.6142 17.8222V15.5966C57.6094 15.2847 57.621 14.9726 57.6488 14.6619C57.6642 14.4843 57.722 14.313 57.8173 14.1624C57.9126 14.0118 58.0426 13.8863 58.1964 13.7966C58.3985 13.6832 58.6293 13.6312 58.8604 13.647C58.9882 13.6445 59.1156 13.6601 59.2391 13.6933C59.3396 13.7223 59.4356 13.7651 59.5244 13.8206C59.6095 13.8743 59.6878 13.9383 59.7573 14.0111C59.8272 14.0841 59.901 14.1631 59.9786 14.2479V13.7138H61.1662V20.2783C61.1652 20.4841 61.1319 20.6884 61.0675 20.8837C61.0017 21.0875 60.8925 21.2746 60.7475 21.4321C60.5924 21.6069 60.4018 21.7465 60.1884 21.8416C59.9361 21.9506 59.6632 22.0038 59.3884 21.9974C59.1987 21.9949 59.0104 21.9649 58.8293 21.9083C58.633 21.8488 58.4513 21.7487 58.296 21.6146C58.1154 21.472 57.9667 21.2931 57.8595 21.0893C57.7258 20.8247 57.6446 20.5366 57.6204 20.2409L58.8017 20.2463ZM58.8017 17.7661C58.7981 17.9357 58.8405 18.1031 58.9244 18.2504C58.9749 18.3236 59.0444 18.3816 59.1254 18.4181C59.2063 18.4547 59.2958 18.4684 59.384 18.4578C59.4633 18.46 59.5423 18.4453 59.6155 18.4146C59.6888 18.3839 59.7547 18.3379 59.8088 18.2798C59.9231 18.1562 59.9839 17.9923 59.9777 17.824V15.5512C59.9865 15.3625 59.9289 15.1767 59.8151 15.026C59.7634 14.9583 59.6962 14.9042 59.6191 14.8682C59.542 14.8322 59.4574 14.8155 59.3724 14.8195C59.2855 14.8127 59.1984 14.8295 59.1202 14.868C59.0421 14.9066 58.9756 14.9654 58.928 15.0385C58.8275 15.2135 58.779 15.4136 58.7884 15.6153L58.8017 17.7661Z" fill="#0E2140"/>
<path d="M13.1012 20.4705C12.0368 20.4681 10.9983 20.1424 10.1227 19.5365C9.24703 18.9305 8.57552 18.0729 8.19682 17.0767C8.19682 17.0705 8.19435 17.0645 8.18997 17.0601C8.18558 17.0557 8.17962 17.0533 8.17341 17.0533C7.97215 16.4605 7.86743 15.8392 7.86328 15.2132C7.86358 14.5847 7.97656 13.9615 8.19682 13.3731C8.19682 13.3668 8.19929 13.3609 8.20368 13.3565C8.20807 13.3521 8.21402 13.3496 8.22023 13.3496C8.59102 12.3529 9.25735 11.4935 10.1298 10.8869C11.0022 10.2803 12.0391 9.95538 13.1012 9.95581C14.1655 9.95823 15.2041 10.2839 16.0797 10.8899C16.9553 11.4958 17.6268 12.3535 18.0055 13.3496C18.0055 13.3558 18.008 13.3618 18.0124 13.3662C18.0168 13.3706 18.0227 13.3731 18.0289 13.3731C18.4732 14.5594 18.4732 15.8669 18.0289 17.0533C18.0289 17.0595 18.0265 17.0655 18.0221 17.0698C18.0177 17.0742 18.0117 17.0767 18.0055 17.0767C17.627 18.073 16.9555 18.9308 16.0799 19.5367C15.2042 20.1427 14.1655 20.4683 13.1012 20.4705ZM8.98239 14.0184C8.8781 14.4083 8.82161 14.8095 8.81416 15.2132C8.82163 15.617 8.87813 16.0185 8.98239 16.4086H10.5528C10.5042 16.012 10.4798 15.6128 10.4797 15.2132C10.4793 14.8135 10.5037 14.4143 10.5528 14.0177L8.98239 14.0184ZM11.3157 11.3183C10.5072 11.6849 9.833 12.2948 9.38688 13.0632H10.6962C10.8178 12.4547 11.0264 11.867 11.3157 11.3183ZM11.5066 14.0177C11.4573 14.4142 11.4329 14.8135 11.4335 15.2132C11.4324 15.6128 11.4568 16.0121 11.5066 16.4086H14.6965C14.7458 16.0121 14.7702 15.6128 14.7696 15.2132C14.7707 14.8135 14.7463 14.4142 14.6965 14.0177H11.5066ZM13.1012 10.9118C12.5775 10.9118 12.004 11.7483 11.6727 13.0632H14.5297C14.1961 11.7476 13.6249 10.9118 13.1012 10.9118ZM15.5069 17.3646C15.3847 17.9741 15.1753 18.5628 14.8852 19.1124C15.6888 18.7384 16.361 18.1303 16.814 17.3675L15.5069 17.3646ZM16.8162 13.0617C16.3691 12.2937 15.6941 11.6844 14.8852 11.3183C15.1735 11.8675 15.3822 12.455 15.5047 13.0632H16.814L16.8162 13.0617ZM17.3874 15.2132C17.3802 14.8093 17.324 14.4079 17.2199 14.0177H15.6495C15.6981 14.4143 15.7226 14.8135 15.7227 15.2132C15.7231 15.6128 15.6986 16.0121 15.6495 16.4086H17.2214C17.3245 16.0183 17.3802 15.6169 17.3874 15.2132ZM13.1012 19.5146C13.6249 19.5146 14.1983 18.678 14.5297 17.3631H11.6727C12.0062 18.6788 12.5782 19.5146 13.1012 19.5146ZM9.38688 17.3646C9.83226 18.1343 10.5066 18.7453 11.3157 19.1124C11.0273 18.5633 10.8187 17.9757 10.6962 17.3675L9.38688 17.3646Z" fill="#4A8FFF"/>
</g>
<defs>
<clipPath id="clip0_117_1539">
<rect width="56" height="13" fill="white" transform="translate(5 9)"/>
</clipPath>
</defs>
</svg>
