<svg width="68" height="32" viewBox="0 0 68 32" fill="none" xmlns="http://www.w3.org/2000/svg">
<g clip-path="url(#clip0_119_1754)">
<mask id="mask0_119_1754" style="mask-type:luminance" maskUnits="userSpaceOnUse" x="3" y="0" width="63" height="30">
<path d="M66 0H3V30H66V0Z" fill="white"/>
</mask>
<g mask="url(#mask0_119_1754)">
<path d="M20.3482 17.0105C20.109 17.9696 19.5906 18.8363 18.8588 19.5009C18.127 20.1655 17.2146 20.5982 16.2369 20.7442C15.2591 20.8903 14.2601 20.7431 13.366 20.3214C12.4719 19.8996 11.723 19.2223 11.2138 18.3749C10.7047 17.5275 10.4583 16.5482 10.5058 15.5608C10.5532 14.5733 10.8924 13.6222 11.4804 12.8275C12.0684 12.0328 12.8789 11.4304 13.8093 11.0963C14.7397 10.7622 15.7482 10.7116 16.7074 10.9507C17.3444 11.1095 17.9439 11.3922 18.4716 11.7826C18.9993 12.1731 19.4449 12.6637 19.783 13.2264C20.1211 13.7892 20.345 14.413 20.442 15.0622C20.539 15.7115 20.5071 16.3735 20.3482 17.0105Z" fill="#F7931A"/>
<path d="M17.7037 15.0855C17.8035 14.4202 17.2945 14.0626 16.6038 13.8237L16.8289 12.9235L16.2806 12.7868L16.0621 13.6633C15.9181 13.6273 15.77 13.5937 15.6227 13.5602L15.8428 12.6772L15.2945 12.5405L15.0694 13.4407C14.95 13.4137 14.833 13.3867 14.7192 13.3589L13.9631 13.1698L13.8174 13.7557C13.8174 13.7557 14.2266 13.849 14.2159 13.8548C14.2918 13.864 14.361 13.9026 14.4087 13.9623C14.4564 14.0219 14.4789 14.0979 14.4713 14.1739L14.2151 15.201C14.2346 15.2057 14.2537 15.2117 14.2724 15.219L14.2143 15.2042L13.8558 16.6429C13.8479 16.6679 13.8352 16.6912 13.8183 16.7113C13.8013 16.7314 13.7806 16.748 13.7573 16.7601C13.7339 16.7722 13.7084 16.7795 13.6822 16.7817C13.656 16.784 13.6297 16.781 13.6046 16.773C13.6104 16.7812 13.2061 16.6731 13.2061 16.6731L12.9336 17.3008L13.6472 17.4784C13.7798 17.5119 13.9099 17.5463 14.0384 17.579L13.8117 18.4907L14.36 18.6273L14.585 17.7271C14.7348 17.7681 14.8804 17.809 15.022 17.8409L14.7978 18.7411L15.3461 18.8777L15.5727 17.9677C16.5081 18.1445 17.2094 18.0733 17.5081 17.2312C17.5687 17.1118 17.6038 16.9811 17.611 16.8473C17.6182 16.7136 17.5974 16.5798 17.55 16.4546C17.5025 16.3293 17.4295 16.2154 17.3355 16.12C17.2415 16.0246 17.1286 15.9499 17.004 15.9006C17.1947 15.8619 17.367 15.7607 17.4937 15.6131C17.6204 15.4655 17.6943 15.2799 17.7037 15.0855ZM16.45 16.8434C16.2806 17.5242 15.1333 17.1559 14.7618 17.0643L15.0629 15.8564C15.4352 15.9489 16.6276 16.1322 16.45 16.8425V16.8434ZM16.6194 15.0757C16.4647 15.6952 15.5097 15.381 15.2004 15.3032L15.4737 14.2083C15.7839 14.2852 16.7814 14.4292 16.6202 15.0757H16.6194Z" fill="white"/>
<path d="M25.1514 13.823C25.5131 13.8142 25.8722 13.8878 26.2013 14.0382C26.4873 14.1745 26.739 14.3734 26.9378 14.6201C27.1364 14.8759 27.2824 15.1685 27.3674 15.4809C27.462 15.8276 27.5085 16.1855 27.5057 16.5448C27.509 17.6645 27.0781 18.7419 26.3036 19.5505C25.9284 19.9366 25.4814 20.2457 24.9877 20.4605C24.4694 20.6868 23.9092 20.8012 23.3437 20.7961C23.2676 20.7961 23.1333 20.796 22.9443 20.7903C22.7252 20.7838 22.5066 20.7649 22.2896 20.7338C22.0277 20.6964 21.768 20.6453 21.5114 20.5808C21.2429 20.5159 20.982 20.4226 20.7332 20.3026L22.9222 11.1037L24.8862 10.8L24.1023 14.0644C24.2653 13.9907 24.4346 13.9316 24.608 13.8876C24.7861 13.8442 24.9689 13.8228 25.1522 13.8238L25.1514 13.823ZM23.5065 19.2404C23.7985 19.2407 24.0858 19.1667 24.3412 19.0252C24.6037 18.8823 24.8342 18.6873 25.0188 18.4523C25.2117 18.2056 25.3634 17.9292 25.4681 17.634C25.5775 17.3292 25.6329 17.0077 25.6318 16.6839C25.6491 16.3552 25.5794 16.0277 25.4296 15.7346C25.3481 15.6151 25.2355 15.5201 25.104 15.4599C24.9725 15.3996 24.827 15.3763 24.6833 15.3926C24.5277 15.3982 24.3731 15.4193 24.2217 15.4556C24.0308 15.4994 23.8542 15.5912 23.7086 15.7223L22.8739 19.1888L23.0065 19.2142C23.0459 19.2229 23.0858 19.2292 23.126 19.233C23.1768 19.2383 23.2279 19.2408 23.279 19.2404H23.5065Z" fill="#4D4D4D"/>
<path d="M29.5392 20.6202H27.666L29.2479 13.9647H31.13L29.5392 20.6202ZM30.4508 13.1537C30.1953 13.1557 29.9462 13.0734 29.7422 12.9196C29.6344 12.8358 29.5491 12.7266 29.4938 12.6018C29.4386 12.477 29.4151 12.3405 29.4254 12.2044C29.4246 12.0322 29.4612 11.8619 29.5327 11.7052C29.6013 11.5521 29.6982 11.4133 29.8183 11.296C29.9375 11.1818 30.076 11.0895 30.2274 11.0235C30.3857 10.956 30.5562 10.9217 30.7282 10.9229C30.9835 10.921 31.2323 11.0033 31.4361 11.1569C31.5431 11.2413 31.6279 11.3506 31.683 11.4753C31.738 11.6 31.7617 11.7362 31.752 11.8722C31.7529 12.0447 31.716 12.2154 31.644 12.3722C31.576 12.5254 31.4793 12.6643 31.3592 12.7813C31.2402 12.8957 31.1016 12.9877 30.95 13.053C30.7922 13.121 30.6219 13.1553 30.45 13.1537H30.4508Z" fill="#4D4D4D"/>
<path d="M32.7753 12.3058L34.7394 12.0022L34.2574 13.9662H36.358L35.9783 15.5096H33.8899L33.3335 17.8378C33.2851 18.0153 33.2555 18.1974 33.2451 18.3812C33.2331 18.5297 33.2546 18.6791 33.3081 18.8182C33.3605 18.9431 33.4573 19.0442 33.5798 19.1021C33.757 19.1795 33.9497 19.2145 34.1428 19.2044C34.3406 19.2048 34.538 19.1856 34.732 19.1471C34.9264 19.1081 35.1179 19.0553 35.3048 18.9892L35.4448 20.4319C35.176 20.5292 34.9013 20.6093 34.6224 20.6717C34.2769 20.7443 33.9245 20.778 33.5716 20.7723C33.1059 20.796 32.6414 20.7073 32.2172 20.5137C31.9163 20.3606 31.6756 20.1107 31.5339 19.8042C31.3951 19.4794 31.3346 19.1265 31.3572 18.7739C31.3778 18.3602 31.437 17.9492 31.5339 17.5464L32.7753 12.3058Z" fill="#4D4D4D"/>
<path d="M36.2726 17.9623C36.2689 17.41 36.3631 16.8614 36.5508 16.3419C36.7271 15.8507 36.9982 15.3989 37.3487 15.0121C37.701 14.6274 38.1301 14.3208 38.6081 14.112C39.1291 13.8878 39.6916 13.7762 40.2587 13.7846C40.6014 13.7805 40.9433 13.8168 41.2775 13.8927C41.5595 13.9583 41.8338 14.0535 42.0959 14.1766L41.4502 15.6455C41.2816 15.5768 41.1065 15.5171 40.9248 15.4622C40.7085 15.4025 40.4847 15.3749 40.2603 15.3804C39.9799 15.3684 39.7003 15.4202 39.4428 15.5319C39.1852 15.6436 38.9563 15.8123 38.7734 16.0252C38.3858 16.5175 38.1901 17.1336 38.2227 17.7593C38.2054 18.1278 38.3029 18.4927 38.5017 18.8035C38.6266 18.949 38.7854 19.0615 38.9641 19.131C39.1428 19.2005 39.3359 19.2249 39.5263 19.202C39.7646 19.2027 40.0022 19.1775 40.235 19.1268C40.443 19.0821 40.6465 19.0186 40.843 18.9369L40.9829 20.4426C40.7266 20.5403 40.4645 20.6223 40.1981 20.6881C39.8618 20.764 39.5176 20.7997 39.1728 20.7945C38.7191 20.8066 38.2676 20.7293 37.8438 20.567C37.5027 20.4302 37.1955 20.2208 36.9436 19.9533C36.706 19.6942 36.5305 19.3844 36.4305 19.0474C36.3245 18.6955 36.2713 18.3298 36.2726 17.9623Z" fill="#4D4D4D"/>
<path d="M44.5931 20.7992C44.1955 20.8078 43.7999 20.7389 43.4286 20.5963C43.1147 20.4722 42.8343 20.276 42.6103 20.0234C42.3893 19.771 42.2222 19.4761 42.1193 19.1568C42.0058 18.7992 41.9506 18.4256 41.9556 18.0504C41.9566 17.5341 42.0395 17.0212 42.2011 16.5308C42.3594 16.0352 42.6061 15.5725 42.9295 15.165C43.2537 14.7576 43.6563 14.4195 44.1136 14.1707C44.6028 13.9076 45.1515 13.7749 45.7069 13.7852C46.1026 13.7778 46.4961 13.8467 46.8657 13.9882C47.1808 14.1122 47.4625 14.3084 47.6881 14.561C47.9072 14.8142 48.0726 15.1094 48.1742 15.4285C48.2877 15.7864 48.3429 16.1602 48.3379 16.5357C48.3361 17.0515 48.2552 17.564 48.0981 18.0553C47.9443 18.5491 47.7043 19.0118 47.3894 19.422C47.0727 19.8307 46.6741 20.1688 46.2192 20.4146C45.7188 20.6792 45.1591 20.8116 44.5931 20.7992ZM45.5293 15.3835C45.2639 15.3785 45.0045 15.4629 44.7928 15.6232C44.5775 15.789 44.397 15.9956 44.2617 16.2313C44.1142 16.4819 44.004 16.7526 43.9344 17.0349C43.8653 17.3058 43.8293 17.5842 43.8272 17.8638C43.8099 18.2049 43.8795 18.5447 44.0293 18.8516C44.1069 18.9733 44.217 19.0709 44.3471 19.1334C44.4773 19.1959 44.6223 19.2207 44.7658 19.2051C45.0314 19.2103 45.291 19.1255 45.5023 18.9645C45.7173 18.7988 45.8978 18.5925 46.0334 18.3573C46.1808 18.1066 46.291 17.836 46.3608 17.5537C46.4294 17.2826 46.4654 17.0043 46.4679 16.7247C46.4856 16.3836 46.4158 16.0435 46.265 15.737C46.1875 15.6152 46.0774 15.5175 45.9472 15.455C45.8171 15.3925 45.6728 15.3677 45.5293 15.3835Z" fill="#4D4D4D"/>
<path d="M50.3794 20.6202H48.5046L50.0865 13.9647H51.9727L50.3794 20.6202ZM51.2894 13.1537C51.0341 13.1557 50.7853 13.0734 50.5816 12.9196C50.474 12.8357 50.3888 12.7265 50.3336 12.6017C50.2783 12.477 50.2547 12.3405 50.2649 12.2044C50.2643 12.0322 50.3011 11.8618 50.3729 11.7052C50.441 11.552 50.5376 11.4131 50.6577 11.296C50.7769 11.1817 50.9154 11.0895 51.0668 11.0235C51.2245 10.956 51.3945 10.9217 51.566 10.9229C51.8215 10.9209 52.0706 11.0032 52.2747 11.1569C52.3821 11.2411 52.4672 11.3503 52.5226 11.475C52.5779 11.5997 52.6019 11.7361 52.5922 11.8722C52.5923 12.0447 52.5552 12.2153 52.4834 12.3722C52.4157 12.5254 52.3193 12.6643 52.1994 12.7813C52.0802 12.8954 51.9417 12.9874 51.7902 13.053C51.6321 13.121 51.4615 13.1553 51.2894 13.1537Z" fill="#4D4D4D"/>
<path d="M53.3229 14.2666C53.4653 14.2249 53.6241 14.175 53.7967 14.121C53.9694 14.067 54.1634 14.0162 54.3802 13.9704C54.6184 13.9197 54.859 13.8814 55.1012 13.8558C55.4002 13.8242 55.7007 13.8091 56.0014 13.8108C56.3876 13.7662 56.7788 13.822 57.1372 13.9728C57.4956 14.1237 57.8091 14.3644 58.0472 14.6717C58.2412 15.029 58.3589 15.4227 58.3928 15.8278C58.4268 16.2329 58.3762 16.6407 58.2444 17.0253L57.3827 20.6186H55.5006L56.3352 17.0997C56.386 16.8804 56.4261 16.6677 56.4555 16.4598C56.4861 16.2798 56.4839 16.0957 56.449 15.9164C56.4182 15.7662 56.3357 15.6315 56.2157 15.5359C56.049 15.4265 55.8508 15.3753 55.6519 15.3902C55.4012 15.3912 55.1513 15.417 54.9056 15.4671L53.6781 20.617H51.7959L53.3229 14.2666Z" fill="#4D4D4D"/>
</g>
</g>
<defs>
<clipPath id="clip0_119_1754">
<rect width="63" height="18" fill="white" transform="translate(3 7)"/>
</clipPath>
</defs>
</svg>
