<svg width="68" height="32" viewBox="0 0 68 32" fill="none" xmlns="http://www.w3.org/2000/svg">
<g clip-path="url(#clip0_119_1756)">
<path d="M27.4748 14.5632V7.99996H28.4253V13.623H30.3058V14.5632H27.4748ZM30.7815 11.4566C30.7805 11.2809 30.793 11.1053 30.8189 10.9315C30.84 10.7829 30.8871 10.6393 30.9582 10.5078C31.0718 10.3039 31.2377 10.1356 31.4381 10.0208C31.6706 9.89151 31.9327 9.8278 32.1974 9.83618C32.4621 9.8278 32.7242 9.89151 32.9568 10.0208C33.1574 10.136 33.3233 10.305 33.4367 10.5095C33.5077 10.6411 33.5549 10.7846 33.576 10.9332C33.6019 11.107 33.6144 11.2826 33.6134 11.4584V12.9982C33.6144 13.174 33.6019 13.3496 33.576 13.5234C33.5549 13.672 33.5077 13.8155 33.4367 13.9471C33.3233 14.1516 33.1574 14.3206 32.9568 14.4358C32.7242 14.5651 32.4621 14.6288 32.1974 14.6204C31.9327 14.6288 31.6706 14.5651 31.4381 14.4358C31.2373 14.3203 31.0714 14.151 30.9582 13.9462C30.8871 13.8147 30.84 13.6711 30.8189 13.5225C30.793 13.3487 30.7805 13.1731 30.7815 12.9974V11.4566ZM31.7311 13.1403C31.7201 13.2857 31.7652 13.4297 31.8568 13.5416C31.9012 13.5868 31.9543 13.622 32.0129 13.645C32.0714 13.6679 32.134 13.6782 32.1966 13.675C32.2592 13.6782 32.3218 13.6679 32.3803 13.645C32.4388 13.622 32.492 13.5868 32.5363 13.5416C32.6279 13.4297 32.673 13.2857 32.662 13.1403V11.3093C32.673 11.164 32.6279 11.02 32.5363 10.9081C32.492 10.8629 32.4388 10.8277 32.3803 10.8047C32.3218 10.7817 32.2592 10.7715 32.1966 10.7747C32.134 10.7715 32.0714 10.7817 32.0129 10.8047C31.9543 10.8277 31.9012 10.8629 31.8568 10.9081C31.7652 11.02 31.7201 11.164 31.7311 11.3093V13.1403ZM35.3164 13.214C35.3124 13.2767 35.3216 13.3396 35.3433 13.3985C35.3649 13.4574 35.3986 13.5108 35.4421 13.5554C35.5358 13.6388 35.6577 13.6817 35.7819 13.675C35.8499 13.6845 35.9193 13.6749 35.9824 13.6473C36.0455 13.6196 36.1001 13.575 36.1403 13.5182C36.1964 13.4221 36.2329 13.3153 36.2473 13.2045H37.197C37.2046 13.3884 37.1746 13.572 37.1087 13.7434C37.0429 13.9149 36.9428 14.0704 36.8147 14.2001C36.6889 14.3325 36.538 14.4374 36.3713 14.5086C36.1848 14.5849 35.9853 14.6226 35.7844 14.6195C35.5197 14.6279 35.2576 14.5642 35.0251 14.435C34.8238 14.3199 34.6573 14.1509 34.5435 13.9462C34.4724 13.8147 34.4252 13.6711 34.4042 13.5225C34.3783 13.3487 34.3658 13.1731 34.3668 12.9974V11.4566C34.3658 11.2809 34.3783 11.1053 34.4042 10.9315C34.4252 10.7829 34.4724 10.6393 34.5435 10.5078C34.657 10.3039 34.823 10.1356 35.0234 10.0208C35.2559 9.89151 35.518 9.8278 35.7827 9.83618C35.9861 9.83299 36.1882 9.87068 36.3773 9.9471C36.5468 10.0157 36.7006 10.1193 36.8292 10.2513C37.0851 10.5484 37.2187 10.9349 37.202 11.3301H36.2482C36.2608 11.179 36.2158 11.0288 36.1225 10.9107C36.0781 10.8655 36.0249 10.8303 35.9664 10.8073C35.9079 10.7843 35.8453 10.7741 35.7827 10.7773C35.7201 10.7741 35.6575 10.7843 35.599 10.8073C35.5405 10.8303 35.4873 10.8655 35.443 10.9107C35.3514 11.0226 35.3063 11.1666 35.3172 11.3119L35.3164 13.214ZM39.554 14.5632V14.084H39.5353C39.4309 14.2355 39.3036 14.3691 39.1582 14.48C38.9981 14.5814 38.8112 14.6298 38.6231 14.6187C38.508 14.618 38.3937 14.6008 38.2833 14.5676C38.1611 14.5296 38.0484 14.4651 37.9529 14.3786C37.8381 14.2784 37.7503 14.1498 37.6981 14.0052C37.6264 13.8028 37.5933 13.5884 37.6004 13.3734C37.5977 13.1406 37.6196 12.9082 37.6658 12.6802C37.7026 12.4941 37.786 12.321 37.9079 12.1776C38.0317 12.0409 38.1893 11.9407 38.364 11.8873C38.6028 11.8162 38.851 11.7835 39.0996 11.7903H39.2024C39.2368 11.7901 39.2713 11.7933 39.3051 11.7998C39.3421 11.8066 39.3797 11.8098 39.4173 11.8093C39.4638 11.8096 39.5104 11.8128 39.5566 11.8189V11.3301C39.5618 11.1906 39.526 11.0527 39.4538 10.9341C39.4098 10.8778 39.3525 10.8338 39.2873 10.8064C39.222 10.779 39.151 10.7689 39.0809 10.7773C38.9577 10.7769 38.838 10.8191 38.7411 10.8968C38.6349 10.9834 38.5635 11.1067 38.5407 11.2435H37.6166C37.6249 10.8623 37.7771 10.4992 38.0412 10.2296C38.17 10.1037 38.3218 10.0051 38.488 9.9393C38.6753 9.86623 38.8745 9.83034 39.075 9.83358C39.265 9.83209 39.4539 9.86314 39.6339 9.92544C39.8031 9.98416 39.9585 10.0783 40.09 10.2019C40.2195 10.3329 40.321 10.4899 40.3881 10.6629C40.4666 10.8685 40.5047 11.0878 40.5002 11.3085V14.5632H39.554ZM39.554 12.5537C39.468 12.5372 39.3808 12.5279 39.2933 12.526C39.1081 12.5206 38.9255 12.5703 38.7675 12.6689C38.6898 12.7286 38.6286 12.808 38.5902 12.8992C38.5518 12.9904 38.5373 13.0902 38.5483 13.1889C38.5414 13.3444 38.5876 13.4976 38.6791 13.6221C38.7227 13.677 38.7783 13.7206 38.8415 13.7493C38.9046 13.7781 38.9736 13.7912 39.0427 13.7877C39.113 13.7916 39.1833 13.7796 39.2485 13.7525C39.3138 13.7254 39.3723 13.6838 39.4198 13.6308C39.5167 13.5052 39.5648 13.3475 39.5549 13.188L39.554 12.5537ZM41.1466 7.99996H42.0962V13.2452C42.0816 13.3748 42.1166 13.5052 42.1939 13.6091C42.3006 13.6893 42.4293 13.733 42.5617 13.7339V14.6187C42.3658 14.6205 42.1702 14.6037 41.9773 14.5684C41.815 14.5396 41.6618 14.4716 41.5306 14.37C41.4009 14.2701 41.3023 14.1341 41.2469 13.9783C41.1746 13.7635 41.1415 13.5371 41.1492 13.3102L41.1466 7.99996ZM44.7226 14.5632V7.99996H46.1105C46.3763 7.99289 46.6408 8.04003 46.8885 8.13861C47.0878 8.22066 47.267 8.34638 47.4134 8.50689C47.549 8.65892 47.6492 8.8402 47.7065 9.03722C47.7646 9.23924 47.7932 9.44888 47.7914 9.6594V9.89944C47.7941 10.051 47.7801 10.2025 47.7498 10.3509C47.7254 10.4646 47.6829 10.5735 47.6241 10.6733C47.5023 10.8606 47.3357 11.013 47.1399 11.1161C47.3506 11.2087 47.5245 11.3711 47.6334 11.5771C47.7504 11.8366 47.8046 12.121 47.7914 12.4064V12.7755C47.8233 13.2574 47.6711 13.7332 47.3667 14.1031C47.1837 14.2716 46.9685 14.3995 46.7346 14.4788C46.5006 14.5582 46.2532 14.5872 46.0077 14.5641L44.7226 14.5632ZM45.6722 11.5208V13.623H46.0816C46.2367 13.6293 46.3912 13.5997 46.5335 13.5364C46.6366 13.4864 46.7227 13.4061 46.7806 13.3059C46.839 13.1992 46.874 13.081 46.8834 12.9592C46.8959 12.824 46.9021 12.6764 46.9021 12.5164C46.9035 12.3715 46.8941 12.2266 46.8741 12.0831C46.8595 11.9715 46.8212 11.8645 46.762 11.7695C46.6976 11.6818 46.6088 11.616 46.5071 11.5805C46.372 11.5361 46.2303 11.5159 46.0884 11.5208H45.6722ZM45.6722 8.88384V10.6906H46.0969C46.2147 10.7069 46.3346 10.6939 46.4464 10.6527C46.5582 10.6115 46.6586 10.5434 46.739 10.454C46.8607 10.2473 46.9176 10.0075 46.9021 9.76686C46.9193 9.53074 46.855 9.29593 46.7203 9.10308C46.6332 9.01987 46.5293 8.95701 46.4159 8.91885C46.3025 8.88069 46.1824 8.86816 46.0638 8.88211L45.6722 8.88384ZM50.4288 14.5624V14.084H50.4101C50.3056 14.2355 50.1783 14.3691 50.033 14.48C49.8729 14.5814 49.686 14.6298 49.4979 14.6187C49.3828 14.618 49.2684 14.6008 49.1581 14.5676C49.0359 14.5296 48.9232 14.4651 48.8277 14.3786C48.7128 14.2784 48.6251 14.1498 48.5729 14.0052C48.5012 13.8028 48.4681 13.5884 48.4752 13.3734C48.4725 13.1406 48.4944 12.9082 48.5406 12.6802C48.5773 12.4941 48.6607 12.321 48.7827 12.1776C48.9065 12.0409 49.064 11.9407 49.2388 11.8873C49.4776 11.8162 49.7257 11.7835 49.9744 11.7903H50.0771C50.1116 11.7901 50.146 11.7933 50.1799 11.7998C50.2169 11.8066 50.2544 11.8098 50.292 11.8093C50.3386 11.8096 50.3851 11.8128 50.4313 11.8189V11.3301C50.4365 11.1906 50.4007 11.0527 50.3286 10.9341C50.2846 10.8778 50.2273 10.8338 50.162 10.8064C50.0968 10.779 50.0258 10.7689 49.9557 10.7773C49.8325 10.7769 49.7127 10.8191 49.6159 10.8968C49.5097 10.9834 49.4383 11.1067 49.4155 11.2435H48.4947C48.5031 10.8623 48.6552 10.4992 48.9194 10.2296C49.0481 10.1037 49.2 10.0051 49.3662 9.9393C49.5534 9.86623 49.7527 9.83034 49.9531 9.83358C50.1432 9.83209 50.3321 9.86314 50.512 9.92544C50.6813 9.98416 50.8366 10.0783 50.9681 10.2019C51.0977 10.3329 51.1992 10.4899 51.2663 10.6629C51.3447 10.8685 51.3828 11.0878 51.3784 11.3085V14.5632L50.4288 14.5624ZM50.4288 12.5528C50.3428 12.5363 50.2555 12.5271 50.168 12.5251C49.9829 12.5198 49.8002 12.5694 49.6422 12.6681C49.5645 12.7278 49.5034 12.8072 49.465 12.8983C49.4265 12.9895 49.4121 13.0894 49.4231 13.188C49.4162 13.3435 49.4624 13.4967 49.5539 13.6213C49.5974 13.6761 49.6531 13.7197 49.7162 13.7485C49.7794 13.7772 49.8484 13.7904 49.9175 13.7868C49.9878 13.7908 50.0581 13.7787 50.1233 13.7516C50.1885 13.7245 50.247 13.6829 50.2946 13.6299C50.3915 13.5043 50.4396 13.3467 50.4296 13.1871L50.4288 12.5528ZM52.08 14.5632V9.88991H53.0296V10.3414H53.0483C53.1439 10.1978 53.2655 10.0742 53.4068 9.97743C53.5671 9.87636 53.7535 9.82656 53.9419 9.83445C54.0623 9.83478 54.1819 9.85497 54.2961 9.89424C54.4151 9.93487 54.5235 10.0027 54.6129 10.0927C54.7114 10.1934 54.7876 10.3146 54.8363 10.448C54.8968 10.6178 54.9256 10.7977 54.9212 10.9783V14.5632H53.9708V11.3275C53.9789 11.1819 53.9358 11.0381 53.8493 10.922C53.8066 10.8722 53.7534 10.8331 53.6936 10.8075C53.6338 10.782 53.5691 10.7707 53.5044 10.7747C53.4335 10.7663 53.3616 10.7772 53.2962 10.8062C53.2307 10.8353 53.1739 10.8815 53.1316 10.9402C53.0547 11.0872 53.0191 11.253 53.0288 11.4194V14.5632H52.08ZM55.7027 14.5632V7.99996H56.6523V11.9272H56.6718L57.8176 9.88991H58.7673L57.6401 11.7885L58.9992 14.5615H57.9663L57.1093 12.5424L56.6531 13.2521V14.5632H55.7027ZM28.0991 22.9445V17.2651H27V16.3804H30.1478V17.2651H29.0487V22.9445H28.0991ZM29.9338 22.9445V18.2703H30.8834V18.7677C31.0561 18.6097 31.2469 18.4735 31.4517 18.3622C31.6664 18.2576 31.9027 18.207 32.1405 18.2149V19.2105C32.0485 19.1738 31.9505 19.155 31.8517 19.1551C31.7426 19.1566 31.6342 19.1738 31.5298 19.2062C31.415 19.2408 31.3088 19.2998 31.2181 19.3795C31.1152 19.4641 31.0324 19.5713 30.976 19.6932C30.9095 19.8436 30.8775 20.0075 30.8826 20.1724V22.9454L29.9338 22.9445ZM34.2657 22.9445V22.4644H34.2479C34.1434 22.6159 34.0161 22.7495 33.8707 22.8604C33.7106 22.9618 33.5237 23.0103 33.3356 22.9991C33.2206 22.9985 33.1062 22.9812 32.9959 22.948C32.8629 22.9053 32.741 22.8326 32.6394 22.7352C32.5378 22.6378 32.459 22.5183 32.4089 22.3856C32.3373 22.1833 32.3041 21.9689 32.3112 21.7539C32.3086 21.5211 32.3305 21.2886 32.3767 21.0606C32.4134 20.8746 32.4968 20.7014 32.6187 20.558C32.7426 20.4214 32.9001 20.3211 33.0749 20.2677C33.3136 20.1966 33.5618 20.1639 33.8104 20.1707H33.9081C33.9426 20.1705 33.977 20.1737 34.0109 20.1802C34.0479 20.187 34.0854 20.1902 34.123 20.1897C34.1696 20.1901 34.2161 20.1932 34.2623 20.1993V19.7088C34.2687 19.5694 34.2341 19.4311 34.1629 19.3119C34.1189 19.2556 34.0616 19.2117 33.9964 19.1842C33.9312 19.1568 33.8601 19.1467 33.79 19.1551C33.6668 19.1548 33.5471 19.1969 33.4503 19.2747C33.344 19.3612 33.2727 19.4846 33.2498 19.6213H32.3274C32.3358 19.2402 32.4879 18.877 32.7521 18.6074C32.8808 18.4815 33.0326 18.3829 33.1989 18.3171C33.3861 18.244 33.5853 18.2082 33.7858 18.2114C33.9758 18.2099 34.1647 18.241 34.3447 18.3033C34.5139 18.362 34.6693 18.4561 34.8008 18.5797C34.9303 18.7107 35.0318 18.8677 35.099 19.0407C35.1774 19.2463 35.2155 19.4657 35.2111 19.6863V22.9445H34.2657ZM34.2657 20.935C34.1797 20.9185 34.0925 20.9092 34.0049 20.9072C33.8198 20.9019 33.6371 20.9516 33.4792 21.0502C33.4014 21.1099 33.3403 21.1893 33.3019 21.2805C33.2635 21.3717 33.249 21.4715 33.26 21.5702C33.2531 21.7257 33.2993 21.8788 33.3908 22.0034C33.4344 22.0583 33.49 22.1019 33.5532 22.1306C33.6163 22.1594 33.6853 22.1725 33.7544 22.1689C33.8247 22.1729 33.895 22.1609 33.9602 22.1338C34.0254 22.1067 34.0839 22.0651 34.1315 22.0121C34.2284 21.8865 34.2765 21.7288 34.2666 21.5693L34.2657 20.935ZM35.9127 22.9445V18.2703H36.8623V18.7218H36.881C36.9765 18.5782 37.0982 18.4546 37.2394 18.3578C37.3998 18.2568 37.5862 18.207 37.7745 18.2149C37.895 18.2152 38.0146 18.2354 38.1287 18.2747C38.2478 18.3153 38.3562 18.3832 38.4456 18.4731C38.5441 18.5739 38.6203 18.695 38.669 18.8284C38.7294 18.9982 38.7583 19.1781 38.7539 19.3587V22.9445H37.8034V19.7088C37.8115 19.5632 37.7685 19.4194 37.682 19.3033C37.6393 19.2535 37.586 19.2143 37.5263 19.1888C37.4665 19.1633 37.4018 19.152 37.3371 19.1559C37.2662 19.1476 37.1943 19.1584 37.1288 19.1875C37.0634 19.2166 37.0066 19.2628 36.9642 19.3215C36.8874 19.4685 36.8518 19.6343 36.8614 19.8007V22.9445H35.9127ZM41.2587 19.5797C41.2606 19.5119 41.2478 19.4445 41.2212 19.3824C41.1947 19.3202 41.155 19.2648 41.105 19.2201C41.0122 19.1416 40.8951 19.0992 40.7746 19.1005C40.7103 19.0965 40.6459 19.1072 40.5862 19.132C40.5266 19.1567 40.4731 19.1948 40.4297 19.2435C40.3508 19.3335 40.3075 19.4502 40.3083 19.571C40.3089 19.6599 40.3314 19.7472 40.3737 19.8249C40.457 19.937 40.5754 20.0168 40.7092 20.0511L41.2681 20.2721C41.5673 20.3644 41.8257 20.5598 41.9994 20.8249C42.1326 21.0569 42.2018 21.3213 42.1999 21.5901C42.2015 21.7785 42.1651 21.9652 42.0929 22.1386C42.0228 22.3051 41.9228 22.4567 41.7981 22.5857C41.6709 22.7169 41.5189 22.8204 41.3513 22.8899C41.171 22.965 40.9778 23.0028 40.7831 23.0008C40.4271 23.0115 40.0807 22.8829 39.8148 22.6412C39.6806 22.5193 39.5727 22.3703 39.498 22.2036C39.4133 22.0108 39.3687 21.8022 39.3672 21.5909H40.2616C40.28 21.7195 40.3261 21.8423 40.3966 21.9506C40.4401 22.009 40.4978 22.0549 40.5638 22.0839C40.6299 22.1129 40.7022 22.124 40.7737 22.1161C40.9079 22.117 41.0381 22.0698 41.1415 21.9826C41.1955 21.9378 41.2385 21.8806 41.2668 21.8158C41.2951 21.7509 41.3081 21.6801 41.3046 21.6091C41.3076 21.4899 41.2714 21.3731 41.2018 21.2773C41.1018 21.1635 40.9727 21.0804 40.829 21.0372L40.3728 20.8717C40.0979 20.7775 39.8543 20.6067 39.6695 20.3786C39.4963 20.1512 39.4062 19.8693 39.4147 19.5814C39.4133 19.3964 39.4499 19.213 39.522 19.0432C39.5941 18.8734 39.7002 18.7208 39.8335 18.5953C39.9587 18.4718 40.1076 18.3762 40.2709 18.3145C40.4437 18.249 40.6268 18.2161 40.8111 18.2175C40.9942 18.2157 41.1759 18.2502 41.3462 18.3189C41.5058 18.3828 41.6505 18.4802 41.7709 18.6048C41.891 18.7309 41.9859 18.8795 42.0504 19.0424C42.1191 19.2134 42.1541 19.3966 42.1532 19.5814L41.2587 19.5797ZM42.9354 22.9445V19.0078H42.47V18.2703H42.9354V17.6343C42.93 17.437 42.965 17.2407 43.0382 17.058C43.1018 16.908 43.1972 16.7742 43.3177 16.6663C43.4278 16.5629 43.5602 16.4872 43.7041 16.4454C43.851 16.4023 44.0032 16.3807 44.156 16.3812H44.5935V17.2651H44.1688C43.9825 17.2651 43.8893 17.3726 43.8893 17.5875V18.2703H44.5969V19.0078H43.8893V22.9445H42.9354ZM47.6292 20.9627H45.7469V21.5979C45.743 21.6606 45.7521 21.7235 45.7738 21.7824C45.7955 21.8412 45.8292 21.8947 45.8726 21.9393C45.9663 22.0227 46.0882 22.0656 46.2124 22.0589C46.2805 22.0684 46.3498 22.0588 46.4129 22.0311C46.4761 22.0035 46.5307 21.9589 46.5708 21.902C46.627 21.806 46.6634 21.6992 46.6779 21.5883H47.6275C47.6352 21.7727 47.605 21.9567 47.5388 22.1284C47.4727 22.3002 47.3722 22.456 47.2436 22.5857C47.1163 22.7169 46.9643 22.8204 46.7968 22.8899C46.6103 22.9662 46.4108 23.0039 46.2099 23.0008C45.9452 23.0092 45.6831 22.9455 45.4505 22.8163C45.2499 22.701 45.0839 22.532 44.9706 22.3275C44.8996 22.196 44.8524 22.0524 44.8313 21.9038C44.8054 21.73 44.7929 21.5544 44.7939 21.3786V19.8379C44.7929 19.6621 44.8054 19.4866 44.8313 19.3128C44.8524 19.1641 44.8996 19.0206 44.9706 18.889C45.0839 18.6846 45.2499 18.5156 45.4505 18.4003C45.6831 18.2711 45.9452 18.2074 46.2099 18.2157C46.4133 18.2125 46.6153 18.2502 46.8044 18.3266C46.9739 18.3953 47.1278 18.4988 47.2563 18.6308C47.5075 18.9153 47.6411 19.2879 47.6292 19.6707V20.9627ZM45.7478 20.2253H46.6821V19.6897C46.6931 19.5444 46.648 19.4004 46.5564 19.2885C46.463 19.2033 46.342 19.1561 46.2166 19.1561C46.0913 19.1561 45.9703 19.2033 45.8769 19.2885C45.7853 19.4004 45.7402 19.5444 45.7512 19.6897L45.7478 20.2253ZM48.3274 22.9445V18.2703H49.277V18.7677C49.4497 18.6097 49.6405 18.4735 49.8453 18.3622C50.06 18.2576 50.2962 18.207 50.5341 18.2149V19.2105C50.4421 19.1738 50.3441 19.155 50.2453 19.1551C50.1365 19.1567 50.0284 19.1739 49.9242 19.2062C49.8095 19.2408 49.7032 19.2998 49.6125 19.3795C49.5096 19.4641 49.4269 19.5713 49.3704 19.6932C49.3039 19.8436 49.272 20.0075 49.277 20.1724V22.9454L48.3274 22.9445Z" fill="#0E2140"/>
</g>
<g clip-path="url(#clip1_119_1756)">
<path d="M23.8662 11.7248L16.7697 8.05244C16.6994 8.02061 16.6231 8.00415 16.5459 8.00415C16.4687 8.00415 16.3923 8.02061 16.322 8.05244L9.23079 11.7248C9.17126 11.756 9.12636 11.8093 9.10575 11.8732C9.08514 11.9372 9.09048 12.0067 9.12061 12.0667L9.452 12.7347C9.48882 12.7995 9.5412 12.854 9.60441 12.8934C9.66762 12.9328 9.73966 12.9558 9.814 12.9603H23.2795C23.3538 12.9558 23.4258 12.9328 23.489 12.8934C23.5523 12.854 23.6046 12.7995 23.6415 12.7347L23.9728 12.0667C24.0032 12.0071 24.0091 11.9379 23.9892 11.874C23.9692 11.8101 23.9251 11.7566 23.8662 11.7248ZM11.1212 13.9598L10.5179 19.9877H13.5292L12.9259 13.9606L11.1212 13.9598ZM15.6444 13.9598L15.041 19.9877H18.0568L17.4535 13.9606L15.6444 13.9598ZM20.1675 13.9598L19.5625 19.9877H22.5782L21.9749 13.9606L20.1675 13.9598ZM22.7155 20.9915H9.87958C8.70354 20.9915 8.70878 23.0026 9.87958 23.0026H22.7155C23.8915 23 23.8863 20.9915 22.7155 20.9915Z" fill="#06A6FF"/>
</g>
<defs>
<clipPath id="clip0_119_1756">
<rect width="32" height="15" fill="white" transform="translate(27 8)"/>
</clipPath>
<clipPath id="clip1_119_1756">
<rect width="15" height="15" fill="white" transform="translate(9 8)"/>
</clipPath>
</defs>
</svg>
