<svg width="68" height="32" viewBox="0 0 68 32" fill="none" xmlns="http://www.w3.org/2000/svg">
<path d="M31.1442 21.8419H27.708L29.8591 9.19849H33.2953L31.1442 21.8419Z" fill="#00579F"/>
<path d="M43.611 9.50702C42.6271 9.14691 41.5811 8.96447 40.5268 8.96908C37.1311 8.96908 34.7395 10.6903 34.7235 13.1521C34.6952 14.967 36.4354 15.9768 37.7374 16.5823C39.0676 17.2008 39.5204 17.6052 39.5204 18.1562C39.5067 19.0034 38.4453 19.3903 37.4587 19.3903C36.3417 19.42 35.234 19.1892 34.2325 18.7181L33.7797 18.5163L33.2986 21.3548C34.5212 21.8055 35.8221 22.0338 37.1334 22.0278C40.7414 22.0278 43.0895 20.3326 43.1185 17.7097C43.1323 16.2701 42.2136 15.1688 40.2321 14.2665C39.0294 13.6857 38.2926 13.298 38.2926 12.7056C38.3063 12.1677 38.9157 11.6167 40.2733 11.6167C41.1548 11.5922 42.0306 11.7578 42.8352 12.1009L43.146 12.2352L43.6133 9.50485L43.611 9.50702Z" fill="#00579F"/>
<path d="M48.1814 17.3619C48.4647 16.6359 49.5558 13.8243 49.5558 13.8243C49.5413 13.8511 49.8384 13.0845 50.0079 12.6141L50.2484 13.703C50.2484 13.703 50.8998 16.7296 51.0411 17.3619H48.1814ZM52.4262 9.19767H49.7666C49.3864 9.15403 49.0019 9.23393 48.6755 9.42439C48.3492 9.61484 48.1002 9.90465 47.9691 10.2467L42.8613 21.8411H46.4694L47.191 19.9441H51.6061C51.7046 20.3877 52.0162 21.8411 52.0162 21.8411H55.2004L52.4262 9.19767Z" fill="#00579F"/>
<path d="M24.834 9.19847L21.4665 17.82L21.0984 16.0712C20.2604 13.8049 18.5659 11.916 16.3442 10.7716L19.4292 21.8288H23.0655L28.4702 9.19702L24.834 9.19847Z" fill="#00579F"/>
<path d="M18.3388 9.19857H12.8065L12.75 9.45411C17.0659 10.5031 19.9279 13.0324 21.0985 16.0727L19.8958 10.265C19.8223 9.93539 19.622 9.64374 19.3341 9.44715C19.0463 9.25057 18.6916 9.16322 18.3396 9.2022L18.3388 9.19857Z" fill="#FAA61A"/>
</svg>
