<svg width="68" height="32" viewBox="0 0 68 32" fill="none" xmlns="http://www.w3.org/2000/svg">
<g clip-path="url(#clip0_119_1759)">
<path d="M15.0532 10.2637L12 18.7865H13.7943L14.6555 16.2993H17.1364L18.0218 18.7865H19.8537L16.7927 10.2637H15.0532ZM16.7019 14.8816H15.0986L15.7703 13.0052C15.8165 12.8739 15.8619 12.7509 15.9002 12.6271C15.9464 12.7583 15.984 12.8888 16.038 13.0268L16.7019 14.8816Z" fill="black"/>
<path d="M22.871 14.9027C22.0466 14.5902 21.955 14.4448 21.955 14.2188C21.955 13.928 22.2071 13.7535 22.6189 13.7535C22.9889 13.7574 23.3507 13.858 23.6648 14.0443L24.0163 14.2554L24.4821 12.9025L24.2684 12.7713C23.7733 12.4961 23.2076 12.3577 22.6346 12.3715C22.34 12.3435 22.0426 12.3733 21.7605 12.459C21.4785 12.5447 21.2179 12.6845 20.9948 12.8698C20.7717 13.0551 20.5908 13.282 20.4632 13.5364C20.3356 13.7909 20.2641 14.0676 20.2531 14.3493C20.2531 15.4039 21.2301 15.964 22.0537 16.2474C22.8772 16.5308 22.9391 16.7418 22.9391 16.9894C22.9391 17.4548 22.4279 17.5204 22.1226 17.5204C21.6732 17.5045 21.2351 17.382 20.8481 17.1639L20.4965 16.9678L20.0386 18.3423L20.2601 18.4661C20.8228 18.7631 21.4566 18.916 22.0999 18.9098C23.6194 18.9098 24.6418 18.0954 24.6418 16.888C24.614 16.4185 24.4259 15.9705 24.1063 15.6121C23.7866 15.2538 23.3529 15.0047 22.871 14.9027Z" fill="black"/>
<path d="M27.3359 11.02L25.6262 11.5145V12.4892H24.7024V13.8928H25.6262V16.6783C25.5701 17.2852 25.7494 17.8907 26.1303 18.3802C26.3136 18.5576 26.5333 18.697 26.7758 18.7897C27.0183 18.8823 27.2783 18.9262 27.5395 18.9186C27.9026 18.9219 28.2637 18.8678 28.6081 18.7583L28.8375 18.6837L28.7459 17.2727L28.349 17.3816C28.1746 17.4255 27.9945 17.4451 27.8143 17.4397C27.6084 17.4397 27.3258 17.4397 27.3258 16.647V13.8876H28.8758V12.4892H27.3336V11.02H27.3359Z" fill="black"/>
<path d="M33.0542 12.4312L32.7411 12.3872C32.6402 12.3717 32.538 12.3644 32.4358 12.3656C32.1701 12.3664 31.9074 12.4183 31.6633 12.5182C31.4193 12.6182 31.199 12.7642 31.0157 12.9473L30.993 12.4894H29.3896L29.4124 12.8168C29.4429 13.3038 29.4656 13.8564 29.4656 14.5694V18.7875H31.1989V15.4569C31.1998 15.3157 31.21 15.1747 31.2294 15.0348C31.2488 14.7559 31.3752 14.4936 31.5846 14.2977C31.7939 14.1019 32.0715 13.9862 32.3645 13.9728C32.464 13.9688 32.5636 13.9738 32.662 13.9877L33.0589 14.0675L33.0511 12.4312H33.0542Z" fill="black"/>
<path d="M36.207 12.3721C35.7568 12.365 35.3099 12.4474 34.895 12.6141C34.4801 12.7808 34.1062 13.0281 33.7973 13.3402C33.4884 13.6523 33.2512 14.0223 33.1009 14.4267C32.9506 14.8311 32.8905 15.2609 32.9244 15.6886C32.8902 16.1043 32.9474 16.5223 33.0925 16.9157C33.2375 17.3091 33.4672 17.6694 33.7669 17.9734C34.0665 18.2774 34.4295 18.5184 34.8326 18.681C35.2356 18.8437 35.6699 18.9243 36.1076 18.9179C36.5587 18.925 37.0064 18.8424 37.4221 18.6754C37.8377 18.5083 38.2123 18.2605 38.5217 17.9478C38.8312 17.635 39.0687 17.2642 39.2192 16.859C39.3697 16.4538 39.4298 16.0232 39.3956 15.5946C39.4296 15.1789 39.372 14.7609 39.2264 14.3676C39.0808 13.9743 38.8505 13.6144 38.5502 13.3109C38.2499 13.0074 37.8864 12.7671 37.4828 12.6054C37.0793 12.4438 36.6447 12.3643 36.207 12.3721ZM37.6498 15.6304C37.6498 16.7282 37.0235 17.5285 36.1686 17.5285C35.3137 17.5285 34.6953 16.7357 34.6953 15.6595C34.6953 14.9615 35.0084 13.7757 36.1913 13.7757C37.3445 13.7608 37.6498 14.9824 37.6498 15.6304Z" fill="black"/>
<path d="M45.0855 10.9402C44.3625 10.4047 43.457 10.143 42.5435 10.2056C41.8359 10.2014 41.1291 10.2513 40.4298 10.3548L40.1628 10.3988V18.7837H41.8804V15.6708C42.0558 15.6857 42.239 15.6924 42.4222 15.6924C42.928 15.717 43.4339 15.6447 43.9099 15.4798C44.3859 15.315 44.8224 15.0609 45.1935 14.7326C45.4421 14.4771 45.6349 14.177 45.7607 13.8499C45.8865 13.5228 45.9428 13.1751 45.9263 12.8271C45.9324 12.474 45.8608 12.1237 45.716 11.7987C45.5711 11.4737 45.3564 11.1812 45.0855 10.9402ZM44.2001 12.8793C44.2001 14.0725 43.1041 14.2463 42.4441 14.2463C42.2578 14.2494 42.0715 14.2397 41.8867 14.2172V11.6599C42.115 11.6365 42.3445 11.6268 42.5741 11.6308C43.3068 11.6308 44.1993 11.8464 44.1993 12.8815L44.2001 12.8793Z" fill="black"/>
<path d="M51.1851 17.1139V14.9899C51.1851 13.2955 50.2613 12.3722 48.5969 12.3722C47.8469 12.3667 47.1089 12.5526 46.4597 12.9106L46.2382 13.0419L46.704 14.3508L47.0555 14.127C47.4691 13.8792 47.9487 13.7498 48.4373 13.7541C48.575 13.7406 48.7141 13.7534 48.8465 13.7918C48.9789 13.8303 49.102 13.8935 49.2084 13.9779C49.3576 14.1369 49.4464 14.3392 49.4604 14.5521C48.3922 14.4939 47.3401 14.8212 46.5138 15.4687C46.306 15.6652 46.1426 15.9002 46.0337 16.1592C45.9247 16.4181 45.8726 16.6956 45.8804 16.9744C45.8781 17.2393 45.9332 17.5017 46.0421 17.7454C46.151 17.9891 46.3115 18.2087 46.5135 18.3907C46.7155 18.5726 46.9547 18.713 47.2162 18.8029C47.4777 18.8929 47.7558 18.9305 48.0333 18.9135C48.6134 18.9179 49.1791 18.7416 49.6444 18.4116L49.6906 18.7897H51.3346L51.2736 18.4332C51.2116 17.9959 51.182 17.5551 51.1851 17.1139ZM48.2995 17.536C48.2047 17.5457 48.1089 17.5348 48.0192 17.5039C47.9296 17.473 47.8486 17.423 47.7823 17.3578C47.716 17.2926 47.6662 17.2138 47.6367 17.1274C47.6072 17.0411 47.5988 16.9495 47.6121 16.8596C47.6064 16.7589 47.6233 16.6583 47.6615 16.5643C47.6997 16.4704 47.7584 16.3852 47.8337 16.3144C48.311 15.9813 48.902 15.8307 49.4902 15.8923V16.5687C49.4889 16.6441 49.4787 16.7192 49.4597 16.7925C49.3744 17.0178 49.2159 17.2113 49.0073 17.3449C48.7986 17.4785 48.5506 17.5459 48.2995 17.536Z" fill="black"/>
<path d="M55.9561 12.4885L54.6965 16.0302C54.6659 16.1175 54.6354 16.2122 54.6049 16.2995C54.5763 16.2131 54.5432 16.1283 54.5055 16.0452L53.1315 12.4893H51.2456L53.6122 18.1401L53.62 18.1542C53.6449 18.1951 53.6629 18.2393 53.6733 18.2855C53.6576 18.3146 53.6349 18.3728 53.62 18.4093C53.4287 18.8073 53.1503 19.1617 52.8035 19.4489L52.7957 19.4564C52.5525 19.6602 52.2659 19.8115 51.9557 19.9001L51.6503 19.9948L52.0935 21.4059L52.3761 21.3551C52.9288 21.2374 53.4408 20.9871 53.8635 20.628C54.7035 19.915 55.2601 18.7882 55.9937 16.9558L57.788 12.4908L55.9561 12.4885Z" fill="black"/>
<path d="M18.3175 12.6048C19.7053 11.4246 21.5199 10.804 23.3787 10.8739C24.1625 10.8701 24.9431 10.968 25.6992 11.1647L25.7602 11.1796L27.0731 10.8015L26.4852 10.583C25.2892 10.1624 24.0234 9.95074 22.7485 9.95804C20.9697 9.91856 19.2145 10.3516 17.6795 11.2087L17.5347 11.296L18.0921 12.845L18.3175 12.6048Z" fill="#27D1B3"/>
</g>
<defs>
<clipPath id="clip0_119_1759">
<rect width="52" height="13" fill="white" transform="translate(8 9.3999)"/>
</clipPath>
</defs>
</svg>
