<svg width="68" height="32" viewBox="0 0 68 32" fill="none" xmlns="http://www.w3.org/2000/svg">
<g clip-path="url(#clip0_119_1760)">
<path d="M9.88939 14.9146C9.92883 12.0828 13.8875 9.8385 18.733 9.90102C21.0677 9.87101 23.3601 10.5141 25.3254 11.7505C23.7463 10.3716 21.0462 9.44689 17.9661 9.40164C13.0526 9.33418 9.03692 11.5629 9 14.37C9.02684 14.9731 9.19497 15.5621 9.49136 16.0913C9.78775 16.6204 10.2044 17.0756 10.7091 17.4214C10.1859 16.6852 9.90027 15.8119 9.88939 14.9146Z" fill="url(#paint0_radial_119_1760)"/>
<path d="M18.3622 15.1713C18.3765 15.2942 18.3613 15.4187 18.3175 15.5347C18.2738 15.6508 18.2029 15.7551 18.1104 15.8393C17.8776 15.98 17.6054 16.0451 17.3326 16.0253H13.5125C13.5119 16.2062 13.5655 16.3833 13.6666 16.5347C13.7678 16.686 13.9119 16.805 14.0813 16.8768C14.4316 17.0421 14.8171 17.1225 15.2057 17.1112C15.6363 17.0909 16.0583 16.9856 16.4466 16.8019C16.7396 16.6554 17.0528 16.5515 17.3763 16.4934C17.4918 16.4912 17.6066 16.5119 17.7137 16.5543C17.8208 16.5967 17.9181 16.66 17.9997 16.7402C18.0823 16.8162 18.148 16.9081 18.1926 17.0102C18.2372 17.1123 18.2598 17.2223 18.2589 17.3334C18.2589 17.861 17.8246 18.2723 16.9559 18.5674C16.3058 18.7883 15.6226 18.901 14.9346 18.9006C14.442 18.9217 13.9502 18.844 13.4892 18.6723C13.0283 18.5006 12.6079 18.2384 12.2539 17.9019C11.916 17.5731 11.6508 17.1798 11.4745 16.7463C11.2983 16.3128 11.2149 15.8484 11.2294 15.3819C11.2232 14.9197 11.3146 14.4613 11.4978 14.0354C11.6811 13.6095 11.9522 13.2254 12.2942 12.9072C12.6388 12.5687 13.0501 12.3026 13.5031 12.1251C13.956 11.9476 14.4411 11.8624 14.9288 11.8747C15.3833 11.8632 15.8354 11.9439 16.2567 12.1116C16.678 12.2794 17.0594 12.5306 17.3771 12.8496C17.6931 13.151 17.9433 13.5122 18.1127 13.9113C18.282 14.3104 18.3669 14.7391 18.3622 15.1713ZM16.2335 14.6908C16.2223 14.534 16.1769 14.3814 16.1004 14.2432C16.0238 14.1051 15.9178 13.9848 15.7896 13.8903C15.5403 13.6589 15.21 13.5299 14.8667 13.5299C14.5233 13.5299 14.1931 13.6589 13.9437 13.8903C13.815 13.9834 13.7093 14.1037 13.6345 14.2422C13.5597 14.3808 13.5177 14.5341 13.5116 14.6908H16.2335Z" fill="#1C437D"/>
<path d="M24.6263 17.5554C24.6263 17.993 24.3134 18.3386 23.6916 18.5944C23.1937 18.7997 22.6586 18.9044 22.1184 18.9021C21.6336 18.9194 21.1507 18.8347 20.702 18.6538C20.2534 18.4729 19.8495 18.1999 19.5174 17.8532C18.8935 17.1711 18.5497 16.2865 18.5525 15.3703C18.5553 14.4541 18.9045 13.5715 19.5325 12.8931C19.8649 12.5538 20.267 12.2875 20.7122 12.112C21.1574 11.9364 21.6356 11.8555 22.115 11.8746C22.6545 11.8626 23.1917 11.9462 23.7008 12.1214C24.3161 12.3408 24.6238 12.6866 24.6238 13.1588C24.6267 13.3914 24.5397 13.6166 24.3805 13.789C24.3038 13.8766 24.2083 13.9465 24.1008 13.9935C23.9933 14.0406 23.8765 14.0638 23.7587 14.0613C23.5046 14.0447 23.2543 13.9923 23.0153 13.9058C22.7676 13.8182 22.5081 13.7667 22.2451 13.7528C22.0242 13.7412 21.8035 13.7792 21.5999 13.8641C21.3963 13.9489 21.2152 14.0783 21.0704 14.2423C20.8004 14.5621 20.6608 14.9686 20.6786 15.3834C20.6657 15.7836 20.7894 16.1765 21.0302 16.4998C21.1528 16.6698 21.3168 16.8071 21.5073 16.8992C21.6978 16.9913 21.9087 17.0353 22.1209 17.0272C22.4108 17.0127 22.6971 16.9572 22.9709 16.8626C23.224 16.7738 23.4881 16.7185 23.7562 16.6981C23.8714 16.698 23.9853 16.7222 24.0901 16.7691C24.1949 16.8159 24.2882 16.8843 24.3637 16.9696C24.5253 17.1241 24.6195 17.3341 24.6263 17.5554Z" fill="#1C437D"/>
<path d="M31.5695 15.3818C31.5926 16.297 31.2461 17.1841 30.6054 17.8499C29.9127 18.521 28.9781 18.8973 28.0044 18.8973C27.0306 18.8973 26.0961 18.521 25.4033 17.8499C24.7841 17.1702 24.4419 16.2907 24.4419 15.3793C24.4419 14.468 24.7841 13.5885 25.4033 12.9088C26.0998 12.2448 27.0329 11.8733 28.0044 11.8733C28.9758 11.8733 29.9089 12.2448 30.6054 12.9088C31.2479 13.5755 31.5946 14.4648 31.5695 15.3818ZM29.4408 15.3818C29.4537 14.9822 29.3306 14.5897 29.0909 14.2662C28.9607 14.1058 28.7953 13.9763 28.6069 13.8872C28.4186 13.7982 28.2122 13.7519 28.0031 13.7519C27.794 13.7519 27.5876 13.7982 27.3993 13.8872C27.2109 13.9763 27.0455 14.1058 26.9153 14.2662C26.6751 14.5894 26.5519 14.9821 26.5654 15.3818C26.5536 15.7851 26.6765 16.1812 26.9153 16.5097C27.0452 16.6706 27.2106 16.8005 27.3989 16.8898C27.5873 16.9792 27.7939 17.0256 28.0031 17.0256C28.2124 17.0256 28.4189 16.9792 28.6073 16.8898C28.7957 16.8005 28.961 16.6706 29.0909 16.5097C29.3293 16.181 29.4521 15.7851 29.4408 15.3818Z" fill="#1C437D"/>
<path d="M32.2592 17.8161V10.8733C32.2545 10.7461 32.2768 10.6193 32.3248 10.5011C32.3728 10.3828 32.4453 10.2756 32.5378 10.1863C32.6434 10.0936 32.7668 10.0224 32.9008 9.97687C33.0347 9.93138 33.1766 9.91253 33.3181 9.92141L35.7178 9.90989C36.6186 9.88525 37.4989 10.177 38.1997 10.7326C38.5206 10.9911 38.7767 11.3183 38.9482 11.6892C39.1197 12.0601 39.2021 12.4646 39.1889 12.8716C39.2052 13.2797 39.1235 13.6859 38.9506 14.0574C38.7776 14.4289 38.5181 14.7554 38.193 15.0107C37.5139 15.541 36.6662 15.8203 35.7983 15.7996H34.2931V17.8169C34.3021 17.9496 34.2806 18.0826 34.2302 18.206C34.1798 18.3295 34.1018 18.4403 34.0019 18.5302C33.795 18.6897 33.5394 18.7764 33.2761 18.7764C33.0129 18.7764 32.7573 18.6897 32.5504 18.5302C32.4513 18.4415 32.3737 18.3323 32.3232 18.2105C32.2727 18.0886 32.2505 17.9573 32.2584 17.826V17.8145L32.2592 17.8161ZM34.2939 14.1583H35.675C35.8612 14.172 36.0482 14.1465 36.2235 14.0837C36.3989 14.0208 36.5586 13.922 36.6919 13.7939C36.9355 13.542 37.0713 13.2081 37.0713 12.8609C37.0713 12.5138 36.9355 12.1799 36.6919 11.928C36.5578 11.8002 36.3983 11.7009 36.2234 11.6361C36.0484 11.5712 35.8618 11.5424 35.675 11.5512L34.2931 11.543L34.2939 14.1583Z" fill="url(#paint1_radial_119_1760)"/>
<path d="M46.0741 13.2098V17.8169C46.0742 17.8874 46.0698 17.9577 46.0607 18.0276C46.034 18.2169 45.9567 18.396 45.8366 18.5467C45.6503 18.6923 45.4208 18.7746 45.1826 18.7813C44.9444 18.7879 44.7105 18.7186 44.516 18.5837C44.3664 18.4315 44.2584 18.2448 44.2022 18.0407C43.9682 18.2987 43.6826 18.5068 43.3631 18.652C43.0438 18.7917 42.6975 18.8619 42.3479 18.8577C41.9174 18.8664 41.49 18.7854 41.0939 18.6198C40.6979 18.4543 40.3422 18.2081 40.0506 17.8976C39.7385 17.5681 39.4958 17.1816 39.3363 16.76C39.1768 16.3385 39.1036 15.8903 39.1209 15.441C39.0931 14.5309 39.4312 13.6465 40.0623 12.9786C40.3488 12.6627 40.7011 12.4107 41.0954 12.2397C41.4896 12.0687 41.9168 11.9826 42.3479 11.9872C42.7035 11.9865 43.0557 12.055 43.3841 12.1888C43.7107 12.3203 43.9942 12.5371 44.2039 12.8157C44.2163 12.7096 44.2506 12.6072 44.3045 12.5144C44.3584 12.4217 44.4309 12.3406 44.5177 12.276C44.6933 12.1356 44.9136 12.0602 45.1402 12.0629C45.2678 12.0471 45.3973 12.0607 45.5185 12.1027C45.6397 12.1447 45.7492 12.2139 45.8383 12.3048C45.9582 12.458 46.0354 12.6392 46.0623 12.8305C46.0719 12.9 46.0763 12.9702 46.0758 13.0403V13.2098H46.0741ZM41.0717 15.4311V15.5487C41.0717 15.5878 41.0765 15.6268 41.086 15.6647C41.123 16.055 41.2709 16.4273 41.513 16.7392C41.6414 16.9042 41.8094 17.0356 42.002 17.1217C42.1946 17.2078 42.4059 17.246 42.6172 17.2328C42.8236 17.2445 43.0297 17.2055 43.2168 17.1193C43.4039 17.0331 43.5661 16.9024 43.6887 16.7392C43.9265 16.4256 44.0716 16.0539 44.1082 15.6647C44.117 15.6267 44.1218 15.5878 44.1225 15.5487V15.4434C44.1225 15.4015 44.1225 15.3612 44.1141 15.3126C44.1057 15.2641 44.1074 15.2197 44.1074 15.1703C44.0625 14.7846 43.9124 14.418 43.6727 14.109C43.5507 13.9497 43.3904 13.8223 43.2061 13.7382C43.0219 13.6541 42.8193 13.6159 42.6164 13.6269C42.4083 13.6144 42.2003 13.6518 42.0103 13.7358C41.8202 13.8198 41.6539 13.9479 41.5256 14.109C41.282 14.4163 41.1296 14.7835 41.0851 15.1703C41.0851 15.2197 41.0851 15.269 41.0776 15.3126C41.07 15.3562 41.07 15.4015 41.07 15.4434V15.4311H41.0717Z" fill="url(#paint2_radial_119_1760)"/>
<path d="M46.3595 13.2732C46.3308 13.2098 46.3102 13.1432 46.2983 13.0749C46.2845 12.9933 46.2777 12.9108 46.2781 12.8281C46.2768 12.7393 46.2949 12.6512 46.3311 12.5698C46.3672 12.4883 46.4207 12.4154 46.4879 12.3559C46.6228 12.227 46.7888 12.1336 46.9704 12.0844C47.0064 12.077 47.0417 12.0712 47.0778 12.0654C47.1138 12.0597 47.1508 12.0597 47.1868 12.0597C47.4004 12.0525 47.611 12.1099 47.7901 12.2242C47.9592 12.3383 48.0893 12.4997 48.1635 12.6874L49.506 16.0235L50.9449 12.6742C51.0198 12.4909 51.1493 12.3341 51.3166 12.2242C51.4957 12.1099 51.7063 12.0525 51.9199 12.0597C51.9568 12.0597 51.9912 12.0597 52.0273 12.0654C52.0634 12.0712 52.1003 12.077 52.1364 12.0844C52.3191 12.1348 52.4867 12.228 52.6247 12.3559C52.6936 12.4145 52.7488 12.4871 52.7864 12.5686C52.8241 12.6501 52.8433 12.7386 52.8429 12.8281C52.8433 12.9108 52.8363 12.9934 52.8219 13.0749C52.8081 13.1484 52.7829 13.2195 52.7472 13.2855L49.4791 20.6956C49.3996 20.8819 49.2816 21.05 49.1326 21.1893C49.0553 21.2599 48.9645 21.3149 48.8654 21.3509C48.7663 21.3869 48.6609 21.4033 48.5553 21.399C48.2811 21.4178 48.0102 21.3311 47.8002 21.1572C47.7223 21.0922 47.6592 21.0119 47.615 20.9214C47.5708 20.831 47.5464 20.7325 47.5434 20.6323C47.5436 20.6048 47.5456 20.5773 47.5493 20.55C47.5493 20.5155 47.556 20.4875 47.556 20.4677C47.5654 20.4083 47.5814 20.3501 47.6038 20.2942C47.6257 20.2357 47.645 20.179 47.6651 20.1214L48.5192 18.1888L46.3595 13.2732Z" fill="url(#paint3_radial_119_1760)"/>
<path d="M52.7991 17.6179L55.8616 13.6895H53.5962C53.3713 13.7044 53.149 13.6363 52.9727 13.4986C52.8914 13.4258 52.8263 13.3372 52.7819 13.2384C52.7374 13.1396 52.7144 13.0328 52.7144 12.9248C52.7144 12.8168 52.7374 12.7099 52.7819 12.6111C52.8263 12.5123 52.8914 12.4237 52.9727 12.3509C53.1493 12.2123 53.3701 12.1395 53.5962 12.1452L58.0272 12.1321C58.0641 12.1403 58.1111 12.1485 58.1572 12.1568C58.2034 12.165 58.2587 12.1773 58.3133 12.193C58.4065 12.2282 58.4899 12.2846 58.5566 12.3575C58.6356 12.4534 58.6746 12.5751 58.6657 12.6981C58.6672 12.7623 58.6601 12.8265 58.6447 12.889C58.6329 12.9418 58.6172 12.9938 58.5977 13.0445C58.5818 13.0683 58.56 13.0971 58.5365 13.1267C58.513 13.1563 58.4903 13.1925 58.4635 13.2263L55.3858 17.1407H57.9617C58.1881 17.1433 58.4071 17.2197 58.5843 17.3579C58.6708 17.427 58.7394 17.5152 58.7845 17.6153C58.8296 17.7154 58.8498 17.8246 58.8436 17.9338C58.85 18.042 58.8298 18.1501 58.7846 18.2491C58.7395 18.348 58.6708 18.4348 58.5843 18.5023C58.4067 18.6375 58.1865 18.7076 57.9617 18.7006H53.4242C53.2262 18.7059 53.0306 18.6569 52.8595 18.5591C52.7821 18.5119 52.7193 18.4451 52.6776 18.3657C52.636 18.2863 52.617 18.1973 52.6229 18.1082C52.6224 18.0369 52.634 17.966 52.6573 17.8984C52.6771 17.8393 52.7018 17.7818 52.7311 17.7265C52.7479 17.7125 52.7619 17.6954 52.7722 17.6763C52.7806 17.6607 52.7898 17.6442 52.7999 17.6278L52.7991 17.6179Z" fill="url(#paint4_radial_119_1760)"/>
</g>
<defs>
<radialGradient id="paint0_radial_119_1760" cx="0" cy="0" r="1" gradientUnits="userSpaceOnUse" gradientTransform="translate(10.8352 12.0391) scale(11.2952 11.0773)">
<stop stop-color="#81C241"/>
<stop offset="1" stop-color="#8BC53F"/>
</radialGradient>
<radialGradient id="paint1_radial_119_1760" cx="0" cy="0" r="1" gradientUnits="userSpaceOnUse" gradientTransform="translate(47.1008 14.3424) scale(4.02681 3.94622)">
<stop stop-color="#81C241"/>
<stop offset="1" stop-color="#8BC53F"/>
</radialGradient>
<radialGradient id="paint2_radial_119_1760" cx="0" cy="0" r="1" gradientUnits="userSpaceOnUse" gradientTransform="translate(42.9696 15.4227) scale(3.49251 3.42188)">
<stop stop-color="#81C241"/>
<stop offset="1" stop-color="#8BC53F"/>
</radialGradient>
<radialGradient id="paint3_radial_119_1760" cx="0" cy="0" r="1" gradientUnits="userSpaceOnUse" gradientTransform="translate(74.8156 16.7303) scale(4.08645 4.00793)">
<stop stop-color="#81C241"/>
<stop offset="1" stop-color="#8BC53F"/>
</radialGradient>
<radialGradient id="paint4_radial_119_1760" cx="0" cy="0" r="1" gradientUnits="userSpaceOnUse" gradientTransform="translate(60.6895 15.4166) scale(3.23039 3.16625)">
<stop stop-color="#81C241"/>
<stop offset="1" stop-color="#8BC53F"/>
</radialGradient>
<clipPath id="clip0_119_1760">
<rect width="49.8462" height="12" fill="white" transform="translate(9 9.3999)"/>
</clipPath>
</defs>
</svg>
