<svg width="68" height="32" viewBox="0 0 68 32" fill="none" xmlns="http://www.w3.org/2000/svg">
<path d="M55.8518 11.0676C55.6505 10.4941 55.2761 9.99726 54.7802 9.64571C54.2844 9.29416 53.6916 9.10528 53.0838 9.10515H53.0551C52.6603 9.10501 52.2697 9.18487 51.9066 9.33991C51.5436 9.49496 51.2158 9.72197 50.943 10.0072C50.6701 9.72197 50.3423 9.49496 49.9793 9.33991C49.6163 9.18487 49.2256 9.10501 48.8308 9.10515H48.8056C48.1033 9.10408 47.424 9.35573 46.8918 9.81412V9.5923C46.8834 9.48381 46.8345 9.38245 46.755 9.30821C46.6754 9.23397 46.5709 9.19225 46.4621 9.19127H44.5022C44.3869 9.19127 44.2763 9.2371 44.1947 9.31867C44.1131 9.40024 44.0673 9.51087 44.0673 9.62622V20.2738C44.0673 20.3891 44.1131 20.4997 44.1947 20.5813C44.2763 20.6629 44.3869 20.7087 44.5022 20.7087H46.4639C46.5679 20.7088 46.6685 20.6711 46.7469 20.6026C46.8253 20.5342 46.8762 20.4396 46.8901 20.3364V12.6891C46.8883 12.6642 46.8883 12.6392 46.8901 12.6143C46.9039 12.4408 46.9808 12.2784 47.106 12.1576C47.2313 12.0368 47.3965 11.9659 47.5704 11.9584H47.9357C48.0862 11.9684 48.2299 12.0246 48.3472 12.1193C48.4315 12.1887 48.4988 12.2764 48.544 12.3758C48.5892 12.4751 48.6112 12.5835 48.6082 12.6926L48.6151 20.2972C48.6151 20.4126 48.6609 20.5232 48.7425 20.6048C48.8241 20.6864 48.9347 20.7322 49.0501 20.7322H51.0117C51.1226 20.7323 51.2292 20.6895 51.3093 20.6129C51.3893 20.5362 51.4367 20.4315 51.4414 20.3207V12.6856C51.4394 12.5656 51.4675 12.447 51.5231 12.3407C51.5787 12.2343 51.6601 12.1436 51.7598 12.0767C51.8691 12.0081 51.9931 11.9664 52.1217 11.9549H52.4835C52.6704 11.9642 52.8462 12.0462 52.9733 12.1834C53.1004 12.3206 53.1688 12.5021 53.1638 12.6891L53.1708 20.2868C53.1708 20.4022 53.2166 20.5128 53.2982 20.5944C53.3797 20.6759 53.4904 20.7218 53.6057 20.7218H55.5647C55.675 20.722 55.7812 20.6804 55.862 20.6053C55.9427 20.5302 55.9919 20.4273 55.9997 20.3173V11.9802C56.0044 11.6692 55.9535 11.3598 55.8492 11.0668L55.8518 11.0676ZM42.5719 9.21998H41.4515V7.39407C41.4513 7.34209 41.4408 7.29067 41.4207 7.24273C41.4006 7.1948 41.3713 7.15129 41.3344 7.1147C41.2974 7.07811 41.2537 7.04915 41.2056 7.02947C41.1575 7.00979 41.1059 6.99977 41.054 7C41.028 7.00044 41.0022 7.00277 40.9765 7.00696C39.7361 7.34796 39.9831 9.06949 37.7136 9.2165H37.497C37.4645 9.21644 37.4321 9.21994 37.4004 9.22694C37.3045 9.25004 37.2191 9.30455 37.1578 9.38179C37.0965 9.45903 37.0628 9.55457 37.062 9.65319V11.6148C37.062 11.7302 37.1078 11.8408 37.1894 11.9224C37.271 12.0039 37.3816 12.0498 37.497 12.0498H38.6783V20.3634C38.6796 20.4769 38.7253 20.5854 38.8056 20.6657C38.8859 20.746 38.9945 20.7917 39.108 20.7931H41.0487C41.1623 20.7917 41.2708 20.746 41.3511 20.6657C41.4314 20.5854 41.4771 20.4769 41.4785 20.3634V12.0454H42.578C42.6934 12.0454 42.804 11.9996 42.8856 11.918C42.9672 11.8364 43.013 11.7258 43.013 11.6105V9.65319C43.013 9.53783 42.9672 9.4272 42.8856 9.34563C42.804 9.26407 42.6934 9.21824 42.578 9.21824L42.5719 9.21998Z" fill="#00BAF2"/>
<path d="M35.5188 9.21999H33.5572C33.4419 9.21999 33.3312 9.26581 33.2497 9.34738C33.1681 9.42895 33.1223 9.53958 33.1223 9.65494V13.7113C33.1207 13.8317 33.0716 13.9467 32.9858 14.0312C32.9 14.1157 32.7843 14.163 32.6638 14.1627H31.8435C31.7831 14.163 31.7232 14.1513 31.6673 14.1284C31.6114 14.1055 31.5605 14.0718 31.5176 14.0292C31.4747 13.9866 31.4406 13.936 31.4173 13.8803C31.394 13.8245 31.3818 13.7647 31.3816 13.7043L31.3747 9.65494C31.3747 9.53958 31.3288 9.42895 31.2473 9.34738C31.1657 9.26581 31.0551 9.21999 30.9397 9.21999H28.9816C28.8662 9.21999 28.7556 9.26581 28.674 9.34738C28.5924 9.42895 28.5466 9.53958 28.5466 9.65494V14.0966C28.5312 14.4807 28.5954 14.8638 28.7354 15.2219C28.8753 15.5799 29.0879 15.905 29.3597 16.1768C29.6315 16.4486 29.9567 16.6612 30.3147 16.8011C30.6727 16.9411 31.0558 17.0054 31.4399 16.9899C31.4399 16.9899 32.7073 16.9899 32.7447 16.9969C32.855 17.0114 32.9563 17.0655 33.0296 17.1491C33.103 17.2327 33.1434 17.3402 33.1434 17.4514C33.1434 17.5626 33.103 17.6701 33.0296 17.7537C32.9563 17.8373 32.855 17.8914 32.7447 17.9059C32.7337 17.9065 32.7228 17.9089 32.7126 17.9129L29.8419 17.9233C29.7265 17.9233 29.6159 17.9691 29.5343 18.0507C29.4528 18.1323 29.4069 18.2429 29.4069 18.3583V20.3164C29.4069 20.4317 29.4528 20.5424 29.5343 20.6239C29.6159 20.7055 29.7265 20.7513 29.8419 20.7513H33.0518C33.4355 20.7667 33.8183 20.7026 34.176 20.5629C34.5337 20.4233 34.8586 20.2111 35.1304 19.9397C35.4021 19.6684 35.6148 19.3438 35.755 18.9863C35.8952 18.6288 35.9599 18.2461 35.9451 17.8624V9.6532C35.9461 9.59623 35.9358 9.53963 35.9146 9.48673C35.8935 9.43383 35.8619 9.3857 35.8219 9.34517C35.7818 9.30464 35.7341 9.27253 35.6814 9.25073C35.6288 9.22894 35.5723 9.21789 35.5154 9.21825L35.5188 9.21999ZM24.3624 9.23043H21.6423C21.5312 9.22735 21.4234 9.26802 21.342 9.34368C21.2607 9.41935 21.2123 9.52394 21.2073 9.63493V11.4756C21.2114 11.5944 21.2622 11.7067 21.3487 11.7882C21.4352 11.8696 21.5504 11.9136 21.6692 11.9106H24.2615C24.3642 11.9248 24.4589 11.9737 24.53 12.0492C24.601 12.1246 24.6441 12.2222 24.6521 12.3255V12.5795C24.646 12.6803 24.6047 12.7757 24.5354 12.849C24.466 12.9223 24.3731 12.9689 24.2728 12.9806H22.988C22.6139 12.9528 22.2381 13.0028 21.8842 13.1273C21.5303 13.2518 21.206 13.4482 20.9317 13.7041C20.6573 13.9599 20.4389 14.2698 20.2901 14.6141C20.1412 14.9585 20.0652 15.3299 20.0669 15.7051V17.9851C20.0463 18.3487 20.1033 18.7126 20.2341 19.0526C20.3649 19.3925 20.5666 19.7007 20.8257 19.9568C21.0847 20.2128 21.3953 20.4108 21.7368 20.5376C22.0782 20.6644 22.4428 20.7171 22.8062 20.6922H26.3614C26.6575 20.7018 26.9453 20.5939 27.1619 20.3919C27.3786 20.1899 27.5064 19.9104 27.5175 19.6144V12.1742C27.5175 10.37 26.5867 9.2313 24.3633 9.2313L24.3624 9.23043ZM24.6738 17.4153V17.7232C24.6735 17.7472 24.6711 17.771 24.6669 17.7946C24.6625 17.8165 24.6563 17.838 24.6486 17.8589C24.6154 17.9472 24.5559 18.023 24.478 18.0763C24.4002 18.1295 24.3079 18.1575 24.2137 18.1564H23.396C23.3371 18.1583 23.2784 18.1485 23.2232 18.1276C23.1681 18.1068 23.1177 18.0752 23.0747 18.0348C23.0318 17.9944 22.9973 17.9459 22.9732 17.8922C22.949 17.8384 22.9357 17.7804 22.934 17.7215V16.0426C22.9388 15.9245 22.99 15.8131 23.0765 15.7326C23.163 15.6521 23.2779 15.6091 23.396 15.6129H24.2119C24.2708 15.611 24.3295 15.6208 24.3847 15.6417C24.4398 15.6625 24.4902 15.6941 24.5331 15.7345C24.5761 15.7749 24.6106 15.8234 24.6347 15.8771C24.6589 15.9309 24.6722 15.9889 24.6738 16.0478V17.4153ZM16.7117 9.21651H12.4266C12.3136 9.21674 12.2053 9.26172 12.1254 9.34161C12.0455 9.4215 12.0005 9.52978 12.0003 9.64276V20.2973C11.9961 20.4075 12.0354 20.5149 12.1098 20.5963C12.1842 20.6778 12.2877 20.7266 12.3979 20.7322H14.3986C14.514 20.7322 14.6246 20.6864 14.7062 20.6048C14.7877 20.5232 14.8336 20.4126 14.8336 20.2973L14.8362 17.3152H16.7117C17.0662 17.332 17.4204 17.2745 17.7514 17.1464C18.0824 17.0182 18.3829 16.8223 18.6337 16.5712C18.8845 16.32 19.0801 16.0192 19.2078 15.688C19.3355 15.3569 19.3926 15.0027 19.3753 14.6481V11.8871C19.3924 11.5325 19.3352 11.1782 19.2075 10.8469C19.0798 10.5156 18.8843 10.2146 18.6336 9.96326C18.3828 9.71187 18.0824 9.51561 17.7514 9.38702C17.4205 9.25843 17.0664 9.20036 16.7117 9.21651ZM16.5377 12.8109V14.0209C16.5379 14.0814 16.5262 14.1413 16.5033 14.1972C16.4804 14.2531 16.4467 14.304 16.4041 14.3469C16.3616 14.3897 16.311 14.4238 16.2552 14.4472C16.1995 14.4705 16.1397 14.4826 16.0793 14.4829H14.8397V12.0593H16.0819C16.1421 12.0591 16.2019 12.0708 16.2576 12.0938C16.3133 12.1167 16.3639 12.1505 16.4065 12.1931C16.4492 12.2357 16.4829 12.2863 16.5059 12.3421C16.5288 12.3978 16.5405 12.4575 16.5403 12.5178V12.8109H16.5377Z" fill="#20336B"/>
</svg>
