<svg width="68" height="32" viewBox="0 0 68 32" fill="none" xmlns="http://www.w3.org/2000/svg">
<path d="M45.0881 19.4609V16.5819C45.0881 15.8739 44.8221 15.5189 44.1581 15.5189C43.9046 15.5214 43.6522 15.5513 43.4051 15.6079V19.8149C43.4004 19.8839 43.3709 19.9489 43.322 19.9978C43.2731 20.0467 43.2081 20.0763 43.1391 20.0809H42.1201C42.0511 20.0763 41.9861 20.0467 41.9372 19.9978C41.8883 19.9489 41.8587 19.8839 41.8541 19.8149V14.8999C41.8567 14.8208 41.8837 14.7443 41.9313 14.681C41.9789 14.6177 42.0448 14.5705 42.1201 14.5459C42.7752 14.3176 43.4633 14.198 44.1571 14.1919C44.4854 14.1483 44.8192 14.1793 45.1339 14.2827C45.4485 14.386 45.7357 14.5591 45.9741 14.7889C46.2125 15.0188 46.3959 15.2995 46.5107 15.6101C46.6255 15.9208 46.6687 16.2533 46.6371 16.5829V19.8599C46.6324 19.9289 46.6029 19.9939 46.554 20.0428C46.505 20.0917 46.4401 20.1213 46.3711 20.1259H45.7511C45.6635 20.1274 45.5764 20.1112 45.4951 20.0783C45.4139 20.0454 45.3401 19.9965 45.2782 19.9344C45.2163 19.8723 45.1676 19.7984 45.1349 19.717C45.1023 19.6357 45.0863 19.5486 45.0881 19.4609ZM49.0741 17.7339L49.0301 18.1339C49.0254 18.2534 49.047 18.3725 49.0934 18.4827C49.1398 18.593 49.2098 18.6916 49.2985 18.7719C49.3872 18.8521 49.4924 18.9118 49.6067 18.9469C49.721 18.982 49.8417 18.9916 49.9601 18.9749C50.4103 18.9615 50.8506 18.8401 51.2441 18.6209C51.2881 18.6209 51.3331 18.5769 51.3771 18.5769C51.4113 18.5777 51.445 18.5861 51.4756 18.6015C51.5062 18.6169 51.533 18.6389 51.5541 18.6659C51.6021 18.7221 51.6465 18.7812 51.6871 18.8429C51.7833 18.9728 51.8443 19.1255 51.8641 19.2859C51.8635 19.3939 51.8346 19.4997 51.7802 19.593C51.7258 19.6862 51.6478 19.7634 51.5541 19.8169C51.0354 20.089 50.4567 20.2265 49.8711 20.2169C49.2513 20.2452 48.641 20.0575 48.1441 19.6859C47.9172 19.4877 47.7363 19.2424 47.6138 18.9671C47.4914 18.6918 47.4304 18.3932 47.4351 18.0919V16.3609C47.4192 16.0506 47.4717 15.7405 47.5888 15.4526C47.7059 15.1647 47.8849 14.906 48.1129 14.6949C48.341 14.4837 48.6125 14.3252 48.9086 14.2305C49.2046 14.1358 49.5179 14.1073 49.8261 14.1469C50.1298 14.109 50.4381 14.1394 50.7285 14.236C51.0189 14.3325 51.284 14.4928 51.5045 14.705C51.725 14.9172 51.8952 15.1761 52.0027 15.4626C52.1103 15.7491 52.1525 16.0561 52.1261 16.3609V17.4239C52.1214 17.4929 52.0919 17.5579 52.043 17.6068C51.9941 17.6557 51.9291 17.6853 51.8601 17.6899H49.0701L49.0741 17.7339ZM49.0301 16.7599H50.7131V16.3169C50.7258 16.2014 50.7131 16.0844 50.676 15.9742C50.6388 15.864 50.5782 15.7632 50.4981 15.6789C50.4181 15.5945 50.3206 15.5287 50.2125 15.4858C50.1043 15.443 49.9882 15.4243 49.8721 15.4309C49.7552 15.421 49.6376 15.4375 49.5279 15.4792C49.4182 15.5208 49.3194 15.5867 49.2386 15.6718C49.1578 15.7568 49.0972 15.859 49.0613 15.9707C49.0254 16.0824 49.015 16.2007 49.0311 16.3169L49.0301 16.7599ZM60.3231 17.7339L60.2791 18.1339C60.2744 18.2534 60.296 18.3725 60.3424 18.4827C60.3888 18.593 60.4588 18.6916 60.5475 18.7719C60.6362 18.8521 60.7414 18.9118 60.8557 18.9469C60.97 18.982 61.0907 18.9916 61.2091 18.9749C61.6593 18.9615 62.0997 18.8401 62.4931 18.6209C62.5371 18.6209 62.5821 18.5769 62.6261 18.5769C62.6604 18.5777 62.694 18.5861 62.7246 18.6015C62.7552 18.6169 62.782 18.6389 62.8031 18.6659C62.8511 18.7221 62.8955 18.7812 62.9361 18.8429C63.0324 18.9728 63.0933 19.1255 63.1131 19.2859C63.1126 19.3939 63.0836 19.4997 63.0292 19.593C62.9748 19.6862 62.8968 19.7634 62.8031 19.8169C62.2844 20.089 61.7057 20.2265 61.1201 20.2169C60.5003 20.2452 59.8899 20.0575 59.3931 19.6859C59.1664 19.4876 58.9857 19.2423 58.8634 18.967C58.7411 18.6917 58.6802 18.3931 58.6851 18.0919V16.3609C58.6692 16.0506 58.7217 15.7405 58.8388 15.4526C58.9559 15.1647 59.1349 14.906 59.3629 14.6949C59.591 14.4837 59.8625 14.3252 60.1586 14.2305C60.4546 14.1358 60.7679 14.1073 61.0761 14.1469C61.3798 14.109 61.6881 14.1394 61.9785 14.236C62.2689 14.3325 62.534 14.4928 62.7545 14.705C62.975 14.9172 63.1452 15.1761 63.2527 15.4626C63.3603 15.7491 63.4025 16.0561 63.3761 16.3609V17.4239C63.3714 17.4929 63.3419 17.5579 63.293 17.6068C63.2441 17.6557 63.1791 17.6853 63.1101 17.6899H60.3201V17.7339H60.3231ZM60.2791 16.7599H61.9621V16.3169C61.9748 16.2014 61.9621 16.0844 61.925 15.9742C61.8879 15.864 61.8271 15.7632 61.7471 15.6789C61.667 15.5945 61.5695 15.5287 61.4614 15.4858C61.3533 15.443 61.2372 15.4243 61.1211 15.4309C61.0042 15.421 60.8866 15.4375 60.7769 15.4792C60.6673 15.5208 60.5683 15.5867 60.4875 15.6718C60.4068 15.7568 60.3462 15.859 60.3103 15.9707C60.2744 16.0824 60.2641 16.2007 60.2801 16.3169L60.2791 16.7599ZM34.2401 20.1249H34.8601C34.9291 20.1203 34.9941 20.0907 35.043 20.0418C35.0919 19.9929 35.1214 19.928 35.1261 19.8589V16.5819C35.1261 15.0759 34.3261 14.1909 33.0001 14.1909C32.6244 14.1957 32.2515 14.2553 31.8931 14.3679V12.7289C31.8888 12.5542 31.8174 12.3878 31.6938 12.2642C31.5702 12.1406 31.4038 12.0693 31.2291 12.0649H30.6091C30.5401 12.0696 30.4751 12.0991 30.4262 12.1481C30.3773 12.197 30.3478 12.2619 30.3431 12.3309V19.8589C30.3478 19.928 30.3773 19.9929 30.4262 20.0418C30.4751 20.0907 30.5401 20.1203 30.6091 20.1249H31.6281C31.6971 20.1203 31.7621 20.0907 31.811 20.0418C31.8599 19.9929 31.8894 19.928 31.8941 19.8589V15.6959C32.1357 15.609 32.3903 15.564 32.6471 15.5629C33.3111 15.5629 33.5771 15.8729 33.5771 16.6259V19.5049C33.5986 19.6684 33.6763 19.8193 33.7969 19.9317C33.9175 20.0441 34.0735 20.111 34.2381 20.1209L34.2401 20.1249ZM40.9271 16.4049V18.0439C40.8503 18.6475 40.556 19.2022 40.0995 19.6044C39.643 20.0065 39.0555 20.2283 38.4471 20.2283C37.8387 20.2283 37.2512 20.0065 36.7947 19.6044C36.3381 19.2022 36.0439 18.6475 35.9671 18.0439V16.4009C36.0439 15.7974 36.3381 15.2426 36.7947 14.8405C37.2512 14.4384 37.8387 14.2165 38.4471 14.2165C39.0555 14.2165 39.643 14.4384 40.0995 14.8405C40.556 15.2426 40.8503 15.7974 40.9271 16.4009V16.4049ZM39.3771 16.4049C39.388 16.2859 39.3726 16.1658 39.3319 16.0534C39.2912 15.9409 39.2263 15.8388 39.1418 15.7542C39.0572 15.6697 38.9551 15.6048 38.8427 15.5641C38.7302 15.5235 38.6102 15.508 38.4911 15.5189C38.3714 15.5052 38.2502 15.5187 38.1364 15.5583C38.0227 15.598 37.9193 15.6629 37.8342 15.748C37.749 15.8332 37.6841 15.9365 37.6445 16.0503C37.6048 16.164 37.5914 16.2853 37.6051 16.4049V18.0439C37.6183 18.2699 37.7173 18.4822 37.8819 18.6376C38.0465 18.7929 38.2643 18.8794 38.4906 18.8794C38.7169 18.8794 38.9347 18.7929 39.0993 18.6376C39.2639 18.4822 39.3629 18.2699 39.3761 18.0439L39.3771 16.4049ZM29.5021 15.6519C29.5082 15.9752 29.4476 16.2963 29.324 16.5951C29.2003 16.8939 29.0163 17.1639 28.7836 17.3883C28.5508 17.6128 28.2742 17.7867 27.9711 17.8994C27.668 18.012 27.3449 18.0609 27.0221 18.0429C26.6886 18.0528 26.3568 17.9925 26.0481 17.8659V19.8589C26.0434 19.928 26.0139 19.9929 25.965 20.0418C25.9161 20.0907 25.8511 20.1203 25.7821 20.1249H24.7631C24.6941 20.1203 24.6291 20.0907 24.5802 20.0418C24.5313 19.9929 24.5017 19.928 24.4971 19.8589V12.8179C24.4997 12.7388 24.5267 12.6623 24.5743 12.599C24.6219 12.5357 24.6878 12.4885 24.7631 12.4639C25.4182 12.2356 26.1063 12.116 26.8001 12.1099C27.1445 12.0758 27.4922 12.1148 27.8205 12.2244C28.1488 12.334 28.4502 12.5116 28.7051 12.7457C28.96 12.9798 29.1625 13.2651 29.2995 13.5829C29.4365 13.9007 29.5048 14.2439 29.5001 14.5899V15.6479L29.5021 15.6519ZM27.9081 14.5009C27.9148 14.3519 27.8888 14.2032 27.8321 14.0652C27.7753 13.9272 27.6891 13.8033 27.5795 13.702C27.4699 13.6008 27.3396 13.5247 27.1975 13.4791C27.0555 13.4335 26.9051 13.4195 26.7571 13.4379C26.5288 13.4348 26.3025 13.4801 26.0931 13.5709V16.4939C26.3076 16.6195 26.5537 16.6809 26.8021 16.6709C26.9494 16.6855 27.0981 16.6687 27.2385 16.6217C27.3788 16.5746 27.5076 16.4984 27.6163 16.3979C27.7251 16.2975 27.8113 16.1752 27.8693 16.039C27.9274 15.9029 27.9559 15.7559 27.9531 15.6079V14.5009H27.9081ZM58.1081 15.6519C58.1142 15.9752 58.0536 16.2963 57.9299 16.5951C57.8063 16.8939 57.6224 17.1639 57.3896 17.3883C57.1568 17.6128 56.8802 17.7867 56.5771 17.8994C56.274 18.012 55.9509 18.0609 55.6281 18.0429C55.2946 18.0528 54.9627 17.9925 54.6541 17.8659V19.8589C54.6494 19.928 54.6199 19.9929 54.571 20.0418C54.5221 20.0907 54.4571 20.1203 54.3881 20.1249H53.3691C53.3001 20.1203 53.2351 20.0907 53.1862 20.0418C53.1373 19.9929 53.1078 19.928 53.1031 19.8589V12.8179C53.1057 12.7388 53.1327 12.6623 53.1803 12.599C53.2279 12.5357 53.2938 12.4885 53.3691 12.4639C54.0242 12.2356 54.7123 12.116 55.4061 12.1099C55.7505 12.0758 56.0982 12.1148 56.4265 12.2244C56.7547 12.334 57.0562 12.5116 57.3111 12.7457C57.566 12.9798 57.7685 13.2651 57.9055 13.5829C58.0425 13.9007 58.1109 14.2439 58.1061 14.5899L58.1081 15.6479V15.6519ZM56.5141 14.5009C56.5208 14.3519 56.4948 14.2032 56.438 14.0652C56.3813 13.9272 56.2952 13.8033 56.1855 13.702C56.0759 13.6008 55.9455 13.5247 55.8035 13.4791C55.6614 13.4335 55.5111 13.4195 55.3631 13.4379C55.1348 13.4348 54.9085 13.4801 54.6991 13.5709V16.4939C54.9134 16.6193 55.159 16.6808 55.4071 16.6709C55.5544 16.6855 55.7031 16.6687 55.8434 16.6217C55.9838 16.5746 56.1126 16.4984 56.2213 16.3979C56.3301 16.2975 56.4163 16.1752 56.4743 16.039C56.5324 15.9029 56.5609 15.7559 56.5581 15.6079V14.5009H56.5141Z" fill="#5F259F"/>
<path d="M12.927 22.854C17.305 22.854 20.854 19.305 20.854 14.927C20.854 10.549 17.305 7 12.927 7C8.54904 7 5 10.549 5 14.927C5 19.305 8.54904 22.854 12.927 22.854Z" fill="#5F259F"/>
<path d="M16.524 12.8577C16.5214 12.7058 16.4599 12.5608 16.3524 12.4533C16.2449 12.3458 16.0999 12.2843 15.948 12.2817H14.886L12.45 9.49174C12.3364 9.36347 12.1885 9.27029 12.0237 9.22317C11.859 9.17605 11.6842 9.17694 11.52 9.22574L10.679 9.49174C10.6495 9.5026 10.623 9.52025 10.6016 9.54327C10.5803 9.56628 10.5646 9.594 10.5559 9.62419C10.5473 9.65438 10.5458 9.68618 10.5517 9.71702C10.5577 9.74787 10.5708 9.77689 10.59 9.80173L13.247 12.3257H9.21696C9.18749 12.324 9.15798 12.3285 9.13037 12.339C9.10277 12.3495 9.07769 12.3657 9.05681 12.3866C9.03593 12.4075 9.01972 12.4325 9.00923 12.4601C8.99874 12.4877 8.99422 12.5173 8.99597 12.5467V12.9897C8.99854 13.1417 9.06004 13.2867 9.16751 13.3942C9.27498 13.5017 9.42 13.5632 9.57196 13.5657H10.192V15.6917C10.192 17.2857 11.033 18.2157 12.451 18.2157C12.8751 18.2287 13.2974 18.1534 13.691 17.9947V19.4117C13.6899 19.505 13.7075 19.5976 13.7427 19.6839C13.7779 19.7703 13.83 19.8488 13.896 19.9148C13.9619 19.9807 14.0404 20.0328 14.1268 20.068C14.2131 20.1032 14.3057 20.1208 14.399 20.1197H15.019C15.088 20.1151 15.153 20.0855 15.2019 20.0366C15.2508 19.9877 15.2803 19.9227 15.285 19.8537V13.5227H16.304C16.3334 13.5245 16.363 13.52 16.3906 13.5095C16.4182 13.499 16.4432 13.4828 16.4641 13.4619C16.485 13.441 16.5012 13.4159 16.5117 13.3883C16.5222 13.3607 16.5267 13.3312 16.525 13.3017L16.524 12.8577ZM13.69 16.6657C13.4109 16.788 13.1086 16.8484 12.804 16.8427C12.096 16.8427 11.741 16.4887 11.741 15.6917V13.5667H13.686L13.69 16.6657Z" fill="white"/>
</svg>
