<svg width="68" height="32" viewBox="0 0 68 32" fill="none" xmlns="http://www.w3.org/2000/svg">
<path d="M13.8737 7C14.6764 8.43061 15.4852 9.85327 16.2809 11.2871C14.9971 13.6325 13.7318 15.9898 12.405 18.3089C11.8955 19.1991 11.4006 20.098 10.8972 20.9913C9.26506 21.0017 7.63215 21.0009 6 20.9985C6.04988 20.8824 6.09899 20.7664 6.15961 20.6559C8.73022 16.1034 11.3016 11.5514 13.8737 7Z" fill="#AE285D"/>
<path d="M49.3981 10.5123C50.3005 12.255 51.2024 13.9975 52.1038 15.7396C51.7861 15.746 51.4677 15.7293 51.15 15.7396C50.9367 15.3557 50.7517 14.9552 50.5438 14.5689C49.7419 14.5443 48.94 14.561 48.1374 14.5594C47.944 14.9568 47.733 15.3446 47.5281 15.7356C47.215 15.7356 46.9012 15.742 46.5889 15.7356C47.5097 13.9871 48.4389 12.2386 49.3981 10.5076M48.5387 13.8107C49.0858 13.8186 49.633 13.817 50.1808 13.8218C49.9069 13.2941 49.6598 12.7504 49.3667 12.2322C49.0848 12.7594 48.8083 13.2872 48.5372 13.8154L48.5387 13.8107Z" fill="#AE285D"/>
<path d="M52.6292 10.4915C53.992 11.7178 55.3541 12.9449 56.7001 14.192C56.7369 13.0665 56.6954 11.9419 56.7284 10.8165L57.6024 10.8324C57.5932 12.565 57.5978 14.2985 57.5963 16.0319C56.7016 15.2609 55.8414 14.4463 54.9574 13.661C54.4655 13.2255 53.9783 12.7868 53.5087 12.325C53.4972 13.4647 53.514 14.6044 53.4902 15.7426C53.2009 15.7426 52.9109 15.7362 52.6216 15.7386C52.6247 13.9901 52.6101 12.2408 52.6292 10.4915Z" fill="#AE285D"/>
<path d="M23.8315 15.7323C24.7731 13.9917 25.69 12.2352 26.6531 10.5098C27.5498 12.254 28.4517 13.9954 29.3587 15.7339C29.0357 15.7418 28.7142 15.741 28.3911 15.7339C28.1954 15.3444 27.9951 14.9574 27.8079 14.5631C27.003 14.552 26.1965 14.5631 25.3946 14.5631C25.1851 14.9558 24.9956 15.3579 24.7692 15.745C24.4562 15.7362 24.1439 15.7442 23.8315 15.7323ZM25.7852 13.82C26.3346 13.82 26.8856 13.8256 27.4358 13.82C27.1588 13.2947 26.9155 12.751 26.6185 12.2376C26.3385 12.7661 26.0622 13.2931 25.7852 13.82Z" fill="#AE285D"/>
<path d="M37.2319 10.9622C37.7005 10.7412 38.2261 10.6854 38.7282 10.8032C39.1509 10.9228 39.5194 11.193 39.7688 11.5662C39.5386 11.6886 39.3038 11.8126 39.0743 11.9429C38.996 11.8202 38.8943 11.7153 38.7754 11.6347C38.6566 11.5541 38.5231 11.4994 38.3831 11.4741C38.2432 11.4488 38.0998 11.4534 37.9616 11.4875C37.8234 11.5217 37.6934 11.5847 37.5795 11.6727C37.5237 11.7183 37.4795 11.7773 37.4507 11.8447C37.4219 11.912 37.4093 11.9856 37.4143 12.0591C37.4192 12.1326 37.4414 12.2037 37.4789 12.2663C37.5163 12.3289 37.568 12.381 37.6294 12.4182C38.281 12.6473 38.9075 12.9467 39.4987 13.3115C39.6246 13.4361 39.7252 13.5855 39.7946 13.751C39.8639 13.9164 39.9005 14.0946 39.9023 14.275C39.9041 14.4554 39.871 14.6343 39.805 14.8012C39.739 14.9681 39.6413 15.1196 39.5179 15.2468C39.2361 15.512 38.8918 15.6957 38.5198 15.7794C38.1478 15.8631 37.761 15.8439 37.3984 15.7237C37.1011 15.6363 36.835 15.4606 36.6329 15.2184C36.4308 14.9762 36.3016 14.678 36.2612 14.3606C36.5528 14.2947 36.8467 14.2398 37.1414 14.1929C37.1464 14.346 37.1864 14.4956 37.2582 14.6295C37.33 14.7634 37.4314 14.8777 37.5542 14.9631C37.7705 15.0898 38.0228 15.1342 38.2674 15.0885C38.5119 15.0427 38.7334 14.9098 38.8932 14.7127C38.9936 14.5661 39.0354 14.385 39.0098 14.2072C38.9842 14.0295 38.8932 13.8689 38.7559 13.759C38.1635 13.3481 37.3747 13.3227 36.8467 12.8053C36.709 12.6808 36.6076 12.5192 36.5536 12.3384C36.4997 12.1575 36.4954 11.9648 36.5413 11.7816C36.5913 11.6009 36.6791 11.4338 36.7984 11.2921C36.9178 11.1505 37.0658 11.0379 37.2319 10.9622Z" fill="#AE285D"/>
<path d="M29.641 10.8506C29.9725 10.8178 30.3059 10.8093 30.6386 10.8251C30.9967 11.3735 31.3525 11.9217 31.706 12.4695C32.0804 11.9283 32.4449 11.3791 32.8148 10.8347C33.1562 10.8235 33.4969 10.8172 33.8384 10.8283C33.2972 11.6077 32.7547 12.3863 32.2109 13.1642C32.7626 14.0313 33.3619 14.8642 33.9044 15.74C33.579 15.74 33.2545 15.74 32.9291 15.7361C32.5155 15.1201 32.105 14.501 31.6914 13.885C31.264 14.5034 30.8327 15.1193 30.4107 15.7416C30.0815 15.748 29.7523 15.7416 29.4231 15.7416C29.9955 14.8729 30.5979 14.0265 31.1926 13.1737C30.6808 12.3964 30.159 11.6247 29.641 10.8506Z" fill="#AE285D"/>
<path d="M34.639 10.8296C34.9321 10.8208 35.2245 10.8208 35.5176 10.8296C35.5176 12.4668 35.5176 14.1043 35.5176 15.7421H34.626C34.6367 14.0993 34.6321 12.466 34.639 10.8296Z" fill="#AE285D"/>
<path d="M43.1918 10.8253C43.9541 10.7404 44.7252 10.8341 45.4478 11.0995C45.6104 11.1971 45.7485 11.3329 45.851 11.4959C45.9535 11.659 46.0175 11.8448 46.0378 12.0383C46.0581 12.2317 46.0342 12.4274 45.968 12.6095C45.9017 12.7916 45.795 12.955 45.6565 13.0865C45.8614 13.1548 46.0476 13.2727 46.1997 13.4304C46.3518 13.5881 46.4655 13.7811 46.5313 13.9933C46.5978 14.2655 46.5765 14.5527 46.4704 14.811C46.3644 15.0694 46.1796 15.2847 45.9443 15.4239C45.1048 15.9008 44.1157 15.679 43.2049 15.7418C43.1765 14.1022 43.1941 12.4618 43.1918 10.8213M44.0643 11.5279C44.0643 11.9958 44.0643 12.4634 44.0643 12.9307C44.399 12.9634 44.7356 12.8932 45.0319 12.7288C45.1 12.6606 45.1534 12.5782 45.1887 12.4871C45.2239 12.396 45.2402 12.2982 45.2364 12.2002C45.2326 12.1021 45.2089 12.006 45.1668 11.9181C45.1247 11.8302 45.0651 11.7525 44.992 11.69C44.7039 11.5486 44.3833 11.4935 44.0666 11.5311M44.072 13.5768C44.0684 14.0537 44.0707 14.5306 44.0789 15.0075C44.5237 15.0542 44.973 14.9978 45.3941 14.8421C45.479 14.7926 45.5511 14.7225 45.6041 14.6378C45.6571 14.5532 45.6895 14.4564 45.6985 14.3559C45.7075 14.2554 45.6928 14.1541 45.6557 14.0608C45.6185 13.9675 45.5601 13.8849 45.4854 13.8201C45.0512 13.5827 44.5544 13.4977 44.0696 13.5776L44.072 13.5768Z" fill="#AE285D"/>
<path d="M58.6154 10.8253C58.9077 10.8253 59.1994 10.8253 59.4917 10.8253C59.4917 11.4722 59.4856 12.1192 59.4994 12.7669C60.2192 12.1112 60.952 11.4722 61.6756 10.8213C62.0754 10.8213 62.4752 10.8253 62.8749 10.8213C62.0119 11.5546 61.1561 12.2964 60.3074 13.0467C61.1415 13.9591 62.0063 14.8405 62.8596 15.733C62.4636 15.7483 62.0671 15.7419 61.6717 15.714C60.9929 14.9965 60.3176 14.2754 59.6459 13.5506C59.5948 13.6179 59.5462 13.6851 59.5001 13.7524C59.4825 14.4145 59.5002 15.0758 59.4871 15.7394C59.1932 15.7394 58.8993 15.7458 58.6062 15.7434C58.6088 14.1051 58.6118 12.4657 58.6154 10.8253Z" fill="#AE285D"/>
<path d="M13.876 15.7101C15.5143 15.7101 17.1525 15.6974 18.787 15.726C19.7623 17.488 20.7691 19.2302 21.7359 20.9962C20.0976 21.0049 18.4601 20.9962 16.8249 20.9962C15.8511 19.2294 14.8321 17.4888 13.876 15.7101Z" fill="#AE285D"/>
</svg>
