<svg width="68" height="32" viewBox="0 0 68 32" fill="none" xmlns="http://www.w3.org/2000/svg">
<path d="M39.2778 6.5H28.7222C26.3904 6.5 24.5 8.39035 24.5 10.7222V21.2778C24.5 23.6096 26.3904 25.5 28.7222 25.5H39.2778C41.6096 25.5 43.5 23.6096 43.5 21.2778V10.7222C43.5 8.39035 41.6096 6.5 39.2778 6.5Z" fill="url(#paint0_linear_178_2348)"/>
<mask id="mask0_178_2348" style="mask-type:luminance" maskUnits="userSpaceOnUse" x="28" y="9" width="3" height="5">
<path d="M28.4898 12.6765C28.662 12.6507 28.8273 12.5908 28.976 12.5002C29.1246 12.4095 29.2536 12.29 29.3554 12.1487C28.777 11.4071 28.4383 10.5068 28.3843 9.56787H29.1232C29.1394 10.2825 29.3483 10.9794 29.728 11.585C30.0241 10.9535 30.1804 10.2654 30.1861 9.56787H30.925C30.8539 10.4495 30.5886 11.3046 30.1481 12.0717C30.0045 12.3839 29.7899 12.6582 29.5214 12.8726C29.2529 13.087 28.9379 13.2357 28.6017 13.3067L28.4898 12.6765Z" fill="white"/>
</mask>
<g mask="url(#mask0_178_2348)">
<path d="M44.4929 7.40853L31.973 19.9285L23.7639 11.7194L36.2839 -0.800537L44.4929 7.40853Z" fill="white"/>
</g>
<mask id="mask1_178_2348" style="mask-type:luminance" maskUnits="userSpaceOnUse" x="31" y="9" width="3" height="4">
<path d="M31.0578 10.9341C31.0763 10.6736 31.1704 10.4241 31.3287 10.2163C31.4869 10.0085 31.7024 9.85143 31.9486 9.76433C32.1949 9.67723 32.4612 9.66384 32.7149 9.72593C32.9686 9.78802 33.1987 9.92287 33.3769 10.1138C33.5551 10.3048 33.6737 10.5436 33.7181 10.801C33.7625 11.0584 33.7308 11.3232 33.6269 11.5628C33.523 11.8025 33.3514 12.0066 33.1332 12.1501C32.9149 12.2936 32.6595 12.3703 32.3983 12.3707C32.2122 12.3772 32.0269 12.3436 31.8549 12.2724C31.6828 12.2011 31.5281 12.0937 31.401 11.9576C31.274 11.8214 31.1776 11.6596 31.1184 11.4831C31.0592 11.3065 31.0385 11.1193 31.0578 10.9341ZM32.9778 10.9341C32.9778 10.4296 32.7804 10.115 32.3983 10.115C32.0162 10.115 31.8146 10.4317 31.8146 10.9341C31.8146 11.4366 32.0257 11.7617 32.3983 11.7617C32.7709 11.7617 32.9778 11.4429 32.9778 10.9341Z" fill="white"/>
</mask>
<g mask="url(#mask1_178_2348)">
<path d="M44.3599 7.53939L31.8399 20.0593L23.6309 11.8503L36.1508 -0.669678L44.3599 7.53939Z" fill="white"/>
</g>
<mask id="mask2_178_2348" style="mask-type:luminance" maskUnits="userSpaceOnUse" x="34" y="9" width="3" height="4">
<path d="M34.127 9.73712C34.5132 9.58301 34.925 9.50313 35.3408 9.50171C36.1219 9.50171 36.5758 9.88807 36.5758 10.6027V12.3084H35.8369V10.6575C35.8369 10.2881 35.6649 10.116 35.3366 10.116C35.1746 10.1144 35.014 10.1475 34.8658 10.2132V12.3095H34.127V9.73712Z" fill="white"/>
</mask>
<g mask="url(#mask2_178_2348)">
<path d="M44.3567 7.53939L31.8367 20.0593L23.6277 11.8503L36.1476 -0.669678L44.3567 7.53939Z" fill="white"/>
</g>
<mask id="mask3_178_2348" style="mask-type:luminance" maskUnits="userSpaceOnUse" x="36" y="9" width="4" height="4">
<path d="M36.9394 10.9341C36.9579 10.6736 37.052 10.4241 37.2102 10.2163C37.3685 10.0085 37.584 9.85143 37.8302 9.76433C38.0765 9.67723 38.3428 9.66384 38.5965 9.72593C38.8502 9.78802 39.0803 9.92287 39.2585 10.1138C39.4367 10.3048 39.5553 10.5436 39.5997 10.801C39.6441 11.0584 39.6124 11.3232 39.5085 11.5628C39.4046 11.8025 39.233 12.0066 39.0147 12.1501C38.7965 12.2936 38.5411 12.3703 38.2799 12.3707C38.0938 12.3772 37.9085 12.3436 37.7364 12.2724C37.5644 12.2011 37.4096 12.0937 37.2826 11.9576C37.1555 11.8214 37.0592 11.6596 37 11.4831C36.9408 11.3065 36.9201 11.1193 36.9394 10.9341ZM38.8594 10.9341C38.8594 10.4296 38.662 10.115 38.2799 10.115C37.8978 10.115 37.6962 10.4317 37.6962 10.9341C37.6962 11.4366 37.9073 11.7617 38.2799 11.7617C38.6525 11.7617 38.8594 11.4429 38.8594 10.9341Z" fill="white"/>
</mask>
<g mask="url(#mask3_178_2348)">
<path d="M46.228 7.53939L33.7081 20.0593L25.499 11.8503L38.019 -0.669678L46.228 7.53939Z" fill="white"/>
</g>
<path d="M35.0182 20.0819C34.8044 19.9236 34.5687 19.7973 34.3184 19.7072C34.0017 19.5731 33.7188 19.4613 33.7188 19.248C33.7193 19.2011 33.7307 19.1548 33.7521 19.1131C33.7735 19.0713 33.8044 19.0351 33.8423 19.0073C33.936 18.9371 34.0503 18.9 34.1674 18.9018C34.4329 18.9156 34.6866 19.0161 34.8895 19.1879L34.9675 19.2607L35.3265 18.5946L35.2874 18.5503C34.982 18.2766 34.5825 18.1321 34.1727 18.1471C33.8455 18.1407 33.5271 18.2532 33.2765 18.4637C33.1616 18.5616 33.0694 18.6835 33.0065 18.8208C32.9436 18.9581 32.9114 19.1076 32.9124 19.2586C32.9097 19.4007 32.9402 19.5414 33.0014 19.6696C33.0626 19.7979 33.1529 19.9101 33.2649 19.9974C33.4778 20.1558 33.7116 20.284 33.9595 20.3785C34.2899 20.5189 34.5749 20.6413 34.5749 20.8651C34.5749 21.033 34.463 21.2124 34.1442 21.2124C33.8389 21.1907 33.5494 21.0686 33.3209 20.8651L33.2533 20.7975L32.811 21.4077L32.8554 21.4584C32.955 21.5592 33.0679 21.6459 33.1911 21.7159C33.4791 21.8844 33.8074 21.9715 34.141 21.9682C34.477 21.9825 34.8051 21.8638 35.0541 21.6378C35.1604 21.5359 35.2446 21.4132 35.3014 21.2774C35.3582 21.1416 35.3865 20.9955 35.3845 20.8482C35.3855 20.7011 35.353 20.5557 35.2896 20.4229C35.2261 20.2901 35.1333 20.1735 35.0182 20.0819Z" fill="white"/>
<path d="M39.5815 18.2117H38.7529V21.9124H39.5815V18.2117Z" fill="white"/>
<path d="M38.237 20.249C38.154 20.1222 38.0403 20.0184 37.9066 19.9471C38.0122 19.8544 38.0969 19.7403 38.1549 19.6124C38.2129 19.4844 38.2428 19.3455 38.2428 19.205C38.2428 19.0645 38.2129 18.9256 38.1549 18.7976C38.0969 18.6697 38.0122 18.5556 37.9066 18.4629C37.6662 18.2845 37.3719 18.1935 37.0727 18.2054H35.7227V21.9062H37.0833C37.4059 21.9184 37.7239 21.8262 37.99 21.6433C38.1906 21.4785 38.3256 21.2473 38.3707 20.9916C38.4158 20.7359 38.368 20.4725 38.2359 20.249H38.237ZM37.1339 21.2179H36.5006V18.8958H37.0548C37.1068 18.8896 37.1595 18.8951 37.2091 18.9119C37.2587 18.9287 37.304 18.9563 37.3415 18.9928C37.379 19.0294 37.4079 19.0738 37.426 19.1229C37.4442 19.1721 37.4511 19.2246 37.4464 19.2768C37.4527 19.3278 37.4471 19.3797 37.43 19.4282C37.4129 19.4767 37.3848 19.5206 37.3479 19.5564C37.3109 19.5922 37.2662 19.6189 37.2171 19.6345C37.1681 19.6501 37.1162 19.6542 37.0653 19.6463H36.8753V20.3292H37.1329C37.1947 20.3263 37.2564 20.3362 37.3142 20.3584C37.372 20.3805 37.4245 20.4145 37.4685 20.458C37.5077 20.4965 37.5384 20.5427 37.5586 20.5938C37.5788 20.6449 37.588 20.6997 37.5857 20.7546C37.5919 20.816 37.5846 20.878 37.5642 20.9362C37.5439 20.9944 37.511 21.0475 37.468 21.0917C37.4249 21.1358 37.3727 21.17 37.3149 21.1918C37.2572 21.2137 37.1955 21.2226 37.1339 21.2179Z" fill="white"/>
<path d="M30.3316 18.1442C29.8393 18.1427 29.3652 18.3308 29.0077 18.6694C28.6502 19.0079 28.4367 19.4711 28.4115 19.9628C28.3862 20.4546 28.5512 20.9372 28.8721 21.3106C29.193 21.684 29.6454 21.9196 30.1353 21.9685V20.572C30.0155 20.5262 29.9154 20.4399 29.8526 20.3281C29.7897 20.2162 29.7681 20.0859 29.7913 19.9597C29.8146 19.8335 29.8814 19.7194 29.98 19.6374C30.0786 19.5553 30.2028 19.5103 30.3311 19.5103C30.4594 19.5103 30.5837 19.5553 30.6823 19.6374C30.7809 19.7194 30.8477 19.8335 30.8709 19.9597C30.8942 20.0859 30.8725 20.2162 30.8097 20.3281C30.7468 20.4399 30.6468 20.5262 30.5269 20.572V21.9664C31.0169 21.9174 31.4692 21.6819 31.7902 21.3084C32.1111 20.935 32.276 20.4524 32.2508 19.9607C32.2256 19.469 32.012 19.0058 31.6545 18.6672C31.297 18.3287 30.823 18.1406 30.3306 18.1421L30.3316 18.1442Z" fill="#00A9E0"/>
<path d="M30.0283 13.3066H30.6901V15.5229H31.9106V16.2239H30.0283V13.3066Z" fill="white"/>
<path d="M32.2244 13.3066H32.8995V16.2342H32.2244V13.3066Z" fill="white"/>
<path d="M33.2402 13.3066V13.989H33.9793V16.197H34.6607V13.989H35.3513V13.3066H33.2402Z" fill="white"/>
<path d="M35.6562 13.3066V16.2218H37.487V15.4961H36.3562V15.0405H37.2231V14.422H36.3562V13.9849H37.487V13.3066H35.6562Z" fill="white"/>
<defs>
<linearGradient id="paint0_linear_178_2348" x1="41.904" y1="6.5" x2="26.856" y2="24.55" gradientUnits="userSpaceOnUse">
<stop stop-color="#2C2664"/>
<stop offset="1" stop-color="#C32847"/>
</linearGradient>
</defs>
</svg>
