<svg width="68" height="32" viewBox="0 0 68 32" fill="none" xmlns="http://www.w3.org/2000/svg">
<path d="M21.2502 10.6874V21.3126C21.2502 22.1579 21.5861 22.9687 22.1838 23.5664C22.7816 24.1642 23.5923 24.5 24.4377 24.5H43.5626C44.408 24.5 45.2187 24.1642 45.8164 23.5664C46.4142 22.9687 46.75 22.1579 46.75 21.3126V10.6874C46.75 9.84206 46.4142 9.03133 45.8164 8.43357C45.2187 7.83582 44.408 7.5 43.5626 7.5H24.4377C23.5923 7.5 22.7816 7.83582 22.1838 8.43357C21.5861 9.03133 21.2502 9.84206 21.2502 10.6874ZM43.5626 19.1876H39.3127C39.0309 19.1876 38.7607 19.0757 38.5614 18.8764C38.3622 18.6772 38.2502 18.407 38.2502 18.1252C38.2502 17.8434 38.3622 17.5731 38.5614 17.3739C38.7607 17.1746 39.0309 17.0627 39.3127 17.0627H43.5626C43.8444 17.0627 44.1146 17.1746 44.3139 17.3739C44.5131 17.5731 44.6251 17.8434 44.6251 18.1252C44.6251 18.407 44.5131 18.6772 44.3139 18.8764C44.1146 19.0757 43.8444 19.1876 43.5626 19.1876ZM43.5626 14.9378H24.4377C24.1559 14.9378 23.8856 14.8258 23.6864 14.6266C23.4871 14.4273 23.3752 14.1571 23.3752 13.8753C23.3752 13.5935 23.4871 13.3232 23.6864 13.124C23.8856 12.9247 24.1559 12.8128 24.4377 12.8128H43.5626C43.8444 12.8128 44.1146 12.9247 44.3139 13.124C44.5131 13.3232 44.6251 13.5935 44.6251 13.8753C44.6251 14.1571 44.5131 14.4273 44.3139 14.6266C44.1146 14.8258 43.8444 14.9378 43.5626 14.9378Z" fill="#3E2AD1"/>
</svg>
