<svg width="68" height="32" viewBox="0 0 68 32" fill="none" xmlns="http://www.w3.org/2000/svg">
<path d="M7 11H61V19.9998H7V11Z" fill="#004C8F"/>
<path d="M15.9978 11H60.9973V19.9998H15.9978V11Z" fill="#004C8F"/>
<path d="M18.8591 17.628V13.3699H20.2597V14.8067H21.5726V13.3699H22.9762V17.628H21.5726V15.976H20.2597V17.628H18.8591Z" fill="white"/>
<path d="M25.1907 14.4298H25.5545C25.7483 14.4197 25.9422 14.4471 26.1256 14.5106C26.2178 14.5519 26.2971 14.618 26.3543 14.7013C26.4202 14.8041 26.4678 14.9173 26.4952 15.0362C26.5278 15.1787 26.5441 15.3244 26.5438 15.4705C26.5511 15.6842 26.5144 15.897 26.4362 16.096C26.3781 16.2487 26.27 16.3773 26.1296 16.4607C25.9455 16.5465 25.7427 16.5847 25.54 16.5721H25.1869L25.1907 14.4298ZM25.7316 17.63C26.0103 17.6363 26.2886 17.6068 26.5598 17.5424C26.754 17.4971 26.9397 17.4205 27.1094 17.3157C27.2604 17.2121 27.3924 17.0834 27.4997 16.935C27.632 16.7458 27.7334 16.5368 27.8005 16.3159C27.8862 16.0405 27.9275 15.7533 27.9225 15.4649C27.9351 15.0501 27.8419 14.6388 27.6519 14.2698C27.4863 13.9608 27.2224 13.7159 26.9018 13.5738C26.5419 13.4282 26.1557 13.3582 25.7676 13.3681H23.8206V17.6261H25.7316" fill="white"/>
<path d="M28.5652 17.628V13.3699H31.8872V14.4173H29.9476V15.0991H31.4986V16.1208H29.9476V17.625H28.5652" fill="white"/>
<path d="M36.5793 14.9993H35.2569C35.243 14.8108 35.1616 14.6334 35.0275 14.5002C34.8929 14.3805 34.717 14.3178 34.537 14.3252C34.4209 14.3223 34.3058 14.3467 34.2008 14.3963C34.0959 14.4459 34.0039 14.5194 33.9323 14.6109C33.7531 14.8866 33.6708 15.2141 33.6983 15.5419C33.6868 15.7712 33.719 16.0008 33.7933 16.2181C33.8484 16.359 33.945 16.4799 34.0704 16.5647C34.2055 16.6437 34.3606 16.682 34.517 16.6751C34.61 16.6812 34.7033 16.6684 34.7913 16.6377C34.8793 16.6069 34.9603 16.5588 35.0293 16.4961C35.1684 16.3564 35.25 16.1694 35.2578 15.9724H36.6052C36.5841 16.2011 36.5303 16.4255 36.4452 16.6388C36.3542 16.8413 36.2247 17.0243 36.0642 17.1777C35.8818 17.3612 35.6628 17.5044 35.4215 17.5977C35.1457 17.7001 34.8529 17.7491 34.5588 17.7423C34.2538 17.746 33.9504 17.6984 33.6611 17.6014C33.4037 17.5147 33.167 17.3757 32.966 17.193C32.7813 17.0199 32.6312 16.8131 32.5241 16.5837C32.3708 16.2501 32.2948 15.8861 32.3014 15.5191C32.2988 15.2037 32.3533 14.8905 32.4623 14.5946C32.5597 14.327 32.7111 14.0822 32.907 13.8756C33.0851 13.6896 33.2987 13.5415 33.5353 13.4397C33.8428 13.3128 34.173 13.2498 34.5056 13.2549C34.8009 13.2525 35.0947 13.2989 35.375 13.3921C35.6261 13.4712 35.8546 13.6092 36.0414 13.7947C36.2155 13.9701 36.3528 14.1787 36.4452 14.4079C36.5186 14.5967 36.5635 14.7954 36.5784 14.9974" fill="white"/>
<path d="M41.0659 14.3288C41.1963 14.3232 41.3272 14.3326 41.4555 14.3564C41.5336 14.3785 41.6029 14.4243 41.6536 14.4878C41.7038 14.5507 41.7306 14.6292 41.7296 14.7098C41.7306 14.7607 41.7198 14.8113 41.698 14.8574C41.6762 14.9035 41.6441 14.9437 41.604 14.9752C41.4677 15.0586 41.3079 15.0954 41.1489 15.0801H40.6212V14.3297L41.0659 14.3288ZM41.4183 17.629C41.6531 17.6357 41.8881 17.6203 42.1201 17.5832C42.2631 17.5486 42.402 17.4994 42.535 17.4365C42.6509 17.382 42.7573 17.3095 42.8503 17.2215C42.9598 17.1183 43.0444 16.9915 43.0978 16.8509C43.1586 16.6927 43.1887 16.5243 43.1864 16.3549C43.1956 16.1261 43.1287 15.9008 42.996 15.7142C42.8668 15.5423 42.6832 15.4191 42.4751 15.3648C42.6399 15.2783 42.7784 15.1488 42.8761 14.9903C42.9737 14.8319 43.0269 14.6502 43.0302 14.464C43.0366 14.2891 42.9947 14.1156 42.9091 13.9629C42.8234 13.8102 42.6973 13.684 42.5446 13.5984C42.1834 13.4218 41.7823 13.3431 41.3811 13.3699H39.2683V17.628L41.4183 17.629ZM41.1935 15.8455C41.3825 15.8254 41.5731 15.8622 41.741 15.9513C41.7837 15.9867 41.8177 16.0314 41.84 16.0822C41.8623 16.1329 41.8723 16.1881 41.8695 16.2435C41.8724 16.3011 41.8615 16.3586 41.8377 16.4111C41.8138 16.4636 41.7779 16.5098 41.7326 16.5455C41.5685 16.6374 41.3794 16.6748 41.1926 16.6529H40.6212V15.8465H41.1926" fill="white"/>
<path d="M46.2617 16.1969H45.3714L45.8102 14.6478L46.2617 16.1969ZM44.9525 17.6251L45.1143 17.0663H46.5083L46.671 17.6251H48.0641L46.5406 13.3672H45.1182L43.5889 17.6251H44.9562" fill="white"/>
<path d="M48.6538 17.628V13.3699H49.9581L51.4303 15.6503V13.3699H52.7727V17.628H51.4398L49.999 15.4048V17.628H48.6538Z" fill="white"/>
<path d="M53.7048 17.628V13.3699H55.0617V14.7744L56.3279 13.3699H57.9732L56.4127 14.9734L58.1353 17.628H56.4583L55.4348 15.9313L55.0626 16.2988V17.6318H53.7058" fill="white"/>
<path d="M7 11H15.9987V19.9998H7V11Z" fill="#ED232A"/>
<path d="M8.57202 12.575H14.4218V18.4231H8.57202V12.575Z" fill="white"/>
<path d="M11.0476 11H11.9475V19.9998H11.0476V11Z" fill="white"/>
<path d="M7 15.0503H15.9987V15.9501H7V15.0503Z" fill="white"/>
<path d="M10.1467 14.1504H12.846V16.8499H10.1467V14.1504Z" fill="#004C8F"/>
</svg>
