<svg width="68" height="32" viewBox="0 0 68 32" fill="none" xmlns="http://www.w3.org/2000/svg">
<path d="M9.92824 10.0592C8.39531 10.1048 6.94029 10.7451 5.87118 11.8446C4.80207 12.9441 4.20279 14.4165 4.2002 15.9501C4.20019 17.5147 4.82131 19.0154 5.92709 20.1224C7.03286 21.2293 8.53284 21.852 10.0975 21.8537C11.2362 21.8463 12.349 21.5129 13.3041 20.8928C14.2593 20.2727 15.0168 19.392 15.487 18.3549C14.8784 18.6025 14.2274 18.7294 13.5703 18.7287C10.7587 18.7287 8.48698 16.9073 8.48304 14.0964C8.44809 12.8505 8.83656 11.6297 9.58504 10.633C9.72043 10.4583 9.94398 10.2142 10.0967 10.0583H9.92745" fill="url(#paint0_linear_178_2408)"/>
<mask id="mask0_178_2408" style="mask-type:luminance" maskUnits="userSpaceOnUse" x="4" y="10" width="13" height="12">
<path d="M4.71509 10H16.0019V21.8H4.71509V10Z" fill="white"/>
</mask>
<g mask="url(#mask0_178_2408)">
<path d="M10.6281 10.5746C11.381 11.5701 11.7659 12.7956 11.7175 14.0428C11.7175 16.8529 9.43952 18.6759 6.63021 18.6759C5.97367 18.6762 5.3233 18.5492 4.71509 18.302C5.17113 19.3491 5.92495 20.2391 6.88278 20.8612C7.84062 21.4833 8.96021 21.81 10.1023 21.8008C11.668 21.8008 13.1696 21.1789 14.2768 20.0717C15.3839 18.9646 16.0059 17.463 16.0059 15.8972C16.0035 14.3632 15.4041 12.8904 14.3346 11.7907C13.2651 10.6909 11.8096 10.0507 10.2763 10.0055L10.1023 9.99683C10.29 10.1778 10.4669 10.3697 10.632 10.5714" fill="url(#paint1_linear_178_2408)"/>
</g>
<path d="M9.48873 10.8854C8.80728 11.853 8.45438 13.0138 8.48197 14.1969C8.4728 14.866 8.61378 15.5287 8.89454 16.1361C9.17529 16.7435 9.58868 17.2802 10.1043 17.7068C10.621 17.2875 11.035 16.7557 11.3146 16.1518C11.5941 15.5479 11.7318 14.8881 11.7171 14.2229C11.7745 12.9892 11.398 11.7743 10.6529 10.7894C10.4855 10.5724 10.3013 10.369 10.1019 10.1809C9.87773 10.3973 9.67307 10.633 9.4903 10.8854" fill="white"/>
<path d="M19.3566 16.5137V18.2131C19.4692 18.2241 19.5928 18.2304 19.7179 18.2375C19.8431 18.2446 19.9651 18.2454 20.0729 18.2454C20.2681 18.2459 20.463 18.2322 20.6562 18.2044C20.8183 18.1833 20.976 18.136 21.123 18.0643C21.2491 18.0013 21.3571 17.9073 21.4371 17.7912C21.52 17.6616 21.5607 17.5096 21.5535 17.3559C21.5662 17.2242 21.5402 17.0916 21.4789 16.9744C21.4175 16.8571 21.3234 16.7602 21.208 16.6955C20.908 16.5586 20.5793 16.4962 20.25 16.5137H19.3566ZM19.3566 15.7171H20.0729C20.3846 15.7315 20.6955 15.675 20.9821 15.5518C21.0901 15.4973 21.1793 15.4117 21.2383 15.3061C21.2972 15.2004 21.3231 15.0796 21.3127 14.959C21.3198 14.8403 21.291 14.7221 21.2299 14.62C21.1688 14.5179 21.0783 14.4366 20.9703 14.3868C20.6903 14.2644 20.3862 14.2071 20.0808 14.2191C19.9234 14.2191 19.7864 14.2191 19.6668 14.227C19.5471 14.2349 19.4416 14.2396 19.3566 14.2498V15.7171ZM20.0414 19.0908C19.7463 19.0908 19.4464 19.0805 19.1473 19.0624C18.8818 19.0485 18.6182 19.0095 18.3601 18.9459V13.5264C18.4766 13.5044 18.6033 13.4839 18.7379 13.465C18.8725 13.4462 19.0095 13.432 19.1496 13.421C19.2897 13.4099 19.4275 13.4021 19.5636 13.3966C19.6998 13.3911 19.8305 13.3887 19.9572 13.3887C20.2738 13.3878 20.5898 13.4141 20.9018 13.4674C21.165 13.5099 21.4193 13.5958 21.6543 13.7217C21.8576 13.8306 22.0282 13.9917 22.1486 14.1884C22.2736 14.4059 22.335 14.6541 22.3257 14.9047C22.3328 15.1443 22.2675 15.3805 22.1384 15.5825C22.004 15.7755 21.8221 15.9306 21.6102 16.0327C21.9062 16.1157 22.1683 16.2904 22.3588 16.5318C22.5283 16.7772 22.6134 17.0712 22.6012 17.3693C22.6149 17.6204 22.5636 17.8708 22.4523 18.0964C22.3411 18.3219 22.1736 18.515 21.966 18.657C21.3805 18.9862 20.7115 19.137 20.0414 19.0908Z" fill="#0A3152"/>
<path d="M24.558 18.3406C24.7873 18.3461 25.0166 18.33 25.2428 18.2926V17.2134C25.1653 17.192 25.0864 17.1759 25.0067 17.1654C24.895 17.1483 24.782 17.1401 24.669 17.141C24.5602 17.141 24.4515 17.1492 24.3439 17.1654C24.2398 17.1793 24.1386 17.2096 24.044 17.2551C23.9584 17.2952 23.885 17.3575 23.8315 17.4354C23.7761 17.5233 23.7487 17.626 23.7528 17.7298C23.7424 17.8217 23.757 17.9146 23.7951 17.9989C23.8332 18.0831 23.8934 18.1555 23.9692 18.2084C24.1494 18.3047 24.3523 18.3507 24.5565 18.3414M24.4777 14.7095C24.7538 14.7025 25.0289 14.7435 25.2909 14.8307C25.4916 14.8984 25.6727 15.0144 25.8182 15.1684C25.9532 15.319 26.0498 15.4999 26.1 15.6958C26.1575 15.9178 26.1851 16.1466 26.1819 16.3759V18.9286C26.0308 18.9609 25.8041 18.9994 25.5018 19.0459C25.1628 19.093 24.8208 19.1156 24.4785 19.1136C24.2456 19.116 24.0131 19.0914 23.7858 19.0404C23.5931 18.9993 23.4109 18.9189 23.2506 18.8042C23.1017 18.6958 22.9824 18.5519 22.9035 18.3855C22.8145 18.1853 22.772 17.9676 22.7791 17.7487C22.7719 17.5362 22.8204 17.3256 22.92 17.1378C23.012 16.9729 23.1434 16.8334 23.3025 16.7317C23.4735 16.623 23.6629 16.5464 23.8614 16.5058C24.081 16.4604 24.3047 16.4383 24.5289 16.4396C24.642 16.44 24.755 16.4468 24.8674 16.4601C24.9946 16.4748 25.1208 16.4974 25.2452 16.5278V16.3704C25.2454 16.2616 25.2325 16.1533 25.2066 16.0477C25.1799 15.9487 25.1318 15.8568 25.0657 15.7784C24.9923 15.6965 24.8998 15.6338 24.7965 15.5958C24.6627 15.5496 24.5217 15.5278 24.3801 15.5313C24.1732 15.5302 23.9665 15.5465 23.7622 15.5801C23.6062 15.6039 23.4527 15.6416 23.3033 15.6927L23.1813 14.9055C23.3577 14.8507 23.5376 14.8078 23.7197 14.7772C23.9703 14.7334 24.2242 14.7118 24.4785 14.7127" fill="#0A3152"/>
<path d="M26.8535 14.9496C27.0942 14.8848 27.3383 14.8338 27.5848 14.7969C27.9159 14.7466 28.2504 14.7224 28.5852 14.7244C28.8786 14.7155 29.171 14.7631 29.4464 14.8646C29.6603 14.9472 29.8498 15.0826 29.9974 15.2581C30.1393 15.4377 30.2382 15.6475 30.2862 15.8713C30.3459 16.1294 30.3747 16.3936 30.372 16.6585V19.0246H29.3976V16.808C29.4006 16.6152 29.3856 16.4226 29.3527 16.2326C29.3312 16.0958 29.2819 15.9648 29.2079 15.8477C29.1419 15.7477 29.0464 15.6707 28.9347 15.6273C28.7989 15.5792 28.6553 15.5567 28.5112 15.5612C28.3823 15.5614 28.2535 15.5696 28.1255 15.5856C27.9909 15.6021 27.8894 15.6147 27.828 15.6257V19.0246H26.8535" fill="#0A3152"/>
<path d="M31.8053 16.9071C31.7839 17.2693 31.8922 17.6273 32.1107 17.917C32.2137 18.0388 32.3433 18.1352 32.4894 18.199C32.6356 18.2627 32.7945 18.292 32.9538 18.2846C33.0879 18.2859 33.2219 18.2791 33.3552 18.2641C33.446 18.2542 33.5361 18.2392 33.6252 18.2192V15.8027C33.5178 15.7352 33.4025 15.681 33.282 15.6414C33.136 15.5891 32.9821 15.5624 32.827 15.5626C32.6771 15.5512 32.5268 15.5786 32.3906 15.6421C32.2544 15.7057 32.1368 15.8033 32.0493 15.9255C31.8717 16.2213 31.7865 16.5633 31.8045 16.9079M34.5989 18.8954C34.36 18.964 34.1167 19.0166 33.8708 19.0528C33.5658 19.1023 33.2572 19.1265 32.9483 19.1252C32.6438 19.1315 32.3409 19.081 32.0548 18.9765C31.8003 18.8816 31.5698 18.7319 31.3795 18.538C31.1894 18.3403 31.0439 18.1041 30.9528 17.8454C30.8491 17.552 30.7982 17.2426 30.8025 16.9315C30.7988 16.6249 30.8413 16.3195 30.9284 16.0255C31.0043 15.7698 31.1309 15.5321 31.3008 15.3265C31.4603 15.1343 31.6617 14.9811 31.8895 14.8786C32.141 14.7698 32.4129 14.7161 32.6869 14.7212C32.8687 14.7185 33.0498 14.7426 33.2245 14.7928C33.3636 14.8329 33.4988 14.8856 33.6283 14.9502V12.9367L34.6028 12.7793" fill="#0A3152"/>
<path d="M35.3169 19.0255V12.9377L36.2922 12.7803V14.867C36.4143 14.8248 36.5396 14.7924 36.6668 14.7702C36.8062 14.7436 36.9477 14.7299 37.0895 14.7292C37.3768 14.7201 37.663 14.7677 37.9318 14.8694C38.1403 14.953 38.324 15.0884 38.4655 15.2629C38.605 15.442 38.7031 15.6498 38.7528 15.8714C38.8114 16.1296 38.8399 16.3937 38.8378 16.6585V19.0255H37.8633V16.8104C37.8652 16.6177 37.8505 16.4252 37.8192 16.235C37.7977 16.0975 37.7478 15.9659 37.6728 15.8486C37.6072 15.7505 37.5133 15.6747 37.4036 15.6313C37.27 15.5818 37.1281 15.5583 36.9856 15.562C36.8534 15.5627 36.7216 15.5764 36.5921 15.603C36.4916 15.6211 36.3923 15.6451 36.2945 15.6746V19.0247" fill="#0A3152"/>
<path d="M40.9621 18.3406C41.1903 18.3461 41.4186 18.3303 41.6438 18.2934V17.2134C41.5663 17.1921 41.4874 17.176 41.4077 17.1654C41.2965 17.1483 41.1841 17.1401 41.0716 17.141C40.9622 17.141 40.853 17.1492 40.7449 17.1654C40.6416 17.1793 40.5411 17.2096 40.4474 17.2552C40.3613 17.2953 40.2875 17.3575 40.2332 17.4354C40.1774 17.5232 40.15 17.6259 40.1545 17.7298C40.1444 17.8217 40.1592 17.9145 40.1973 17.9987C40.2353 18.0829 40.2953 18.1553 40.371 18.2084C40.552 18.3049 40.7557 18.3509 40.9606 18.3414M40.8819 14.7095C41.1576 14.7024 41.4325 14.7434 41.6942 14.8308C41.8956 14.898 42.0773 15.014 42.2231 15.1684C42.3575 15.3196 42.4543 15.5003 42.5057 15.6958C42.5635 15.9178 42.5913 16.1466 42.5884 16.3759V18.9286C42.4388 18.9609 42.2106 18.9995 41.9083 19.0459C41.568 19.0932 41.2247 19.1158 40.8811 19.1136C40.6481 19.116 40.4157 19.0914 40.1884 19.0404C39.9955 18.9991 39.813 18.9187 39.6523 18.8043C39.504 18.696 39.3854 18.5519 39.3076 18.3855C39.2178 18.1855 39.1747 17.9678 39.1816 17.7487C39.1749 17.5362 39.2238 17.3257 39.3233 17.1379C39.4156 16.9731 39.5469 16.8336 39.7059 16.7317C39.8775 16.6232 40.0674 16.5466 40.2663 16.5058C40.4845 16.4598 40.7069 16.4369 40.9299 16.4373C41.0427 16.4376 41.1555 16.4445 41.2676 16.4578C41.395 16.4725 41.5215 16.4951 41.6462 16.5255V16.3681C41.6464 16.2592 41.6329 16.1508 41.606 16.0453C41.5799 15.9458 41.5311 15.8537 41.4636 15.7761C41.3919 15.6951 41.3013 15.6332 41.1999 15.5959C41.0666 15.5497 40.9261 15.5279 40.785 15.5313C40.5773 15.5302 40.3698 15.5466 40.1648 15.5801C40.0088 15.6043 39.8553 15.642 39.7059 15.6927L39.5854 14.9055C39.762 14.8505 39.9422 14.8076 40.1246 14.7772C40.3744 14.7335 40.6275 14.7119 40.8811 14.7127" fill="#0A3152"/>
<path d="M43.2549 14.9496C43.4964 14.885 43.7413 14.834 43.9885 14.7969C44.3188 14.7467 44.6525 14.7225 44.9866 14.7245C45.28 14.7154 45.5724 14.763 45.8477 14.8646C46.0614 14.9476 46.2509 15.0829 46.3987 15.2582C46.5394 15.4386 46.6384 15.6481 46.6884 15.8714C46.7464 16.1296 46.7744 16.3938 46.7718 16.6585V19.0246H45.7997V16.8081C45.8025 16.6153 45.7877 16.4227 45.7556 16.2327C45.7339 16.096 45.6849 15.9651 45.6116 15.8477C45.545 15.7476 45.449 15.6706 45.3369 15.6273C45.2019 15.5792 45.059 15.5568 44.9158 15.5612C44.7863 15.5614 44.657 15.5696 44.5285 15.5856C44.3939 15.6021 44.2923 15.6147 44.2302 15.6258V19.0246H43.2549" fill="#0A3152"/>
<path d="M49.4484 16.3444V18.5484C49.5287 18.5604 49.6494 18.5728 49.8105 18.5854C49.9727 18.5987 50.1356 18.6058 50.3017 18.6058C50.5427 18.6074 50.7836 18.5929 51.0227 18.5625C51.236 18.5354 51.4437 18.4751 51.6383 18.3839C51.8089 18.3042 51.9559 18.1816 52.0649 18.0281C52.1769 17.8554 52.2319 17.652 52.2223 17.4464C52.2288 17.2608 52.1904 17.0764 52.1106 16.9088C52.0369 16.7679 51.9254 16.6505 51.7886 16.5695C51.6307 16.4797 51.457 16.4209 51.277 16.3963C51.0543 16.3623 50.8292 16.346 50.604 16.3475L49.4484 16.3444ZM49.4484 15.8776H50.5111C50.6996 15.8785 50.8878 15.8637 51.0739 15.8335C51.2368 15.81 51.394 15.7566 51.5375 15.6761C51.6671 15.6007 51.7742 15.492 51.8476 15.3612C51.928 15.2067 51.9668 15.0339 51.9602 14.8598C51.9651 14.6965 51.9222 14.5354 51.8366 14.3962C51.7508 14.266 51.6332 14.1598 51.495 14.0876C51.3307 14.0029 51.1536 13.9457 50.9708 13.9184C50.7471 13.8811 50.5206 13.8627 50.2938 13.8633C50.0955 13.8633 49.927 13.8696 49.7901 13.8806C49.6531 13.8916 49.5382 13.9042 49.4484 13.92V15.8776ZM50.2371 19.0742C50.1466 19.0742 50.0412 19.0742 49.9223 19.0624C49.8034 19.0506 49.6743 19.0427 49.55 19.0293C49.4256 19.0159 49.302 19.0002 49.1902 18.9813C49.0785 18.9624 48.9809 18.9427 48.9014 18.9207V13.5492C49.0074 13.5208 49.1148 13.4982 49.2233 13.4815C49.3398 13.4626 49.4595 13.4477 49.5901 13.4327C49.7208 13.4178 49.8389 13.4107 49.9593 13.4044C50.0797 13.3981 50.1907 13.3965 50.293 13.3965C50.5806 13.3955 50.8676 13.4194 51.151 13.4681C51.4002 13.5093 51.6411 13.5907 51.8642 13.709C52.0609 13.816 52.2284 13.9695 52.3522 14.1561C52.4772 14.363 52.5393 14.6017 52.5309 14.8433C52.5391 15.1172 52.459 15.3865 52.3026 15.6115C52.1504 15.8211 51.934 15.9753 51.6863 16.0508C51.8401 16.0841 51.9891 16.137 52.1294 16.2082C52.2623 16.2769 52.3822 16.3682 52.4837 16.4782C52.5894 16.5947 52.6699 16.732 52.7198 16.8812C52.7797 17.0648 52.8079 17.2572 52.8032 17.4503C52.8135 17.6889 52.7606 17.926 52.6501 18.1377C52.5395 18.3494 52.3752 18.5282 52.1735 18.6562C51.5801 18.9745 50.909 19.1193 50.2371 19.0742Z" fill="#0A3152"/>
<path d="M54.7307 18.6475C54.9359 18.6475 55.1146 18.6409 55.2668 18.6278C55.3988 18.6174 55.5302 18.5998 55.6604 18.575V17.1086C55.5692 17.0719 55.4749 17.0437 55.3786 17.0244C55.2035 16.9908 55.0254 16.976 54.8472 16.9803C54.7124 16.9802 54.5777 16.9897 54.4442 17.0086C54.3093 17.0259 54.1785 17.0666 54.0577 17.1291C53.9423 17.1888 53.8431 17.2758 53.7689 17.3825C53.6873 17.5096 53.6474 17.6591 53.6547 17.8099C53.651 17.9454 53.6779 18.0799 53.7334 18.2035C53.7816 18.3078 53.8565 18.3974 53.9507 18.4633C54.0534 18.531 54.1684 18.5781 54.2892 18.6018C54.4358 18.6335 54.5855 18.6485 54.7355 18.6467M54.6874 14.766C54.9252 14.7597 55.1619 14.799 55.3849 14.8818C55.5624 14.9514 55.721 15.062 55.8477 15.2045C55.9686 15.3459 56.0563 15.5127 56.1043 15.6925C56.1595 15.8916 56.186 16.0975 56.183 16.3041V18.9292C56.1066 18.9506 56.0291 18.968 55.9508 18.9812C55.8485 19.0001 55.7312 19.0206 55.5958 19.041C55.4604 19.0615 55.3124 19.0804 55.1495 19.0945C54.9866 19.1087 54.8181 19.115 54.6449 19.115C54.439 19.1171 54.2336 19.0922 54.0341 19.041C53.8594 18.9985 53.6952 18.9208 53.5516 18.8128C53.4135 18.7069 53.303 18.5691 53.2297 18.4113C53.1466 18.2225 53.1065 18.0177 53.1124 17.8115C53.1068 17.6101 53.1515 17.4105 53.2423 17.2306C53.3267 17.0687 53.4514 16.9313 53.6043 16.8315C53.774 16.7204 53.9631 16.6421 54.1616 16.6009C54.3916 16.5518 54.6262 16.5278 54.8614 16.5292C54.9401 16.5292 55.0188 16.5292 55.0975 16.5411C55.1763 16.5529 55.2613 16.5599 55.3384 16.5733C55.4156 16.5867 55.4832 16.6001 55.5407 16.6143C55.5805 16.6218 55.6195 16.6332 55.6572 16.6481V16.3915C55.6576 16.2508 55.6468 16.1102 55.6249 15.9712C55.6058 15.8386 55.5574 15.712 55.4832 15.6004C55.4068 15.4866 55.3017 15.3948 55.1786 15.3344C55.0153 15.2619 54.8376 15.228 54.6591 15.2352C54.4288 15.227 54.1984 15.2482 53.9735 15.2982C53.824 15.3422 53.7138 15.3769 53.6445 15.4044L53.5713 14.9447C53.7073 14.8892 53.8491 14.8488 53.994 14.8243C54.2213 14.7842 54.4519 14.7655 54.6827 14.7684" fill="#0A3152"/>
<path d="M56.9937 15.007C57.1511 14.9645 57.3605 14.9157 57.6234 14.8621C57.9422 14.8041 58.266 14.7777 58.59 14.7834C58.8605 14.7751 59.1299 14.8217 59.3818 14.9204C59.5833 15.0037 59.7586 15.1397 59.8896 15.314C60.021 15.4953 60.1124 15.7024 60.158 15.9216C60.2135 16.1784 60.2399 16.4406 60.2367 16.7033V19.0253H59.7156V16.8662C59.7192 16.6153 59.6989 16.3647 59.655 16.1176C59.6244 15.939 59.5557 15.769 59.4535 15.6194C59.3609 15.4915 59.232 15.3944 59.0835 15.3407C58.8979 15.2799 58.7034 15.2512 58.5081 15.2557C58.2941 15.2537 58.0802 15.2674 57.8682 15.2966C57.7491 15.3101 57.6315 15.3348 57.5171 15.3706V19.0253H56.9937" fill="#0A3152"/>
<path d="M62.0985 16.7591C62.2995 16.9019 62.4919 17.0565 62.6747 17.2219C62.8676 17.3967 63.0581 17.5871 63.2454 17.7902C63.4328 17.9933 63.6099 18.2043 63.7767 18.4199C63.9436 18.6356 64.0845 18.8379 64.201 19.0276H63.5721C63.4408 18.8089 63.2935 18.6003 63.1313 18.4034C62.9672 18.2022 62.7922 18.0101 62.607 17.828C62.4321 17.6548 62.2481 17.4909 62.056 17.3368C61.905 17.2103 61.7421 17.0985 61.5696 17.0031V19.026H61.0532V12.8729L61.5751 12.7761V16.6552C61.6884 16.5591 61.8262 16.4277 61.9939 16.2616C62.1615 16.0955 62.3315 15.9294 62.5031 15.7625C62.6747 15.5957 62.8408 15.4319 62.9959 15.2753C63.151 15.1187 63.2793 14.9809 63.3832 14.8621H64.0231C63.9019 14.9911 63.761 15.1344 63.6036 15.2918C63.4461 15.4493 63.2769 15.613 63.1045 15.783L62.5929 16.2852C62.4252 16.4513 62.2623 16.6087 62.1017 16.7575" fill="#0A3152"/>
<defs>
<linearGradient id="paint0_linear_178_2408" x1="-13.0235" y1="451.793" x2="-12.4818" y2="451.793" gradientUnits="userSpaceOnUse">
<stop stop-color="#EF3B23"/>
<stop offset="1" stop-color="#8B131E"/>
</linearGradient>
<linearGradient id="paint1_linear_178_2408" x1="-13.034" y1="451.862" x2="-12.4808" y2="451.862" gradientUnits="userSpaceOnUse">
<stop stop-color="#B7212F"/>
<stop offset="1" stop-color="#EF3B23"/>
</linearGradient>
</defs>
</svg>
