<svg width="68" height="32" viewBox="0 0 68 32" fill="none" xmlns="http://www.w3.org/2000/svg">
<path d="M30.7675 6.56643C30.7674 6.25433 30.8093 5.9436 30.8922 5.64242C30.4039 5.4193 29.8723 5.30399 29.3344 5.30453C28.3696 5.29801 27.4416 5.67035 26.7543 6.33975C26.0671 7.00916 25.6767 7.92088 25.6689 8.87464C25.6691 9.34242 25.7632 9.8055 25.9459 10.237C26.1285 10.6686 26.396 11.0599 26.7328 11.3885H31.9432C32.392 10.9496 32.716 10.4015 32.8825 9.79955C32.254 9.51717 31.7206 9.06245 31.3457 8.48937C30.9709 7.91629 30.7702 7.2489 30.7675 6.56643Z" fill="#FFBE1B"/>
<path d="M30.7677 6.58902C30.3347 6.33196 29.8388 6.19665 29.3336 6.19769C28.6921 6.18643 28.0675 6.40096 27.5712 6.80296C27.0749 7.20496 26.7393 7.76826 26.6244 8.39227C26.5094 9.01628 26.6225 9.66037 26.9436 10.2095C27.2646 10.7587 27.7726 11.1772 28.377 11.3902H30.2903C30.7479 11.2271 31.153 10.9458 31.4635 10.5756C31.774 10.2054 31.9787 9.75974 32.0561 9.28496C31.6559 8.95535 31.3332 8.54333 31.1107 8.07769C30.8881 7.61205 30.7711 7.104 30.7677 6.58902Z" fill="#FFE37B"/>
<path d="M30.4438 9.0439C30.34 8.93046 30.2012 8.85406 30.0489 8.8265C30.0947 8.80657 30.1253 8.79235 30.1405 8.78389C30.1728 8.76465 30.2035 8.74284 30.2322 8.71868C30.3008 8.66529 30.3552 8.59611 30.3905 8.51714C30.4258 8.43818 30.4409 8.35185 30.4347 8.26573C30.4374 8.12386 30.392 7.98519 30.3056 7.87187C30.2192 7.75855 30.0969 7.67713 29.9582 7.64067C29.9173 7.62771 29.8757 7.61711 29.8335 7.60896V7.27832H29.3735V7.57728H29.0592V7.27832H28.5901V7.57728H28.0769V8.06826H28.459V9.68616H28.0769V10.1772H28.5901V10.4761H29.0592V10.1772H29.3735V10.4761H29.8427V10.1681C30.0513 10.1621 30.2504 10.0801 30.4017 9.93801C30.5257 9.80832 30.5943 9.63634 30.5932 9.45789C30.598 9.30621 30.5447 9.15833 30.4438 9.0439ZM29.0547 8.06735H29.3415C29.469 8.05935 29.5968 8.07852 29.7163 8.12353C29.7553 8.14692 29.7866 8.18107 29.8063 8.22178C29.826 8.26249 29.8332 8.30798 29.8271 8.35271C29.8332 8.39784 29.8249 8.44371 29.8034 8.48397C29.7819 8.52423 29.7482 8.55687 29.7071 8.57735C29.5894 8.61792 29.465 8.63577 29.3406 8.62991H29.0574L29.0547 8.06735ZM29.8482 9.62365C29.7259 9.67124 29.5946 9.69227 29.4633 9.68527H29.0547V9.08647H29.4065C29.5534 9.07902 29.7004 9.09868 29.84 9.14445C29.8852 9.16483 29.9227 9.19891 29.9471 9.24173C29.9714 9.28455 29.9814 9.3339 29.9756 9.38269C29.9814 9.431 29.9724 9.47993 29.9497 9.52308C29.9269 9.56623 29.8916 9.60159 29.8482 9.62457V9.62365Z" fill="#1F1703"/>
<path d="M36.3664 12.0534C36.3666 11.8311 36.3881 11.6094 36.4305 11.3912H26.106C25.6365 11.3876 25.1841 11.5656 24.8455 11.8872C24.5068 12.2087 24.3087 12.6484 24.2935 13.1123C24.3412 13.3341 24.4414 13.5415 24.5858 13.7176C24.7303 13.8936 24.9149 14.0333 25.1246 14.1251C25.6412 14.3156 26.1924 14.3974 26.7429 14.3652H37.236C36.6737 13.7234 36.3649 12.9024 36.3664 12.0534Z" fill="#28519F"/>
<path d="M40.0355 8.4833C39.0707 8.47679 38.1428 8.84912 37.4555 9.51852C36.7683 10.1879 36.3779 11.0996 36.3701 12.0534C36.3698 12.903 36.6804 13.7241 37.2444 14.3652H40.5991C40.875 14.3644 41.1475 14.4257 41.396 14.5443C41.6444 14.663 41.8623 14.8359 42.0332 15.0501C42.5451 14.7307 42.9673 14.2886 43.2603 13.7649C43.5533 13.2412 43.7077 12.6528 43.7092 12.0543C43.7055 11.5813 43.6075 11.1136 43.4208 10.6781C43.2341 10.2425 42.9624 9.84761 42.6212 9.51594C42.28 9.18428 41.876 8.92238 41.4324 8.74519C40.9887 8.568 40.514 8.479 40.0355 8.4833Z" fill="#5D8EF9"/>
<path d="M40.0358 9.37411C39.6768 9.37125 39.3208 9.43833 38.988 9.57156C38.6552 9.70478 38.3523 9.90154 38.0965 10.1506C37.8407 10.3996 37.637 10.696 37.4971 11.0229C37.3573 11.3497 37.2839 11.7006 37.2812 12.0555C37.2825 12.5252 37.4091 12.9863 37.6482 13.3922C37.8873 13.7981 38.2304 14.1344 38.643 14.3674H40.5948C40.8082 14.367 41.02 14.4035 41.2207 14.4751C41.7839 14.2177 42.2404 13.7766 42.5136 13.2258C42.7869 12.675 42.8601 12.0481 42.7212 11.4503C42.5823 10.8524 42.2396 10.3199 41.7506 9.94225C41.2617 9.56456 40.6563 9.36459 40.0358 9.37591V9.37411Z" fill="#D1EBFF"/>
<path d="M40.0351 10.2515L38.9053 11.9282L40.0351 12.7381L41.165 11.9282L40.0351 10.2515Z" fill="#0C2048"/>
<path d="M40.0351 13.0145L38.9053 12.1494L40.0351 13.8552L41.165 12.1494L40.0351 13.0145Z" fill="#0C2048"/>
<path d="M40.5952 14.3647H26.7427C26.1923 14.3969 25.6411 14.3151 25.1245 14.1246C24.9127 14.0331 24.7264 13.8925 24.5814 13.7146C24.4363 13.5367 24.3369 13.3268 24.2915 13.1028V24.7353C24.2954 25.207 24.4886 25.6579 24.8287 25.9888C25.1687 26.3197 25.6278 26.5036 26.1049 26.5H40.5934C40.8297 26.5019 41.0641 26.4577 41.2831 26.3701C41.5021 26.2824 41.7016 26.1529 41.87 25.9891C42.0384 25.8252 42.1725 25.6301 42.2646 25.415C42.3567 25.1999 42.405 24.9689 42.4068 24.7353V16.1294C42.4032 15.6579 42.2103 15.2071 41.8706 14.8762C41.5309 14.5453 41.0721 14.3613 40.5952 14.3647Z" fill="#4A89FF"/>
<path d="M37.5083 18.6714C37.4024 18.6706 37.2974 18.6904 37.1993 18.7297C37.1011 18.769 37.0118 18.827 36.9363 18.9004C36.8608 18.9739 36.8007 19.0613 36.7594 19.1577C36.7181 19.2541 36.6964 19.3576 36.6956 19.4622V21.3646C36.6964 21.4693 36.7181 21.5728 36.7594 21.6692C36.8007 21.7656 36.8608 21.853 36.9363 21.9264C37.0118 21.9999 37.1011 22.058 37.1993 22.0972C37.2974 22.1365 37.4024 22.1563 37.5083 22.1555H42.4081V18.6714H37.5083Z" fill="#8AC9F9"/>
<path d="M38.2715 19.6277C38.1151 19.6302 37.9629 19.6783 37.8341 19.766C37.7053 19.8538 37.6056 19.9771 37.5475 20.1206C37.4894 20.2642 37.4755 20.4215 37.5076 20.5729C37.5396 20.7242 37.6162 20.8628 37.7277 20.9712C37.8391 21.0797 37.9806 21.1532 38.1341 21.1824C38.2877 21.2117 38.4466 21.1954 38.5909 21.1357C38.7351 21.0759 38.8583 20.9754 38.945 20.8467C39.0316 20.718 39.0778 20.5668 39.0779 20.4122C39.077 20.3083 39.0555 20.2056 39.0145 20.11C38.9735 20.0144 38.9139 19.9277 38.839 19.8548C38.7642 19.782 38.6754 19.7244 38.5781 19.6854C38.4807 19.6465 38.3765 19.6269 38.2715 19.6277Z" fill="#FFE37B"/>
<path d="M34.4374 3.00008C33.7255 3.01062 33.0327 3.22894 32.4459 3.62762C31.8592 4.0263 31.4047 4.58755 31.1397 5.24081C30.8746 5.89407 30.8108 6.61019 30.9563 7.29919C31.1018 7.98819 31.45 8.61932 31.9573 9.11323C32.4645 9.60715 33.1081 9.94183 33.8072 10.0752C34.5062 10.2086 35.2296 10.1347 35.8863 9.86284C36.543 9.59099 37.1038 9.13331 37.4982 8.5473C37.8926 7.9613 38.1029 7.27313 38.1028 6.56928C38.0948 5.61568 37.7043 4.7042 37.0171 4.03499C36.3299 3.36579 35.402 2.99357 34.4374 3.00008Z" fill="#330D84"/>
<path d="M34.4376 3.89047C33.9034 3.89904 33.3837 4.06345 32.9438 4.36305C32.5039 4.66266 32.1633 5.08408 31.9649 5.57441C31.7665 6.06474 31.7191 6.60211 31.8286 7.11901C31.9381 7.6359 32.1996 8.10929 32.5804 8.4797C32.9612 8.85012 33.4441 9.10104 33.9687 9.20096C34.4933 9.30088 35.036 9.24534 35.5288 9.04131C36.0215 8.83728 36.4422 8.49385 36.7382 8.05418C37.0341 7.61452 37.1921 7.0982 37.1921 6.57009C37.1893 6.21534 37.1157 5.86463 36.9757 5.53797C36.8357 5.21132 36.632 4.91511 36.3763 4.66628C36.1205 4.41746 35.8176 4.22088 35.485 4.08776C35.1523 3.95465 34.7964 3.8876 34.4376 3.89047Z" fill="#5932AE"/>
<path d="M35.963 7.28175V5.37939L34.4373 6.90128L32.9116 5.37939V7.28175H32.4534V7.7655H33.4119V6.56429L34.4409 7.58976L35.47 6.56429V7.7655H36.4285V7.28175H35.963ZM33.0188 19.6362C32.7898 19.6355 32.5673 19.712 32.3881 19.8529C32.2089 19.9938 32.0836 20.1909 32.0328 20.4117H30.1845L28.7981 18.8717H24.2923V19.2821H28.6065L29.993 20.8221H32.0328C32.0691 21.0077 32.1582 21.1794 32.2895 21.3169C32.4209 21.4544 32.5891 21.5521 32.7746 21.5986C32.96 21.6451 33.155 21.6385 33.3368 21.5795C33.5186 21.5205 33.6796 21.4116 33.8011 21.2655C33.9226 21.1194 33.9995 20.9421 34.0228 20.7544C34.0462 20.5667 34.015 20.3763 33.933 20.2054C33.851 20.0346 33.7214 19.8903 33.5595 19.7895C33.3976 19.6887 33.2101 19.6356 33.0188 19.6362ZM33.0188 21.1871C32.9009 21.1883 32.7854 21.1544 32.6873 21.0898C32.5893 21.0252 32.5131 20.9328 32.469 20.8248H32.6724C32.7089 20.8822 32.7597 20.9294 32.8198 20.962C32.8799 20.9947 32.9474 21.0117 33.016 21.0114C33.1213 21.0114 33.2222 20.9701 33.2966 20.8965C33.371 20.8229 33.4128 20.7232 33.4128 20.6191C33.4128 20.5151 33.371 20.4153 33.2966 20.3418C33.2222 20.2682 33.1213 20.2269 33.016 20.2269C32.9474 20.2267 32.8798 20.2438 32.8196 20.2766C32.7595 20.3095 32.7088 20.3569 32.6724 20.4144H32.469C32.5056 20.3154 32.569 20.2282 32.6523 20.1623C32.7356 20.0964 32.8355 20.0543 32.9413 20.0406C33.0471 20.0269 33.1546 20.0422 33.2522 20.0846C33.3499 20.1271 33.4339 20.1952 33.4951 20.2816C33.5563 20.3679 33.5924 20.4692 33.5995 20.5744C33.6066 20.6797 33.5844 20.7848 33.5353 20.8784C33.4862 20.972 33.4121 21.0505 33.321 21.1054C33.23 21.1603 33.1254 21.1896 33.0188 21.1899V21.1871ZM40.1956 23.6629L39.4928 23.2526H31.2804L30.1753 24.7926H28.3426C28.2914 24.5556 28.1532 24.3457 27.9547 24.2035C27.7563 24.0612 27.5116 23.9966 27.2678 24.0221C27.024 24.0476 26.7984 24.1614 26.6345 24.3415C26.4705 24.5217 26.3798 24.7554 26.3798 24.9977C26.3798 25.2401 26.4705 25.4738 26.6345 25.654C26.7984 25.8341 27.024 25.9479 27.2678 25.9734C27.5116 25.9989 27.7563 25.9343 27.9547 25.792C28.1532 25.6497 28.2914 25.4399 28.3426 25.2029H30.3916L31.4967 23.6629H39.3718L40.0747 24.0733H42.404V23.6629H40.1966H40.1956ZM27.3548 25.3841C27.4234 25.3844 27.4909 25.3674 27.5511 25.3348C27.6112 25.3021 27.6619 25.2549 27.6984 25.1975H27.9019C27.8534 25.3218 27.7624 25.4255 27.6448 25.4905C27.5271 25.5555 27.3901 25.5778 27.2576 25.5534C27.1251 25.529 27.0054 25.4596 26.9192 25.3571C26.833 25.2546 26.7859 25.1256 26.7859 24.9923C26.7859 24.8591 26.833 24.73 26.9192 24.6275C27.0054 24.525 27.1251 24.4556 27.2576 24.4312C27.3901 24.4069 27.5271 24.4291 27.6448 24.4941C27.7624 24.5591 27.8534 24.6628 27.9019 24.7871H27.6984C27.662 24.7296 27.6113 24.6822 27.5512 24.6494C27.4911 24.6165 27.4235 24.5994 27.3548 24.5996C27.2496 24.5996 27.1486 24.6409 27.0742 24.7145C26.9998 24.788 26.958 24.8878 26.958 24.9919C26.958 25.0959 26.9998 25.1957 27.0742 25.2692C27.1486 25.3428 27.2496 25.3841 27.3548 25.3841ZM29.2223 21.4535C29.1536 21.4533 29.086 21.4704 29.0259 21.5032C28.9658 21.536 28.9151 21.5834 28.8787 21.641H26.8627L26.4604 22.43H24.2905V22.8404H26.7262L27.1285 22.0513H28.8815C28.918 22.1087 28.9687 22.156 29.0288 22.1886C29.0889 22.2213 29.1565 22.2382 29.2251 22.238C29.3303 22.238 29.4312 22.1966 29.5056 22.1231C29.58 22.0495 29.6219 21.9497 29.6219 21.8457C29.6219 21.7417 29.58 21.6419 29.5056 21.5683C29.4312 21.4948 29.3303 21.4535 29.2251 21.4535H29.2223ZM34.846 15.5724C34.7773 15.5723 34.7097 15.5894 34.6496 15.6222C34.5895 15.655 34.5388 15.7024 34.5023 15.76H33.016L32.1721 15.3496H26.3019L25.8996 16.1386H24.2915V16.549H26.1608L26.5631 15.76H32.0731L32.9171 16.1703H34.5033C34.5498 16.2435 34.619 16.2999 34.7006 16.3311C34.7821 16.3623 34.8717 16.3666 34.9559 16.3433C35.0486 16.3178 35.1286 16.2598 35.1812 16.1802C35.2339 16.1006 35.2554 16.0049 35.242 15.9108C35.2286 15.8166 35.181 15.7305 35.1082 15.6685C35.0353 15.6064 34.9421 15.5717 34.846 15.5724ZM36.6338 16.6214L35.8375 18.1261H32.447L31.0605 17.0635H28.4031C28.3565 16.9902 28.2872 16.9337 28.2054 16.9025C28.1237 16.8713 28.0339 16.8671 27.9495 16.8905C27.8554 16.9146 27.7736 16.9722 27.7196 17.0521C27.6657 17.1321 27.6434 17.2288 27.657 17.324C27.6706 17.4192 27.7191 17.5061 27.7933 17.5681C27.8676 17.6302 27.9623 17.6631 28.0595 17.6605C28.1281 17.6608 28.1956 17.6438 28.2557 17.6112C28.3158 17.5785 28.3666 17.5313 28.4031 17.4739H30.9167L32.3031 18.5365H36.0968L36.8931 17.0318H42.4096V16.6214H36.6365H36.6338Z" fill="white"/>
</svg>
