<svg width="68" height="32" viewBox="0 0 68 32" fill="none" xmlns="http://www.w3.org/2000/svg">
<path d="M42.833 10.5134L33.8433 5.86122C33.7542 5.8209 33.6575 5.80005 33.5597 5.80005C33.4619 5.80005 33.3652 5.8209 33.2761 5.86122L24.293 10.5134C24.2176 10.5529 24.1607 10.6204 24.1346 10.7014C24.1085 10.7824 24.1152 10.8704 24.1534 10.9465L24.5732 11.7928C24.6198 11.8748 24.6862 11.9439 24.7663 11.9938C24.8464 12.0437 24.9376 12.0728 25.0318 12.0785H42.0898C42.184 12.0728 42.2752 12.0437 42.3553 11.9938C42.4354 11.9439 42.5017 11.8748 42.5484 11.7928L42.9682 10.9465C43.0067 10.871 43.0141 10.7834 42.9889 10.7024C42.9636 10.6215 42.9077 10.5536 42.833 10.5134ZM26.6877 13.3446L25.9235 20.9808H29.7383L28.974 13.3457L26.6877 13.3446ZM32.4177 13.3446L31.6534 20.9808H35.4737L34.7094 13.3457L32.4177 13.3446ZM38.1476 13.3446L37.3811 20.9808H41.2015L40.4372 13.3457L38.1476 13.3446ZM41.3754 22.2524H25.1149C23.6251 22.2524 23.6317 24.8 25.1149 24.8H41.3754C42.8652 24.7967 42.8585 22.2524 41.3754 22.2524Z" fill="#06A6FF"/>
</svg>
