<svg width="68" height="35" viewBox="0 0 68 35" fill="none" xmlns="http://www.w3.org/2000/svg">
<path d="M16.1276 24.1653H16.4011L16.1468 25.2274C16.1261 25.2853 16.1173 25.3468 16.121 25.4082C16.1247 25.4696 16.1408 25.5296 16.1683 25.5846C16.2025 25.6274 16.2471 25.6608 16.2979 25.6816C16.3486 25.7023 16.4038 25.7098 16.4583 25.7031C16.5843 25.7082 16.7076 25.6659 16.804 25.5846C16.9037 25.4885 16.9709 25.3636 16.9961 25.2274L17.2504 24.1653H17.5276L17.2668 25.2539C17.228 25.4595 17.1217 25.6462 16.9647 25.7846C16.8009 25.9088 16.5986 25.9713 16.3933 25.961C16.3045 25.9716 16.2146 25.9612 16.1306 25.9306C16.0466 25.9001 15.971 25.8503 15.9097 25.7853C15.8645 25.705 15.8375 25.6159 15.8305 25.5241C15.8234 25.4323 15.8366 25.34 15.869 25.2539L16.1276 24.1653Z" fill="#696A6A"/>
<path d="M17.4912 25.9145L17.9269 24.0959L18.7541 25.1624C18.7762 25.1924 18.7984 25.2245 18.8205 25.2588C18.8426 25.2931 18.8648 25.3302 18.8884 25.3745L19.1791 24.1602H19.4355L18.9998 25.9824L18.1548 24.8938C18.1318 24.8641 18.1106 24.8331 18.0912 24.8009C18.0714 24.7677 18.0535 24.7334 18.0376 24.6981L17.7462 25.9124L17.4912 25.9145Z" fill="#696A6A"/>
<path d="M19.4111 25.9129L19.8297 24.1658H20.1068L19.6883 25.9129H19.4111Z" fill="#696A6A"/>
<path d="M20.0864 25.9129L20.505 24.1658H21.4571L21.3993 24.4072H20.7243L20.62 24.8415H21.2943L21.2343 25.0915H20.56L20.3636 25.9129H20.0864Z" fill="#696A6A"/>
<path d="M21.3433 25.9129L21.7618 24.1658H22.039L21.6204 25.9129H21.3433Z" fill="#696A6A"/>
<path d="M22.0198 25.9129L22.4383 24.1658H23.3905L23.3326 24.4072H22.6576L22.5526 24.8458H23.2269L23.1669 25.0958H22.4933L22.3576 25.6608H23.0319L22.9712 25.9129H22.0198Z" fill="#696A6A"/>
<path d="M23.6274 25.6573H23.8602C23.9583 25.6599 24.0564 25.651 24.1524 25.6309C24.221 25.6138 24.2857 25.5837 24.3431 25.5423C24.4218 25.4845 24.4883 25.4117 24.5388 25.328C24.5939 25.2372 24.6339 25.1381 24.6574 25.0345C24.683 24.9391 24.6905 24.8397 24.6795 24.7416C24.6707 24.6622 24.6378 24.5874 24.5852 24.5273C24.5441 24.4842 24.4916 24.4535 24.4338 24.4387C24.3324 24.4175 24.2288 24.4087 24.1252 24.4123H23.9238L23.6274 25.6573ZM23.2888 25.9145L23.7074 24.1652H24.0809C24.2499 24.1588 24.4191 24.1715 24.5852 24.203C24.6716 24.2241 24.7511 24.2672 24.8159 24.328C24.8974 24.4081 24.951 24.5123 24.9688 24.6252C24.9899 24.7636 24.9821 24.9049 24.9459 25.0402C24.9125 25.187 24.8532 25.3268 24.7709 25.453C24.6936 25.5709 24.5933 25.672 24.4759 25.7502C24.3887 25.8085 24.2921 25.8513 24.1902 25.8766C24.0409 25.9062 23.8888 25.9189 23.7367 25.9145H23.2881H23.2888Z" fill="#696A6A"/>
<path d="M26.2958 24.8974H26.3673C26.4765 24.9056 26.5861 24.888 26.6873 24.846C26.719 24.8259 26.7461 24.7993 26.7669 24.7681C26.7877 24.7368 26.8017 24.7016 26.808 24.6645C26.8304 24.5693 26.8187 24.5036 26.773 24.4674C26.6859 24.4194 26.5862 24.3993 26.4873 24.4095H26.4158L26.2958 24.8974ZM26.2244 25.1303L26.0316 25.9153H25.7744L26.193 24.166H26.6123C26.7025 24.1629 26.7928 24.1699 26.8816 24.1867C26.9322 24.199 26.979 24.2235 27.018 24.2581C27.0626 24.3017 27.0923 24.3581 27.103 24.4195C27.1165 24.4953 27.1133 24.573 27.0937 24.6474C27.0741 24.7292 27.04 24.8069 26.993 24.8767C26.9502 24.9427 26.894 24.9989 26.828 25.0417C26.7761 25.0752 26.7189 25.0993 26.6587 25.1131C26.5665 25.1291 26.4729 25.1358 26.3794 25.1331H26.2194L26.2244 25.1303Z" fill="#696A6A"/>
<path d="M27.4381 25.2274H27.9131L27.8338 24.8281C27.8302 24.8024 27.8266 24.7731 27.8231 24.7402C27.8195 24.7074 27.8181 24.6688 27.8166 24.6295C27.7981 24.6676 27.7797 24.7033 27.7616 24.7367C27.7435 24.77 27.7257 24.8005 27.7081 24.8281L27.4381 25.2274ZM28.0402 25.9145L27.9545 25.4638H27.2788L26.9731 25.9145H26.6816L27.9431 24.0959L28.3324 25.9145H28.0402Z" fill="#696A6A"/>
<path d="M28.7297 25.9131L28.9211 25.1124L28.5747 24.1659H28.8661L29.0804 24.7595C29.0854 24.7745 29.0911 24.7945 29.0983 24.8195C29.1054 24.8445 29.1118 24.8709 29.1183 24.8995C29.1354 24.8716 29.1533 24.8452 29.1711 24.8202C29.189 24.7952 29.2068 24.7731 29.2254 24.7488L29.7326 24.1624H30.0097L29.1961 25.1152L29.0047 25.9131H28.7297Z" fill="#696A6A"/>
<path d="M31.3754 25.0508C31.3754 25.0375 31.3792 25.0001 31.3869 24.9387C31.3926 24.8877 31.3973 24.8456 31.4011 24.8122C31.384 24.8531 31.3645 24.893 31.3426 24.9315C31.319 24.9735 31.2932 25.0143 31.2654 25.0537L30.5961 25.9822L30.3776 25.0337C30.3685 24.9962 30.3613 24.9583 30.3561 24.9201C30.3511 24.8837 30.3483 24.8487 30.3469 24.8115C30.3376 24.848 30.3254 24.8865 30.3104 24.9272C30.2954 24.968 30.2783 25.0094 30.2576 25.0537L29.8683 25.9144H29.6133L30.4526 24.0908L30.6919 25.1951C30.6919 25.2122 30.7004 25.2415 30.7061 25.2822C30.7119 25.323 30.7197 25.373 30.7276 25.433C30.7557 25.383 30.7966 25.3192 30.8504 25.2415L30.8826 25.1937L31.6383 24.0908L31.6147 25.9144H31.3569L31.3754 25.0508Z" fill="#696A6A"/>
<path d="M31.8354 25.9129L32.254 24.1658H33.2062L33.1483 24.4072H32.4733L32.3683 24.8458H33.0426L32.9826 25.0958H32.309L32.174 25.6608H32.8483L32.7869 25.9129H31.8354Z" fill="#696A6A"/>
<path d="M33.105 25.9145L33.5407 24.0959L34.3678 25.1624C34.39 25.1924 34.4121 25.2245 34.4343 25.2588C34.4564 25.2931 34.4786 25.3302 34.5021 25.3745L34.7928 24.1602H35.0493L34.6136 25.9824L33.7686 24.8938C33.7456 24.8641 33.7244 24.8331 33.705 24.8009C33.6851 24.7677 33.6673 24.7334 33.6514 24.6981L33.36 25.9124L33.105 25.9145Z" fill="#696A6A"/>
<path d="M35.9326 24.406L35.5719 25.9146H35.2948L35.6555 24.4067H35.2026L35.2605 24.1653H36.4412L36.3834 24.4067L35.9326 24.406Z" fill="#696A6A"/>
<path d="M36.2211 25.5646L36.4676 25.4596C36.4663 25.4927 36.4721 25.5257 36.4844 25.5565C36.4967 25.5872 36.5153 25.6151 36.539 25.6382C36.5957 25.6828 36.667 25.7047 36.739 25.6996C36.8165 25.7014 36.8923 25.6761 36.9533 25.6282C37.0136 25.5803 37.0553 25.5128 37.0711 25.4375C37.0959 25.3346 37.0347 25.2429 36.8876 25.1625L36.8404 25.1389C36.7165 25.0803 36.6085 24.9928 36.5254 24.8839C36.4799 24.798 36.4702 24.6976 36.4983 24.6046C36.5293 24.4664 36.6083 24.3437 36.7211 24.2582C36.8365 24.1696 36.9785 24.1227 37.124 24.1253C37.2282 24.1187 37.332 24.1436 37.4219 24.1967C37.4573 24.2208 37.4869 24.2526 37.5084 24.2897C37.5299 24.3268 37.5428 24.3683 37.5461 24.411L37.3019 24.526C37.2863 24.4803 37.2583 24.4398 37.2211 24.4089C37.1827 24.382 37.1366 24.3685 37.0897 24.3703C37.0208 24.3687 36.9533 24.3897 36.8976 24.4303C36.8445 24.4693 36.8072 24.5261 36.7926 24.5903C36.7673 24.6956 36.8402 24.7934 37.0111 24.8839L37.0419 24.901C37.1576 24.9523 37.258 25.0328 37.3333 25.1346C37.3796 25.2226 37.3891 25.3253 37.3597 25.4203C37.326 25.5768 37.2385 25.7165 37.1126 25.8153C36.9842 25.9125 36.8264 25.9629 36.6654 25.9582C36.5458 25.9665 36.4273 25.9298 36.3333 25.8553C36.2944 25.8181 36.2642 25.7727 36.2448 25.7225C36.2254 25.6722 36.2173 25.6183 36.2211 25.5646Z" fill="#696A6A"/>
<path d="M38.2686 25.9129L38.6871 24.1658H38.9643L38.5457 25.9129H38.2686Z" fill="#696A6A"/>
<path d="M38.9438 25.9145L39.3796 24.0959L40.2067 25.1624C40.2288 25.1924 40.251 25.2245 40.2731 25.2588C40.2953 25.2931 40.3174 25.3302 40.341 25.3745L40.6317 24.1602H40.8881L40.4524 25.9824L39.6074 24.8938C39.5845 24.8641 39.5632 24.8331 39.5438 24.8009C39.5241 24.7677 39.5062 24.7334 39.4903 24.6981L39.1988 25.9124L38.9438 25.9145Z" fill="#696A6A"/>
<path d="M41.7715 24.406L41.4108 25.9146H41.1336L41.4944 24.4067H41.0415L41.0994 24.1653H42.2801L42.2222 24.4067L41.7715 24.406Z" fill="#696A6A"/>
<path d="M42.0747 25.9129L42.4933 24.1658H43.4454L43.3876 24.4072H42.7133L42.6083 24.8458H43.2826L43.2226 25.0958H42.5483L42.4133 25.6608H43.0876L43.0261 25.9129H42.0747Z" fill="#696A6A"/>
<path d="M43.8618 24.9116H43.9118C44.0163 24.9201 44.1212 24.9021 44.2168 24.8594C44.2477 24.8376 44.274 24.8099 44.2941 24.7779C44.3142 24.7459 44.3278 24.7103 44.334 24.673C44.3573 24.5778 44.3478 24.5099 44.3054 24.4694C44.2236 24.4198 44.1276 24.3989 44.0325 24.4101H43.9825L43.8618 24.9116ZM43.7904 25.1323L43.6033 25.918H43.3433L43.7618 24.1687H44.1497C44.2365 24.1661 44.3233 24.1738 44.4083 24.1916C44.4617 24.2034 44.511 24.2293 44.5511 24.2666C44.5937 24.3098 44.6223 24.3648 44.6333 24.4244C44.6455 24.4976 44.6421 24.5726 44.6233 24.6444C44.5997 24.7699 44.5393 24.8855 44.4497 24.9766C44.3593 25.0583 44.2447 25.1085 44.1233 25.1194L44.5161 25.9151H44.2025L43.8225 25.1294L43.7904 25.1323Z" fill="#696A6A"/>
<path d="M44.6807 25.9129L45.0992 24.1658H46.0514L45.9935 24.4072H45.3185L45.2142 24.8415H45.8885L45.8285 25.0915H45.1549L44.9578 25.9129H44.6807Z" fill="#696A6A"/>
<path d="M46.3712 25.2274H46.8462L46.7669 24.8281C46.7631 24.8029 46.7595 24.7736 46.7562 24.7402C46.7562 24.7074 46.7512 24.6688 46.7497 24.6295C46.7312 24.6676 46.7128 24.7033 46.6947 24.7367C46.6767 24.77 46.6586 24.8005 46.6405 24.8281L46.3712 25.2274ZM46.9733 25.9145L46.8876 25.4638H46.2119L45.9062 25.9145H45.6147L46.8762 24.0959L47.2655 25.9145H46.9733Z" fill="#696A6A"/>
<path d="M49.0701 24.5907C49.0108 24.5243 48.9376 24.4717 48.8558 24.4365C48.7723 24.4019 48.6826 24.3848 48.5923 24.3865C48.4087 24.3851 48.231 24.4506 48.0923 24.5707C47.9477 24.6936 47.8473 24.8604 47.8065 25.0457C47.782 25.1232 47.7745 25.2051 47.7846 25.2857C47.7948 25.3664 47.8222 25.4439 47.8651 25.5129C47.9083 25.5742 47.9666 25.6233 48.0342 25.6556C48.1019 25.6878 48.1767 25.7022 48.2515 25.6972C48.3547 25.6969 48.457 25.6783 48.5537 25.6422C48.6617 25.6011 48.7634 25.5451 48.8558 25.4757L48.7787 25.7972C48.6942 25.851 48.6026 25.8925 48.5065 25.9207C48.4104 25.9469 48.3111 25.9594 48.2115 25.9579C48.093 25.9614 47.975 25.9402 47.8651 25.8957C47.7677 25.8541 47.6832 25.7873 47.6201 25.7022C47.5556 25.6153 47.5141 25.5136 47.4994 25.4065C47.4828 25.2853 47.4901 25.162 47.5208 25.0436C47.5516 24.9154 47.6035 24.7933 47.6744 24.6822C47.7455 24.57 47.8342 24.4702 47.9373 24.3865C48.0382 24.3029 48.1524 24.2367 48.2751 24.1907C48.394 24.1468 48.5198 24.1243 48.6465 24.1243C48.7404 24.1233 48.8336 24.1385 48.9223 24.1693C49.0074 24.1998 49.0861 24.2458 49.1544 24.305L49.0701 24.5907Z" fill="#696A6A"/>
<path d="M49.0972 25.9129L49.5157 24.1658H50.4679L50.41 24.4072H49.7357L49.6307 24.8458H50.305L50.245 25.0958H49.5707L49.4357 25.6608H50.11L50.0486 25.9129H49.0972Z" fill="#696A6A"/>
<path d="M44.042 22.6417H42.1384L44.7884 13.0703H46.692L44.042 22.6417Z" fill="#66686C"/>
<path d="M43.0528 13.3715C42.9815 13.2785 42.8881 13.2047 42.7811 13.1568C42.6741 13.109 42.5569 13.0885 42.44 13.0972H31.9621L31.4428 14.9715H33.3493H40.975L40.42 16.9715H32.7943V16.97H30.8886L29.3071 22.68H31.215L32.2764 18.8472H40.8478C41.1237 18.8443 41.3904 18.7478 41.6043 18.5736C41.831 18.406 41.9956 18.1678 42.0721 17.8965L43.1321 14.0629C43.1734 13.9493 43.1876 13.8277 43.1737 13.7077C43.1598 13.5877 43.1189 13.4726 43.0528 13.3715Z" fill="#66686C"/>
<path d="M28.1975 22.0437C28.1465 22.2283 28.0365 22.3912 27.8841 22.5073C27.7317 22.6234 27.5455 22.6864 27.3539 22.6865H17.5225C17.4079 22.6945 17.2932 22.6737 17.1887 22.6259C17.0843 22.5781 16.9935 22.5049 16.9246 22.413C16.8588 22.3143 16.8168 22.2017 16.8022 22.084C16.7876 21.9663 16.8006 21.8468 16.8403 21.7351L19.2389 13.1001H21.1461L19.0032 20.8144H26.6325L28.7753 13.1001H30.6825L28.1975 22.0437Z" fill="#66686C"/>
<path d="M49.9825 13.0889L52.3947 17.8867L47.3232 22.6832L49.9825 13.0889Z" fill="#27803B"/>
<path d="M48.2914 13.0889L50.7042 17.8867L45.6328 22.6832L48.2914 13.0889Z" fill="#E9661C"/>
<path d="M46.3092 9.99998L46.9842 6.95998C46.9967 6.91506 46.9984 6.86778 46.9889 6.82211C46.9794 6.77644 46.9592 6.7337 46.9298 6.69747C46.9004 6.66124 46.8628 6.63258 46.8201 6.61388C46.7773 6.59517 46.7307 6.58698 46.6842 6.58998H44.7942L49.3402 0.906982L48.6652 3.94698C48.6526 3.9919 48.651 4.03918 48.6605 4.08485C48.67 4.13052 48.6902 4.17326 48.7196 4.20949C48.749 4.24572 48.7866 4.27438 48.8293 4.29308C48.8721 4.31178 48.9186 4.31998 48.9652 4.31698H50.8592L46.3092 9.99998Z" fill="#F0B516"/>
</svg>
