<svg width="68" height="32" viewBox="0 0 68 32" fill="none" xmlns="http://www.w3.org/2000/svg">
<path d="M33.7284 24.7654C31.8859 24.7611 30.088 24.188 28.5722 23.1218C27.0563 22.0556 25.8939 20.5464 25.2383 18.7936C25.2383 18.7826 25.234 18.7721 25.2264 18.7644C25.2188 18.7567 25.2085 18.7523 25.1978 18.7523C24.8494 17.7093 24.6681 16.616 24.6609 15.5144C24.6614 14.4086 24.857 13.3119 25.2383 12.2765C25.2383 12.2656 25.2426 12.2551 25.2502 12.2473C25.2578 12.2396 25.2681 12.2353 25.2788 12.2353C25.9207 10.4813 27.0742 8.96924 28.5845 7.9018C30.0948 6.83437 31.8897 6.26268 33.7284 6.26343C35.5709 6.26769 37.3687 6.84077 38.8846 7.90699C40.4004 8.97321 41.5629 10.4824 42.2184 12.2353C42.2184 12.2462 42.2227 12.2567 42.2303 12.2644C42.2379 12.2722 42.2482 12.2765 42.259 12.2765C43.0281 14.3641 43.0281 16.6647 42.259 18.7523C42.259 18.7633 42.2547 18.7737 42.2471 18.7815C42.2395 18.7892 42.2292 18.7936 42.2184 18.7936C41.5632 20.5466 40.4008 22.056 38.8849 23.1223C37.369 24.1885 35.5709 24.7615 33.7284 24.7654ZM26.5982 13.4121C26.4177 14.0982 26.3199 14.8042 26.307 15.5144C26.3199 16.225 26.4177 16.9314 26.5982 17.618H29.3168C29.2327 16.9201 29.1904 16.2176 29.1902 15.5144C29.1895 14.8112 29.2318 14.1087 29.3168 13.4108L26.5982 13.4121ZM30.6375 8.66092C29.2379 9.30601 28.0707 10.3793 27.2984 11.7313H29.565C29.7755 10.6606 30.1367 9.62649 30.6375 8.66092ZM30.968 13.4108C30.8826 14.1086 30.8403 14.8112 30.8414 15.5144C30.8395 16.2176 30.8818 16.9203 30.968 17.618H36.49C36.5754 16.9202 36.6177 16.2176 36.6166 15.5144C36.6185 14.8112 36.5762 14.1085 36.49 13.4108H30.968ZM33.7284 7.94554C32.8217 7.94554 31.829 9.41755 31.2554 11.7313H36.2013C35.6239 9.41626 34.635 7.94554 33.7284 7.94554ZM37.893 19.3001C37.6814 20.3727 37.3189 21.4085 36.8167 22.3756C38.2079 21.7175 39.3716 20.6474 40.1557 19.3053L37.893 19.3001ZM40.1595 11.7287C39.3855 10.3773 38.2171 9.30503 36.8167 8.66092C37.3159 9.62721 37.677 10.6611 37.8892 11.7313H40.1557L40.1595 11.7287ZM41.1485 15.5144C41.136 14.8038 41.0386 14.0974 40.8585 13.4108H38.1399C38.2241 14.1087 38.2663 14.8112 38.2665 15.5144C38.2672 16.2176 38.2249 16.9202 38.1399 17.618H40.861C41.0394 16.9311 41.1359 16.2248 41.1485 15.5144ZM33.7284 23.0833C34.635 23.0833 35.6277 21.6113 36.2013 19.2976H31.2554C31.8328 21.6126 32.823 23.0833 33.7284 23.0833ZM27.2984 19.3001C28.0695 20.6544 29.2369 21.7297 30.6375 22.3756C30.1383 21.4093 29.7772 20.3755 29.565 19.3053L27.2984 19.3001Z" fill="#4A8FFF"/>
</svg>
