<svg id="icon-check-sign" xmlns="http://www.w3.org/2000/svg" width="27.96" height="27.96" viewBox="0 0 27.96 27.96">
  <rect id="wrap" width="27.96" height="27.96" transform="translate(0 0)" fill="none"/>
  <path id="_" data-name="✓" d="M4.312,12.86l-.7-1.235q-.3-.523-.515-.858l-.449-.7-.339-.517A14.976,14.976,0,0,0,0,6.693a2.072,2.072,0,0,1,1.279-.568,1.84,1.84,0,0,1,1.3.534A9.534,9.534,0,0,1,4.007,8.692a34.735,34.735,0,0,1,2.5-6.057A7.274,7.274,0,0,1,8,.538,2.661,2.661,0,0,1,9.742,0a7.142,7.142,0,0,1,1.423.178A13.626,13.626,0,0,0,7.684,4.346,62.143,62.143,0,0,0,4.312,12.86Z" transform="translate(8.842 8.27)" fill="#aba79d"/>
</svg>
