<svg id="Group_8966" data-name="Group 8966" xmlns="http://www.w3.org/2000/svg" width="24" height="24" viewBox="0 0 24 24">
  <rect id="Rectangle_1665" data-name="Rectangle 1665" width="24" height="24" fill="#fff" opacity="0"/>
  <path id="Subtraction_23" data-name="Subtraction 23" d="M22175.311,22271.309a10,10,0,1,1,9.994-10A9.93,9.93,0,0,1,22175.311,22271.309Zm-4.572-15.523v2.242h3.365v1.471c-2.777.133-4.791.686-4.791,1.318s2.014,1.184,4.791,1.314v4.711h2.432v-4.711c2.771-.125,4.779-.676,4.779-1.314s-2.01-1.186-4.779-1.318v-1.471h3.359v-2.24h-9.156Zm4.59,5.965c-.471,0-.873-.008-1.225-.021-2.484-.109-4.221-.533-4.221-1.029s1.775-.928,4.221-1.033v1.643c.127.01.6.039,1.234.039.264,0,.77,0,1.188-.039h.01v-1.637c2.436.105,4.2.539,4.2,1.027s-1.729.92-4.2,1.029C22176.465,22261.734,22176.121,22261.75,22175.328,22261.75Z" transform="translate(-22163.307 -22249.307)" fill="#26a17b" stroke="rgba(0,0,0,0)" stroke-width="1"/>
</svg>
