<svg id="Group_13862" data-name="Group 13862" xmlns="http://www.w3.org/2000/svg" width="24" height="24" viewBox="0 0 24 24">
  <rect id="Rectangle_2179" data-name="Rectangle 2179" width="24" height="24" fill="#00a6ff" opacity="0"/>
  <g id="Local_Bank" data-name="Local Bank" transform="translate(3.39 3.059)">
    <g id="Layer_3" transform="translate(0 0)">
      <g id="Group_4461" data-name="Group 4461">
        <path id="Path_4150" data-name="Path 4150" d="M269.9,406.167c-.2-.1-.412-.193-.621-.287h-4.651a1.1,1.1,0,0,0-.235.669,1.063,1.063,0,0,0,.45.943h3.5A6.081,6.081,0,0,0,269.9,406.167Z" transform="translate(-254.197 -389.763)" fill="#00a6ff"/>
        <path id="Path_4153" data-name="Path 4153" d="M286.831,391.68h-.082a3.076,3.076,0,0,0-1.069.2h2.632A5.48,5.48,0,0,0,286.831,391.68Z" transform="translate(-274.502 -376.25)" fill="#00a6ff"/>
        <g id="Group_4460" data-name="Group 4460">
          <path id="Path_4154" data-name="Path 4154" d="M51.417,405.88h-7.76a.807.807,0,0,0,0,1.612h7.765a3.547,3.547,0,0,1-.085-.7A4.144,4.144,0,0,1,51.417,405.88Z" transform="translate(-42.89 -389.763)" fill="#00a6ff"/>
          <path id="Path_4155" data-name="Path 4155" d="M77.876,196.15H64.467a.4.4,0,0,0,0,.806h.191v7.253h-.191a.807.807,0,0,0,0,1.613H71.4a3.732,3.732,0,0,1,2.117-2.23q.166-.071.337-.129V201.1a.758.758,0,0,1-.366-.219,1.2,1.2,0,0,1,0-1.46.767.767,0,0,1,.367-.218v-2.247h2.3v2.217c.48,0,.895,0,1.279,0,0-.156,0-.31,0-.461,0-.2,0-.391,0-.581a1.071,1.071,0,0,1,.254-.78v-.4h.191a.4.4,0,0,0,0-.806Zm-9.387,8.058h-2.3v-7.253h2.3Zm3.832,0h-2.3v-7.253h2.3Z" transform="translate(-62.742 -190.187)" fill="#00a6ff"/>
          <path id="Path_4156" data-name="Path 4156" d="M59.235,76.667l-7.6-3.6a.734.734,0,0,0-.629,0l-7.663,3.626a.818.818,0,0,0-.435.9.776.776,0,0,0,.749.637H58.986a.787.787,0,0,0,.767-.806A.8.8,0,0,0,59.235,76.667Z" transform="translate(-42.887 -72.997)" fill="#00a6ff"/>
        </g>
        <rect id="Rectangle_1548" data-name="Rectangle 1548" width="1.817" height="9.537" transform="translate(9.508 5.9)" fill="#00a6ff"/>
        <rect id="Rectangle_1549" data-name="Rectangle 1549" width="1.817" height="9.537" transform="translate(13.214 5.9)" fill="#00a6ff"/>
        <rect id="Rectangle_1550" data-name="Rectangle 1550" width="1.902" height="16.939" rx="0.951" transform="translate(17.03 15.98) rotate(90)" fill="#00a6ff"/>
        <rect id="Rectangle_1551" data-name="Rectangle 1551" width="1.902" height="15.34" rx="0.951" transform="translate(16.23 13.747) rotate(90)" fill="#00a6ff"/>
      </g>
    </g>
  </g>
</svg>
