<svg width="24" height="25" viewBox="0 0 24 25" fill="none" xmlns="http://www.w3.org/2000/svg">
<path d="M18.6057 8.00098L16.7466 9.4489L17.8211 11.5431L19.6792 10.0942L18.6057 8.00098Z" fill="white"/>
<path d="M9.54908 9.85712C9.19153 9.54679 8.82563 9.2027 8.47399 8.88455C8.30903 8.7319 8.15355 8.5694 8.00839 8.39795C7.92735 8.30344 7.71943 8.0415 7.71943 8.0415C7.71943 8.0415 7.51153 8.3034 7.43047 8.39795C7.28531 8.5694 7.12983 8.7319 6.96487 8.88455C6.61323 9.2027 6.24733 9.54677 5.88978 9.85712C5.60235 10.0566 5.3699 10.3248 5.21383 10.6372C5.05776 10.9497 4.98309 11.2962 4.99669 11.6449C5.04279 11.9269 5.17889 12.1866 5.38481 12.3854C5.59073 12.5843 5.8555 12.7117 6.13984 12.7488C6.5539 12.7981 6.97346 12.728 7.34878 12.547C7.3221 13.0611 7.17581 13.562 6.92145 14.0102H8.51744C8.2631 13.5621 8.11683 13.0611 8.09017 12.547C8.46546 12.7281 8.88499 12.7981 9.29902 12.7488C9.58336 12.7117 9.84812 12.5843 10.054 12.3854C10.26 12.1866 10.3961 11.9269 10.4422 11.6449C10.4558 11.2962 10.3811 10.9497 10.225 10.6373C10.069 10.3248 9.83652 10.0566 9.54908 9.85712Z" fill="white"/>
<path d="M22.6369 7.32054L22.6203 7.26706C22.6037 7.21502 22.5871 7.16299 22.5666 7.11583C22.5289 7.02918 22.4862 6.94476 22.4387 6.86299L22.4182 6.82604C22.3851 6.76476 22.3519 6.70399 22.3148 6.64855C22.2718 6.58146 22.2221 6.51776 22.1586 6.43606C22.101 6.36459 22.0424 6.29506 21.979 6.22894C21.9224 6.16961 21.8648 6.11418 21.8043 6.0602C21.7209 5.98814 21.6339 5.9203 21.5437 5.85696C21.49 5.81855 21.4363 5.78013 21.3787 5.74561C21.2768 5.686 21.1716 5.63226 21.0635 5.58466L21.0088 5.5589C20.9707 5.5409 20.9337 5.52291 20.8936 5.50832C20.7194 5.44125 20.5389 5.39141 20.3548 5.35954L14.1049 4.29321C14.0458 4.10427 13.969 3.92128 13.8755 3.74668L13.8433 3.68736C13.8216 3.64264 13.7975 3.59913 13.7711 3.55704C13.7252 3.48654 13.6735 3.42089 13.6032 3.33192C13.5514 3.26627 13.5007 3.20112 13.4441 3.13985C13.3845 3.07566 13.3191 3.01683 13.2547 2.95849C13.1874 2.89774 13.1161 2.83887 13.0419 2.78295C12.9765 2.7353 12.9101 2.6896 12.8408 2.64632C12.747 2.58954 12.6503 2.53777 12.551 2.49121C12.4914 2.46203 12.4329 2.43285 12.3694 2.40806C12.2589 2.36683 12.1462 2.33192 12.0317 2.3035L11.977 2.28796C11.936 2.2758 11.8941 2.26364 11.8511 2.25538C11.6675 2.2194 11.4809 2.20084 11.2937 2.19995H4.1458C3.36485 2.20077 2.61611 2.51018 2.06385 3.0603C1.51158 3.61043 1.2009 4.35635 1.19995 5.13441V16.9165C1.2009 17.6945 1.51158 18.4405 2.06385 18.9906C2.61611 19.5407 3.36485 19.8501 4.1458 19.8509H8.13216C8.32609 20.2937 8.6276 20.6813 9.00948 20.9789C9.39136 21.2765 9.8416 21.4748 10.3196 21.5557L17.364 22.7576C17.5295 22.7857 17.697 22.7999 17.8648 22.7999C18.5597 22.801 19.2325 22.5564 19.7635 22.1097C20.2945 21.6631 20.6493 21.0433 20.7648 20.3605L22.7599 8.74765C22.7959 8.53472 22.8077 8.31845 22.7951 8.1029C22.7798 7.83597 22.7265 7.57256 22.6369 7.32054ZM20.9492 8.19577C20.9541 8.27599 20.9505 8.3565 20.9385 8.43598L18.9424 20.0493C18.9181 20.1907 18.8661 20.326 18.7893 20.4474C18.7126 20.5688 18.6125 20.6739 18.495 20.7568C18.3774 20.8397 18.2446 20.8986 18.1041 20.9303C17.9637 20.962 17.8183 20.9659 17.6764 20.9416L11.281 19.8509H11.2937C12.0747 19.8501 12.8234 19.5407 13.3757 18.9906C13.9279 18.4405 14.2386 17.6945 14.2396 16.9165V6.18517L20.0424 7.17515C20.0965 7.18463 20.1497 7.19828 20.2015 7.21598L20.3362 7.27919C20.3592 7.28836 20.3817 7.29875 20.4036 7.3103L20.4875 7.37011C20.5188 7.39126 20.5487 7.41415 20.5773 7.43868C20.6008 7.4591 20.6222 7.4805 20.6408 7.49942C20.6632 7.52373 20.6847 7.54999 20.7258 7.60007L20.7619 7.64578L20.8848 7.90689C20.9186 8.00002 20.9403 8.09712 20.9492 8.19577ZM12.1117 4.42206L12.2483 4.62142C12.2974 4.7079 12.3348 4.80044 12.3596 4.89664C12.3787 4.97449 12.3889 5.05427 12.3899 5.13441V16.9165C12.3896 17.2061 12.274 17.4837 12.0685 17.6886C11.863 17.8934 11.5844 18.0086 11.2937 18.0091H4.1458C3.85513 18.0086 3.5765 17.8934 3.37101 17.6886C3.16552 17.4837 3.04995 17.2061 3.04965 16.9165V5.13441C3.04995 4.84482 3.16552 4.56716 3.37101 4.36234C3.5765 4.15752 3.85513 4.04226 4.1458 4.04183H11.2937C11.3487 4.04238 11.4035 4.04709 11.4577 4.05593L11.5944 4.09337C11.6266 4.10164 11.6588 4.10893 11.6734 4.11476L11.7661 4.15899C11.801 4.17524 11.8349 4.19342 11.8677 4.21345C11.8924 4.22813 11.9162 4.24437 11.9389 4.26207C11.9662 4.28299 11.9936 4.30583 12.0141 4.32431L12.0453 4.35203C12.0599 4.36515 12.0746 4.3778 12.0873 4.39141L12.1117 4.42206Z" fill="white"/>
</svg>
