<svg width="24" height="25" viewBox="0 0 24 25" fill="none" xmlns="http://www.w3.org/2000/svg">
<path d="M18.4619 23H5.5371C4.46644 22.9987 3.43999 22.5728 2.68296 21.8157C1.92593 21.0586 1.50015 20.0321 1.49902 18.9614V6.03858C1.50015 4.96791 1.92593 3.94141 2.68296 3.18429C3.43999 2.42717 4.46644 2.00125 5.5371 2H18.4619C19.5326 2.00125 20.559 2.42717 21.3161 3.18429C22.0731 3.94141 22.4989 4.96791 22.5 6.03858V18.9614C22.4989 20.0321 22.0731 21.0586 21.3161 21.8157C20.559 22.5728 19.5326 22.9987 18.4619 23ZM5.5371 3.79981C4.94376 3.80073 4.37501 4.03695 3.95559 4.45664C3.53618 4.87633 3.30034 5.44524 3.2998 6.03858V18.9614C3.30034 19.5548 3.53618 20.1237 3.9556 20.5434C4.37501 20.9631 4.94376 21.1993 5.5371 21.2002H18.4619C19.0553 21.1993 19.624 20.9631 20.0434 20.5434C20.4628 20.1237 20.6987 19.5548 20.6992 18.9614V6.03858C20.6987 5.44524 20.4628 4.87633 20.0434 4.45664C19.624 4.03694 19.0553 3.80073 18.4619 3.79981H5.5371Z" fill="white"/>
<path d="M8.71166 10.7627L4.59766 14.8768H6.35666V17.8493C6.35542 17.8875 6.36188 17.9255 6.37566 17.9612C6.38959 17.9968 6.41069 18.0291 6.43766 18.0561C6.46463 18.0832 6.49699 18.1044 6.53266 18.1183C6.5683 18.1322 6.60642 18.1387 6.64466 18.1373H10.7587C10.7969 18.1387 10.835 18.1322 10.8707 18.1183C10.9063 18.1044 10.9387 18.0833 10.9657 18.0561C10.9926 18.0291 11.0137 17.9968 11.0277 17.9612C11.0419 17.9257 11.0484 17.8875 11.0467 17.8493V14.8974H12.7647L8.71166 10.7627Z" fill="white"/>
<path d="M18.1558 10.4528V7.15113C18.1575 7.11293 18.151 7.07481 18.1368 7.03933C18.1228 7.00374 18.1017 6.9714 18.0748 6.94433C18.0478 6.91722 18.0154 6.89603 17.9798 6.88213C17.9441 6.86825 17.906 6.86181 17.8678 6.86323H13.7538C13.7155 6.86181 13.6774 6.86825 13.6418 6.88213C13.6062 6.89627 13.5739 6.91742 13.5468 6.94433C13.5198 6.9714 13.4987 7.00374 13.4848 7.03933C13.471 7.07494 13.4645 7.11296 13.4658 7.15113V10.4528H11.7178L15.8318 14.5669L19.9458 10.4528H18.1558Z" fill="white"/>
</svg>
