<svg width="24" height="25" viewBox="0 0 24 25" fill="none" xmlns="http://www.w3.org/2000/svg">
<path d="M19.1977 6.1096C19.2118 5.91493 19.1845 5.71948 19.1176 5.5361C19.0165 5.26337 18.8301 5.03051 18.586 4.87215C18.3419 4.71378 18.0531 4.63837 17.7627 4.65711C17.7141 4.65964 17.6665 4.67174 17.6226 4.6927C17.5791 4.71413 17.54 4.74362 17.5075 4.7796C17.4757 4.81615 17.4512 4.85854 17.4355 4.9044C17.4196 4.95029 17.4134 4.999 17.4175 5.0474C17.4238 5.13677 17.4621 5.22086 17.5255 5.28421C17.5952 5.3558 17.689 5.39911 17.7887 5.4058C17.956 5.42953 18.1122 5.5031 18.237 5.6169C18.3509 5.74077 18.4224 5.89764 18.4411 6.0648C18.4546 6.16372 18.4995 6.25569 18.5692 6.3272C18.6311 6.39288 18.7162 6.4319 18.8064 6.436C18.9013 6.44329 18.9953 6.41324 19.0684 6.35228C19.1415 6.29131 19.1879 6.20424 19.1977 6.1096Z" fill="white" stroke="white" stroke-width="0.3"/>
<mask id="path-2-inside-1_2055_6144" fill="white">
<path d="M21.9008 5.59606C22.0281 5.10292 22.0329 4.58621 21.9151 4.09076C21.7972 3.59531 21.5601 3.1361 21.2244 2.75296C20.9509 2.50012 20.6301 2.30367 20.2805 2.17486C19.9309 2.04604 19.5593 1.98739 19.187 2.00226C18.9162 2.00441 18.6461 2.02954 18.3795 2.07736C17.2418 2.30864 16.199 2.87384 15.3845 3.70066C15.0743 4.01026 14.4919 4.62026 13.7224 5.44596L5.36583 2.97816C5.29227 2.95644 5.21632 2.94381 5.13968 2.94056C5.03491 2.94044 4.93115 2.96111 4.83444 3.00138C4.73773 3.04166 4.64999 3.10072 4.5763 3.17516L2.79312 4.95806C2.64247 5.1061 2.5568 5.30786 2.55492 5.51899C2.55305 5.73012 2.63512 5.93336 2.78311 6.08406C2.81676 6.11989 2.85474 6.1514 2.89619 6.17786L9.05528 10.4661L8.68904 10.8602C8.14468 11.4514 7.60932 12.0331 7.11199 12.5774L3.5156 11.8548C3.4632 11.8439 3.40997 11.8377 3.35649 11.8361C3.25169 11.8357 3.14787 11.8563 3.05113 11.8966C2.95439 11.9369 2.86667 11.996 2.79312 12.0707L1.23406 13.6283C1.14572 13.715 1.07925 13.8215 1.04011 13.939C1.00097 14.0564 0.990274 14.1815 1.00891 14.3039C1.03498 14.4766 1.11358 14.6371 1.23406 14.7637C1.28573 14.8132 1.3424 14.8572 1.40317 14.8951L3.77875 16.2463C3.7045 16.3966 3.6799 16.5667 3.70849 16.7319C3.73708 16.8971 3.81739 17.049 3.93786 17.1658L4.82045 18.0479L4.56728 18.3012C4.41621 18.4534 4.33165 18.6592 4.33212 18.8736C4.33192 18.9783 4.35261 19.082 4.39299 19.1787C4.43336 19.2754 4.49262 19.363 4.56728 19.4366C4.64103 19.5109 4.72879 19.5699 4.82548 19.6102C4.92218 19.6504 5.0259 19.6712 5.13065 19.6712C5.23541 19.6712 5.33912 19.6504 5.43582 19.6102C5.53251 19.5699 5.62027 19.5109 5.69403 19.4366L5.9472 19.1926L6.79276 20.0372C6.91446 20.1561 7.07008 20.2345 7.23819 20.2613C7.4063 20.2882 7.57861 20.2623 7.73138 20.1873L9.1123 22.6082C9.14513 22.6721 9.18958 22.7294 9.24339 22.7771C9.36766 22.901 9.52955 22.9802 9.70369 23.0023H9.80676C9.91156 23.0026 10.0154 22.982 10.1121 22.9417C10.2089 22.9014 10.2966 22.8423 10.3701 22.7677L11.9292 21.2101C12.0224 21.1171 12.091 21.0023 12.1285 20.8761C12.1661 20.7499 12.1715 20.6164 12.1443 20.4876L11.4028 16.828C11.8071 16.4527 12.2294 16.068 12.6707 15.6645C12.9429 15.4111 13.215 15.1578 13.4972 14.9044L17.8161 21.1069C17.8161 21.1069 17.8721 21.1819 17.9002 21.2101C18.0346 21.3428 18.2104 21.4256 18.3985 21.4447C18.5155 21.4539 18.6332 21.4377 18.7434 21.3972C18.8536 21.3567 18.9537 21.2929 19.0369 21.2101L20.8211 19.4272C20.9229 19.3243 20.9949 19.1959 21.0296 19.0555C21.0643 18.9151 21.0604 18.7679 21.0182 18.6296L18.5296 10.2128C19.4682 9.34006 19.9855 8.84276 20.2477 8.57996C21.0845 7.7726 21.6603 6.73334 21.9008 5.59606ZM10.4922 20.3843L9.9849 20.891L8.96122 19.0894C9.27143 18.8079 9.63767 18.4701 10.0419 18.0948L10.5012 20.375L10.4922 20.3843ZM5.83514 13.9567C5.4689 14.3602 5.13968 14.7168 4.85849 15.017L3.10232 14.013L3.60966 13.5063L5.82513 13.9567H5.83514ZM12.5016 6.75026C11.7131 7.59476 10.9145 8.45806 10.154 9.28376L4.59532 5.41776L5.36583 4.64836L12.5016 6.75026ZM8.59598 16.5465C8.74501 16.3968 8.82912 16.1946 8.83013 15.9835C8.82919 15.7696 8.74525 15.5644 8.59598 15.4111C8.52308 15.3356 8.43548 15.2758 8.33859 15.2355C8.24169 15.1952 8.13756 15.1751 8.0326 15.1766C7.81866 15.1794 7.61375 15.2632 7.45922 15.4111L5.94722 16.9219L5.60999 16.5841C8.55795 13.375 15.2344 6.12156 16.5293 4.84546C17.116 4.24576 17.8681 3.83418 18.6897 3.66316C18.8564 3.62975 19.0261 3.614 19.1961 3.61616C19.5216 3.59135 19.8442 3.69209 20.0977 3.89766C20.2411 4.09911 20.3367 4.33051 20.3775 4.57434C20.4182 4.81818 20.4029 5.06808 20.3328 5.30516C20.1591 6.12521 19.7474 6.87589 19.1491 7.46336C17.7501 8.86146 9.39356 16.5278 7.39318 18.3669L7.09298 18.0666L8.60498 16.5559L8.59598 16.5465ZM15.2524 13.2999C15.9569 12.6524 16.6233 12.0331 17.2437 11.4514L19.3651 18.639L18.5956 19.4085L14.699 13.816L15.2524 13.3093V13.2999Z"/>
</mask>
<path d="M21.9008 5.59606C22.0281 5.10292 22.0329 4.58621 21.9151 4.09076C21.7972 3.59531 21.5601 3.1361 21.2244 2.75296C20.9509 2.50012 20.6301 2.30367 20.2805 2.17486C19.9309 2.04604 19.5593 1.98739 19.187 2.00226C18.9162 2.00441 18.6461 2.02954 18.3795 2.07736C17.2418 2.30864 16.199 2.87384 15.3845 3.70066C15.0743 4.01026 14.4919 4.62026 13.7224 5.44596L5.36583 2.97816C5.29227 2.95644 5.21632 2.94381 5.13968 2.94056C5.03491 2.94044 4.93115 2.96111 4.83444 3.00138C4.73773 3.04166 4.64999 3.10072 4.5763 3.17516L2.79312 4.95806C2.64247 5.1061 2.5568 5.30786 2.55492 5.51899C2.55305 5.73012 2.63512 5.93336 2.78311 6.08406C2.81676 6.11989 2.85474 6.1514 2.89619 6.17786L9.05528 10.4661L8.68904 10.8602C8.14468 11.4514 7.60932 12.0331 7.11199 12.5774L3.5156 11.8548C3.4632 11.8439 3.40997 11.8377 3.35649 11.8361C3.25169 11.8357 3.14787 11.8563 3.05113 11.8966C2.95439 11.9369 2.86667 11.996 2.79312 12.0707L1.23406 13.6283C1.14572 13.715 1.07925 13.8215 1.04011 13.939C1.00097 14.0564 0.990274 14.1815 1.00891 14.3039C1.03498 14.4766 1.11358 14.6371 1.23406 14.7637C1.28573 14.8132 1.3424 14.8572 1.40317 14.8951L3.77875 16.2463C3.7045 16.3966 3.6799 16.5667 3.70849 16.7319C3.73708 16.8971 3.81739 17.049 3.93786 17.1658L4.82045 18.0479L4.56728 18.3012C4.41621 18.4534 4.33165 18.6592 4.33212 18.8736C4.33192 18.9783 4.35261 19.082 4.39299 19.1787C4.43336 19.2754 4.49262 19.363 4.56728 19.4366C4.64103 19.5109 4.72879 19.5699 4.82548 19.6102C4.92218 19.6504 5.0259 19.6712 5.13065 19.6712C5.23541 19.6712 5.33912 19.6504 5.43582 19.6102C5.53251 19.5699 5.62027 19.5109 5.69403 19.4366L5.9472 19.1926L6.79276 20.0372C6.91446 20.1561 7.07008 20.2345 7.23819 20.2613C7.4063 20.2882 7.57861 20.2623 7.73138 20.1873L9.1123 22.6082C9.14513 22.6721 9.18958 22.7294 9.24339 22.7771C9.36766 22.901 9.52955 22.9802 9.70369 23.0023H9.80676C9.91156 23.0026 10.0154 22.982 10.1121 22.9417C10.2089 22.9014 10.2966 22.8423 10.3701 22.7677L11.9292 21.2101C12.0224 21.1171 12.091 21.0023 12.1285 20.8761C12.1661 20.7499 12.1715 20.6164 12.1443 20.4876L11.4028 16.828C11.8071 16.4527 12.2294 16.068 12.6707 15.6645C12.9429 15.4111 13.215 15.1578 13.4972 14.9044L17.8161 21.1069C17.8161 21.1069 17.8721 21.1819 17.9002 21.2101C18.0346 21.3428 18.2104 21.4256 18.3985 21.4447C18.5155 21.4539 18.6332 21.4377 18.7434 21.3972C18.8536 21.3567 18.9537 21.2929 19.0369 21.2101L20.8211 19.4272C20.9229 19.3243 20.9949 19.1959 21.0296 19.0555C21.0643 18.9151 21.0604 18.7679 21.0182 18.6296L18.5296 10.2128C19.4682 9.34006 19.9855 8.84276 20.2477 8.57996C21.0845 7.7726 21.6603 6.73334 21.9008 5.59606ZM10.4922 20.3843L9.9849 20.891L8.96122 19.0894C9.27143 18.8079 9.63767 18.4701 10.0419 18.0948L10.5012 20.375L10.4922 20.3843ZM5.83514 13.9567C5.4689 14.3602 5.13968 14.7168 4.85849 15.017L3.10232 14.013L3.60966 13.5063L5.82513 13.9567H5.83514ZM12.5016 6.75026C11.7131 7.59476 10.9145 8.45806 10.154 9.28376L4.59532 5.41776L5.36583 4.64836L12.5016 6.75026ZM8.59598 16.5465C8.74501 16.3968 8.82912 16.1946 8.83013 15.9835C8.82919 15.7696 8.74525 15.5644 8.59598 15.4111C8.52308 15.3356 8.43548 15.2758 8.33859 15.2355C8.24169 15.1952 8.13756 15.1751 8.0326 15.1766C7.81866 15.1794 7.61375 15.2632 7.45922 15.4111L5.94722 16.9219L5.60999 16.5841C8.55795 13.375 15.2344 6.12156 16.5293 4.84546C17.116 4.24576 17.8681 3.83418 18.6897 3.66316C18.8564 3.62975 19.0261 3.614 19.1961 3.61616C19.5216 3.59135 19.8442 3.69209 20.0977 3.89766C20.2411 4.09911 20.3367 4.33051 20.3775 4.57434C20.4182 4.81818 20.4029 5.06808 20.3328 5.30516C20.1591 6.12521 19.7474 6.87589 19.1491 7.46336C17.7501 8.86146 9.39356 16.5278 7.39318 18.3669L7.09298 18.0666L8.60498 16.5559L8.59598 16.5465ZM15.2524 13.2999C15.9569 12.6524 16.6233 12.0331 17.2437 11.4514L19.3651 18.639L18.5956 19.4085L14.699 13.816L15.2524 13.3093V13.2999Z" fill="white" stroke="white" stroke-width="2" mask="url(#path-2-inside-1_2055_6144)"/>
</svg>
