<svg width="24" height="25" viewBox="0 0 24 25" fill="none" xmlns="http://www.w3.org/2000/svg">
<g clip-path="url(#clip0_2055_6137)">
<path d="M23.0059 9.17041C22.4296 7.26864 21.3704 5.54864 19.9315 4.17809C18.4926 2.80753 16.7231 1.83318 14.7956 1.35002C12.868 0.866853 10.8482 0.891366 8.93297 1.42117C7.01773 1.95096 5.27243 2.96797 3.86723 4.37305C1.71377 6.52371 0.502295 9.44138 0.499037 12.4849C0.49653 14.1381 0.850531 15.7725 1.53691 17.2766C2.22328 18.7807 3.22589 20.1191 4.4764 21.2006C5.7269 22.2821 7.19588 23.0812 8.78322 23.5436C10.3705 24.0059 12.0389 24.1205 13.6746 23.8796C15.3102 23.6388 16.8747 23.0481 18.2614 22.1478C19.648 21.2475 20.8243 20.0588 21.7099 18.6627C22.5956 17.2666 23.1698 15.696 23.3934 14.0579C23.6171 12.4198 23.4849 10.7528 23.0059 9.17041ZM20.959 16.2192C20.9253 16.3005 20.8836 16.3775 20.8477 16.4576L20.0751 16.0119L20.0669 16.0261C19.8105 16.6077 19.4916 17.1597 19.1159 17.6724L19.1077 17.6866L19.8843 18.1347C19.0876 19.2608 18.0571 20.2017 16.8633 20.8931C15.6696 21.5844 14.3406 22.0099 12.9673 22.1406V21.2491C12.3246 21.3234 11.6755 21.3234 11.0328 21.2493V22.1468C10.7198 22.1158 10.4078 22.0735 10.0977 22.0117C7.89703 21.5695 5.91697 20.3799 4.49321 18.6445C4.36577 18.4889 4.24981 18.3256 4.13286 18.163L4.91338 17.7125C4.52832 17.193 4.2018 16.6325 3.93975 16.0414L3.16106 16.4907C2.59257 15.2328 2.29896 13.8682 2.29985 12.4878V12.4863C2.29913 11.2154 2.55039 9.95691 3.03911 8.78369C3.08306 8.6778 3.13799 8.57831 3.18535 8.47443L3.95794 8.92017C4.22239 8.33005 4.55125 7.77097 4.93853 7.25311L4.16143 6.80469C4.95818 5.6936 5.9837 4.76608 7.16895 4.08453C8.3542 3.40299 9.67169 2.98323 11.0328 2.85352V3.74994C11.6755 3.67576 12.3246 3.6758 12.9673 3.75006V2.87706C14.3328 3.00185 15.6553 3.41957 16.8447 4.10172C18.0341 4.78388 19.0624 5.71444 19.8597 6.83L19.1077 7.26383L19.2397 7.49241C19.4986 7.86944 19.7278 8.26606 19.925 8.67869L20.075 8.93852L20.8264 8.50498C21.3853 9.71045 21.6859 11.0195 21.7087 12.3481C21.7316 13.6767 21.4763 14.9953 20.959 16.2192Z" fill="white"/>
<path d="M19.8613 11.7173C19.6727 9.72754 18.7385 7.88274 17.2461 6.55325C15.7726 5.23167 13.8431 4.53449 11.8652 4.60892C10.843 4.61326 9.83073 4.82012 8.88889 5.21754C7.94706 5.61496 7.09332 6.19507 6.37698 6.92435C4.91871 8.41467 4.10194 10.4167 4.10156 12.5018C4.10119 14.5869 4.91724 16.5893 6.37498 18.0801C7.09218 18.8087 7.94641 19.3882 8.88849 19.7854C9.83057 20.1825 10.8419 20.3894 11.8642 20.3941C11.9306 20.3961 11.998 20.397 12.0654 20.397C12.5076 20.397 12.9488 20.357 13.3838 20.2774C15.3416 19.9533 17.0991 18.887 18.291 17.3004C19.4974 15.7028 20.058 13.7096 19.8613 11.7173ZM17.958 13.7754C17.7253 14.9974 17.1353 16.1228 16.2627 17.0093C15.4008 17.8902 14.2934 18.4909 13.085 18.7329C12.6917 18.8136 12.2912 18.8541 11.8897 18.854H11.8682C11.0495 18.8534 10.2395 18.6877 9.48635 18.3667C8.72834 18.0462 8.04204 17.5774 7.46779 16.9878C6.8886 16.3956 6.43167 15.6951 6.12307 14.9263C5.81207 14.1542 5.65451 13.3289 5.6592 12.4966V12.3482C5.67803 11.5666 5.83988 10.7951 6.13674 10.0718C6.44022 9.30375 6.89825 8.60622 7.48244 8.02249C8.05698 7.43788 8.74127 6.97244 9.49607 6.65286C10.2373 6.34475 11.0322 6.18643 11.835 6.18703H11.8848C13.111 6.18627 14.3087 6.55668 15.3203 7.24953C16.3557 7.94787 17.1581 8.94042 17.624 10.0991C18.0953 11.2649 18.2115 12.5439 17.958 13.7754Z" fill="white"/>
<path d="M13.2844 10.061C13.1892 9.92977 13.0738 9.81449 12.9424 9.71955H14.0534C14.1535 9.72758 14.2534 9.70193 14.3373 9.64667C14.4212 9.59141 14.4842 9.50971 14.5164 9.41455L14.7854 8.73145H9.79338C9.6929 8.73298 9.59566 8.76721 9.51637 8.82895C9.43732 8.89073 9.38018 8.97626 9.35337 9.07294L9.14637 9.80494H10.5374C10.908 9.77855 11.2797 9.83693 11.6244 9.97565C11.7487 10.0389 11.8565 10.1302 11.9394 10.2423C12.0214 10.355 12.0765 10.485 12.1004 10.6222H9.78037C9.678 10.6212 9.57818 10.6542 9.49657 10.716C9.41495 10.7778 9.35615 10.8649 9.32938 10.9637L9.14637 11.6347H12.0024C11.9345 11.8421 11.8122 12.0274 11.6484 12.1714C11.1738 12.49 10.6079 12.6442 10.0374 12.6106H9.10938V13.4157L11.7334 16.5386H13.5894L11.1484 13.5987C11.8141 13.531 12.4396 13.2484 12.9304 12.7935C13.2535 12.4617 13.4593 12.0334 13.5164 11.5737H13.8944C13.9919 11.5841 14.09 11.5607 14.1723 11.5074C14.2546 11.4541 14.3161 11.3742 14.3464 11.2809L14.5414 10.6222H13.5034C13.4754 10.4206 13.4004 10.2284 13.2844 10.061Z" fill="white"/>
</g>
<defs>
<clipPath id="clip0_2055_6137">
<rect width="24" height="24" fill="white" transform="translate(0 0.5)"/>
</clipPath>
</defs>
</svg>
