<svg width="24" height="25" viewBox="0 0 24 25" fill="none" xmlns="http://www.w3.org/2000/svg">
<path d="M15.6883 22.4979H7.54446C7.40334 22.507 7.26187 22.4866 7.12907 22.438C6.99628 22.3893 6.87508 22.3136 6.77321 22.2155C6.67134 22.1174 6.59103 21.9991 6.53742 21.8683C6.4838 21.7374 6.45806 21.5968 6.46182 21.4555C6.49488 17.2821 7.99823 14.8373 10.5833 12.0231C11.2506 11.3009 11.7508 10.7234 12.1054 10.2897C11.1639 10.2698 10.2301 10.1144 9.33276 9.82835C9.01219 9.72399 8.68221 9.65114 8.3475 9.61084C8.27126 9.60262 8.19459 9.59904 8.11791 9.60013C8.11255 9.65729 8.10898 9.73857 8.10898 9.85158V11.5689C8.10775 11.7276 8.07506 11.8844 8.01281 12.0304C7.95056 12.1764 7.85998 12.3085 7.74632 12.4193C7.52349 12.6393 7.22251 12.762 6.90937 12.7604H5.19161C4.87487 12.7597 4.57134 12.6335 4.34748 12.4094C4.23705 12.2991 4.1495 12.168 4.08987 12.0238C4.03024 11.8795 3.9997 11.7249 4 11.5688V3.72824C4.00023 3.41228 4.12584 3.10932 4.34926 2.8859C4.57269 2.66248 4.87564 2.53686 5.19161 2.53663H6.94865C7.10038 2.53427 7.25103 2.56237 7.39171 2.61926C7.53856 2.67642 7.6725 2.76237 7.78564 2.87205C7.89838 2.98304 7.98874 3.11465 8.05182 3.25973C8.05986 3.27803 8.06701 3.29632 8.07326 3.31461C8.98657 2.8414 10.007 2.61326 11.0349 2.65248C12.0628 2.6917 13.0629 2.99694 13.9375 3.53838C14.2391 3.73456 14.5758 3.8706 14.929 3.93902C15.672 4.06386 16.4352 3.92384 17.0854 3.54337C17.3826 3.3283 17.6617 3.08915 17.9197 2.82832C18.0067 2.73089 18.1136 2.65323 18.2332 2.60056C18.4348 2.50538 18.6614 2.4768 18.8803 2.51895C19.0992 2.56111 19.2989 2.67181 19.4507 2.83505L20.4851 3.82299C20.503 3.84037 20.52 3.85872 20.5369 3.87748C20.6317 3.98623 20.7042 4.11247 20.7504 4.24908C20.7639 4.28902 20.7744 4.32993 20.7817 4.37146C20.8101 4.53548 20.7981 4.70394 20.7469 4.8623C20.6979 5.01525 20.6127 5.15408 20.4985 5.26695C20.4565 5.31429 20.3395 5.46972 20.336 5.47374C17.8431 8.99839 16.3782 13.1462 16.1046 17.4546C16.0531 18.6968 16.2445 19.937 16.6682 21.1058C16.7271 21.2682 16.744 21.4429 16.7173 21.6136C16.6902 21.7841 16.6218 21.9454 16.5181 22.0835C16.422 22.2128 16.2964 22.3173 16.1519 22.3885C16.0079 22.4603 15.8492 22.4978 15.6883 22.4979ZM8.12597 20.8516H14.8612C14.5455 19.7186 14.4101 18.543 14.4601 17.3679C14.7497 12.7867 16.296 8.37393 18.9291 4.61391L18.6772 4.37273C18.4532 4.57156 18.2179 4.75723 17.9724 4.92878C16.9695 5.52949 15.7853 5.75279 14.6325 5.55854C14.0721 5.45218 13.5375 5.23899 13.0577 4.93058C12.3062 4.46762 11.4301 4.24827 10.5491 4.30256C9.6682 4.35684 8.8256 4.68212 8.13669 5.23384C8.01253 5.32227 7.93124 5.39194 7.85531 5.45537C7.73525 5.55611 7.58895 5.62053 7.43358 5.64109C7.2782 5.66164 7.12019 5.63748 6.97806 5.57143C6.83593 5.50538 6.71557 5.40018 6.6311 5.26816C6.54663 5.13614 6.50154 4.98278 6.50113 4.82605V4.18291H5.64722V11.1142H6.46277L6.46185 9.85155C6.43374 9.57829 6.4643 9.30218 6.5515 9.04169C6.63869 8.78119 6.7805 8.54232 6.96744 8.34104C7.18651 8.1734 7.43858 8.05403 7.70707 7.99075C7.97557 7.92747 8.25441 7.92173 8.52528 7.97391C8.97098 8.02667 9.41046 8.12286 9.83746 8.2611C10.5968 8.50256 11.3874 8.63166 12.1841 8.6443C12.5485 8.65457 12.8013 8.65145 13.0612 8.64743L13.5034 8.6443C13.6757 8.65057 13.8431 8.70305 13.9882 8.79624C14.1332 8.88944 14.2506 9.01991 14.3279 9.17401C14.5307 9.63761 14.6906 10.0043 11.7946 13.1388C9.56144 15.5693 8.28765 17.5666 8.12597 20.8516Z" fill="white"/>
</svg>
