<svg width="24" height="25" viewBox="0 0 24 25" fill="none" xmlns="http://www.w3.org/2000/svg">
<path d="M12 1C9.72552 1 7.50211 1.67446 5.61095 2.9381C3.71978 4.20173 2.2458 5.99779 1.37539 8.09914C0.504983 10.2005 0.277244 12.5128 0.720974 14.7435C1.1647 16.9743 2.25997 19.0234 3.86828 20.6317C5.47658 22.24 7.52568 23.3353 9.75646 23.779C11.9872 24.2228 14.2995 23.995 16.4009 23.1246C18.5022 22.2542 20.2983 20.7802 21.5619 18.8891C22.8255 16.9979 23.5 14.7745 23.5 12.5C23.4965 9.45109 22.2837 6.52806 20.1278 4.37216C17.9719 2.21625 15.0489 1.00352 12 1ZM5.083 5.71143C5.10785 5.90397 5.20213 6.08081 5.34815 6.20875C5.49417 6.33669 5.68187 6.40692 5.876 6.40625C5.89748 6.40576 5.92288 6.40674 5.94534 6.40725C6.07091 6.4073 6.19471 6.37768 6.30666 6.32082C6.43717 6.25366 6.54689 6.15221 6.62405 6.02736C6.86916 5.57229 7.08405 5.1968 7.30178 4.84279C7.35687 4.75032 7.39336 4.64798 7.4092 4.54152C7.42482 4.43447 7.41986 4.32542 7.39456 4.22023C7.37144 4.15019 7.33952 4.08337 7.29956 4.02138C7.7208 3.78969 8.15875 3.58978 8.60975 3.4233C7.1759 5.80784 6.35947 8.51237 6.23438 11.292C5.95116 14.5573 6.31022 17.8464 7.29126 20.9737C6.74937 20.6714 6.23761 20.318 5.76294 19.9184C5.77876 19.812 5.7737 19.7036 5.74805 19.5991C5.65528 19.2373 5.53614 18.7598 5.4375 18.2549C5.38049 18.0566 5.25121 17.8869 5.0752 17.7793C4.90354 17.6738 4.6988 17.6359 4.50074 17.6729C4.30268 17.7099 4.12543 17.8191 4.00342 17.9795C2.72924 16.1279 2.14 13.8903 2.33703 11.6513C2.53406 9.41235 3.50504 7.31199 5.083 5.71143ZM12.2688 22.1866C12.1992 21.9626 12.127 21.7348 12.0616 21.5181L11.9912 21.2866C11.9156 21.0986 11.7725 20.9457 11.5899 20.8579C11.4526 20.7917 11.2997 20.765 11.1481 20.7809C10.9966 20.7967 10.8524 20.8545 10.7319 20.9477C10.6113 21.0409 10.5191 21.1658 10.4655 21.3085C10.412 21.4511 10.3993 21.6059 10.4287 21.7554C10.459 21.8584 10.4955 21.9711 10.527 22.0762C10.2356 22.0315 9.94888 21.9743 9.66677 21.9046C8.29583 18.5979 7.75801 15.0051 8.10059 11.4419C8.23902 8.32948 9.31462 5.33151 11.1864 2.841C11.4553 2.81848 11.7254 2.7998 12 2.7998C12.1417 2.7998 12.2797 2.81506 12.4199 2.82111C12.2297 3.12805 12.056 3.41772 11.9131 3.67725C11.8587 3.76906 11.8232 3.87083 11.8086 3.97656C11.7935 4.08329 11.7999 4.19197 11.8274 4.29621C11.8549 4.40044 11.9029 4.49812 11.9688 4.5835C12.0343 4.66872 12.1159 4.74023 12.209 4.79395C12.3351 4.86501 12.4773 4.90251 12.6221 4.90283H12.6279C12.7706 4.90275 12.9107 4.86412 13.0332 4.79102C13.1554 4.71845 13.2554 4.61374 13.3223 4.48828C13.542 4.10938 13.7803 3.72119 14.0371 3.30957C14.078 3.2244 14.1039 3.1328 14.1137 3.03882C16.4216 3.55259 18.4621 4.89235 19.8509 6.80586C21.2398 8.71936 21.8813 11.0746 21.6545 13.4281C21.4278 15.7816 20.3485 17.9711 18.6198 19.5842C16.8911 21.1973 14.6324 22.1229 12.2688 22.1866Z" fill="white"/>
<path d="M4.14061 15.8155H4.14256L4.21678 15.815C4.43162 15.7934 4.62926 15.6879 4.76677 15.5214C4.90427 15.3549 4.97053 15.1409 4.95116 14.9258C4.89192 14.4727 4.86224 14.0161 4.86229 13.5591C4.85762 13.4513 4.83173 13.3455 4.78611 13.2478C4.74048 13.15 4.67602 13.0622 4.59641 12.9894C4.51679 12.9166 4.4236 12.8602 4.32216 12.8234C4.22072 12.7867 4.11303 12.7703 4.00526 12.7753C3.89748 12.7802 3.79174 12.8064 3.69409 12.8523C3.59645 12.8981 3.50881 12.9628 3.4362 13.0426C3.36359 13.1224 3.30744 13.2158 3.27096 13.3173C3.23448 13.4188 3.2184 13.5266 3.22362 13.6343C3.23436 13.8223 3.25194 14.0088 3.26854 14.1934C3.29686 14.4937 3.32225 14.7774 3.32323 15.0689C3.34143 15.273 3.43546 15.4629 3.58677 15.6011C3.73808 15.7393 3.93568 15.8158 4.14061 15.8155Z" fill="white"/>
<path d="M3.74818 10.875C3.84607 10.9386 3.95678 10.9797 4.0724 10.9956H4.22865C4.41153 10.9886 4.5868 10.9206 4.7266 10.8025C4.86639 10.6844 4.96268 10.5229 5.00013 10.3438C5.08419 9.90781 5.19045 9.47643 5.31849 9.05129C5.36916 8.84698 5.3393 8.63101 5.23508 8.44811C5.13087 8.26521 4.96029 8.12942 4.75869 8.06885C4.55709 8.00828 4.33991 8.02758 4.15216 8.12276C3.9644 8.21794 3.82045 8.3817 3.75013 8.58011C3.60387 9.05745 3.48583 9.54299 3.39662 10.0342C3.37334 10.1397 3.373 10.2489 3.39562 10.3545C3.41593 10.4605 3.45782 10.5613 3.51867 10.6504C3.57958 10.7397 3.65759 10.8161 3.74818 10.875Z" fill="white"/>
<path d="M11.435 6.48146C11.3337 6.44447 11.2262 6.42779 11.1184 6.43239C11.0107 6.43698 10.905 6.46275 10.8072 6.50824C10.7094 6.55372 10.6216 6.61801 10.5487 6.69745C10.4758 6.77689 10.4192 6.86991 10.3823 6.97121C10.2192 7.42189 10.0766 7.88088 9.9487 8.37111C9.91904 8.47581 9.91074 8.5854 9.92428 8.69338C9.94426 8.85676 10.0137 9.01013 10.1233 9.13292C10.2329 9.25571 10.3775 9.34205 10.5376 9.38038C10.574 9.38658 10.6109 9.38968 10.6479 9.38966C10.6796 9.3896 10.7113 9.38732 10.7426 9.38282C10.9136 9.37532 11.0783 9.31645 11.2153 9.21388C11.3625 9.11384 11.4726 8.96816 11.5288 8.79932C11.6381 8.371 11.7697 7.94871 11.9233 7.5342C11.9606 7.43303 11.9776 7.32549 11.9732 7.21774C11.9689 7.11 11.9433 7.00417 11.8979 6.90635C11.8525 6.80853 11.7883 6.72063 11.7088 6.64772C11.6294 6.5748 11.5364 6.5183 11.435 6.48146Z" fill="white"/>
<path d="M11.0769 16.8248L11.0622 16.7164C11.0494 16.6095 11.0163 16.5061 10.9646 16.4117C10.8703 16.2497 10.7233 16.125 10.5482 16.0584C10.373 15.9917 10.1803 15.9872 10.0022 16.0456C9.82411 16.1039 9.67143 16.2216 9.56967 16.379C9.46791 16.5364 9.42323 16.7239 9.44309 16.9102C9.49387 17.3433 9.57493 17.8531 9.65501 18.3507C9.69069 18.5392 9.79039 18.7096 9.93723 18.8331C10.0847 18.956 10.2706 19.0232 10.4626 19.023L10.6599 19.0186C10.8653 18.966 11.0428 18.8369 11.1563 18.6578C11.2697 18.4786 11.3105 18.2629 11.2702 18.0548C11.1882 17.629 11.1315 17.2203 11.0769 16.8248Z" fill="white"/>
<path d="M9.78909 14.1158C9.8875 14.1584 9.99337 14.1812 10.1006 14.1827L10.2529 14.1549V14.1436C10.4076 14.1195 10.552 14.0514 10.6689 13.9474C10.828 13.8058 10.9263 13.6083 10.9434 13.3961C10.9473 13.1803 10.9629 12.9664 10.9775 12.7555C10.9941 12.5138 11.0127 12.2638 11.0117 12.0348C11.0204 11.927 11.0076 11.8186 10.9741 11.7159C10.9406 11.6131 10.8871 11.518 10.8166 11.436C10.7461 11.3541 10.6601 11.2869 10.5635 11.2384C10.467 11.1899 10.3617 11.161 10.2539 11.1534C10.1479 11.1445 10.0413 11.1573 9.94043 11.191C9.83884 11.2237 9.74486 11.2765 9.66407 11.3463C9.58271 11.4158 9.51599 11.5008 9.46778 11.5963C9.42186 11.6868 9.39368 11.7852 9.38478 11.8863C9.3146 12.3707 9.28683 12.8604 9.30178 13.3497C9.29992 13.4562 9.31848 13.5621 9.35647 13.6617C9.39445 13.7628 9.45259 13.8552 9.52736 13.9331C9.60191 14.0104 9.69081 14.0725 9.78909 14.1158Z" fill="white"/>
</svg>
