<svg width="23" height="19" viewBox="0 0 23 19" fill="none" xmlns="http://www.w3.org/2000/svg">
<path d="M5.36548 14.9623L5.24204 15.563L4.91483 17.1552C4.91482 17.1553 4.9148 17.1553 4.91479 17.1554C4.89267 17.2642 4.91457 17.3774 4.97571 17.4702C5.03682 17.5629 5.13217 17.6276 5.24088 17.6502C5.26915 17.656 5.29791 17.6591 5.32677 17.6594C5.4225 17.6585 5.51509 17.625 5.58925 17.5644C5.66402 17.5033 5.71549 17.4183 5.73505 17.3238L6.1385 15.3616L6.22061 14.9623H6.62826H16.3729H16.7805L16.8626 15.3616L17.2662 17.3243L17.2669 17.328C17.2775 17.3815 17.2986 17.4323 17.329 17.4776C17.3595 17.5228 17.3986 17.5616 17.4441 17.5916C17.4896 17.6216 17.5406 17.6422 17.5942 17.6523C17.6478 17.6624 17.7029 17.6618 17.7562 17.6504L17.7603 17.6495C17.8141 17.6385 17.8652 17.6171 17.9106 17.5863C17.9561 17.5556 17.995 17.5162 18.0252 17.4704C18.0554 17.4245 18.0763 17.3732 18.0867 17.3193C18.097 17.2655 18.0967 17.2101 18.0856 17.1563L18.0855 17.1559L17.7585 15.5629L17.6352 14.9623H18.2483H20.1967C20.4142 14.9623 20.6295 14.9195 20.8303 14.8363C21.0312 14.7531 21.2137 14.6312 21.3675 14.4774C21.5212 14.3237 21.6432 14.1412 21.7264 13.9403C21.8096 13.7394 21.8524 13.5241 21.8524 13.3067V2.15669C21.8524 1.71758 21.6779 1.29645 21.3675 0.985944C21.057 0.675438 20.6358 0.500991 20.1967 0.500977H2.80418C2.80417 0.500977 2.80417 0.500977 2.80416 0.500977C2.36504 0.501003 1.94392 0.675453 1.63342 0.985955C1.32291 1.29646 1.14846 1.71758 1.14844 2.1567L5.36548 14.9623ZM5.36548 14.9623H4.75228M5.36548 14.9623H4.75228M4.75228 14.9623H2.8042C2.36507 14.9623 1.94393 14.7879 1.63342 14.4774C1.32291 14.1669 1.14846 13.7458 1.14844 13.3067C1.14844 13.3067 1.14844 13.3067 1.14844 13.3067M4.75228 14.9623L1.14844 13.3067M1.14844 13.3067V2.15672V13.3067ZM21.0523 13.3072V13.3067V2.1567V2.15622C21.0521 1.92952 20.962 1.71217 20.8017 1.55183C20.6415 1.39149 20.4242 1.30126 20.1975 1.30093H20.1967L2.80415 1.30093L2.80356 1.30093C2.57682 1.30119 2.35945 1.39139 2.19914 1.55173C2.03883 1.71207 1.94867 1.92946 1.94844 2.15619V2.1567L1.94844 13.3067L1.94844 13.3073C1.94871 13.534 2.0389 13.7514 2.19923 13.9117C2.35957 14.072 2.57694 14.1621 2.80367 14.1623H2.80416H20.1967H20.1973C20.424 14.1621 20.6414 14.0719 20.8017 13.9116C20.962 13.7513 21.0521 13.5339 21.0523 13.3072Z" fill="white" stroke="white"/>
<path d="M7.14727 4.32129H4.94727" stroke="white" stroke-width="1.3" stroke-miterlimit="10" stroke-linecap="round"/>
</svg>
