<svg width="24" height="25" viewBox="0 0 24 25" fill="none" xmlns="http://www.w3.org/2000/svg">
<path d="M6.92543 13.0769H5.11768C5.03569 13.0773 4.95445 13.0604 4.8786 13.0273C4.80276 12.9941 4.73381 12.9454 4.67572 12.8838C4.61763 12.8223 4.57153 12.7491 4.54008 12.6685C4.50862 12.588 4.49243 12.5016 4.49243 12.4143C4.49243 12.3271 4.50862 12.2407 4.54008 12.1601C4.57153 12.0796 4.61763 12.0064 4.67572 11.9448C4.73381 11.8833 4.80276 11.8345 4.8786 11.8014C4.95445 11.7682 5.03569 11.7514 5.11768 11.7517H6.92543C7.00742 11.7514 7.08867 11.7682 7.16451 11.8014C7.24036 11.8345 7.3093 11.8833 7.3674 11.9448C7.42549 12.0064 7.47159 12.0796 7.50304 12.1601C7.53449 12.2407 7.55068 12.3271 7.55068 12.4143C7.55068 12.5016 7.53449 12.588 7.50304 12.6685C7.47159 12.7491 7.42549 12.8223 7.3674 12.8838C7.3093 12.9454 7.24036 12.9941 7.16451 13.0273C7.08867 13.0604 7.00742 13.0773 6.92543 13.0769Z" fill="white"/>
<path d="M22.4638 13.1198C22.3808 11.2201 22.1127 9.43035 21.4051 7.72066C20.6452 6.26837 19.3508 5.17642 17.8013 4.68056C15.896 4.26972 13.9487 4.09233 12.0014 4.15221H11.9986C10.0513 4.09233 8.10393 4.26972 6.1986 4.68056C4.64916 5.17642 3.35477 6.26837 2.59486 7.72066C1.88728 9.43036 1.6192 11.2201 1.53619 13.1198C1.51888 13.5159 1.50147 13.9129 1.50017 14.3095C1.49386 16.1381 1.65734 18.2526 2.42186 19.411C2.774 19.9504 3.2982 20.3517 3.90728 20.5482C4.76831 20.8067 5.66856 20.9054 6.56439 20.8395C7.11545 20.8497 7.66662 20.8271 8.21505 20.7719C8.71374 20.739 9.19829 20.5907 9.63136 20.3386C9.98077 20.1443 10.7717 19.5465 11.4006 19.1043C11.5839 19.0011 11.7902 18.947 12 18.947C12.2098 18.947 12.4161 19.0011 12.5994 19.1043C13.2283 19.5465 14.0192 20.1443 14.3686 20.3386C14.8017 20.5907 15.2863 20.739 15.7849 20.7719C16.3334 20.8271 16.8846 20.8497 17.4356 20.8395C18.3314 20.9054 19.2317 20.8067 20.0927 20.5482C20.7018 20.3517 21.226 19.9504 21.5781 19.411C22.3427 18.2526 22.5061 16.1381 22.4998 14.3095C22.4985 13.9129 22.4811 13.5159 22.4638 13.1198ZM7.11048 6.03497C8.72904 5.79191 10.3637 5.67523 12 5.68594C13.6363 5.67523 15.271 5.79191 16.8895 6.03497C17.6125 6.22097 18.2811 6.5785 18.8401 7.07791C19.3991 7.57732 19.8323 8.20424 20.1037 8.90667C19.7603 8.90218 17.3255 8.83593 12 8.83593C6.67454 8.83593 4.23973 8.90219 3.89629 8.90668C4.16774 8.20424 4.60091 7.57733 5.15988 7.07792C5.71885 6.5785 6.38753 6.22097 7.11048 6.03497ZM20.9114 14.3151C20.9114 16.907 20.4949 18.2022 20.2568 18.5199C20.0907 18.7629 19.8492 18.943 19.5705 19.0317C18.8764 19.2268 18.1535 19.2953 17.4356 19.2337C16.9461 19.2431 16.4564 19.2242 15.969 19.177C15.6748 19.168 15.3875 19.0836 15.1344 18.9317C14.9474 18.8277 14.3609 18.4032 13.973 18.1223L13.5173 17.7937C13.0653 17.498 12.5384 17.3407 12 17.3407C11.4617 17.3407 10.9348 17.498 10.4828 17.7937L10.0271 18.1223C9.63914 18.4032 9.05269 18.8277 8.86571 18.9317C8.61251 19.0836 8.32531 19.168 8.03102 19.177C7.54363 19.2242 7.05397 19.2431 6.56443 19.2337C5.84658 19.2953 5.12363 19.2268 4.42956 19.0317C4.15086 18.943 3.90937 18.7629 3.74327 18.5199C3.50518 18.2022 3.08866 16.907 3.08866 14.3151V14.3139C3.08866 13.1198 3.25319 11.2735 3.25985 11.2201C3.28465 11.0182 3.31177 10.8199 3.34264 10.6262C3.35404 10.5936 3.37544 10.5655 3.40373 10.546C3.43202 10.5265 3.46571 10.5166 3.49992 10.5178C5.25718 10.4997 12 10.4417 12 10.4417C12 10.4417 18.7428 10.4997 20.5001 10.5178C20.5343 10.5166 20.568 10.5265 20.5963 10.546C20.6246 10.5655 20.646 10.5936 20.6574 10.6262C20.6883 10.8199 20.7154 11.0182 20.7402 11.2201C20.7469 11.2735 20.9075 13.1936 20.9114 14.3139L20.9114 14.3151Z" fill="white"/>
</svg>
