<svg xmlns="http://www.w3.org/2000/svg" width="20" height="15" viewBox="0 0 20 15"><defs><style>.a{fill:#e32424;}</style></defs><path class="a" d="M19.621-10.047c-.875.68-2.031,1.547-6.016,4.441-.793.578-2.211,1.871-3.605,1.859C8.613-3.738,7.223-5,6.4-5.605,2.414-8.5,1.254-9.363.379-10.043A.234.234,0,0,0,0-9.859v7.984A1.875,1.875,0,0,0,1.875,0h16.25A1.875,1.875,0,0,0,20-1.875V-9.863A.235.235,0,0,0,19.621-10.047ZM10-5c.906.016,2.211-1.141,2.867-1.617,5.184-3.762,5.578-4.09,6.773-5.027A.935.935,0,0,0,20-12.383v-.742A1.875,1.875,0,0,0,18.125-15H1.875A1.875,1.875,0,0,0,0-13.125v.742a.941.941,0,0,0,.359.738c1.2.934,1.59,1.266,6.773,5.027C7.789-6.141,9.094-4.984,10-5Z" transform="translate(0 15)"/></svg>