<svg xmlns="http://www.w3.org/2000/svg" width="20" height="20" viewBox="0 0 20 20"><defs><style>.a{fill:#e32424;}</style></defs><path class="a" d="M19.429-3.367,15.054-5.242a1.117,1.117,0,0,0-.368-.075,1.062,1.062,0,0,0-.726.345L12.023-2.605A16.821,16.821,0,0,1,5.1-9.527l2.367-1.938a1.059,1.059,0,0,0,.345-.725,1.114,1.114,0,0,0-.076-.368L5.863-16.933A1.024,1.024,0,0,0,5-17.5a1.134,1.134,0,0,0-.209.023l-4.062.937A.982.982,0,0,0,0-15.625H0A18.123,18.123,0,0,0,18.125,2.5h0a.982.982,0,0,0,.913-.727l.937-4.062A1.142,1.142,0,0,0,20-2.5,1.029,1.029,0,0,0,19.429-3.367Z" transform="translate(0 17.5)"/></svg>