<svg id="dropdown备份" xmlns="http://www.w3.org/2000/svg" width="14" height="14" viewBox="0 0 14 14">
  <rect id="wrap" width="14" height="14" fill="none"/>
  <path id="s" d="M5.118,3.263H.47a.469.469,0,0,1-.332-.8L2.462.138a.467.467,0,0,1,.662,0L5.449,2.462A.468.468,0,0,1,5.118,3.263Z" transform="translate(4.206 2.362)" fill="#222"/>
  <path id="s-2" data-name="s" d="M.47,0H5.118A.469.469,0,0,1,5.45.8L3.126,3.125a.467.467,0,0,1-.662,0L.138.8A.469.469,0,0,1,.47,0Z" transform="translate(4.206 8.875)" fill="#222"/>
</svg>
