<svg id="icon-close" xmlns="http://www.w3.org/2000/svg" width="24" height="24" viewBox="0 0 24 24">
  <rect id="wrap" width="24" height="24" fill="none"/>
  <path id="times" d="M9.091,7.5l5.8,5.8a.375.375,0,0,1,0,.53L13.829,14.89a.375.375,0,0,1-.53,0l-5.8-5.8-5.8,5.8a.375.375,0,0,1-.53,0L.11,13.829a.375.375,0,0,1,0-.53l5.8-5.8L.11,1.7a.375.375,0,0,1,0-.53L1.171.11a.375.375,0,0,1,.53,0l5.8,5.8L13.3.11a.375.375,0,0,1,.53,0L14.89,1.171a.375.375,0,0,1,0,.53Z" transform="translate(4.5 4.5)"/>
</svg>
