<svg id="icons" xmlns="http://www.w3.org/2000/svg" xmlns:xlink="http://www.w3.org/1999/xlink" width="64" height="64" viewBox="0 0 64 64">
  <defs>
    <clipPath id="clip-path">
      <rect id="Rectangle_17002" data-name="Rectangle 17002" width="64" height="64" fill="none"/>
    </clipPath>
  </defs>
  <g id="Group_13731" data-name="Group 13731" clip-path="url(#clip-path)">
    <g id="Group_13730" data-name="Group 13730">
      <g id="Group_13729" data-name="Group 13729" clip-path="url(#clip-path)">
        <g id="Group_13728" data-name="Group 13728" opacity="0">
          <g id="Group_13727" data-name="Group 13727">
            <g id="Group_13726" data-name="Group 13726" clip-path="url(#clip-path)">
              <rect id="Rectangle_16999" data-name="Rectangle 16999" width="64" height="64" fill="#222"/>
            </g>
          </g>
        </g>
        <path id="Path_8496" data-name="Path 8496" d="M32.05,4A13.823,13.823,0,0,0,18.27,17.788V23.3h5.513V17.788a8.27,8.27,0,0,1,16.54,0V23.3h5.513V17.788A13.824,13.824,0,0,0,32.05,4" fill="#424242"/>
        <path id="Path_8497" data-name="Path 8497" d="M48.594,59.135H15.513A5.529,5.529,0,0,1,10,53.622V28.813A5.529,5.529,0,0,1,15.513,23.3H48.594a5.529,5.529,0,0,1,5.513,5.513V53.624a5.53,5.53,0,0,1-5.513,5.511" fill="#00a6ff"/>
        <path id="Path_8498" data-name="Path 8498" d="M27.918,41.216a4.135,4.135,0,1,0,4.135-4.135,4.135,4.135,0,0,0-4.135,4.135" fill="#c1e9ff"/>
      </g>
    </g>
  </g>
</svg>
