<svg xmlns="http://www.w3.org/2000/svg" width="40" height="40" viewBox="0 0 40 40"><defs><style>.a{fill:none;}.b{fill:#99683d;}</style></defs><g transform="translate(-0.125)"><rect class="a" width="40" height="40" transform="translate(0.125)"/><path class="b" d="M12.115,27.8a16.391,16.391,0,0,1-4.362-2.753,21.046,21.046,0,0,1-3.892-4.491A24.77,24.77,0,0,1,0,7,2.612,2.612,0,0,1,1.616,4.578L12.12.2A3.072,3.072,0,0,1,13.127,0a3.072,3.072,0,0,1,1.007.2l10.5,4.377A2.612,2.612,0,0,1,26.252,7a26.065,26.065,0,0,1-1.235,8.08A22.673,22.673,0,0,1,21.948,21.2,21.093,21.093,0,0,1,18,25.424,16.277,16.277,0,0,1,14.13,27.8a2.64,2.64,0,0,1-2.015,0ZM2.624,7A22.375,22.375,0,0,0,5.875,18.824a16.235,16.235,0,0,0,7.252,6.547,13.893,13.893,0,0,0,3.8-2.434A18.431,18.431,0,0,0,20.3,18.95,22.282,22.282,0,0,0,23.626,7l-10.5-4.379Zm8.215,12.762-4.965-5a.663.663,0,0,1,.005-.93L7.12,12.6a.663.663,0,0,1,.93.005L11.32,15.9l7.733-7.667a.663.663,0,0,1,.93.005l1.23,1.242a.661.661,0,0,1-.005.93l-9.439,9.363a.662.662,0,0,1-.93-.006Z" transform="translate(7 6.001)"/></g></svg>