<svg xmlns="http://www.w3.org/2000/svg" xmlns:xlink="http://www.w3.org/1999/xlink" width="472.883" height="266.993" viewBox="0 0 472.883 266.993"><defs><style>.a,.c{fill:#fff;}.a{stroke:#fc9795;stroke-miterlimit:10;stroke-width:4px;}.b{fill:#ff8c8c;}.c{font-size:20px;font-family:MicrosoftYaHeiUI-Bold, Microsoft YaHei UI;font-weight:700;}.d{fill:#c93735;}.e{stroke:none;}.f{fill:none;}.g{filter:url(#a);}</style><filter id="a" x="147.497" y="0" width="178.784" height="54.635" filterUnits="userSpaceOnUse"><feOffset dy="1" input="SourceAlpha"/><feGaussianBlur result="b"/><feFlood flood-opacity="0.102"/><feComposite operator="in" in2="b"/><feComposite in="SourceGraphic"/></filter></defs><g transform="translate(-627 -52.691)"><g class="a" transform="translate(627 74.145)"><rect class="e" width="472.883" height="245.539" rx="20"/><rect class="f" x="2" y="2" width="468.883" height="241.539" rx="18"/></g><g transform="translate(763.77 52.691)"><g class="g" transform="matrix(1, 0, 0, 1, -136.77, 0)"><path class="b" d="M0,0H178.784a0,0,0,0,1,0,0V43.635a10,10,0,0,1-10,10H10a10,10,0,0,1-10-10V0A0,0,0,0,1,0,0Z" transform="translate(147.5)"/></g><text class="c" transform="translate(63.468 14.303)"><tspan x="0" y="20">行为限制</tspan></text><path class="d" d="M10.727,0,0,21.454H10.727Z"/><path class="d" d="M-12,0-1.273,21.454H-12Z" transform="translate(201.511)"/></g></g></svg>